<svg xmlns="http://www.w3.org/2000/svg" xmlns:xlink="http://www.w3.org/1999/xlink" viewBox="0 0 1410.35 1465.99"><defs><style>.cls-1{mask:url(#mask);filter:url(#luminosity-noclip-3);}.cls-2,.cls-4{mix-blend-mode:multiply;}.cls-2{fill:url(#linear-gradient);}.cls-3{mask:url(#mask-2);filter:url(#luminosity-noclip-4);}.cls-4{fill:url(#linear-gradient-2);}.cls-5{fill:#114351;opacity:0.1;}.cls-6{fill:#114250;opacity:0.12;}.cls-7{fill:#104150;opacity:0.14;}.cls-8{fill:#10404f;opacity:0.16;}.cls-9{fill:#0f3f4f;opacity:0.18;}.cls-10{fill:#0f3e4e;opacity:0.2;}.cls-11{fill:#0e3d4e;opacity:0.22;}.cls-12{fill:#0e3c4d;opacity:0.24;}.cls-13{fill:#0e3b4c;opacity:0.25;}.cls-14{fill:#0d3a4c;opacity:0.27;}.cls-15{fill:#0d394b;opacity:0.29;}.cls-16{fill:#0c384b;opacity:0.31;}.cls-17{fill:#0c374a;opacity:0.33;}.cls-18{fill:#0c3649;opacity:0.35;}.cls-19{fill:#0b3549;opacity:0.37;}.cls-20{fill:#0b3448;opacity:0.39;}.cls-21{fill:#0a3248;opacity:0.41;}.cls-22{fill:#0a3147;opacity:0.43;}.cls-23{fill:#093047;opacity:0.45;}.cls-24{fill:#092f46;opacity:0.47;}.cls-25{fill:#092e45;opacity:0.49;}.cls-26{fill:#082d45;opacity:0.51;}.cls-27{fill:#082c44;opacity:0.53;}.cls-28{fill:#072b44;opacity:0.55;}.cls-29{fill:#072a43;opacity:0.56;}.cls-30{fill:#072942;opacity:0.58;}.cls-31{fill:#062842;opacity:0.6;}.cls-32{fill:#062741;opacity:0.62;}.cls-33{fill:#052641;opacity:0.64;}.cls-34{fill:#052540;opacity:0.66;}.cls-35{fill:#042440;opacity:0.68;}.cls-36{fill:#04233f;opacity:0.7;}.cls-37{mask:url(#mask-3);}.cls-38{fill:url(#linear-gradient-3);}.cls-39{mask:url(#mask-4);}.cls-40{fill:url(#linear-gradient-4);}.cls-41{fill:#ffa9a9;}.cls-42,.cls-47,.cls-52{fill:#161e3a;}.cls-43{fill:#121b35;}.cls-44{fill:#cc7676;}.cls-45{fill:url(#linear-gradient-5);}.cls-46{fill:url(#linear-gradient-6);}.cls-47,.cls-67{opacity:0.4;}.cls-48{fill:#2d2f4f;}.cls-49{fill:#ffbdbd;}.cls-50{fill:#eaa2a2;}.cls-51{fill:url(#linear-gradient-7);}.cls-52{opacity:0.2;}.cls-53{fill:url(#linear-gradient-8);}.cls-54{fill:url(#linear-gradient-9);}.cls-55{fill:url(#linear-gradient-10);}.cls-56{fill:url(#linear-gradient-11);}.cls-57{fill:url(#linear-gradient-12);}.cls-58{fill:url(#linear-gradient-13);}.cls-59{fill:url(#linear-gradient-14);}.cls-60{fill:#444547;}.cls-61{fill:url(#linear-gradient-15);}.cls-62{fill:#666668;}.cls-63{fill:#101830;}.cls-64,.cls-65{fill:#2c3a60;}.cls-64{opacity:0.5;}.cls-66{fill:url(#linear-gradient-16);}.cls-67{fill:#000102;}.cls-68{fill:#3f3f3f;}.cls-69{fill:#f4821c;}.cls-70{fill:url(#linear-gradient-17);}.cls-71{fill:url(#linear-gradient-18);}.cls-72{fill:url(#linear-gradient-19);}.cls-73{fill:url(#linear-gradient-20);}.cls-74{fill:url(#linear-gradient-21);}.cls-75{fill:url(#linear-gradient-22);}.cls-76{fill:#fff;}.cls-77{fill:url(#linear-gradient-23);}.cls-78{fill:#feffff;}.cls-79{fill:#28afaf;}.cls-80{filter:url(#luminosity-noclip-2);}.cls-81{filter:url(#luminosity-noclip);}</style><filter id="luminosity-noclip" x="788.47" y="-8653.4" width="531.61" height="32766" filterUnits="userSpaceOnUse" color-interpolation-filters="sRGB"><feFlood flood-color="#fff" result="bg"/><feBlend in="SourceGraphic" in2="bg"/></filter><mask id="mask" x="788.47" y="-8653.4" width="531.61" height="32766" maskUnits="userSpaceOnUse"><g class="cls-81"/></mask><linearGradient id="linear-gradient" x1="788.47" y1="805.68" x2="1320.08" y2="805.68" gradientUnits="userSpaceOnUse"><stop offset="0"/><stop offset="1" stop-color="#fff"/></linearGradient><filter id="luminosity-noclip-2" x="850.99" y="-8653.4" width="406.56" height="32766" filterUnits="userSpaceOnUse" color-interpolation-filters="sRGB"><feFlood flood-color="#fff" result="bg"/><feBlend in="SourceGraphic" in2="bg"/></filter><mask id="mask-2" x="850.99" y="-8653.4" width="406.56" height="32766" maskUnits="userSpaceOnUse"><g class="cls-80"/></mask><linearGradient id="linear-gradient-2" x1="1251.86" y1="754.49" x2="856.68" y2="828.2" xlink:href="#linear-gradient"/><filter id="luminosity-noclip-3" x="788.47" y="652.21" width="531.61" height="306.93" filterUnits="userSpaceOnUse" color-interpolation-filters="sRGB"><feFlood flood-color="#fff" result="bg"/><feBlend in="SourceGraphic" in2="bg"/></filter><mask id="mask-3" x="788.47" y="652.21" width="531.61" height="306.93" maskUnits="userSpaceOnUse"><g class="cls-1"><path class="cls-2" d="M1242.22,697.16c103.81,59.93,103.81,157.1,0,217s-272.11,59.94-375.91,0-103.8-157.09,0-217S1138.42,637.23,1242.22,697.16Z"/></g></mask><linearGradient id="linear-gradient-3" x1="788.47" y1="805.68" x2="1320.08" y2="805.68" gradientUnits="userSpaceOnUse"><stop offset="0" stop-color="#95a7d8"/><stop offset="1" stop-color="#dee4f3"/></linearGradient><filter id="luminosity-noclip-4" x="850.99" y="673.98" width="406.56" height="234.74" filterUnits="userSpaceOnUse" color-interpolation-filters="sRGB"><feFlood flood-color="#fff" result="bg"/><feBlend in="SourceGraphic" in2="bg"/></filter><mask id="mask-4" x="850.99" y="673.98" width="406.56" height="234.74" maskUnits="userSpaceOnUse"><g class="cls-3"><path class="cls-4" d="M1198,708.36c79.39,45.83,79.39,120.14,0,166s-208.1,45.83-287.48,0-79.39-120.15,0-166S1118.62,662.52,1198,708.36Z"/></g></mask><linearGradient id="linear-gradient-4" x1="1251.86" y1="754.49" x2="856.68" y2="828.2" gradientUnits="userSpaceOnUse"><stop offset="0" stop-color="#56a6e8"/><stop offset="1" stop-color="#2178cf"/></linearGradient><linearGradient id="linear-gradient-5" x1="884.54" y1="129.31" x2="957.73" y2="129.31" gradientUnits="userSpaceOnUse"><stop offset="0" stop-color="#3e6f7e"/><stop offset="1" stop-color="#98dbf8"/></linearGradient><linearGradient id="linear-gradient-6" x1="896.06" y1="130.41" x2="957.56" y2="130.41" xlink:href="#linear-gradient-3"/><linearGradient id="linear-gradient-7" x1="735.9" y1="483.52" x2="1181.39" y2="483.52" xlink:href="#linear-gradient-3"/><linearGradient id="linear-gradient-8" x1="707.56" y1="325.07" x2="849.27" y2="325.07" xlink:href="#linear-gradient-3"/><linearGradient id="linear-gradient-9" x1="841.43" y1="190.76" x2="927.66" y2="190.76" xlink:href="#linear-gradient-3"/><linearGradient id="linear-gradient-10" x1="1001.75" y1="94.48" x2="945.55" y2="-2.86" xlink:href="#linear-gradient-3"/><linearGradient id="linear-gradient-11" x1="922.6" y1="52.68" x2="1046.54" y2="52.68" xlink:href="#linear-gradient-3"/><linearGradient id="linear-gradient-12" x1="991.09" y1="137.72" x2="1064.28" y2="137.72" xlink:href="#linear-gradient-5"/><linearGradient id="linear-gradient-13" x1="1002.6" y1="138.72" x2="1064.1" y2="138.72" xlink:href="#linear-gradient-3"/><linearGradient id="linear-gradient-14" x1="522.84" y1="632.28" x2="899.54" y2="632.28" gradientUnits="userSpaceOnUse"><stop offset="0" stop-color="#eeefef"/><stop offset="0.99" stop-color="#b4b5b5"/></linearGradient><linearGradient id="linear-gradient-15" x1="1117.97" y1="719.61" x2="871.8" y2="704.23" xlink:href="#linear-gradient-14"/><linearGradient id="linear-gradient-16" x1="1224.86" y1="990.37" x2="1410.35" y2="990.37" gradientUnits="userSpaceOnUse"><stop offset="0" stop-color="#ffa943"/><stop offset="1" stop-color="#ffb985"/></linearGradient><linearGradient id="linear-gradient-17" x1="238.65" y1="870.27" x2="340.8" y2="799.64" xlink:href="#linear-gradient-16"/><linearGradient id="linear-gradient-18" x1="211.56" y1="812.17" x2="464.76" y2="812.17" gradientUnits="userSpaceOnUse"><stop offset="0" stop-color="#f4821c"/><stop offset="1" stop-color="#ffb985"/></linearGradient><linearGradient id="linear-gradient-19" x1="392.11" y1="1286.61" x2="521.86" y2="1286.61" xlink:href="#linear-gradient-4"/><linearGradient id="linear-gradient-20" x1="465.54" y1="1136.14" x2="423.15" y2="1308.95" xlink:href="#linear-gradient-4"/><linearGradient id="linear-gradient-21" x1="957.86" y1="1329.68" x2="1150.68" y2="1329.68" xlink:href="#linear-gradient-4"/><linearGradient id="linear-gradient-22" x1="1082.76" y1="1220.22" x2="1042.92" y2="1322.96" xlink:href="#linear-gradient-4"/><linearGradient id="linear-gradient-23" x1="418.61" y1="321.27" x2="665.76" y2="321.27" gradientTransform="matrix(-1, 0, 0, 1, 1168.33, 0)" xlink:href="#linear-gradient-4"/></defs><g id="Layer_2" data-name="Layer 2"><g id="Layer_2-2" data-name="Layer 2"><path class="cls-5" d="M1359.47,1027.85c-22.67,53.71-177.73,140-283.63,151.13s-284.56-53.51-313.33-104.22C673,916.89,844.61,794.53,1026.77,825.49,1131.75,843.34,1450.75,811.64,1359.47,1027.85Z"/><path class="cls-6" d="M1355.23,1025.88c-21.92,53.67-174.06,139-280,150.24s-281.72-52.72-310.12-103.54c-86.55-154.89,81.51-274.81,261.21-245.21C1131.37,844.28,1441.71,814.2,1355.23,1025.88Z"/><path class="cls-7" d="M1351,1023.9c-21.17,53.65-170.38,138.17-276.28,149.36s-278.89-51.92-306.92-102.86C684.21,918.51,848.61,801.64,1026,829.25,1130.94,845.6,1432.73,816.81,1351,1023.9Z"/><path class="cls-8" d="M1346.75,1021.93c-20.42,53.63-166.7,137.28-272.6,148.47s-276.06-51.12-303.71-102.18c-80.65-148.87,80.18-263.06,255.1-237.09C1130.53,846.72,1423.83,819.49,1346.75,1021.93Z"/><path class="cls-9" d="M1342.51,1020c-19.66,53.62-163,136.38-268.93,147.57s-273.22-50.3-300.5-101.48c-77.74-145.84,79.56-257.38,252.05-233C1130.13,847.83,1415,822.22,1342.51,1020Z"/><path class="cls-10" d="M1338.27,1018c-18.91,53.63-159.35,135.49-265.25,146.68s-270.39-49.49-297.3-100.8c-74.86-142.78,78.94-251.72,249-229C1129.74,848.94,1406.27,825,1338.27,1018Z"/><path class="cls-11" d="M1334,1016c-18.13,53.66-155.67,134.6-261.57,145.79s-267.56-48.67-294.09-100.12c-72-139.69,78.33-246.08,245.95-224.92C1129.35,850,1397.62,827.87,1334,1016Z"/><path class="cls-12" d="M1329.78,1014.05c-17.37,53.7-152,133.71-257.89,144.89S807.14,1111.1,781,1059.51c-69.19-136.58,77.73-240.46,242.9-220.86C1129,851.12,1389.06,830.77,1329.78,1014.05Z"/><path class="cls-13" d="M1325.54,1012.08c-16.59,53.75-148.31,132.81-254.22,144s-261.93-47-287.67-98.74c-66.42-133.46,77.12-234.87,239.84-216.81C1128.57,852.2,1380.59,833.74,1325.54,1012.08Z"/><path class="cls-14" d="M1321.3,1010.11c-15.81,53.82-144.64,131.92-250.54,143.11s-259.12-46.17-284.47-98.06c-63.67-130.31,76.53-229.29,236.79-212.75C1128.19,853.27,1372.21,836.75,1321.3,1010.11Z"/><path class="cls-15" d="M1317.06,1008.14c-15,53.91-141,131-246.87,142.21S813.88,1105,788.93,1053C728,925.84,864.87,829.25,1022.67,844.3,1127.81,854.32,1363.93,839.83,1317.06,1008.14Z"/><path class="cls-16" d="M1312.81,1006.17c-14.21,54-137.28,130.13-243.18,141.32S816.12,1103,791.57,1050.8c-58.27-123.95,75.36-218.2,230.69-204.62C1127.44,855.37,1355.76,843,1312.81,1006.17Z"/><path class="cls-17" d="M1308.57,1004.2c-13.39,54.12-133.6,129.24-239.51,140.43s-250.72-43.63-274.84-96C738.6,927.89,869,835.93,1021.85,848.06,1127.07,856.4,1347.69,846.13,1308.57,1004.2Z"/><path class="cls-18" d="M1304.33,1002.23c-12.56,54.25-129.93,128.35-235.83,139.53S820.56,1099,796.86,1046.45c-53-117.51,74.19-207.21,224.58-196.51C1126.7,857.42,1339.72,849.35,1304.33,1002.23Z"/><path class="cls-19" d="M1300.09,1000.26c-11.71,54.39-126.25,127.46-232.16,138.64S822.77,1097,799.5,1044.27C749.08,930,873.12,842.53,1021,851.82,1126.33,858.43,1331.87,852.62,1300.09,1000.26Z"/><path class="cls-20" d="M1295.85,998.29c-10.84,54.55-122.57,126.56-228.48,137.75s-242.4-41-265.23-94c-47.88-111,73.05-196.3,218.48-188.39C1126,859.43,1324.12,855.93,1295.85,998.29Z"/><path class="cls-21" d="M1291.6,996.32c-9.93,54.72-118.89,125.67-224.79,136.86s-239.65-40.15-262-93.26C759.42,932.21,877.26,849,1020.21,855.58,1125.6,860.41,1316.49,859.28,1291.6,996.32Z"/><path class="cls-22" d="M1287.36,994.35c-9,54.9-115.21,124.78-221.12,136s-236.91-39.26-258.81-92.57c-42.9-104.4,71.9-185.49,212.37-180.28C1125.23,861.37,1309,862.67,1287.36,994.35Z"/><path class="cls-23" d="M1283.12,992.38c-8,55.1-111.54,123.88-217.44,135.07s-234.19-38.37-255.61-91.89c-40.46-101.08,71.34-180.11,209.32-176.22C1124.87,862.32,1301.57,866.09,1283.12,992.38Z"/><path class="cls-24" d="M1278.88,990.41c-7.05,55.3-107.86,123-213.77,134.18s-231.48-37.47-252.4-91.2C774.66,935.64,883.48,858.63,1019,861.22,1124.51,863.25,1294.29,869.53,1278.88,990.41Z"/><path class="cls-25" d="M1274.64,988.44c-6,55.52-104.19,122.1-210.09,133.28s-228.79-36.55-249.2-90.51c-35.69-94.39,70.25-164.54,203.22-168.11C1124.11,860.27,1287.13,873,1274.64,988.44Z"/><path class="cls-26" d="M1270.4,986.47c-4.91,55.74-100.51,121.21-206.42,132.39S837.86,1083.22,818,1029c-33.37-91,69.71-159.45,200.16-164C1123.72,861.27,1280.08,876.49,1270.4,986.47Z"/><path class="cls-27" d="M1266.15,984.5c-3.75,56-96.82,120.31-202.73,131.5s-223.48-34.72-242.78-89.15c-31.08-87.64,69.18-154.43,197.11-160C1123.32,862.29,1273.15,880,1266.15,984.5Z"/><path class="cls-28" d="M1261.91,982.53c-2.51,56.19-93.15,119.42-199.06,130.6S842,1079.35,823.28,1024.68c-28.82-84.26,68.49-153.58,194.06-155.93C1123.05,866.77,1266.34,883.47,1261.91,982.53Z"/><path class="cls-29" d="M1257.67,980.56c-1.2,56.42-89.47,118.53-195.38,129.71S844,1077.43,825.92,1022.5c-26.61-80.86,67.92-148.34,191-151.87C1122.68,867.6,1259.65,887,1257.67,980.56Z"/><path class="cls-30" d="M1253.43,978.59c.22,56.63-85.8,117.64-191.71,128.82S846,1075.52,828.56,1020.32c-24.43-77.45,67.35-143.12,188-147.81C1122.31,868.4,1253.08,890.42,1253.43,978.59Z"/><path class="cls-31" d="M1249.19,976.62c1.76,56.83-82.12,116.74-188,127.92s-213.24-30.92-230-86.4c-22.3-74,66.75-137.93,184.9-143.75C1121.94,869.17,1246.61,893.85,1249.19,976.62Z"/><path class="cls-32" d="M1244.94,974.65c3.46,57-78.44,115.85-184.35,127s-210.79-30-226.74-85.71c-20.2-70.62,66.17-132.76,181.86-139.7C1121.56,869.92,1240.25,897.23,1244.94,974.65Z"/><path class="cls-33" d="M1240.7,972.68c5.31,57.13-74.76,115-180.67,126.14s-208.4-29-223.54-85c-18.14-67.2,65.57-127.61,178.81-135.64C1121.17,870.64,1234,900.54,1240.7,972.68Z"/><path class="cls-34" d="M1236.46,970.71c7.36,57.19-71.08,114.06-177,125.25s-206.07-28-220.33-84.35C823,947.82,904.1,889.14,1014.89,880,1120.78,871.33,1227.84,903.75,1236.46,970.71Z"/><path class="cls-35" d="M1232.22,968.74c9.65,57.16-67.41,113.17-173.32,124.35s-203.84-27-217.12-83.66c-14.16-60.39,64.35-117.36,172.7-127.52C1120.37,872,1221.76,906.84,1232.22,968.74Z"/><path class="cls-36" d="M1228,966.77c12.21,57-63.73,112.28-169.64,123.46s-201.69-26-213.92-83S908.15,895,1014.07,883.79,1215.74,909.76,1228,966.77Z"/><g class="cls-37"><path class="cls-38" d="M1242.22,697.16c103.81,59.93,103.81,157.1,0,217s-272.11,59.94-375.91,0-103.8-157.09,0-217S1138.42,637.23,1242.22,697.16Z"/></g><g class="cls-39"><path class="cls-40" d="M1198,708.36c79.39,45.83,79.39,120.14,0,166s-208.1,45.83-287.48,0-79.39-120.15,0-166S1118.62,662.52,1198,708.36Z"/></g><path class="cls-41" d="M759.64,1178.07s8.72,27.73,35.56,21,19.52-32.11,19.52-32.11Z"/><path class="cls-42" d="M790.37,1223.83s-63.53,57.46-83.81,57.46-26.31-28.17,12.19-57.46,40.89-40.31,40.89-40.31,22.41,17.78,41.56,9.32,24.23-14.47,24.23-14.47l-2.26,35.89Z"/><path class="cls-43" d="M993.32,707.76s-89.53,108.48-128,141.07-65.93,324.09-65.93,324.09l-24.28,3.15H775l-17.67,2.3s-.09-.25-.3-.77c-3.66-10.39-45.06-126.79-86.46-213.51-43.41-90.85-59.68-154.62-33.91-188.52,7.33-9.67,29.05-23.64,56.31-38.76,68.53-37.91,172.33-82.72,172.33-82.72Z"/><path class="cls-42" d="M1121.14,820.16C1076.93,858.07,886,924.05,877.59,943.68s-2.81,125-11.24,196.57-19.64,113.68-19.64,113.68-5.62,12.65-25.3,12.65a37.14,37.14,0,0,1-5.45-.42,42.42,42.42,0,0,1-14.87-5.5,55.78,55.78,0,0,1-13.37-10.9s-4.22-148.82-26.66-219-53.33-143.2,0-189.54c12.82-11.12,29.64-23.94,47.74-37C866,763,936.16,719.52,936.16,719.52l185-31.27S1165.39,782.25,1121.14,820.16Z"/><path class="cls-44" d="M828.52,281.65s4.2-42,23.28-66.62,39.81-26.28,50.92-41.37S949.31,77.32,938.33,69s-26.55,0-26.55,0-27.38,6.15-40.1,39.49-12.73,41-22.27,51.87S749.22,277.85,724.57,342.26,719.4,435,735.9,436.83,826.72,340.31,828.52,281.65Z"/><path class="cls-45" d="M957.73,129.31c0,28.34-16.39,51.32-36.59,51.32s-36.6-23-36.6-51.32S900.93,78,921.14,78,957.73,101,957.73,129.31Z"/><path class="cls-46" d="M957.56,130.41c0,27.74-13.77,50.22-30.75,50.22s-30.75-22.48-30.75-50.22,13.77-50.22,30.75-50.22S957.56,102.67,957.56,130.41Z"/><path class="cls-47" d="M955.93,130.41c0,19.91-9.88,36.05-22.07,36.05s-22.08-16.14-22.08-36.05,9.89-36,22.08-36S955.93,110.5,955.93,130.41Z"/><path class="cls-48" d="M916.81,24.74s-89.33,21.81-54.1,124.61c9.37,27.34-23,43.3-8.48,71.48s108.81,34.89,109,34S982.27,71.63,982.27,71.63Z"/><path class="cls-49" d="M912.9,54.48S883.55,65,885.63,142.65c1.36,50.8,19.8,69.9,29.64,77.68S940.15,227,940.15,227l-5.54,31.69s-4.16,22.24,34.88,31.14,66.85-32.93,66.85-32.93-6.89-32.29-.16-63.22S1049.93,84.56,1018.52,67,912.9,54.48,912.9,54.48Z"/><path class="cls-50" d="M939.08,226.29s24.8,3.14,37.65-8.28,16.71-14.44,16.71-14.44a124.31,124.31,0,0,1-21.12,30.37c-14.31,15.24-10.59,53.78-10.59,53.78S932.37,282,934.59,263.5,939.08,226.29,939.08,226.29Z"/><path class="cls-48" d="M895.28,75s1,27.27,44.39,43.41c42.6,15.83,60,21.63,60,21.63s5.63-20.65,16.48-11.1c16.09,14.17-21.53,58-11.08,84.69s13.67,46.23,71.35,71.47,67.68,95.06,67.68,95.06,84.73,11.88,91.22-35.06-1.21-89.26-66.6-106.57-84-42.72-75.53-85.71c10.35-52.88-1.39-120.46-77.68-146.1S894.24,34.15,895.28,75Z"/><path class="cls-51" d="M937.26,241.39s-93.34,21.46-102.9,32S735.9,436.83,735.9,436.83,755,443.53,798,431.1s48.75-23,48.75-23,3.83,59.28,5.74,115.68,16.25,155.82,16.25,155.82,47.79,57.36,140.52,44,111.85-35.37,111.85-35.37l3.82-64.48s50.68-14.87,54.5-60.76,2.86-196.93-11.48-214.13-134.64-97.77-134.64-97.77-6.89,42.58-54.69,36.61S937.26,241.39,937.26,241.39Z"/><path class="cls-52" d="M1110.78,395.08s-13,18.12-11.59,73.93,3.62,77.37-10.15,83.62-107.27,67.86-107.27,67.86,93.5-66.68,101.47-85.53S1081.79,403.05,1110.78,395.08Z"/><path class="cls-52" d="M1125,623.77s-95.56,44.32-108.75,53.46c0,0,57.86-16.24,76.14-16.24S1125,684.42,1125,684.42Z"/><path class="cls-53" d="M796,214.29s24.93-2,39.09,6.74l14.15,8.76s-3.37,65.38-37.74,130.09-79.07,76.17-79.11,76.17-52.32-22.26-5.14-116.62S796,214.29,796,214.29Z"/><path class="cls-54" d="M872,155.38l-15.74,37.06s-5.28,13.69,7.87,18.64a303.91,303.91,0,0,0,29.71,9s2.23-12.2,11.73-10.27,22.08,10.27,22.08,10.27-2.8,14.61-15.52,14.16-56.92-16.72-56.92-16.72-19.47-1.71-12.14-19.29,19.62-50.94,19.62-50.94Z"/><path class="cls-41" d="M790.81,1252.91s-5.82,32.83,25.22,31.2S846.7,1254,846.7,1254,812.15,1269.9,790.81,1252.91Z"/><path class="cls-43" d="M791.14,1266.58s-74.78,42-72.33,54.29,11.44,40.85,54.74,26.14,100.48-35.13,98-56.37S846.7,1254,846.7,1254,820.17,1294,791.14,1266.58Z"/><path class="cls-55" d="M922.6,13a7.65,7.65,0,0,0,6.18,3.13c4.28.11,33.3-8.65,52.88,13.73s25.93,68.69,25.93,68.69l8.06-5.09S1008.29,32,986.7,20.24,934.8,8.13,922.6,13Z"/><path class="cls-56" d="M922.6,13S955,4.56,978.23,19.49c27,17.32,33.82,75.9,33.82,75.9l34.49,2s-1.31-54.67-28.21-73.06S936.18,4.46,922.6,13Z"/><path class="cls-57" d="M1064.28,137.72c0,25.86-16.39,46.82-36.6,46.82s-36.59-21-36.59-46.82,16.38-46.82,36.59-46.82S1064.28,111.86,1064.28,137.72Z"/><path class="cls-58" d="M1064.1,138.72c0,25.31-13.76,45.82-30.75,45.82S1002.6,164,1002.6,138.72s13.77-45.82,30.75-45.82S1064.1,113.41,1064.1,138.72Z"/><path class="cls-47" d="M1062.47,138.72c0,18.17-9.88,32.89-22.07,32.89s-22.07-14.72-22.07-32.89,9.89-32.89,22.07-32.89S1062.47,120.55,1062.47,138.72Z"/><polygon class="cls-59" points="522.84 402.03 830.62 583.46 899.54 862.53 605.52 683.61 522.84 402.03"/><polygon class="cls-60" points="522.84 402.03 537.65 395.08 847.22 575.37 908.3 833.83 1108.43 721.37 1108.43 739.66 899.54 862.53 830.62 583.46 522.84 402.03"/><polygon class="cls-61" points="847.22 575.37 1108.43 721.37 908.3 833.83 847.22 575.37"/><polygon class="cls-62" points="865.22 651.57 987.61 721.8 893.1 769.48 865.22 651.57"/><path class="cls-41" d="M989.86,626.35s11,9.87,15.89,21.38l8.22,19.18s-3.29,14.25-24.11,19.73-31.24,7.66-46,28.49-51-5.48-27.94-38.91,28.49-29.59,28.49-29.59-15.89,11.1-24.11,7.47L912,650.46s28.49-23.79,42.2-26.69S989.86,626.35,989.86,626.35Z"/><path class="cls-63" d="M1121.14,820.16C1076.93,858.07,886,924.05,877.59,943.68s-2.81,125-11.24,196.57-19.64,113.68-19.64,113.68-5.62,12.65-25.3,12.65a37.14,37.14,0,0,1-5.45-.42c2.43-9.16,15.59-30,23.51-55.85,8.73-28.31,3.28-184.25,7.75-215.9s-31.6-61-31.6-61,26,0,83.91-22.92,170-89.4,202.7-116.66,6.21-96.94,6.21-96.94l12.7-8.61S1165.39,782.25,1121.14,820.16Z"/><path class="cls-64" d="M808.8,1127.9c5.2,60.95,0,132.38,0,132.38a19.36,19.36,0,0,1-7.71.38,55.78,55.78,0,0,1-13.37-10.9s-4.22-148.82-26.66-219-53.33-143.2,0-189.54c12.82-11.12,29.64-23.94,47.74-37,5.41,2.51,9,5.5,9.76,9,0,0-65.85,44.81-58.91,107.68S803.65,1067,808.8,1127.9Z"/><path class="cls-65" d="M775.07,1176.07H775l-18,1.53c-3.66-10.39-45.06-126.79-86.46-213.51-43.41-90.85-59.68-154.62-33.91-188.52,7.33-9.67,29.05-23.64,56.31-38.76l18.23,11.12s-68.62,34.37-48.47,109S775.07,1176.07,775.07,1176.07Z"/><polygon class="cls-66" points="1224.86 992.01 1320.22 1043.69 1410.35 992.01 1317.61 937.05 1224.86 992.01"/><polygon class="cls-67" points="1224.86 1111.94 1320.22 1163.63 1410.35 1111.94 1317.61 1056.99 1224.86 1111.94"/><polygon class="cls-62" points="1410.35 992.01 1410.35 1056.41 1320.17 1108.38 1320.22 1043.69 1410.35 992.01"/><polygon class="cls-68" points="1224.86 992.01 1224.86 1050.19 1320.17 1108.38 1320.22 1043.69 1224.86 992.01"/><polygon class="cls-67" points="211.56 867.59 0 992.47 251.75 1140.27 464.76 1015.29 211.56 867.59"/><polygon class="cls-69" points="211.56 754.52 0 863.2 0 879.4 251.75 1027.19 464.76 902.21 464.76 886.02 211.56 754.52"/><polygon class="cls-70" points="211.56 738.32 0 863.2 251.75 1011 464.76 886.02 211.56 738.32"/><polygon class="cls-71" points="211.56 738.32 237.64 876.24 464.76 886.02 211.56 738.32"/><path class="cls-67" d="M533.86,1365.44c0,31.75-43.17,57.47-96.41,57.47s-96.4-25.73-96.4-57.47,43.16-57.45,96.4-57.45S533.86,1333.72,533.86,1365.44Z"/><path class="cls-72" d="M503,1244.58c-17.22-9.55-40.22-15.43-65.59-15.43s-48.38,5.88-65.59,15.43H341.05v42c0,31.73,43.16,57.46,96.4,57.46s96.41-25.73,96.41-57.46v-42Z"/><path class="cls-73" d="M533.86,1250.63c0,31.74-43.17,57.46-96.41,57.46s-96.4-25.73-96.4-57.46,43.16-57.45,96.4-57.45S533.86,1218.9,533.86,1250.63Z"/><path class="cls-67" d="M1150.68,1408.52c0,31.74-43.17,57.47-96.42,57.47s-96.4-25.74-96.4-57.47,43.16-57.45,96.4-57.45S1150.68,1376.79,1150.68,1408.52Z"/><path class="cls-74" d="M1119.86,1287.65c-17.22-9.55-40.23-15.43-65.6-15.43s-48.37,5.88-65.59,15.43H957.86v42c0,31.73,43.16,57.46,96.4,57.46s96.42-25.73,96.42-57.46v-42Z"/><path class="cls-75" d="M1150.68,1293.7c0,31.75-43.17,57.47-96.42,57.47s-96.4-25.73-96.4-57.47,43.16-57.45,96.4-57.45S1150.68,1262,1150.68,1293.7Z"/><polygon class="cls-76" points="996.44 1256.31 1008.12 1253.29 1026.84 1306.87 1118.6 1274.01 1121.88 1284.21 1018.76 1321.85 996.44 1256.31"/><path class="cls-52" d="M869.7,330.57s-15.08,71-22.91,77.58-30.85,22.52-62.6,26.5-51.77,1.4-51.77,1.4S815,415.62,833,395.08,869.7,330.57,869.7,330.57Z"/><path class="cls-48" d="M740.55,240.27,535.35,119.4a14.8,14.8,0,0,0-22.24,12.79V303.9a25.18,25.18,0,0,0,12.49,21.75L738.89,451.23A14.21,14.21,0,0,0,760.26,439V274.58A39.7,39.7,0,0,0,740.55,240.27Z"/><path class="cls-77" d="M524.81,123.46,730,244.33a39.7,39.7,0,0,1,19.71,34.31V443a14.21,14.21,0,0,1-21.37,12.28l-23.72-14v79.79L635.09,400.38l-120-70.67A25.18,25.18,0,0,1,502.57,308V136.24A14.79,14.79,0,0,1,524.81,123.46Z"/><path class="cls-78" d="M538.07,192.77,660,263.5c3,1.74,5.49.7,5.49-2.32v-1.5c0-3-2.47-6.91-5.49-8.64L538.07,180.3c-3-1.74-5.48-.69-5.48,2.32v1.5C532.59,187.14,535.05,191,538.07,192.77Z"/><path class="cls-78" d="M538.07,221.27l157.18,91.49c3,1.74,5.48.69,5.48-2.33v-1.49c0-3-2.47-6.91-5.48-8.65L538.07,208.8c-3-1.74-5.48-.69-5.48,2.32v1.5C532.59,215.64,535.05,219.53,538.07,221.27Z"/><path class="cls-78" d="M538.07,249.76l157.18,91.5c3,1.74,5.48.69,5.48-2.33v-1.49c0-3-2.47-6.91-5.48-8.65L538.07,237.3c-3-1.74-5.48-.7-5.48,2.32v1.5C532.59,244.13,535.05,248,538.07,249.76Z"/><path class="cls-78" d="M584.41,310.41l110.84,64.88c3,1.74,5.48.69,5.48-2.33v-1.49c0-3-2.47-6.91-5.48-8.65L584.41,298c-3-1.74-5.49-.7-5.49,2.32v1.5C578.92,304.78,581.39,308.68,584.41,310.41Z"/><polygon class="cls-79" points="712.93 446.21 712.93 516.15 704.63 521.11 704.63 441.32 712.93 446.21"/></g></g></svg>