<svg xmlns="http://www.w3.org/2000/svg" xmlns:xlink="http://www.w3.org/1999/xlink" viewBox="0 0 130.29 183.46"><defs><style>.cls-1{fill:url(#linear-gradient);}.cls-2{fill:url(#linear-gradient-2);}.cls-3{fill:url(#linear-gradient-3);}.cls-4{fill:url(#linear-gradient-4);}.cls-5{fill:url(#linear-gradient-5);}.cls-6{fill:url(#linear-gradient-6);}.cls-7{fill:#ffc2a7;}.cls-8{fill:url(#linear-gradient-7);}.cls-9{fill:url(#radial-gradient);}.cls-10{fill:url(#radial-gradient-2);}.cls-11{fill:url(#radial-gradient-3);}.cls-12{fill:url(#linear-gradient-8);}.cls-13{fill:url(#linear-gradient-9);}.cls-14{fill:url(#linear-gradient-10);}.cls-15{fill:url(#linear-gradient-11);}.cls-16{fill:url(#linear-gradient-12);}.cls-17{fill:url(#linear-gradient-13);}.cls-18{fill:url(#linear-gradient-14);}.cls-19{fill:url(#linear-gradient-15);}.cls-20{fill:url(#linear-gradient-16);}.cls-21{fill:url(#linear-gradient-17);}.cls-22{fill:url(#linear-gradient-18);}.cls-23{fill:#a9563f;}.cls-24{fill:#9a4430;}.cls-25{fill:url(#linear-gradient-19);}.cls-26{fill:#f3735c;}.cls-27{fill:url(#radial-gradient-4);}.cls-28{fill:#f36252;}.cls-29{fill:#c22537;}.cls-30{fill:url(#linear-gradient-20);}.cls-31{fill:url(#linear-gradient-21);}.cls-32{fill:#fff;}.cls-33{fill:url(#linear-gradient-22);}.cls-34{fill:url(#linear-gradient-23);}.cls-35{fill:url(#linear-gradient-24);}.cls-36{fill:url(#linear-gradient-25);}.cls-37{fill:url(#linear-gradient-26);}.cls-38{fill:url(#linear-gradient-27);}.cls-39{fill:url(#linear-gradient-28);}.cls-40{fill:url(#linear-gradient-29);}.cls-41{fill:url(#linear-gradient-30);}.cls-42{fill:url(#linear-gradient-31);}</style><linearGradient id="linear-gradient" x1="-1.52" y1="160.04" x2="21.17" y2="139.53" gradientUnits="userSpaceOnUse"><stop offset="0" stop-color="#723013"/><stop offset="1" stop-color="#210e09"/></linearGradient><linearGradient id="linear-gradient-2" x1="59.12" y1="135.75" x2="59.12" y2="162.29" gradientUnits="userSpaceOnUse"><stop offset="0" stop-color="#d4866f"/><stop offset="1" stop-color="#ffc2a7"/></linearGradient><linearGradient id="linear-gradient-3" x1="68.16" y1="14.12" x2="49.28" y2="159.31" gradientUnits="userSpaceOnUse"><stop offset="0" stop-color="#270b04"/><stop offset="1"/></linearGradient><linearGradient id="linear-gradient-4" x1="53.81" y1="15.92" x2="53.81" y2="77.05" gradientUnits="userSpaceOnUse"><stop offset="0" stop-color="#471d12"/><stop offset="1" stop-color="#1f0d08"/></linearGradient><linearGradient id="linear-gradient-5" x1="60.69" y1="15.37" x2="60.69" y2="92.92" gradientUnits="userSpaceOnUse"><stop offset="0" stop-color="#562316"/><stop offset="1" stop-color="#2f130c"/></linearGradient><linearGradient id="linear-gradient-6" x1="68.18" y1="13.89" x2="49.25" y2="159.47" xlink:href="#linear-gradient-3"/><linearGradient id="linear-gradient-7" x1="59.08" y1="46.43" x2="59.08" y2="72.83" gradientUnits="userSpaceOnUse"><stop offset="0" stop-color="#ffd9bd"/><stop offset="1" stop-color="#ffc2a7"/></linearGradient><radialGradient id="radial-gradient" cx="717.26" cy="535.82" r="80.95" gradientTransform="matrix(0.17, -0.13, 0.21, 0.26, -199.11, 63.83)" gradientUnits="userSpaceOnUse"><stop offset="0" stop-color="#ffa191"/><stop offset="1" stop-color="#ffc2a7"/></radialGradient><radialGradient id="radial-gradient-2" cx="994.6" cy="-595.13" r="80.93" gradientTransform="matrix(0.17, 0.08, -0.14, 0.3, -148.14, 204.56)" xlink:href="#radial-gradient"/><radialGradient id="radial-gradient-3" cx="512.54" cy="-231.31" r="49.94" gradientTransform="translate(-81.62 181.91) scale(0.3 0.26)" xlink:href="#linear-gradient-7"/><linearGradient id="linear-gradient-8" x1="73.98" y1="105.04" x2="62.2" y2="100.79" xlink:href="#linear-gradient-2"/><linearGradient id="linear-gradient-9" x1="71.09" y1="103.05" x2="79.76" y2="100.6" xlink:href="#linear-gradient-2"/><linearGradient id="linear-gradient-10" x1="47.18" y1="70.04" x2="47.18" y2="90.88" xlink:href="#linear-gradient-2"/><linearGradient id="linear-gradient-11" x1="90.64" y1="73.69" x2="90.64" y2="90.34" xlink:href="#linear-gradient-2"/><linearGradient id="linear-gradient-12" x1="61.94" y1="79.18" x2="61.94" y2="137.35" gradientUnits="userSpaceOnUse"><stop offset="0" stop-color="#d4866f"/><stop offset="1" stop-color="#ffad96"/></linearGradient><linearGradient id="linear-gradient-13" x1="16.49" y1="101.68" x2="13.88" y2="105.28" xlink:href="#linear-gradient-2"/><linearGradient id="linear-gradient-14" x1="72.31" y1="113.33" x2="72.31" y2="122.86" xlink:href="#linear-gradient-2"/><linearGradient id="linear-gradient-15" x1="73.45" y1="106.5" x2="73.45" y2="91.45" xlink:href="#linear-gradient-7"/><linearGradient id="linear-gradient-16" x1="62.68" y1="109.9" x2="65.03" y2="111.79" xlink:href="#linear-gradient-7"/><linearGradient id="linear-gradient-17" x1="82.39" y1="109.98" x2="79.99" y2="111.83" xlink:href="#linear-gradient-7"/><linearGradient id="linear-gradient-18" x1="72.34" y1="107.74" x2="72.34" y2="98.06" gradientUnits="userSpaceOnUse"><stop offset="0" stop-color="#a9563f"/><stop offset="1" stop-color="#e9a68c"/></linearGradient><linearGradient id="linear-gradient-19" x1="23.92" y1="100.15" x2="23.1" y2="97.21" xlink:href="#linear-gradient-3"/><radialGradient id="radial-gradient-4" cx="721.28" cy="-193.8" r="32.02" gradientTransform="translate(-113.49 181.91) scale(0.26)" gradientUnits="userSpaceOnUse"><stop offset="0" stop-color="#f38f76"/><stop offset="1" stop-color="#f3735c"/></radialGradient><linearGradient id="linear-gradient-20" x1="45.6" y1="71.6" x2="47.24" y2="76.89" xlink:href="#linear-gradient-3"/><linearGradient id="linear-gradient-21" x1="-1868.08" y1="71.47" x2="-1866.38" y2="76.94" gradientTransform="matrix(-0.74, 0, 0, 1, -1293.38, 0)" xlink:href="#linear-gradient-3"/><linearGradient id="linear-gradient-22" x1="45.71" y1="91.78" x2="45.71" y2="85.15" gradientUnits="userSpaceOnUse"><stop offset="0" stop-color="#39140a"/><stop offset="1"/></linearGradient><linearGradient id="linear-gradient-23" x1="45.71" y1="91.78" x2="45.71" y2="85.15" gradientUnits="userSpaceOnUse"><stop offset="0.01" stop-color="#652312"/><stop offset="1" stop-color="#210000"/></linearGradient><linearGradient id="linear-gradient-24" x1="45.71" y1="88.51" x2="45.71" y2="90.22" gradientUnits="userSpaceOnUse"><stop offset="0"/><stop offset="1" stop-color="#77726d"/></linearGradient><linearGradient id="linear-gradient-25" x1="88.69" y1="91.78" x2="88.69" y2="85.15" xlink:href="#linear-gradient-22"/><linearGradient id="linear-gradient-26" x1="88.69" y1="91.78" x2="88.69" y2="85.15" xlink:href="#linear-gradient-23"/><linearGradient id="linear-gradient-27" x1="88.69" y1="88.51" x2="88.69" y2="90.22" xlink:href="#linear-gradient-24"/><linearGradient id="linear-gradient-28" x1="75.5" y1="32.66" x2="60.71" y2="146.48" xlink:href="#linear-gradient-3"/><linearGradient id="linear-gradient-29" x1="65.5" y1="25.51" x2="58.16" y2="81.93" gradientUnits="userSpaceOnUse"><stop offset="0" stop-color="#481d13"/><stop offset="1" stop-color="#210e09"/></linearGradient><linearGradient id="linear-gradient-30" x1="64.65" y1="25.62" x2="57.5" y2="80.63" xlink:href="#linear-gradient"/><linearGradient id="linear-gradient-31" x1="75.7" y1="31.13" x2="62.79" y2="130.48" xlink:href="#linear-gradient-5"/></defs><g id="Layer_2" data-name="Layer 2"><g id="_11_Face" data-name="11_Face"><path d="M130.08,84.34a.51.51,0,0,0-.28-.09.48.48,0,0,0-.36.15,7.13,7.13,0,0,1-4.85,1.9,9.29,9.29,0,0,1-4.72-1.43c-.3-2.69-.69-5.34-1.17-7.87a65.71,65.71,0,0,0-3.84-13.41c-.24-.56-.52-1.21-.85-1.82,0-.1,0-.28,0-.38a1.58,1.58,0,0,0,0-.26c0-.6.07-1.21.12-1.73.13-1.34.35-2.7.57-4v-.07l0-.22a50.32,50.32,0,0,0,.82-7,18.22,18.22,0,0,0-.46-4.55l0-.08,0,0c2.71-1.33,3.68-4.51,4-6.29a16.23,16.23,0,0,0-.56-8c-1.94-6-8.47-8.76-13.7-8.76h-1.55l-.14,0-.14,0-.19,0c.05-.13.11-.27.16-.41a14.86,14.86,0,0,0,.71-2.92,12.91,12.91,0,0,0-.38-5.57c-1-3.22-3.33-6-7.06-8.18A23.82,23.82,0,0,0,85.69,0l-.84,0A12.77,12.77,0,0,0,80.5.73L80.31.8a3.39,3.39,0,0,0-1.84,1.13,1.35,1.35,0,0,0,0,1.06,1.64,1.64,0,0,1,0,.23l0,.37v.06a14.27,14.27,0,0,0-4.19-1.32,8.65,8.65,0,0,0-1.15-.08,12,12,0,0,0-6.37,2.08A9.36,9.36,0,0,0,63,9.55a11,11,0,0,0-2.26-5A11.84,11.84,0,0,0,54.3.82a20.92,20.92,0,0,0-5-.58A33.46,33.46,0,0,0,37.8,2.5c-.31.12-.64.25-1,.42h-.06a19.39,19.39,0,0,0-7,3.32,23.9,23.9,0,0,0-9,8.67,28.07,28.07,0,0,0-2.22,5.87l-.18.64a14.38,14.38,0,0,1-1.3,3.15,10.14,10.14,0,0,1-2.39,2.57.53.53,0,0,0-.12.14c-1.17.65-2.5,1.4-3.78,2.2a26,26,0,0,0-7.82,7C.12,40.48.13,45.25.36,49.41.43,50.54.49,51.75.45,53a30.42,30.42,0,0,0-.33,7.86,32.85,32.85,0,0,0,1.76,8,35,35,0,0,0,3.76,7.33A61.53,61.53,0,0,0,10.1,87.54a32.61,32.61,0,0,0,3.09,7.89l1,2a.58.58,0,0,0,.11.15c.24.56.49,1.16.76,1.77-1.9,8.24-3.78,20.16-2.06,30.5.06.35.12.69.19,1l.06.28c0,.27.11.53.17.79V132l0,.17c.08.33.16.66.25,1l0,.08v.06l.24.85.07.26c.09.27.17.54.25.82l0,.09,0,.06c.11.32.21.63.32.94l.05.14,0,.06.28.75,0,.05.07.19q.17.45.36.9a45.59,45.59,0,0,0,3.24,6.38c.21,13.5,4.49,20.67,6.61,23.41a23.86,23.86,0,0,1-16.12,6.7H8.72a.5.5,0,0,0-.49.48.49.49,0,0,0,.47.5h.48c10.44.16,31,5.49,31.17,5.55a83.24,83.24,0,0,0,18.81,2A101.4,101.4,0,0,0,70,182.88a.68.68,0,0,0,.27.07H71a28.58,28.58,0,0,0,8.58-1.53c2.34-.47,4-.9,4.9-1.14a.57.57,0,0,0,.22,0h.13a31.72,31.72,0,0,0,9-3.58,2.16,2.16,0,0,0,.56-.42c1.6-.57,3.2-1.09,4.77-1.54a16,16,0,0,0,3.22-.87,46.74,46.74,0,0,1,7.22-1.31.49.49,0,0,0,.11-1c-1.25-.38-2.48-.8-3.66-1.25a14,14,0,0,0,.48-1.91,40,40,0,0,0,.59-7.3c0-2.64-.15-5.32-.33-7.91-.35-5-.71-10.22.51-15.24,1.13-4.72,3.48-9.06,5.76-13.26l1.52-2.83a50,50,0,0,0,6-19.21,82,82,0,0,0-.15-12.85c5-.22,8.4-1.91,9.9-4.92A.48.48,0,0,0,130.08,84.34ZM85.74,150.83c0,.41-.09.81-.14,1.22a31.25,31.25,0,0,1-2-7.88,17,17,0,0,0,2.19-1.93,21.71,21.71,0,0,0,1.57-1.88c-.25,1.29-.47,2.57-.67,3.82C86.34,146.27,86,148.45,85.74,150.83Zm6.85,11.43c.27-.81.53-1.65.79-2.5-.09,1-.23,1.91-.41,2.86A4.27,4.27,0,0,1,92.59,162.26Zm7.24-3.91c-.08,2.44-.34,4.87-.64,7.21-.06.5-.13,1-.2,1.5l-.8-.48A70.06,70.06,0,0,0,99.83,158.35Zm-4-145.78c-.79-1.17-1.53-2.4-2.25-3.6S92.2,6.64,91.43,5.49a15.84,15.84,0,0,1,9.1,7.22,8.33,8.33,0,0,1,.53,6.73,38.78,38.78,0,0,0-2.79-3.72C97.45,14.71,96.6,13.66,95.86,12.57Zm19.82,25.32a12.32,12.32,0,0,1-1,2.62s0,0,0,.05c-.06-.25-.13-.49-.2-.73a27.92,27.92,0,0,0-2.33-5.58,45.6,45.6,0,0,0-7.41-9.43,13.35,13.35,0,0,1,8.41,3.76A9.83,9.83,0,0,1,115.68,37.89Zm-9.1,88c.86-2.42,1.85-4.87,2.82-7.23a85.61,85.61,0,0,0,4.79-14.06c.39-1.81.7-3.65,1-5.45a33.5,33.5,0,0,1-.34,7.48,65.59,65.59,0,0,1-2.71,11.1,50.83,50.83,0,0,1-3.58,7.76,43.17,43.17,0,0,0-4.07,9.38A32.52,32.52,0,0,1,106.58,125.89ZM10.11,36c-.55.47-1.1,1-1.63,1.48a27.69,27.69,0,0,0-6,8.73v-.07a10.15,10.15,0,0,1,2.71-6.86A14.16,14.16,0,0,1,10.11,36Zm11,112.78a35.37,35.37,0,0,0,6.85,16.37c-.22.31-.44.62-.68.92A37.93,37.93,0,0,1,21.06,148.73Zm-2.14-10.58,0,.44a43.86,43.86,0,0,1-2.3-14.75c0-.43,0-.87,0-1.32a66.72,66.72,0,0,1,2.16-14.34c.27.65.58,1.32.93,2,.05.11.11.22.17.34C20.3,114.4,20.3,120.65,18.92,138.15Z"/><path class="cls-1" d="M29.88,166.55s-9.6-8.51-8.94-27.71a37.85,37.85,0,0,0,7,29L26.61,169s-8.94-8.51-7.2-30.76,1.31-26.62.44-31,5,1.31,5,1.31l10,8.94,6.33,17.89s.87,15.49.43,17Z"/><path class="cls-2" d="M8.72,175.38S23.45,176,30.32,162s4.58-34.68,4.58-34.68l48.43,7.52s-6.22,27.49,26.18,37.31c0,0-9.82.65-24.54,7.53,0,0-21.93,6.54-44.51,1.3C40.46,180.94,19.19,175.38,8.72,175.38Z"/><path class="cls-3" d="M120,98.05c-.22-24.65-6.55-36-6.55-36,0-6.06,2.62-12.27,1.15-18.33l.33-.82c4.74-2.78,4.58-11.12,2.29-15.37s-8-6.71-12.76-6.55h-1.15c-.33.16-1,.16-1.31.33C104.44,15.86,103.62,10,98.87,6,94.29,2.12,84.64-1.32,79.08,2.28c.16.66,0,1.64.16,2.29l0,.29C76.76,3.5,74.16,2.68,71.88,3.1c-4.58,1-7.69,3.43-8.67,7.85l-.7.45C61.57-1.87,44.78-.06,35.72,3.92l-.44.2a20,20,0,0,0-3.87,1.79c-5.05,2.78-9.6,6.7-11.4,12.24-1.14,3.76-1.47,7.2-4.91,9.49l.07.15c-4.72,2.65-9.35,5.36-12.17,10C.05,42.69,1.2,47.76,1,53a30.16,30.16,0,0,0,.82-5.56A11.09,11.09,0,0,1,4,39.58c3.22-4.14,7.6-4.69,11.91-6.63a2,2,0,0,0,0,.24c-5.72,2.64-9.88,7.16-12.77,13.26-4.25,9.49-2.62,20.62,3,29.45l.16-.37c1,4.2,2.87,8.25,5.07,13.14l10-28.14-8.54-.19L21.23,41c.72.77,6.3,6.69,6.91,6.69s12.21-6.77,14.61-7.86c2.13-1,12.8-7.06,16.58-9,4.28,1.12,14.12,3,23.13,4.77l9.38,90s-3.93,9.6-5.89,29.67-15.71,27.05-15.71,27.05c4.58.22,10.47-2,10.47-2,10-8.29,13.31-26,13.31-26,1.74,14.83-9.38,25.31-9.38,25.31,3.71-.66,9.16-3.71,9.16-3.71,5.45-9.17,6.11-25.75,6.11-25.75,2,9.17-1.53,24-1.53,24a12,12,0,0,0,5.67-2s3.71-1.09,1.75-22.91S120.2,122.7,120,98.05ZM101.16,20.6a43.33,43.33,0,0,0-4.74-6.21c-2.46-3.27-4.09-6.87-6.54-10,6.21,1,15.05,7.85,11.45,15.87Zm2,3.6c10-.32,17.34,9,11.29,17.84-1.64-7.53-5.73-12.27-11-17.67Zm3.11,100.9c3.92-10.69,6.32-14.84,7.63-22,1-5.78,1.26-6.92,1.3-7.14s-.13-.48-.21-.71l.22.66v0c1.81,6.73-.5,16.1-2.61,22.41-2.4,6.77-8.07,13.53-8.07,21C104.49,139.28,102.31,135.79,106.24,125.1Z"/><path class="cls-4" d="M11.34,55.45c-.85-1.86-.74-4.14-2.29-5.56S6.63,48.54,7.21,45.8c.21-1,2-4.37.72-4.94a3.81,3.81,0,0,1,.79-2.43c-2.22,2.07-3.1,4.33-4.88,6.69C6.68,43.23,6.16,49,6.27,50.37c.26,3.42,1.05,4.7,3,7.34s.61,6.59,1.63,9.69c.46,1.4,1.53,1.46,2.21,2.6a16.56,16.56,0,0,1,1.18,4.3c.65-2.45.84-5,1.68-7.43.66-2,2.07-4.3,2.23-6.32C14.65,60.26,12.83,58.74,11.34,55.45ZM9.05,38q-.17.22-.33.48l.17-.16ZM35.43,5l1.11-.55A4,4,0,0,0,35.43,5Zm20,10.13a11.3,11.3,0,0,0-5.31-.58c-1.41.25-3,1.61-4.47,1.07-1.67-.65-2-3.39-3.59-4.18-1.35-.66-2.5.19-3.76.7s-2.63,1.19-3.44-.33.43-3,.3-4.39c-.5.09-1-.19-1.42-.22A3.78,3.78,0,0,1,35.43,5l-1.51.76C32.42,6,30,7.31,29.85,9a2.24,2.24,0,0,1,3.25,1.65c.18.68,0,1.48.16,2.13.36,1.18.16.53,1.15,1.15,1.48.93,2.37,1.62,2.78,3.59.3,1.41-.16,3.19.7,4.36,1.53-2.34,3.35-5.28,6.5-5.63,2.26-.25,3.73,2,5.73,2.09,1,.06,2.17-.82,3.11-1.18a13.86,13.86,0,0,1,4.13-.94c1.69-.11,3.34.2,5,.11A22.88,22.88,0,0,1,55.47,15.09Zm6.87,1.21.51,0Zm16.3-9.73c1.1.95,2.31,2.7,1.38,4.22-.78,1.29-2.59.62-3.37,2-.35.61.1,1.57-.55,2.12s-1.4.17-2.26.17c-1.65,0-2.52,1-4.25,1l-2.46.49a28,28,0,0,1,10.13,1.41c-1-2.53,1.07-4.12,3.16-4.55,1.86-.38,1.68-1.37,3-2.14.93-.52,2.41.09,3.3.47C84.93,9.83,81.49,6.46,78.64,6.57Zm24.49,128.56c.09-2.09.7-4.09.65-6.17-.2,1.48-1.37,3.37-2.09,4.7-1,1.79-1.94,2-3.48,3-1.72,1.08-2.46,5.93-4.25,6.22-1.6.26-2.81-3.09-4.41-2.11a4.76,4.76,0,0,1-1.15-2.28v1.27c0,2.49-.72,4.5-1,6.83a3.31,3.31,0,0,1,3.45-2.41c2.24,0,2.87,1.4,4.72,2.11.42-1.77,0-5,2.48-5.55,1.78-.38,4.39,1.57,5.57,2.73A31.86,31.86,0,0,1,103.13,135.13ZM88.4,138.44v-1.18A2.23,2.23,0,0,0,88.4,138.44Z"/><path class="cls-5" d="M35.72,3.92l-.44.2a20,20,0,0,0-3.87,1.79c-5.05,2.78-9.6,6.7-11.4,12.24-1.14,3.76-1.47,7.2-4.91,9.49l.07.15c-4.72,2.65-9.35,5.36-12.17,10a7.44,7.44,0,0,0-.37.67h0a28.52,28.52,0,0,1,9.16-7.2C17.56,28.46,25.9,25,28.68,17.17a40.12,40.12,0,0,1-8.48,7.91c.14-1.65,1.06-10.35,5.05-13.31,0,0-2.79,4.91-2.13,8.51,0,0,2.62-11.78,12.93-15A27.06,27.06,0,0,1,55,6.37,26.56,26.56,0,0,0,44.72,3.1S58.46-.34,62.06,12.42c0,0,.34-.55.94-1.34l-.49.32C61.57-1.87,44.78-.06,35.72,3.92ZM117.2,27.48c-2.29-4.26-8-6.71-12.76-6.55h-.89l-1.4.49,1.14,1.64s11.13-2.78,15.38,12.6a.64.64,0,0,1,0,.07A15.47,15.47,0,0,0,117.2,27.48Zm-17-1.64L87.75,11.28l-6.07-5L81.53,3.1S90.61.24,100.27,7.39A12.85,12.85,0,0,0,98.87,6C94.29,2.12,84.64-1.32,79.08,2.28c.16.66,0,1.64.16,2.29l0,.29C76.76,3.5,74.16,2.68,71.88,3.1c-4.51,1-7.59,3.36-8.62,7.64,1.59-2,4.58-5.19,7.8-5.19C75.8,5.55,79.89,3.59,100.18,25.84ZM37.85,11.55c-2.51,5.89-1.2,13.74-6.33,18.76l5.89-4.69a29.9,29.9,0,0,0,1.53-8.51c-.09-3-.31-7.36,3.66-9.08a5.92,5.92,0,0,1,2.33-.93A6.91,6.91,0,0,0,37.85,11.55Zm77,31.46-.1-1.3,0-.14-.3.47c-1.39-6.37-4.54-10.75-8.64-15.22h-.36c11.12,12.6,7.69,34.85,7.69,34.85l.33.14c0-6,2.6-12.15,1.14-18.14ZM92,176.85c1.06-.53,1.76-.92,1.76-.92,5.45-9.17,6.11-25.75,6.11-25.75,2,9.17-1.53,24-1.53,24a15.12,15.12,0,0,0,1.88-.34A43.17,43.17,0,0,0,98.55,142C101.15,158.49,93.78,173.58,92,176.85Zm1.27-29.94a48.35,48.35,0,0,1-15,34.16c1.47-.42,2.44-.78,2.44-.78,10-8.29,13.31-26,13.31-26,1.74,14.83-9.38,25.31-9.38,25.31a22.82,22.82,0,0,0,4.25-1.35C100.6,161.65,93.31,146.91,93.31,146.91ZM90.37,31.73C78.75,15.2,68.93,12.42,68.93,12.42L72,14.88c4.91,2.94,10,10.8,10,10.8Z"/><path class="cls-6" d="M44.88,6.17a10.89,10.89,0,0,0-8.44,1.06c-2.87,1.58-5,4.31-6.78,7,0,0,0,0,0,0C32,10.93,34.91,7.8,38.9,6.65a9.44,9.44,0,0,1,6.87.48c-2-.44-4.11.92-5.44,2.39-2,2.24-1.5,5.41-1.58,8.18a23.28,23.28,0,0,1-2.19,9.05,18.94,18.94,0,0,1-6.15,7.31.15.15,0,0,0,.15.25c5-2.54,7.61-8.53,8.45-13.77a23.84,23.84,0,0,0,.28-4.05,16.74,16.74,0,0,1,.34-4.79c.66-2.4,4-5,6.62-4.28a5.14,5.14,0,0,1,1.11,1c1.53,1.79,1.62,4.45,1.43,6.68a31.17,31.17,0,0,1-2,8,42.73,42.73,0,0,1-3.65,7.59c-.1.15.13.27.23.14a27.85,27.85,0,0,0,3-5.48,38.31,38.31,0,0,0,2.56-7.66C49.85,13.43,49.8,7.77,44.88,6.17Zm9.3-4.87C48.9,0,43,1.09,38,3c-.36.13-.71.28-1.06.43l-.09,0A18.92,18.92,0,0,0,30,6.66a23.35,23.35,0,0,0-8.8,8.51,29.42,29.42,0,0,0-2.36,6.4,15.14,15.14,0,0,1-1.34,3.25A10.61,10.61,0,0,1,15,27.53a.16.16,0,0,0-.05.1c-1.32.74-2.63,1.49-3.9,2.28a26,26,0,0,0-7.68,6.83C.7,40.51.61,44.94.85,49.38.92,50.59,1,51.79.94,53a29.63,29.63,0,0,0-.33,7.76,32.44,32.44,0,0,0,1.73,7.9,33.93,33.93,0,0,0,3.74,7.26,0,0,0,0,0,0,0,66.81,66.81,0,0,0,5.13,12.81c.07.13.31,0,.25-.11-1.84-4.4-3.85-8.78-5-13.43a36,36,0,0,1-.27-15c0-.1-.13-.14-.15,0a35.07,35.07,0,0,0-.18,14.71c.06.29.13.57.2.86A37.38,37.38,0,0,1,1.46,63.07a29.32,29.32,0,0,1,.83-13.52,27.93,27.93,0,0,1,6.59-11c2.9-3,6.43-4.81,10.2-6.49s7.42-3.6,9.37-7.43c.07-.13-.12-.24-.19-.12-2.15,3.67-5.65,5.51-9.41,7.15-.68.3-1.37.59-2,.9a.08.08,0,0,0-.11,0c-4.28,2-9.06,2.65-12.34,6.32A10.77,10.77,0,0,0,1.71,45c-.12,1.27,0,2.55-.08,3.83a25.84,25.84,0,0,1-.49,3C1.14,47.54.74,43,2.65,39c1.62-3.41,4.66-6,7.75-8,5.85-3.87,12.93-6.46,17.26-12.24a18.19,18.19,0,0,0,1.1-1.65c.06-.1-.09-.18-.15-.09-2.92,4.48-7.4,7.17-12,9.72,2.71-2.66,2.75-7.22,4.28-10.54,1.71-3.7,4.77-6.45,8.1-8.7a18.51,18.51,0,0,0-5.24,7.5,22.46,22.46,0,0,0-1,3.7h0A18.87,18.87,0,0,1,35.19,4.4,24.8,24.8,0,0,1,54.11,5.92l.71.36a.09.09,0,0,0,.09-.15A24.1,24.1,0,0,0,37.33,3.29,31.92,31.92,0,0,1,52.17,1.45a12.8,12.8,0,0,1,7,3c2.17,2,3,4.89,3.16,7.74l0,.42a.17.17,0,0,0,.34,0,11.16,11.16,0,0,0-2.34-7.7A11.38,11.38,0,0,0,54.18,1.3ZM2,46.08A10.63,10.63,0,0,1,4.83,38.9c2.46-2.7,6-3.74,9.31-5.08-.27.14-.54.29-.8.45a24.35,24.35,0,0,0-4.52,3.51A27.62,27.62,0,0,0,1.88,49.14C2,48.12,2,47.11,2,46.08Zm65.53-41a10.27,10.27,0,0,1,7.25-1.64,19.16,19.16,0,0,1,7.14,3.37,44.76,44.76,0,0,1,5.93,5.06c.09.1.23,0,.14-.14a31.85,31.85,0,0,0-6-5.45,28.44,28.44,0,0,0-2.63-1.66v0c-.12-.71,0-1.43,0-2.14.51-.19,1-.51,1.51-.71a10.45,10.45,0,0,1,2-.52,15.16,15.16,0,0,1,4.8.09,24.5,24.5,0,0,1,8.6,3.22,13.89,13.89,0,0,1,6.2,6.88,13.26,13.26,0,0,1-.56,9.84c0,.08,0,.2.13.13.34-.26.87-.23,1.26-.39,0,0,0,0,0,0s-1.11.15-1.12.17c.18-.39.34-.79.49-1.19a15.08,15.08,0,0,0,.69-2.82,12.61,12.61,0,0,0-.37-5.36c-1-3.5-3.77-6.08-6.84-7.89A23.43,23.43,0,0,0,85.66.51a12.63,12.63,0,0,0-5,.68c-.52.19-1.48.48-1.77,1-.14.23.09.74.11,1,0,.44,0,.88.12,1.32a14.53,14.53,0,0,0-4.84-1.68,10.85,10.85,0,0,0-7.18,1.92,9.32,9.32,0,0,0-3.94,6.2c0,.05.06.07.07,0A10,10,0,0,1,67.52,5.05Zm50.21,24.23c1.5,4.47,1.15,10.43-2.92,13.42A.18.18,0,0,0,115,43c2.22-1.09,3.32-3.63,3.76-5.94a15.72,15.72,0,0,0-.55-7.73c-1.82-5.66-8.12-8.61-13.77-8.41h0C109.91,20.84,115.92,23.87,117.73,29.28Zm-16.35-9a9.19,9.19,0,0,0,.78-5.51A10.92,10.92,0,0,0,99.7,9.88a16.25,16.25,0,0,0-9.78-5.63.17.17,0,0,0-.17.28c2.14,2.6,3.66,5.62,5.52,8.42s4.19,4.9,5.88,7.66c0,0,0,0,0,0-1.58-2.85-3.92-5.08-5.73-7.76s-3.3-5.56-5.19-8.18c6.69,1.51,14.19,8.18,11,15.58C101.24,20.32,101.35,20.38,101.38,20.31Zm1.75,3.9c3.87.14,7.54,1.2,10.33,4a10.39,10.39,0,0,1,2.7,9.78,13.42,13.42,0,0,1-1,2.72c-.08.15-.67,1-.68,1-.14-.6-.29-1.2-.46-1.79a27.29,27.29,0,0,0-2.29-5.47,45.43,45.43,0,0,0-7.43-9.43c-.24-.25-.51-.49-.76-.73,0,0-.11,0-.07.07a86.37,86.37,0,0,1,6.71,8,26.6,26.6,0,0,1,4.21,9.7c0,.07.11.07.15,0,2.6-3.83,3.06-8.53.39-12.45a13.25,13.25,0,0,0-11.75-5.44S103.12,24.21,103.13,24.21Zm16.61,64.46a107.59,107.59,0,0,0-1.52-11.58,64.72,64.72,0,0,0-3.82-13.31c-.26-.62-.53-1.24-.85-1.84a2.53,2.53,0,0,1,0-.82c0-.59.07-1.18.12-1.77.13-1.38.36-2.74.58-4.11a52.05,52.05,0,0,0,.85-7.15,17.92,17.92,0,0,0-.46-4.44c0-.12-.21-.07-.18.05,1.16,5-.35,10.07-1,15.06-.07.59-.12,1.18-.16,1.77a5.4,5.4,0,0,0,0,1.5.67.67,0,0,0,.06.12c.14.26.26.51.38.77a56,56,0,0,1,3.59,11.39,108.91,108.91,0,0,1,2.46,25.08,47.08,47.08,0,0,1-5.3,20.68c-2.62,5.22-5.83,10.17-7.58,15.79a33.22,33.22,0,0,0-1.48,9.55c0,2.14.2,4.26.37,6.39s.28,4.39.34,6.59a53.64,53.64,0,0,1-.36,8.69,13.23,13.23,0,0,1-1,3.93,2.38,2.38,0,0,1-.76,1l-.41.27a12.68,12.68,0,0,1-4.69,1.63l-.28,0c.63-2.74,1.08-5.53,1.45-8.32.66-5.08,1.08-10.44,0-15.49,0-.24-.4-.17-.41.05a79.91,79.91,0,0,1-1.79,13.6,44.5,44.5,0,0,1-3.42,10.44c-.18.37-.51,1.37-.87,1.57s-.76.41-1.15.6a46.52,46.52,0,0,1-4.78,2.15,20,20,0,0,1-2.39.74,32.53,32.53,0,0,0,4.87-6.63,30.08,30.08,0,0,0,4.06-18.32c0-.22-.37-.31-.41-.06a59,59,0,0,1-3.34,11,47.16,47.16,0,0,1-4.88,9.24,29.77,29.77,0,0,1-3.48,4.19c-.39.39-1,1.19-1.51,1.37s-.76.27-1.15.39A28.49,28.49,0,0,1,71,182.05a25.52,25.52,0,0,0,5.21-4.27A35.53,35.53,0,0,0,85,162c1.15-4.37,1.35-8.9,1.93-13.36.53-4,1.21-8.06,2.06-12a71.89,71.89,0,0,1,3-10.8l.07-.19c.08-.18-.21-.25-.28-.07a57.47,57.47,0,0,0-2.48,8.27c-.83,3.46-1.5,7-2.06,10.49-.36,2.2-.66,4.42-.93,6.63-.3,2.46-.47,4.93-.88,7.38A36.37,36.37,0,0,1,77,176.33,25.47,25.47,0,0,1,70.2,182l-.06,0c-.2.1-.09.38.1.39a28.54,28.54,0,0,0,10.13-1.83,7.51,7.51,0,0,0,2.63-2.2,30.84,30.84,0,0,0,3.2-4,54.77,54.77,0,0,0,7.25-16.75c.17-.62.33-1.25.48-1.88a30.16,30.16,0,0,1-4.13,16.66,30.42,30.42,0,0,1-5.31,7.05c-.16.15,0,.38.21.35a31.58,31.58,0,0,0,8.84-3.53c.94-.5,1.34-1.89,1.76-2.82a39.23,39.23,0,0,0,1.82-4.92A76.65,76.65,0,0,0,100,152a51.31,51.31,0,0,1-.33,13.67c-.37,2.85-.84,5.71-1.49,8.51,0,.11.06.27.19.25a14.31,14.31,0,0,0,5-1.47c.3-.16.67-.45.86-.53a2,2,0,0,0,.75-.82,9.79,9.79,0,0,0,1-3.17,40.54,40.54,0,0,0,.58-7.21c.08-7.78-1.67-15.59.19-23.27,1.41-5.83,4.56-11,7.32-16.2a49.57,49.57,0,0,0,5.91-19A86.37,86.37,0,0,0,119.74,88.67ZM112.24,109c-2.46,7.69-6.56,14.93-8.06,22.91a17.46,17.46,0,0,0-.28,5.63,4.64,4.64,0,0,0,.5,1.75.1.1,0,0,0,.19-.05c.07-8.09,6-14.57,8.41-22a63,63,0,0,0,2.56-11.09,26.35,26.35,0,0,0-.34-10.09,1.55,1.55,0,0,0,0-.21c0-.08-.07-.12-.12-.1,0-.19-.11-.39-.17-.58h0c.06.2.11.4.16.6,0,0,0,0,0,0A104.12,104.12,0,0,1,112.24,109Zm3-12.88a27.88,27.88,0,0,1,.13,10.54,65.14,65.14,0,0,1-2.73,11.18c-2.33,7.13-8,13.24-8.21,21a7.34,7.34,0,0,1-.4-2.61c-.12-3.58,1-7.19,2.12-10.53,2.49-7.07,6-13.87,7.59-21.23C114.3,101.74,114.71,98.94,115.21,96.16Zm-38.91-77c4.44,4.65,8.5,10.1,14.17,13.37.13.08.25-.12.12-.21C85.7,28.9,81.9,24.5,77.94,20.12a53.64,53.64,0,0,0-6-5.85c-2-1.6-4.24-3.26-6.91-3a.2.2,0,0,0-.19.24,4.72,4.72,0,0,1-.1,1.71c-.07.6-.1,1.2-.13,1.8-.06,1.28,0,2.57,0,3.86,0,0,0,0,0,0,0-1.79,0-3.58.19-5.36,0-.49.11-1,.19-1.47.09-.66,1.07-.33,1.47-.25a8.29,8.29,0,0,1,2.48,1A34,34,0,0,1,76.3,19.12Z"/><path class="cls-7" d="M104.27,85.89,93.64,69.69S84.31,61,83,60.2,62.88,46.62,61.9,46.13,46,40.73,45.21,40.73s-7.36,3.43-7.36,3.43l-17,29-7,9.33S12.16,87.2,12.65,91s5.07,12.92,5.07,12.92c.66,1.64,3.76,12,7.2,8.51,0,0,3.11,13.09,10.47,20s24.35,13.24,24.38,13.25c9.07,3.41,21.5,2.85,27.32-6,2.79-4.25,17.67-21.6,18.49-32.07S104.11,89.65,104.27,85.89Z"/><path class="cls-8" d="M32.61,77.87s9.49-4.58,14.07-3.6S79.73,78.85,86,75.9s-.66-13.74-3-14.39S62.71,48.75,57.48,47.44,48,43.51,44.39,44.49s-9.82,5.89-10.8,9.82S29.67,67.72,29.67,69Z"/><path class="cls-9" d="M52.36,129.86c8-6.45,6.34-21.83-3.73-34.33s-24.74-17.42-32.76-11a12.48,12.48,0,0,0-3.29,4.1A12.45,12.45,0,0,0,12.65,91c.49,3.76,5.07,12.92,5.07,12.92.66,1.64,3.76,12,7.2,8.51,0,0,2.51,10.55,8.34,17.68C40.4,133.52,47.57,133.72,52.36,129.86Z"/><path class="cls-10" d="M104.27,85.89l-1.73-2.65A45.41,45.41,0,0,0,92.11,97.61c-6.68,14.12-5.89,28.59,1.66,32.93,5.15-7.07,11.3-16.44,11.81-23.06C106.4,97,104.11,89.65,104.27,85.89Z"/><path class="cls-11" d="M87.91,122c0,7.14-6.74,12.93-15,12.93s-15-5.79-15-12.93,6.73-12.92,15-12.92S87.91,114.91,87.91,122Z"/><path class="cls-12" d="M63.19,108.06c.49-.62,1-1.16,1.15-1.39a11.71,11.71,0,0,0,2.16-4.21c.79-2.78,1.46-6.75.3-9.54-.81-2-4.1-1.56-6,.65-5.67,6.44-2.38,11.86,1.11,17.3C61.51,110.32,62.37,109.07,63.19,108.06Z"/><path class="cls-13" d="M78.44,106.07a8.08,8.08,0,0,1-1-3.11,35.91,35.91,0,0,1,0-8.51s.44-1.42,1.2-1.53,5.24,6.11,5.78,8.51c.36,1.56-1,7.88-3.82,6.43A5.37,5.37,0,0,1,78.44,106.07Z"/><path class="cls-14" d="M34.9,88.18s-3.6-3.11-.65-9.17c0,0,3.27-6.54,13.09-4.9s13.41,1.63,13.41,1.63S62.88,87,58.46,91.45c0,0-8.18-1.31-8.83-1Z"/><path class="cls-15" d="M81.53,90.79s-2-8.18,1.31-12.59l2.78-1.31,3.6-.17,11,7.2s1,3.28-2,4.26Z"/><path class="cls-16" d="M104.27,85.89,93.64,69.69S84.31,61,83,60.2c-.68-.43-6.07-4.07-11.23-7.54l-.38-.15c-2.13-.66-8.84-3.93-14.24-5.73S45,43,42.26,44.33s-6.38,4.25-8.34,10.47-6.87,21.43-7.69,22.74-2.45,7.69-2.78,8.18S22,93.08,22,93.08,20.5,99,19.85,99.46c-.45.34-1.3,2.88-1.72,5.54,1.11,3.11,3.83,10.35,6.79,7.39,0,0,2.24,9.44,7.43,16.5l-.07-.47S23.45,104.87,30,86.21s14.07-27,15.05-33.7c0,0,19.47,3.11,37.8,23.56,0,0,9.64,12.86,20.54,14.55,1.17,4.24,2,12.81,2.29,15.52C106.21,96.38,104.12,89.49,104.27,85.89Z"/><path class="cls-17" d="M23.45,106.23s-1,.87-2.95-1l-1.31,2.4-1-2.84-2.4-6.33s-1.63-5.34-1.31-8.18l.77-.32,2.4,2.61,3.16,6.77s.44,2.72.55,3.6Z"/><path class="cls-18" d="M63.26,114.63a6.33,6.33,0,0,1,5-2.3c3.38,0,5.34,3.39,10-.43,0,0,3,.87,3.06,2.62a8.33,8.33,0,0,1-2.51,1.74s-1.09,3.82-5.89,3.82-7.53-2.18-8.84-3.82Z"/><path class="cls-19" d="M74.09,111.9s-4.59,0-4.91-5.32,2-4.66,1.06-14.07c0,0,4.5-1.14,6.22,0a85.35,85.35,0,0,0,.08,9.08C76.87,104.29,80.22,111.08,74.09,111.9Z"/><path class="cls-7" d="M68.93,104.78s4.26-2.94,8.43-.73L77,102.57s-4.58-1.55-8.26,1.07Z"/><path class="cls-20" d="M62.54,112.81a1.08,1.08,0,0,0,.24.18c1.37.75,3.58-3.57,2.06-4.36C62.87,107.59,61.41,111.62,62.54,112.81Z"/><path class="cls-21" d="M82.1,113.13c-1.13-.15-2.6-3.88-1.55-4.65,1.47-1.07,2,3.4,1.72,4.16Z"/><path d="M66.31,114c1.89,1.14,2.87-.08,2.87-.08A3.72,3.72,0,0,0,66.31,114Zm11.13-.41L77,114l-.41.57c2,.32,2.46-.33,2.46-.33C78.67,113.62,77.44,113.62,77.44,113.62Z"/><path class="cls-22" d="M62.28,110.92a.06.06,0,1,0-.11,0c-.37,3.08,1.68,6.72,5.13,6.22h0C63.85,117.44,62.38,113.76,62.28,110.92ZM65.16,115s0,0,0,0a3.65,3.65,0,0,1,4.69-.59c.09,0,.16-.07.1-.14C68.64,112.7,66.23,113.61,65.16,115Zm14.23-.31s0,0,0,0a1.36,1.36,0,0,0-.81-1,2.13,2.13,0,0,0-.9-.18,4,4,0,0,0,.79-1.75.07.07,0,1,0-.14,0A5.32,5.32,0,0,1,74.8,115a6.31,6.31,0,0,1-4.7-.17s-.1.06,0,.09a6.07,6.07,0,0,0,5.06.46,6,6,0,0,0,2.33-1.53,5.23,5.23,0,0,1,1,.07A1.87,1.87,0,0,1,79.39,114.69Zm2.54-5.45c-.06-.07-.17,0-.15.06a7.53,7.53,0,0,1,.14,3.94,2.88,2.88,0,0,1-1.17,1.68c-.32.21-.5.52-.83.76a7,7,0,0,1-1.18.63s0,0,0,0c1.51-.54,3-1.19,3.5-2.8C82.65,112.33,82.73,110.3,81.93,109.24ZM78.09,106a10.75,10.75,0,0,1,.33,2.65h0a14.55,14.55,0,0,0-.55-4.6,22.42,22.42,0,0,1-.59-7.35s0,0,0,0a22.47,22.47,0,0,0,.19,7.18C77.61,104.57,77.92,105.26,78.09,106Z"/><path class="cls-23" d="M17.66,103.9a59.76,59.76,0,0,0,2.47,6c.73,1.38,2.2,3.92,4.13,3.06a2.21,2.21,0,0,0,.53-.35c.13-.1,0-.28,0-.18L25,113c.23.88.5,1.75.77,2.61a54.82,54.82,0,0,0,3.55,8.53,30.21,30.21,0,0,0,6.4,8.63,45.92,45.92,0,0,0,8.38,5.68,119.64,119.64,0,0,0,15.1,7,29,29,0,0,0,17.49,1.38,18.22,18.22,0,0,0,8.75-5,64.25,64.25,0,0,0,4.16-5.52,167.43,167.43,0,0,0,11.16-16.07,45.46,45.46,0,0,0,4.13-8.79c1.15-3.57,1.11-7.39,1-11.1A82.89,82.89,0,0,0,105,92a34.44,34.44,0,0,1-.64-6.06.09.09,0,0,0-.17,0c-.11,2.79.53,5.63.87,8.39a64.76,64.76,0,0,1,.37,13.35,24.89,24.89,0,0,1-2.85,8.7,80,80,0,0,1-5.39,9.1c-3.12,4.66-6.68,9-9.9,13.58a21,21,0,0,1-3,3.6,17.23,17.23,0,0,1-4.55,2.94,23.84,23.84,0,0,1-10.82,1.82c-5-.23-9.52-2-14-3.9-6.25-2.7-12.67-5.72-18-10-4.14-3.32-6.9-8-9-12.83A50.33,50.33,0,0,1,25,112.36a.11.11,0,0,0-.17,0c-3.37,3.25-6.28-6.47-7.07-8.45,0-.07-.15,0-.12,0Z"/><path class="cls-24" d="M14.3,90.66c.3-.19.82-.59,1.16-.16s.64.81.95,1.22c.48.63.92,1.27,1.34,1.93A26.12,26.12,0,0,1,20,97.83a20.32,20.32,0,0,1,1.28,4.46,3.93,3.93,0,0,0,.08.86c.19.41.41.8.63,1.2a8.72,8.72,0,0,0,1.44,1.87c.05,0,.15,0,.1-.08-.42-.65-.82-1.31-1.22-2-.18-.32-.35-.64-.52-1a4.79,4.79,0,0,1-.37-1.5,23.85,23.85,0,0,0-1.25-4.44A22.76,22.76,0,0,0,15.57,90a.23.23,0,0,0-.24,0,6.3,6.3,0,0,0-1.06.63s0,.09,0,.06Z"/><path class="cls-25" d="M24.27,106.34S21.81,97.5,21,95.54s2.13-4.26,2.13-4.26Z"/><path class="cls-26" d="M57.15,126.62s4.8,5.46,9.6,7.42c0,0,7.64,1.31,12.65-.87,0,0,3.93-3.49,5.24-6.76L79,126l-5.89.44-7,.21Z"/><path class="cls-27" d="M64.19,129.9s12.6.32,16.69-.49a3.06,3.06,0,0,1-2.29,2.45,32.4,32.4,0,0,1-13.09.33S64.51,132,64.19,129.9Z"/><path class="cls-28" d="M79,126l-5.89.44-7,.21H57.15s.89,1,2.28,2.31c2.47.13,19.07.95,24.27-.73a11.85,11.85,0,0,0,.94-1.79Zm-11,7.36a16.77,16.77,0,0,1-4.16-.89,17.79,17.79,0,0,0,3,1.6s7.64,1.31,12.65-.87c0,0,.88-.78,1.95-2l-2.27,1.14C76.46,133.66,69.59,133.33,68,133.33Z"/><path class="cls-28" d="M71.88,127.77a5.34,5.34,0,0,0,5.4-.65h.65c3.93,0,8.18,1,11.45-4.75l-2.12,2.07c-1.42,1.09-3.38,1.64-4.69,1.09s-3.28-1.74-4.26-1.85-2,.65-2.83,1.2a3.59,3.59,0,0,1-2.4.11,13.7,13.7,0,0,0-3.28-1.2c-2.4-.11-6.65,2.62-9.59,2.73A18.7,18.7,0,0,1,53.55,125a15.06,15.06,0,0,0,8.18,2.94c3.11.17,6.55-1,9.66-.49Z"/><path class="cls-29" d="M71.41,127.35c-3-.74-6.32.42-9.4.44A15.69,15.69,0,0,1,53.56,125s0,0,0,0a17.36,17.36,0,0,0,7.64,3,21.19,21.19,0,0,0,5.09-.24,31.27,31.27,0,0,1,5.12-.27C71.49,127.54,71.51,127.38,71.41,127.35Zm5.84-.28a6.94,6.94,0,0,1-5.37.68s0,0,0,0a5.43,5.43,0,0,0,2.76.62,4.85,4.85,0,0,0,2.68-1.26S77.3,127.05,77.25,127.07Zm12.1-4.72a8.73,8.73,0,0,1-5.68,4.39,28.22,28.22,0,0,1-5.74.36,0,0,0,0,0,0,0c2.1.06,4.12.42,6.2-.09,2.41-.6,4.1-2.59,5.29-4.65A0,0,0,0,0,89.35,122.35Z"/><path class="cls-30" d="M34.08,79.18s3.6-4.42,8.51-4.42,10.14,3.6,16,3.27c0,0,1.31-.16,2.13-2.29a27.67,27.67,0,0,1-8.67-1.8C48.32,72.31,38.17,70.67,34.08,79.18Z"/><path class="cls-31" d="M102.47,79.18s-2.85-4.42-6.73-4.42-8,3.6-12.69,3.27c0,0-1-.16-1.68-2.29a17.94,17.94,0,0,0,6.86-1.8C91.21,72.31,99.24,70.67,102.47,79.18Z"/><path d="M49.13,92.92s-9,1.31-14.39-4.74c0,0,4.74-4,9.32-4.09A16.43,16.43,0,0,1,56,89.48L52.9,90Z"/><path class="cls-32" d="M37.68,88.34c5.24-5.4,15.38-2.78,19.8,2.13a.16.16,0,0,1,.16.16l.33.82-1-.17-2.78.82c-5.57,1.31-13.09,1-16.2-2.94Z"/><path class="cls-33" d="M50.33,88.22a4.52,4.52,0,0,0-.61-2.28,14.42,14.42,0,0,0-8-.06,4.64,4.64,0,0,0,1.77,6.4,19,19,0,0,0,3.18.46A4.62,4.62,0,0,0,50.33,88.22Z"/><path class="cls-34" d="M45.71,92.31A4.08,4.08,0,0,0,49,85.75a14.5,14.5,0,0,0-6.45-.08,4.09,4.09,0,0,0,3.2,6.64Z"/><path d="M48.12,88.22a2.42,2.42,0,1,1-2.41-2.41A2.41,2.41,0,0,1,48.12,88.22Z"/><path class="cls-35" d="M47.41,88.22a1.71,1.71,0,0,1-3.41,0,1.71,1.71,0,1,1,3.41,0Z"/><path class="cls-32" d="M44.72,86.22a1,1,0,0,0,2,0,1,1,0,0,0-.5-.86c-.32,0-.63,0-1,0A1,1,0,0,0,44.72,86.22Z"/><path class="cls-32" d="M46.18,90.58a.48.48,0,1,1-.47-.48A.48.48,0,0,1,46.18,90.58Z"/><path d="M57.26,90.15c-.31-.33-.62-.65-1-1A14.7,14.7,0,0,0,54,87.54a18.22,18.22,0,0,0-5.6-2.13c-3.81-.78-8-.08-10.71,2.91a0,0,0,0,0,0,0c2.92-2.67,7-3.19,10.77-2.51a17.77,17.77,0,0,1,5.37,1.91,16.74,16.74,0,0,1,2.33,1.58c.35.28.69.58,1,.89a2.82,2.82,0,0,1,.44.41s.06,0,.05,0C57.61,90.41,57.42,90.32,57.26,90.15Zm-3.07,1.9a28.72,28.72,0,0,1-8.77.49,14.59,14.59,0,0,1-4.4-1.2,9,9,0,0,1-1.57-.91c-.53-.38-.93-.89-1.44-1.27h0a5.91,5.91,0,0,0,2.74,2.23,13.61,13.61,0,0,0,4.19,1.25,22.53,22.53,0,0,0,9.28-.49A.05.05,0,0,0,54.19,92.05Z"/><path d="M87.94,92.92a10.47,10.47,0,0,0,10.44-4.74s-3.44-4-6.76-4.09C87.7,83.92,84,87.52,83,89.48l2.26.5Z"/><path class="cls-32" d="M96.25,88.34c-3.8-5.4-11.16-2.78-14.36,2.13,0,0-.12,0-.12.16l-.24.82.71-.17,2,.82c4,1.31,9.49,1,11.75-2.94Z"/><path class="cls-36" d="M93,88.22a4.7,4.7,0,0,0-.82-2.69,9.5,9.5,0,0,0-7.85,2.22c0,.16,0,.31,0,.47A4.54,4.54,0,0,0,88,92.78a12.18,12.18,0,0,0,1.48,0A4.55,4.55,0,0,0,93,88.22Z"/><path class="cls-37" d="M88.69,92.31a4,4,0,0,0,3.85-4.09,4.19,4.19,0,0,0-1.08-2.83,9.61,9.61,0,0,0-6.52,1.92,4.53,4.53,0,0,0-.1.91A4,4,0,0,0,88.69,92.31Z"/><path d="M91,88.22a2.27,2.27,0,1,1-2.27-2.41A2.35,2.35,0,0,1,91,88.22Z"/><path class="cls-38" d="M90.29,88.22a1.61,1.61,0,1,1-1.6-1.71A1.65,1.65,0,0,1,90.29,88.22Z"/><path class="cls-32" d="M88.69,87.2a1,1,0,0,0,.93-1,1,1,0,0,0-.34-.76,8.92,8.92,0,0,0-1.44.36,1,1,0,0,0-.08.4A1,1,0,0,0,88.69,87.2Z"/><path class="cls-32" d="M89.13,90.58a.45.45,0,1,1-.44-.48A.47.47,0,0,1,89.13,90.58Z"/><path d="M82,90.15c.23-.33.45-.65.7-1a12,12,0,0,1,1.69-1.66,11.31,11.31,0,0,1,4.07-2.13,6.71,6.71,0,0,1,7.76,2.91s0,.06,0,0a7.26,7.26,0,0,0-7.81-2.51,10.77,10.77,0,0,0-3.89,1.91,12.52,12.52,0,0,0-1.69,1.58c-.26.28-.5.58-.74.89a2.2,2.2,0,0,0-.31.41s-.05,0,0,0C81.8,90.41,81.93,90.32,82,90.15Zm2.23,1.9a15.24,15.24,0,0,0,6.36.49,8.51,8.51,0,0,0,3.2-1.2A6.9,6.9,0,0,0,95,90.43c.38-.38.66-.89,1-1.27h0a5,5,0,0,1-2,2.23,8,8,0,0,1-3,1.25,12,12,0,0,1-6.73-.49S84.22,92,84.27,92.05Z"/><path class="cls-39" d="M31,157.06c-23.88-21.27-14.72-50.72-2.29-75.27C33.92,71.65,42.1,60.2,45,48.42l1.31,3.27S61.08,55,72.53,64.78,99,89.32,112.45,88.67c0,0,13.75,3.27,17.35-3.93,0,0-5.24,5.56-13.09-1.64-.59-.53-.53-4.21-.66-4.95a72.44,72.44,0,0,0-3.36-12.72c-6.91-19.24-19.63-36.82-38.85-44.5C68,18.6,59,18.49,52.81,19.61a47,47,0,0,0-28.38,16.7c-17.67,21.6-18,46.14-10.8,58.9l1,2s-1.31-5.56-.82-7.69,2.13-3.59,2.79-2.78a20.85,20.85,0,0,1,1.63,3s-7.69,22.41-4.74,40.08,18,28.8,18,28.8l.65-.49Z"/><path class="cls-40" d="M41.45,24.09c-4.09.05-7.74,3.8-10.74,6.11a26.64,26.64,0,0,0-7.61,8.87c2.31-1.79,1.78,1.66.93,2.83.58-.72,2.21-2.52,3.19-2.59,1.93-.14,1.22,1.37,1.14,2.89-.14,2.63,1.15,6.63-.36,8.87,3.89-3.69,5.38,4.59,5.37,6.89,0,2,.09,4,.21,5.85S33,67.11,32.93,69c1.21-3.49,3.7-7.06,5.49-10.39-1.53,2.65-2.18-1.72-2.42-2.64-.61-2.32-2.65-3.27-3.94-5.23-1.87-2.83-1.23-7-.17-10,.39-1.13,3.44-6.39.21-5.92.21-2.5,3.54-6.11,5.2-8Zm-3,34.49a4.32,4.32,0,0,0,.21-.38ZM81.35,34.09c-2.22-2.05-6-2.85-7.41-5.86-.59-1.3-2.32-6.76-.06-6.32-3-.64-6.35-1.89-9.34-2.61,2.62,1.3,4.56,3.63,6.79,5.94,1.52,1.59.79,3,1.74,4.76s4,2.44,4.6,4.34c.54,1.71-.9,3.62-.5,5.47s1.12,2.78.49,5c-1,3.64-4.26,7.63-8,8.54,1,3-2.94.8-4.61,1.06l2.18,1.52c1.6,2.56.85,3.7-2.16,3.15,2.85,2.07,7.81,3.27,9.81,6.39-.33-3.71,2.34-3.15,4.58-1.32-2.77-5-2.18-10.9.69-15.8,2-3.32.18-4.28-.22-7.69C79.72,39.23,79.55,34,81.35,34.09ZM22.42,75.38c-3.14,3.36-6.75,5.42-8.24-.51a7.77,7.77,0,0,0-1-3.07c-.68-.89-1.28-.56-1.8-1.94-1-2.62.15-5.82.22-8.46l-1.09,6.32A66.26,66.26,0,0,0,10.9,79c.61-3.89,3.39-.19,5,.51,2.76,1.18,4.53.48,4.35,4.29,1.52-4.07,5.09-.76,5.64,1.8.36-1.71,1.32-3.3,1.76-5C23.71,83.32,22.61,78.13,22.42,75.38Zm81-19.82,0,0,0,0C103.51,55.69,103.51,55.69,103.4,55.56Zm1.77,16.09c-2.6-5.9-4.45-10.8-4.12-17.3a4.81,4.81,0,0,1,2.32,1.18c-2-4.48-5.54-8.27-6.88-13a20.23,20.23,0,0,0-6.65-10.67c2.42,2.69,3.83,6.7,4.94,10,.68,2,.74,3.86,1.22,5.56.55,1.92,1.74,3.94,2.45,5.9,1.57,4.37,1.07,8.23,2.63,12.51.94,2.58,2.58,5.09,1.89,7.79-.48,1.91-1.85,2.44-2,4.83-2.18.88-5.06.34-7.34,0,.12.41.06.88.15,1.3l-3.22-1,4.25,3.27c1.86.9,3.85,2.23,5.83,2.57l.12-.55c2-.35,3.75.52,5.72.61-1.15-.59-2.82-2.07-2.11-3.54.47-1,2.82-.14,3.54-1.37C108.8,78.28,105.94,73.39,105.17,71.65Z"/><path class="cls-41" d="M21.33,78.44c-3.32,3.55-9-4.29-11.09-6.06,0,1,0,2,0,3,1.73-.25,2.77,1.38,4.06,2.26,1.61,1.11,3.3,1.36,5,2a23.18,23.18,0,0,1,7.46,4.75l.22-2C24.42,82.32,21.93,81.42,21.33,78.44ZM34.9,56.16c-.45-1.58-1.64-2.77-2.41-4.28,1.93,3.52,1.38,7.16,2.63,10.83l1.74-2.4C35.17,59.2,35.37,57.82,34.9,56.16ZM30.29,32.49a11.37,11.37,0,0,1,1-2.6,8.77,8.77,0,0,0-2.63,2.16,23.15,23.15,0,0,0-3.78,4.69c1.7-.83.95,1.56,1.62,2,1.06.65,2.16-.48,2.92,1,.63,1.21.25,3.33.25,4.66,0,1.52,0,3,.12,4.49.46,0,.88.11,1,.45l.21-.54a8.76,8.76,0,0,1-1-4.48c.08-.91.3-1.84.44-2.74.1-.66.65-2.45.2-3-.56-.74-1.59,0-1.95-1s.63-2,1.07-2.73C30.35,33.86,30.16,33.5,30.29,32.49Zm49.2,1.33c-.67-.26-1.36-.6-2-.87a4.17,4.17,0,0,1,1.37,2.16c.34,2-1.24,3.67-.6,5.78.59,1.92,1,3.4.22,5.35a19.85,19.85,0,0,1-5.57,7.3c-.77.69-1.59,1-2.09,1.86-.31.5-.15.84-.77,1.17a6,6,0,0,1-1.2.25l3,1.85c.32.31.66.61,1,.9-.78-.48-1.59-.92-2.41-1.32-.06,1,.06,3-1.55,2.38l2,1.31A12.87,12.87,0,0,1,74,65.07c0-1.06-1.09-3.74.17-4.45,1.06.8,2.17,1.55,3.2,2.34-.91-1.16-1.28-3.31-1.6-4.86-.39-1.93-.68-4.11.17-6a36,36,0,0,1,2.2-3.37c.65-1.06,1.07-3,2.17-3.63C78.13,41.91,79.38,37.28,79.49,33.82Zm-3.9-2.64L77,32.38c-1.25-1.63-2.87-2.75-3.68-4.69-.19-.46-.42-.94-.64-1.43C73.43,28.22,73.18,30.08,75.59,31.18ZM72.4,25.62s0,0,0,0a7.19,7.19,0,0,1-.78-4.49,32.52,32.52,0,0,0-4-1.09A14.9,14.9,0,0,1,72.4,25.62Zm0,0c.08.2.17.41.26.6A6.05,6.05,0,0,0,72.42,25.66ZM96.09,43.29c.51,1.47.32,3.19.9,4.58A12.1,12.1,0,0,0,99,50.4a21.06,21.06,0,0,0,2.25,2.8c-.92-1.05-1.24-2.59-2-3.8A25.38,25.38,0,0,1,97.4,46c-1-2.48-2.09-5-2.94-7.53l-.33-.33A11.06,11.06,0,0,1,93.24,35a1.51,1.51,0,0,0-.52,0c.89,1.23.87,2.72,1.44,4.1S95.59,41.84,96.09,43.29Zm9.82,31.5c-1.1-2.56-2.19-5.1-3.19-7.71a35.34,35.34,0,0,1-2.24-7.68c-.13-.84-.85-5.77.52-5.64l-3.6-4.69c2.11,3.77,2.49,8.37,3.06,12.54.53,3.84,3.13,6.8,3.27,10.77A10.6,10.6,0,0,1,102,78.87c-1.46,1.86-4.22.52-6.12.54.35,1.45-.53,2.34-2,2.3a11.17,11.17,0,0,0,2.55,1.48,6.16,6.16,0,0,0,1.78.57c.52,0,.34-.1.78-.3a6.85,6.85,0,0,1,4.88-.59,2.33,2.33,0,0,1,0-3.58C105.68,77.58,107.13,77.64,105.91,74.79Z"/><path class="cls-42" d="M116.71,83.1c-.59-.53-.53-4.21-.66-4.95a72.44,72.44,0,0,0-3.36-12.72c-6.91-19.24-19.63-36.82-38.85-44.5C68,18.6,59,18.49,52.81,19.61a47,47,0,0,0-28.38,16.7c-17.67,21.6-18,46.14-10.8,58.9l1,2s-1.31-5.56-.82-7.69,2.13-3.59,2.79-2.78a20.85,20.85,0,0,1,1.63,3s-7.69,22.41-4.74,40.08a38.81,38.81,0,0,0,2.44,8.48v0s-3.49-14.84-1.53-27.93S26.17,71,28.14,57.69c0,0-7.2,24.21-9.82,30.1L16.58,85a6.32,6.32,0,0,0-3.71,4.8s-4.8-11.56-.44-28.58,21.6-41,46.69-41.45,40.13,22,44.93,30.32,9.38,19.2,10.91,30.76c0,0-10.47-27.92-19.85-34.9,0,0,9.16,10.91,18.54,34.68A11.8,11.8,0,0,0,122.38,88S111.47,90,93.15,75.8,71.55,54.85,56.06,50.93c0,0,9,2.4,19.85,12.43S100.56,85,110.16,87.14c0,0-7.41.87-20.72-9.6S63,52.89,47.34,50.93l-2.62-4.8S40.57,59.65,33.81,70.34s-19.88,35.21-17.72,53.49c.11-14.06,5.87-28.77,12.59-42C33.92,71.65,42.1,60.2,45,48.42l1.31,3.27S61.08,55,72.53,64.78,99,89.32,112.45,88.67c0,0,13.75,3.27,17.35-3.93C129.8,84.74,124.56,90.3,116.71,83.1Zm-67-50.73A52.11,52.11,0,0,0,47,38.27c-.82,1.73-2.22,3.42-2.45,5.24l.44.87c.2-3.07,3.35-.94,3.48-4.14,0-1.1-.69-1.76-.65-2.84a7.88,7.88,0,0,1,1.75-3.72c1.9-2.61,5.91-3.72,7-6.76.83-2.38.87-3.53,3-5.41-1.34.71-2.52,1.89-3.81,2.62C56.73,28.86,51.71,29.23,49.67,32.37Z"/></g></g></svg>