<svg xmlns="http://www.w3.org/2000/svg" xmlns:xlink="http://www.w3.org/1999/xlink" viewBox="0 0 167.23 176.51"><defs><style>.cls-1{fill:url(#linear-gradient);}.cls-2{fill:url(#linear-gradient-2);}.cls-3{fill:url(#linear-gradient-3);}.cls-4{fill:url(#linear-gradient-4);}.cls-5{fill:url(#linear-gradient-5);}.cls-6{fill:url(#linear-gradient-6);}.cls-7{fill:url(#linear-gradient-7);}.cls-8{fill:url(#linear-gradient-8);}.cls-9{fill:#cb6f4f;}.cls-10{fill:url(#linear-gradient-9);}.cls-11{fill:url(#radial-gradient);}.cls-12{fill:url(#radial-gradient-2);}.cls-13{fill:url(#radial-gradient-3);}.cls-14{fill:url(#linear-gradient-10);}.cls-15{fill:url(#linear-gradient-11);}.cls-16{fill:url(#linear-gradient-12);}.cls-17{fill:url(#linear-gradient-13);}.cls-18{fill:url(#linear-gradient-14);}.cls-19{fill:url(#linear-gradient-15);}.cls-20{fill:url(#linear-gradient-16);}.cls-21{fill:url(#linear-gradient-17);}.cls-22{fill:#9f4425;}.cls-23{fill:#a83e29;}.cls-24{fill:#963123;}.cls-25{fill:url(#radial-gradient-4);}.cls-26{fill:url(#linear-gradient-18);}.cls-27{fill:#69281b;}.cls-28{fill:url(#linear-gradient-19);}.cls-29{fill:url(#linear-gradient-20);}.cls-30{fill:url(#linear-gradient-21);}.cls-31{fill:url(#linear-gradient-22);}.cls-32{fill:url(#linear-gradient-23);}.cls-33{fill:url(#linear-gradient-24);}.cls-34{fill:#7b3b27;}.cls-35{fill:#fff;}.cls-36{fill:url(#linear-gradient-25);}.cls-37{fill:url(#linear-gradient-26);}.cls-38{fill:url(#linear-gradient-27);}.cls-39{fill:url(#linear-gradient-28);}.cls-40{fill:url(#linear-gradient-29);}.cls-41{fill:url(#linear-gradient-30);}</style><linearGradient id="linear-gradient" x1="57.68" y1="57.25" x2="35.43" y2="6.72" gradientUnits="userSpaceOnUse"><stop offset="0" stop-color="#741009"/><stop offset="1" stop-color="#b3311a"/></linearGradient><linearGradient id="linear-gradient-2" x1="60.07" y1="49.14" x2="42.01" y2="8.13" gradientUnits="userSpaceOnUse"><stop offset="0" stop-color="#851d16"/><stop offset="1" stop-color="#c4442e"/></linearGradient><linearGradient id="linear-gradient-3" x1="57.95" y1="57.87" x2="35.8" y2="7.57" gradientUnits="userSpaceOnUse"><stop offset="0" stop-color="#5d0a04"/><stop offset="1" stop-color="#9c240f"/></linearGradient><linearGradient id="linear-gradient-4" x1="57.2" y1="68.06" x2="36.47" y2="20.98" gradientUnits="userSpaceOnUse"><stop offset="0" stop-color="#8c130b"/><stop offset="1" stop-color="#cb381d"/></linearGradient><linearGradient id="linear-gradient-5" x1="62.71" y1="62.16" x2="45.34" y2="22.71" gradientUnits="userSpaceOnUse"><stop offset="0" stop-color="#a0231b"/><stop offset="1" stop-color="#df4e34"/></linearGradient><linearGradient id="linear-gradient-6" x1="86.24" y1="162.64" x2="86.24" y2="143.99" gradientUnits="userSpaceOnUse"><stop offset="0" stop-color="#cb6f4f"/><stop offset="1" stop-color="#b75634"/></linearGradient><linearGradient id="linear-gradient-7" x1="92.26" y1="40.21" x2="85.28" y2="25.38" gradientUnits="userSpaceOnUse"><stop offset="0" stop-color="#4e0600"/><stop offset="1" stop-color="#260800"/></linearGradient><linearGradient id="linear-gradient-8" x1="92.24" y1="41.8" x2="83.63" y2="23.51" gradientUnits="userSpaceOnUse"><stop offset="0" stop-color="#781a12"/><stop offset="1" stop-color="#501a0c"/></linearGradient><linearGradient id="linear-gradient-9" x1="98.93" y1="21.98" x2="98.93" y2="72.01" gradientUnits="userSpaceOnUse"><stop offset="0" stop-color="#ffa474"/><stop offset="1" stop-color="#cb6f4f"/></linearGradient><radialGradient id="radial-gradient" cx="-151.12" cy="-767.19" r="44.25" gradientTransform="translate(145.21 318.15) scale(0.29 0.26)" xlink:href="#linear-gradient-9"/><radialGradient id="radial-gradient-2" cx="1589.61" cy="-641.46" r="44.26" gradientTransform="matrix(0.29, -0.44, 0.31, 0.21, -125.38, 937.06)" gradientUnits="userSpaceOnUse"><stop offset="0" stop-color="#d48061"/><stop offset="1" stop-color="#cb6f4f"/></radialGradient><radialGradient id="radial-gradient-3" cx="2271.56" cy="116.37" r="44.26" gradientTransform="matrix(-0.19, -0.5, 0.35, -0.13, 451.48, 1242.57)" xlink:href="#radial-gradient-2"/><linearGradient id="linear-gradient-10" x1="94.58" y1="139.56" x2="94.58" y2="100.95" xlink:href="#linear-gradient-6"/><linearGradient id="linear-gradient-11" x1="77.2" y1="78.71" x2="77.2" y2="66.93" xlink:href="#linear-gradient-6"/><linearGradient id="linear-gradient-12" x1="122.43" y1="78.71" x2="122.43" y2="66.93" xlink:href="#linear-gradient-6"/><linearGradient id="linear-gradient-13" x1="101.46" y1="120.84" x2="101.46" y2="113.11" xlink:href="#linear-gradient-6"/><linearGradient id="linear-gradient-14" x1="104.49" y1="117.28" x2="102.53" y2="91.1" xlink:href="#linear-gradient-9"/><linearGradient id="linear-gradient-15" x1="90.37" y1="105.3" x2="92.5" y2="106.61" xlink:href="#linear-gradient-9"/><linearGradient id="linear-gradient-16" x1="112.92" y1="105.57" x2="111.51" y2="106.11" xlink:href="#linear-gradient-9"/><linearGradient id="linear-gradient-17" x1="101.32" y1="109.46" x2="101.32" y2="103.9" gradientUnits="userSpaceOnUse"><stop offset="0" stop-color="#9f4425"/><stop offset="1" stop-color="#cb6f4f"/></linearGradient><radialGradient id="radial-gradient-4" cx="-330.81" cy="-691.34" r="41.54" gradientTransform="translate(183.63 312.58) rotate(1) scale(0.26)" gradientUnits="userSpaceOnUse"><stop offset="0" stop-color="#c7625d"/><stop offset="1" stop-color="#a83e29"/></radialGradient><linearGradient id="linear-gradient-18" x1="98.8" y1="120.47" x2="98.8" y2="123.75" gradientUnits="userSpaceOnUse"><stop offset="0" stop-color="#c7625d"/><stop offset="1" stop-color="#963123"/></linearGradient><linearGradient id="linear-gradient-19" x1="75.31" y1="56.16" x2="75.09" y2="54.41" gradientUnits="userSpaceOnUse"><stop offset="0" stop-color="#630c05"/><stop offset="1" stop-color="#9d2410"/></linearGradient><linearGradient id="linear-gradient-20" x1="2932.57" y1="56.08" x2="2932.35" y2="54.32" gradientTransform="matrix(-0.74, 0, 0, 1, 2298.34, 0)" xlink:href="#linear-gradient-19"/><linearGradient id="linear-gradient-21" x1="58.1" y1="60.52" x2="41.46" y2="22.73" xlink:href="#linear-gradient-4"/><linearGradient id="linear-gradient-22" x1="49.03" y1="61.41" x2="35.49" y2="30.68" xlink:href="#linear-gradient-5"/><linearGradient id="linear-gradient-23" x1="47.69" y1="63.01" x2="34.58" y2="33.22" gradientUnits="userSpaceOnUse"><stop offset="0" stop-color="#b03730"/><stop offset="1" stop-color="#ef6951"/></linearGradient><linearGradient id="linear-gradient-24" x1="56.28" y1="65.11" x2="40.19" y2="28.56" xlink:href="#linear-gradient-19"/><linearGradient id="linear-gradient-25" x1="75.87" y1="87.54" x2="75.87" y2="80.09" gradientUnits="userSpaceOnUse"><stop offset="0" stop-color="#39140a"/><stop offset="1"/></linearGradient><linearGradient id="linear-gradient-26" x1="75.87" y1="87.54" x2="75.87" y2="80.09" gradientUnits="userSpaceOnUse"><stop offset="0.01" stop-color="#652312"/><stop offset="1" stop-color="#210000"/></linearGradient><linearGradient id="linear-gradient-27" x1="75.87" y1="83.86" x2="75.87" y2="85.8" gradientUnits="userSpaceOnUse"><stop offset="0"/><stop offset="1" stop-color="#77726d"/></linearGradient><linearGradient id="linear-gradient-28" x1="119.79" y1="87.54" x2="119.79" y2="80.03" xlink:href="#linear-gradient-25"/><linearGradient id="linear-gradient-29" x1="119.79" y1="87.53" x2="119.79" y2="80.03" xlink:href="#linear-gradient-26"/><linearGradient id="linear-gradient-30" x1="119.79" y1="83.83" x2="119.79" y2="85.77" xlink:href="#linear-gradient-27"/></defs><g id="Layer_2" data-name="Layer 2"><g id="_4_Face" data-name="4_Face"><path d="M167.2,81s0,0,0-.06v0c0-.09-.05-.19-.07-.26v0l0-.07c0-.09-.08-.19-.12-.29s0-.07,0-.07l0,0a2.1,2.1,0,0,0-.19-.31.21.21,0,0,0,0-.06,2.18,2.18,0,0,0-.22-.31l-.05-.08L166.1,79l0,0-.28-.31,0,0-.05,0c-.11-.11-.22-.23-.34-.34l0,0-.34-.31-.07-.06c-.13-.12-.26-.24-.4-.35l-.06,0-.39-.33,0,0,0,0-.45-.37-.05,0c-.15-.12-.3-.25-.45-.36l0,0c-.5-.39-1-.8-1.57-1.2l-.88-.67-.11-.09-.17-.13-.08-.06-.24-.19-.25-.2-.37-.28-.18-.15-.21-.17-.1-.09-.08,0-.06-.06a16.38,16.38,0,0,1-3.47-3.57L155,69l0-.07,0-.08-.06-.13a2,2,0,0,1-.13-.31c-1-2.83,1-5.9,3-8.87A25.75,25.75,0,0,0,160.33,55c1.48-3.85-.79-11.49-1.53-13.76l0-.07,0-.07V41l0-.08a.5.5,0,0,0-.42-.34l-.31-.06-.05,0h0l-.25-.08-.06,0,0,0,0,0-.3-.12-.06,0-.07,0c-.11-.06-.23-.11-.34-.18l-.12-.07a4.1,4.1,0,0,1-.4-.23l-.06,0,0,0-.48-.31-.05,0-.53-.36,0,0-.59-.44-.1-.07-.22-.17-.09-.07,0,0c-.45-.35-.92-.73-1.4-1.13l-.48-.41,0,0-.5-.43C149.2,34,146.77,31.68,145,30l-.22-.2-.13-.14-.26-.24-.12-.12-.1-.1L144,29l-.13-.12-.1-.1-.14-.13-.12-.12-.09-.09,0,0-.09-.07-.19-.19-.05,0,0-.05-.12-.1-.07-.07,0,0,0,0c-.08-.07-.15-.14-.22-.19a1.26,1.26,0,0,1-.5-1,4.31,4.31,0,0,1,1.5-2.55.48.48,0,0,0,.16-.36.54.54,0,0,0-.14-.36,30.87,30.87,0,0,0-10.67-6.66l-.76-.24-.18,0c-.25-.07-.49-.14-.72-.19l-.08,0c-.23-.06-.45-.11-.68-.15l-.14,0-.71-.13h-.07l-.65-.1h-.1l-.69-.08H128c-.23,0-.45,0-.7-.06l-.69,0h-1c-.94,0-1.79,0-2.65.09h-.18c-.73,0-1.42.08-2,.08-.41,0-.77,0-1.09,0a.93.93,0,0,1-.68-.42c-.91-1.39,0-5.38.44-6.81a.45.45,0,0,0,0-.39.49.49,0,0,0-.33-.23c-.32-.07-.64-.13-1-.18h0a31.7,31.7,0,0,0-4.25-.42h0l-.72,0h-1.81l-.61,0h-.21l-.58,0-.23,0-.55,0-.23,0-.53.05-.24,0-.52,0h-.09l-.13,0-.49.06-.17,0h-.06l-.48.07H106l-.15,0-.46.08-.21,0-.43.08-.21,0-.41.08-.11,0-.1,0-.39.08h-.08l-.11,0-.36.08-.08,0-.1,0-.13,0-.21.05h-.07l-.1,0-.23.05-.09,0-.1,0h-.06l-.29.07-.15,0-.13,0-.14,0-.12,0-.11,0-.12,0-.09,0h0l-.23.07-.09,0-.09,0-.09,0-.09,0L100,9l-.06,0-.09,0h0A31,31,0,0,0,85.1.16H85l-.09,0-.1,0-.08,0-.11,0h0l-.1,0h-.18a.45.45,0,0,0-.3.1.51.51,0,0,0-.2.35c-.2,2.45-1.58,4.93-4.19,4.93A5.55,5.55,0,0,1,77,4.64l-.58-.3-.14-.07L75.66,4,75,3.71l-.07,0-.09,0-.63-.25,0,0-.68-.26-.18-.06-.65-.24-.06,0-.7-.24-.18-.06-.66-.22h0L70.31,2l-.17,0-.62-.19-.07,0-.68-.2-.14,0L68,1.35h0l-.64-.18-.09,0L66.09.83h0c-1.17-.3-1.94-.48-2-.48H64a.47.47,0,0,0-.3.1c-.09.07-8.94,7-13.5,12.85-3.23,4.14-6.43,4.94-10.48,5.94-1.14.28-2.31.57-3.58,1l-.64.2h-.08l-.7.24A40.59,40.59,0,0,0,24.3,26.38c-.88.67-1.41,1.12-1.5,1.2l0,0a.67.67,0,0,0-.17.36c0,.07,0,.2,0,.39v0h0l0,.18v.12c-.22,2.23-.58,7.86.76,11.86,0,.14.08.27.11.4l0,.06v.07a2.68,2.68,0,0,1,.07.27s0,.09,0,.15a2.17,2.17,0,0,1,0,.25.68.68,0,0,1,0,.14l0,.28v.11c0,.13,0,.27,0,.39v0c0,.11,0,.23,0,.35a.41.41,0,0,0,0,.12l0,.26v.13c0,.08,0,.17,0,.26l0,.12c0,.09,0,.17-.05.25v.06l0,0c0,.12-.06.24-.09.36l0,.08c0,.09-.06.17-.08.25l-.06.14a1.59,1.59,0,0,1-.07.2L23,45.5c0,.06-.05.11-.07.17l-.07.15c0,.06,0,.11-.08.16l0,0-.06.12,0,.07,0,.07-.18.3,0,0,0,.05-.12.18-.06.07-.12.17,0,0,0,0-.15.19a5.2,5.2,0,0,1-.71.7,2.83,2.83,0,0,1-1,.55,2,2,0,0,1-.32,0,.78.78,0,0,1-.46-.13c-2.06-1.38-6.31-1.39-6.49-1.39a.5.5,0,0,0-.46.32c-.09.26-.19.53-.27.81l-.08.22c-.06.18-.11.38-.17.57s-.05.16-.07.25l0,0,0,.2,0,.14,0,.11a1.21,1.21,0,0,0,0,.18l-.05.18,0,.09,0,.1,0,.1,0,.06,0,.14c0,.1,0,.21-.07.31l0,0,0,.11,0,.19a.14.14,0,0,1,0,.06v0l0,.18,0,.11-.06.34-.07.34v.06l0,.09,0,.22c0,.12,0,.25-.07.37s0,.24,0,.34v.14l0,.25-.06.36v0l0,.33c0,.12,0,.25-.05.37l0,.37,0,.37v.11a.18.18,0,0,0,0,0l0,.22,0,.25v.12c0,.13,0,.25,0,.39v.38l0,.35c0,.14,0,.27,0,.4V58c0,.08,0,.17,0,.26s0,.27,0,.42v.08c0,.08,0,.17,0,.24v1c0,.16,0,.33,0,.49v1.45a2.09,2.09,0,0,1,0,.25v.07c0,.13,0,.26,0,.39V63l0,.37c0,.11,0,.22,0,.32s0,.24,0,.36l0,.32c0,.11,0,.23,0,.35l0,.3,0,.34,0,.3.06.33,0,.08,0,.21a3,3,0,0,1,.07.32l.06.27a2.81,2.81,0,0,0,.08.31v.07c0,.06,0,.13,0,.19l.09.33a1.42,1.42,0,0,1,.07.22c0,.1.07.21.11.33s0,.12.07.19a2.45,2.45,0,0,0,.12.31l0,0,.05.12c.07.16.14.32.21.46s.16.35.25.57l0,.09,0,0c.07.2.14.38.19.56v.08a4.7,4.7,0,0,1,.12.51v.1c0,.18.06.36.08.56V72c0,.19,0,.37,0,.54v.06c0,.18,0,.37,0,.59,0,0,0,.07,0,.11a8.14,8.14,0,0,1-.23,1.24l0,.1c-.06.21-.12.43-.2.65l0,0c-.07.21-.15.42-.24.65l0,0c-.09.23-.2.46-.31.69l0,0,0,0c-.23.47-.5,1-.8,1.47l0,.08-.36.58c-.07.11-.14.22-.22.33l-.31.47-.09.13-.13.18c-.14.21-.3.42-.45.63L9,80.79l-.08.11,0,0c-.16.22-.32.44-.49.65l-.05.06,0,0q-.24.33-.51.66l-.14.17-.12.15-.14.18-.18.22-.12.14-.16.2-.36.44L6.48,84l-.14.17-.64.75-.48.58-.09.11-.41.54,0,0,0,0c-.14.18-.26.37-.4.57s-.22.34-.33.53l0,.07c-.1.16-.19.33-.27.49l0,.1c-.09.16-.17.32-.24.47s0,0,0,0-.13.31-.19.47l0,.06a4.59,4.59,0,0,0-.15.44l0,.1c0,.15-.07.29-.1.43v.06c0,.14,0,.27-.07.42v0l0,.41v.09c0,.13,0,.26,0,.37a.2.2,0,0,0,0,.07c0,.12,0,.24,0,.36a.07.07,0,0,0,0,.05c0,.12,0,.24.07.35l0,0v0a2.13,2.13,0,0,0,.11.33l0,.06a2.92,2.92,0,0,0,.14.31l0,0a2.69,2.69,0,0,0,.16.29.56.56,0,0,0,0,.08,2.75,2.75,0,0,0,.19.28l.05.07.19.23a9.27,9.27,0,0,0,4.79,2.49,2.24,2.24,0,0,1,.38.11l0,0,.06,0,.24.1.11.06a1.32,1.32,0,0,1,.2.12l0,0,.08,0,.21.17.06,0c.09.08.17.17.23.23l0,0,.2.26,0,0,0,0c.05.08.1.15.14.23l0,.08a2.39,2.39,0,0,1,.13.28l0,0a4.37,4.37,0,0,1,.28,1.22c0,.14,0,.28,0,.44a7.34,7.34,0,0,1-.26,2,11.21,11.21,0,0,1-3.51,5.36,12.87,12.87,0,0,0-1.08,1,19.94,19.94,0,0,0-3.1,4.39l0,0A29.75,29.75,0,0,0,1,118.39l-.07.25v.06l0,.13,0,.07,0,.12v.08l0,.11v.18c-.06.26-.39.43-.13.49H.65c.08,0,.07-.06,0-.15a.51.51,0,0,0,.23.29l.44.25.06,0,0,0,.05,0,.28.19.07.06,0,0,.06,0,.26.2.06,0,.11.09.29.26.07.06.05,0c.1.1.2.19.3.3l.1.1c.11.11.21.23.32.35l.07.08.33.4,0,0,.36.49,0,.06,0,.07.3.46.06.09,0,.07.19.31.08.14,0,.08.15.28.12.23.14.28a1.89,1.89,0,0,1,.11.25c0,.09.09.18.13.27l.08.2,0,.06c0,.09.07.19.11.28l.1.27c0,.09.07.18.1.28l.09.27.09.28v0c0,.08.05.15.07.22l.06.24,0,.06,0,.08a1.8,1.8,0,0,1,.05.19l.06.25v.06c0,.17.07.34.1.5l0,.11c0,.06,0,.13,0,.2l0,.23v.15l0,.19,0,.3,0,.28c0,.1,0,.2,0,.3s0,.18,0,.28,0,.2,0,.3V132a2.44,2.44,0,0,0,0,.27c0,.1,0,.2,0,.3l0,.27,0,.29,0,.21v.12l0,.23c0,.08,0,.15,0,.23v.05l0,.1,0,.18A9.65,9.65,0,0,1,6,136.39c-.41.83-.81,1.64-1.2,2.41l0,0c-1,2-2,4.12-3,6.24l0,.07-.11.22,0,.05-.08.16,0,0,0,0-.07.15-.11.23-.1.23,0,.06-.1.23L1,146.7l0,.07L.83,147l-.09.19,0,0a.5.5,0,0,0,0,.49c0,.06,4.3,6.29,8.19,11.47a3.19,3.19,0,0,1,.59,2.62c-.86,4.52-9.2,9.7-9.29,9.76a.5.5,0,0,0-.23.56.46.46,0,0,0,.45.34H.9l.74,0c1.66.08,5,.23,8.72.23q1.28,0,2.49,0l1,0h0l.94,0h.07l.92,0h.06l1-.05,1-.07.9-.08h.07l.58-.06.12,0h.21l.22,0,.18,0,.38,0h.09l.74-.11h.08l.75-.13h0l.73-.15.87-.2.17,0,.13,0,.59-.11.46-.09.56-.09.48-.08.63-.1.42-.05.64-.09.4,0,.64-.08.37,0h0l.66-.07.44,0,.58-.06,2.65-.2,1.26-.07h0l.37,0h.09l.69,0h.47l.91,0h.64c1.06,0,1.69,0,1.7,0h.63l1.2,0a.49.49,0,0,0,.46.31h0l2.45-.19c2.5.15,5.2.45,8.24.92.42.14.79.26,1.14.35l.41.1.31.09.48.12a38.4,38.4,0,0,0,9.18,1.69c.34,0,.68,0,1,0a150.9,150.9,0,0,0,16,2.52c3.52.31,6.88.47,10,.47,10,0,16.77-1.58,23.32-3.11a96.71,96.71,0,0,1,18.12-2.92.51.51,0,0,0,.35-.17h1.23l1,0h9.15l1.68,0h2.18l1.61,0,.49,0,1.88.06,2,.08h0a.44.44,0,0,0,.26-.07c5.4-3.37,5.78-10.56,5.8-10.87a.49.49,0,0,0-.3-.47,7.13,7.13,0,0,1-3.83-4.22,10.08,10.08,0,0,1,.48-7.87l.29-.55.07-.13.28-.47,0-.06q.15-.26.33-.51l.09-.14c.1-.13.19-.27.29-.41l0,0,0,0,.34-.47.07-.09.06-.08.25-.32.07-.09.07-.08.31-.39.24-.29.09-.09.75-.9c1.83-2.16,3.42-4,3.21-5.91-.16-1.42-1.43-2.68-2.77-4s-3-2.94-3.35-4.78a2.56,2.56,0,0,1,0-.27v-.06l0-.25v-.14c0-.06,0-.12,0-.18s0-.23,0-.35c.16-2.21,2.06-4.37,4.07-6.67l.19-.22.12-.13.23-.27,0,0,.08-.09a21,21,0,0,0,4.43-6.88c2-6.07-2.82-12.3-3-12.56a.5.5,0,0,0-.56-.16l-.14,0-.13,0-.18,0c-.73,0-1.11-.87-1.28-1.38a6.09,6.09,0,0,1-.21-1c0-.11,0-.22,0-.34v0a3,3,0,0,1,0-.32v-.44c0-.1,0-.2,0-.3v-.08c0-.12,0-.24,0-.39s.07-.54.12-.81l0-.11.06-.28v-.08l0-.07c0-.08,0-.17.07-.26l0-.08,0-.07c0-.08,0-.16.07-.24l0-.06,0-.1c0-.08.05-.16.08-.25l0,0,0-.11c0-.08.07-.17.1-.26l0,0,0-.07c0-.13.11-.26.17-.38l1.15-2.25c1.66-3.17,3.6-6.69,4-7.37l0,0,0-.06,0,0a.64.64,0,0,0,.07-.27A2.24,2.24,0,0,0,167.2,81Z"/><path class="cls-1" d="M39.78,169.66s-10.15,0-17,1.64S.51,172,.51,172s12.76-7.85,8.83-13.08-8.18-11.46-8.18-11.46,2.29-4.91,5.24-10.8-.33-14.39-5.24-17c0,0,1.64-7.53,6.55-11.78S12.94,97,8.69,96,.18,92.11,6.07,85.24s8.51-11.45,6.22-16-1.64-15.38.65-21.6c0,0,4.26,0,6.22,1.31s6.22-3.6,4.58-8.51S23.09,28,23.09,28A40.56,40.56,0,0,1,34.87,21.1c6.54-2.29,11.12-1.63,15.7-7.52S64,.82,64,.82s8.51,2,12.76,4.25S84,4.41,84.28.49c0,0,8.18,1.31,15.38,9.16,0,0,9.82-3.27,19.3-1.31,0,0-2.29,7.53.66,7.86s7.2-1,13.09,1a30.51,30.51,0,0,1,10.47,6.54s-3,2.62-1,4.26,12.43,12.76,16,13.08c0,0,3.27,9.49,1.64,13.75s-7.2,9.16-5.56,13.74S166.74,78,166.74,81.31c0,0-3.27,5.89-5.24,9.82s-1,9.16,1.64,8.18c0,0,4.91,6.22,3,12.11s-8.84,9.81-9.17,14.4,5.89,7.19,6.22,10.14-4.58,6.22-6.87,10.8-1,10.8,3.6,12.76c0,0-.33,7.2-5.56,10.47,0,0-26.84-1.31-37.64,1.64L90.5,169l-36-.66-10.47,1Z"/><path class="cls-2" d="M43,28.63c.38-2.31,2.15-3.64-.7-5.19-2-1.06-5,.8-7.11,0a6.08,6.08,0,0,1,1.05-2.78c-.46.14-.93.29-1.41.46A40.56,40.56,0,0,0,23.09,28s0,.28-.09.77c3,.34,7.85-2.29,10.57-2.11,8.9.58,9.23,5.1,6.88,11.8,3.9-1.79,7.31-4,11.66-4.57C48.07,32.24,42.17,33.9,43,28.63Zm110,81.15-3.6,9.49c1.73-3.46,7.36-2.27,11.55-.23,2-2.23,4.07-4.61,5.07-7.45C161.77,114.33,156.8,114.29,153,109.78Zm-1.32-66.43a18.83,18.83,0,0,1,8.26,4.42,49.46,49.46,0,0,0-1.71-6.71c-1-.08-2.44-1-4.1-2.22a5,5,0,0,1-1.13,1c-3,2-4.26-1-6.9-.46s-1.53,2.6-4.95,1.69c-2.15-.57-5-3-6.81-4.28l6.55,12.11c.16.36.41.43.32.88C142.21,45.41,147.44,42.58,151.68,43.35Zm8.44,43.89a11.17,11.17,0,0,1,2.54,1.64c1.87-3.6,4.08-7.57,4.08-7.57a4.13,4.13,0,0,0-1.55-2.56,5.32,5.32,0,0,1-3.06,1.87c-3.67.53-2.16-2.43-4.62-3.45s-3.57,2.9-5.73,3.2c-3.7.5-4.78-6-6-8.22l-1.31,20.62C148.93,89.3,154,84.39,160.12,87.24ZM4.5,93.5a22.42,22.42,0,0,1,13-5c4.7-.18,9.72.75,12.77,4.48-.4-4.3-.38-8.61-1-12.88-2.45,3.75-7.4,7-11.78,5.87-2-.54-1.63-1.58-4-1-1.75.43-2.38,2-4.46,1.85C8.63,84.32,9.71,81.17,11,79h-.15a54.41,54.41,0,0,1-4.76,6.22c-3.5,4.09-3.42,6.78-1.88,8.5ZM131.72,26.07a5.89,5.89,0,0,1,4.82-3c-3.16-1-4.57-.8-7.75-.67-2.29.09-8.19-3.24-8.19.33l8.18,14.4C129.81,37.4,130.47,28,131.72,26.07ZM77,9.31c-5.26,0-9.11-3.8-13.58-5.18-.73,2.25-3.22,3.8-4.28,5.72,1.57-.52,4-1.15,5.21.45,1.51,2-.94,3.13-1.27,5.18,2.17.5,4.57.86,6.5,2l8.18,1C77.25,15.44,73.35,12.1,77,9.31ZM44.8,143l.54.51A1.17,1.17,0,0,0,44.8,143Zm83.05-5.76c.05-1-.18-2.09,0-3.11a131.33,131.33,0,0,0-8.23,10.9c2.22-2.08,5-2,7.64-3.07,4.12-1.58,3.7-2.79,6.49.78,0-2.45.35-5.28,1.62-7.42l1.3-.65C133.82,133.8,130.81,137.79,127.85,137.22ZM43.38,72.89c1.14.73,2.42,2.64,3.6,2.24s1.93-4.11,2-5.27V63c-1.95,2.19-4.22,5.78-7.2,6.85s-5.73-.43-8.39-1.33c.54,1.88,1,4,1.59,5.9C38.37,72.76,39.88,70.65,43.38,72.89Zm5.56,28.62c-.76-.14-2.9,1.58-3.93,1.74s-2.26-.29-3.27-.19c-6.12.57-9.23,3.33-14.35-2a21.39,21.39,0,0,0,1.19,9.35c-2,3.31-5.24,5-9,5.86-4.88,1.06-3.67-1.25-6.87-3.15-2.35-1.39-3.84,1.73-5.66,1-1.25-.52-1-3.14-.37-5.28-4.1,4.34-5.51,10.79-5.51,10.79a10.41,10.41,0,0,1,3.57,3.3c2.62-1.22,4.39-3.51,7.58-4.05,5-.86,12.48-.68,16.6,2.7.24-3.29.65-7.69,0-10.91,3.38-2.17,5.21-1.41,8.62-1.74,2.3-.23,6.32-2.74,6.87,1.86l4.58-.65C50.6,109.51,51.5,102,48.94,101.51ZM13.66,145.22c-1.53-1.17-1.45-2.48-3.4-2.65-1.51-.13-2.76,1.42-4.46,1.22A13.33,13.33,0,0,1,5.2,139c-1.82,3.71-3.25,6.73-3.8,7.89a25.3,25.3,0,0,1,8.66.5A82.54,82.54,0,0,1,27,152.21c-.1-3-.94-6.07-1.35-9C23.55,147.22,17.18,147.9,13.66,145.22Zm21.59-7.59c.49,2.13,1.08,5.19.34,7.14.69-2.48,7.18-2.92,9.21-1.79l-4.7-4.4A7.22,7.22,0,0,1,35.25,137.63Zm-21.95-74c1.48-.76,7.07-4.07,6.58,0,5.42-5.26,10.72-2,12.77,4.13,1.59-4.18,3.72-9.83,4.12-14.21-2.79,2.65-6,5-10.12,5.21-3.83.17-4-1.26-6.59-3-2.23-1.47-3.21.29-4.91-.53s-1.89-5.95-2.21-7.62a41.27,41.27,0,0,0-1.86,17A20.69,20.69,0,0,0,13.3,63.64Z"/><path class="cls-3" d="M116,9.32l2-1.16C108.83,6.6,99.66,9.65,99.66,9.65l-.22-.23-2.07,2.85s10.14-2.95,12.11-2.95ZM82,9a66.14,66.14,0,0,0,8.18,1.3s-3.27-2-3.6-4.25A22,22,0,0,0,85.09.66c-.52-.12-.81-.17-.81-.17C84,4.41,81,7.36,76.75,5.07,73.58,3.36,68,1.83,65.43,1.17l2.49,1.28S80,8.34,82,9ZM25.71,45.32c1-2.29-.33-10.15-.33-10.15a35,35,0,0,1-.78-8.4c-1,.73-1.51,1.21-1.51,1.21s-1,7.52.65,12.43c1.36,4.07-1.33,8.14-3.41,8.66l.47.5S24.72,47.61,25.71,45.32ZM164.12,82s0,.65-3.93,7.52,0,8.51,0,8.51l.58-.29a9.43,9.43,0,0,1,.73-6.58c2-3.93,5.24-9.82,5.24-9.82,0-2.15-4.67-5-7.35-7ZM127.47,16.52c4.91,1.31,11.78,7.53,11.78,7.53l-1,3.27a28.1,28.1,0,0,0,6.57,3.16c-1.22-1.19-2.17-2.12-2.64-2.5-2-1.64,1-4.26,1-4.26a30.51,30.51,0,0,0-10.47-6.54,21.05,21.05,0,0,0-6.09-1.09A1.45,1.45,0,0,0,127.47,16.52ZM154,60c-2.62,4.91.65,9.82.65,9.82l.2-.26a5.12,5.12,0,0,1-.52-1c-1.64-4.58,3.92-9.49,5.56-13.74s-1.64-13.75-1.64-13.75c-1.5-.13-4.21-2.16-7-4.59A76.56,76.56,0,0,1,156.6,45C157.9,47.94,156.6,55.14,154,60Zm.33,62.18c.32-1.64-4.26-10.48-5.89-14.73-1.06-2.75-5.4-3.72-8.69-3.89,1.28-6.53,3.45-17.38,3.45-17.38s1.64-18,1-19.63-2.94-13.42-4.91-17-2.62-9.16-7.85-13.41.33-8.51-7.85-8.18c-1.75.06-3.14.05-4.3,0,1.88-1.88,2.61-4.16,1-6.87-5.56-9.49-20.94-4.58-20.94-4.58C91.15,12.6,82,13.25,82,13.25L83.3,37.14s10.1-1.31,15.46-2c-3.1,2.88-5.69,6-6.63,7.84-2,3.92-4.25,13.74-5.23,17.67s1,60.86,1,60.86,5.89,22.58,6.22,23.56,5.23,10.15,5.23,10.15l4.84,1.39A24.18,24.18,0,0,0,109,163l-6.66,7.22,14.33,1.44c7-1.91,20.69-2,29.49-1.88a48.07,48.07,0,0,0,3.24-7c1-2.29-.66-10.14-1-11.12s-2-5.24-2-6.55,3.93-10.47,3.93-10.47S154,123.85,154.31,122.22Zm-14.4,24.86c2,1.64,2,9.82-.66,12.11s-11.12-2.29-11.12-2.29A13.31,13.31,0,0,0,117,154.28l-.17.2a41.07,41.07,0,0,1-.44-9.24c1.7-1.42,3.89-3.58,6.5-8.63,3.07-5.91,8.93-15.21,12.66-21.78a75.48,75.48,0,0,1,6.32,5.1c2,2,2.95,5.23-2,13.74S137.94,145.45,139.91,147.08ZM162.78,99.4l0,.24c1,4.9,2,10.14-2.94,17-3.86,5.41-3.27,9.19-2.84,10.56a4.91,4.91,0,0,1-.11-1.39c.33-4.59,7.2-8.51,9.17-14.4s-3-12.11-3-12.11A1.27,1.27,0,0,1,162.78,99.4Zm-.33,39c-2.22,1.59-6.12,4.86-8.14,9.37-2.95,6.54.65,10.14,2,12.11s-3,6.87-3,6.87l-1,3.19,2,.08c5.23-3.27,5.56-10.47,5.56-10.47-4.58-2-5.89-8.18-3.6-12.76C158,143.38,161.07,140.72,162.45,138.37ZM75.77,12.92c-2,0-5.89,3.6-9.16,2.95s-8.51,1-10.47,2.94-4.26,5.57-11.78,8.51A62.13,62.13,0,0,0,30.29,35.5c-1.64,11.13,1.63,15.71,2.62,19s-9.17,15.71-9.17,15.71c-2,9.81.66,10.14,2,12.43s-4.59,9.49-4.59,9.49c-2.61,6.55,0,14.4,0,14.4S26,112.4,24.4,116.65s-6.87,6.55-6.87,6.55l2.82,2.41c-1.74-1-4.13-2.09-4.13-2.09l-.66,1.31s.66,12.44,1.31,16,5.24,8.83,2.62,11.12a67.73,67.73,0,0,0-5.37,5.69c-3-4.74-11-10.44-12.41-11.43l-.55,1.16s4.26,6.22,8.18,11.46S.51,172,.51,172s12,.77,19.5-.18A11.82,11.82,0,0,1,22.43,169c2.29-1.64,8.51-16.69,9.17-19.31,1,4.58-2,10.15-4.91,14.07-2.37,3.16-3.05,4.63-2.88,7.3a89.06,89.06,0,0,1,14.25-1.38c-.13-3.11-.16-11.19,2.7-16.39,0,0,2.29-5.23-.66-8.83s-11.78-9.82-10.47-13.75,5.57-5.23,4.91-9.49-7.2-15.38-2.29-19,10.8-10.8,10.8-10.8a134,134,0,0,1-5.89-14.73c-2.29-7.2,2.29-13.41,3.27-15.71a52.31,52.31,0,0,0,2-7.85,86.18,86.18,0,0,1,4.26,12.76C48,71.82,44,83,44,83l.65,10.47s3.93,6.87,3,9.16-9.82,10.8-10.47,26.18c0,0,6.54,11.78,6.54,16.36s-2.61,16.69-2.61,16.69l.92,7.68.06.5,19.31-1.51c1.41-.76,2.69-1.49,3.59-2.09,3.93-2.62,8.84-21.92,8.51-28.47s0-52,0-52S68.9,74.44,66,69.21,55.16,45.32,55.16,42.37a9.26,9.26,0,0,0-1.08-4.43,85.86,85.86,0,0,1,7-6.69c2-1.31,15.38-14.07,17-15S77.73,12.92,75.77,12.92ZM25.49,96.36a7.51,7.51,0,0,0,.22,2c.32,1,1,6.21,1,6.21-1.31,0-1.64-7.52-1.64-7.52Zm.87,29.13c-1,1-3.6,2.29-3.6,4.25a15.68,15.68,0,0,0,.57,3.31c-.46-.58-1.25-1.47-2.16-2.44a21.08,21.08,0,0,0,.94-3.49,5.72,5.72,0,0,0,2.61-1,22.24,22.24,0,0,0,3.72-3.21A22.81,22.81,0,0,1,26.36,125.49Zm4.63-9.7a14.77,14.77,0,0,1-1-3.39,9.31,9.31,0,0,0-.33-2.06c.14.29.25.55.33.75A17.64,17.64,0,0,1,31,115.79ZM34.54,62l-1,1.31,1.58-3.16Zm2.29-17.35a12.56,12.56,0,0,1,.67-2.56c.07,2.84.31,9.76.31,9.76S36.83,45.64,36.83,44.66ZM38.24,40l.23-.61.53.26A4.46,4.46,0,0,0,38.24,40ZM8.69,96c2.58.59,3.47,3.24,2.68,6.18l.92,0s.33-5.24-.65-6.88-7.2-2.29-6.55-4.9a62.06,62.06,0,0,1,3.14-7.85c-.66.84-1.38,1.7-2.16,2.61C.18,92.11,4.44,95.06,8.69,96ZM7.07,134.87l1,.43s1.3-8.5.65-10.79S4.11,118,4.11,118a22,22,0,0,1-.3-5.16,28.39,28.39,0,0,0-2.65,6.8C5.61,122,8.71,129.16,7.07,134.87Zm13.4-71.55-5.56,5.56C11.64,64,13.27,48.26,13.27,48.26l-.73.55c-2,6.33-2.4,16.1-.25,20.4,1.81,3.61.56,7.22-2.93,12C13.21,77.84,20.47,63.32,20.47,63.32Z"/><path class="cls-4" d="M63.66,15.87S62,14.23,58.43,20.12,51.56,27,42.72,29.61s-12.43,5.56-12.43,5.56,1.63,11.46,4.91,15.38S34.87,58.08,31.27,62s-7.2,8.18-7.2,8.18C23.74,75.1,28.65,80,28.65,83.6s-7.53,8.18-7.53,8.18.66,10.15,4.91,16,.66,7.85-1.31,12.43-8.18,3.27-8.18,3.27.66,14.08,3.28,18.33,4.9,5.89,5.23,9.82-6.22,5.89-6.22,5.89a33.65,33.65,0,0,0-5.56,7.85A29.94,29.94,0,0,1,8,172.23c4.91.07,11.09,0,14.79-.93a60.64,60.64,0,0,1,8.4-1.24c.09-8.52,9.27-20.36,9.27-20.36.33-7.85-8.51-9.49-12.43-12.1s-1.31-10.48-1.31-10.48c11.45-1.63,4.91-16,1.31-22.9S30,96,36.5,92.11s2-8.83-2.94-14.4-.65-9.49,2.94-15S40.1,50.88,39.78,47s5.56-6.54,5.56-6.54L68.9,29.61s6.54-10.14,4.25-12.43S63.66,15.87,63.66,15.87ZM151,145.78c3.28-3.28,8.84-8.84,7.2-11.78s-3.92-9.17-2.94-13.09,2.61-10.47-2-14.4S149.4,91.13,149.72,83s-2.94-34-12.1-45.81S115,11,99.33,18.81,88.21,46,88.21,46l18.32-9.16s2.29-1.31,5.56-5.56,10.47,1.63,16,5.56S141.22,66.59,140.56,83s-4.91,18.32-2.94,26.5c0,0,4.25,6.22,8.18,9.17s3.6,9.81-2.62,13.74-5.56,8.83-5.56,8.83,8.5,4.26,8.18,10.8,1,12.77-6.87,10.8-10.48-1.31-10.48-1.31l-1.63,4.58s-8.18-1.63-8.84-4.58,2-5.89,4.91-4.58,1.64,4.91,1.64,4.91h-3.27s3.92,2.29,4.58.65c0,0,.32-5.23-1-6.21s-7.52-3.27-8.83-2-3,7.86-2.62,9.17c.21.83,4.23,4.68,7.14,7.39,12-1.85,32.69-.9,33.72-.85-.17-2.43-.9-11-2.57-13.74C149.72,153,147.76,149.05,151,145.78Z"/><path class="cls-5" d="M27.94,117.14a4.63,4.63,0,0,0-1-1,42.8,42.8,0,0,0-2.24,4.08,4.09,4.09,0,0,1-.34.66c2.95.45,5.91,1.51,7.53,3.41a7.77,7.77,0,0,0,1.23-4.66,6.17,6.17,0,0,1-1.28.18C29.16,119.91,29.27,118.74,27.94,117.14ZM147.39,85.61a5.74,5.74,0,0,1,2.2.61c0-1.13.09-2.23.13-3.27,0-.26,0-.53,0-.82-1.16-.65-1.4-1.74-3.39-1.15-1.62.48-3,2.89-4.58,2.81a2.39,2.39,0,0,1-1.22-.49c-.07,1.55-.17,3-.3,4.28C142.79,86.3,145.51,85.46,147.39,85.61ZM34.9,146c-1.87.25-3.71-.94-5.49-.56-1.42.3-2.18,2.34-3.47,2.58a4,4,0,0,1-2.34-.6,9.2,9.2,0,0,1,1.45,4.3,3.34,3.34,0,0,1-.38,1.86,39.14,39.14,0,0,1,8.44-1.92,31.58,31.58,0,0,1,6-.1c.79-1.13,1.31-1.81,1.31-1.81a7.89,7.89,0,0,0-1.73-5.49A8.46,8.46,0,0,1,34.9,146ZM31.1,90.41A11.91,11.91,0,0,1,36.75,92C41.37,89,40,85.58,37,81.72a8.81,8.81,0,0,0-4.26.61c-2.41,1.37-1.82,5.59-4.89,5.86a3.32,3.32,0,0,1-1.64-.34,28.09,28.09,0,0,1-3.66,3,11.57,11.57,0,0,1,2.31-.5A50.3,50.3,0,0,1,31.1,90.41Zm7-50.65c-3.33-1.44-3.21-4.43-2.74-7.46a25.46,25.46,0,0,0-5.11,2.87,68.71,68.71,0,0,0,2,9.16,48.92,48.92,0,0,0,5.22-.92,5,5,0,0,1,3.35.32,13.4,13.4,0,0,1,4.45-3.32l2.53-1.16C44.5,40.32,40.8,40.92,38.14,39.76Zm105.23,76.71a18.69,18.69,0,0,1,4.93-2.29,17.54,17.54,0,0,1,8.08.27,9.72,9.72,0,0,0-2.43-7.34,21.12,21.12,0,0,1-4.08,1.8c-3.12,1-3.75-.33-6.54-.94-1.79-.39-2.88.88-4.67.3a5.87,5.87,0,0,1-1.4-.69,18.5,18.5,0,0,0,.36,1.87A57.47,57.47,0,0,0,143.37,116.47ZM123,23.35a2.39,2.39,0,0,1,.48-1c-4.63-3.48-9.73-5.84-15.2-5.8a9.92,9.92,0,0,1,2.13,2c1.66,2.07,4.24,2.37,6.06,4.36,4.57,5-4.62,5.05-4.7,8.7l.32-.41c2.26-2.93,6.37-1.05,10.53,1.68a.49.49,0,0,1,0-.12,14.17,14.17,0,0,1,.21-4.36c.15-.55.84-1.27.85-1.78C123.69,25.36,122.67,24.63,123,23.35Zm26.22,115.89c-1.62-.82-2.16-2.76-3.53-3.51-1.54-.84-3.39.47-5,.86a4,4,0,0,1-.16-2.14c-3.37,3.38-2.92,6.74-2.92,6.74s.63.32,1.54.91c3.14.09,6,0,7,.13,2.3.28,4.91.36,7.1,1.3a41.4,41.4,0,0,0,3.21-3.73C153.77,140.23,151,140.14,149.22,139.24Z"/><path class="cls-6" d="M132.07,169.66c-8.24-2-15.22-4.58-19-12.76-6-13.09-3.17-25.52-3.17-39.26H62c0,13.74,2.85,26.17-3.17,39.26-3.81,8.18-10.79,10.8-19,12.76h.63c14,0,27.27,4.69,40.92,5.89,26,2.29,32.67-4.58,51.38-5.56Z"/><path class="cls-7" d="M106.2,36.7s1.31-15.92-10-17.45c0,0-18.33.22-21.82,23.34Z"/><path class="cls-8" d="M84.2,38a14,14,0,0,0-3.91-2.73,8.55,8.55,0,0,0-8.57.3s0,.08,0,.06c2.63-1.64,5.85-1.17,8.5.14a14.15,14.15,0,0,1,3.58,2.6,15.07,15.07,0,0,1,2.3,3.25.26.26,0,0,0,.47-.2A9.09,9.09,0,0,0,84.2,38Zm1-9c-4-2.91-9.26-4.35-13.93-2.33,0,0,0,0,0,0,4.67-2,9.88-.3,13.79,2.55a19.42,19.42,0,0,1,5.08,5.49,16,16,0,0,1,1.47,3.13,19.14,19.14,0,0,1,.66,3.27c0,.19.31.13.32,0,.11-2.25-1-4.65-2.16-6.52A19.76,19.76,0,0,0,85.23,29Zm5.67-.08c-2.37-3.31-6-6.36-10.22-6.64-.05,0-.05.06,0,.07,4.16.54,7.61,3.69,9.92,7a19.48,19.48,0,0,1,2.75,5.74,15.12,15.12,0,0,1,.39,5.76c0,.28.41.32.48.06a10.94,10.94,0,0,0-.32-6A19.58,19.58,0,0,0,90.9,28.91Zm7,.66a18.45,18.45,0,0,0-4.38-6.29A18.71,18.71,0,0,0,86.36,19s-.06.05,0,.06a19.83,19.83,0,0,1,6.79,4.27,17.87,17.87,0,0,1,4.38,6.35,26.55,26.55,0,0,1,1.4,6c.2,1.6.5,3.85-.53,5.24-.16.22.17.42.34.27,1.26-1.09.87-3.69.71-5.11A27.18,27.18,0,0,0,97.9,29.57ZM93,18.76c-.08-.07-.19,0-.11.11,3.7,3.27,6.52,7.05,7.74,11.9a23.53,23.53,0,0,1,.6,5.09,14.12,14.12,0,0,1-.13,2.68c-.07.43-.21,1.23-.61,1.49-.17.11-.07.42.14.34,1.23-.44,1.14-2.53,1.16-3.58a25.53,25.53,0,0,0-.56-5.78A21.48,21.48,0,0,0,93,18.76Zm10.73,10.36c-.48-3.29-1.89-6.64-4.86-8.4-.08,0-.14.07-.07.12,2.91,1.95,4.12,5.41,4.53,8.75A30,30,0,0,1,102.7,39a.24.24,0,0,0,.46.13A23.69,23.69,0,0,0,103.68,29.12Zm.19-2.49c-.05-.09-.18,0-.14.08a14,14,0,0,1,1.18,6.81,20.58,20.58,0,0,1-.42,3.59c-.2,1-.6,1.87-.82,2.83,0,.16.16.23.26.1a7.67,7.67,0,0,0,1-2.82,21,21,0,0,0,.42-3.7A13.21,13.21,0,0,0,103.87,26.63ZM85.78,32.71c-2.76-2-6.66-3.75-10.12-2.78,0,0,0,0,0,0,3.4-.78,7.1.94,9.83,2.83,2.93,2,5.38,4.87,5.76,8.5a.11.11,0,1,0,.22,0,7.54,7.54,0,0,0-1.58-4.51A16.56,16.56,0,0,0,85.78,32.71Zm-7.4,6.17a8.81,8.81,0,0,0-6,.34c-.14.06,0,.26.12.2a8.86,8.86,0,0,1,5.82-.15,9.83,9.83,0,0,1,2.61,1.2,11.11,11.11,0,0,1,2.06,2.05c.13.14.41,0,.34-.2C82.55,40.48,80.15,39.37,78.38,38.88Z"/><path class="cls-9" d="M136.63,89a15.5,15.5,0,0,1-.32-7.85,39.79,39.79,0,0,0-.66-13.25c-.81-3.44-3.43-23.07-13.9-29,0,0-25.2-7.53-45.81,2L58.43,57.1,53.19,67.24,54.5,83.6S52.87,95.71,52.87,100s4.41,12.77,4.41,12.77c1,1.47,1.31,3.1,2.29,4.58,0,0,10,17.18,24.22,25.85s27.32,5.56,33.87-3.6S136.31,108.47,137.13,96A33.33,33.33,0,0,0,136.63,89Z"/><path class="cls-10" d="M65.19,66.37A72.22,72.22,0,0,1,69.34,55.9c2-3.49,0-16.8,32.5-16.58,0,0,15,0,19.42,2.4,0,0,9.49,8,11.26,25.1,0,.28,0,.57.08.86C134.13,85.35,111.44,71,111.44,71L90.71,72Z"/><path class="cls-11" d="M101.62,108.14c-7.05,0-12.76,5.13-12.76,11.46s5.71,11.45,12.76,11.45,12.76-5.13,12.76-11.45S108.67,108.14,101.62,108.14Z"/><path class="cls-12" d="M136.63,89a15.5,15.5,0,0,1-.32-7.85l0-.21A29.1,29.1,0,0,0,123.46,92c-7.12,10.83-6.7,23.68.94,28.7a11.92,11.92,0,0,0,3.52,1.56c4.65-9.09,8.74-19.19,9.21-26.24A33.33,33.33,0,0,0,136.63,89Z"/><path class="cls-13" d="M73,123.05c8.55-3.25,11.74-15.7,7.15-27.81S64.86,75.93,56.32,79.17a12,12,0,0,0-2.09,1l.27,3.39S52.87,95.71,52.87,100s4.41,12.77,4.41,12.77c1,1.47,1.31,3.1,2.29,4.58,0,0,1.26,2.17,3.53,5.35A13.27,13.27,0,0,0,73,123.05Z"/><path class="cls-14" d="M121.75,38.94s-25.2-7.53-45.81,2L58.43,57.1,53.19,67.24,54.5,83.6S52.87,95.71,52.87,100s4.41,12.77,4.41,12.77c1,1.47,1.31,3.1,2.29,4.58a94.51,94.51,0,0,0,10.4,14c-1.62-4.09-6.27-16.15-7.62-23.14,0,0-2.61-13.41-1-25.52,0,0-4.58-11.12,1.64-17.67A74.8,74.8,0,0,1,76.1,54.15s-2-10.47,4.25-13.74c0,0,20.94-5.89,42.21,0,0,0,10.8,12.43,12.11,28.47l1.61,2.74a32.13,32.13,0,0,0-.63-3.72C134.84,64.46,132.22,44.83,121.75,38.94Z"/><path class="cls-15" d="M62.85,81.64S57.28,71.5,66,65.93c0,0,9.49-3.6,16-.81a49.71,49.71,0,0,1,10.63,6s2.46,11.12-2,15l-11.29.33s-8-1.64-8.51-1.64-4.09-.49-4.09-.49l-2.45-.82Z"/><path class="cls-16" d="M110.46,86.22s-2.46-10.14.65-15l4.75-4.75,5.56-2.29h4.42l3.27.66,2.62,1.31,3.11,2.61s2.61,13.09-4.26,15.87-16.85,1.64-16.85,1.64Z"/><path class="cls-17" d="M89.84,109.78s1.47-1.31,4.91-1,4.91,2.78,9,2.29,5.07-2.29,5.07-2.29,3.27-1.15,4.25.65c0,0-1.3,2.62-2.12,3a10.46,10.46,0,0,1-9.16,4.58c-6.38-.17-9.49-2.13-11.13-4.75A5.63,5.63,0,0,1,89.84,109.78Z"/><path class="cls-18" d="M105.06,109s-6.87,1.55-6.94-6.83-.75-14.73-.75-14.73l9-1.77s.14,10.51,1.39,14.66S110.21,108.08,105.06,109Z"/><path class="cls-9" d="M96.71,100.62s6.88-3.77,11.78,0l.17-1.31s-5.07-3.44-12.44.33Z"/><path class="cls-19" d="M93.57,105c-1.18-3-4.06,2.46-3.36,2.88C91.85,108.88,94.18,106.6,93.57,105Z"/><path class="cls-20" d="M113,108.36c-1.85-.1-1.94-3.44-2.17-4.79,1.59.63,2,3,2.28,4.36Z"/><path d="M97.86,111.66a12.37,12.37,0,0,0-4.17-1.06C94.59,113,97.86,111.66,97.86,111.66Zm11-1-1.22,1-.49.41c2.69.16,2.86-1.47,2.86-1.47Z"/><path class="cls-21" d="M89.73,109.87A9,9,0,0,1,91,105.06a0,0,0,0,0-.07,0c-.89,1.43-1.88,3.33-1.62,5.07.3,2,2,2.66,3.78,3a0,0,0,0,0,0,0C91.43,112.71,89.92,111.69,89.73,109.87Zm6.13.8a6.68,6.68,0,0,0-4.39.07s0,.05,0,0a7.48,7.48,0,0,1,4.29.24,22.4,22.4,0,0,1,3.84,2,.1.1,0,0,0,.12-.16A9.14,9.14,0,0,0,95.86,110.67Zm15.44.06a3,3,0,0,0-3,0A8.08,8.08,0,0,0,109,109s-.06-.08-.08,0a7.68,7.68,0,0,1-3.4,3.88,8,8,0,0,1-5.55.34.06.06,0,0,0,0,.11,8.32,8.32,0,0,0,5.59-.07,5.52,5.52,0,0,0,2.14-1.65l0,0a7.91,7.91,0,0,1,1.47-.77,3.27,3.27,0,0,1,2.05,0S111.33,110.75,111.3,110.73Zm1.19-5.9c0-.07-.17,0-.14.06a10.54,10.54,0,0,1,.58,3.56,5.14,5.14,0,0,1-2.16,3.75s0,.09,0,.07a4.91,4.91,0,0,0,2.46-3.36A6.19,6.19,0,0,0,112.49,104.83Z"/><path class="cls-22" d="M57.24,112.75c.93,1.47,1.44,3.15,2.32,4.64l.67,1.1c1.17,1.86,2.42,3.67,3.72,5.45a81,81,0,0,0,15,15.91c6.64,5.22,14.9,9.14,23.53,8.39a21.26,21.26,0,0,0,9.9-3.44,24.13,24.13,0,0,0,6.51-6.88,149.79,149.79,0,0,0,10.52-18.43c3.14-6.45,6.12-13.26,7.41-20.35a28.36,28.36,0,0,0,.19-8.43c-.21-1.79-.79-3.52-.94-5.33a33.22,33.22,0,0,1,.52-5.71c.54-5.62-.66-11.19-1.83-16.66-1.23-5.79-2.93-11.64-6-16.77A21.1,21.1,0,0,0,123,39.62a8,8,0,0,0-3.16-1.27,84.82,84.82,0,0,0-16.93-2.28,61.16,61.16,0,0,0-25,3.9c-.68.27-1.36.57-2,.88-.07,0,0,.14.07.1,8-3.66,17-4.91,25.75-4.75a84.43,84.43,0,0,1,17.77,2.24,9,9,0,0,1,3.27,1.22,21,21,0,0,1,6.18,7.15c3,5.19,4.59,11.11,5.8,16.92s2.45,11.77,1.45,17.71a15.69,15.69,0,0,0-.15,5.07c.32,2,.83,3.92,1,5.95a28.86,28.86,0,0,1-.67,8.29c-1.63,7.33-4.84,14.33-8.21,21a139.55,139.55,0,0,1-10.35,17.53,21.49,21.49,0,0,1-19.84,8.82c-9.06-.8-17.06-6.21-23.5-12.31A89.1,89.1,0,0,1,62.8,122.14c-.94-1.34-1.85-2.7-2.71-4.08l-.46-.76c-.87-1.48-1.37-3.15-2.3-4.6,0-.06-.13,0-.09,0Z"/><path class="cls-23" d="M81.26,124.69s5.49,4.19,7.91,6.36A15.45,15.45,0,0,0,101,135.34c5.73-.39,8.88-2.3,10.06-4.4s6.18-7.59,6.18-7.59-5.74,1.05-6.23,1-8.51,0-9.17.17Z"/><path class="cls-24" d="M111.05,124.39c-.49,0-8.51,0-9.17.17l-20.62.13s2.95,2.25,5.48,4.31c2.39-.28,17.78-2,26-.65l.17,0c1.88-2.33,4.33-5,4.33-5S111.54,124.4,111.05,124.39Zm-19.9,8.24a15,15,0,0,0,9.89,2.71c5.73-.39,8.88-2.3,10.06-4.4a29.59,29.59,0,0,1-8.89,3.11C97.67,134.85,92.27,133,91.15,132.63Z"/><path class="cls-25" d="M90.66,129.76s12.31-2.24,19.81-.47l-1,1.78s-6,3.82-16.39,1.52Z"/><path class="cls-24" d="M118,122.38c-1.49.79-3,1.75-4.75-.08a9.47,9.47,0,0,0-6.5-2.41c-1.48.14-4.29,2.06-4.29,2.06a10,10,0,0,0-6.19-1.58c-4.1.09-11.52,3.4-13.81,3.52s-5-2-5-2c5,6.14,14.17,3.85,21,4.29l.46,0,.35.32c1.14.51,2.44.53,3.58,1a5.52,5.52,0,0,0,2.54-.94h.1c3.3-1.74,5.24-.23,7.87-1.17a11.87,11.87,0,0,0,7.29-5.28A10,10,0,0,1,118,122.38Z"/><path class="cls-26" d="M102.91,126.85a9.55,9.55,0,0,0-1.75-.49,9,9,0,0,1-1.57-.44l-.28-.25a.71.71,0,0,0-.39-.16l-.46,0c-.67,0-1.4-.06-2.24-.06-1,0-2.09,0-3.13.06H93c-1.06,0-2.16.06-3.26.06a21.86,21.86,0,0,1-7.41-1h.1a26.26,26.26,0,0,0,5.07-1.38c2.86-.93,6.42-2.09,8.72-2.15h.31a9.46,9.46,0,0,1,5.46,1.44.62.62,0,0,0,.41.14.66.66,0,0,0,.36-.11,13,13,0,0,1,4-1.94l.33,0a8.89,8.89,0,0,1,5.64,2.22,3.54,3.54,0,0,0,2.52,1.25,13.63,13.63,0,0,1-2.11.78h-.05a5.56,5.56,0,0,1-1.94.3l-1,0c-.35,0-.7,0-1.07,0a8,8,0,0,0-3.82.89.68.68,0,0,0-.32.11,4.82,4.82,0,0,1-2.07.82Z"/><path class="cls-27" d="M98.42,126c-7-.75-15.71,2-21-4.17,0,0-.09,0-.06.06,2.3,2.91,5.93,4.08,9.5,4.46,3.82.41,7.72-.11,11.56,0A.15.15,0,0,0,98.42,126Zm22.12-5.88a12.18,12.18,0,0,1-3.18,3.26,11.91,11.91,0,0,1-8,2.12,6.86,6.86,0,0,0-3.15.7,3.66,3.66,0,0,0,.51-.68c0-.07,0-.17-.11-.12a9.07,9.07,0,0,1-3.33,1.83,3.63,3.63,0,0,1-1.78-.18,16.87,16.87,0,0,1-2.22-.59s-.06,0,0,.07a14.32,14.32,0,0,0,2.48.71c.76.19,1.14.58,1.9.41a5,5,0,0,0,2.32-1.21,11.18,11.18,0,0,1,4.23-.49,10.22,10.22,0,0,0,3.88-.53c2.6-.85,5.49-2.63,6.65-5.22A.08.08,0,0,0,120.54,120.1Z"/><path class="cls-28" d="M61.48,69.42a19.43,19.43,0,0,1,10-4.14c6.11-.66,13.09,2.4,15.49,4.36a18.9,18.9,0,0,0,5.67,1.53s-2-4.8-3.49-5.67S72.39,57.21,61.48,69.42Z"/><path class="cls-29" d="M135.22,69.42a13.84,13.84,0,0,0-7.79-4.14c-4.74-.66-10.16,2.4-12,4.36,0,0-2.71,1.53-4.41,1.53,0,0,1.53-4.8,2.71-5.67S126.75,57.21,135.22,69.42Z"/><path class="cls-30" d="M41.63,164.54s7.42,5.23,12.44,6.54,12,3.49,14.83.44,2.62-1.31,2.84-3.06-4.15-5.45-6.33-5.23a2,2,0,0,0-2,2.18s.43-2,2.18-1.09,4.36,3.49,3.05,4.8-5.89,2.4-9.6.87-9.38-6.11-6.76-9.16,7-8.73,7.2-14c0,0-6.33-6.11-13.09-7.64,0,0,2.62-11.78,7.85-17.45s7.2-10,7.64-13.09-9.16-7.2-6.11-13.52,5.67-11.57,5.24-13.31-6.55-11.56.43-17.45S73.92,54.15,74.35,52.84s2-16.58,6.55-23.56,12.65-11.12,17-9.16,7.2,9.38,7.2,9.38a16.91,16.91,0,0,1,1.09,5.89s1.09-4.8-.43-8.07-6.11-8.73-8.07-9.38l-9.17-3.05-2,.43.22-1.74s-9.16-1.75-12.22-.44-7.85,7.64-13.52,10.91S47.3,33.86,44.25,40c0,0,0,10,2,15.27s5.89,12.66,4.58,17S43.59,83.6,41,88.84c0,0,2.61,3.27,5.89,7s4.58,5.45,1.09,11.34-10.69,12.44-11.35,24c0,0,11.13,12.22,10.69,20.07C47.3,151.23,42.07,157.77,41.63,164.54Z"/><path class="cls-31" d="M66.68,34.77c-2.64-2.23-1.14-7.23-5.93-6.84.62-2,2-3.67,2.81-5.55a27.33,27.33,0,0,1-2.51,1.67c-5.46,3.15-13.14,9.33-16.44,15.23,3.81-2.13,7.78-3.32,12.86-2.06,4.16,1,6.22,3.41,7.74,7.12.71,1.74.58,2.47,2.05,3.27,1.08.58,3,0,4.26.58a6.32,6.32,0,0,1,3,3.72c.49-2.87,1.61-11.22,4-17.7C74.88,36.13,69.75,37.37,66.68,34.77ZM41,88.84l.64.79c5.69-1.25,12-1,15.49,2.84.88-1.81,1.67-3.49,2.32-5-2.74,1.1-5.71,1.49-7.55,0-1.34-1.1-.61-3.55-1.69-4.44s-2.93-.17-4.15-.12a10.3,10.3,0,0,1,.87-3.49A105.53,105.53,0,0,0,41,88.84Zm8.55,40.89c.49-1.15,1-2.32,1.64-3.44A3.92,3.92,0,0,1,47,124c-2.1-4.67.68-5.58-5.51-5.38a7.73,7.73,0,0,1,.2-2.24,32.49,32.49,0,0,0-4.23,9.51l.31,0a19.54,19.54,0,0,1,5.39.57C46.16,127.14,48.11,128.18,49.53,129.73Zm7.68,17.12c-3.27.67-4.39-2.43-6.65-2.33-3,.13-2.29,3.28-3.71,3.14a11.11,11.11,0,0,1,.45,3.57l-.13.17a10.07,10.07,0,0,1,6.28-2.05,6.43,6.43,0,0,1,4.84,2.44,14.3,14.3,0,0,0,1.23-4.92s-.22-.22-.63-.58A7.9,7.9,0,0,1,57.21,146.85Z"/><path class="cls-32" d="M64.65,37.87c-3.71-3.64-4.89-5.47-10.43-6A5.64,5.64,0,0,1,55,28.16a50.24,50.24,0,0,0-7.72,7.33c4.32-.48,8.54-.77,13.12,1,3.35,1.29,9,5.19,9.21,9.13a9.47,9.47,0,0,1,6-.09c.28-1.49.61-3.1,1-4.74A12.55,12.55,0,0,1,64.65,37.87ZM58,90.64l.45-1A21.91,21.91,0,0,1,50.9,88.1c-3.9-1.56-4-5-6.79-4.49-.9,1.37-1.76,2.72-2.47,4a42.08,42.08,0,0,1,8.28.92C52,89,55.43,89.45,58,90.64Zm-7.27,36.51c-2.53-.13-5.88-.7-7.36-2.05-2-1.84-2.47-4.32-4-4.7-.38.81-.74,1.64-1.06,2.51a5.71,5.71,0,0,1,1.71.35c1.68.68,2.16,2.28,3.65,3.14a7.76,7.76,0,0,0,.77.37c.38.11.73.24,1.07.37a26.34,26.34,0,0,1,4.54,1.35C50.28,128,50.5,127.6,50.72,127.15Zm4.14,20.64c-1.35-.26-3.07-2-4.33-1.86s-1.4,1.45-2.2,2.26a4.06,4.06,0,0,1-1.17.85c.05.3.09.6.11.9a12.25,12.25,0,0,1,5.92-1.55,17.07,17.07,0,0,1,5.89,1.14,12.19,12.19,0,0,0,.39-2A9.16,9.16,0,0,1,54.86,147.79Z"/><path class="cls-33" d="M45.34,154.13a24.33,24.33,0,0,0-3.71,10.41s7.42,5.23,12.44,6.54c4.17,1.09,9.7,2.78,13.08,1.56v0s-14.83-.66-23.34-8.07C43.38,161.92,43.38,160,45.34,154.13ZM57.63,91.39c-1.05,1.13-4,4.66-4,8.79,0,0-.22,4.37-5.24,10.91s-7.63,11.34-8.29,17a29.54,29.54,0,0,1,6.33-12c4.55-5,7-7.39,8.67-13,2.61,2.59,7.33,4.88,2.58,14.61,2.74-3.72,3.91-6.72,4.24-9,.43-3-9.16-7.2-6.11-13.52C56.44,93.85,57.06,92.59,57.63,91.39Zm15.2-42.47c-1.09,5-7.64,8.72-12.22,14S58,71.61,58,71.61l.17,0a9.1,9.1,0,0,1,3.32-7.25c7-5.89,12.44-10.26,12.87-11.57s2-16.58,6.55-23.56A23.8,23.8,0,0,1,90,21.09a6,6,0,0,0-.82.12C78.28,23.61,73.92,43.9,72.83,48.92Zm15.7-34-2,.43.22-1.74s-.44-.09-1.16-.2a41.42,41.42,0,0,0-8.88,10.67c-3.27,6.11-5.23,12.87-12.65,19.63S51.67,57,51.88,65.72A9.92,9.92,0,0,0,53.15,71a32.23,32.23,0,0,1-.83,3.91c-.87,3.05-4.58,7.63-4.58,7.63A17.42,17.42,0,0,0,55,73.68c1.22,2,2.42,5.27,2.81,13,0,0,1.09-7-1.52-13.09S50.14,62,58.65,51.75,71.52,38.23,73.92,33,81.33,19.47,86.13,17.5a15.79,15.79,0,0,1,7.17-1Zm-29,132s-5.63-5.44-12-7.34c2.14,1,7.38,4.32,8.68,7.12,2.61,5.67-5.68,14.62-5.68,14.62s-1.35,5.44,7.5,8.25c-3.62-1.85-8.14-5.91-5.75-8.69C54.94,157.77,59.3,152.1,59.52,146.87Z"/><path class="cls-34" d="M64.6,83.59c.91-3.77,4.4-6.16,8.85-7a18,18,0,0,1,6.12,0,13.83,13.83,0,0,1,7.19,3.83s.1,0,.06-.05a13.93,13.93,0,0,0-7.19-4,19.81,19.81,0,0,0-6.29-.12,13.16,13.16,0,0,0-5.77,2.27,7.51,7.51,0,0,0-3,5s0,0,0,0Z"/><path d="M85.88,82.46c-.91-.75-3.85-4.27-9.3-4.64a5.14,5.14,0,0,1,.19-2.14,3.73,3.73,0,0,0-.7,2.11c-.52,0-1.06,0-1.63,0a10.82,10.82,0,0,0-2.92.64A5.16,5.16,0,0,1,71,76.19a3.62,3.62,0,0,0,0,2.48,9.48,9.48,0,0,0-2.92,2,4.86,4.86,0,0,1-2.88-2.44,4.65,4.65,0,0,0,2.3,3.05A10.22,10.22,0,0,0,66,83.61a5.83,5.83,0,0,1-3.19-2,5.13,5.13,0,0,0,3,2.73c6,7.63,17.88,3.72,17.88,3.72l6.66-1.68C87.93,85.69,86.91,83.3,85.88,82.46Z"/><path class="cls-35" d="M67.44,84.8c3.41,5.42,13.66,4.11,19.12,2.43l3.88-.93c-4.33-1.69-6.61-6.18-11.85-7.11-5.69-.94-9.56,1.12-11.61,5Z"/><path class="cls-36" d="M81.39,83.54a5,5,0,0,0-1.54-3.6,8.17,8.17,0,0,0-2.1-.75,9.69,9.69,0,0,0-5.4.34,5.1,5.1,0,0,0-2,4,5.27,5.27,0,0,0,4.21,5,16.42,16.42,0,0,0,2,.11A5.32,5.32,0,0,0,81.39,83.54Z"/><path class="cls-37" d="M71,83.54a4.89,4.89,0,0,0,9.77,0A4.65,4.65,0,0,0,77,79.07a10.88,10.88,0,0,0-1.68-.1A4.71,4.71,0,0,0,71,83.54Z"/><path d="M78.75,83.54a2.89,2.89,0,1,1-2.88-2.71A2.81,2.81,0,0,1,78.75,83.54Z"/><path class="cls-38" d="M77.91,83.54a2,2,0,1,1-2-1.92A2,2,0,0,1,77.91,83.54Z"/><path class="cls-35" d="M77.05,81.29a1.18,1.18,0,1,1-1.18-1.12A1.15,1.15,0,0,1,77.05,81.29Z"/><path class="cls-35" d="M76.44,86.19a.56.56,0,0,1-.57.54.54.54,0,1,1,.57-.54Z"/><path d="M90.45,86.28c-4.4-2-6.82-6.51-12-7.33a12.61,12.61,0,0,0-7.1.78A9.33,9.33,0,0,0,67,84.23s0,0,.06,0a9.87,9.87,0,0,1,4.53-4.2A12.36,12.36,0,0,1,79,79.47c4.85,1,7,5.29,11.43,6.84C90.45,86.32,90.48,86.29,90.45,86.28Zm-14,2.4a.15.15,0,0,0-.15-.09.16.16,0,0,0-.15.08c-3.6-.15-6.92-1.2-8.72-3.87,0,0,0,0,0,0,1.74,2.79,5.09,3.84,8.74,4a.15.15,0,0,0,.15.09.16.16,0,0,0,.14-.08,33.41,33.41,0,0,0,10.11-1.55s0,0,0,0A33.17,33.17,0,0,1,76.47,88.68Z"/><path class="cls-34" d="M132.23,83.55c-.78-3.79-3.72-6.2-7.49-7a12.86,12.86,0,0,0-5.17,0,11.27,11.27,0,0,0-6.08,3.85s-.08,0,0-.05a11.45,11.45,0,0,1,6.08-4,13.8,13.8,0,0,1,5.32-.12,10.19,10.19,0,0,1,4.88,2.28,7.94,7.94,0,0,1,2.52,5.06s0,0,0,0Z"/><path d="M114.24,82.42c.77-.76,3.25-4.3,7.86-4.68a6,6,0,0,0-.16-2.15,4.3,4.3,0,0,1,.59,2.13,9.24,9.24,0,0,1,1.38,0,7.93,7.93,0,0,1,2.46.64,6.05,6.05,0,0,0,.44-2.3,4.32,4.32,0,0,1,0,2.5,8.28,8.28,0,0,1,2.47,2,4.49,4.49,0,0,0,2.43-2.45,4.67,4.67,0,0,1-1.94,3.07A11.05,11.05,0,0,1,131,83.57a5,5,0,0,0,2.69-2,4.73,4.73,0,0,1-2.5,2.75c-5.07,7.68-15.12,3.75-15.12,3.75l-5.63-1.7C112.5,85.67,113.37,83.27,114.24,82.42Z"/><path class="cls-35" d="M129.83,84.77c-2.89,5.46-11.55,4.14-16.17,2.45l-3.27-.94c3.65-1.7,5.58-6.22,10-7.16,4.81-.94,8.08,1.13,9.81,5.09Z"/><path class="cls-39" d="M125.09,83.5a5.23,5.23,0,0,0-2.74-4.58,8.37,8.37,0,0,0-2.49.2c-2.31.57-3.82,2.47-5.36,4.24,0,0,0,.1,0,.14a5.23,5.23,0,0,0,3.38,4.88,16.3,16.3,0,0,0,2.62.31A5.26,5.26,0,0,0,125.09,83.5Z"/><path class="cls-40" d="M119.79,88.14a4.63,4.63,0,0,0,.95-9.17c-.29,0-.58.09-.88.15-2,.49-3.34,1.92-4.66,3.43a4.32,4.32,0,0,0-.1,1A4.67,4.67,0,0,0,119.79,88.14Z"/><path d="M122.55,83.5a2.77,2.77,0,1,1-2.76-2.73A2.75,2.75,0,0,1,122.55,83.5Z"/><path class="cls-41" d="M121.74,83.5a2,2,0,1,1-1.95-1.93A1.94,1.94,0,0,1,121.74,83.5Z"/><path class="cls-35" d="M120.92,81.23a1.14,1.14,0,1,1-1.13-1.12A1.13,1.13,0,0,1,120.92,81.23Z"/><path class="cls-35" d="M120.33,86.18a.54.54,0,0,1-.54.54.55.55,0,0,1-.55-.54.55.55,0,0,1,.55-.54A.54.54,0,0,1,120.33,86.18Z"/><path d="M110.38,86.26c3.72-2,5.76-6.55,10.18-7.37a9.07,9.07,0,0,1,6,.77,8.84,8.84,0,0,1,3.67,4.54s0,0,0,0A9.16,9.16,0,0,0,126.36,80a8.8,8.8,0,0,0-6.3-.59c-4.1,1-5.93,5.32-9.66,6.89C110.37,86.31,110.35,86.27,110.38,86.26Zm11.81,2.42a.13.13,0,0,1,.13-.09.13.13,0,0,1,.13.08c3-.16,5.84-1.21,7.37-3.9,0,0,0,0,0,0-1.48,2.81-4.31,3.87-7.39,4a.13.13,0,0,1-.13.09.14.14,0,0,1-.12-.08,24.18,24.18,0,0,1-8.54-1.56s0,0,0,0A23.89,23.89,0,0,0,122.19,88.68Z"/></g></g></svg>