<svg xmlns="http://www.w3.org/2000/svg" xmlns:xlink="http://www.w3.org/1999/xlink" viewBox="0 0 132.42 173.9"><defs><style>.cls-1{fill:url(#linear-gradient);}.cls-2{fill:url(#linear-gradient-2);}.cls-3{fill:url(#linear-gradient-3);}.cls-4{fill:url(#linear-gradient-4);}.cls-5{fill:url(#linear-gradient-5);}.cls-6{fill:url(#linear-gradient-6);}.cls-7{fill:url(#linear-gradient-7);}.cls-8{fill:url(#linear-gradient-8);}.cls-9{fill:url(#linear-gradient-9);}.cls-10{fill:url(#linear-gradient-10);}.cls-11{fill:url(#linear-gradient-11);}.cls-12{fill:#b36853;}.cls-13{fill:url(#linear-gradient-12);}.cls-14{fill:#5b2619;}.cls-15{fill:url(#linear-gradient-13);}.cls-16{fill:url(#linear-gradient-14);}.cls-17{fill:url(#linear-gradient-15);}.cls-18{fill:url(#linear-gradient-16);}.cls-19{fill:url(#linear-gradient-17);}.cls-20{fill:url(#radial-gradient);}.cls-21{fill:url(#radial-gradient-2);}.cls-22{fill:url(#linear-gradient-18);}.cls-23{fill:url(#linear-gradient-19);}.cls-24{fill:url(#radial-gradient-3);}.cls-25{fill:url(#linear-gradient-20);}.cls-26{fill:url(#linear-gradient-21);}.cls-27{fill:url(#linear-gradient-22);}.cls-28{fill:url(#linear-gradient-23);}.cls-29{fill:url(#linear-gradient-24);}.cls-30{fill:url(#linear-gradient-25);}.cls-31{fill:url(#linear-gradient-26);}.cls-32{fill:url(#linear-gradient-27);}.cls-33{fill:url(#linear-gradient-28);}.cls-34{fill:url(#linear-gradient-29);}.cls-35{fill:url(#linear-gradient-30);}.cls-36{fill:url(#linear-gradient-31);}.cls-37{fill:url(#linear-gradient-32);}.cls-38{fill:url(#linear-gradient-33);}.cls-39{fill:url(#linear-gradient-34);}.cls-40{fill:#90362b;}.cls-41{fill:#7b2924;}.cls-42{fill:url(#radial-gradient-4);}.cls-43{fill:#330f0c;}.cls-44{fill:#40404e;}.cls-45{fill:#a9bbca;}.cls-46{fill:#d4ffff;}.cls-47{fill:url(#linear-gradient-35);}.cls-48{fill:url(#linear-gradient-36);}.cls-49{fill:url(#linear-gradient-37);}.cls-50{fill:url(#linear-gradient-38);}.cls-51{fill:#fff;}.cls-52{fill:url(#linear-gradient-39);}.cls-53{fill:url(#linear-gradient-40);}.cls-54{fill:url(#linear-gradient-41);}.cls-55{fill:url(#linear-gradient-42);}.cls-56{fill:url(#linear-gradient-43);}.cls-57{fill:url(#linear-gradient-44);}</style><linearGradient id="linear-gradient" x1="60.62" y1="39.58" x2="60.62" y2="6.21" gradientUnits="userSpaceOnUse"><stop offset="0"/><stop offset="1" stop-color="#162329"/></linearGradient><linearGradient id="linear-gradient-2" x1="60.82" y1="46.67" x2="60.82" y2="10.46" gradientUnits="userSpaceOnUse"><stop offset="0" stop-color="#1a2533"/><stop offset="1" stop-color="#30445d"/></linearGradient><linearGradient id="linear-gradient-3" x1="60.75" y1="39.46" x2="60.75" y2="6.1" xlink:href="#linear-gradient"/><linearGradient id="linear-gradient-4" x1="38.52" y1="46.06" x2="33.5" y2="39.73" xlink:href="#linear-gradient"/><linearGradient id="linear-gradient-5" x1="107.71" y1="38.14" x2="110.76" y2="33.56" xlink:href="#linear-gradient"/><linearGradient id="linear-gradient-6" x1="39.42" y1="39.09" x2="39.42" y2="26.79" xlink:href="#linear-gradient-2"/><linearGradient id="linear-gradient-7" x1="109.21" y1="34.66" x2="109.21" y2="29.59" xlink:href="#linear-gradient-2"/><linearGradient id="linear-gradient-8" x1="37.2" y1="47.37" x2="33.21" y2="42.34" xlink:href="#linear-gradient"/><linearGradient id="linear-gradient-9" x1="36.04" y1="45.9" x2="31.77" y2="40.5" xlink:href="#linear-gradient"/><linearGradient id="linear-gradient-10" x1="107.58" y1="36.9" x2="110.43" y2="32.62" xlink:href="#linear-gradient"/><linearGradient id="linear-gradient-11" x1="109.74" y1="37.6" x2="112.5" y2="33.46" xlink:href="#linear-gradient"/><linearGradient id="linear-gradient-12" x1="99.93" y1="105.43" x2="120.1" y2="90.67" gradientUnits="userSpaceOnUse"><stop offset="0" stop-color="#b36853"/><stop offset="1" stop-color="#813828"/></linearGradient><linearGradient id="linear-gradient-13" x1="96.49" y1="140.17" x2="103.37" y2="141.8" xlink:href="#linear-gradient"/><linearGradient id="linear-gradient-14" x1="32.27" y1="123.59" x2="26.71" y2="126.86" xlink:href="#linear-gradient"/><linearGradient id="linear-gradient-15" x1="61.01" y1="160.32" x2="61.01" y2="112.65" xlink:href="#linear-gradient-12"/><linearGradient id="linear-gradient-16" x1="91.85" y1="164.35" x2="89.67" y2="168.72" xlink:href="#linear-gradient"/><linearGradient id="linear-gradient-17" x1="76.88" y1="69" x2="76.88" y2="11.78" gradientUnits="userSpaceOnUse"><stop offset="0" stop-color="#b36853"/><stop offset="1" stop-color="#ca7c6a"/></linearGradient><radialGradient id="radial-gradient" cx="434.32" cy="-1390" r="63.22" gradientTransform="matrix(0.21, 0.09, -0.13, 0.32, -163.12, 506.01)" gradientUnits="userSpaceOnUse"><stop offset="0" stop-color="#ca7c6a"/><stop offset="1" stop-color="#b36853"/></radialGradient><radialGradient id="radial-gradient-2" cx="1954.08" cy="285.91" r="63.22" gradientTransform="matrix(0.23, -0.12, 0.16, 0.31, -458.53, 250.94)" xlink:href="#radial-gradient"/><linearGradient id="linear-gradient-18" x1="27.55" y1="170.9" x2="122.74" y2="13.59" xlink:href="#linear-gradient-12"/><linearGradient id="linear-gradient-19" x1="69.82" y1="77.18" x2="69.82" y2="14.61" xlink:href="#linear-gradient-12"/><radialGradient id="radial-gradient-3" cx="679.96" cy="-1388.35" r="43.42" gradientTransform="translate(-145.83 478.51) scale(0.33 0.26)" xlink:href="#radial-gradient"/><linearGradient id="linear-gradient-20" x1="49.05" y1="83.26" x2="53.41" y2="67.06" xlink:href="#linear-gradient-12"/><linearGradient id="linear-gradient-21" x1="95.68" y1="84.93" x2="100.27" y2="67.87" xlink:href="#linear-gradient-12"/><linearGradient id="linear-gradient-22" x1="79.22" y1="118.78" x2="79.22" y2="109.91" xlink:href="#linear-gradient-12"/><linearGradient id="linear-gradient-23" x1="81.5" y1="89.35" x2="81.5" y2="103.44" xlink:href="#linear-gradient-17"/><linearGradient id="linear-gradient-24" x1="65.31" y1="95.94" x2="90.07" y2="110.02" xlink:href="#linear-gradient-12"/><linearGradient id="linear-gradient-25" x1="89.35" y1="96.21" x2="74.79" y2="103.57" xlink:href="#linear-gradient-12"/><linearGradient id="linear-gradient-26" x1="10.16" y1="102.89" x2="24.54" y2="92.37" xlink:href="#linear-gradient-12"/><linearGradient id="linear-gradient-27" x1="15.94" y1="95.7" x2="27.05" y2="89.7" gradientUnits="userSpaceOnUse"><stop offset="0" stop-color="#803a28"/><stop offset="1" stop-color="#642315"/></linearGradient><linearGradient id="linear-gradient-28" x1="48.41" y1="104.26" x2="48.41" y2="73.07" xlink:href="#linear-gradient-12"/><linearGradient id="linear-gradient-29" x1="97.27" y1="104.27" x2="97.27" y2="73.07" xlink:href="#linear-gradient-12"/><linearGradient id="linear-gradient-30" x1="56.64" y1="152.7" x2="56.64" y2="75.33" xlink:href="#linear-gradient-12"/><linearGradient id="linear-gradient-31" x1="-3789.9" y1="387.98" x2="-3789.9" y2="310.61" gradientTransform="matrix(-0.63, 0.1, 0.16, 0.99, -2342.28, 148.88)" xlink:href="#linear-gradient-12"/><linearGradient id="linear-gradient-32" x1="79.03" y1="63.96" x2="79.03" y2="69.2" gradientUnits="userSpaceOnUse"><stop offset="0" stop-color="#b62138"/><stop offset="1" stop-color="#970d23"/></linearGradient><linearGradient id="linear-gradient-33" x1="15.91" y1="95.98" x2="23.85" y2="91.69" gradientUnits="userSpaceOnUse"><stop offset="0" stop-color="#672a1a"/><stop offset="1" stop-color="#4b170b"/></linearGradient><linearGradient id="linear-gradient-34" x1="79.15" y1="104.31" x2="79.15" y2="92.17" gradientUnits="userSpaceOnUse"><stop offset="0" stop-color="#5b2619"/><stop offset="1" stop-color="#b36853"/></linearGradient><radialGradient id="radial-gradient-4" cx="1278.1" cy="-1346.34" r="41.7" gradientTransform="translate(-249.67 478.51) scale(0.26)" gradientUnits="userSpaceOnUse"><stop offset="0" stop-color="#a75040"/><stop offset="1" stop-color="#90362b"/></radialGradient><linearGradient id="linear-gradient-35" x1="46.07" y1="62.74" x2="46.07" y2="68.19" xlink:href="#linear-gradient-33"/><linearGradient id="linear-gradient-36" x1="99.66" y1="63.21" x2="99.66" y2="68.26" xlink:href="#linear-gradient-33"/><linearGradient id="linear-gradient-37" x1="51.02" y1="69.89" x2="51.02" y2="66.64" xlink:href="#linear-gradient"/><linearGradient id="linear-gradient-38" x1="-3207.21" y1="69.89" x2="-3207.21" y2="66.64" gradientTransform="matrix(-0.72, 0, 0, 1, -2195.05, 0)" xlink:href="#linear-gradient"/><linearGradient id="linear-gradient-39" x1="73.08" y1="131.37" x2="73.08" y2="124.75" gradientTransform="translate(-35.2 -37.06) rotate(-4.93)" gradientUnits="userSpaceOnUse"><stop offset="0" stop-color="#39140a"/><stop offset="1"/></linearGradient><linearGradient id="linear-gradient-40" x1="73.08" y1="131.37" x2="73.08" y2="124.75" gradientTransform="translate(-35.2 -37.06) rotate(-4.93)" gradientUnits="userSpaceOnUse"><stop offset="0.01" stop-color="#652312"/><stop offset="1" stop-color="#210000"/></linearGradient><linearGradient id="linear-gradient-41" x1="73.08" y1="128.1" x2="73.08" y2="129.82" gradientTransform="translate(-35.2 -37.06) rotate(-4.93)" gradientUnits="userSpaceOnUse"><stop offset="0"/><stop offset="1" stop-color="#77726d"/></linearGradient><linearGradient id="linear-gradient-42" x1="113.69" y1="118.45" x2="113.69" y2="111.83" gradientTransform="matrix(1, -0.06, 0.06, 1, -24.47, -24.78)" xlink:href="#linear-gradient-39"/><linearGradient id="linear-gradient-43" x1="113.69" y1="118.45" x2="113.69" y2="111.83" gradientTransform="matrix(1, -0.06, 0.06, 1, -24.47, -24.78)" xlink:href="#linear-gradient-40"/><linearGradient id="linear-gradient-44" x1="113.69" y1="115.18" x2="113.69" y2="116.9" gradientTransform="matrix(1, -0.06, 0.06, 1, -24.47, -24.78)" xlink:href="#linear-gradient-41"/></defs><g id="Layer_2" data-name="Layer 2"><g id="_2_Face" data-name="2_Face"><path d="M132.15,36.28a6.62,6.62,0,0,0-1-2l0-.07a3.07,3.07,0,0,0-1.31-1.31.51.51,0,0,0-.17,0h0l-.14-.05,0,0a.56.56,0,0,0-.46-.23.63.63,0,0,0-.55.34.58.58,0,0,0,.05.61,6.37,6.37,0,0,1,1,6.43,5.79,5.79,0,0,1-4.9,3.53l-.33,0c-1.82-.14-3.43-1.55-4.51-2.64a23.19,23.19,0,0,0-1-3.71,38.7,38.7,0,0,0-3.36-6.76l-.13-.22c-1.42-2.45-3-4.78-4.41-6.77l-1.15-1.64-1-1.39-.26-.37c-.55-.76-1.08-1.47-.8-2.25a.78.78,0,0,0-.32-.89,1.37,1.37,0,0,0-.51-.23.67.67,0,0,1-.2-.08c-.39-.26-.78-.51-1.12-.71-.75-.46-1.51-.86-2.1-1.16-1.5-.76-3-1.41-4.49-2L97.51,12c-2.64-1.08-5.38-2.19-8-3.55a.34.34,0,0,0-.12,0L89,8.11h0c-.16-.51-.36-1-.55-1.49a14.71,14.71,0,0,1-.69-2,.66.66,0,0,0-.5-.48,24.24,24.24,0,0,0-5.35-.53c-1.67,0-3.31.12-4.84.24l-2.26.2c-1,.09-2,.19-3,.26-.85.07-1.71.11-2.56.14l-.26,0-.33,0a.5.5,0,0,1-.27,0l-.64-.59-.1-.1L67,3.15C65.52,1.67,63.82,0,61.51,0h-.32a13.11,13.11,0,0,0-4.48,1.41,13.12,13.12,0,0,1-3.89,1.3.53.53,0,0,0-.34.19A18.76,18.76,0,0,0,47.05,4a32.41,32.41,0,0,0-4.7,2.28,37,37,0,0,1-3.88,2,38,38,0,0,1-7.67,2L29,10.54l-.31.06a31,31,0,0,0-4.42,1.09c-.53.19-.79.91-1.05,1.76,0,.11-.07.21-.09.28a25,25,0,0,0-.76,2.5.49.49,0,0,0-.13.1,1,1,0,0,1-.21.15,11.41,11.41,0,0,0-1.66,1.06,10.51,10.51,0,0,0-2.23,2.36,16.62,16.62,0,0,0-2.4,6.23l-1.68,1.15L13,28l-.15.1-.12.07a1.2,1.2,0,0,0-.66.62A34.65,34.65,0,0,0,10.69,39.9a4.12,4.12,0,0,0-1.21,1.88c-.07.17-.13.33-.2.47a10.29,10.29,0,0,0-1.16,5.31A19.39,19.39,0,0,0,8.51,50a16.31,16.31,0,0,1,.38,2.43,8.34,8.34,0,0,1-.54,3.09A21.31,21.31,0,0,0,3.46,63.7a16.23,16.23,0,0,0-.61,8.12,17,17,0,0,0-1.41,2.83C-.06,78.5.24,82.73.72,86.36A8,8,0,0,0,3,91.46a14,14,0,0,0,1.7,1.22,7.55,7.55,0,0,1,2.34,2A3.64,3.64,0,0,1,6.89,99a4.47,4.47,0,0,1-3.49,1.41H3.09a5,5,0,0,1-2.3-.74.5.5,0,0,0-.27-.08A.53.53,0,0,0,0,100a.52.52,0,0,0,.1.48l.1.32a.56.56,0,0,0,.21.42,7.27,7.27,0,0,0,4.37,1.5A6.72,6.72,0,0,0,9,101.22c2.74-2.17,2.71-6.21,1.11-8.71A15.39,15.39,0,0,0,8.6,90.58a12.06,12.06,0,0,1-1.67-2.22c-1-1.85-.5-4.28-.1-5.56a9.07,9.07,0,0,1,1.22-2.48,7.09,7.09,0,0,1,.75-.89,15.26,15.26,0,0,0,2.6,5.84l.24.34c0,.45,0,.92,0,1.4a76.16,76.16,0,0,0,1.24,9l.11.56a29.66,29.66,0,0,0,2.16,7.74,28.38,28.38,0,0,0,3.88,5.46,41.12,41.12,0,0,1,2.66,3.41,4.09,4.09,0,0,0,2.62,1.65c0,.75.07,1.34.13,1.75a5.3,5.3,0,0,1-.58,2.28,8,8,0,0,0-.4,1.15c0,.12-.06.28-.11.47-.3,1.16-.92,3.58,0,5.41a7.9,7.9,0,0,0,4.78,3.7l.2,0c.91,0,2.41-1,3.37-1.62.73.37,1.24.61,1.54.75a1.35,1.35,0,0,1,.75,1.38,1,1,0,0,1-.66,1,11.94,11.94,0,0,1-2.49.19c-.53,0-1.07,0-1.53,0h-.94c-1.35,0-3.43,1.32-3.43,2.94s2.23,3.57,4,3.92a10.94,10.94,0,0,0,1.79.13c1.61,0,4.78-.25,6.16-1.14a30.09,30.09,0,0,1-2.22,10.58C30,158,7.92,165.84,7.69,165.92a.47.47,0,0,0-.32.52.49.49,0,0,0,.45.43,203.15,203.15,0,0,1,29.27,5c5.38,1.35,12.53,2,21.23,2,13,0,26.6-1.57,33.31-3.11a195,195,0,0,1,22.58-3.48.49.49,0,0,0,0-1,52.11,52.11,0,0,1-14.66-4c.68-.67,1.26-1.48,1.13-2.15-.09-.44-.54-.86-1.39-1.64-1.09-1-2.59-2.36-2.87-3.76a2.86,2.86,0,0,1,.48-2.36,3.68,3.68,0,0,1,2.68-1.31c2.44-.17,5.73-3.43,5.87-3.57a.47.47,0,0,0,.14-.29c0-.26.78-6.39-.41-10.69.86-.72,3.37-3,3.68-4.49.16-.81-.35-2.33-1.26-5-.5-1.43-1.06-3-1.43-4.49l0,0q1.14-2.48,2.29-4.92c.55-1.19,1.19-2.37,1.81-3.51s1.42-2.62,2-4a31.11,31.11,0,0,0,2.71-10.37A13.86,13.86,0,0,0,117.17,95a15.34,15.34,0,0,0,.44-3.13v-.18a4,4,0,0,0-.07-1.19,1,1,0,0,1,.13-.54c0-.1.07-.19.1-.29a10.11,10.11,0,0,0,.6-4.53c-.18-1.16-1-3-2.54-3.33a13,13,0,0,1,.16-1.31,26,26,0,0,1,1.29-4.66c.48-1.34,1-2.68,1.58-4,.74-1.8,1.51-3.65,2.11-5.55a3.06,3.06,0,0,1,.14-.38,3.2,3.2,0,0,0,.35-1.81,7.38,7.38,0,0,1-.16-2.07c0-.2,0-.41,0-.61,0-2.13,0-4-.09-5.7a74.52,74.52,0,0,0-.64-8.87,8.5,8.5,0,0,0,1.59.6,6.32,6.32,0,0,0,1.69.22,7.33,7.33,0,0,0,2.59-.48,9.75,9.75,0,0,0,5.64-6.56A8.28,8.28,0,0,0,132.15,36.28ZM85.46,148.55l.92-.35q-.12.28-.21.57a8.4,8.4,0,0,0-.23,1A11.16,11.16,0,0,1,85.46,148.55ZM28.4,127.78h-.13c-1.08-.08-1.46-1.48-1.6-2.42L29.88,127A2,2,0,0,1,28.4,127.78ZM18.24,31.49A6.2,6.2,0,0,1,21.83,30a13.24,13.24,0,0,0,4.23-1.21h0A1.85,1.85,0,0,0,26,29a.56.56,0,0,1-.05.13,1,1,0,0,1-.29.08l-.2.05a12,12,0,0,0-1.28.42A15.32,15.32,0,0,0,20.36,32c-1.21,1-2.35,2-3.45,3.06-.9.86-1.82,1.73-2.8,2.54.38-.76.8-1.49,1.2-2.14A20.19,20.19,0,0,1,18.24,31.49Zm7.43-11.72a44,44,0,0,0-4.84,2.84c-.86.57-1.71,1.16-2.55,1.75a6.88,6.88,0,0,1,2.24-3.83,16.47,16.47,0,0,1,5.11-2.78l.24-.09a35.85,35.85,0,0,0,5.47-2.48l.81-.48,1-.62-1.42,1.21c-.64.56-1.32,1.13-2,1.68A22.51,22.51,0,0,1,25.67,19.77ZM36.9,135.3h-.08a21.3,21.3,0,0,1-2.85.21,10.35,10.35,0,0,1-2.19-.2,5.4,5.4,0,0,1-3-2.14h.11a41,41,0,0,0,5.8-.82,3,3,0,0,0,2.3-1.29c0,1.49,0,2.9,0,4.24Z"/><path class="cls-1" d="M120.72,64.34c0-6.32,0-13.52-1.09-19.85l-.43-.65c.43-8.29-7.64-18.33-12.22-24.87a3.55,3.55,0,0,1,0-1.53c-5-3.71-12-5.24-17.67-8.51l-.87-.65C88,7,87.57,5.88,87.13,4.79c-5.89-1.31-12.87.43-19,.43C66.62,3.91,64.22,1.08,62.26.64,59.42.21,55.93,3,52.88,3.26l.07.26C48,3.65,44.54,5.74,40,8.28c-4.37,2.4-10.69,2.62-15.49,4.14A26.42,26.42,0,0,0,23,16.79h-.22c-4.14,2-5.67,5.45-6.54,9.59l1.31-.65c0-5.89,5.67-7.85,10-9.38,3.49-1.09,6.33-4.15,10.26-4.8-4.8,2.62-7.2,6.33-11.57,8.73-4.79,2.4-8.94,5.89-13.52,8.72a31.94,31.94,0,0,0-1.53,11.13l1.53-.66c.65-2.4,2.84-5.67,4.36-7.63,2.62-3.27,5.24-1.75,8.73-3.49l1.09-2.18a18.94,18.94,0,0,1-.44,3.49c-6.19,1.07-9.67,7.78-15.14,10.72l-.34.18c-1.53,2.84-2.62,5-2,8.08.66,3.92.87,4.36-.65,8.5L9.74,58a32.15,32.15,0,0,0-5,6.36,10.22,10.22,0,0,0-.89,7.17A17.12,17.12,0,0,0,1,82.23c.22,2.4.22,5.24,1.31,7.42s4.36,2.83,5.45,5c2.4,5-3.49,7.85-7.2,5.45l.22.65c5,3.71,11.78-.65,9.38-6.76C9,91.39,6.19,90.08,5.76,87s.87-7,3.49-8.73c.22,3.06,2.4,6.77,4.58,9l-.73-3.1,4.66,9.53s5.23,8.18,7.41,8.51,2.29.44,7.31-2,7.64-18.11,8.07-20.94a63.8,63.8,0,0,0-.12-10.53l.78,0s9-2.72,12.32-4.68c1.53-.92,5.67-11.5,9.67-22.54L63.57,43s48.76,45.27,49.19,45.38,2.51-2.62,2.51-2.62C114.18,77.87,119,71.54,120.72,64.34Z"/><path class="cls-2" d="M22.93,16.79h-.16A10.82,10.82,0,0,0,20,18.67l1.7-.79ZM119.21,43c-.14-8.11-7.81-17.68-12.23-24a3.55,3.55,0,0,1,0-1.53c-5-3.71-12-5.24-17.67-8.51l-.87-.65C88,7,87.57,5.88,87.13,4.79c-5.89-1.31-12.87.43-19,.43C66.62,3.91,64.22,1.08,62.26.64,59.42.21,55.93,3,52.88,3.26l.07.26C48,3.65,44.54,5.74,40,8.28c-4.37,2.4-10.69,2.62-15.49,4.14A25.78,25.78,0,0,0,23,16.71l.42-.36,3.27-3.06S37,11.11,39.57,9.37,49.39,5,52,4.79,61,5.88,61,5.88L71.86,9.81s-5.67-3.28-7.2-3.71L56.15,3.7S59.21,2,60.3,2.17s5.89,2.4,5.89,2.4L67.71,6.1l3.78-.21a23.22,23.22,0,0,1,1.89,2c.79.94,3.64,5,.29,3.29,2.75,2.44,3.48,4.54,4.79,7.79.69,1.73,2.75,6.39-.91,6.2a3,3,0,0,1,.6,2.32,2.42,2.42,0,0,1-1.71-.62l-2.68-.51c2.47.93,4.95,2.26,6.81,3.11-.45-.66-1.07-1.41-1.48-2.11,4.58-4.07-1.29-10.23-.87-15.29l2.13-.5c-1.19-1.74-2.87-3.7-4.18-5.42a5.2,5.2,0,0,0-.37-.43c2.53-.12,4.83-.23,5.44-.23,1.53,0,5,2.62,5,2.62l-2.84.87s5.67,2.18,7.42,2.62,12.65,5.24,13.74,6.11l-2.62.43L109.82,26c2,2,5.89,12.21,5.89,12.21S118,42,119.21,43ZM68.37,25.29l5.39,1A12.66,12.66,0,0,0,68.37,25.29ZM9.25,66.74a25.85,25.85,0,0,0-5.39,4.63l0,.14A17.12,17.12,0,0,0,1,82.23c.22,2.4.22,5.24,1.31,7.42A6.26,6.26,0,0,0,4.61,91.9l.28-.07s-3.06-2.4-2.4-8.73,2-9.16,4.36-11.78A24.51,24.51,0,0,1,12.52,67a15.26,15.26,0,0,1,12.22-8.07S15.58,57.36,9.25,66.74ZM120.19,48.62l-1.87-.86s2,13.09,1.1,15.93S114.1,78,115.22,81.43c.66-6,4.09-11.25,5.5-17.09C120.72,59.36,120.72,53.84,120.19,48.62ZM26.92,26.31a20.1,20.1,0,0,1-.44,3.35c-6.19,1.07-9.67,7.78-15.14,10.72l-.34.18c-1.53,2.84-2.62,5-2,8.08.66,3.92.87,4.36-.65,8.5l.3.19,3.62-3.46a38.87,38.87,0,0,0,.22-6.11c-.22-2.18-.22-4.8.44-5.67A38.89,38.89,0,0,1,17.1,38.6a28.64,28.64,0,0,0,3.71-3.71c.66-1.09,6.33-4.14,6.33-4.14l1.53-2.62.21-3.71,7.86-5.89S29.19,21.39,26.92,26.31Zm-2.37,2.56a8.83,8.83,0,0,0,1.28-.52l.59-1.18A10.4,10.4,0,0,1,24.55,28.87ZM12.43,39.61l.31-.14,0-.08Zm25.4-27.84-2.5,1.37c-3.28,2.38-5.53,5.19-9.07,7.14a69.43,69.43,0,0,0-8.44,5.31,2.76,2.76,0,0,1-1.23.85c-1.26.88-2.54,1.75-3.85,2.56a31.94,31.94,0,0,0-1.53,11.13l.28-.12c.27-1.49,1.41-7.57,2.56-9.48,1.31-2.18,4.58-3.27,4.58-3.27s3.27-2.18,5.89-3.71,7.64-5.24,7.64-5.24l5.23-4.8s13.74-7,21.82-3.92C59.21,9.59,55.06,5,37.83,11.77Z"/><path class="cls-3" d="M7.61,99.22a4.06,4.06,0,0,0,.61-3.56,6,6,0,0,0-2.9-3.43,15.78,15.78,0,0,1-2.15-1.57,6,6,0,0,1-1.49-3A28.62,28.62,0,0,1,1,81,16.77,16.77,0,0,1,5.21,70.2,15.13,15.13,0,0,1,9.1,67.07c.14-.08,0-.29-.13-.22a14.19,14.19,0,0,0-7.07,8C.49,78.46.7,82.5,1.21,86.3a7.37,7.37,0,0,0,2.1,4.79c1.32,1.17,3.09,1.8,4.12,3.29a4.17,4.17,0,0,1-.16,5,5.15,5.15,0,0,1-4.2,1.57,5.4,5.4,0,0,1-2.53-.81s-.07,0,0,.06A5.47,5.47,0,0,0,7.61,99.22ZM9.35,78.3c0-.06-.09-.13-.15-.08A9.6,9.6,0,0,0,5.5,85.3a6.81,6.81,0,0,0,.79,3.91,33.84,33.84,0,0,0,2.78,3.45,6.32,6.32,0,0,1,1.42,4.23,5.38,5.38,0,0,1-1.81,3.67c-2.22,2.06-5.55,1.79-7.92.19,0,0-.06,0,0,0a6.44,6.44,0,0,0,8,0c2.4-1.91,2.58-5.59,1-8.07-1-1.49-2.37-2.6-3.21-4.17-1-1.78-.71-4.09-.14-5.95A9.21,9.21,0,0,1,7.65,80a7.17,7.17,0,0,1,1-1.14s.53-.43.53-.37c0,.25.06.49.1.74A14.86,14.86,0,0,0,11.81,85a13.94,13.94,0,0,0,1.95,2.32.1.1,0,0,0,.14-.14C11.68,84.73,9.66,81.67,9.35,78.3ZM26.86,26.17a22.61,22.61,0,0,1-.35,2.95c-.1.55-.44.53-.9.65a11,11,0,0,0-1.23.4,14.48,14.48,0,0,0-3.71,2.23C18,34.46,15.85,37,13.12,39l-.16.12a18.88,18.88,0,0,1,1.93-3.9,20.84,20.84,0,0,1,3-4.08,6.61,6.61,0,0,1,3.86-1.61,13.22,13.22,0,0,0,4.09-1.16s0-.05,0,0c-2.74,1.24-6,.6-8.26,2.83a20.73,20.73,0,0,0-2.86,3.95,17.27,17.27,0,0,0-2,4.2,12.54,12.54,0,0,1-1.63.94c-.66.32-1,1.57-1.34,2.21a10,10,0,0,0-1.11,5.07c.12,1.64.67,3.23.77,4.87a12.08,12.08,0,0,1-1.07,4.72c0,.09.1.12.13,0a17.53,17.53,0,0,0,1.18-3.94,13.51,13.51,0,0,0-.18-3.59,11,11,0,0,1,.09-5.28,16.88,16.88,0,0,1,1.14-2.62,2.44,2.44,0,0,1,.83-1.16c.32-.19.63-.37.94-.57,4.78-3.12,8.06-9.25,14.06-10.27a.06.06,0,0,0,.06-.05A16.67,16.67,0,0,0,27,26.17.06.06,0,1,0,26.86,26.17ZM56.18,3.58a18.1,18.1,0,0,0-9,.9c-3,1.09-5.61,3-8.56,4.23A50.38,50.38,0,0,1,29.11,11a33.67,33.67,0,0,0-4.66,1.13c-.43.15-.71,1.36-.85,1.75a24.82,24.82,0,0,0-.8,2.67c-.21.05-.2.17-.53.34a11.7,11.7,0,0,0-1.6,1,9.91,9.91,0,0,0-2.12,2.26,16.3,16.3,0,0,0-2.35,6.19s0,0,0,0l-1.87,1.28-1.22.82c-.16.11-.51.23-.58.44a34,34,0,0,0-1.37,11.18s.06,0,.06,0c.06-3.64.23-7.4,1.58-10.8.14-.35.72-.58,1-.76s.83-.53,1.24-.8c.73-.48,1.46-1,2.18-1.49,1.53-1.05,3-2.12,4.6-3.14,2.77-1.81,5.75-3.19,8.27-5.38a53,53,0,0,1,7.75-6.11.11.11,0,0,0-.08-.21c-2.51.51-4.63,1.88-6.79,3.17a17.62,17.62,0,0,1-3.65,1.65c-1,.33-2,.67-2.92,1.07-3.65,1.49-6.88,4-7,8.22l-.91.64-.27.18a18.32,18.32,0,0,1,2.09-5.56,10.52,10.52,0,0,1,1.93-2.28C21,17.93,22,17,23,17a.25.25,0,0,0,.23-.17c.29-.84.52-1.69.81-2.53.15-.43.31-.84.49-1.26s.54-.5,1-.63c1.48-.42,3-.7,4.5-1a39.76,39.76,0,0,0,8.79-2.35c2.76-1.23,5.22-3,8-4.13a19.82,19.82,0,0,1,9.28-1.13C56.29,3.83,56.32,3.6,56.18,3.58Zm-36,16.58a16.72,16.72,0,0,1,5.26-2.86,37.11,37.11,0,0,0,5.64-2.54,22.62,22.62,0,0,1,6.09-3c-2.63,1.53-4.75,3.66-7.1,5.56a23.33,23.33,0,0,1-4.19,2.86A44,44,0,0,0,21.11,23c-1.17.77-2.31,1.57-3.45,2.38A7.4,7.4,0,0,1,20.19,20.16ZM87.3,4.74a.16.16,0,0,0-.12-.12,33.2,33.2,0,0,0-10.05-.28c-1.76.15-3.52.33-5.28.46-.86.07-1.72.11-2.58.14-.38,0-.9.13-1.21-.14s-.5-.46-.74-.69C65.61,2.48,63.78.33,61.22.5c-2.95.2-5.4,2.38-8.34,2.71-.06,0-.06.1,0,.1,3-.21,5.53-2.4,8.55-2.59,1.48-.1,2.85,1.21,3.86,2.13.52.47,1,1,1.52,1.46.31.31.84,1.05,1.27,1.17a8.7,8.7,0,0,0,2.33-.06c1,0,1.93-.15,2.89-.24,1.87-.18,3.73-.4,5.6-.54a37.13,37.13,0,0,1,5.48-.06q.81.06,1.62.18c.63.09,1,.15,1.3.82.36.9.69,1.81,1,2.73.05.15.28.09.24-.06C88.18,7.07,87.59,5.93,87.3,4.74ZM119,43.84c0,.21.35.28.39,0a14.41,14.41,0,0,0-1-6.64,39.49,39.49,0,0,0-3.46-6.91c-1.35-2.31-2.85-4.53-4.38-6.73-.71-1-1.42-2-2.13-3s-1.54-1.88-1.13-3.06a.29.29,0,0,0-.13-.33c-.25-.18-.47-.14-.71-.31s-.72-.47-1.09-.69c-.67-.42-1.37-.79-2.07-1.14-1.45-.74-3-1.37-4.46-2-3.2-1.31-6.41-2.54-9.47-4.16,0,0-.09,0,0,.07a59.72,59.72,0,0,0,8.94,4.11c1.66.68,3.31,1.38,4.9,2.18.71.35,1.4.74,2.07,1.14.37.22.73.46,1.09.7a2.63,2.63,0,0,1,.37.42,2.86,2.86,0,0,0,0,1.13c.07.51.29.68.61,1.11.71.95,1.41,1.91,2.11,2.88,1.56,2.14,3.07,4.31,4.49,6.55a42.31,42.31,0,0,1,3.66,7.31A23.92,23.92,0,0,1,119,43.84Zm2,20.43a10.16,10.16,0,0,1-.17-2.81c0-1.9,0-3.79-.09-5.68a62.06,62.06,0,0,0-1.08-11.3s0,0,0,0c.45,3.76.8,7.5.92,11.29.06,1.89.07,3.78.08,5.68a10.15,10.15,0,0,1-.16,2.81c-.22.84-.46,1.68-.73,2.51-1,3.14-2.44,6.15-3.45,9.3s-1.72,6.47-1.07,9.66c0,.08.15.06.14,0a23.92,23.92,0,0,1,.17-5.28,26.85,26.85,0,0,1,1.31-4.74c1.16-3.2,2.67-6.27,3.69-9.52C120.66,65.71,121.13,64.75,121,64.27Z"/><path class="cls-4" d="M3.36,71.76C1.61,63,9,51.91,18,51c5.67-.44,10.25,1.74,13.74-3.5C36.08,41,38,34,44.81,29.22c12-8.73,24-1.31,35.12,5L84.51,34l1.09,2-7.2,1.09,1.09-1.74c-6.76-4.37-17-7.42-24.65-4.15C43.72,35.76,41.32,53,28.88,54.31c-6.76.65-11.34-1.09-17.67,2.83-5.67,3.71-6.1,7.86-7,14.18Z"/><path class="cls-5" d="M129.67,33.37a.21.21,0,0,1,.22.21c5.45,5.46-1.75,16.58-9.17,12.66-8.5-4.8-22-17.24-33.37-11.57L84.73,36.2,84.51,34c11.56-8.07,24-6.54,32.72,4.8,3.06,3.93,7.42,7.85,11.78,3,2.4-2.83,2.18-5.89,0-8.72Z"/><path class="cls-6" d="M14.92,53c5-1.09,11.56,1.09,15.27-1.75S37.83,38.16,42,33.8,58.55,22,74.26,31.18h.27c-9.56-5.24-19.64-9.3-29.72-2C38,34,36.08,41,31.72,47.54,28.23,52.78,23.65,50.6,18,51c-6,.58-11.37,5.84-13.67,11.88C5,61.87,10.24,54,14.92,53Z"/><path class="cls-7" d="M117.23,38.82c-7.72-10-18.34-12.38-28.69-7.2h.12s12.43-2.84,17.23,0,9.16,7.42,11.56,9.82c1.91,1.91,11.17,6.18,12.42-.78a8.43,8.43,0,0,1-.86,1.21C124.65,46.67,120.29,42.75,117.23,38.82Z"/><path class="cls-8" d="M79.57,35.2C72.91,30.79,64.05,28,56.15,30.48c-6.09,1.95-9.74,7.42-13.22,12.41s-7.47,10.52-14,11.26c-4,.45-8.07-.21-12,.57a15.88,15.88,0,0,0-9.64,6c-2.21,3-2.53,7-3,10.63,0,.08.11.11.12,0,.49-3.45.87-7.06,2.79-10.05,2.26-3.54,6.46-5.77,10.53-6.42s8.07.11,12.07-.51a14.48,14.48,0,0,0,7.48-3.84c4.6-4.23,7.27-10.1,11.5-14.66A17.9,17.9,0,0,1,57,30.66c4.21-1.16,8.73-.56,12.87.61a38,38,0,0,1,9.6,4.19c.16.1.31-.16.15-.26Z"/><path class="cls-9" d="M3.38,71.75C2,64.39,6.53,56.3,12.91,52.71a15,15,0,0,1,2.47-1.08,12.29,12.29,0,0,1,1.19-.32,7.38,7.38,0,0,1,1.41-.1c1.86-.09,3.72,0,5.58.13a12,12,0,0,0,4.66-.54,7.82,7.82,0,0,0,3.7-3.14c2.35-3.46,4-7.34,6.24-10.89A25.38,25.38,0,0,1,48,27.42c8.92-4.59,18.59-.4,26.65,4,1.74,1,3.46,1.92,5.21,2.87.07,0,.14-.08.06-.12-7.44-4.46-15.89-9.68-24.93-9a21.18,21.18,0,0,0-12,5.29c-3.14,2.67-5.28,6.21-7.26,9.77-1,1.83-2,3.68-3.11,5.48s-2.18,3.51-4.07,4.46a10.38,10.38,0,0,1-5,.74,45.18,45.18,0,0,0-5.58,0c-.21,0-.41.17-.63.2-.41.06-.81.15-1.21.25a13.58,13.58,0,0,0-2.34.84A16.46,16.46,0,0,0,9.57,55a20.72,20.72,0,0,0-5.65,8.84,15.71,15.71,0,0,0-.58,7.9s0,0,0,0Z"/><path class="cls-10" d="M84.52,34a28.09,28.09,0,0,1,11.55-4.76A20.33,20.33,0,0,1,107.47,31a27,27,0,0,1,9.63,8c2.06,2.6,5.21,6,8.91,5.1a7.2,7.2,0,0,0,4.63-4.79,6.77,6.77,0,0,0-1.55-6.19c-.08-.1-.25,0-.17.13,1.49,2.08,2.18,4.5,1.08,6.92-1,2.17-3.25,4-5.72,3.8-2.12-.17-3.93-1.82-5.3-3.29s-2.7-3.42-4.22-5a23,23,0,0,0-9.65-6,20.86,20.86,0,0,0-10.67-.27A28,28,0,0,0,84.51,34s0,0,0,0Z"/><path class="cls-11" d="M87.39,34.75c7.19-3.43,15.37.46,21.6,4.2,3.15,1.9,6.17,4,9.27,6a15.33,15.33,0,0,0,4,2.08,6.56,6.56,0,0,0,4-.25,9.3,9.3,0,0,0,5.34-6.24,8,8,0,0,0,.05-4.12,6.63,6.63,0,0,0-.9-1.9c-.25-.39-.66-1-1.1-1.18-.05,0-.07.05,0,.07s.37.47.42.52a8.22,8.22,0,0,1,.72,1,6.45,6.45,0,0,1,.77,2.22,8.13,8.13,0,0,1-.66,4.61,8.18,8.18,0,0,1-7,5.14,8.33,8.33,0,0,1-4.52-1.62c-1.46-.9-2.87-1.85-4.28-2.8a105.42,105.42,0,0,0-9.81-6.09c-5.61-2.94-12-4.78-18-1.78-.09,0,0,.19.09.15Z"/><path class="cls-12" d="M117.61,87.62c.3-2.09,0-4.29-2.18-5.17a16,16,0,0,1-2.12,5.89l.6,8.64.38-1.11S115.49,88.65,117.61,87.62Z"/><path class="cls-12" d="M113.63,98.32l.31-.94.18,2.58a15.08,15.08,0,0,0,2.79-9.49,17,17,0,0,0,.7-2.85c-2.12,1-3.32,8.25-3.32,8.25L113.91,97l0,.27C113.84,97.6,113.74,98,113.63,98.32Z"/><path class="cls-13" d="M113.63,98.32l.31-.94.18,2.58a15.08,15.08,0,0,0,2.79-9.49,17,17,0,0,0,.7-2.85c-2.12,1-3.32,8.25-3.32,8.25L113.91,97l0,.27C113.84,97.6,113.74,98,113.63,98.32Z"/><path class="cls-14" d="M117.89,85.23c-.18-1.2-1.06-2.9-2.46-3a.19.19,0,0,0-.18.24,6.69,6.69,0,0,1-.6,2.8,15,15,0,0,1-1.36,3s0,0,0,0a13.58,13.58,0,0,0,1.27-2.49,14.43,14.43,0,0,0,.52-1.57,12.3,12.3,0,0,1,.37-1.54,6,6,0,0,1,1.29,1.08,4.35,4.35,0,0,1,.66,2A11.62,11.62,0,0,1,117,90c-.41,1.56-.34,3.21-.71,4.8A14.14,14.14,0,0,1,114,99.86c-.12.17.15.38.28.22a12.78,12.78,0,0,0,2.45-5.18,15.36,15.36,0,0,0,.42-3,4.6,4.6,0,0,0,0-1.23c-.11-.37.12-.75.23-1.11A9.45,9.45,0,0,0,117.89,85.23Zm-.76,2.65c.05-.07-.07-.14-.12-.07a17.41,17.41,0,0,0-2.18,5c-.22.83-.4,1.68-.59,2.51s-.55,1.94-.71,2.92c0,.11.14.2.2.08A26.82,26.82,0,0,0,115,93.43,19.4,19.4,0,0,1,117.13,87.88Z"/><path class="cls-15" d="M98.58,162.62s1.8-1.47,1.64-2.29-3.77-3-4.26-5.4,1.31-4.09,3.6-4.25,5.57-3.44,5.57-3.44.81-6.55-.49-10.8c0,0,3.43-2.78,3.76-4.42s-3.44-9.16-3.11-12.43S95,130.88,95,130.88l-3.17,8.46c-.61,1.61-1.09,3.38-1.85,4.93-.86,1.73-2.74,2.71-3.32,4.64-.74,2.47.17,5.06.65,7.49.44,2.18,5.07,5.89,5.07,5.89Z"/><path class="cls-16" d="M28.88,132.68a41.52,41.52,0,0,0,5.73-.82s2.13-.16,2.13-1.8S39,127.77,39,127.77l-1-6.71-4.41-8.51s-2.46-3.76-3.6-3.27L24.79,113a32.79,32.79,0,0,0,.17,3.44c.16,1.15-.82,2.78-1,3.6s-1.15,3.6-.17,5.56a7.48,7.48,0,0,0,4.42,3.44c.84.14,2.88-1.28,3.45-1.69.76.39,1.41.71,1.78.87,1.48.65,1.31,3,0,3.27a26.46,26.46,0,0,1-5.07.17c-1.14,0-2.94,1.14-2.94,2.45s2,3.11,3.6,3.44,6.7,0,7.85-1.15v-.65a17.05,17.05,0,0,1-5.24,0C29.54,135.3,27.08,132.68,28.88,132.68Zm-.65-4.42c-2.13-.16-2.13-3.76-2.13-3.76s2.41,1.27,4.53,2.36A2.75,2.75,0,0,1,28.23,128.26Z"/><path class="cls-17" d="M114.17,166.82c-16.69-2.22-25-9.17-28.66-16.8s-2.31-37.74-2.31-37.74L35.3,109c.69,7.85,4.68,28.16-.17,38.85S7.86,166.38,7.86,166.38a201.87,201.87,0,0,1,29.35,5c15.71,3.93,43.91,1.31,54.31-1.09A195.34,195.34,0,0,1,114.17,166.82Z"/><path class="cls-18" d="M85,166.27a4.3,4.3,0,0,0,4.58,3.06c3.28-.44,2.62-1.75,1.75-3.93-.66-1.75-3.06-2.18-.44-3.93,2.62-2,3.93,1.09,5.46,2.62.65-.44,1.74-1.31,2.4-1.74-2.19-1.53-3.28-4.59-6.11-4.59-2.4,0-5,2.84-4.58,5.24.21,1.53,4.47,3.16,2.51,4.91-.88.65-3.82,0-4.48-.44Z"/><path class="cls-12" d="M111.83,81.47c-.93-4.18.82-6.38-.32-10s-1.8-9-2.46-14.73S102.35,38,95.31,36.31c0,0-5.89-2.78-9.49-1.8a49.44,49.44,0,0,1-6.38.33c-2-.17-10-2-15.22-1.15S47.54,37.13,44.43,45.8,42,56.76,39,59.05,27.9,71.49,27.74,79a50.5,50.5,0,0,1,.32,6.71c-.16,2.29-1.14,6.38-1,8.51s0,5.89,0,5.89A25.53,25.53,0,0,1,25,94.56c-.5-2.62.65-5.08-.5-7.69,0,0-3.76-8-7.36-8s-4.91,3.76-4.91,7,1.8,15,3.6,18.32,5.57,7.2,6.55,8.83,5.89,1.8,7.36-.16c0,0,1.47,8.35,5.07,12.11S48,140.37,64.22,146.91A30,30,0,0,0,81.4,149c9.17-1.8,13.91-7.2,16.85-11.78s9.8-20.53,11.13-22.74C117.23,101.43,114.4,92.92,111.83,81.47Z"/><path class="cls-19" d="M47.43,66.74S47.64,48,56.59,41.87s35.56-5.89,41-1.74c0,0,8.07,4.14,8.73,29.88L90,76.56l-32.72-2.4Z"/><path class="cls-20" d="M111.83,81.47c0-.11,0-.2,0-.3-5.1,2.09-10.07,7.31-13,14.37-4.64,11.12-2.5,22.59,4.77,25.63a9.69,9.69,0,0,0,2.36.63c1.62-3.51,3-6.42,3.48-7.28C117.23,101.43,114.4,92.92,111.83,81.47Z"/><path class="cls-21" d="M50.16,97.59C45.16,88,35.77,82.74,28.1,84.81c0,.33,0,.63,0,.91-.16,2.29-1.14,6.38-1,8.51.06.8.08,1.85.08,2.83.25,1,.41,1.75.41,1.75l5.24,12.44L33.29,123a12.42,12.42,0,0,0,1.48,2l.12.13a13.91,13.91,0,0,0,10.82-.63C53.73,120.32,55.72,108.27,50.16,97.59Z"/><path class="cls-22" d="M35.21,112.55c-5.71-6.85-7.27-20.35-7.57-23.67a27.07,27.07,0,0,0-.56,5.35c.12,1.45.07,3.67,0,4.93a55.18,55.18,0,0,1,2.42,9.47c.43,3.92-4.15,5.23-4.15,5.23l0,.44c1.67.1,3.53-.33,4.34-1.42,0,0,1.47,8.35,5.07,12.11,3.14,3.28,10.87,12.52,23.53,19.17C40.23,132.17,41.75,120.4,35.21,112.55Zm79.19-14a46.88,46.88,0,0,1-6.33,14.84c-2.16,3-4.46,11.88-5.2,14.89,2.79-5.9,5.69-12.44,6.51-13.8,3.73-6.22,5.05-11.41,5.13-16.37C114.47,98.29,114.43,98.43,114.4,98.59Z"/><path class="cls-23" d="M111.51,71.49c-1.15-3.6-1.8-9-2.46-14.73S102.35,38,95.31,36.31c0,0-5.89-2.78-9.49-1.8a49.44,49.44,0,0,1-6.38.33c-2-.17-10-2-15.22-1.15S47.54,37.13,44.43,45.8,42,56.76,39,59.05,27.9,71.49,27.74,79c0,0,.1.88.19,2l.3.08s4.14-7.64,8.72-9.6,8.73-7.85,10.69-17S57.46,34,71.86,35.76c8.62,1.05,20-2.21,27.27,4.37,4.8,4.36,8.07,18.32,9.38,30.76l2,6.11,1.18.17C111.84,75.3,112.19,73.64,111.51,71.49Z"/><path class="cls-24" d="M95.85,119.21c0,6.2-6.49,11.23-14.5,11.23s-14.51-5-14.51-11.23S73.34,108,81.35,108,95.85,113,95.85,119.21Z"/><path class="cls-25" d="M36.08,82.78s-7.2-8.51,1.8-12,15.87-.49,15.87-.49l9,2,3.11-1.15s7.2,11.45-5.4,15.22Z"/><path class="cls-26" d="M87.46,85.89s-4.26-5.4-1.31-11.79c0,0,1.31-4.25,4.09-3.76s8.83-.65,8.83-.65l6.22.32,2.94,2.13,2.46,2s.16,9.17-6.87,10.8Z"/><path class="cls-27" d="M67.93,109.94l1.31.32a7.63,7.63,0,0,1,4-1.09A39.87,39.87,0,0,1,81,111c1.75.54,5.13.43,6.76-1.86,0,0,2.29-.65,2.73.66,0,0-.65,2.29-2.4,2.61,0,0-1.64,5-8,5a15.33,15.33,0,0,1-10.36-4.25s-1.64-2.29-1.86-2.73Z"/><path d="M72.51,110.75a8.08,8.08,0,0,1,4.64.88S74,112.77,72.51,110.75Z"/><path d="M86.53,111.3l.44-.55,1.63-.32s-.49,1.3-2.62,1.41Z"/><path class="cls-28" d="M83.53,109.66s-5.34,0-6.44-4.47.39-8.13-.6-11.67A18,18,0,0,1,76,86.76l7.09.49s.17,6.71.44,8.78.22,4.63,1,5.73,2.62,2.89,2.62,5S85.6,109.77,83.53,109.66Z"/><path class="cls-12" d="M76.39,103a9.86,9.86,0,0,1,8.89-.87l-.55-1.31A9.58,9.58,0,0,0,76,102Z"/><path class="cls-29" d="M72.73,87.52c-1.15-.9-8,4.75-9.33,8s-2.19,10.08,4.17,14.33a1.25,1.25,0,0,1,.21-.3,2.9,2.9,0,0,1,.37-2.66l1.06-1.06s4.75-3.28,5-6.3S73.88,88.42,72.73,87.52Z"/><path class="cls-30" d="M90.4,106.34a52.49,52.49,0,0,1-3.93-3.6A8.87,8.87,0,0,1,84.35,98c-.17-2-1.07-10.63-.82-11.61s8,6.54,9.16,10.3,1.15,7.94-1.88,11.62Z"/><path class="cls-31" d="M26.92,104.21c-.16,0-.33-.16-.49-.16-4.42-2.29-2-9-3.27-13.09-1.31-3.77-5.08-10.8-9.82-7.86,0,0-.38,10.26,2.45,15.93a49.1,49.1,0,0,0,6.77,10.47c.87.87,3.05-.22,3.49-.87s1.52-2.84,1.52-2.84Z"/><path class="cls-32" d="M17.59,86.7c.49,1.15-.16,4.09-1,5.89s.66,5.4.66,5.4c-1.48-3.76,2-7.2,2-7.2s1.31,2.78.65,3.93,0,4.25,0,4.25c-.49,4.26,1,4.59,1,4.59-1.31-1.48.16-5.4.16-5.4a14.29,14.29,0,0,1,1.8,3.27,4.82,4.82,0,0,0,3.6,2.62c-4.42-2.29-2-9-3.27-13.09-1.31-3.77-5.08-10.8-9.82-7.86,0,0,0,.69,0,1.79C14.52,84.76,17.18,85.73,17.59,86.7Z"/><path class="cls-33" d="M41.1,88.34a18,18,0,0,0,7,1.85,37.14,37.14,0,0,0,7.63-1.09s-4.68,2-8.07,2S41.1,88.34,41.1,88.34Z"/><path class="cls-34" d="M103.16,87.47a12.45,12.45,0,0,1-5.62,1.85,24.68,24.68,0,0,1-6.16-1.09s3.78,2,6.51,2S103.16,87.47,103.16,87.47Z"/><path class="cls-35" d="M54.73,120s-.11-1.85.55-2.51c0,0,4.69-2.51,6.33-4.25,0,0-4.8,3.38-9.93,3.27,0,0,1.2.65,1.85,1S54.73,120,54.73,120Z"/><path class="cls-36" d="M100.21,116.68a6.3,6.3,0,0,0-.74-2.42,24.22,24.22,0,0,1-4.66-3.56s3.56,2.85,6.77,2.23c0,0-.65.76-1,1.15S100.21,116.68,100.21,116.68Z"/><path class="cls-37" d="M77.13,70.33c-5.12-2.91.64-10.44,4.55-6.53A4,4,0,0,1,80,70.65,3.68,3.68,0,0,1,77.13,70.33Z"/><path class="cls-14" d="M27.12,100.1a17.66,17.66,0,0,1-2.24-6.7c-.11-2.19.61-4.47-.37-6.56a26.29,26.29,0,0,0-3.2-5.18c-1.63-2.06-3.91-3.82-6.53-2.23-2.43,1.47-2.78,5-2.62,7.54a74.43,74.43,0,0,0,1.23,8.92,31.91,31.91,0,0,0,2.23,8.17c1.63,3.3,4.49,5.8,6.51,8.82,1.36,2,4.88,1.87,6.8.79a3.36,3.36,0,0,0,.64-.5c.12-.11,0-.36.06-.18s.12.63.19.94c.29,1.28.63,2.55,1,3.8a20,20,0,0,0,4.28,7.79,111.33,111.33,0,0,0,12.18,11.61,70.56,70.56,0,0,0,18.16,10.42,28.34,28.34,0,0,0,22.6-.63c5.47-2.69,9.29-7.47,12-12.77,2.84-5.46,5.3-11.1,7.92-16.66,1.2-2.54,2.7-4.92,3.86-7.48a30.43,30.43,0,0,0,2.73-11.51,45.41,45.41,0,0,0-1.29-11c-.42-2-.89-3.91-1.33-5.87a19.24,19.24,0,0,1,0-6.29,9.72,9.72,0,0,0,0-2.47,27.88,27.88,0,0,0-.75-3,59.47,59.47,0,0,1-1.2-6.5c-.52-3.71-.68-7.44-1.87-11a39.1,39.1,0,0,0-4.41-9.05,18.59,18.59,0,0,0-6.54-6.53c-.8-.42-1.67-.63-2.49-1a26.57,26.57,0,0,0-4.16-1.35,15.84,15.84,0,0,0-2.36-.36,12.6,12.6,0,0,0-2.38.19c-1.18.13-2.38.23-3.57.3a18.18,18.18,0,0,1-4-.13c-1.51-.23-3-.49-4.53-.69a34.38,34.38,0,0,0-10.57-.12c-5.81,1-12.05,3.06-16.14,7.52-2.55,2.78-3.51,6.54-4.52,10.07-.64,2.24-1,4.92-2.6,6.73-.65.75-1.5,1.32-2.2,2a35.19,35.19,0,0,0-2.85,3.26,41.51,41.51,0,0,0-5.64,9.25,20.19,20.19,0,0,0-1.46,4.88,12.61,12.61,0,0,0,0,3.19A35.9,35.9,0,0,1,28,85.72c-.12,1.89-.55,3.76-.8,5.63-.38,2.9,0,5.85-.15,8.77,0,.08.12.08.13,0C27.28,97,27,94,27.41,90.9c.25-1.78.65-3.55.76-5.35A34.47,34.47,0,0,0,28,80.47a12.08,12.08,0,0,1,.1-3.55,21.69,21.69,0,0,1,1.81-5.24,43.07,43.07,0,0,1,6-9.22,27.4,27.4,0,0,1,2.66-2.83,13,13,0,0,0,2-1.94C41.94,55.75,42.3,53,43,50.77a39.9,39.9,0,0,1,2.16-6.23,13.82,13.82,0,0,1,3.08-4.08A23.85,23.85,0,0,1,57,35.58a38.17,38.17,0,0,1,8.11-1.86c3.82-.41,7.74.23,11.51.83a26.64,26.64,0,0,0,3.33.45,35.08,35.08,0,0,0,4.8-.24,23.8,23.8,0,0,1,3.48-.3,18.1,18.1,0,0,1,5.11,1.19,18.3,18.3,0,0,1,6.35,3.28,28.39,28.39,0,0,1,6.07,8.48,31.26,31.26,0,0,1,3.1,8.73c.39,2.25.54,4.55.85,6.81a67.09,67.09,0,0,0,1.17,6.63c.21.91.52,1.79.73,2.7a9.29,9.29,0,0,1,.13,3.11,21,21,0,0,0-.06,5.82c.72,3.87,1.84,7.65,2.38,11.56a31,31,0,0,1-.46,11.68,32.54,32.54,0,0,1-2.38,6.46c-.7,1.46-1.57,2.82-2.31,4.26-2.59,5.08-4.79,10.37-7.27,15.51C99,136,96.16,141.15,91.25,144.74c-7,5.09-16.18,5.72-24.22,3.14a54,54,0,0,1-7.35-3.12,70.33,70.33,0,0,1-10.78-6.67,96.46,96.46,0,0,1-13-12,24.3,24.3,0,0,1-2.15-2.49,20.82,20.82,0,0,1-2.35-4.78,35.87,35.87,0,0,1-1.63-6,.09.09,0,0,0-.15,0c-1,1.27-2.93,1.49-4.46,1.38a5.13,5.13,0,0,1-2.16-.62,5.12,5.12,0,0,1-1.27-1.53c-2.15-2.83-5-5.48-6.32-8.83a44.86,44.86,0,0,1-2.18-9,50.78,50.78,0,0,1-1-8.32c0-3.06,1.23-6.89,4.83-7a4.73,4.73,0,0,1,3.07,1.64,18.08,18.08,0,0,1,2.5,3.21,11.38,11.38,0,0,1,2.27,5.68c.07,1.88-.37,3.71.07,5.57a24.94,24.94,0,0,0,2,5.13S27.14,100.14,27.12,100.1Z"/><path class="cls-38" d="M27,104.1c-2.83-.84-3.22-4.27-3.25-6.73s.19-5-.72-7.38c-1.42-3.73-4.92-9.88-9.66-6.91,0,0,0,.07,0,0a4.31,4.31,0,0,1,5.05.69.1.1,0,0,0-.09.16,7.17,7.17,0,0,1,.31,7.6c-.6.94-1.47,1.53-1.59,2.72a36,36,0,0,0,.2,4,0,0,0,0,0,.05,0,26.93,26.93,0,0,1-.13-4.21c.21-1.36,1.62-2.2,2.15-3.45a7.47,7.47,0,0,0,.43-3.72A5.44,5.44,0,0,0,18.67,84a9.47,9.47,0,0,1,1.2,1.25,16.64,16.64,0,0,1,3.36,6.57c.54,2.52.12,5.14.41,7.69.23,2,1.09,4.29,3.25,4.77A.11.11,0,1,0,27,104.1Zm-2.81,1.51c-1.49.16-3-1.74-3.7-2.83-1-1.46-.53-2.93-.45-4.55a18.16,18.16,0,0,1,.37-3.68c.11-.44.34-1,.88-1,.8,0,1.6,1.2,2,1.74.06.08.2,0,.14-.08-.48-.62-1.86-2.57-2.8-1.51s-.68,2.83-.74,4c-.08,1.84-.61,3.59.44,5.25a9.47,9.47,0,0,0,2,2.2,2.24,2.24,0,0,0,1.83.68C24.23,105.73,24.22,105.6,24.14,105.61Z"/><path class="cls-39" d="M69,105.88s0-.11-.06-.07a4.23,4.23,0,0,0-1.18,4.92A5.7,5.7,0,0,0,71.91,114s0,0,0,0C68.56,112.88,66.54,108.82,69,105.88Zm1.57,5.82a0,0,0,0,0,.07.07c2.45-2.1,6.63-.16,9,1.3,0,0,.06,0,0,0C77.31,111.32,73.05,109.15,70.57,111.7Zm18.68-1.08s0-.05,0-.06a2.73,2.73,0,0,0-2,0,4.15,4.15,0,0,0,.38-.76c0-.09-.1-.13-.15-.06a7.74,7.74,0,0,1-5.82,3.56.09.09,0,0,0,0,.17,6.81,6.81,0,0,0,5.1-2.24A2.44,2.44,0,0,1,89.25,110.62Zm1-4.63s-.12,0-.11,0a17,17,0,0,1,.26,3.34,4.16,4.16,0,0,1-2.37,3.14c-.09,0,0,.17.08.13a4.16,4.16,0,0,0,2.59-2.68A6.63,6.63,0,0,0,90.29,106Zm-6-5.9a4.89,4.89,0,0,0,.83,1.64c.55.89,1.19,1.71,1.74,2.59a7.24,7.24,0,0,1,1,3.65,0,0,0,1,0,0,0,6.9,6.9,0,0,0-.56-3,17.07,17.07,0,0,0-1.7-2.68c-1.49-2.23-1.14-4.88-1.66-7.4,0,0-.05,0,0,0,.15,1.21.08,2.42.14,3.63A10.64,10.64,0,0,0,84.33,100.09Z"/><path class="cls-40" d="M59.64,124.12s6.44,5.12,9.16,6.43a21.3,21.3,0,0,0,10,2.4c3.6-.22,9.6-.76,11.89-3,1.76-1.76,3.27-5.13,4.91-6.11l-4.15-.55-5.67.77-10.36.21-8.51.55Z"/><path class="cls-41" d="M91.49,123.24l-5.67.77-10.36.21-8.51.55-7.31-.65s1.17.92,2.71,2.09c1.67.16,13.47,1.25,19.54.85a76.44,76.44,0,0,0,12.19-1.71,6,6,0,0,1,1.56-1.56Zm.87,4.26c-1,1.09-3.81,2.94-10.9,4.14-6.55,1.11-13.29-1.6-14.27-2a17,17,0,0,0,1.61.93,21.3,21.3,0,0,0,10,2.4c3.6-.22,9.6-.76,11.89-3a19,19,0,0,0,2.08-2.72A1.18,1.18,0,0,0,92.36,127.5Z"/><path class="cls-42" d="M69.68,128.91a37.39,37.39,0,0,1,8.07-.87c5.23-.11,13.31-1.52,13.52-1s-2.29,2.62-9.49,3.71S72,130,69.68,128.91Z"/><path class="cls-41" d="M96.29,122.53c-3,1.67-6.25-2.43-9.32-2.12A18.75,18.75,0,0,0,82.38,122,15.58,15.58,0,0,0,77,120.9c-2.12.16-5.88,1.47-11.28,2.62a14.64,14.64,0,0,1-9.33-1c2.78,2,6.71,2.46,10.14,2.79,3.25.3,9-.7,12.5.3l.76.51a8,8,0,0,0,4.35-.74l.88-.07c3.27-.5,5.4-.17,9.49-1.31,2.49-.7,3.93-1.8,5.56-4.58A23.94,23.94,0,0,1,96.29,122.53Z"/><path class="cls-43" d="M79.63,125.72a13.34,13.34,0,0,0-5-.67c-2,0-4,.17-6,.22a33.08,33.08,0,0,1-6-.53,15.73,15.73,0,0,1-6.27-2.23s0,0,0,0a15,15,0,0,0,5.72,2.27,31.87,31.87,0,0,0,5.76.66c3.9,0,7.94-.77,11.74.41C79.69,125.93,79.73,125.76,79.63,125.72Zm5.17-.8a8.75,8.75,0,0,1-5,1.13c-.11,0-.11.16,0,.17a7.56,7.56,0,0,0,5.1-1.17A.07.07,0,0,0,84.8,124.92ZM100,119.4a11.51,11.51,0,0,1-2.87,3.26,12,12,0,0,1-3.59,1.49c-2.81.71-5.71.63-8.56,1.14,0,0,0,.06,0,0,3.1-.35,6.17-.35,9.21-1.15A10.26,10.26,0,0,0,96,123.7a7.19,7.19,0,0,0,1.5-.92,10.52,10.52,0,0,0,2.63-3.33C100.13,119.39,100.05,119.35,100,119.4Z"/><path class="cls-44" d="M69.53,106.42a1.09,1.09,0,0,0,1.21,1,1.82,1.82,0,0,0,1.7-1.71c.1-.8-.2-1.5-.8-1.61A2.57,2.57,0,0,0,69.53,106.42Z"/><path class="cls-45" d="M69.66,106.14a.89.89,0,0,0,1,.81A1.48,1.48,0,0,0,72,105.57c.08-.64-.16-1.21-.65-1.29A2.07,2.07,0,0,0,69.66,106.14Z"/><path class="cls-46" d="M70.35,105.28a.37.37,0,0,0,.41.34.6.6,0,0,0,.57-.58c0-.27-.06-.51-.27-.54S70.35,104.84,70.35,105.28Z"/><path class="cls-47" d="M37.72,81.47c1.6-2.65,4.8-3.75,7.71-4.18a24,24,0,0,1,9,.44s.05,0,0-.06c-5.41-1.76-13.53-1.89-16.7,3.79,0,0,0,0,0,0Z"/><path class="cls-48" d="M106.84,80.55c-2.7-5.22-9.51-5.3-14.34-3.27,0,0,0,.07,0,0,4.55-1.5,11.62-1.53,14.31,3.23a0,0,0,0,0,0,0Z"/><path class="cls-49" d="M33,74.38a23,23,0,0,1,12.43-2.62c6.77.65,11.13,2.18,14.62,2.4a68.22,68.22,0,0,0,7.2,0,9,9,0,0,0-1.53-2.62S68.37,72.85,69,74.6a9.5,9.5,0,0,0-3.49-4.8s-5.45-.88-9.38-1.75-3.49-2.18-7.2-1.53c0,0,2.4.11,3.38,1.09,0,0-2.29-.43-4.79-.87s-5.35.66-7.86,2.07C39.68,68.81,35.21,70.67,33,74.38Z"/><path class="cls-50" d="M111,74.38s-4-3.28-8.71-2.62-7.79,2.18-10.23,2.4a33.47,33.47,0,0,1-5,0,10.52,10.52,0,0,1,1.07-2.62,6.54,6.54,0,0,0-2.29,3.06,10.4,10.4,0,0,1,2.44-4.8s3.82-.88,6.57-1.75,2.44-2.18,5-1.53a3.57,3.57,0,0,0-2.37,1.09s1.61-.43,3.36-.87,3.74.66,5.5,2.07A12.6,12.6,0,0,1,111,74.38Z"/><path d="M56.19,87.44s-11.77,6.13-20.13-4.8a9.36,9.36,0,0,0,4.56-.4c2.23-.85,10.49-5.85,17.75,1.88L53.81,86.5Z"/><path class="cls-51" d="M40.88,85.17c4.36,4.71,11.84,3.89,17.85,1.22l1.63-.14L59.27,85c-3.8-5.74-15.08-5.24-19.24-.27Z"/><path class="cls-52" d="M53.2,83.61A4.53,4.53,0,0,0,52.14,81a16,16,0,0,0-7.6.76,4.6,4.6,0,0,0,2.54,6.56,14,14,0,0,0,2.35.19A4.62,4.62,0,0,0,53.2,83.61Z"/><path class="cls-53" d="M49,88.08a4.09,4.09,0,0,0,3.72-4.43,4,4,0,0,0-1.37-2.71,16.16,16.16,0,0,0-6,.59A4.09,4.09,0,0,0,49,88.08Z"/><path d="M51,83.8a2.41,2.41,0,1,1-2.61-2.2A2.42,2.42,0,0,1,51,83.8Z"/><path class="cls-54" d="M50.3,83.86a1.71,1.71,0,1,1-1.85-1.56A1.71,1.71,0,0,1,50.3,83.86Z"/><path class="cls-51" d="M49.41,81.92a1,1,0,1,1-1.07-.9A1,1,0,0,1,49.41,81.92Z"/><path class="cls-51" d="M49.27,86.31a.48.48,0,0,1-.43.52.49.49,0,0,1-.52-.44.48.48,0,0,1,.44-.51A.47.47,0,0,1,49.27,86.31Z"/><path d="M59.29,85c-2-3.09-5.8-4.26-9.33-4.33-3.69-.07-7.56,1.14-10,4.06,0,0,0,.05,0,0,2.31-2.57,6.24-3.57,9.57-3.69,3.53-.12,7.5,1,9.63,4A0,0,0,0,0,59.29,85Zm-.57,1.35c-1.51.5-2.95,1.11-4.5,1.5a20,20,0,0,1-4.81.62,11.58,11.58,0,0,1-8.52-3.32s0,0,0,0A11.29,11.29,0,0,0,49,88.61a18.43,18.43,0,0,0,4.85-.5,19,19,0,0,0,4.93-1.69S58.75,86.35,58.72,86.36Z"/><path d="M91.29,86.85s10.35,5.2,16.74-6.33a6.78,6.78,0,0,1-3.89,0c-1.94-.68-9.25-5-14.9,3.24l4,2Z"/><path class="cls-51" d="M104.11,83.41c-3.4,5-9.78,4.79-15,2.59l-1.39,0,.85-1.3c2.85-6,12.44-6.38,16.28-1.75Z"/><path class="cls-55" d="M100.29,82.86a4.75,4.75,0,0,0-1.25-3,11.24,11.24,0,0,0-7.17,1.24,4.72,4.72,0,0,0-.4,2.23,4.66,4.66,0,0,0,2.75,4,13.8,13.8,0,0,0,3.4,0A4.6,4.6,0,0,0,100.29,82.86Z"/><path class="cls-56" d="M96.12,87.2a4,4,0,0,0,3.66-4.31,4.14,4.14,0,0,0-1.62-3.08,11.29,11.29,0,0,0-5.46.92A4.13,4.13,0,0,0,92,83.35,4,4,0,0,0,96.12,87.2Z"/><path d="M98.18,83a2.31,2.31,0,1,1-2.44-2.27A2.37,2.37,0,0,1,98.18,83Z"/><path class="cls-57" d="M97.51,83a1.63,1.63,0,1,1-1.73-1.6A1.67,1.67,0,0,1,97.51,83Z"/><path class="cls-51" d="M96.7,81.06a.94.94,0,1,1-1-.93A1,1,0,0,1,96.7,81.06Z"/><path class="cls-51" d="M96.47,85.45a.46.46,0,0,1-.42.5.47.47,0,0,1-.48-.45.45.45,0,1,1,.9,0Z"/><path d="M88.55,84.7A9.18,9.18,0,0,1,96.46,80c2.82-.14,6.21.56,8.33,3,0,0,0,0,0,0a9.56,9.56,0,0,0-8.68-3.28,9.21,9.21,0,0,0-7.63,5S88.54,84.73,88.55,84.7ZM89.06,86a14.24,14.24,0,0,0,4.28,1.31,13.37,13.37,0,0,0,4.14.12,9.24,9.24,0,0,0,6.64-4s0,0,0,0a9.37,9.37,0,0,1-7,4A14.61,14.61,0,0,1,93,87.12c-1.33-.27-2.59-.77-3.9-1.15C89.05,86,89,86,89.06,86Z"/></g></g></svg>