<svg xmlns="http://www.w3.org/2000/svg" xmlns:xlink="http://www.w3.org/1999/xlink" viewBox="0 0 126.87 165.13"><defs><style>.cls-1{fill:url(#linear-gradient);}.cls-2{fill:url(#linear-gradient-2);}.cls-3{fill:url(#linear-gradient-3);}.cls-4{fill:url(#linear-gradient-4);}.cls-5{fill:url(#linear-gradient-5);}.cls-6{fill:url(#linear-gradient-6);}.cls-7{fill:url(#linear-gradient-7);}.cls-8{fill:#e6926f;}.cls-9{fill:url(#radial-gradient);}.cls-10{fill:url(#radial-gradient-2);}.cls-11{fill:url(#linear-gradient-8);}.cls-12{fill:url(#radial-gradient-3);}.cls-13{fill:url(#linear-gradient-9);}.cls-14{fill:url(#linear-gradient-10);}.cls-15{fill:url(#linear-gradient-11);}.cls-16{fill:url(#linear-gradient-12);}.cls-17{fill:url(#linear-gradient-13);}.cls-18{fill:url(#linear-gradient-14);}.cls-19{fill:url(#linear-gradient-15);}.cls-20{fill:url(#linear-gradient-16);}.cls-21{fill:url(#linear-gradient-17);}.cls-22{fill:url(#linear-gradient-18);}.cls-23{fill:url(#linear-gradient-19);}.cls-24{fill:url(#linear-gradient-20);}.cls-25{fill:#813d23;}.cls-26{fill:#f36553;}.cls-27{fill:#d85149;}.cls-28{fill:url(#radial-gradient-4);}.cls-29{fill:#a23d25;}.cls-30{fill:url(#linear-gradient-21);}.cls-31{fill:url(#linear-gradient-22);}.cls-32{fill:url(#linear-gradient-23);}.cls-33{fill:url(#linear-gradient-24);}.cls-34{fill:#fff;}.cls-35{fill:url(#linear-gradient-25);}.cls-36{fill:url(#linear-gradient-26);}.cls-37{fill:url(#linear-gradient-27);}.cls-38{fill:url(#linear-gradient-28);}.cls-39{fill:url(#linear-gradient-29);}.cls-40{fill:url(#linear-gradient-30);}</style><linearGradient id="linear-gradient" x1="36.08" y1="-5.55" x2="36.08" y2="93.15" gradientUnits="userSpaceOnUse"><stop offset="0" stop-color="#270b04"/><stop offset="1"/></linearGradient><linearGradient id="linear-gradient-2" x1="24.39" y1="115.82" x2="24.39" y2="68.04" xlink:href="#linear-gradient"/><linearGradient id="linear-gradient-3" x1="77.69" y1="1.5" x2="77.69" y2="51.82" xlink:href="#linear-gradient"/><linearGradient id="linear-gradient-4" x1="78.05" y1="11.65" x2="69.48" y2="77.6" gradientUnits="userSpaceOnUse"><stop offset="0" stop-color="#35140b"/><stop offset="1" stop-color="#250e07"/></linearGradient><linearGradient id="linear-gradient-5" x1="82.31" y1="12.51" x2="74.12" y2="75.51" gradientUnits="userSpaceOnUse"><stop offset="0" stop-color="#4f1d10"/><stop offset="1" stop-color="#280f08"/></linearGradient><linearGradient id="linear-gradient-6" x1="77.67" y1="1.71" x2="77.67" y2="45.59" xlink:href="#linear-gradient"/><linearGradient id="linear-gradient-7" x1="70.81" y1="153.32" x2="70.81" y2="112.11" gradientUnits="userSpaceOnUse"><stop offset="0" stop-color="#e6926f"/><stop offset="1" stop-color="#b45a3d"/></linearGradient><radialGradient id="radial-gradient" cx="-555.13" cy="439.59" r="57.63" gradientTransform="matrix(0.24, -0.13, 0.16, 0.29, 112.33, -104.46)" gradientUnits="userSpaceOnUse"><stop offset="0" stop-color="#fdb091"/><stop offset="1" stop-color="#e6926f"/></radialGradient><radialGradient id="radial-gradient-2" cx="471.69" cy="60.96" r="57.63" gradientTransform="matrix(0.19, 0.06, -0.1, 0.32, 40.86, 46.4)" xlink:href="#radial-gradient"/><linearGradient id="linear-gradient-8" x1="57.99" y1="127.54" x2="119.21" y2="26.37" xlink:href="#linear-gradient-7"/><radialGradient id="radial-gradient-3" cx="-353.61" cy="342.38" r="28.66" gradientTransform="translate(239.81 19.35) scale(0.41 0.26)" gradientUnits="userSpaceOnUse"><stop offset="0" stop-color="#fda789"/><stop offset="1" stop-color="#e6926f"/></radialGradient><linearGradient id="linear-gradient-9" x1="91.42" y1="56" x2="91.42" y2="19.31" gradientUnits="userSpaceOnUse"><stop offset="0" stop-color="#e6926f"/><stop offset="1" stop-color="#fdb091"/></linearGradient><linearGradient id="linear-gradient-10" x1="84.12" y1="70.75" x2="84.12" y2="14.72" xlink:href="#linear-gradient-7"/><linearGradient id="linear-gradient-11" x1="66.7" y1="73.53" x2="66.7" y2="55.2" xlink:href="#linear-gradient-7"/><linearGradient id="linear-gradient-12" x1="113.46" y1="73.53" x2="113.46" y2="55.2" xlink:href="#linear-gradient-7"/><linearGradient id="linear-gradient-13" x1="93.38" y1="108.2" x2="93.38" y2="99.99" xlink:href="#linear-gradient-7"/><linearGradient id="linear-gradient-14" x1="95.69" y1="85.33" x2="95.69" y2="102.51" xlink:href="#linear-gradient-9"/><linearGradient id="linear-gradient-15" x1="103.19" y1="90.96" x2="96.46" y2="92.77" xlink:href="#linear-gradient-7"/><linearGradient id="linear-gradient-16" x1="83.56" y1="89.93" x2="92.22" y2="94.98" xlink:href="#linear-gradient-7"/><linearGradient id="linear-gradient-17" x1="25.15" y1="90.15" x2="36.37" y2="81.94" gradientUnits="userSpaceOnUse"><stop offset="0" stop-color="#d3815e"/><stop offset="1" stop-color="#a34d32"/></linearGradient><linearGradient id="linear-gradient-18" x1="31.26" y1="85.01" x2="40.48" y2="78.37" gradientUnits="userSpaceOnUse"><stop offset="0" stop-color="#a25032"/><stop offset="1" stop-color="#89371c"/></linearGradient><linearGradient id="linear-gradient-19" x1="93.51" y1="95.4" x2="93.51" y2="85.23" gradientUnits="userSpaceOnUse"><stop offset="0" stop-color="#8e452b"/><stop offset="1" stop-color="#e6926f"/></linearGradient><linearGradient id="linear-gradient-20" x1="29.96" y1="85.4" x2="36.6" y2="81.81" gradientUnits="userSpaceOnUse"><stop offset="0" stop-color="#8c4022"/><stop offset="1" stop-color="#742a10"/></linearGradient><radialGradient id="radial-gradient-4" cx="-48.38" cy="386.36" r="36.03" gradientTransform="translate(106.17 19.35) scale(0.26)" gradientUnits="userSpaceOnUse"><stop offset="0" stop-color="#ffa48d"/><stop offset="1" stop-color="#f36553"/></radialGradient><linearGradient id="linear-gradient-21" x1="67.1" y1="61.41" x2="67.1" y2="63.87" gradientUnits="userSpaceOnUse"><stop offset="0" stop-color="#46200f"/><stop offset="1" stop-color="#300f02"/></linearGradient><linearGradient id="linear-gradient-22" x1="-2074.02" y1="61.41" x2="-2074.02" y2="63.87" gradientTransform="matrix(-0.69, 0, 0, 1, -1319.34, 0)" xlink:href="#linear-gradient-21"/><linearGradient id="linear-gradient-23" x1="64.61" y1="60.86" x2="64.61" y2="64.47" gradientUnits="userSpaceOnUse"><stop offset="0" stop-color="#592213"/><stop offset="1" stop-color="#411207"/></linearGradient><linearGradient id="linear-gradient-24" x1="113.45" y1="61.15" x2="113.45" y2="64.46" xlink:href="#linear-gradient-23"/><linearGradient id="linear-gradient-25" x1="-0.24" y1="185.81" x2="-0.24" y2="179.18" gradientTransform="matrix(0.99, -0.14, 0.14, 0.99, 40.58, -104.36)" gradientUnits="userSpaceOnUse"><stop offset="0" stop-color="#39140a"/><stop offset="1"/></linearGradient><linearGradient id="linear-gradient-26" x1="-0.24" y1="185.81" x2="-0.24" y2="179.18" gradientTransform="matrix(0.99, -0.14, 0.14, 0.99, 40.58, -104.36)" gradientUnits="userSpaceOnUse"><stop offset="0.01" stop-color="#652312"/><stop offset="1" stop-color="#210000"/></linearGradient><linearGradient id="linear-gradient-27" x1="-0.24" y1="182.54" x2="-0.24" y2="184.25" gradientTransform="matrix(0.99, -0.14, 0.14, 0.99, 40.58, -104.36)" gradientUnits="userSpaceOnUse"><stop offset="0"/><stop offset="1" stop-color="#77726d"/></linearGradient><linearGradient id="linear-gradient-28" x1="77.59" y1="110.92" x2="77.59" y2="104.29" gradientTransform="matrix(1, -0.06, 0.06, 1, 26.56, -26.94)" xlink:href="#linear-gradient-25"/><linearGradient id="linear-gradient-29" x1="77.59" y1="110.92" x2="77.59" y2="104.29" gradientTransform="matrix(1, -0.06, 0.06, 1, 26.56, -26.94)" xlink:href="#linear-gradient-26"/><linearGradient id="linear-gradient-30" x1="77.59" y1="107.65" x2="77.59" y2="109.37" gradientTransform="matrix(1, -0.06, 0.06, 1, 26.56, -26.94)" xlink:href="#linear-gradient-27"/></defs><g id="Layer_2" data-name="Layer 2"><g id="_13_Face" data-name="13_Face"><path d="M126.23,82.77c-.09-.6-.18-1.23-.24-1.83a32.14,32.14,0,0,1-.06-6.19c.09-.91.26-1.84.43-2.74a19.84,19.84,0,0,0,.5-4.18,8.5,8.5,0,0,0-.18-1.65c-.08-1.56-.27-3.12-.46-4.64-.12-.92-.24-1.87-.33-2.79l-.07-.7a27.48,27.48,0,0,1-.21-4.14c.06-1.39.06-2.8.06-4,0-5.06-.54-11.41-4.37-15.63a.45.45,0,0,0-.13-.11l-.08-.17a.67.67,0,0,0,0-.42,27.53,27.53,0,0,0-1.22-2.78l-.39-.79c-.71-1.5-1.4-2.82-2.11-4a16.9,16.9,0,0,0-5.59-6.17.55.55,0,0,0-.28-.09.46.46,0,0,0-.23.06h-.35a6.81,6.81,0,0,0-1.55-2.49,4.94,4.94,0,0,0-1.26-1,2.31,2.31,0,0,0-.52-.23c-.27-.1-.4-.15-.48-.29a16.82,16.82,0,0,0-3.79-3.92A26.21,26.21,0,0,0,98,8.54a11.34,11.34,0,0,0-4.82-1.29H92.7l-.14,0-.19,0a.34.34,0,0,0-.08-.09,5.93,5.93,0,0,0-3.83-1.54,3.56,3.56,0,0,0-1.89.51A19.76,19.76,0,0,0,79.34,4a18.36,18.36,0,0,0-1.93-.1A10.81,10.81,0,0,0,71.5,5.42a.58.58,0,0,0-.12.1L71,5.69h-.15c-.82.05-1.89.12-3,.26-2.21-.94-5-2.24-7.46-3.38C59.1,1.93,57.82,1.34,56.72.84A16.93,16.93,0,0,0,50.63,0C45.15,0,17.26,1.7,5.44,35.16-.16,51-1.45,69.71,1.63,90.69a185.93,185.93,0,0,0,10.8,40.36c6.38,15.95,1.8,26.56,1.75,26.67a.48.48,0,0,0,.07.5.47.47,0,0,0,.38.19h.09c1.28-.22,3.1-.42,5.4-.59l.47,0h.2l.34,0h1.68l.24,0h.17l.76,0,.77,0c9.93.36,28.3,5.47,28.5,5.52a73.08,73.08,0,0,0,17.6,2,89.36,89.36,0,0,0,24.28-3.36l.07,0c13.5-6.74,22.67-7.47,22.76-7.48a.47.47,0,0,0,.45-.43.48.48,0,0,0-.33-.52c-10.51-3.41-17.77-9.3-21.61-17.53a11,11,0,0,0,3.44-1c2.92-1.41,5.09-3.95,7-6.49a104.69,104.69,0,0,0,6.47-10.15l.69-1.17.64-1.08c2.32-4,4.73-8,6.72-12.29a66.44,66.44,0,0,0,4-10.69,23.77,23.77,0,0,0,1.08-7.17A29.59,29.59,0,0,0,126.23,82.77ZM43.52,99.29a.61.61,0,0,0,.29-.17,45.48,45.48,0,0,1,1.84,4.79l.3.87.19.56A26.14,26.14,0,0,0,47.63,109l.06.1c.17,1.78,1.8,21-4.26,34.3a22.57,22.57,0,0,1-6.73,8.68c3.77-11,2.9-39.36,2.28-52h.1A14.52,14.52,0,0,0,43.52,99.29ZM16,130.94c-1.54-4.22-4.78-13.48-7.17-22.88C6.59,99.45,5.28,84.8,4.65,76.19l5.58,26.64c.49,2.36,1.15,5.2,1.85,8.21C13.69,118,15.63,126.38,16,130.94Z"/><path class="cls-1" d="M71.57,7.83c-2.18-.44-10.25-4.36-15-6.54s-37.74-2.4-50.61,34,.43,79.19,7,95.55,1.74,27,1.74,27a100.13,100.13,0,0,1,10.69-.87l9.16-1.75c7.2-8.07,3.71-60.64,3.71-60.64S73.75,8.27,71.57,7.83ZM16.38,133.49a254.93,254.93,0,0,1-8.07-25.31C5,95.31,3.73,69.35,3.73,69.35l7,33.38C12.67,112.11,17.25,129.12,16.38,133.49Z"/><path class="cls-2" d="M20.09,157.32c1.49-.11,2.89-.18,3.87-.22A224.23,224.23,0,0,0,13.54,98.15C19.57,123.43,20.06,151,20.09,157.32ZM30.56,98.15C26.3,79.17,23,54,23,54s-3.6,28.14-1.64,44.83c1.78,15.11,4.09,51.38,4.52,58.14l1.41-.27c-.45-9.24-1.3-26.44-2-35.94A183.68,183.68,0,0,1,26,92.26s5.89,40,4.08,63.88l2.79-.53C37.5,137.2,34.63,116.33,30.56,98.15Zm.32,8.5c5.57,19,2.29,38.29,2.29,38.29C32.52,133.49,30.88,106.65,30.88,106.65Z"/><path class="cls-3" d="M125,54.3c.21-6.11.21-14.84-4.15-19.64l-.44-.87c-2-4.14-4.8-10.91-8.94-13.52H110.4c-.65-1.75-2-3.49-3.71-3.71-2-3.49-9.6-8.95-14-8.73l-.87-.22c-1.53-1.09-3.93-2-5.24-.65C82.91,4.78,75.71,3.47,71.79,5.87l-.88.44c-3,.43-8.5.87-10,3.92A19,19,0,0,0,52.81,15l-.66.44c-1.52.22-2.83.87-3.27,2.4-2.62,1.09-7.2,3.27-7.42,6.32-2.18,1.31-5,3.49-5.45,6.11l-.44.87c-2,1.31-3.7,3.28-3.49,5.68-2.18,2.18-2,5-2,7.85l.22.65c-.87,3.28-1.53,6.77-.22,10.26a4.63,4.63,0,0,0,.22,4.14l.22.87c-.66,2.84.22,6.33.87,8.95a8.92,8.92,0,0,0,.22,4.8s3.92,9.16,6.54,10,12.22.44,15.05-1.31,6.77-7.2,8.51-11.34l64.25-3C126,63.24,124.8,59.53,125,54.3Z"/><path class="cls-4" d="M33.37,71c-1-1.07.17-1.5,0-2.12-.19-1-.85-1.85-1.16-2.84-.8-2.57.65-3.46.93-5.67.2-1.51-1-3.47-1.27-5a7.37,7.37,0,0,1,.44-3.55c.44-1.72.59-1.39.22-3.27-.52-2.66-.6-6.08.55-8.57a11.41,11.41,0,0,1,2.68-3.22c.34-.33,1.06-.48,1.32-.81s0-.94.19-1.37c.87-1.52,1-2.91,1.81-4.58,1.26-2.67,3.4-4.2,5.79-5.94a23.62,23.62,0,0,0,3.31-3.43c1.19-1.21,2.85-1.83,4.21-2.78,3.12-2.19,6.14-6.23,10.38-6.2.68-2.65,4.36-2.62,6.59-2.8a16.52,16.52,0,0,1,3-.18c2.13.22,1.93,0,3.76-.65,3.74-1.39,8.39-.33,12,1.1,1,.37,2.11,1.48,3,1.65s2.11-.4,3-.35a9.2,9.2,0,0,1,6.6,2.74c1.4,1.55,2.2,3.86,3.75,5.07.67.52,1.53.57,2.35,1.08,1.07.66,1.32,1.86,2.24,2.57,1.3,1,3,1.07,4.47,2.5,2.2,2.16,3.83,4.91,5.84,7.26-1.89-4.06-4.46-9.24-8-11.45H110.4c-.65-1.75-2-3.49-3.71-3.71-2-3.49-9.6-8.95-14-8.73l-.87-.22c-1.53-1.09-3.93-2-5.24-.65C82.91,4.78,75.71,3.47,71.79,5.87l-.88.44c-3,.43-8.5.87-10,3.92A19,19,0,0,0,52.81,15l-.66.44c-1.52.22-2.83.87-3.27,2.4-2.62,1.09-7.2,3.27-7.42,6.32-2.18,1.31-5,3.49-5.45,6.11l-.44.87c-2,1.31-3.7,3.28-3.49,5.68-2.18,2.18-2,5-2,7.85l.22.65c-.87,3.28-1.53,6.77-.22,10.26a4.63,4.63,0,0,0,.22,4.14l.22.87c-.66,2.84.22,6.33.87,8.95a8.92,8.92,0,0,0,.22,4.8A49.24,49.24,0,0,0,36,82.43l-3.3-7.63C32.65,73.5,32,71.88,33.37,71Z"/><path class="cls-5" d="M54.12,55.69a35.66,35.66,0,0,0-7.34,1.68A23.37,23.37,0,0,1,39,58.44c-3.43-.22-6.25-1.94-9.12-3.59,0,.09.05.17.08.25,2.74,1.73,5.42,3.52,8.75,3.86a19.81,19.81,0,0,0,7.71-1,76.47,76.47,0,0,1,7.74-2A.13.13,0,0,0,54.12,55.69Zm-1.88-4.51a.18.18,0,0,0-.18-.31c-6.63,3.41-15.33,6.69-22.32,3.49,0,.16.08.31.12.46C36.79,58.11,45.87,54.8,52.24,51.18Zm-12.41.32c2.57.06,5.18.07,7.74-.09.27,0,.6-.39.85-.53a5.67,5.67,0,0,1,1.74-.58,17.36,17.36,0,0,1,3.3-.19.18.18,0,0,0,0-.35c-1.9,0-3.94,0-5.61,1.06a2.4,2.4,0,0,1-1.43.24l-2.07,0c-1.31,0-2.61,0-3.92,0a26.48,26.48,0,0,1-7.56-1c-1.1-.36-2.2-.75-3.3-1.09a2.54,2.54,0,0,0,0,.29c1.08.38,2.15.81,3.23,1.19A22,22,0,0,0,39.83,51.5ZM35.53,49a5.74,5.74,0,0,0,.93,0l1.19.11c2.82.24,5.86.65,8.66,0,2.54-.54,4.65-2.28,7-3.33.09,0,0-.17-.07-.14-2.36,1-4.44,2.66-7,3.26a16.19,16.19,0,0,1-4.4.22c-1.5-.05-3-.2-4.5-.33a4.13,4.13,0,0,1-2.13-.52c-.53-.37-1.07-.7-1.63-1a23.72,23.72,0,0,0-3.39-1.46c0,.18-.09.37-.13.55A26.92,26.92,0,0,1,33.82,48,10.4,10.4,0,0,0,35.53,49ZM57,44.19c-1.24,0-2.48.1-3.73.1a10.12,10.12,0,0,1-4-.94c-1.1-.48-2.13-1.13-3.2-1.69a21.34,21.34,0,0,0-3.57-1.27c-3.52-1.06-6.84-2.76-10.34-3.85a.34.34,0,0,0,0,.1c3.56,1.18,6.93,3,10.47,4.24a24.89,24.89,0,0,1,3.63,1.48,28.69,28.69,0,0,0,3.24,1.72,10.48,10.48,0,0,0,3.53.8c1.33.06,2.67-.07,4-.11A.29.29,0,0,0,57,44.19Zm2.62-5.27c-5.4.21-10.8,1-16.17-.06a59.28,59.28,0,0,1-7.54-2.36c-1.2-.42-2.4-.87-3.62-1.29a4.13,4.13,0,0,0-.13.61L35.72,37a60.59,60.59,0,0,0,7.94,2.08c5.24,1,10.63.27,15.91.05A.1.1,0,1,0,59.57,38.92Zm-3.19-1.78a1.37,1.37,0,0,0-.28.52.2.2,0,0,0,.09.24c.19.13.75.16.84.34s.36,0,.3-.13a.51.51,0,0,0-.21-.25c-.4-.29-.89,0-.24-.65a.2.2,0,0,0,0-.33c-4.09-2-8.56-.86-12.88-.74A17.56,17.56,0,0,1,37.12,35c-1.32-.5-2.61-1.07-3.92-1.6,0,0,0,0,0,0,3.24,1.33,6.35,2.91,9.95,3.09C47.57,36.7,52.14,35.23,56.38,37.14Zm11.23-5.36c-5,3.08-11.29,2-16.86,2.09a30.45,30.45,0,0,1-9.11-1.08,41.2,41.2,0,0,1-4.16-1.49c-.55-.22-1.08-.47-1.61-.71l-.13.25,1.41.58A44.19,44.19,0,0,0,41.58,33a30.18,30.18,0,0,0,9.17,1.09c5.65-.11,11.89,1.06,16.92-2.23C67.73,31.84,67.67,31.75,67.61,31.78Zm8.32-4.36a26.66,26.66,0,0,1-5.13-.1c-1.61-.2-3.21-.55-4.83-.76a97.26,97.26,0,0,0-11.07-.33c-1.89,0-3.77-.09-5.65-.2a23.81,23.81,0,0,0-5.2-.08c-2.39.36-4.59,1.44-6.93,1.92L37,28c2.22-.38,4.34-1.31,6.55-1.76a20.31,20.31,0,0,1,5.34,0c2,.14,4,.2,6,.24s3.78,0,5.68,0c.89,0,1.77,0,2.66.07a26.63,26.63,0,0,1,2.94.53l1.36.28c-3.14,1-6.15,2.46-9.29,3.52a25,25,0,0,1-10.52,1.44c-4-.38-7.63-1.85-11.29-3.34-.06.12-.11.24-.16.37a45.9,45.9,0,0,0,11.17,3.21c7.19.85,13.9-2.54,20.38-5.14a23.47,23.47,0,0,0,8.17.52C76.3,27.89,76.23,27.4,75.93,27.42ZM79.42,26A48.15,48.15,0,0,1,69.87,24c-1.55-.43-3-1-4.62-1.25s-3.14-.58-4.7-1c-4-1.07-7.78-2.7-11.72-3.83l-.6.25c4.18,1.26,8.22,3,12.44,4.2,3.1.87,6.34,1,9.43,1.9a38.26,38.26,0,0,0,9.32,2C79.58,26.29,79.58,26,79.42,26ZM79,21.72a30.48,30.48,0,0,0-3.73-2.21c-1.37-.75-2.71-1.56-4.06-2.36S68.68,15.66,67.4,15,64.85,13.7,63.61,13a7.87,7.87,0,0,1-2.74-2.76l-.28.08A8.77,8.77,0,0,0,63,13c1.17.77,2.48,1.31,3.68,2s2.66,1.63,4,2.46,2.65,1.66,4,2.45,2.58,1.36,3.86,2.07c.56.31,1.17.58,1.7.94s1.23.91,1.84,1.36a35.23,35.23,0,0,0,3.65,2.39c.06,0,.11-.06.06-.09A81.15,81.15,0,0,1,79,21.72Zm6.31.23a13.74,13.74,0,0,0-3.44-3.05c-2.72-1.79-5.9-2.79-8.9-4-2.44-1-5-1.55-7.41-2.72a6.78,6.78,0,0,1-3.36-3.47l-.13.1a6.64,6.64,0,0,0,2.26,3c2,1.49,4.57,2.07,6.86,2.88a63.42,63.42,0,0,1,9.3,3.94,15.14,15.14,0,0,1,4.09,3.2c1.22,1.37,2,3,3.24,4.44.14.17.42-.05.29-.23C87.16,24.7,86.3,23.27,85.29,22Zm-4.91-10A56.16,56.16,0,0,0,73.56,7.8,28.49,28.49,0,0,1,71,6.24l-.13.07-.43.06c.61.45,1.24.86,1.87,1.25,2.26,1.43,4.68,2.59,6.91,4.07,5.1,3.4,7.59,9.06,10.38,14.27,0,.05.1,0,.07,0C87.19,20.93,85,15.42,80.38,11.92Zm12.46,11c-.3-1.14-.4-2.32-.61-3.47a25.71,25.71,0,0,0-1-3.57,28.88,28.88,0,0,0-5.18-9.2l-.4-.2a30,30,0,0,1,5.53,10A65.45,65.45,0,0,1,92.6,23.2a19.62,19.62,0,0,0,2.32,5.26c.15.28.58,0,.42-.25A21.25,21.25,0,0,1,92.84,22.91Zm1.84-2.3a30.33,30.33,0,0,1,1.84,6c0,.18.3.1.27-.08a26.9,26.9,0,0,0-1.54-5.84,61.44,61.44,0,0,0-2.49-6c-1.49-2.92-3.5-5.51-5.15-8.32a2,2,0,0,0-.34.12c1.47,2.72,3.43,5.18,4.85,7.93C93.13,16.42,93.85,18.56,94.68,20.61Zm2-4.23a75.92,75.92,0,0,0-4.81-8.76h0l-.25-.16c1.52,2.66,3.18,5.24,4.46,8a20.23,20.23,0,0,1,2,6.65A8.7,8.7,0,0,1,96.18,28c-.2.26.26.62.47.36C99.41,24.88,98.27,20.1,96.68,16.38Zm3.51.77a17.37,17.37,0,0,0-.71-4.7,18.28,18.28,0,0,0-1.14-3,5.6,5.6,0,0,0-.55-.27,16.67,16.67,0,0,1,2,7.46c0,1.85-.16,3.68,1.11,5.19.34.39.06.73-.08,1.19s-.3,1-.45,1.48a5.76,5.76,0,0,1-2,3.06c-.13.09,0,.3.12.21,2-1.41,2.43-3.54,3.27-5.7a.31.31,0,0,0-.07-.28C100.29,20.53,100.21,18.91,100.19,17.15ZM105,22.8c.55-2.35,1.38-4.54,1.28-6.92a2,2,0,0,0-.17-.23c.13,2.35-.67,4.53-1.28,6.82a2,2,0,0,0-.11,1.31,4.64,4.64,0,0,1,.14,1.66,5,5,0,0,1-1.63,3.12c-.28.28.14.67.43.43a5.11,5.11,0,0,0,1.64-2.81,4.41,4.41,0,0,0,.07-1.62C105.27,24,104.84,23.39,105,22.8Zm4.64,2.12a6.05,6.05,0,0,0,1.1-2.67,10.73,10.73,0,0,0,.16-2h-.47l0-.07a9.69,9.69,0,0,1-.49,2.94,3.75,3.75,0,0,1-2.07,2.41c-.53.21-.44.33-.4.87A2.38,2.38,0,0,1,106,28.7c-.11.05,0,.2.09.15a2.69,2.69,0,0,0,1.7-2.68A3.11,3.11,0,0,0,109.61,24.92Zm3.07.29a12.32,12.32,0,0,0,.81-3.28c-.12-.13-.25-.25-.37-.37-.36,2.91-1.28,6.35-4.16,4.88a.17.17,0,0,0-.18,0,7.43,7.43,0,0,0-1.08,1.16c-.1.11.06.28.17.17s.81-1.08,1.06-.94a3.25,3.25,0,0,0,.74.32,2.18,2.18,0,0,0,1.29,0A3.22,3.22,0,0,0,112.68,25.21Zm2.79,2.71a12.94,12.94,0,0,0,.89-2.17c-.13-.21-.26-.42-.4-.63-.7,2.91-2.07,5.82-5.3,5a.16.16,0,0,0-.08.31C112.79,31.08,114.47,29.82,115.47,27.92Zm-.38,4.19c.69-1.25,1.34-2.85,2.66-3.56l.14-.06-.14-.26h0a4.27,4.27,0,0,0-1.66,1.58c-.31.46-.58.95-.84,1.43s-.29.71-.92.61a2.5,2.5,0,0,1-1.22-.54c-.1-.09-.25.06-.15.15a3.31,3.31,0,0,0,2,.7A.13.13,0,0,0,115.09,32.11Zm7.17,4.44-.2-.32a6.48,6.48,0,0,1-1.7.86,13,13,0,0,1-5.38.47c-.18,0-.22.28,0,.31C117.13,38.31,120.32,38,122.26,36.55Zm-4.11-.94c.9-.37,1.69-.91,2.55-1.3l-.22-.43a12.75,12.75,0,0,0-1.19.56,8.27,8.27,0,0,1-2.08.93,2.86,2.86,0,0,1-2.19-.62,10.21,10.21,0,0,0,3.29-1.7l1.31-1-.14-.29c-1.55,1.12-3,2.35-5,2.71a.21.21,0,0,0-.09.35A3.28,3.28,0,0,0,118.15,35.61ZM46.94,60.88s0-.09,0-.07c-5,1.95-11.43,2.7-16.46.37,0,.1,0,.2,0,.29C35.48,63.8,42,63,46.94,60.88Zm-.24,3.57a.12.12,0,0,0,0-.23,99.78,99.78,0,0,1-11.34-.39,26.12,26.12,0,0,1-5-.95v.22a25.13,25.13,0,0,0,3.85.82A85.82,85.82,0,0,0,46.7,64.45ZM36,70.46a19.11,19.11,0,0,0,9.87-.41,0,0,0,0,0,0-.09,19.49,19.49,0,0,1-10,.19,29,29,0,0,1-4.35-1.48l-.25-.1c0,.13.06.26.1.38A30.52,30.52,0,0,0,36,70.46Zm11,4.16a.26.26,0,0,0,.24-.19,8.44,8.44,0,0,0,0-2.46.27.27,0,0,0-.33-.26,29.86,29.86,0,0,1-14.49.41l-1.15-.27c0,.17,0,.34,0,.51l.15,0a29.4,29.4,0,0,0,15.27-.1,7.56,7.56,0,0,1,0,1.84c-5.13.51-10.22-.23-15.32-.85,0,.11.05.22.07.33C36.6,74.23,41.72,74.94,46.92,74.62Zm1.63.94C45.22,78.32,40.2,79.09,36,79a19.59,19.59,0,0,1-2.24-.2l.17.31c.51.07,1,.12,1.53.16,4.42.29,9.79-.53,13.31-3.43C48.94,75.66,48.71,75.43,48.55,75.56Zm.31-10.88c-5.35,1.84-10.92,3.44-16.63,3-.43,0-.86-.08-1.28-.14l.15.66.68.09c5.86.59,11.84-1.11,17.15-3.47C49,64.81,49,64.65,48.86,64.68ZM77.9,27a48.48,48.48,0,0,1-10.3-1.55A45.32,45.32,0,0,0,63,24.53c-1.74-.22-3.51-.24-5.26-.38-5.19-.43-10.41-1.42-15.63-1.76a4.4,4.4,0,0,0-.29.51c1.9.17,3.81.37,5.71.64,3.3.45,6.58.95,9.9,1.22,1.65.13,3.31.11,5,.24,1.82.14,3.64.42,5.44.72,3.35.55,6.63,1.37,10.06,1.37A.06.06,0,0,0,77.9,27Zm7.5.57a62.35,62.35,0,0,0-8.49-4.64,42.53,42.53,0,0,0-9.33-3c-3.31-.71-6.77-.84-10-2-1.93-.67-3.74-1.61-5.59-2.44h-.07c1.79.82,3.54,1.74,5.38,2.45a58.34,58.34,0,0,0,9.84,2.39,45,45,0,0,1,9.49,3c3,1.31,5.69,3.05,8.59,4.47A.17.17,0,0,0,85.4,27.54ZM82.07,11.88c-2.88-2-6.6-3.83-8.66-6.75L73,5.26c1.82,2.67,5.11,4.51,7.69,6.25a29.52,29.52,0,0,1,6.73,6.28,53.43,53.43,0,0,1,5.14,8.44c.09.17.34,0,.26-.15C90.23,20.61,87.13,15.43,82.07,11.88Zm40.59,38.06a11.52,11.52,0,0,0,2.42,0c0-.17,0-.34,0-.51l-1,.11a7.6,7.6,0,0,1-4.37-.87,7.92,7.92,0,0,1-2.9-3.81c-.15-.32-.87-1.53-.54-1.71.51-.29,1.05-.55,1.58-.82,1.2-.6,2.4-1.2,3.54-1.9a12.27,12.27,0,0,0,2-1.55s0-.1-.07-.16c-2,2-5.29,3.08-7.53,4.34a.14.14,0,0,0,0,.19,17.7,17.7,0,0,0,2.5,4.63A6.55,6.55,0,0,0,122.66,49.94Zm-5,4.3A28.76,28.76,0,0,1,125.06,53v-.46a22.22,22.22,0,0,0-7.56,1.41C117.34,54,117.46,54.31,117.64,54.24Z"/><path class="cls-6" d="M31.34,70.68c.05-.52.38-.91.27-1.42s-.23-1-.34-1.53a17.46,17.46,0,0,1-.48-7c.05-.3-.39-.43-.47-.13a15.34,15.34,0,0,0,.29,6.77c.12.53.24,1.06.38,1.58a6.14,6.14,0,0,1,.1,2,9.19,9.19,0,0,0,.53,3.41s.06,0,.05,0A12,12,0,0,1,31.34,70.68Zm-1-10.91s.09,0,.07,0c-.45-1-1-3-.1-4a.21.21,0,0,0,.06-.21,14,14,0,0,1-.64-5.3c.11-1.66.64-3.25.78-4.9a.13.13,0,0,0-.25-.06,15.15,15.15,0,0,0-1,7.33,10.66,10.66,0,0,0,.33,1.86c.08.3.18.59.28.89.17.45-.06.83-.11,1.25A5.31,5.31,0,0,0,30.3,59.77ZM35.46,31a7.38,7.38,0,0,0-2.61,2.39,6.1,6.1,0,0,0-.79,1.52,4.9,4.9,0,0,0-.21.92c-.06.42.07,1-.24,1.34C29.8,39.22,30,42.14,30,44.7a.09.09,0,0,0,.17,0c0-1.19,0-2.38.12-3.56a9.28,9.28,0,0,1,.41-1.88,3.86,3.86,0,0,1,1.47-2.2.27.27,0,0,0,.12-.21,5.07,5.07,0,0,1,1-3.21,16.09,16.09,0,0,1,2.43-2.31C35.93,31.15,35.68,30.88,35.46,31ZM52.15,15.41a4.26,4.26,0,0,0-2.44.89,3.07,3.07,0,0,0-.73.84c-.07.11-.17.52-.32.56s-.38.13-.57.21a17.72,17.72,0,0,0-5.24,3.19,5.56,5.56,0,0,0-1.46,2.15c-.06.15-.07.85-.18.93-.5.36-1,.66-1.53,1-1.7,1.25-3.38,2.91-3.77,5.06,0,.13.17.19.2.06.44-2.16,2.2-3.77,3.91-5,.53-.38,1.58-.72,1.74-1.4a4.7,4.7,0,0,1,1.34-2.28,15.52,15.52,0,0,1,4.75-3,7,7,0,0,0,1-.48c.37-.25.34-.6.55-1,.55-1.05,1.75-1.32,2.78-1.62A.06.06,0,0,0,52.15,15.41ZM70.91,6.17c-2.92.16-6.6.51-9,2.41a6.73,6.73,0,0,0-.77.74c-.19.23-.35.66-.62.78-1,.41-2,.71-2.93,1.2A22.13,22.13,0,0,0,52.76,15c-.07.06,0,.16.1.1a25.46,25.46,0,0,1,5-3.47,13.75,13.75,0,0,1,2.86-1.1c.64-.17.86-.89,1.36-1.34C64.35,7,68.05,7.1,71,6.43,71.09,6.4,71.06,6.17,70.91,6.17ZM86.6,6.7a19,19,0,0,0-7.31-2.2,11.7,11.7,0,0,0-7.53,1.33s0,.1,0,.08a12.7,12.7,0,0,1,7.48-1,18.75,18.75,0,0,1,7.22,2.26.24.24,0,0,0,.27,0c1.52-1.39,3.52-.12,5,.62.15.07.31-.11.18-.23C90.65,6.3,88.13,5.49,86.6,6.7ZM109,17.62a4.89,4.89,0,0,0-1.14-.88c-.43-.25-.9-.24-1.18-.67A16.23,16.23,0,0,0,103,12.26,26,26,0,0,0,97.75,9a10.5,10.5,0,0,0-5-1.23c-.11,0-.11.17,0,.16,2.68,0,5.56,1.49,7.68,3s4.66,3.33,6.07,5.76a.24.24,0,0,0,.21.12c1.9-.06,2.82,2.21,3.6,3.53a.13.13,0,0,0,.23-.1A6.06,6.06,0,0,0,109,17.62Zm10,12.6c-.65-1.36-1.33-2.69-2.09-4a16.84,16.84,0,0,0-5.42-6,.05.05,0,0,0-.06.09c2.28,1.54,3.81,4,5.16,6.38.71,1.23,1.36,2.51,2,3.78s1,2.34,1.67,3.42c.11.17.42.06.35-.15C120.19,32.54,119.58,31.38,119,30.22Zm6.37,28.57a35,35,0,0,1-.28-4.9c.06-1.33.06-2.65.06-4,0-5.21-.58-11.27-4.25-15.31-.07-.08-.19,0-.12.13,3.66,4.18,4.11,10.33,4.18,15.64,0,2.91-.34,5.79-.09,8.69.27,3.22.7,6.41.9,9.64a.2.2,0,0,0,.39,0C126.37,65.38,125.72,62.08,125.4,58.79Z"/><path class="cls-7" d="M23.69,157.05a22.13,22.13,0,0,0,20.19-13.42c6.43-14.07,4.28-34.69,4.28-34.69l45.29,7.53s-5.82,27.49,24.48,37.3c0,0-9.18.66-23,7.53,0,0-20.5,6.54-41.62,1.31C53.36,162.61,33.48,157.05,23.69,157.05Z"/><path class="cls-8" d="M125.94,71.15c1.31-5.89-1.31-7.85-2-9.32s-.66-7.37-1.8-14.4S116.13,34,116.13,34c-.66-.16-2-2.29-2-2.29-1.31-.16-2.29-1.8-2.29-1.8a4.32,4.32,0,0,1-2.62-2,2.52,2.52,0,0,0-1.3-1l-1,.17a2.55,2.55,0,0,1-1.8-.49l-.32-.82a8.08,8.08,0,0,1-2.46-.33l-1.14-.82-1.15.66-2.45.16L97,24.68l-.82,1c-1,.65-2.94-.82-2.94-.82L91.58,24l-.16.82L90.11,25l-4.74-1.14.32,1.47-2.61-.82c-1,.66-4.91,1-4.91,1l.65.66a29.42,29.42,0,0,0-4.09,1,16.68,16.68,0,0,1-3.6,1.47c-1.31.33-3.43,2.13-5.07,3.44a35.14,35.14,0,0,1-4.42,2.78s-1.8,2-2.29,2.45-2.94.66-2.94.66l.49,1.31c-.66,1.63-3.27,4.09-4.09,4.9a3.54,3.54,0,0,0-1,1.64l1-.16a28.32,28.32,0,0,0-1.47,3.43A5.79,5.79,0,0,1,50,51.19l1.8-.16-1.15,1.3a16.54,16.54,0,0,1-1.14,3c-.82,1.63-3.28,2.62-3.28,2.62s-1.14,2.29-1.8,3.27A6,6,0,0,1,42,62.81a11.51,11.51,0,0,0,2-.33,20.82,20.82,0,0,0-1.31,4.74A20.67,20.67,0,0,1,42,70.66a7.94,7.94,0,0,0,0,2.13,4.92,4.92,0,0,1-.33,2.29V78c0,1.8-1.31,1.8-1.31,1.8-.81-.33-1.8-.65-2.78-1.14v.19C34.79,75,29,70.18,26.47,75.08c-2.13,4.09,2.45,14.72,4.58,18.81,2.78,5.4,6.87,6.55,12.27,4.75l-.11-.41.93.24a71.48,71.48,0,0,1,2.94,7.86c2,5.89,8.18,11.78,20.13,19.47s18.46,9.69,28.46,9.49c7.86-.17,12.77-10,20.46-22.91s10.3-23.07,9.81-27.16S124.63,77,125.94,71.15Z"/><path class="cls-9" d="M64.91,87.91c-5.15-9.4-14.85-14.32-23.23-12.44V78c0,1.8-1.31,1.8-1.31,1.8-.81-.33-1.8-.65-2.78-1.14v.19c-.31-.42-.64-.85-1-1.27a17.48,17.48,0,0,0-7.52,12c.72,1.7,1.43,3.2,2,4.25,2.78,5.4,6.87,6.55,12.27,4.75l-.11-.41.93.24a71.48,71.48,0,0,1,2.94,7.86c1.25,3.76,4.24,7.52,9.34,11.74a16,16,0,0,0,3-1.24C68.47,111.85,70.94,98.9,64.91,87.91Z"/><path class="cls-10" d="M125.94,85.22c-.43-3.64-1.12-7.27-.36-12.17-5.39,2.23-10.62,8.58-13.29,17-3.14,9.89-1.74,19.51,2.95,23.84.29-.5.59-1,.89-1.5C123.82,99.45,126.43,89.31,125.94,85.22Z"/><path class="cls-11" d="M49.86,100.11C44.3,92.58,41.68,77.2,41.68,77.2V78c0,1.8-1.31,1.8-1.31,1.8-.62-.25-1.34-.5-2.08-.82.89,2.11,4.33,10.49,4.05,13.91a9.91,9.91,0,0,1-3,6.22l0,.28a14.24,14.24,0,0,0,3.89-.77l-.11-.41.93.24a71.48,71.48,0,0,1,2.94,7.86c2,5.89,8.18,11.78,20.13,19.47,1.73,1.11,3.34,2.11,4.88,3l-.3-.21C57.72,118.76,55.43,107.64,49.86,100.11Zm73.3-4.58c-1.26,2.51-8.3,17.56-11.5,24.42,1.4-2.36,2.87-4.9,4.47-7.57,6.3-10.6,9.19-19.32,9.76-24.37A36.44,36.44,0,0,1,123.16,95.53Z"/><path class="cls-12" d="M106.25,108c0,4.1-5.27,7.42-11.78,7.42S82.69,112.06,82.69,108s5.28-7.42,11.78-7.42S106.25,103.87,106.25,108Z"/><path class="cls-13" d="M61.1,61.06s1.09-23.34,10.25-29.23,34-6.33,43.19,3.05c0,0,7.2,7.86,7.2,23.56l-.22,5.46s-8.5,3.49-9.59,3.49-38.83.87-38.83.87Z"/><path class="cls-14" d="M122.18,47.43C121,40.39,116.13,34,116.13,34c-.66-.16-2-2.29-2-2.29-1.31-.16-2.29-1.8-2.29-1.8a4.32,4.32,0,0,1-2.62-2,2.52,2.52,0,0,0-1.3-1l-1,.17a2.55,2.55,0,0,1-1.8-.49l-.32-.82a8.08,8.08,0,0,1-2.46-.33l-1.14-.82-1.15.66-2.45.16L97,24.68l-.82,1c-1,.65-2.94-.82-2.94-.82L91.58,24l-.16.82L90.11,25l-4.74-1.14.32,1.47-2.61-.82c-1,.66-4.91,1-4.91,1l.65.66a29.42,29.42,0,0,0-4.09,1,16.68,16.68,0,0,1-3.6,1.47c-1.31.33-3.43,2.13-5.07,3.44a35.14,35.14,0,0,1-4.42,2.78s-1.8,2-2.29,2.45-2.94.66-2.94.66l.49,1.31c-.66,1.63-3.27,4.09-4.09,4.9a3.54,3.54,0,0,0-1,1.64l1-.16a28.32,28.32,0,0,0-1.47,3.43A5.79,5.79,0,0,1,50,51.19l1.8-.16-1.15,1.3a16.54,16.54,0,0,1-1.14,3c-.82,1.63-3.28,2.62-3.28,2.62s-1.14,2.29-1.8,3.27A6,6,0,0,1,42,62.81a11.51,11.51,0,0,0,2-.33,20.82,20.82,0,0,0-1.31,4.74A20.67,20.67,0,0,1,42,70.66a7.72,7.72,0,0,0,0,2.07c2.7.66,6,1,7.1,1.42,1.31.44,3.93-.22,3.93-.22l-2.4-7.85s5.89-7,8.29-13.31S64.15,32.48,74,29s33.16-3.71,41,4.8c0,0,5.45,7.64,6.33,15.71s1.31,13.74,1.31,13.74,2.1,2.74,3.68,4.56c-.11-3.38-1.81-4.83-2.32-6C123.32,60.35,123.32,54.46,122.18,47.43Z"/><path class="cls-15" d="M51.5,74.15S46.92,67.6,55,62.59c0,0,8.51-2.62,14.4-.22s13.74,1.74,13.74,1.74,1.09,11.57-5.23,14.4Z"/><path class="cls-16" d="M102.11,78.08s-2.18-9.82,1.31-14l4.14.66L113,62.15s6.1-.87,7.63-.22,4.58,3.71,4.58,3.71,1.53,7.64-2.83,9.16l-7.86,2.4s-4.58.44-5.23.66Z"/><path class="cls-17" d="M84.11,100.22a10.14,10.14,0,0,1,5.35-1c2.51.43,7.09,3.16,10.69.21a2.26,2.26,0,0,1,2.51,1.09s-.88,2.19-2.19,2.41a7.27,7.27,0,0,1-6.32,4c-4.47,0-9.06-4.47-9.06-4.47A3.09,3.09,0,0,1,84.11,100.22Z"/><path class="cls-18" d="M96.33,99.35s-4.91-.22-5-4.91.22-14.84.22-14.84l5.67.22S97.53,88,98,90.07,103.42,99.35,96.33,99.35Z"/><path class="cls-8" d="M91,93.24s4.8-2.18,8-.77l-.22-1.2s-4.91-1.2-8.51,1Z"/><path class="cls-19" d="M102.87,97.6a33.33,33.33,0,0,1-2.72-3.16A17.09,17.09,0,0,1,98.62,86l.22-1.53s4.58,5,5.45,6.87a8.12,8.12,0,0,1-1.09,7.2Z"/><path class="cls-20" d="M84.22,97.27a17.17,17.17,0,0,0,2.84-2.61c1.42-1.64,2.83-7.2,2.83-8.84s-3-2.94-3.38-2.62-5.45,5.89-5.89,7.85S81,95.53,84,99.13Z"/><path class="cls-21" d="M39.56,90.46c-1.8-1.31-1.31-3.28-1.64-5.08-.33-2.61-1.8-4.74-3.44-6.87-1.63-2-4.41-4.91-7.2-2.94,0,0,.66,9.27,2.84,13s4.15,6.32,5,6.76,1.53-.87,2.83-1.75S39.56,90.46,39.56,90.46Z"/><path class="cls-22" d="M37.92,85.38c-.33-2.61-1.8-4.74-3.44-6.87-1.63-2-4.41-4.91-7.2-2.94,0,0,6.55,3.81,6.33,6.21A47.31,47.31,0,0,1,32.74,87s2-2.4,2-4.58a51.29,51.29,0,0,1,2.4,6.11,4.09,4.09,0,0,0,2.21,3,6.59,6.59,0,0,0,.25-1.05C37.76,89.15,38.25,87.18,37.92,85.38Z"/><path d="M87.49,100.76c1.39,2.13,3.6.58,3.6.58A8.92,8.92,0,0,0,87.49,100.76Zm11.78.25-1,.74-.49.4c2.29.33,2.54-1.14,2.54-1.14Z"/><path class="cls-23" d="M84.14,99.87a12.24,12.24,0,0,1,.75-4.67s0,0,0,0c-.63,1.61-1.4,3.28-1.13,5s1.92,2.69,3.43,3.31c0,0,0,0,0,0A4.67,4.67,0,0,1,84.14,99.87Zm1.37,1.51a0,0,0,0,0,0,.08c2.32-1.2,5-.36,7.14.69.08,0,.18-.07.1-.14A6.48,6.48,0,0,0,85.51,101.38ZM100.81,97c0,.12.2.12.2,0-.05-1.67-.94-3-1.56-4.54s-.48-3.31-.8-5a0,0,0,0,0-.06,0A18.13,18.13,0,0,0,99.08,92C99.58,93.75,100.75,95.15,100.81,97Zm.48,4.16a2.46,2.46,0,0,0-1.57-.33,5.79,5.79,0,0,0,1.44-3.34c0-.1-.14-.11-.17,0a6.7,6.7,0,0,1-2.92,4.14,7.5,7.5,0,0,1-4.69.93s0,0,0,0a6.58,6.58,0,0,0,5.09-.7,6,6,0,0,0,.78-.57,6.13,6.13,0,0,1,.61-.18,1.85,1.85,0,0,1,1.32.22A.11.11,0,0,0,101.29,101.16Zm1.15-6a.07.07,0,0,0-.12,0,9.21,9.21,0,0,1,.59,4.12,5.8,5.8,0,0,1-2.35,3.67s0,.12,0,.08a5.41,5.41,0,0,0,2.63-3.44A6.57,6.57,0,0,0,102.44,95.17Z"/><path class="cls-24" d="M38,85.09a12.91,12.91,0,0,0-2.58-5.53c-1.73-2.41-4.95-6.35-8.23-4.19-.25.16,0,.57.23.4,2.4-1.59,4.77.12,6.58,2.24a11.59,11.59,0,0,1,.64,4,9.6,9.6,0,0,1-1.15,3.94,7.92,7.92,0,0,0-1,2.5,4.37,4.37,0,0,0,.88,3s0,0,0,0a4.17,4.17,0,0,1-.59-3.69c.36-1,1-1.94,1.42-3a8.91,8.91,0,0,0,.15-6.35,26.3,26.3,0,0,1,1.94,2.81A11.88,11.88,0,0,1,38,86.92a4.26,4.26,0,0,0,1.57,3.54h0C37.94,89.13,38.24,87,38,85.09Zm-1.37,5.24a2.11,2.11,0,0,1,.1-1.38c.24-.53.78-.65,1.25-.88a.08.08,0,0,0,0-.14,1.71,1.71,0,0,0-1.61,1.81,3.9,3.9,0,0,0,1.56,2.89c.07.06.17,0,.1-.1A4.2,4.2,0,0,1,36.61,90.33Z"/><path class="cls-25" d="M125.5,81a32.94,32.94,0,0,1-.06-6.28c.22-2.31,1-4.54.93-6.87a8.51,8.51,0,0,0-1-3.83,24.26,24.26,0,0,1-1.4-2.35,15,15,0,0,1-.55-3.85c-.41-4.41-.6-9-1.86-13.29a34.73,34.73,0,0,0-4-8.54c-.41-.65-.84-1.28-1.29-1.9-.11-.14-.11-.12-.29-.22a4.73,4.73,0,0,1-1.36-1.58c-.11-.15-.25-.53-.42-.62s-.63-.18-.91-.35a4,4,0,0,1-.94-.85c-.09-.11-.3-.56-.46-.61a4.38,4.38,0,0,1-2.5-1.79c-.27-.43-.92-1.24-1.53-1.14a3.36,3.36,0,0,1-2.49-.22c-.29-.16-.35-.6-.47-.89a.06.06,0,0,0-.08,0,5.79,5.79,0,0,1-2.36-.31,4.49,4.49,0,0,1-1.19-.83.09.09,0,0,0-.07,0l-1.07.62a2.7,2.7,0,0,1-1,.09l-1.41.1c-.12,0-.54-.64-.66-.79a.07.07,0,0,0-.1,0l-.8,1c-.51.61-1.92-.21-2.41-.5-.69-.41-1.39-.77-2.1-1.13a.07.07,0,0,0-.1,0,3.46,3.46,0,0,0-.12.77l-1,.13a3.33,3.33,0,0,1-1.24-.2l-3.79-.91a.07.07,0,0,0-.08.08c.08.35.16.7.23,1.05l.06.25s0,0,0,.06l-.24-.08-2.25-.7c-.16-.05-.57.23-.73.29a12.44,12.44,0,0,1-1.69.37c-.84.14-1.68.24-2.52.31a.07.07,0,0,0,0,.12l.57.57,0,.05a.24.24,0,0,0-.11-.06,20.17,20.17,0,0,0-2,.43c-.55.14-1.09.29-1.63.45a5.55,5.55,0,0,0-.91.46,16.32,16.32,0,0,1-2.95,1.09,11.58,11.58,0,0,0-3.5,2.17,43.37,43.37,0,0,1-4.13,3,9.37,9.37,0,0,0-2,1.22c-.69.75-1.38,1.51-2.1,2.25s-2.11.64-3,.7a.07.07,0,0,0-.07.08c.18.48.59,1.09.36,1.57A10.88,10.88,0,0,1,54.79,42c-1,1.09-2.68,2.22-3,3.73a.07.07,0,0,0,.08.08l.49-.08.37-.06c-.26.51-.5,1-.73,1.54-.6,1.35-.92,2.8-2,3.89,0,0,0,.12.05.11l1.64-.15-.16.18c-.25.3-.51.59-.77.89a3.9,3.9,0,0,0-.49,1.31A6.69,6.69,0,0,1,48,56.83a8.88,8.88,0,0,1-1.72,1c-.29.13-.44.73-.58,1a13,13,0,0,1-1.55,2.62A5.6,5.6,0,0,1,42,62.75a.06.06,0,0,0,0,.12,7.39,7.39,0,0,0,1.15-.15l.64-.14h.07a20.46,20.46,0,0,0-.8,2.4c-.4,1.41-.52,2.85-.79,4.28-.09.47-.26.94-.33,1.42-.2,1.23.16,2.45-.1,3.67A6.35,6.35,0,0,0,41.62,76c0,1.1.38,3-.76,3.66-.36.2-.57.09-.93,0-.78-.3-1.56-.59-2.31-1a0,0,0,0,0,0,0,14.58,14.58,0,0,0-6-5.44A4.35,4.35,0,0,0,28,73.05a4.33,4.33,0,0,0-2.12,3c-.65,2.92.38,6.25,1.27,9a58.57,58.57,0,0,0,3.65,8.68A10.55,10.55,0,0,0,35.91,99a10.76,10.76,0,0,0,7.46-.16c.24-.08.14-.46-.1-.38a13.61,13.61,0,0,1-5.36.77A7.48,7.48,0,0,1,33.36,97a15.12,15.12,0,0,1-2.78-4.3c-.7-1.46-1.34-3-1.93-4.47a30.81,30.81,0,0,1-2.55-10,5.34,5.34,0,0,1,1.33-4c1.15-1.19,2.79-1,4.16-.33a13.58,13.58,0,0,1,3.66,2.69,22.68,22.68,0,0,1,2.94,3.33c.05.07.16,0,.11-.06-.2-.34-.41-.68-.63-1,.49.23,1,.44,1.49.64a3.94,3.94,0,0,0,1.25.46,1.33,1.33,0,0,0,1-.56c.58-.89.34-2.15.34-3.15v-1a5.06,5.06,0,0,1,.28-1c.24-1.13-.12-2.3,0-3.45.06-.47.24-1,.33-1.41A32.85,32.85,0,0,1,44,62.51s0-.11-.07-.09l-.84.18c-.24,0-.48.08-.72.11a5.87,5.87,0,0,0,1.87-1.2,9.46,9.46,0,0,0,1.39-2.31c.17-.31.47-1.18.71-1.28A6.48,6.48,0,0,0,50,54.48c.2-.44.37-.9.53-1.36.06-.18.1-.61.23-.75l1.13-1.3a.06.06,0,0,0,0-.11l-1.55.14-.13,0a.3.3,0,0,0,.12-.11A5.82,5.82,0,0,0,51,50a23.43,23.43,0,0,0,1.09-2.7c.25-.56.51-1.12.78-1.66a.06.06,0,0,0-.07-.1l-.64.11c-.31,0-.28.18-.22,0a5.71,5.71,0,0,1,1.65-2.16,16.78,16.78,0,0,0,3.23-3.9c.24-.43,0-.63-.12-1.08-.08-.21-.13-.51-.27-.5l.69-.06A8.92,8.92,0,0,0,59,37.57a2.85,2.85,0,0,0,1.09-.92,9.71,9.71,0,0,1,2.18-2.07,30.8,30.8,0,0,0,4.46-3,14.93,14.93,0,0,1,4.63-3q.9-.27,1.77-.6c.3-.12.6-.24.89-.38a8.19,8.19,0,0,1,.81-.45,22.71,22.71,0,0,1,4-1,.07.07,0,0,0,.05-.12l-.49-.49-.06-.07.57-.05a26.1,26.1,0,0,0,2.9-.46,5.2,5.2,0,0,0,1.14-.36c.25-.11.43,0,.72.09l2,.63s.09,0,.08-.08c-.08-.35-.16-.7-.23-1,0-.11,0-.22-.07-.32h.05l2.29.55,2.19.53a4.37,4.37,0,0,0,1.43-.13s.06,0,.07-.05l.13-.69a.11.11,0,0,0,0-.05l.26.13a10,10,0,0,1,1.31.65c.66.49,2,1.36,2.87.89a3.93,3.93,0,0,0,.9-1,0,0,0,0,0,0,0l0,0c.09.11.18.21.26.32s.23.39.36.43a4.12,4.12,0,0,0,1.16-.07,7.31,7.31,0,0,0,1.33-.09,6.52,6.52,0,0,0,1.09-.62c.12-.07.91.6,1.13.76a3.45,3.45,0,0,0,1.2.28,6.52,6.52,0,0,0,.9.1c.37,0,.33-.12.48.26s.16.5.51.71a3.07,3.07,0,0,0,2.21.2,1.4,1.4,0,0,1,1.19.44c.3.23.42.61.66.89a5.18,5.18,0,0,0,1,.91,4.47,4.47,0,0,0,1.16.57c.28.11.28.16.46.4a4.19,4.19,0,0,0,1.5,1.31c.19.09.5.07.6.23l.42.64a5.78,5.78,0,0,0,1.22,1.43A5.11,5.11,0,0,1,117,35.41a40,40,0,0,1,2.43,4.21,30.07,30.07,0,0,1,2.34,6.24,54.93,54.93,0,0,1,1.09,7.55c.2,1.93.34,3.85.54,5.77A8.49,8.49,0,0,0,124,62c.42.85,1.05,1.59,1.47,2.45a9.35,9.35,0,0,1,.69,5c-.13,1.26-.48,2.5-.67,3.76a26.6,26.6,0,0,0-.31,3.33,38.57,38.57,0,0,0,.36,6,28,28,0,0,1,.39,4A20.64,20.64,0,0,1,125.5,90a52.13,52.13,0,0,1-3.09,9.75,100.36,100.36,0,0,1-6.68,13.11c-2.45,4.12-4.79,8.3-7.43,12.3-2,3-4.21,6.08-7.2,8.16a10.43,10.43,0,0,1-4,1.7,23.17,23.17,0,0,1-5.2.11,36.85,36.85,0,0,1-10.25-1.91A58.89,58.89,0,0,1,70.4,127.7a125.57,125.57,0,0,1-12.32-8.4A45.5,45.5,0,0,1,50.39,112a20.31,20.31,0,0,1-2.25-3.41,33.69,33.69,0,0,1-1.84-4.78,46.62,46.62,0,0,0-2.09-5.37c-.05-.1-.19,0-.15.08a49.67,49.67,0,0,1,2.35,6.11,30.77,30.77,0,0,0,1.65,4.18,21.68,21.68,0,0,0,2.21,3.31,45.19,45.19,0,0,0,7.7,7.31,125.74,125.74,0,0,0,11.84,8.11c6.45,4,13.24,7.13,20.87,7.72,3,.23,6.23.46,9-.88s5-3.89,6.81-6.34a121,121,0,0,0,7.13-11.28c2.57-4.38,5.18-8.73,7.34-13.33a66.9,66.9,0,0,0,4-10.61,23.25,23.25,0,0,0,1.06-7C126,84.19,125.66,82.58,125.5,81Z"/><path class="cls-26" d="M75.93,113.85s7.85,5.67,9.82,7,11.56,3.28,15-.21,4.8-6.11,7.2-7.42l-7.64-.44s-7,.66-7.85.66-7.64.21-7.64.21Z"/><path class="cls-27" d="M84,119.31l-.21.17c.84.59,1.54,1.07,2,1.35,2,1.31,11.56,3.28,15-.21,1-1,1.88-2,2.62-2.87-.35.2-.71.43-1.09.68C94,124.11,84,119.31,84,119.31Zm16.36-6.55s-7,.66-7.85.66-7.64.21-7.64.21l-8.94.22L78.88,116c4.35-.2,19.32-.81,26.29-.31A10.61,10.61,0,0,1,108,113.2Z"/><path class="cls-28" d="M83.79,118a24.56,24.56,0,0,0,11,2.29c5.78-.33,7.53-2.08,7.64-2.84s-3.93-1.09-7.2-1.09S88.69,116.14,83.79,118Z"/><path class="cls-27" d="M105.16,113c-1.31,0-2.18-2.62-4.58-2.84A9.64,9.64,0,0,0,96,111a21.73,21.73,0,0,0-4.58-1.09c-2.18-.22-5.24,1.74-9.16,2.83s-9.38,0-9.38,0c6.54,3.27,13.09,1.53,19.85,1.75l.7,0-.27,0c1.52.94,3.2.58,4.76-.25,4.63-.33,8.66,1,12.48-2.59A29.72,29.72,0,0,1,105.16,113Z"/><path class="cls-29" d="M92.73,114.4c-3.2-.18-6.39.12-9.58.18a22.82,22.82,0,0,1-10.26-1.84s0,0,0,0c6.24,3.24,13.15,1.83,19.86,1.83C92.86,114.61,92.86,114.41,92.73,114.4Zm17.59-2.81a10.43,10.43,0,0,1-6.26,2.42c-1.88.12-3.75,0-5.63.16l.3-.21c.14-.11,0-.3-.19-.24-1.64.76-3.6,1.7-5.35.75,0,0-.09,0,0,.07a3.88,3.88,0,0,0,2.68.71,6.46,6.46,0,0,0,2.43-1c4.29-.1,8.9,1,12.23-2.55A.11.11,0,0,0,110.32,111.59Z"/><path class="cls-30" d="M50.84,66.08s5.68-4.15,11.35-3.93,11.12,3.71,13.74,4.15,6.76-.66,7.42-2.4a99.31,99.31,0,0,1-10.91-2C67.21,60.62,56.74,58.66,50.84,66.08Z"/><path class="cls-31" d="M125.67,66.08s-3.92-4.15-7.84-3.93-7.69,3.71-9.5,4.15-4.68-.66-5.13-2.4a49.72,49.72,0,0,0,7.54-2C114.36,60.62,121.6,58.66,125.67,66.08Z"/><path class="cls-32" d="M56.58,73.28a19.3,19.3,0,0,1,7.89-2.62,24.39,24.39,0,0,1,8.12.54c.06,0,.1-.07,0-.1a16.78,16.78,0,0,0-8.16-.92,15.71,15.71,0,0,0-7.9,3.09s0,0,0,0Z"/><path class="cls-33" d="M107.13,71a15.09,15.09,0,0,1,6.38-1,11.54,11.54,0,0,1,3.18.65,10.2,10.2,0,0,1,3,1.85c.06,0,.17,0,.12-.09-1.25-1.82-3.76-2.56-5.83-2.78A11.94,11.94,0,0,0,107.11,71s0,.06,0,.05Z"/><path d="M69.09,80.62s-7,2.54-12.66-4.59a9.35,9.35,0,0,1-4.86-1.63,16.5,16.5,0,0,0,6.25-.22c2.64-.82,10.09-5.73,17.81,2.09Z"/><path class="cls-34" d="M76.89,77.75c-4.6-5.63-13.46-6.35-19.14-2.08l-.38.39.75,1c4.47,4.65,10.34,4.15,16,2.35,0,0,1.19-.5,1.66-.68a6.14,6.14,0,0,1,1.62-.28Z"/><path class="cls-35" d="M70.58,75.45a4.47,4.47,0,0,0-.88-2.12,14.89,14.89,0,0,0-7.5.15,4.63,4.63,0,0,0,3,7.18l.7.06a6,6,0,0,0,.74,0A4.63,4.63,0,0,0,70.58,75.45Z"/><path class="cls-36" d="M62,76.68a4.09,4.09,0,0,0,8.09-1.15,4,4,0,0,0-1.22-2.38,14.94,14.94,0,0,0-5.77.12A4.05,4.05,0,0,0,62,76.68Z"/><path d="M68.39,75.76a2.41,2.41,0,1,1-2.73-2.05A2.41,2.41,0,0,1,68.39,75.76Z"/><path class="cls-37" d="M67.69,75.86a1.7,1.7,0,1,1-1.92-1.45A1.7,1.7,0,0,1,67.69,75.86Z"/><path class="cls-34" d="M66.7,74a1,1,0,1,1-1.12-.84A1,1,0,0,1,66.7,74Z"/><path class="cls-34" d="M66.81,78.37a.48.48,0,0,1-.41.54.47.47,0,0,1-.13-.94A.47.47,0,0,1,66.81,78.37Z"/><path d="M57.76,75.68a15.26,15.26,0,0,1,9.95-2.56,13.85,13.85,0,0,1,9.11,4.68c.07.09.22,0,.14-.11-4.42-5.7-13.7-6.49-19.21-2a0,0,0,1,0,0,0Z"/><path d="M58.1,77.12c4.29,4.52,10.57,4.21,16.07,2.36,0,0,0-.06,0,0a24.24,24.24,0,0,1-8.35,1.23,12,12,0,0,1-7.66-3.57s-.06,0,0,0Z"/><path d="M109.32,80.23s6,2.31,10.88-5a7.5,7.5,0,0,0,4.18-1.77,12.14,12.14,0,0,1-5.35,0c-2.26-.73-8.6-5.4-15.28,2.65Z"/><path class="cls-34" d="M102.66,77.61c4-5.76,11.59-6.76,16.41-2.67l.33.37-.66,1.07c-3.85,4.79-8.88,4.47-13.75,2.85l-1.42-.63a4.78,4.78,0,0,0-1.38-.23Z"/><path class="cls-38" d="M114.93,75.42a4.68,4.68,0,0,0-1.21-2.86,11.29,11.29,0,0,0-7.85,1.86,4.62,4.62,0,0,0,3.71,5.83c.34,0,.68,0,1,0A4.62,4.62,0,0,0,114.93,75.42Z"/><path class="cls-39" d="M110.55,79.77a4.09,4.09,0,0,0,3.85-4.32,4.15,4.15,0,0,0-1.56-3A11.39,11.39,0,0,0,106.6,74a4.14,4.14,0,0,0-.37,2A4.09,4.09,0,0,0,110.55,79.77Z"/><path d="M112.72,75.55a2.41,2.41,0,1,1-2.55-2.27A2.41,2.41,0,0,1,112.72,75.55Z"/><path class="cls-40" d="M112,75.59a1.71,1.71,0,1,1-1.81-1.6A1.72,1.72,0,0,1,112,75.59Z"/><path class="cls-34" d="M111.18,73.63a1,1,0,1,1-1-.93A1,1,0,0,1,111.18,73.63Z"/><path class="cls-34" d="M110.93,78a.49.49,0,0,1-.45.51.48.48,0,0,1-.5-.45.46.46,0,0,1,.44-.5A.47.47,0,0,1,110.93,78Z"/><path d="M119.06,75a11.29,11.29,0,0,0-8.49-2.24,12,12,0,0,0-7.84,5c-.07.09-.19,0-.13-.11,3.83-5.82,11.78-6.89,16.48-2.62,0,0,0,0,0,0Z"/><path d="M118.76,76.4c-3.71,4.64-9.09,4.53-13.78,2.85,0,0,0-.06,0,0a17.72,17.72,0,0,0,7.14,1,10.25,10.25,0,0,0,6.59-3.8,0,0,0,1,1,0,0Z"/></g></g></svg>