<svg xmlns="http://www.w3.org/2000/svg" xmlns:xlink="http://www.w3.org/1999/xlink" viewBox="0 0 112.02 166.01"><defs><style>.cls-1{fill:url(#linear-gradient);}.cls-2{fill:url(#linear-gradient-2);}.cls-3{fill:url(#radial-gradient);}.cls-4{fill:url(#radial-gradient-2);}.cls-5{fill:url(#linear-gradient-3);}.cls-6{fill:url(#linear-gradient-4);}.cls-7{fill:url(#linear-gradient-5);}.cls-8{fill:#96603f;}.cls-9{fill:url(#linear-gradient-6);}.cls-10{fill:#69391b;}.cls-11{fill:url(#linear-gradient-7);}.cls-12{fill:url(#radial-gradient-3);}.cls-13{fill:url(#radial-gradient-4);}.cls-14{fill:url(#radial-gradient-5);}.cls-15{fill:url(#linear-gradient-8);}.cls-16{fill:url(#linear-gradient-9);}.cls-17{fill:url(#linear-gradient-10);}.cls-18{fill:url(#linear-gradient-11);}.cls-19{fill:url(#linear-gradient-12);}.cls-20{fill:url(#linear-gradient-13);}.cls-21{fill:url(#linear-gradient-14);}.cls-22{fill:url(#linear-gradient-15);}.cls-23{fill:url(#linear-gradient-16);}.cls-24{fill:url(#linear-gradient-17);}.cls-25{fill:url(#linear-gradient-18);}.cls-26{fill:url(#linear-gradient-19);}.cls-27{fill:url(#linear-gradient-20);}.cls-28{fill:url(#linear-gradient-21);}.cls-29{fill:url(#linear-gradient-22);}.cls-30{fill:#88412d;}.cls-31{fill:url(#radial-gradient-6);}.cls-32{fill:#7a3627;}.cls-33{fill:#572c1f;}.cls-34{fill:url(#linear-gradient-23);}.cls-35{fill:url(#linear-gradient-24);}.cls-36{fill:#301d11;}.cls-37{fill:#fff;}.cls-38{fill:url(#linear-gradient-25);}.cls-39{fill:url(#linear-gradient-26);}.cls-40{fill:url(#linear-gradient-27);}.cls-41{fill:url(#linear-gradient-28);}.cls-42{fill:url(#linear-gradient-29);}.cls-43{fill:url(#linear-gradient-30);}.cls-44{fill:url(#linear-gradient-31);}.cls-45{fill:url(#radial-gradient-7);}.cls-46{fill:url(#radial-gradient-8);}.cls-47{fill:url(#radial-gradient-9);}.cls-48{fill:url(#radial-gradient-10);}</style><linearGradient id="linear-gradient" x1="48.76" y1="160.32" x2="48.76" y2="122.88" gradientUnits="userSpaceOnUse"><stop offset="0" stop-color="#96603f"/><stop offset="1" stop-color="#7c4827"/></linearGradient><linearGradient id="linear-gradient-2" x1="48.79" y1="157.44" x2="48.79" y2="111.8" gradientUnits="userSpaceOnUse"><stop offset="0" stop-color="#784531"/><stop offset="1" stop-color="#572c1b"/></linearGradient><radialGradient id="radial-gradient" cx="1180.88" cy="-699.23" r="36.26" gradientTransform="translate(-268.67 313.93) scale(0.31 0.26)" gradientUnits="userSpaceOnUse"><stop offset="0" stop-color="#98949b"/><stop offset="0.93" stop-color="#504856"/></radialGradient><radialGradient id="radial-gradient-2" cx="1180.88" cy="-699.23" r="36.26" gradientTransform="translate(-268.67 313.93) scale(0.31 0.26)" gradientUnits="userSpaceOnUse"><stop offset="0" stop-color="#d1ccd5"/><stop offset="0.93" stop-color="#867990"/></radialGradient><linearGradient id="linear-gradient-3" x1="52.9" y1="38.43" x2="52.9" y2="3.78" gradientUnits="userSpaceOnUse"><stop offset="0"/><stop offset="1" stop-color="#2d4753"/></linearGradient><linearGradient id="linear-gradient-4" x1="52.9" y1="38.43" x2="52.9" y2="3.78" gradientUnits="userSpaceOnUse"><stop offset="0" stop-color="#0c1417"/><stop offset="1" stop-color="#436270"/></linearGradient><linearGradient id="linear-gradient-5" x1="52.89" y1="32.94" x2="52.89" y2="3.21" xlink:href="#linear-gradient-3"/><linearGradient id="linear-gradient-6" x1="104.65" y1="89.64" x2="102.53" y2="88.5" xlink:href="#linear-gradient"/><linearGradient id="linear-gradient-7" x1="92.01" y1="110.86" x2="93" y2="108.67" gradientUnits="userSpaceOnUse"><stop offset="0" stop-color="#814d29"/><stop offset="1" stop-color="#673416"/></linearGradient><radialGradient id="radial-gradient-3" cx="1057.93" cy="-691.53" r="45.95" gradientTransform="translate(-264.02 332.31) scale(0.32)" gradientUnits="userSpaceOnUse"><stop offset="0" stop-color="#bf8362"/><stop offset="1" stop-color="#96603f"/></radialGradient><radialGradient id="radial-gradient-4" cx="738.78" cy="-442.49" r="45.92" gradientTransform="matrix(0.4, -0.06, 0.11, 0.67, -217.4, 442.23)" xlink:href="#radial-gradient-3"/><radialGradient id="radial-gradient-5" cx="977.43" cy="-611.69" r="45.94" gradientTransform="matrix(0.32, 0.07, -0.13, 0.67, -298.33, 440.62)" xlink:href="#radial-gradient-3"/><linearGradient id="linear-gradient-8" x1="57.75" y1="123.7" x2="57.75" y2="69.6" xlink:href="#linear-gradient"/><linearGradient id="linear-gradient-9" x1="63.43" y1="7.26" x2="63.43" y2="64.29" gradientTransform="matrix(1, 0, 0, 1, 0, 0)" xlink:href="#radial-gradient-3"/><linearGradient id="linear-gradient-10" x1="59.6" y1="69.71" x2="59.6" y2="17.35" xlink:href="#linear-gradient"/><linearGradient id="linear-gradient-11" x1="42.64" y1="81.16" x2="42.64" y2="68.02" xlink:href="#linear-gradient"/><linearGradient id="linear-gradient-12" x1="87.45" y1="80.94" x2="87.45" y2="68.07" xlink:href="#linear-gradient"/><linearGradient id="linear-gradient-13" x1="56.09" y1="90.62" x2="71.16" y2="103" xlink:href="#linear-gradient"/><linearGradient id="linear-gradient-14" x1="80.42" y1="91.7" x2="69.67" y2="97.58" xlink:href="#linear-gradient"/><linearGradient id="linear-gradient-15" x1="71.28" y1="98.38" x2="71.28" y2="82.89" gradientTransform="matrix(1, 0, 0, 1, 0, 0)" xlink:href="#radial-gradient-3"/><linearGradient id="linear-gradient-16" x1="58.02" y1="101.4" x2="60.04" y2="103.15" gradientTransform="matrix(1, 0, 0, 1, 0, 0)" xlink:href="#radial-gradient-3"/><linearGradient id="linear-gradient-17" x1="81.34" y1="101.47" x2="79.26" y2="103.35" gradientTransform="matrix(1, 0, 0, 1, 0, 0)" xlink:href="#radial-gradient-3"/><linearGradient id="linear-gradient-18" x1="68.83" y1="116.03" x2="68.83" y2="108.24" xlink:href="#linear-gradient"/><linearGradient id="linear-gradient-19" x1="-3.61" y1="96.11" x2="18.33" y2="79.82" xlink:href="#linear-gradient"/><linearGradient id="linear-gradient-20" x1="2.95" y1="88.64" x2="9.33" y2="85.04" xlink:href="#linear-gradient"/><linearGradient id="linear-gradient-21" x1="-5.74" y1="120.84" x2="-4.22" y2="117.49" xlink:href="#linear-gradient-7"/><linearGradient id="linear-gradient-22" x1="69.38" y1="99.4" x2="69.38" y2="87.26" gradientUnits="userSpaceOnUse"><stop offset="0" stop-color="#69391b"/><stop offset="1" stop-color="#96603f"/></linearGradient><radialGradient id="radial-gradient-6" cx="1297.31" cy="-717.06" r="49.37" gradientTransform="translate(-266.12 313.93) scale(0.26)" gradientUnits="userSpaceOnUse"><stop offset="0" stop-color="#bd6e59"/><stop offset="1" stop-color="#88412d"/></radialGradient><linearGradient id="linear-gradient-23" x1="42.82" y1="64.74" x2="42.82" y2="61.54" gradientUnits="userSpaceOnUse"><stop offset="0"/><stop offset="1" stop-color="#2f4058"/></linearGradient><linearGradient id="linear-gradient-24" x1="-32.01" y1="64.73" x2="-32.01" y2="61.53" gradientTransform="matrix(-0.72, 0, 0, 1, 65.22, 0)" xlink:href="#linear-gradient-23"/><linearGradient id="linear-gradient-25" x1="41.82" y1="84.15" x2="41.82" y2="75.45" gradientUnits="userSpaceOnUse"><stop offset="0" stop-color="#381a0b"/><stop offset="1"/></linearGradient><linearGradient id="linear-gradient-26" x1="41.82" y1="84.15" x2="41.82" y2="75.45" gradientUnits="userSpaceOnUse"><stop offset="0.01" stop-color="#5b2810"/><stop offset="1" stop-color="#390600"/></linearGradient><linearGradient id="linear-gradient-27" x1="41.82" y1="79.85" x2="41.82" y2="82.11" gradientUnits="userSpaceOnUse"><stop offset="0"/><stop offset="1" stop-color="#696560"/></linearGradient><linearGradient id="linear-gradient-28" x1="85.23" y1="84.15" x2="85.23" y2="75.45" xlink:href="#linear-gradient-25"/><linearGradient id="linear-gradient-29" x1="85.23" y1="84.15" x2="85.23" y2="75.45" xlink:href="#linear-gradient-26"/><linearGradient id="linear-gradient-30" x1="85.23" y1="79.85" x2="85.23" y2="82.11" xlink:href="#linear-gradient-27"/><linearGradient id="linear-gradient-31" x1="12.88" y1="102.47" x2="14.95" y2="102.8" gradientUnits="userSpaceOnUse"><stop offset="0" stop-color="#783f30"/><stop offset="1" stop-color="#572619"/></linearGradient><radialGradient id="radial-gradient-7" cx="1080.77" cy="-699.22" r="36.25" gradientTransform="translate(-266.12 313.93) scale(0.26)" xlink:href="#radial-gradient"/><radialGradient id="radial-gradient-8" cx="1080.77" cy="-699.23" r="36.25" gradientTransform="translate(-266.12 313.93) scale(0.26)" xlink:href="#radial-gradient"/><radialGradient id="radial-gradient-9" cx="1080.77" cy="-699.23" r="36.25" gradientTransform="translate(-266.12 313.93) scale(0.26)" xlink:href="#radial-gradient"/><radialGradient id="radial-gradient-10" cx="1080.77" cy="-699.23" r="36.24" gradientTransform="translate(-266.12 313.93) scale(0.26)" xlink:href="#radial-gradient-2"/></defs><g id="Layer_2" data-name="Layer 2"><g id="_6_Face" data-name="6_Face"><path d="M101.15,102.55a32.17,32.17,0,0,0,.82-4.92c0-.55.07-1.13.08-1.72,1.49-2.34,1.88-5.12,2.25-7.81a32.69,32.69,0,0,1,.86-4.51l.16-.55c.85-2.86,2-6.77-1.46-8.74a1.54,1.54,0,0,1,.34-.57.67.67,0,0,0,.16-.47.63.63,0,0,0-.21-.42l0,0h0a.6.6,0,0,0,.22-.58l.32-.16a.63.63,0,0,0,.18-1c-.12-.13-.22-.28-.34-.44a3.55,3.55,0,0,0-.23-.31l.2-.17a.62.62,0,0,0,.21-.44.7.7,0,0,0-.18-.46l-.41-.4.2-.15a.63.63,0,0,0,.12-.84c0-.06-.12-.13-.28-.31a1.72,1.72,0,0,0,.27-.27.63.63,0,0,0,.08-.58.61.61,0,0,0-.13-.22.61.61,0,0,0,.33-.49.67.67,0,0,0-.28-.59A1.86,1.86,0,0,1,104,65l.25-.16a.68.68,0,0,0,.27-.54.64.64,0,0,0-.29-.51.9.9,0,0,1-.19-.15l.47-.23a.66.66,0,0,0,.34-.54.67.67,0,0,0-.32-.57l0,0a.6.6,0,0,0,.32-.36.65.65,0,0,0-.14-.64c-.13-.14-.26-.29-.38-.44l.12-.08a.63.63,0,0,0,.17-.86l0,0c0-.05-.06-.09-.09-.12l.07-.08a.62.62,0,0,0,.06-.7.88.88,0,0,0-.1-.18l-.3-.49a.69.69,0,0,0,.26-.37,1,1,0,0,0-.21-.93l-.05-.06a4.85,4.85,0,0,0,.43-.3.61.61,0,0,0,.21-.51.64.64,0,0,0-.29-.5,1.57,1.57,0,0,1-.21-.17.57.57,0,0,0,.44-.34.62.62,0,0,0,0-.58,1.62,1.62,0,0,0-.13-.19l-.16-.24a1.63,1.63,0,0,0,.52-.83,1.56,1.56,0,0,0-.27-1.28.6.6,0,0,0,.4-.39A.62.62,0,0,0,105,51a3.88,3.88,0,0,1-.33-.44l.17,0a.59.59,0,0,0,.39-.31.63.63,0,0,0,0-.52c0-.09-.08-.17-.11-.26a4.79,4.79,0,0,0-.31-.65l.33-.15.32-.14a.56.56,0,0,0,.3-.41.61.61,0,0,0-.15-.5,7.59,7.59,0,0,1-.58-.76l-.18-.26-.1-.12,0,0A.56.56,0,0,0,105,46a2.5,2.5,0,0,0-1.16-2h0a.58.58,0,0,0,.37-.47,1.5,1.5,0,0,1,.08-.3,1.92,1.92,0,0,0,.1-.93,1,1,0,0,0-.18-.42h0a.62.62,0,0,0,.34-.53.63.63,0,0,0-.3-.58c-.14-.09-.27-.2-.41-.31l-.07-.06a1,1,0,0,0,.17-.74,1.34,1.34,0,0,0-.54-.85.63.63,0,0,0,.17-.39.66.66,0,0,0-.17-.49l-.11-.12c-.16-.18-.32-.36-.5-.53a1.39,1.39,0,0,0,.1-1.05,1.3,1.3,0,0,0-.42-.62.68.68,0,0,0,.11-.31.6.6,0,0,0-.23-.53,2.71,2.71,0,0,1-.42-.46l-.16-.2,0,0a.65.65,0,0,0,.17-.33.61.61,0,0,0-.28-.64,3.28,3.28,0,0,1-.5-.44.67.67,0,0,0,.28-.36.59.59,0,0,0-.2-.62,6.72,6.72,0,0,1-.57-.51c-.15-.15-.31-.31-.49-.46a.52.52,0,0,0,.12-.36.58.58,0,0,0-.3-.52,4.84,4.84,0,0,1-.62-.45L98.87,29l-.05,0a.59.59,0,0,0,0-.66,2.7,2.7,0,0,0-1.23-.83l.08,0a.64.64,0,0,0,.36-.49.62.62,0,0,0-.22-.57,2.22,2.22,0,0,1-.41-.49A4,4,0,0,0,97,25.4c-.07-.08-.07-.11-.09-.3a1.59,1.59,0,0,0-.06-.45,1.68,1.68,0,0,0-.8-1,.65.65,0,0,0,.14-.42.6.6,0,0,0-.36-.56,3.14,3.14,0,0,1-.68-.46L94.82,22l.14-.21a.62.62,0,0,0,0-.67,4.17,4.17,0,0,0-1.39-1.23.63.63,0,0,0,0-.45.61.61,0,0,0-.31-.32,4,4,0,0,1-.67-.41l-.14-.1,0,0a.62.62,0,0,0,.3-.6.61.61,0,0,0-.44-.52,6.92,6.92,0,0,1-.66-.26l-.58-.23,0-.09a.63.63,0,0,0-.25-.65,4.85,4.85,0,0,0-1.72-.78h0a.61.61,0,0,0-.4-.76l-.06,0a4.86,4.86,0,0,1-.56-.19c0-.08,0-.15,0-.21a.64.64,0,0,0-.43-.73c-.18-.05-.35-.12-.51-.18a5.1,5.1,0,0,0-.55-.19A1.08,1.08,0,0,0,86.07,12a2.44,2.44,0,0,0-.86-.24v-.16a.62.62,0,0,0-.59-.63,5.07,5.07,0,0,1-.65-.09l-.37-.06,0,0a.59.59,0,0,0,0-.59.62.62,0,0,0-.51-.34l-.6-.09c-.14,0-.29,0-.44-.06l0-.09a.57.57,0,0,0,0-.59.61.61,0,0,0-.53-.31h-.1l-.35,0c-.2,0-.41,0-.62,0h-.13a1.09,1.09,0,0,0-.39-.88,1.32,1.32,0,0,0-.81-.27,1.78,1.78,0,0,0-.61.11l0-.33a.55.55,0,0,0-.43-.52,2,2,0,0,0-.48,0,2.76,2.76,0,0,0-1,.22,1.8,1.8,0,0,0-1.81-1.68h-.21a1.89,1.89,0,0,0-.72-.91,1.66,1.66,0,0,0-.58-.11,2,2,0,0,0-.77.17,1.24,1.24,0,0,0-1.17-.77,1.81,1.81,0,0,0-.55.09,1.28,1.28,0,0,0-.79-.9,1.49,1.49,0,0,0-.47-.07,1.72,1.72,0,0,0-.88.26,1.33,1.33,0,0,0-1.18-.72,1.69,1.69,0,0,0-.81.23A1.27,1.27,0,0,0,65.63,2a1.77,1.77,0,0,0-.75.19,1.61,1.61,0,0,0-1.31-.83,1.53,1.53,0,0,0-.68.18l-.29.17a1.2,1.2,0,0,0-.16-.16,1.83,1.83,0,0,0-1.07-.39,1.42,1.42,0,0,0-.67.17.33.33,0,0,0-.13.08A2,2,0,0,0,60.22,1a1,1,0,0,0-.68-.26,1.51,1.51,0,0,0-.73.22l-.08,0L58.61.93A1.63,1.63,0,0,0,58,.7l-.16,0a1.11,1.11,0,0,0-.63.23l-.1.07-.06,0L57,.93a2,2,0,0,0-.76-.2,1.12,1.12,0,0,0-.44.09L55.6.91A2.21,2.21,0,0,0,55,.46a1.32,1.32,0,0,0-.54-.12,1.2,1.2,0,0,0-.84.35l0,0L53.31.62a1.75,1.75,0,0,0-.74-.2,1.26,1.26,0,0,0-.48.11L52,.55a1.41,1.41,0,0,0-.18,0L51.63.43A1.64,1.64,0,0,0,50.58,0l-.26,0a1.1,1.1,0,0,0-.75.63l-1-.17L48.09.4l-.15,0a.6.6,0,0,0-.46.22l-.06.08A1.58,1.58,0,0,0,47,.61l-.33,0a1,1,0,0,0-.73.6A5.91,5.91,0,0,0,45.12,1L44.66.92l-.15,0a.57.57,0,0,0-.56.41,3,3,0,0,0-.57-.07l-.27,0a1.65,1.65,0,0,0-1.32,1l-.11.06-.14-.07a2.49,2.49,0,0,0-1.16-.37,1.23,1.23,0,0,0-.68.22l-.07.05h-.07A1.79,1.79,0,0,0,38.91,2a1.38,1.38,0,0,0-1.22.73,1.58,1.58,0,0,0-.73-.2,1.24,1.24,0,0,0-1,.49,1.56,1.56,0,0,0-.77-.25,1,1,0,0,0-.57.18,1.64,1.64,0,0,0-.54.73v0l-.2-.05a1,1,0,0,0-.3,0,1.22,1.22,0,0,0-1.17.84c0,.06,0,.12-.06.2l-.31,0a3.23,3.23,0,0,1-.75-.14.52.52,0,0,0-.21,0,.63.63,0,0,0-.61.57v.18l0,.12a1.37,1.37,0,0,1-.52-.12.56.56,0,0,0-.31-.09.6.6,0,0,0-.47.23.59.59,0,0,0-.12.51,5,5,0,0,1,.07.56l-.3,0a6.73,6.73,0,0,1-.67-.1l-.14,0a.61.61,0,0,0-.54.89h-.18a1.64,1.64,0,0,1-.44,0l-.15,0a.58.58,0,0,0-.45.2.56.56,0,0,0-.15.44,2.36,2.36,0,0,0,.08.45,2,2,0,0,1-.62-.07l-.18,0a.56.56,0,0,0-.46.23.59.59,0,0,0-.09.51v0h0a1.06,1.06,0,0,0-.6.18,1.5,1.5,0,0,0-.52,1.46v.08a3.29,3.29,0,0,0-1-.17,1.53,1.53,0,0,0-1.18.44,1.25,1.25,0,0,0-.32.88H21c-1,0-1.23.59-1.29.84a1.78,1.78,0,0,0,0,.39h-.09a1.13,1.13,0,0,0-1.18.91,1.24,1.24,0,0,0,0,.27l-.16,0h-.13a1.41,1.41,0,0,0-1.38.87,1.87,1.87,0,0,0-.09.56h-.1a1.27,1.27,0,0,0-1.32,1.1,1.32,1.32,0,0,0,0,.28A1.1,1.1,0,0,0,14.14,18c0,.11,0,.22,0,.31h0l-.33,0a1.24,1.24,0,0,0-1.14,1,2,2,0,0,0,0,.42h-.29A1.27,1.27,0,0,0,11.22,21v.08a1.33,1.33,0,0,0-.65.14,1.09,1.09,0,0,0-.6,1.2,1.9,1.9,0,0,0-.91.37,1.57,1.57,0,0,0-.39,1.49,2,2,0,0,0-1,.61,1.92,1.92,0,0,0-.24,1,.13.13,0,0,1,0,.06H7.41a1.56,1.56,0,0,0-1.24,1.57,1.67,1.67,0,0,0,.11.59,3,3,0,0,1-.42,0,.65.65,0,0,0-.47.28.57.57,0,0,0,0,.52,2.88,2.88,0,0,1,.13.56c0,.11,0,.22.07.33a1.92,1.92,0,0,0-.76.49,1.31,1.31,0,0,0-.16,1.34.59.59,0,0,0,0,.08l-.14.06a1.06,1.06,0,0,0-.7.9,1.43,1.43,0,0,0,.21.67.89.89,0,0,0-.44.52A1.52,1.52,0,0,0,4,35.29H4a2.33,2.33,0,0,0-1.88,1.49,1.72,1.72,0,0,0,.22,1.63.23.23,0,0,0,.05,0l-.21.12-.32.18a.6.6,0,0,0-.31.47.61.61,0,0,0,.26.52,1.78,1.78,0,0,1,.35.4l.07.09a1.35,1.35,0,0,0-.45,1.62s.05.11.18.34a1.58,1.58,0,0,0-.39.24,1.3,1.3,0,0,0-.27,1.76.5.5,0,0,0,.1.13l-.22.18a1.17,1.17,0,0,0-.1,1.5,1.41,1.41,0,0,0-.53.53,1.2,1.2,0,0,0,.34,1.38L.84,48a1.21,1.21,0,0,0-.23.24A1.13,1.13,0,0,0,.38,49a1.72,1.72,0,0,0,.27.63l-.19.21a3,3,0,0,0-.33.42,1.64,1.64,0,0,0,.48,1.87.42.42,0,0,1,0,.1,1,1,0,0,0,.07,1.14l.06.07a2.66,2.66,0,0,1,.2.26.79.79,0,0,1-.08.16l0,.05a.94.94,0,0,0-.24.69,1.16,1.16,0,0,0,.59.79A1.12,1.12,0,0,0,.93,56.7a1.18,1.18,0,0,0,.35.38l0,0a1.45,1.45,0,0,1-.28.34.62.62,0,0,0-.24.62.56.56,0,0,0,.47.43l.16,0a1.3,1.3,0,0,0-.09,1.68.83.83,0,0,0,.19.18l0,0a1.42,1.42,0,0,0-.35.66,1.29,1.29,0,0,0,.39,1.12l-.11.13c-.08.1-.15.18-.18.23A1.7,1.7,0,0,0,1,63.4c0,.36.21.75.65,1.28a1.39,1.39,0,0,0,0,1.3,1.23,1.23,0,0,0,.55.53,2,2,0,0,0-.35,1.54,1.48,1.48,0,0,0,.53.9,1.45,1.45,0,0,0-.12.22,1.78,1.78,0,0,0,.45,2.24s0,0,0,.06a1.91,1.91,0,0,0-.08.48,1.09,1.09,0,0,0,.14.52C1.56,74,1.31,76.21,1.23,78.36a39.75,39.75,0,0,0,1,9.58,46.54,46.54,0,0,0,2.44,8.51,20.49,20.49,0,0,0,4,6.65c-3.8,2.14-6.18,6.22-7.17,9.44-2.25,7.36.23,15.72,5.9,19.87a10.44,10.44,0,0,0,6.24,2.08,13,13,0,0,0,10-5.27,51.3,51.3,0,0,1-.6,6.29,33,33,0,0,1-4.72,13.08,20,20,0,0,1-8.24,6.85A47.59,47.59,0,0,1,.7,158.56a.49.49,0,0,0-.36.54.5.5,0,0,0,.49.43h.64c8.19.08,16.38,1.66,24.3,3.19,2.07.4,4.21.81,6.31,1.19A121.61,121.61,0,0,0,53.89,166c2.08,0,4.15-.06,6.16-.19a115.42,115.42,0,0,0,18.14-2.95,121.78,121.78,0,0,1,18.54-2.94.56.56,0,0,0,0-1.12l-.42-.21-.1,0a45.23,45.23,0,0,1-10.68-3.79,19.84,19.84,0,0,1-7.76-7.55,30.18,30.18,0,0,1-1.87-4c5-3,8.35-7.75,11-12.16a16.57,16.57,0,0,0,1.89,1.34,14,14,0,0,0,7.36,2.06,16.39,16.39,0,0,0,12.4-5.94A16.85,16.85,0,0,0,112,118.13C111.93,112.1,108.53,105,101.15,102.55Zm-4.79,30h-.23a11.75,11.75,0,0,1-8.26-3.23c.58-1,1.15-2.06,1.71-3.06l1-1.87c.75-1.34,1.54-2.71,2.32-4,2.94-5,6-10.28,7.69-15.9,5.87,2,9.11,8.5,9.19,13.71C109.71,125,105,132.37,96.36,132.52Zm-82.46,0h-.2c-7.36,0-10.9-8.59-11-14.39-.07-5.18,2.55-11.47,7.68-13.62A10.55,10.55,0,0,0,16.15,106a19.76,19.76,0,0,0,2.11-.12c.19,4.06,2.33,7.74,3.95,10.19.34.52.72,1.06,1.16,1.67v.08c.12,2.39.25,4.87.28,7.3C21.69,129.72,18.14,132.43,13.9,132.52Z"/><path class="cls-1" d="M96,159c-8.5-2-15.7-4.58-19.63-12.76-6.22-13.09-3.27-25.52-3.27-39.27H23.73c0,13.75,2.94,26.18-3.27,39.27C16.53,154.46,9.33,157.08.82,159h.66c14.4,0,28.13,4.69,42.21,5.89,26.83,2.29,33.7-4.58,53-5.56Z"/><path class="cls-2" d="M19.25,148.91A33.81,33.81,0,0,0,23.94,136a65.69,65.69,0,0,0,.65-13.73c-.2-5.09-.59-10.17-.74-15.26a.13.13,0,0,0-.25,0c-.25,9.54,1.43,19.08-.09,28.58a34,34,0,0,1-4.8,13.27,20.73,20.73,0,0,1-8.43,7A49.1,49.1,0,0,1,.82,159h0a45.62,45.62,0,0,0,10.59-3.34A20,20,0,0,0,19.25,148.91Zm58-.59a19.62,19.62,0,0,0,7.65,7.09A42.71,42.71,0,0,0,96,159s0,0,0,0a44.92,44.92,0,0,1-10.79-3.84,20.06,20.06,0,0,1-8-7.74c-4.82-8.46-4.86-18.58-4.41-28,.2-4.14.48-8.29.37-12.44a.13.13,0,0,0-.25,0c-.27,9.35-1.6,18.84-.22,28.15A35.72,35.72,0,0,0,77.24,148.32Zm19.46,11a103.73,103.73,0,0,0-18.86,2.89,112.93,112.93,0,0,1-19.43,3A121.34,121.34,0,0,1,30.72,163C21,161.18,11.38,159,1.48,159c0,0,0,0,0,0,10.38.1,20.53,2.56,30.69,4.39A115.56,115.56,0,0,0,60,165.33a116.32,116.32,0,0,0,18.07-2.93,118.34,118.34,0,0,1,18.62-3C96.78,159.43,96.78,159.3,96.7,159.3Z"/><path class="cls-3" d="M96.07,134a13.38,13.38,0,0,1-7.1-2,16.24,16.24,0,0,1-6.84-19.33c1.85-5,7.05-10.47,14.12-10.47a14.83,14.83,0,0,1,2.64.25c8.55,1.63,12.54,9.27,12.64,15.68a16.31,16.31,0,0,1-3.45,10.1,15.84,15.84,0,0,1-12,5.76Zm.55-30.73h-.24c-8.75.15-14,7.83-13.94,14.87.09,6,4.51,14.87,13.69,14.87h.24c8.91-.16,13.83-7.78,13.94-14.87-.09-6-4.51-14.87-13.69-14.87Z"/><path class="cls-4" d="M98.84,102.65c-8-1.53-14.35,4.23-16.5,10.09a16.07,16.07,0,0,0,6.76,19.12c6.5,4,14.6,1.44,18.8-3.73a16.05,16.05,0,0,0,3.41-10C111.21,111.56,107.13,104.22,98.84,102.65Zm-2.46,30.54c-9.23.16-14.06-8.45-14.16-15-.1-6.85,5.08-14.9,14.16-15s14.05,8.45,14.15,15C110.43,125,105.6,133,96.38,133.19Z"/><path class="cls-5" d="M3.6,73c-.16-.82-.81-.82-.16-1.8-1.15-.49-1-1.63-.16-2.45-1.31-.33-1-1.64,0-2.62-1.31.16-1.48-.65-.82-1.64C1.31,64,1.31,63,2.46,62.18c-1-.65-1-1,0-1.8-1.15-.49-1.15-1.3,0-2-.49-.16-.82-.49-1.15-.49.33-.16.49-.82,1-1-1.3-.49-1-.82-.32-1.64-1.15-.82-1-.49-.33-1.63C.82,52.69.82,53,1.31,52c-1-.82-1-1.64.17-2.29C.66,48.93.82,48.6,1.8,48c-1.14-.82-1-1.47.33-1.64-1-.81-1-1.47.33-1.8-1.31-.81-1-1.8.49-2-1-1-1-1.8.33-2.13-.66-.32-.82-1-1.15-1.14a11.32,11.32,0,0,1,1.31-.66c-2-1.14-.16-3.1,1.47-2.78l-.32-.65c-.5-.82-1-1.15.32-1.47-1-1-.49-1.48.82-1.48-1.14-1-.65-2,.65-1.8-.32-.49-.32-1.31-.49-1.63.33,0,1-.17,1.31-.17-.82-1.14-.49-2.12,1-2.12-.32-1.15,0-1.8,1.31-1.64-.65-1.31-.16-2.13,1.31-1.8-.65-1.14-.16-1.64,1.15-1.31-.49-1.14.16-1.8,1.47-1.31-.65-1.47.16-1.8,1.47-1.47-.49-1.31,0-1.8,1.15-1.31-.66-1.31,0-1.8,1.31-1.47-.49-1.47.49-1.8,1.8-1.31-.49-1.15,0-1.8,1.31-1.15-.66-1.47.32-1.8,1.63-1.14-1.14-1.47.49-2.13,1.8-1.31l.33-.65c0-1,0-1.48,1.31-1-.17-.33,0-.66-.17-1,.33.17,1.15,0,1.64.17a4.41,4.41,0,0,1-.33-1.15c.33.16,1-.16,1.64.16-.17-.32-.17-.81-.33-1,.49.17,1.15,0,1.8.33-.16-.49,0-1-.16-1.47.16.16,1.14.16,1.47.32-.16-.32,0-.65,0-1,.33.17,1.31.17,1.8.33,0-1.14.49-1.47,1.64-.82.16-1.31.65-1.47,1.63-.65.33-1,1-1.15,1.8-.17.17-1.14.82-1.47,1.8-.81.66-.82,1-.33,1.8,0l.66-.33c.32-1,1.3-1,2.29-.49V1.48c.49.17,1.31.17,1.8.66,0-1.15.81-1.15,1.63-.49.17-.17,0-.49,0-.66.49.17,1.31,0,2,.49.32-1.31,1-1,1.8-.16,1-.33.81-.49,2,.16.65-.81,1-.65,1.8.17.82-.33.49-.49,1.63,0,1-.33.5-.66,1.64.16.82-.82,1.15-.49,1.64.49a1.18,1.18,0,0,1,2.12.33c.82-1,1.8-.82,2.13.49.82-.82,1.64-.82,1.8.49,1-1.14,1.8-.82,2,.49,1-1,2-1,2,.66,1-.82,1.8-.66,1.8.65,1.14-.82,2-.65,2,.65,1.31-.49,2,.17,2,1.48l.33.16a2.14,2.14,0,0,1,1.64-.33,2.52,2.52,0,0,1-.17,1.48c1-1,2.46-1,1.8.49.66-.17,1.31.16,2,0-.17.16-.17.65-.33,1a6.28,6.28,0,0,1,1.8.16c-.17.17-.17.66-.49,1a7.46,7.46,0,0,1,2,.17,1.84,1.84,0,0,1-.16.82c1.14-.17,2,.16,1.47,1.14.65,0,1,.33,1.64.49,0,.33-.33.33-.33.66a13.88,13.88,0,0,0,1.31.49c0,.16-.49.65-.49.65a4,4,0,0,1,2.45.82c0,.16-.16.33-.33.65.82,0,1.31.5,2,.66a3.44,3.44,0,0,0-.82.65c.65.17,1.15.82,1.64,1,0,.17-.33.33-.49.5a2.84,2.84,0,0,1,2,1.3,1.29,1.29,0,0,1-.66.66c.82.16,1.31,1,1.8,1.14l-1,.5c1.15.32,2,.81,1.64,1.8.49.32.65,1,1.14,1.3-.32.17-.49.17-.82.33l.33.66a2.2,2.2,0,0,1,1.48.81c-.17.17-.5.33-.66.49,1,.17,1.31.82,2,1.15-.32.16-.49.33-.65.33.82.32,1.14,1,1.8,1.47a1.21,1.21,0,0,0-.82.33c.49.32,1,1,1.31,1.14a1.26,1.26,0,0,0-.65.33c.65.33.81,1,1.3,1.31a2.28,2.28,0,0,0-.65.49c1,.16,1.47.82.65,1.64a5.31,5.31,0,0,1,1,1,4.41,4.41,0,0,1-.82.49c1.14.33,1.8,1,.65,1.63.49.17.82.66,1.15.82l-1,.49c1.3.49.65.82.65,1.64l-.49.82a1.9,1.9,0,0,1,1.31,1.8,1,1,0,0,0-.66.16c.66.49,1,1.31,1.48,1.8a10,10,0,0,1-1.31.65,3,3,0,0,1,.82,1.31c-.17,0-.66.33-1,.33.17.16.66,1,.82,1.15-.16,0-.65.32-.82.32.82.82,1,1.64,0,2.13,0,.33.33.65.49,1-.16,0-.81.33-1,.33.33.33.66.82,1,1-.32.33-.65.33-.81.49,0,.33.32.66.49,1,0,.33-.49.17-.49.49.16.33.49.82.65,1.15,0,.16-.49,0-.49.16,0,.33.33.49.49.82a2.86,2.86,0,0,1-.82.33c.33.33.66.82,1,1.14-.32,0-.65.33-1,.49.33.17.66.49,1,.66a3.1,3.1,0,0,1-1.3.49c.32.33.65.82,1,1-.17.16-.66.33-.82.49.33.33.65,1,1,1.15a9.44,9.44,0,0,1-1.14.49,5.17,5.17,0,0,0,1,.49c-.17.33-.66.33-.82.49.16.33.65.49.82.82a5.88,5.88,0,0,1-.82.49l1,1c-.16.16-.65.49-.65.65.49.33.65.82,1,1.15l-1,.49a.35.35,0,0,1,.32.33c-.16.16-.32.16-.65.33.16.32.49.49.65.65a2.2,2.2,0,0,0-.32,2.62l-2.78,12.6-85.08.16Z"/><path class="cls-6" d="M103.9,48.6a10,10,0,0,0,1.31-.65c-.49-.49-.82-1.31-1.48-1.8a1,1,0,0,1,.66-.16,1.9,1.9,0,0,0-1.31-1.8l.49-.82c0-.82.65-1.15-.65-1.64l1-.49c-.33-.16-.66-.65-1.15-.82,1.15-.65.49-1.3-.65-1.63a4.41,4.41,0,0,0,.82-.49,5.31,5.31,0,0,0-1-1c.82-.82.33-1.48-.65-1.64a2.28,2.28,0,0,1,.65-.49c-.49-.33-.65-1-1.3-1.31a1.26,1.26,0,0,1,.65-.33c-.33-.16-.82-.82-1.31-1.14a1.21,1.21,0,0,1,.82-.33c-.66-.49-1-1.15-1.8-1.47.16,0,.33-.17.65-.33-.65-.33-1-1-2-1.15.16-.16.49-.32.66-.49a2.2,2.2,0,0,0-1.48-.81l-.33-.66c.33-.16.5-.16.82-.33-.49-.32-.65-1-1.14-1.3.32-1-.49-1.48-1.64-1.8l1-.5c-.49-.16-1-1-1.8-1.14a1.29,1.29,0,0,0,.66-.66,2.84,2.84,0,0,0-2-1.3c.16-.17.49-.33.49-.5-.49-.16-1-.81-1.64-1a3.44,3.44,0,0,1,.82-.65c-.66-.16-1.15-.66-2-.66.17-.32.33-.49.33-.65A4,4,0,0,0,88,15.88s.49-.49.49-.65a13.88,13.88,0,0,1-1.31-.49c0-.33.33-.33.33-.66-.66-.16-1-.49-1.64-.49.49-1-.33-1.31-1.47-1.14a1.84,1.84,0,0,0,.16-.82,7.46,7.46,0,0,0-2-.17c.32-.32.32-.81.49-1a6.28,6.28,0,0,0-1.8-.16c.16-.33.16-.82.33-1-.66.16-1.31-.17-2,0,.66-1.48-.81-1.48-1.8-.49a2.52,2.52,0,0,0,.17-1.48,2.14,2.14,0,0,0-1.64.33l-.33-.16c0-1.31-.65-2-2-1.48,0-1.3-.82-1.47-2-.65,0-1.31-.82-1.47-1.8-.65,0-1.64-1-1.64-2-.66-.16-1.31-1-1.63-2-.49-.16-1.31-1-1.31-1.8-.49-.33-1.31-1.31-1.47-2.13-.49a1.18,1.18,0,0,0-2.12-.33c-.49-1-.82-1.31-1.64-.49-1.14-.82-.65-.49-1.64-.16-1.14-.49-.81-.33-1.63,0-.82-.82-1.15-1-1.8-.17-1.15-.65-1-.49-2-.16-.82-.82-1.48-1.15-1.8.16-.66-.49-1.48-.32-2-.49,0,.17.17.49,0,.66-.82-.66-1.63-.66-1.63.49-.49-.49-1.31-.49-1.8-.66v.66c-1-.49-2-.49-2.29.49L41.56,3c-.82-.33-1.14-.82-1.8,0-1-.66-1.63-.33-1.8.81-.82-1-1.47-.81-1.8.17-1-.82-1.47-.66-1.63.65-1.15-.65-1.64-.32-1.64.82-.49-.16-1.47-.16-1.8-.33,0,.33-.16.66,0,1-.33-.16-1.31-.16-1.47-.32.16.49,0,1,.16,1.47-.65-.33-1.31-.16-1.8-.33.16.17.16.66.33,1-.66-.32-1.31,0-1.64-.16A4.41,4.41,0,0,0,27,8.85c-.49-.17-1.31,0-1.64-.17.17.33,0,.66.17,1-1.31-.5-1.31,0-1.31,1l-.33.65c-1.31-.82-2.94-.16-1.8,1.31-1.31-.66-2.29-.33-1.63,1.14-1.31-.65-1.8,0-1.31,1.15-1.31-.49-2.29-.16-1.8,1.31-1.31-.33-2,.16-1.31,1.47-1.15-.49-1.64,0-1.15,1.31-1.31-.33-2.12,0-1.47,1.47-1.31-.49-2,.17-1.47,1.31-1.31-.33-1.8.17-1.15,1.31-1.47-.33-2,.49-1.31,1.8-1.31-.16-1.63.49-1.31,1.64-1.47,0-1.8,1-1,2.12-.32,0-1,.17-1.31.17.17.32.17,1.14.49,1.63-1.3-.16-1.79.82-.65,1.8-1.31,0-1.8.49-.82,1.48-1.31.32-.82.65-.32,1.47l.32.65c-1.63-.32-3.43,1.64-1.47,2.78a11.32,11.32,0,0,0-1.31.66c.33.16.49.82,1.15,1.14C2,40.75,2,41.57,3,42.55c-1.47.16-1.8,1.15-.49,2-1.31.33-1.31,1-.33,1.8C.82,46.48.66,47.13,1.8,48c-1,.65-1.14,1-.32,1.8C.33,50.4.33,51.22,1.31,52c-.49,1-.49.65.33,1.64C1,54.82.82,54.49,2,55.31c-.66.82-1,1.15.32,1.64-.49.16-.65.82-1,1,.33,0,.66.33,1.15.49-1.15.66-1.15,1.47,0,2-1,.82-1,1.15,0,1.8-1.15.82-1.15,1.8,0,2.29-.66,1-.49,1.8.82,1.64-1,1-1.31,2.29,0,2.62-.82.82-1,2,.16,2.45-.65,1,0,1,.16,1.8l12,15.71h.65L5.44,74.44c-.16-.8-.8-.8-.16-1.76-1.12-.49-1-1.61-.16-2.41-1.28-.33-1-1.61,0-2.58-1.28.16-1.44-.64-.8-1.6-1.12-.49-1.12-1.45,0-2.25-1-.65-1-1,0-1.77-1.12-.48-1.12-1.29,0-1.93-.48-.16-.8-.48-1.12-.48.32-.16.48-.81,1-1-1.28-.48-1-.8-.32-1.6-1.11-.81-1-.49-.32-1.61-.79-1-.79-.64-.32-1.61-1-.8-1-1.6.16-2.25-.79-.8-.63-1.12.32-1.77-1.11-.8-1-1.44.32-1.6-1-.81-1-1.45.32-1.77-1.27-.8-1-1.77.48-1.93-1-1-1-1.77.32-2.09-.64-.32-.8-1-1.12-1.12a9.44,9.44,0,0,1,1.28-.65c-1.92-1.12-.16-3,1.44-2.73l-.32-.64c-.48-.8-1-1.13.32-1.45-1-1-.48-1.44.79-1.44-1.11-1-.63-1.93.64-1.77a8.69,8.69,0,0,1-.48-1.61c.32,0,1-.16,1.28-.16-.8-1.13-.48-2.09,1-2.09-.32-1.12,0-1.77,1.28-1.61-.64-1.28-.16-2.09,1.27-1.76-.64-1.13-.16-1.61,1.12-1.29-.48-1.12.16-1.77,1.43-1.28-.63-1.45.17-1.77,1.44-1.45-.48-1.29,0-1.77,1.12-1.29-.64-1.28,0-1.76,1.27-1.44-.47-1.45.48-1.77,1.76-1.29-.48-1.12,0-1.77,1.28-1.12-.64-1.45.32-1.77,1.59-1.13-1.11-1.45.48-2.09,1.76-1.29l.32-.64c0-1,0-1.44,1.28-1-.16-.32,0-.64-.16-1,.31.16,1.11,0,1.59.16a4.07,4.07,0,0,1-.32-1.12c.32.16,1-.16,1.6.16-.16-.32-.16-.8-.32-1,.48.16,1.12,0,1.75.32-.15-.49,0-1-.15-1.45.15.16,1.11.16,1.43.32-.16-.32,0-.64,0-1,.32.16,1.28.16,1.76.32,0-1.13.48-1.45,1.59-.8.16-1.29.64-1.45,1.6-.65.32-1,1-1.12,1.76-.16.15-1.12.79-1.44,1.75-.8.64-.81,1-.32,1.76,0l.63-.32c.32-1,1.28-1,2.24-.49V4.21c.48.16,1.28.16,1.75.64,0-1.12.8-1.12,1.6-.48.16-.16,0-.48,0-.64.48.16,1.28,0,1.92.48.32-1.28,1-1,1.75-.16,1-.32.8-.48,1.92.16.64-.8,1-.64,1.75.16.8-.32.48-.48,1.6,0,1-.32.48-.64,1.59.16.8-.8,1.12-.48,1.6.49a1.16,1.16,0,0,1,2.08.32c.79-1,1.75-.81,2.07.48.8-.8,1.6-.8,1.76.48,1-1.12,1.75-.8,1.91.48,1-1,1.92-1,1.92.65,1-.81,1.75-.65,1.75.64,1.12-.8,1.92-.64,1.92.64,1.27-.48,1.91.16,1.91,1.45l.32.16a2.08,2.08,0,0,1,1.6-.32,2.45,2.45,0,0,1-.16,1.44c1-1,2.39-1,1.75.49.64-.16,1.28.16,1.92,0-.16.16-.16.64-.32,1a6,6,0,0,1,1.76.16c-.16.16-.16.64-.48,1a6.71,6.71,0,0,1,1.91.16,1.74,1.74,0,0,1-.16.8c1.12-.16,1.92.16,1.44,1.12.64,0,1,.33,1.6.49,0,.32-.32.32-.32.64a10.8,10.8,0,0,0,1.27.48c0,.16-.48.65-.48.65a3.93,3.93,0,0,1,2.4.8c0,.16-.16.32-.32.64.8,0,1.27.48,1.91.64a3.42,3.42,0,0,0-.79.65c.63.16,1.11.8,1.59,1,0,.16-.32.32-.48.48A2.8,2.8,0,0,1,94,23.82a1.25,1.25,0,0,1-.64.64c.8.16,1.28,1,1.76,1.13l-1,.48c1.12.32,1.91.8,1.59,1.77.48.32.64,1,1.12,1.28-.32.16-.48.16-.8.32l.32.65a2.15,2.15,0,0,1,1.44.8c-.16.16-.48.32-.64.48,1,.16,1.28.81,1.92,1.13-.32.16-.48.32-.64.32.8.32,1.12,1,1.75,1.45a1.19,1.19,0,0,0-.79.32c.47.32,1,1,1.27,1.12a1.21,1.21,0,0,0-.64.32c.64.32.8,1,1.28,1.29a2.21,2.21,0,0,0-.64.48c1,.16,1.44.8.64,1.61a5.26,5.26,0,0,1,1,1,3.5,3.5,0,0,1-.8.48c1.12.33,1.75,1,.64,1.61.48.16.8.64,1.11.81l-1,.48c1.27.48.64.8.64,1.6l-.48.81a1.88,1.88,0,0,1,1.27,1.77,1,1,0,0,0-.64.16c.64.48,1,1.28,1.44,1.76l-.66.37c.31-.07.69-.31.83-.31A3,3,0,0,0,103.9,48.6Zm-.49,21.76c0-.16.49-.49.65-.65l-1-1a5.88,5.88,0,0,0,.82-.49c-.13-.25-.44-.41-.66-.61a7.07,7.07,0,0,1-.92.39,5.24,5.24,0,0,0,1,.48c-.16.32-.63.32-.79.48.16.32.63.48.79.8a5.41,5.41,0,0,1-.79.49l1,1c-.16.16-.63.48-.63.64a2.24,2.24,0,0,1,.59.65.81.81,0,0,0,.34-.19.35.35,0,0,0-.32-.33l1-.49C104.06,71.18,103.9,70.69,103.41,70.36Zm.1,2.76-.71.36a.33.33,0,0,1,.31.32c-.15.16-.31.16-.63.32.16.32.48.48.63.64a2.18,2.18,0,0,0-.31,2.58l-2.46,11.19h.29l2.78-12.6a2.2,2.2,0,0,1,.32-2.62Zm-.24-22.62a2.3,2.3,0,0,1,.73,1.12,2.16,2.16,0,0,1,.55-.23c-.15-.16-.59-.89-.78-1.11A4.46,4.46,0,0,1,103.27,50.5Zm1,5.63a3,3,0,0,1-.75-.73,1.25,1.25,0,0,1-.36.24c0,.3.27.59.44.89A1.89,1.89,0,0,0,104.22,56.13Zm-.65,1.75c.15-.06.33-.08.33-.28-.16-.31-.47-.63-.49-1a5.47,5.47,0,0,1-.77.28A6,6,0,0,0,103.57,57.88Zm-.1,5.33a7.52,7.52,0,0,0,.75-.37c-.32-.17-.65-.49-1-.66.33-.16.66-.49,1-.49-.32-.32-.65-.81-1-1.14a2.86,2.86,0,0,0,.82-.33c-.16-.33-.49-.49-.49-.82,0-.16.49,0,.49-.16-.16-.33-.49-.82-.65-1.15a.07.07,0,0,1,0-.05c-.26.17-.49.2-.62.33,0,.32.31.65.47,1,0,.32-.47.16-.47.48.16.32.47.8.63,1.12,0,.16-.47,0-.47.16,0,.33.31.49.47.81a2.67,2.67,0,0,1-.79.32C102.91,62.51,103.19,62.9,103.47,63.21Zm-.36-11.11c.16.17.64,1,.8,1.13-.16,0-.64.32-.8.32a1.63,1.63,0,0,1,.64,1.43,2.13,2.13,0,0,1,.47-.16c-.16-.33-.49-.65-.49-1,.93-.46.84-1.22.13-2A2.29,2.29,0,0,1,103.11,52.1Zm.16,13.83c-.16.16-.63.32-.79.48.24.24.48.67.72.93.22-.09.56-.14.7-.41a5.17,5.17,0,0,1-1-.49,9.44,9.44,0,0,0,1.14-.49c-.33-.17-.65-.82-1-1.15.16-.16.65-.33.82-.49a3.16,3.16,0,0,1-.79-.77c-.16.1-.31.22-.47.3.32.16.63.48,1,.64a3,3,0,0,1-1.27.48C102.64,65.28,103,65.77,103.27,65.93Z"/><path class="cls-7" d="M4.94,35.75a2.16,2.16,0,0,0-2.36,1.19,1.28,1.28,0,0,0,.14,1.17c0,.06.52.5.45.52a11.13,11.13,0,0,0-1.08.57.09.09,0,0,0,0,.15,5.8,5.8,0,0,1,.75.88c.28.29.07.2-.24.37a.86.86,0,0,0-.37,1.08c0,.08.45.82.45.82a1.68,1.68,0,0,0-.78.32A.82.82,0,0,0,1.72,44c.05.07.5.52.47.53a1.64,1.64,0,0,0-.68.38c-.3.28-.13.76.09,1,.37.44.28.28-.16.49a.81.81,0,0,0-.45.4c-.22.38.29.88.56,1.08.11.09-.48.54-.53.61A.66.66,0,0,0,.86,49a1.48,1.48,0,0,0,.37.67c.09.12-.58.74-.66.9-.25.51.14,1,.47,1.4s-.36.77,0,1.18.53.58.21,1.06c-.06.1-.21.28-.19.42.05.44,1,.56.62,1-.16.2-.49.6-.31.89a1.12,1.12,0,0,0,.46.4c.38.21.22,0,0,.4a2.3,2.3,0,0,1-.51.61c-.05,0-.06.16,0,.17a4.07,4.07,0,0,1,.91.4s-.41.39-.43.43a.83.83,0,0,0-.11,1.07c.07.08.61.49.5.59s-.48.43-.51.67a1,1,0,0,0,.53.93c.1.07-.43.63-.51.75a1.26,1.26,0,0,0-.17.59c0,.34.76,1.14.75,1.17-.58.92-.13,1.57.79,1.6a2.15,2.15,0,0,0-.71,1.72.93.93,0,0,0,.35.61c.52.36.31.27,0,.84A1.28,1.28,0,0,0,3,71c.4.27.09.55.09.93s.41.71.5,1h0c-.18-.68-.55-1-.1-1.76a.08.08,0,0,0,0-.1c-1.09-.56-.84-1.57-.14-2.32a.1.1,0,0,0,0-.16c-1.36-.44-.61-1.76.05-2.46A.1.1,0,0,0,3.28,66c-.37,0-.89.09-1.07-.38s.17-.83.34-1.1a.11.11,0,0,0,0-.15c-1.14-.56-.81-1.47,0-2.13a.09.09,0,0,0,0-.15c-.31-.22-.83-.5-.62-1a2.27,2.27,0,0,1,.64-.67.1.1,0,0,0,0-.15,1.9,1.9,0,0,1-.59-.37c-.7-.59.23-1.2.59-1.43a.09.09,0,0,0,0-.17c-.18-.08-.83-.52-1-.4.35-.25.43-.69.86-.9a.09.09,0,0,0,0-.17c-.26-.1-1-.32-.77-.82A3.19,3.19,0,0,1,2,55.38a.1.1,0,0,0,0-.15c-.18-.12-.88-.46-.75-.76a6.57,6.57,0,0,1,.46-.75.09.09,0,0,0,0-.11l-.46-.53c-.31-.35,0-.67.15-1,0,0,0-.09,0-.11-.83-.76-.84-1.53.14-2.15a.1.1,0,0,0,0-.15,2.59,2.59,0,0,1-.42-.51c-.32-.51.44-.94.73-1.14a.09.09,0,0,0,0-.16c-.26-.2-1.12-.79-.47-1.25a1.9,1.9,0,0,1,.77-.22.09.09,0,0,0,0-.15,3.56,3.56,0,0,1-.56-.6c-.42-.61.41-.92.85-1a.09.09,0,0,0,0-.16c-.42-.29-1.08-.8-.6-1.39A1.66,1.66,0,0,1,3,42.64c.07,0,.08-.11,0-.15a3.88,3.88,0,0,1-.55-.73c-.4-.69.29-1.09.84-1.25a.09.09,0,0,0,0-.16,3.54,3.54,0,0,1-.93-1c-.12-.16-.14-.08,0-.13a9.54,9.54,0,0,1,1.11-.55.09.09,0,0,0,0-.16c-1.7-1.11-.19-2.85,1.41-2.61C5,36,5.06,35.77,4.94,35.75ZM21.66,11.86c0,.14.13.52.27.59a2.4,2.4,0,0,0-.78-.22c-.34,0-.83,0-.93.45a1.47,1.47,0,0,0,0,.66c.09.44-.1.16-.43.12s-.79,0-.9.52a1.52,1.52,0,0,0,.08.73,7.14,7.14,0,0,0-.79-.11,1,1,0,0,0-1,.52,1.31,1.31,0,0,0,0,.68c.08.43-.31.23-.62.23a.79.79,0,0,0-.84.69,1.67,1.67,0,0,0,.15.76s-.43-.06-.54-.07a.62.62,0,0,0-.68.6,3.51,3.51,0,0,0,.08.85,2.88,2.88,0,0,0-.88-.05.75.75,0,0,0-.7.59,1.83,1.83,0,0,0,.13.86,7.78,7.78,0,0,0-.86,0,.8.8,0,0,0-.69.78c0,.31.25.66-.19.59a1.36,1.36,0,0,0-.72.06c-.51.26-.38.78-.19,1.23,0-.12-1,.08-1.2.26A1.35,1.35,0,0,0,9.3,24.7c-.05-.14-1,.24-1.16.46a1.27,1.27,0,0,0-.17.77,3.12,3.12,0,0,0,.06.41c0,.1-.44.13-.51.15a1.07,1.07,0,0,0-.86,1.09,2,2,0,0,0,.33.93c.07.12,0,0-.16.07s-.62.11-.94.13c-.06,0-.12.06-.09.12a10.54,10.54,0,0,0,.4,1.49c-.1-.19-.92.21-1,.35a.86.86,0,0,0-.1.86c0,.07.31.63.41.63a2.71,2.71,0,0,0-.79.16.6.6,0,0,0-.38.45c0,.39.57.86.15,1-.84.3-.23.95.08,1.44,0,.05.13,0,.09-.06s-.23-.37-.35-.56c-.34-.55.3-.71.65-.81a.08.08,0,0,0,0-.13c-.25-.27-.9-.91-.08-1.23a2.69,2.69,0,0,1,.84-.1.09.09,0,0,0,.06-.15c-.32-.31-.67-.65-.58-1.17s.82-.49,1.17-.47a.1.1,0,0,0,.09-.15A5.85,5.85,0,0,1,6,28.91l1.16-.16c.08,0,.14-.09.09-.16-.67-1-.43-1.91.89-2a.11.11,0,0,0,.11-.13,2.16,2.16,0,0,1-.08-1c.12-.57.85-.54,1.28-.5.09,0,.12-.09.09-.15a1.6,1.6,0,0,1-.18-1.36c.22-.49,1-.37,1.38-.3a.09.09,0,0,0,.1-.14,1.47,1.47,0,0,1-.27-.93c.07-.55,1-.32,1.32-.25.05,0,.12,0,.09-.1-.16-.42-.31-.93.14-1.26s.88-.07,1.24.05c0,0,.12,0,.09-.1-.16-.4-.38-.91-.06-1.29s1.08-.16,1.44-.08A.08.08,0,0,0,15,19a2,2,0,0,1-.15-1.08c.11-.56.91-.24,1.2-.13.07,0,.12-.06.09-.12-.2-.43-.5-1.12.15-1.39a1.91,1.91,0,0,1,1.06,0,.09.09,0,0,0,.11-.1c-.15-.51-.26-1.13.35-1.37a2.18,2.18,0,0,1,1.35.16c.05,0,.12,0,.09-.1a2.64,2.64,0,0,1-.2-.73c-.08-.93,1-.51,1.4-.34,0,0,.12,0,.1-.07-.18-.45-.44-1.14.21-1.36a2.06,2.06,0,0,1,1.32.29c.06,0,.15,0,.1-.1-.37-.5-.64-1.21.14-1.5a2,2,0,0,1,1.56.3.08.08,0,0,0,.08-.14C23.21,10.83,21.56,10.58,21.66,11.86Zm20-9a3.33,3.33,0,0,0-1.24-.46c-.44,0-.48.41-1,.23-.84-.31-1.3.16-1.49.91-.68-.66-1.36-.69-1.78.21-.32-.25-.84-.62-1.19-.36a1,1,0,0,0-.38.52s-.08.52-.19.46a2.37,2.37,0,0,0-.58-.21.75.75,0,0,0-.9.48A2.09,2.09,0,0,0,32.8,5c0,.35-.1.23-.42.18A5.93,5.93,0,0,1,31.12,5c-.08,0-.14,0-.15.11a3.3,3.3,0,0,0,0,.82,4.55,4.55,0,0,1-1.26-.26.11.11,0,0,0-.17.13c.09.42.07.85.13,1.27-.54-.17-1.07-.13-1.63-.26a.11.11,0,0,0-.12.16,3.23,3.23,0,0,1,.25.76c-.49-.11-.95,0-1.44-.1a.1.1,0,0,0-.13.1,3.66,3.66,0,0,0,.27,1,7.74,7.74,0,0,1-1.45-.12.09.09,0,0,0-.11.11c.39,1.3-.24.37-.81.75-.38.24-.3.8-.3,1.19,0,0,.09,0,.09,0a5.16,5.16,0,0,1,.06-.79c.12-.58.9-.23,1.19-.12,0,0,.11,0,.09-.1-.07-.26-.25-.85.07-.8a11.38,11.38,0,0,1,1.3.1.1.1,0,0,0,.12-.14s-.28-1-.29-1c.48.13,1-.07,1.48.12a.11.11,0,0,0,.13-.13c-.09-.27-.13-.55-.23-.8a7,7,0,0,1,1.57.28c.09,0,.16-.06.14-.14-.09-.42-.07-.83-.13-1.25.41.15.9.09,1.3.25.08,0,.17-.07.14-.15-.24-.87,0-.77.49-.69a9.18,9.18,0,0,1,1.17.18A.12.12,0,0,0,33,5.41a2,2,0,0,1,.15-.81c.25-.51,1-.06,1.31.09.06,0,.16,0,.17-.07A3.78,3.78,0,0,1,34.78,4c.24-.82,1-.22,1.3,0a.12.12,0,0,0,.19,0c.11-.5.46-.71,1-.62a2.45,2.45,0,0,1,.56.5.11.11,0,0,0,.19,0,2.34,2.34,0,0,1,.25-.76c.33-.6,1-.23,1.38,0a.12.12,0,0,0,.14,0c.57-.65,1.09-.24,1.69,0C41.64,3.11,41.73,2.91,41.62,2.86Zm32.69,3s-.33-.89-.59-1a1.6,1.6,0,0,0-1.46.32c-.14-1.11-.93-1.24-1.79-.67,0-.44-.13-1-.58-1.16a1.49,1.49,0,0,0-1.42.5c-.28-1.18-1.13-1.3-2-.51-.26-1-1-1.1-1.81-.46-.25-.65-.8-1.33-1.58-.92a2.85,2.85,0,0,0-.53.38c-.06.06-.38-.37-.44-.42a1.14,1.14,0,0,0-1.22-.18c-.05,0-.48.39-.56.25a2.16,2.16,0,0,0-.47-.65.69.69,0,0,0-.84,0c-.52.29-.63-.13-1.12-.21s-.53.45-1,.24A1.18,1.18,0,0,0,56,1.27c-.22.09-.39.31-.63.08a2.12,2.12,0,0,0-.58-.44.75.75,0,0,0-.85.13c-.43.42-.83-.13-1.34-.13a1.27,1.27,0,0,0-.37.1c-.42.15-.54.08-.88-.2a1.07,1.07,0,0,0-.91-.3c-.31.05-.46.45-.55.7,0,0-1.81-.31-1.89-.33a.12.12,0,0,0-.14.14c.08.53-.08.29-.41.17a1.21,1.21,0,0,0-.7-.06c-.36.07-.47.47-.51.81a5.44,5.44,0,0,0-1.68-.55.1.1,0,0,0-.12.09c0,.41.08.54-.33.39a1.8,1.8,0,0,0-.89-.12,1.21,1.21,0,0,0-1,.87s0,.06.07,0c.43-1,1.41-.82,2.21-.43a.1.1,0,0,0,.14-.08c0-.3-.12-.55.25-.47a3,3,0,0,1,1.38.54.11.11,0,0,0,.19-.07c.06-1,.9-.81,1.46-.39a.12.12,0,0,0,.16,0,.87.87,0,0,0,.05-.57,4.67,4.67,0,0,1,1.75.45A.13.13,0,0,0,50,1.52c.12-.4.25-1,.87-.71a3,3,0,0,1,.73.6.13.13,0,0,0,.12,0c.25-.09.5-.2.76-.27s.82.26,1.11.42a.12.12,0,0,0,.15,0c.61-.72,1-.41,1.62.16a.11.11,0,0,0,.15,0c.24-.1.52-.32.79-.27s.59.37.82.29a3.77,3.77,0,0,0,.61-.29c.29-.17.7.28.93.44a.14.14,0,0,0,.15,0c.7-.66,1.1-.19,1.44.46a.12.12,0,0,0,.19,0,1.12,1.12,0,0,1,1.93.3.13.13,0,0,0,.2,0,1.93,1.93,0,0,1,.79-.57c.66-.23,1,.54,1.13,1a.13.13,0,0,0,.21.06,2.2,2.2,0,0,1,.74-.5c.61-.22.78.52.85.93a.13.13,0,0,0,.21.06,2.15,2.15,0,0,1,.85-.64c.67-.25.84.7.91,1.07a.12.12,0,0,0,.2.06,2.55,2.55,0,0,1,.89-.6c.74-.27.85.7.87,1.17,0,.11.12.14.2.08a1.83,1.83,0,0,1,1-.46c.58-.06.61.7.63,1a.12.12,0,0,0,.18.1,3.11,3.11,0,0,1,.93-.46c.67-.18.83.54.85,1,0,.08.08.15.15.12,1.16-.38,1.78.19,1.8,1.36,0,.17.28.17.27,0C76.17,6.34,75.57,5.56,74.31,5.87ZM97.46,26.74a8,8,0,0,1-.83-1c-.29-.32-.16-.58-.26-1-.15-.58-.85-.88-1.42-1.07l.67-.33a.15.15,0,0,0,0-.25c-.6-.26-1-.79-1.56-1.06a1.57,1.57,0,0,0,.46-.55.1.1,0,0,0,0-.13,3.33,3.33,0,0,0-1.79-1.31.93.93,0,0,0,.32-.36c0-.06,0-.15,0-.18-.54-.23-.94-.67-1.47-.91a3.51,3.51,0,0,1,.65-.5.13.13,0,0,0,0-.23,11,11,0,0,0-1.8-.63,1.83,1.83,0,0,0,.25-.53.13.13,0,0,0-.06-.14,4.36,4.36,0,0,0-2.24-.81,1.56,1.56,0,0,0,.34-.52.13.13,0,0,0-.09-.15c-.09,0-1.33-.37-1-.66a.53.53,0,0,0,.15-.34.13.13,0,0,0-.09-.15,10.4,10.4,0,0,0-1.5-.47c.13-.36.17-.8-.23-1a2,2,0,0,0-.73-.2s-.51.06-.47,0a1.61,1.61,0,0,0,.08-.61.14.14,0,0,0-.13-.13,14.52,14.52,0,0,0-1.73-.19c.13-.25.2-.52.36-.77a.11.11,0,0,0-.1-.17,10.41,10.41,0,0,0-1.64-.18,3.12,3.12,0,0,1,.26-.8c.06-.09,0-.17-.12-.16a5.31,5.31,0,0,1-1.38,0c-.43,0-.36.05-.3-.39a.63.63,0,0,0-.19-.57c-.52-.39-1.21,0-1.68.34a3.66,3.66,0,0,0,0-1.2.05.05,0,0,0,0-.06,2.45,2.45,0,0,0-1.68.36s0,.09,0,.07S78,7,78,7.52a2.41,2.41,0,0,1-.18,1.28.09.09,0,0,0,.14.11c.63-.58,2.23-1.11,1.63.4,0,.08.06.14.13.13.59-.09,1.17.06,1.76,0-.11.27-.16.56-.26.83,0,.09.06.15.14.14a5.58,5.58,0,0,1,1.58.15,3.68,3.68,0,0,1-.39.8.12.12,0,0,0,.12.2,4.67,4.67,0,0,1,1.53.13c.43.08.27.31.12.7a.12.12,0,0,0,.12.16c.63-.07,1.83-.14,1.36,1a.13.13,0,0,0,.11.19,4.5,4.5,0,0,1,1.34.4c.1,0-.14.51-.15.58a.12.12,0,0,0,.06.14,10.2,10.2,0,0,0,1,.41c.32.11-.14.43-.25.55A.12.12,0,0,0,88,16a4.82,4.82,0,0,1,1.42.26,4.55,4.55,0,0,1,.79.41c.19.12-.14.53-.19.62a.13.13,0,0,0,.1.19,5.64,5.64,0,0,1,1.68.56,6.2,6.2,0,0,0-.62.53.14.14,0,0,0,.06.22,3.49,3.49,0,0,1,1.1.68l.34.22c.05,0-.33.33-.36.35a.13.13,0,0,0,.06.22,2.79,2.79,0,0,1,1.34.64,2.06,2.06,0,0,1,.29.3c.37.4,0,.6-.36.78a.14.14,0,0,0,0,.25c.63.18,1,.69,1.53,1l-.75.37a.14.14,0,0,0,0,.26c.79.24,1.81.6,1.54,1.63a.12.12,0,0,0,0,.14,9.86,9.86,0,0,1,1,1.16c-.21.08-.42.15-.62.24s0,.34.15.26.55-.21.82-.33A.15.15,0,0,0,97.46,26.74Zm5.42,15.13c.93.38.54.75.57,1.5,0,.13.22.17.23,0a3.25,3.25,0,0,0,.19-1.06.94.94,0,0,0-.61-.62l.71-.35a.15.15,0,0,0,0-.25c-.34-.22-.6-.51-.94-.71.83-.67.27-1.29-.57-1.65a3.33,3.33,0,0,0,.56-.36.15.15,0,0,0,0-.21,8.32,8.32,0,0,0-.88-.9c.58-.75.28-1.4-.57-1.68a4.15,4.15,0,0,1,.43-.3.14.14,0,0,0,0-.22,4.58,4.58,0,0,1-.66-.73c-.26-.32-.79-.55-.06-.69a.12.12,0,0,0,0-.22,4.67,4.67,0,0,1-.74-.67c-.3-.29-.8-.47.19-.58.09,0,.17-.13.08-.2a13.06,13.06,0,0,0-1.61-1.38,4.91,4.91,0,0,0,.44-.25.11.11,0,0,0,0-.19c-.4-.22-.73-.54-1.11-.8a2.4,2.4,0,0,0-.63-.29,4.6,4.6,0,0,1,.43-.39.09.09,0,0,0,0-.11,2.49,2.49,0,0,0-1.51-.82.06.06,0,1,0,0,.11,4.59,4.59,0,0,1,1,.39c.57.34-.06.66-.25.8s0,.14,0,.16a5.84,5.84,0,0,1,1.77,1.05,1.68,1.68,0,0,1-.47.22.12.12,0,0,0,0,.21,6.43,6.43,0,0,1,1.59,1.3,1.49,1.49,0,0,0-.63.31c-.07,0,0,.15,0,.19.4.3.72.69,1.1,1a2.19,2.19,0,0,0-.48.29.14.14,0,0,0,0,.2c.49.3.74.8,1.14,1.18a3.35,3.35,0,0,0-.52.41.15.15,0,0,0,.06.24c.76.16,1.21.69.59,1.39a.15.15,0,0,0,0,.23,4.56,4.56,0,0,1,.77.75c.18.22-.4.36-.61.47a.15.15,0,0,0,0,.27c.67.22,1.59.74.62,1.37a.14.14,0,0,0,0,.25,4.73,4.73,0,0,1,.94.67l-.78.39C102.72,41.67,102.77,41.83,102.88,41.87Zm2.39,6a12.05,12.05,0,0,1-.8-1.08c-.2-.28-.81-.73-.08-.75a.08.08,0,0,0,.08-.07,2.09,2.09,0,0,0-1.36-1.86c-.07,0-.13.08-.06.11a2.06,2.06,0,0,1,1.22,1.34c.12.42-.32.34-.58.5a.09.09,0,0,0,0,.13,7.26,7.26,0,0,1,1.18,1.46c.34.47-.59.7-1,.84-.06,0-.1.11,0,.16a2.79,2.79,0,0,1,.74,1.16,3,3,0,0,1-.87.3c-.09,0-.09.13,0,.19.27.31.46.68.71,1a4.16,4.16,0,0,1-.66.27.13.13,0,0,0-.06.21c.57.61,1,1.39,0,1.92a.15.15,0,0,0-.07.15,2.57,2.57,0,0,0,.41.87c-.27.08-.52.22-.8.28a.14.14,0,0,0-.06.23,7.75,7.75,0,0,0,.84.88c-.21.14-.44.22-.65.37a.15.15,0,0,0-.07.16,2.14,2.14,0,0,0,.39.82c.13.19-.21.3-.32.39-.32.26.39,1.06.51,1.26,0-.05-.45.13-.42.31a1.14,1.14,0,0,0,.29.54c.26.32.07.25-.25.35l-.26.08a.15.15,0,0,0-.07.24c.29.31.56.65.84,1a4.56,4.56,0,0,0-.81.44.15.15,0,0,0,0,.25c.27.15.51.34.77.52a2.76,2.76,0,0,1-1,.36.14.14,0,0,0-.11.24,7.77,7.77,0,0,0,.85.87,6.91,6.91,0,0,0-.65.38.14.14,0,0,0,0,.22c.29.33.51.71.83,1a7.61,7.61,0,0,1-.93.39.14.14,0,0,0,0,.26,7.52,7.52,0,0,0,.79.43c-.19.14-.43.18-.63.31a.14.14,0,0,0-.05.19,2,2,0,0,0,.46.46c.47.36-.15.53-.41.66a.13.13,0,0,0,0,.21l.59.59c.19.19.37.23.15.41a1.27,1.27,0,0,0-.44.51.13.13,0,0,0,0,.13,5.89,5.89,0,0,1,.87,1l-.84.43a.13.13,0,0,0,0,.24c.37.12-.31.4-.36.41a.13.13,0,0,0-.05.18,2.41,2.41,0,0,0,.56.59s-.33.54-.34.57A2.48,2.48,0,0,0,103.3,76c.06.13.28,0,.23-.1a2.18,2.18,0,0,1,.3-2.48.14.14,0,0,0,0-.2c-.08-.06-.69-.45-.33-.59a1,1,0,0,0,.33-.2.12.12,0,0,0,0-.13.67.67,0,0,0-.16-.29l.76-.37a.13.13,0,0,0,0-.21c-.23-.27-.41-.57-.63-.84-.33-.42,0-.46.31-.77a.15.15,0,0,0,0-.2l-.85-.85a3.25,3.25,0,0,0,.68-.43.12.12,0,0,0,0-.16c-.08-.11-.7-.73-.66-.74A1.3,1.3,0,0,0,104,67a.15.15,0,0,0-.09-.21,2.19,2.19,0,0,1-.69-.33c.3-.12.6-.25.89-.39a.14.14,0,0,0,0-.24,4.55,4.55,0,0,1-.84-1,6.71,6.71,0,0,0,.68-.4.14.14,0,0,0,0-.24,3.79,3.79,0,0,1-.78-.77A4.58,4.58,0,0,0,104.3,63a.14.14,0,0,0,0-.24c-.28-.16-.53-.36-.79-.53a1.87,1.87,0,0,1,.75-.36.14.14,0,0,0,.06-.24c-.29-.31-.55-.64-.83-1a1.84,1.84,0,0,0,.64-.28.13.13,0,0,0,.05-.19c0-.06-.49-.69-.29-.69a.28.28,0,0,0,.27-.12.15.15,0,0,0,0-.17c-.08-.15-.74-1.09-.49-1.19s.27-.09.31-.21c.07-.27-.07-.39-.23-.63s-.31-.42,0-.55a2.17,2.17,0,0,0,.58-.36c.08-.06,0-.17,0-.22a4,4,0,0,1-.81-.79,7,7,0,0,1,.77-.27c.09,0,.12-.13.08-.2s-.59-.7-.29-1a1.25,1.25,0,0,0,.48-.69c.13-.48-.25-1-.57-1.34a3.76,3.76,0,0,1,.62-.27.12.12,0,0,0,.06-.2c-.27-.31-.47-.67-.71-1,.28-.08.52-.23.81-.3a.1.1,0,0,0,.06-.15,4,4,0,0,0-.52-1c-.34-.37.66-.63,1-.8A.09.09,0,0,0,105.27,47.89Z"/><path class="cls-8" d="M104.88,81.49l.15.06c.68-2.52,1.09-5.26-1.46-6.77l-.33-.32c-1.14,3.92-1.63,9-2.78,12.76l-1.31,7.85,1.15.53.33-2.49C101.28,90.49,103.41,83.78,104.88,81.49Z"/><path class="cls-9" d="M104.22,84.44c.2-.86.52-1.86.81-2.89l-.15-.06c-1.47,2.29-3.6,9-4.25,11.62l-.33,2.49,1,.45C103.57,92.62,103.41,88.36,104.22,84.44Z"/><path class="cls-10" d="M103.19,74.44c-1.2,4.19-1.6,8.56-2.75,12.77,0,0,0,0,0,0,1.35-4.14,1.61-8.56,2.81-12.75A.05.05,0,1,0,103.19,74.44Zm.41.28a.07.07,0,0,0-.06.12c3.08,2.12,1.35,6.16.62,9-.48,1.9-.55,3.92-.85,5.86a17.42,17.42,0,0,1-2.1,6.27c0,.09.08.16.14.08,2.6-3.62,2.13-8.53,3.33-12.64C105.55,80.5,107,76.61,103.6,74.72Z"/><path class="cls-11" d="M104.87,81.48a25.72,25.72,0,0,0-2.5,5.56c-.39,1.09-.76,2.18-1.11,3.29a18.63,18.63,0,0,0-.75,2.75.12.12,0,0,0,.23.06c.7-1.89,1.14-3.91,1.78-5.83a30.28,30.28,0,0,1,2.37-5.81s0,0,0,0Z"/><path class="cls-8" d="M80.12,24.66l.24.18a3.26,3.26,0,0,1-.24-.4Zm9.16,2,.44.4v-.19S89.28,26.41,89.28,26.63ZM101.5,72.22c.22-3.49-3.06-10.69-2.84-18.76s-2.83-20.29-2.83-20.29a15.84,15.84,0,0,0-2.62-5.45h-.87a.93.93,0,0,1,.43.87,6.74,6.74,0,0,1-3-1.56v0c-1.31.66-2.62,0-3.71-1.09,0,.22.22.66.44.66A4.22,4.22,0,0,1,83,25.32c0,.22.22.65.22.87a7.78,7.78,0,0,1-2.81-1.35c.2.29.41.54.41.7A4.4,4.4,0,0,1,77.07,24l.43.65a3.65,3.65,0,0,1-3.27-.87c.22.22.65.65.65.87a6.54,6.54,0,0,1-3.49-1.09c0,.22.44.66.44.87A3.86,3.86,0,0,1,69,23.14c.22.21.44.65.66.87a3.79,3.79,0,0,1-3.49-1.31,8.43,8.43,0,0,1,.65.87,4.71,4.71,0,0,1-3.71-1.09,3,3,0,0,1,.66,1.09,5.07,5.07,0,0,1-3.06-.87,2.12,2.12,0,0,0,.22.65,3.23,3.23,0,0,1-3.05-.87c0,.22.22.87.43.87a4.15,4.15,0,0,1-4.14-.65c.44.44.65.87.87,1.09-1.09,0-2,.22-3.05-.65,0,.21.43.87.65.87a4,4,0,0,1-3.49-.44c0,.22.44.66.66.87A2.89,2.89,0,0,1,47.18,24l.65.87c-.87,0-1.52.44-2.83,0,0,.22.43.44.43.66a7.38,7.38,0,0,1-2.18-.22c0,.22.66.65.44.65-.87,0-1.53.44-2.62,0,.22.22.44.66.66.87a5.44,5.44,0,0,1-2.62-.21,1.73,1.73,0,0,0,.43.87c-.87,0-1.52.43-2.61,0,0,.22.43.65.65.87a10.44,10.44,0,0,1-2.62,0c0,.22.44.44.66.65a6.59,6.59,0,0,1-2.84-.21c0,.43.22.65.22.87-.66,0-1.09-.22-1.75-.22l-1.09.44c-3.05,4.36-2.83,19-2.83,19-6.76,5.89-9.38,17.89-9.16,22S17.29,84,17.29,84c-1.09-1.53-3.49-4.8-4.14-6.55-.66-1.52-.22-3.49-.88-5C10.31,69,6,70,3.55,72.22l-.4.72c-3.34,4.93.32,20.25,2.8,24.8,2.84,5.89,5.89,8.07,12.43,7.42l.44.22c0,7.7,8.27,16.09,13.09,21.38,8.63,9.47,22.47,20.28,35.56,18.76A21.8,21.8,0,0,0,80.29,139c5-5.23,8-12.13,11.74-18.27,3.57-5.89,7.27-12.7,8.81-19.53,1.61-7.06-.38-12.91-.2-20C100.72,78.21,101.31,75.24,101.5,72.22Z"/><path class="cls-12" d="M70,99.49A14.51,14.51,0,1,0,84.48,114,14.5,14.5,0,0,0,70,99.49Z"/><path class="cls-13" d="M46.74,96.29c-2.69-17-13-29.54-23.08-27.95a11.71,11.71,0,0,0-5.38,2.38c0,.21-.06.41-.1.62A116.4,116.4,0,0,1,17.29,84l-.56-.78c.9,6,3.18,16,3.18,16l2.84,7.2,4.8,12.87,3.1,6,1.26,1.38c.88,1,1.82,1.94,2.8,2.92C44,127,49.3,112.55,46.74,96.29Z"/><path class="cls-14" d="M100.84,101.23c1.61-7.06-.38-12.91-.2-20,.08-3,.67-6,.86-9a19.22,19.22,0,0,0-.76-4.91C94.39,70.79,88.37,81,85.81,93.77,83.16,107,85,119.08,89.87,124.5c.71-1.26,1.42-2.52,2.16-3.74C95.6,114.87,99.3,108.06,100.84,101.23Z"/><path class="cls-15" d="M39.76,134C28,122.83,28.42,112.14,23.4,103.85S18,83.13,18,83.13l-.39-1.52C17.41,83,17.29,84,17.29,84c-.59-.83-1.56-2.16-2.43-3.49l0,.22c.66,3.92,3.93,14.39,3.71,18.76S14,104.94,14,104.94l0,.16a16.57,16.57,0,0,0,4.32.06l.44.22c0,7.7,8.27,16.09,13.09,21.38a80.7,80.7,0,0,0,9.63,9C41,135.2,40.45,134.6,39.76,134Zm61.7-39.68c-.29,4.21-1.58,8.15-4.54,14.59-2.55,5.55-5.21,11.62-6.62,14.87.57-1,1.14-2,1.73-3,3.57-5.89,7.27-12.7,8.81-19.53A27.57,27.57,0,0,0,101.46,94.28Z"/><path class="cls-16" d="M28.42,67.42s2.83-9.16,3.49-14.62c.55-4.59.32-9.21,1.38-13.76C35.47,29.7,45.73,28.5,53.74,27.57a84.79,84.79,0,0,1,24.94.85c4.78.87,9.88,1.47,13,5.67,3.51,4.73,3.72,12,3.72,17.62,0,11.78,3,15.93,3,15.93L78.16,69.38,58.3,69H41.07Z"/><path class="cls-17" d="M98.66,53.46c.22-8.07-2.83-20.29-2.83-20.29a15.84,15.84,0,0,0-2.62-5.45h-.87a.93.93,0,0,1,.43.87,6.74,6.74,0,0,1-3-1.56v0c-1.31.66-2.62,0-3.71-1.09,0,.22.22.66.44.66A4.22,4.22,0,0,1,83,25.32c0,.22.22.65.22.87a7.78,7.78,0,0,1-2.81-1.35c.2.29.41.54.41.7A4.4,4.4,0,0,1,77.07,24l.43.65a3.65,3.65,0,0,1-3.27-.87c.22.22.65.65.65.87a6.54,6.54,0,0,1-3.49-1.09c0,.22.44.66.44.87A3.86,3.86,0,0,1,69,23.14c.22.21.44.65.66.87a3.79,3.79,0,0,1-3.49-1.31,8.43,8.43,0,0,1,.65.87,4.71,4.71,0,0,1-3.71-1.09,3,3,0,0,1,.66,1.09,5.07,5.07,0,0,1-3.06-.87,2.12,2.12,0,0,0,.22.65,3.23,3.23,0,0,1-3.05-.87c0,.22.22.87.43.87a4.15,4.15,0,0,1-4.14-.65c.44.44.65.87.87,1.09-1.09,0-2,.22-3.05-.65,0,.21.43.87.65.87a4,4,0,0,1-3.49-.44c0,.22.44.66.66.87A2.89,2.89,0,0,1,47.18,24l.65.87c-.87,0-1.52.44-2.83,0,0,.22.43.44.43.66a7.38,7.38,0,0,1-2.18-.22c0,.22.66.65.44.65-.87,0-1.53.44-2.62,0,.22.22.44.66.66.87a5.44,5.44,0,0,1-2.62-.21,1.73,1.73,0,0,0,.43.87c-.87,0-1.52.43-2.61,0,0,.22.43.65.65.87a10.44,10.44,0,0,1-2.62,0c0,.22.44.44.66.65a6.59,6.59,0,0,1-2.84-.21c0,.43.22.65.22.87-.66,0-1.09-.22-1.75-.22l-1.09.44c-3.05,4.36-2.83,19-2.83,19-6.76,5.89-9.38,17.89-9.16,22a78.16,78.16,0,0,1-.49,9.45c1-2.76,6.18-16.71,10.3-24.07,4.58-8.18.65-21.59,5.57-24.86,0,0,22.94-12.4,58.57-1.59,4.58,8,4.59,27.51,4.91,29.07s2.29,8.18,2.29,8.18l2.13,5.74c0-.21,0-.41,0-.61C101.72,68.73,98.44,61.53,98.66,53.46Z"/><path class="cls-18" d="M28.85,77.67a10.09,10.09,0,0,1-1.09-9.6s5-6.76,12.87-5.45,17.24,6.55,17.24,6.55,2,7.63-2.84,13.3c0,0-8.72.22-9.38.44s-8.51-.66-8.51-.66l-4.36-2Z"/><path class="cls-19" d="M75.54,82.69a18.12,18.12,0,0,1,2.18-13.52L83,65l5.89-2.18,4.58-.22,3,1.53s3.93,3.71,3.27,6.76-1.52,9.38-6.32,10.25a99.53,99.53,0,0,1-12,1.09Z"/><path class="cls-20" d="M59.18,99.6A34.49,34.49,0,0,0,62.56,95c1.09-2,1-10.69.22-11.13s-8.07,3.82-9.38,7.2-.11,9.49,3.92,12.76a8.28,8.28,0,0,1,1.09-2.95l.77-1Z"/><path class="cls-21" d="M79.25,98.61,78.48,100a5.14,5.14,0,0,0-1.74-3.27c-1.64-1.42-3.6-6.54-3.17-13a38.71,38.71,0,0,0,2.84,3.16c1,.88,10.25,7.09,5.13,15.82l-1.09-2.18Z"/><path class="cls-22" d="M75.35,96.52a7.47,7.47,0,0,1,1.59,1.79c.87,1.66,1.09,4-.62,5.17a8.71,8.71,0,0,1-8.33.83c-2.88-1.08-3.54-4-2.6-6.89,1.31-3.93-.43-15-.43-15l7.74-.11s-.11,7,.87,10.36A9.32,9.32,0,0,0,75,96.14C75.11,96.27,75.23,96.4,75.35,96.52Z"/><path class="cls-8" d="M65.18,97a10.14,10.14,0,0,1,10.17-.46l0-1.4a10.69,10.69,0,0,0-10.58.77Z"/><path class="cls-23" d="M57.65,103.2a8.09,8.09,0,0,1,1.42-3.39s1.85.33,1.74,1.75-1.42,2.4-3.05,2.62Z"/><path class="cls-24" d="M79.9,99.49s2.4,3.05,1,5.67c0,0-1.85-1.53-1.85-3A5.64,5.64,0,0,1,79.9,99.49Z"/><path class="cls-25" d="M57.43,104.4c1,.95,3-.36,4.36-.44,1.77-.1,3.4.81,5,1.53a11.85,11.85,0,0,0,5.57.76c1.85-.16,3-1.13,4.5-2a5.83,5.83,0,0,1,1.06-.69c-.24,1.18,1.83,1.47,2.4,2.62,0,0-1.09,1.42-1.86,1.53a9.21,9.21,0,0,1-7.85,4.47c-5.45,0-12.43-4.58-12.43-4.58a4.68,4.68,0,0,1-.88-2.18Z"/><path class="cls-26" d="M17.07,96.43a34,34,0,0,1-2.61-3.27v-.22c2.41-3.82-.29-6.29-2.17-9.5a24,24,0,0,1-1.9-5c-1-3.12-2.93-8.52-6.62-4.48,0,0-1.15,10.31.82,15.55s4.9,11,6.54,11.12,3.93-2.45,4.91-2.45S17.07,96.43,17.07,96.43Z"/><path d="M61.36,106a2.8,2.8,0,0,0,3.93.57A6,6,0,0,0,61.36,106Zm14.89.49-.66.49c2.13.49,2.87-.65,2.87-.65C77,105.21,76.25,106.44,76.25,106.44Z"/><path class="cls-27" d="M14.46,92.94c2.41-3.82-.29-6.29-2.17-9.5a24,24,0,0,1-1.9-5c-1-3.12-2.93-8.52-6.62-4.48,0,0,0,.42-.11,1.12a2.52,2.52,0,0,1,3.71,1.34c1.14,2.78,2.61,7.36-.49,10.8A6.89,6.89,0,0,0,10,83.78a5.76,5.76,0,0,1,2,3.93s-1.15,5.4,1.14,7.2a4.34,4.34,0,0,0,3.27.75c-.7-.84-1.24-1.67-1.9-2.5Z"/><path class="cls-10" d="M8.45,70.26a4.16,4.16,0,0,1,2.68,1,4.3,4.3,0,0,1,1.39,3.3,9.9,9.9,0,0,0,.45,3A13.36,13.36,0,0,0,14,79.56c.94,1.57,2,3,3.08,4.54a.21.21,0,0,0,.39-.1c.28-2.24.5-4.49.67-6.73.14-1.68.24-3.36.25-5,0-1.13-.06-2.24,0-3.37a36.56,36.56,0,0,1,2.2-9.16A28.19,28.19,0,0,1,26.36,50c.33-.35,1.13-.78,1.12-1.29s0-.84,0-1.26c0-1.76.07-3.52.17-5.27a57.65,57.65,0,0,1,.75-6.81,14.86,14.86,0,0,1,1.82-5.47c0-.05-.05-.1-.09-.05-1.49,2.1-1.88,5-2.24,7.48a78.78,78.78,0,0,0-.66,8.55c0,.85,0,1.7,0,2.55v.42s-.66.54-.74.62c-.36.34-.7.71-1,1.09a29,29,0,0,0-5.23,9.21,38.41,38.41,0,0,0-1.89,7A30,30,0,0,0,18,72.05a92.69,92.69,0,0,1-.82,11.4c-1.09-1.52-2.18-3-3.12-4.64a7.63,7.63,0,0,1-1.09-3.18,8.3,8.3,0,0,0-.66-3.46c-2-3.29-6.39-2.07-8.74,0,0,0,0,0,0,0A7.55,7.55,0,0,1,8.45,70.26ZM33,29.74a.05.05,0,0,0,0-.07,1.78,1.78,0,0,0-.13-.45c-.17-.43.62-.12.71-.11a16.52,16.52,0,0,0,2,0,.08.08,0,0,0,.05-.13c-.26-.23-.8-.5-.12-.43a17.31,17.31,0,0,0,2-.08.09.09,0,0,0,.06-.15,7.17,7.17,0,0,1-.52-.58,2.82,2.82,0,0,1,.61.05,11,11,0,0,0,1.81-.19.1.1,0,0,0,.07-.16c-.06-.07-.72-.79-.24-.59A2.15,2.15,0,0,0,40,27c.58,0,1.16,0,1.75,0a.09.09,0,0,0,.06-.16c-.17-.2-.31-.43-.47-.64a3.07,3.07,0,0,0,1.25.07A4.78,4.78,0,0,0,43.78,26a.07.07,0,0,0,0-.1c-.09-.24-.63-.51-.13-.41a8.48,8.48,0,0,0,1.74.11.1.1,0,0,0,.1-.12.62.62,0,0,0-.18-.3c-.28-.34.24-.07.46-.05a19.43,19.43,0,0,0,2-.18c.07,0,.14-.09.09-.15l-.36-.48a3.31,3.31,0,0,0,2.27.2.11.11,0,0,0,0-.18,4.53,4.53,0,0,1-.5-.56,4.16,4.16,0,0,0,3.29.31.11.11,0,0,0,0-.22.89.89,0,0,1-.45-.48,4.87,4.87,0,0,0,2.82.49.12.12,0,0,0,.09-.2c-.17-.19-.31-.39-.46-.58a4.1,4.1,0,0,0,3.7.32c.11,0,.06-.18,0-.21s-.25-.27-.3-.47a3.51,3.51,0,0,0,2.92.7c.08,0,.1-.11.07-.18A2.15,2.15,0,0,1,60.9,23a5.64,5.64,0,0,0,2.86.73.13.13,0,0,0,.11-.19c-.09-.19-.17-.36-.26-.53a4.9,4.9,0,0,0,3.2.72c.09,0,.17-.1.11-.19l0-.05a3.86,3.86,0,0,0,2.8.67c.11,0,.11-.15.06-.21l-.09-.12a4,4,0,0,0,2.18.75c.07,0,.12-.07.11-.13a2.91,2.91,0,0,0-.33-.63,7.51,7.51,0,0,0,3.27,1,.09.09,0,0,0,.09-.11,1.24,1.24,0,0,0-.15-.33,4.15,4.15,0,0,0,2.71.46.11.11,0,0,0,.07-.15,4.22,4.22,0,0,0,3.17,1,.13.13,0,0,0,.13-.16,2.18,2.18,0,0,0-.09-.23,7.11,7.11,0,0,0,2.32,1.07.16.16,0,0,0,.19-.19,3.15,3.15,0,0,0-.11-.44,4.2,4.2,0,0,0,3.24,1.07.15.15,0,0,0,.14-.13,3,3,0,0,0,3.15.56,6.53,6.53,0,0,0,3,1.53.16.16,0,0,0,.2-.15,1.18,1.18,0,0,0-.53-1c-.14-.08-.27.14-.13.21a.74.74,0,0,1,.32.56,6.46,6.46,0,0,1-1.53-.59c-.24-.13-.47-.29-.7-.44s-.35-.26-.51-.39a.58.58,0,0,0-.5-.51.11.11,0,0,0-.14.05l0,.06a.14.14,0,0,0,0,.15c.1.1.2.2.31.29a4,4,0,0,1-1.44.09,4.38,4.38,0,0,1-2-1.21.13.13,0,0,0-.22.13,1.59,1.59,0,0,0,.16.48,4.16,4.16,0,0,1-3-1.27c-.08-.08-.25,0-.23.1s.1.44.15.66a7.33,7.33,0,0,1-1.6-.64,6.66,6.66,0,0,1-.79-.43c-.12-.17-.26-.34-.37-.52a.11.11,0,0,0-.2.05.59.59,0,0,0,.3.52c.07.12.16.24.24.35.17.27-1,.06-1,.06a4.81,4.81,0,0,1-2.44-1.44c-.09-.09-.26,0-.18.14l.22.32c.3.45.07.21-.36.25a3.19,3.19,0,0,1-2.53-.91c-.09-.09-.22,0-.13.12a7,7,0,0,1,.51.58c.13.16-1,0-1.1,0a6.24,6.24,0,0,1-2.14-.95c-.07-.05-.16,0-.14.12.09.45.71.81-.17.67a3.69,3.69,0,0,1-2-1.22c-.11-.12-.27.05-.17.17s.32.46.49.68a3.94,3.94,0,0,1-3.15-1.29.13.13,0,0,0-.18.18c.19.21.35.44.52.67a4.87,4.87,0,0,1-3.42-1.09c-.12-.1-.25.1-.16.2a2.94,2.94,0,0,1,.54.86,5,5,0,0,1-2.78-.84c-.1-.07-.2.05-.19.14a2,2,0,0,0,.15.49c.13.33-.32.08-.56.09A3.13,3.13,0,0,1,58,22.4c-.07-.06-.21,0-.2.08a1.43,1.43,0,0,0,.32.84,4.29,4.29,0,0,1-3.85-.72c-.12-.08-.23.09-.14.18.26.28.47.6.71.89A4,4,0,0,1,52,23c-.09-.06-.19,0-.18.14a1.56,1.56,0,0,0,.48.8,4.09,4.09,0,0,1-3.14-.49.11.11,0,0,0-.16.12,1.91,1.91,0,0,0,.56.8s-.84.07-1,.06a2.65,2.65,0,0,1-1.38-.54c-.08-.06-.2.06-.14.14l.28.38.26.33v0h0a7.68,7.68,0,0,1-2.62,0,.1.1,0,0,0-.12.12,4.17,4.17,0,0,0,.31.53,7,7,0,0,1-1.93-.21.09.09,0,0,0-.12.11.55.55,0,0,0,.12.24c.11.11.42.29.18.31a5.86,5.86,0,0,1-2.36,0A.09.09,0,0,0,41,26c.18.22.34.46.5.7,0,0-.46,0-.37,0a4.31,4.31,0,0,1-2-.24c-.07,0-.12.06-.12.12a2.2,2.2,0,0,0,.2.56c.14.27.23.19-.12.23a4.43,4.43,0,0,1-2.14,0,.09.09,0,0,0-.11.11,2.06,2.06,0,0,0,.55.79c-.1-.12-.82,0-1,.05A5.36,5.36,0,0,1,35,28.3a.07.07,0,0,0-.09.09c.06.18,0,.14.19.3s.52.25.06.28a5.78,5.78,0,0,1-2.34-.23.08.08,0,0,0-.09.07c0,.24.33.81,0,.81-.49,0-1-.16-1.48-.16h0C31.84,29.51,32.41,29.69,33,29.74Zm67.73,53.35a54.42,54.42,0,0,1,.55-7.76,18.41,18.41,0,0,0,.13-5.29c-.67-4.09-2-8-2.47-12.15-.25-2.2-.14-4.39-.22-6.6-.06-1.95-.26-3.89-.51-5.82-.43-3.32-1-6.61-1.75-9.87-.17-.78-.35-1.55-.54-2.32A14.71,14.71,0,0,0,94.11,29l-.85-1.34c0-.06-.15,0-.11.07a18.59,18.59,0,0,1,2.62,5.46c.15.63.29,1.26.43,1.88.72,3.21,1.32,6.44,1.78,9.7.27,2,.48,4,.58,6.05s0,4.31.16,6.47c.37,4.1,1.58,8,2.39,12a16.62,16.62,0,0,1,.07,5.36,67.44,67.44,0,0,0-.63,7.77c0,4.86,1,9.66.79,14.52-.26,5.19-2.25,10.22-4.48,14.85-2.11,4.37-4.74,8.44-7.1,12.67a91.67,91.67,0,0,1-7.37,12,23.66,23.66,0,0,1-11.06,8.08c-8.54,2.88-17.67-.75-24.86-5.37-6.4-4.11-11.72-9.45-16.83-15a71.15,71.15,0,0,1-7-8.68c-2-3-3.7-6.43-3.73-10.09,0-.1-.16-.1-.16,0,0,3.78,1.84,7.29,3.88,10.38a76.18,76.18,0,0,0,7.66,9.35c5.71,6.23,11.85,12,19.3,16.16,7.19,4,15.72,6.11,23.57,2.79,8.54-3.61,12.76-12.3,17-19.94,4.66-8.33,10.48-16.72,11.29-26.53C101.88,92.75,100.86,87.93,100.73,83.09ZM18.38,105c-3.32.26-6.66-.14-9.14-2.56a20.39,20.39,0,0,1-4.39-7.6,52.71,52.71,0,0,1-2.31-9,30.64,30.64,0,0,1-.42-9.55,7,7,0,0,1,1.71-4c.08-.08,0-.2-.13-.12-1.68,1.45-1.9,4.16-2,6.22a39.72,39.72,0,0,0,1,9.47,47,47,0,0,0,2.41,8.41,18.26,18.26,0,0,0,4.64,7.15c2.44,2.07,5.6,2.27,8.65,1.93C18.61,105.31,18.61,105,18.38,105Z"/><path class="cls-28" d="M17.13,96.37a17.58,17.58,0,0,1-1.75-2.18l-.63-.88c-.27-.38.1-.68.3-1.06a5.19,5.19,0,0,0,.35-3.83,13.18,13.18,0,0,0-2-3.59,18.68,18.68,0,0,1-2.39-4.41c-.71-2.22-1.24-4.81-2.72-6.69a2.9,2.9,0,0,0-2-1.27A3.54,3.54,0,0,0,3.75,74a0,0,0,0,0,0,0c.81-.83,1.88-1.69,3.11-1.29A4.43,4.43,0,0,1,9,75a19.34,19.34,0,0,1,1.23,3.11c.23.67.43,1.35.65,2,.12.37.25.75.38,1.12s.17.76.27,1.14a14.26,14.26,0,0,0,2.06,3.48,9.94,9.94,0,0,1,1.51,3.21c-1-1.33-2.8-2.86-3.51-.6a9.41,9.41,0,0,0-.18,3.7A12.92,12.92,0,0,0,12.27,96h0a13.78,13.78,0,0,1-.76-6.61c.09-.69.33-1.91,1.22-1.94s1.81,1.16,2.41,2c0,.11,0,.23,0,.34a4.84,4.84,0,0,1-.46,2.28c-.15.36-.53.71-.42,1.13,0,.17.28.36.39.49.28.34.54.7.81,1A17.87,17.87,0,0,0,17,96.49C17.09,96.57,17.21,96.45,17.13,96.37Zm-6.42-16.3a10.48,10.48,0,0,1-.74,4,6,6,0,0,1-3.15,3.15s0,0,0,0a6.9,6.9,0,0,0,4-7.23S10.71,80,10.71,80.07Z"/><path class="cls-29" d="M62.23,108.6c-2.1-.07-4.19-.83-4.59-3.11-.38-2.1.73-4.15,1.58-6,0-.05,0-.11-.08-.06a8.31,8.31,0,0,0-1.91,6.31c.45,2.36,2.92,3,5,2.94A.05.05,0,1,0,62.23,108.6Zm4.4-1.75c-2-1.07-4.91-1.77-6.81-.17,0,0,0,0,0,0,2-1.56,4.63-.3,6.74.27C66.64,107,66.68,106.89,66.63,106.85Zm12.23-.43a2,2,0,0,0-1.91-.67,6.65,6.65,0,0,0,.81-1.45s-.05-.08-.08,0A8,8,0,0,1,72.84,108a10.21,10.21,0,0,1-6.23-.72c-.07,0-.12.1,0,.13a9.54,9.54,0,0,0,6.39,1,6.75,6.75,0,0,0,3.68-2.23l.06,0a1.73,1.73,0,0,1,2.07.38C78.83,106.58,78.93,106.48,78.86,106.42Zm.42-7.84a.05.05,0,0,0-.08.06c.94,1.46,2,2.88,2,4.68s-1.35,3.26-2.89,4.18a.07.07,0,0,0,.07.12c1.69-.75,3.11-2,3.22-4S80.49,99.84,79.28,98.58Zm-.93,1.56a0,0,0,1,0,0,0c.16-1.76-.82-2.62-1.92-3.83-1.74-1.91-2.32-4.61-2.66-7.08,0,0,0,0,0,0a13.27,13.27,0,0,0,1.87,6.39C76.68,97.2,78.44,98,78.35,100.14Z"/><path class="cls-30" d="M49.41,119.94s6.39,5.89,8,7.85,7.53,4.58,14.07,3.77,8.67-3.77,9.49-5.4,3.44-5.89,4.75-7L80,119H68.39Z"/><path class="cls-31" d="M57.1,125.67a17.84,17.84,0,0,0,13.26,3.92c8.18-.82,11-4.25,10.14-5.23s-5.56.32-10.47,0S58.74,123.54,57.1,125.67Z"/><path class="cls-32" d="M80,119H68.39l-19,1s2.42,2.23,4.66,4.41h.09a63.27,63.27,0,0,1,10.63-.82c4.75.16,8.51.33,10.8-.49a12.67,12.67,0,0,1,7,.29,23.56,23.56,0,0,1,3.12-4.22Zm-21.92,9.32-.09.08c2.18,1.86,7.58,3.94,13.5,3.2,5.06-.64,7.48-2.54,8.69-4.12a23.8,23.8,0,0,1-9.51,3.3C65.28,131.23,58.09,128.28,58.09,128.28Z"/><path class="cls-32" d="M88.84,116.5a7.53,7.53,0,0,1-4.47,1.31c-2.83,0-3.92-3.27-6.87-3.71s-4.58,1.2-5.56,1.53a4.61,4.61,0,0,1-1.85.22c-5.46-2.18-9.6,0-14,2s-10.25.44-10.25.44c6.76,3.93,13.74,3.71,21.38,3.71h.22a6,6,0,0,0,6.45-.21h.53C77.72,120.43,83,122.39,88.84,116.5Z"/><path class="cls-33" d="M67.25,121.85a48.62,48.62,0,0,0-5.4-.12c-1.74,0-3.48-.12-5.21-.29a27,27,0,0,1-10.76-3.2s0,0,0,0a28.15,28.15,0,0,0,10.19,3.47,43.68,43.68,0,0,0,5.24.39,39.52,39.52,0,0,0,6-.05A.11.11,0,0,0,67.25,121.85Zm7.83-1a9.84,9.84,0,0,1-3.45,1.62c-.38.09-1.2,0-1.53.17-.61.38-2.11-.4-2.63-.66h0a6.29,6.29,0,0,0,3.73,1,6.17,6.17,0,0,0,3.93-2.08S75.12,120.8,75.08,120.83Zm13.74-4.35a19.13,19.13,0,0,1-4.48,3.09,14.38,14.38,0,0,1-4,1.11c-2,.3-4,.19-5.92,1-.09,0,0,.2.07.16,2-.68,4.28-.44,6.35-.8a14.23,14.23,0,0,0,8.05-4.49A0,0,0,0,0,88.82,116.48Z"/><path class="cls-34" d="M27.76,68.29a13.33,13.33,0,0,1,10.91-4.36c6.76.65,15.27,5.45,19.2,5.45,0,0-2.18-5-4.37-6.32C53.5,63.06,33.22,56.51,27.76,68.29Z"/><path class="cls-35" d="M99.32,68.29s-3-5-7.91-4.36S80.35,69.38,77.5,69.38c0,0,1.58-5,3.16-6.32C80.66,63.06,95.36,56.51,99.32,68.29Z"/><path class="cls-36" d="M30.64,79.53c.87-4.4,4.16-7.18,8.38-8.11a13.73,13.73,0,0,1,5.78,0,12.41,12.41,0,0,1,6.81,4.46s.09,0,.06-.06a12.8,12.8,0,0,0-6.8-4.63,15.14,15.14,0,0,0-6-.14,11.23,11.23,0,0,0-5.46,2.65,9.36,9.36,0,0,0-2.83,5.86s0,0,0,0Z"/><path d="M50.78,78.22c-.86-.88-3.65-5-8.8-5.42a7.18,7.18,0,0,1,.17-2.49,5.09,5.09,0,0,0-.65,2.46,11.68,11.68,0,0,0-1.55,0,8.61,8.61,0,0,0-2.76.74,7.21,7.21,0,0,1-.48-2.66,5,5,0,0,0,0,2.89A9.38,9.38,0,0,0,34,76.1a5.15,5.15,0,0,1-2.72-2.84,5.4,5.4,0,0,0,2.18,3.55A13.28,13.28,0,0,0,32,79.55a5.59,5.59,0,0,1-3-2.31,5.41,5.41,0,0,0,2.8,3.18c5.67,8.9,16.92,4.34,16.92,4.34l6.3-2C52.72,82,51.75,79.2,50.78,78.22Z"/><path class="cls-37" d="M33.33,80.94c3.23,6.33,12.92,4.8,18.09,2.84l3.67-1.09c-4.1-2-6.25-7.2-11.21-8.29-5.38-1.09-9.05,1.31-11,5.89Z"/><path class="cls-38" d="M47.88,79.48a6,6,0,0,0-1.69-4.2,8.52,8.52,0,0,0-2.31-.88,10.09,10.09,0,0,0-5.93.4,6.06,6.06,0,0,0,2.43,10.56,17.57,17.57,0,0,0,2.2.13A6.06,6.06,0,0,0,47.88,79.48Z"/><path class="cls-39" d="M36.45,79.48a5.37,5.37,0,1,0,6.62-5.22,11.83,11.83,0,0,0-1.84-.12A5.37,5.37,0,0,0,36.45,79.48Z"/><path d="M45,79.48a3.17,3.17,0,1,1-3.16-3.17A3.16,3.16,0,0,1,45,79.48Z"/><path class="cls-40" d="M44.05,79.48a2.24,2.24,0,1,1-2.23-2.24A2.23,2.23,0,0,1,44.05,79.48Z"/><path class="cls-37" d="M43.11,76.85a1.3,1.3,0,1,1-1.29-1.3A1.29,1.29,0,0,1,43.11,76.85Z"/><path class="cls-37" d="M42.44,82.57a.63.63,0,1,1-.62-.62A.63.63,0,0,1,42.44,82.57Z"/><path d="M55.1,82.67c-4.17-2.33-6.45-7.59-11.4-8.55A9.82,9.82,0,0,0,37,75a10.16,10.16,0,0,0-4.12,5.25s0,.06.05,0a10.45,10.45,0,0,1,4.29-4.9,9.62,9.62,0,0,1,7-.68c4.59,1.15,6.64,6.17,10.82,8C55.1,82.72,55.12,82.68,55.1,82.67Zm-13.23,2.8a.13.13,0,0,0-.14-.11.14.14,0,0,0-.14.1c-3.41-.18-6.55-1.4-8.25-4.52,0,0,0,0,0,0,1.64,3.26,4.82,4.49,8.27,4.64a.13.13,0,0,0,.14.1.15.15,0,0,0,.14-.09,26.12,26.12,0,0,0,9.56-1.81s0,0,0,0A26.19,26.19,0,0,1,41.87,85.47Z"/><path class="cls-36" d="M96.43,79.53a9.52,9.52,0,0,0-7-8.11,9.76,9.76,0,0,0-4.86,0c-2.35.58-4.16,2.32-5.71,4.46,0,0-.08,0,0-.06a10.84,10.84,0,0,1,5.71-4.63,10.7,10.7,0,0,1,5-.14,8.91,8.91,0,0,1,4.59,2.65,10.15,10.15,0,0,1,2.37,5.86s0,0,0,0Z"/><path d="M79.53,78.22c.72-.88,3.06-5,7.38-5.42a8.74,8.74,0,0,0-.14-2.49,6,6,0,0,1,.55,2.46,8.25,8.25,0,0,1,1.3,0,6.22,6.22,0,0,1,2.31.74,8.43,8.43,0,0,0,.41-2.66,6,6,0,0,1,0,2.89,8.4,8.4,0,0,1,2.33,2.31,5,5,0,0,0,2.28-2.84,5.57,5.57,0,0,1-1.83,3.55,13.32,13.32,0,0,1,1.21,2.74,5,5,0,0,0,2.53-2.31,5.18,5.18,0,0,1-2.34,3.18c-4.77,8.9-14.21,4.34-14.21,4.34L76,82.8C77.9,82,78.71,79.2,79.53,78.22Z"/><path class="cls-37" d="M94.18,80.94c-2.71,6.33-10.85,4.8-15.2,2.84l-3.07-1.09c3.43-2,5.24-7.2,9.4-8.29,4.53-1.09,7.6,1.31,9.23,5.89Z"/><path class="cls-41" d="M91,79.48a6.1,6.1,0,0,0-3-5.31,8.42,8.42,0,0,0-2.72.23c-2.52.66-4.18,2.85-5.87,4.91v.17a6.05,6.05,0,0,0,3.69,5.64,16.33,16.33,0,0,0,2.87.36A6,6,0,0,0,91,79.48Z"/><path class="cls-42" d="M85.23,84.84a5.25,5.25,0,0,0,5.13-5.36,5.31,5.31,0,0,0-4.09-5.26,8.93,8.93,0,0,0-1,.18c-2.14.56-3.66,2.22-5.1,4a5.8,5.8,0,0,0-.11,1.11A5.25,5.25,0,0,0,85.23,84.84Z"/><path d="M88.26,79.48a3,3,0,1,1-3-3.17A3.1,3.1,0,0,1,88.26,79.48Z"/><path class="cls-43" d="M87.37,79.48a2.14,2.14,0,1,1-2.14-2.24A2.19,2.19,0,0,1,87.37,79.48Z"/><path class="cls-37" d="M86.47,76.85a1.24,1.24,0,1,1-1.24-1.3A1.26,1.26,0,0,1,86.47,76.85Z"/><path class="cls-37" d="M85.83,82.57a.62.62,0,0,1-.6.63.63.63,0,1,1,.6-.63Z"/><path d="M75.9,82.67c3.49-2.33,5.41-7.59,9.57-8.55a7.1,7.1,0,0,1,5.64.91c1.71,1.13,2.71,3.15,3.45,5.25,0,0,0,.06,0,0a10.13,10.13,0,0,0-3.6-4.9A6.92,6.92,0,0,0,85,74.73c-3.85,1.15-5.57,6.17-9.08,8C75.9,82.72,75.88,82.68,75.9,82.67ZM87,85.47a.13.13,0,0,1,.25,0,7.63,7.63,0,0,0,6.92-4.52s0,0,0,0a7.43,7.43,0,0,1-6.94,4.64.13.13,0,0,1-.12.1A.12.12,0,0,1,87,85.6a18.87,18.87,0,0,1-8-1.81s0,0,0,0A18.87,18.87,0,0,0,87,85.47Z"/><path class="cls-44" d="M13.75,103.52l.43.11a6.76,6.76,0,0,0,.71-1.8l-.6,0A3.59,3.59,0,0,0,13.75,103.52Z"/><path class="cls-45" d="M2.05,118.14c.09,6.6,4.14,15.21,11.86,15s11.77-8.21,11.86-15c-.08-6.51-4-15-11.56-15-.05.11-.09.18-.09.18,7.69,0,11.39,8.87,11.46,14.87-.09,7.09-4.21,14.71-11.67,14.87H13.7C6,133,2.31,124.13,2.24,118.14s3-12.22,8.32-14.22l-.17-.14C5,105.89,2,112.43,2.05,118.14Z"/><path class="cls-46" d="M16,102.46a10.19,10.19,0,0,0-1.62-.23,1.21,1.21,0,0,1,0,.19,8.73,8.73,0,0,1,1.58.23c7,1.57,10.37,8.91,10.45,15.49a18.17,18.17,0,0,1-2.85,10c-3.52,5.17-10.31,7.71-15.76,3.73C2,127.64.12,119.41,2.16,112.74c1.2-3.92,4-7.78,7.68-9.46l-.14-.15c-3.81,1.76-6.56,5.76-7.72,9.55C-.22,119.85,2.19,128,7.7,132a9.93,9.93,0,0,0,6,2,12.6,12.6,0,0,0,10.07-5.76,18.54,18.54,0,0,0,2.89-10.1C26.53,111.73,23.18,104.09,16,102.46Z"/><path class="cls-47" d="M25.77,118.14c-.09,6.84-4.13,14.89-11.86,15s-11.77-8.45-11.86-15C2,112.43,5,105.89,10.39,103.78c-.22-.18-.41-.37-.55-.5-3.71,1.68-6.48,5.54-7.68,9.46-2,6.67-.12,14.9,5.65,19.12,5.45,4,12.24,1.44,15.76-3.73a18.17,18.17,0,0,0,2.85-10c-.08-6.58-3.5-13.92-10.45-15.49a8.73,8.73,0,0,0-1.58-.23,2.16,2.16,0,0,1-.18.67C21.74,103.16,25.69,111.63,25.77,118.14Z"/><path class="cls-48" d="M25.77,118.14c-.09,6.84-4.13,14.89-11.86,15s-11.77-8.45-11.86-15C2,112.43,5,105.89,10.39,103.78c-.22-.18-.41-.37-.55-.5-3.71,1.68-6.48,5.54-7.68,9.46-2,6.67-.12,14.9,5.65,19.12,5.45,4,12.24,1.44,15.76-3.73a18.17,18.17,0,0,0,2.85-10c-.08-6.58-3.5-13.92-10.45-15.49a8.73,8.73,0,0,0-1.58-.23,2.16,2.16,0,0,1-.18.67C21.74,103.16,25.69,111.63,25.77,118.14Z"/></g></g></svg>