<svg xmlns="http://www.w3.org/2000/svg" xmlns:xlink="http://www.w3.org/1999/xlink" viewBox="0 0 134.19 175.92"><defs><style>.cls-1{fill:url(#linear-gradient);}.cls-2{fill:url(#linear-gradient-2);}.cls-3{fill:url(#linear-gradient-3);}.cls-4{fill:url(#linear-gradient-4);}.cls-5{fill:url(#linear-gradient-5);}.cls-6{fill:url(#linear-gradient-6);}.cls-7{fill:url(#linear-gradient-7);}.cls-8{fill:url(#linear-gradient-8);}.cls-9{fill:url(#linear-gradient-9);}.cls-10{fill:url(#linear-gradient-10);}.cls-11{fill:url(#linear-gradient-11);}.cls-12{fill:url(#linear-gradient-12);}.cls-13{fill:url(#linear-gradient-13);}.cls-14{fill:url(#linear-gradient-14);}.cls-15{fill:url(#linear-gradient-15);}.cls-16{fill:#492114;}.cls-17{fill:url(#linear-gradient-16);}.cls-18{fill:url(#linear-gradient-17);}.cls-19{fill:#ffc2a7;}.cls-20{fill:url(#linear-gradient-18);}.cls-21{fill:url(#radial-gradient);}.cls-22{fill:url(#radial-gradient-2);}.cls-23{fill:url(#radial-gradient-3);}.cls-24{fill:url(#linear-gradient-19);}.cls-25{fill:url(#linear-gradient-20);}.cls-26{fill:url(#linear-gradient-21);}.cls-27{fill:url(#linear-gradient-22);}.cls-28{fill:url(#linear-gradient-23);}.cls-29{fill:url(#linear-gradient-24);}.cls-30{fill:url(#linear-gradient-25);}.cls-31{fill:url(#linear-gradient-26);}.cls-32{fill:url(#linear-gradient-27);}.cls-33{fill:#a9563f;}.cls-34{fill:url(#linear-gradient-28);}.cls-35{fill:#f3735c;}.cls-36{fill:#f36252;}.cls-37{fill:url(#radial-gradient-4);}.cls-38{fill:#c22537;}.cls-39{fill:url(#linear-gradient-29);}.cls-40{fill:url(#linear-gradient-30);}.cls-41{fill:url(#linear-gradient-31);}.cls-42{fill:#fff;}.cls-43{fill:url(#linear-gradient-32);}.cls-44{fill:url(#linear-gradient-33);}.cls-45{fill:url(#linear-gradient-34);}.cls-46{fill:#eba9a9;}.cls-47{fill:url(#linear-gradient-35);}.cls-48{fill:url(#linear-gradient-36);}.cls-49{fill:url(#linear-gradient-37);}</style><linearGradient id="linear-gradient" x1="19.5" y1="139.28" x2="12.09" y2="154.33" gradientUnits="userSpaceOnUse"><stop offset="0" stop-color="#270b04"/><stop offset="1" stop-color="#472b12"/></linearGradient><linearGradient id="linear-gradient-2" x1="114.59" y1="115.94" x2="105.59" y2="134.21" xlink:href="#linear-gradient"/><linearGradient id="linear-gradient-3" x1="50.25" y1="39.63" x2="34.54" y2="3.96" xlink:href="#linear-gradient"/><linearGradient id="linear-gradient-4" x1="58.43" y1="22.51" x2="48.63" y2="0.26" gradientUnits="userSpaceOnUse"><stop offset="0" stop-color="#451f15"/><stop offset="1" stop-color="#6b3724"/></linearGradient><linearGradient id="linear-gradient-5" x1="59.92" y1="21.88" x2="50.11" y2="-0.4" xlink:href="#linear-gradient-4"/><linearGradient id="linear-gradient-6" x1="22.2" y1="38.49" x2="12.39" y2="16.21" xlink:href="#linear-gradient-4"/><linearGradient id="linear-gradient-7" x1="93.6" y1="7.05" x2="83.79" y2="-15.23" xlink:href="#linear-gradient-4"/><linearGradient id="linear-gradient-8" x1="98.94" y1="4.7" x2="89.13" y2="-17.58" xlink:href="#linear-gradient-4"/><linearGradient id="linear-gradient-9" x1="49.39" y1="232.29" x2="44.33" y2="200.66" gradientUnits="userSpaceOnUse"><stop offset="0" stop-color="#34130a"/><stop offset="1"/></linearGradient><linearGradient id="linear-gradient-10" x1="48.21" y1="31.25" x2="36.35" y2="4.32" gradientUnits="userSpaceOnUse"><stop offset="0" stop-color="#451f15"/><stop offset="1" stop-color="#85482e"/></linearGradient><linearGradient id="linear-gradient-11" x1="83.9" y1="77.64" x2="82.59" y2="69.46" xlink:href="#linear-gradient-9"/><linearGradient id="linear-gradient-12" x1="122.21" y1="146.29" x2="119.35" y2="128.47" xlink:href="#linear-gradient-9"/><linearGradient id="linear-gradient-13" x1="63.18" y1="125.93" x2="63.18" y2="153.75" gradientUnits="userSpaceOnUse"><stop offset="0" stop-color="#d4866f"/><stop offset="1" stop-color="#ffc2a7"/></linearGradient><linearGradient id="linear-gradient-14" x1="114.81" y1="148.57" x2="102.7" y2="158.88" gradientUnits="userSpaceOnUse"><stop offset="0" stop-color="#270b04"/><stop offset="1"/></linearGradient><linearGradient id="linear-gradient-15" x1="106.63" y1="151.95" x2="94.36" y2="163.89" xlink:href="#linear-gradient-9"/><linearGradient id="linear-gradient-16" x1="93.5" y1="153.9" x2="85.1" y2="162.07" xlink:href="#linear-gradient-9"/><linearGradient id="linear-gradient-17" x1="103.6" y1="160.88" x2="101.1" y2="163.32" xlink:href="#linear-gradient-9"/><linearGradient id="linear-gradient-18" x1="75.52" y1="45.55" x2="75.52" y2="73.71" gradientUnits="userSpaceOnUse"><stop offset="0" stop-color="#ffd9bd"/><stop offset="1" stop-color="#ffc2a7"/></linearGradient><radialGradient id="radial-gradient" cx="-115.03" cy="-126.52" r="56.14" gradientTransform="translate(94.54 144.02) rotate(-26.57) scale(0.28 0.47)" gradientUnits="userSpaceOnUse"><stop offset="0" stop-color="#ffa191"/><stop offset="1" stop-color="#ffc2a7"/></radialGradient><radialGradient id="radial-gradient-2" cx="-1079.63" cy="413.64" r="56.11" gradientTransform="matrix(0.19, 0.06, -0.14, 0.45, 381.45, -14.62)" xlink:href="#radial-gradient"/><radialGradient id="radial-gradient-3" cx="-315.35" cy="-204.3" r="32.88" gradientTransform="translate(181.08 174.83) scale(0.31 0.26)" xlink:href="#linear-gradient-18"/><linearGradient id="linear-gradient-19" x1="14.68" y1="67.51" x2="42.08" y2="126.35" gradientUnits="userSpaceOnUse"><stop offset="0" stop-color="#d4866f"/><stop offset="1" stop-color="#ffb19f"/></linearGradient><linearGradient id="linear-gradient-20" x1="47.54" y1="27.5" x2="70.09" y2="75.91" xlink:href="#linear-gradient-19"/><linearGradient id="linear-gradient-21" x1="53.29" y1="66.6" x2="53.29" y2="87.25" xlink:href="#linear-gradient-13"/><linearGradient id="linear-gradient-22" x1="100.5" y1="66.38" x2="100.5" y2="87.04" xlink:href="#linear-gradient-13"/><linearGradient id="linear-gradient-23" x1="38.84" y1="134.06" x2="38.84" y2="136.24" xlink:href="#linear-gradient-19"/><linearGradient id="linear-gradient-24" x1="82.24" y1="114.15" x2="82.24" y2="123.1" xlink:href="#linear-gradient-13"/><linearGradient id="linear-gradient-25" x1="83.53" y1="108.02" x2="83.53" y2="89.55" xlink:href="#linear-gradient-18"/><linearGradient id="linear-gradient-26" x1="82.36" y1="107.22" x2="72.32" y2="101.77" xlink:href="#linear-gradient-13"/><linearGradient id="linear-gradient-27" x1="1541.57" y1="55.99" x2="1531.54" y2="50.54" gradientTransform="matrix(-0.75, 0.06, 0.08, 1, 1230.98, -45.14)" xlink:href="#linear-gradient-13"/><linearGradient id="linear-gradient-28" x1="81.87" y1="108.43" x2="81.87" y2="98.96" gradientUnits="userSpaceOnUse"><stop offset="0" stop-color="#a9563f"/><stop offset="1" stop-color="#e9a68c"/></linearGradient><radialGradient id="radial-gradient-4" cx="-519.09" cy="-166.53" r="38.53" gradientTransform="translate(216.21 174.83) scale(0.26)" gradientUnits="userSpaceOnUse"><stop offset="0" stop-color="#f38f76"/><stop offset="1" stop-color="#f3735c"/></radialGradient><linearGradient id="linear-gradient-29" x1="54.55" y1="57.03" x2="42.68" y2="148.28" xlink:href="#linear-gradient-14"/><linearGradient id="linear-gradient-30" x1="50.63" y1="67.45" x2="53.1" y2="75.4" xlink:href="#linear-gradient-14"/><linearGradient id="linear-gradient-31" x1="1615.04" y1="67.57" x2="1617.44" y2="75.33" gradientTransform="matrix(-0.76, 0, 0, 1, 1333.77, 0)" xlink:href="#linear-gradient-14"/><linearGradient id="linear-gradient-32" x1="85.75" y1="82.14" x2="85.75" y2="74.99" gradientTransform="translate(-40.03 12.53) rotate(-4.18)" gradientUnits="userSpaceOnUse"><stop offset="0" stop-color="#39140a"/><stop offset="1"/></linearGradient><linearGradient id="linear-gradient-33" x1="85.75" y1="82.14" x2="85.75" y2="74.99" gradientTransform="translate(-40.03 12.53) rotate(-4.18)" gradientUnits="userSpaceOnUse"><stop offset="0.01" stop-color="#652312"/><stop offset="1" stop-color="#210000"/></linearGradient><linearGradient id="linear-gradient-34" x1="85.75" y1="78.61" x2="85.75" y2="80.46" gradientTransform="translate(-40.03 12.53) rotate(-4.18)" gradientUnits="userSpaceOnUse"><stop offset="0"/><stop offset="1" stop-color="#77726d"/></linearGradient><linearGradient id="linear-gradient-35" x1="107.44" y1="84.6" x2="107.44" y2="77.45" gradientTransform="translate(-11.58 4.88) rotate(-1.22)" xlink:href="#linear-gradient-32"/><linearGradient id="linear-gradient-36" x1="107.43" y1="84.6" x2="107.43" y2="77.45" gradientTransform="translate(-11.58 4.88) rotate(-1.22)" xlink:href="#linear-gradient-33"/><linearGradient id="linear-gradient-37" x1="107.43" y1="81.07" x2="107.43" y2="82.93" gradientTransform="translate(-11.58 4.88) rotate(-1.22)" xlink:href="#linear-gradient-34"/></defs><g id="Layer_2" data-name="Layer 2"><g id="_8_Face" data-name="8_Face"><path d="M133.85,167.14c-2.76-.93-4.81-3.41-7.07-8.57-1.91-4.36-10.16-9.66-15.63-13.17-1.27-.82-2.38-1.53-3.19-2.09-3.11-2.15-4.6-9.58-5.12-12.86l1.94-3.55c.33-.62.66-1.23,1-1.84.89-1.63,1.77-3.27,2.65-4.9l2.61-4.81a61,61,0,0,0,3.88-8.06c2.9-3.23,9.69-11,11.74-15.11,2.5-5,1.73-13.64,1.6-15l.28-.54c.06-.11.11-.21.16-.32l0-.08,0-.07.09-.18c.08-.18.16-.35.24-.54l0,0,0,0a21.27,21.27,0,0,0,1-2.94c1-3.91.76-7.61.49-11.2,0-.34,0-.69-.07-1l0-.3,0-.44c0-.27,0-.54-.05-.8v-.24l0-.75v-.17c0-.29,0-.59,0-.88v-.21c0-.3,0-.6,0-.91a7.24,7.24,0,0,0,0-.92c0-.21,0-.45-.08-.72l0-.16v-.08c0-.17-.06-.33-.1-.51a2,2,0,0,0,0-.24v-.06l-.12-.48L129.9,52c0-.16-.09-.32-.14-.49l0-.12-.07-.23c0-.14-.09-.28-.14-.42l0-.1,0-.09-.08-.26-.24-.65-.22-.61,0-.06c0-.14-.11-.29-.17-.44s-.09-.24-.14-.36l-.06-.15,0-.1a3.05,3.05,0,0,1-.13-.32l-.21-.48,0-.07-.17-.39-.26-.59-.08-.18-.08-.16-.3-.66,0-.11,0-.11c-.52-1.1-1.12-2.3-1.76-3.55l0,0c-.53-1-1.09-2.07-1.72-3.23L122.51,36c-1.57-3-3.21-5.76-4.88-8.3l-.15-.25c-1-1.72-1.9-3.2-2.61-4.44C110.59,15.5,100,4.93,97.52,4.44c-1.91-.39-5.74-.76-6.77-.86a3.58,3.58,0,0,0-.81-.9l-.21-.17,0,0-.23-.16,0,0-.23-.14,0,0L88.9,2h0l0,0-.26-.13-.06,0a2.21,2.21,0,0,0-.27-.12l-.06,0-.29-.12,0,0-.33-.12A19.1,19.1,0,0,0,85.11.76h0L84.67.68h-.09L84.2.6h-.11L83.71.52l-.12,0-.39,0h-.12l-.4,0-.13,0-.4,0H82l-.43,0H81.5l-.5,0c-.69-.06-1.44-.1-2.23-.14h-.06l-.47,0H72l-.81,0H68.7l-.24,0h-.11l-.4,0H67.6l-.41,0h-.34l-.22,0h-.2l-.34,0-.43,0-.33,0-.44,0-.32,0-.47,0-.3,0-.34,0-.16,0L63,.63h-.09l-.52,0h-.16L60.68.87h-.2L59.9,1l-.26,0L59.11,1l-.29,0-.49,0-.27,0h0l-.48.06-.32,0-.47.06-.31,0-.24,0-.24,0-.31,0-.43.06h0l-.15,0-.15,0-.35,0-.15,0-.29,0-.25,0-.25,0-.28,0-.37.05-.19,0-.11,0h-.1L51.76,2a39.52,39.52,0,0,0-6.7,1.66A55.8,55.8,0,0,0,27.27,14.12,78.56,78.56,0,0,0,19,22.27,105,105,0,0,0,9.66,35c-.83,1.28-1.59,2.61-2.32,3.94C-2.95,57.57.08,76.93,1.71,87.34l.12.77c.07.46.15.94.23,1.43,1.67,9.6,5.42,22.28,5.46,22.41a.49.49,0,0,0,.22.29,130.85,130.85,0,0,1,11.76,7.54l.26.22.07,0,.2.17.12.11,0,0,.1.09.23.21.23.25,0,0,0,0,.17.22,0,0,0,0,.17.24,0,0,0,0,.18.28.05.09c.07.1.13.21.2.33l0,0,0,0q.11.18.21.39l0,0c.08.15.16.3.24.47s.16.34.24.51c1.55,3.39,3,8.59,4.77,14.63l.05.16,0,.17.12.43q.29,1,.57,2c.09.29.17.58.27.87l.07.21,0,.06c.06.19.12.38.19.57s.07.2.11.31.12.33.19.49l.1.26,0,.06c.06.16.13.31.19.47l.13.3c.07.16.13.31.2.46l.13.28c.07.16.15.32.23.48l0,.09.07.13c.1.21.2.4.3.59l0,0,0,.05c.12.22.24.44.37.66l0,.05.05.07c.09.17.19.33.28.49l.1.16,0,0,.25.39c0,.06.07.12.11.17l0,0,.24.37,0,0,.11.16.24.35.05.07.08.11c.09.12.17.24.26.35l.06.09,0,.05L33,151l0,.05c.24.3.48.6.73.87l.08.1.27.3.07.08,0,0,.24.25.11.11.22.23.06.06.05,0,.12.12c-.38,1-.79,1.95-1.24,2.87-4.11,8.35-12,10.76-19.77,12.5a.49.49,0,0,0-.38.54.48.48,0,0,0,.48.44h.67c8.44,0,16.8,1.57,24.89,3.09a181.62,181.62,0,0,0,18.29,2.79c3.71.31,7.27.47,10.57.47,10.56,0,17.71-1.58,24.62-3.11,2.85-.63,5.79-1.28,8.93-1.8a.48.48,0,0,0,.39.19h0l2.82-.11a.48.48,0,0,0,.46-.56v-.07l.82-.09a2,2,0,0,0,.05.24.48.48,0,0,0,.48.41h0c2.63-.09,6.63-.23,10.71-.31l1.35-.05.59,0h.34l.28,0c.94-.08,1.9-.17,2.84-.29a.49.49,0,0,0,.42-.53c-.16-2.21-.57-6.23-1.45-8.25a30.75,30.75,0,0,0-3.09-4.86c1.73,1.38,3.79,3.35,4.47,5.38a60.22,60.22,0,0,0,3.21,7.34.49.49,0,0,0,.43.27h.1c3.76-.72,6.49-1.55,6.52-1.56a.51.51,0,0,0,.35-.46A.49.49,0,0,0,133.85,167.14Zm-29.69-.67a17.54,17.54,0,0,1-1.89-3.1,25.86,25.86,0,0,1,2.66,3.38ZM124.44,91c-1.46,4.06-5.34,8.47-8.13,11.27.06-.38.12-.76.17-1.15,2-3.84,6.21-9.31,8.27-11.91Zm-94,35.66A22.88,22.88,0,0,1,31.63,131c.31,1.53.69,3.44,1.41,6a13.92,13.92,0,0,0,4.28,7c-.18,1.33-.4,2.59-.68,3.82-3.13-4-5-9.41-5.93-12.41a46.14,46.14,0,0,1-1.34-11.61C29.68,124.7,30.05,125.67,30.44,126.62ZM36,150.27a.14.14,0,0,1,0,.06A22.29,22.29,0,0,1,32.4,145,25.36,25.36,0,0,0,36,150.27Z"/><path class="cls-1" d="M37,155.88c-10.91,2.61-18.54.21-22-11.35-3.71-12.21-2.62-25.09-5.24-37.52l-1.53,4.8S9.3,124,11,133.84,15.62,160.46,34,157.18Z"/><path class="cls-2" d="M102.88,127.73s12.87-3.49,17-13.08,2-20.73,1.09-25.53l2.4-2.18s3.49,15.49-.88,26.62-18.1,14.61-20.5,14.83Z"/><path class="cls-3" d="M38.53,144.31s-3.49-2-5-7.41S32,129,30.89,126.43s-2-5.46-2-5.46-.44,8.73,1.31,14.62S35,148,39.18,151.08l-.87.65s-4.58-3-7.64-12c0,0-.87,6.33,8.29,14.18l-1.31.88s-6.32-3.93-9.16-13.75-5-18.1-7.63-20.72S8,111.81,8,111.81,3.84,97.85,2.31,88s-5-29.89,5.46-48.86,27.05-34,44.06-36.65S88.05-.75,90.45,4c0,0,4.8.44,7,.88s12.65,10.69,17,18.32c4.19,7.34,14.83,23.94,15.46,31.42a6.43,6.43,0,0,1,0,.87c-.22,7,2.18,13.74-2.18,21.59,0,0,1.09,9.6-1.53,14.84s-13.09,16.58-13.09,16.58l.44-3.06s8.94-7.63,11.34-14.4l.66-3.7s-8.29,10-10.25,15.05-8.08,2.83-9.6,3.27-39.71,19-39.71,19L54.45,142.57Z"/><path class="cls-4" d="M49.25,4.38l2.15-.55A4.33,4.33,0,0,0,49.25,4.38Z"/><path class="cls-5" d="M80.51,29c-1-.06-2.07-.79-3.26-.93-2.39-.28-5.8.62-8.18,1.07-4,.74-12.55,5.24-15.64.83-2.29-3.27,1.73-6.27.94-9.1C53.7,18.45,50,18,48.13,16.91,43.51,14.17,45.31,6.5,49.25,4.38l-8,2.06A17.2,17.2,0,0,0,39,10a4.09,4.09,0,0,1,2.61,1.36c-.84,1.31-3.19,3.87-3,5.56.36,3,3.16,1.26,4.36,3.26,1.44,2.43-2.77,6.45-1.83,9.43,1.38,4.41,7.49,4.5,11.21,4.34,7.29-.29,14.61-4.42,21-1.08,2.19,1.14,2.14,1.72,4.76.34A40.7,40.7,0,0,0,85,28.41C83.5,28.32,81.91,29,80.51,29Z"/><path class="cls-6" d="M41.58,63.38c-1.86.49-4.67-3.61-6.56-3.9-.93-.15-1.27-1.8-3-2-3-.36-5.93,2.21-9.12,1.68C20,58.67,18.14,56.5,17,53.9c-1.26-3-.23-6-1-8.86-.43-1.54-1.67-2.72-2.21-4.24a19.84,19.84,0,0,1-.66-8.64l-.45,1a.79.79,0,0,1-1.18.34A19.86,19.86,0,0,1,9.3,36.88a4,4,0,0,0-.05.9c.1,1.45,2,2.88,2.8,4.4a21.41,21.41,0,0,1,2,13.57c2-1.47,3.06,2.25,4.61,3.39,2.22,1.65,4.87,1.19,7.19,2.34,3.06,1.5,4.11,5.84,7.2,7.08,5,2,12-3,15.38-6.16Z"/><path class="cls-7" d="M98.63,8.78c3.26,2.63,1.89,6.16,2.58,9.77.88,4.64,2.71,8.12-3.62,9.22a17,17,0,0,0,.56,2.84c-1.87.21-3.56-1.31-5.19-.61l1.3,1.64c2.71.77,6.41,2.72,8,5.19-2-3-.74-12.91,4.76-12.46-1-2.19-2.41-7.71,2-6.87C106.48,13.83,102,11.44,98.63,8.78Z"/><path class="cls-8" d="M121.42,51a23.92,23.92,0,0,0-.31-3.93c-.27-2.69-.43-5.38-.59-8.11-.22-3.62-2-6.12-3.87-9.53,2,4.4,1.61,8.91,2.16,13.71.29,2.54,2,6,.58,8.51s-3.93,1.58-2.26,5.2c-1.84-.77-3-4.76-4.87-5.2l8.18,12.11c-.48-2.91-1.18-6.16-.25-9.09C120.78,52.74,121.26,52.92,121.42,51Z"/><path class="cls-9" d="M46.49,134.06c-.65-2.29-3-12.76-4.25-15.71s-10.8-14.07-12.11-15-5.56-6.87-5.56-6.87S22.6,89.23,19,85a104.19,104.19,0,0,1-7.85-11.46l1.31,7.86s1.63,13.09,3.92,19,5.9,9.49,8.51,18A95.12,95.12,0,0,1,28.17,137l-.47,1.29.79,2.74c2.5,8.64,7.69,12.72,8.91,13.57a3.49,3.49,0,0,0,.44,0l1.12-.75c-9.16-7.85-8.29-14.18-8.29-14.18,3.06,9,7.64,12,7.64,12l.87-.65C35,148,32,141.48,30.24,135.59S28.93,121,28.93,121s.87,2.84,2,5.46,1.09,5,2.62,10.47,5,7.41,5,7.41l8-.87A27.18,27.18,0,0,0,46.49,134.06Z"/><path class="cls-10" d="M10.5,38.51c13.08-21.92,26.83-30.76,37-32.72S75,1.54,78.88,1.21c3.39-.28,9.21,1.38,10.75,1.84C85.17-.64,67.57.1,51.83,2.52c-17,2.61-33.59,17.67-44.06,36.65s-7,39-5.46,48.86c.29,1.85.67,3.85,1.1,5.88l.21.23S-2.59,60.44,10.5,38.51Zm1,26.18s.06-.28.2-.8c0,.11-.06.22-.1.33ZM110.3,48l-.27-.48ZM10.82,53.89a58.2,58.2,0,0,0-2,38.94c5.6,17.91,8.08,12.37,10.94,26.56a14,14,0,0,1,1.06.93,11.78,11.78,0,0,1,2.05,3.29,75.13,75.13,0,0,0-5.87-18C12.46,96.43,2.64,83.67,10.82,53.89ZM33.16,25.25a4.9,4.9,0,0,0-.41.5C32.88,25.58,33,25.41,33.16,25.25ZM123.71,66c-3.6-4.26-11.12-14.07-11.12-14.07s6.87,12.11,10.8,17.34a28.44,28.44,0,0,1,4.5,9.63c-.06-1.09-.14-1.78-.14-1.78a19.94,19.94,0,0,0,1.18-2.49A38,38,0,0,0,123.71,66Zm-112-2.11c.29-1,.59-2,.91-2.93-.34,1-.59,1.81-.77,2.43Zm118.25-8.36a6.43,6.43,0,0,0,0-.87c-.27-3.2-2.36-8.06-5-13.15l-1.73-3.23c-.35-.66-.72-1.35-1.09-2.06-1.65-3.11-3.28-5.85-4.87-8.28-9.8-14.91-18-17.57-18-17.57,14.07,7.85,28.14,41.23,28.14,41.23l0,.1c-.23-.47-.45-.94-.69-1.41-4.91-9.81-23.56-30.76-23.56-30.76s17,21.6,22.25,31.09c3.77,6.84,4.32,16.73,4.33,21.73C131.22,66.45,129.76,61.05,129.93,55.53Zm-45-26a14.85,14.85,0,0,0,7-8.66A25.7,25.7,0,0,0,92.3,6.12s0,1-.11,2.64c-3.37.19-25.53,1.83-46,12.08C25.44,31.2,17.38,46.15,12.59,61c2.23-6.5,8.2-20.17,21.47-30.3,18-13.75,40.24-18,57.91-20.29l.14-.34c-.06.91-.14,1.94-.25,3-2.27.31-13.29,2.34-26.39,13.69-14.73,12.76-22.91,25.2-27.16,35,0,0,4.25-7.85,14.07-20.28S80.85,16.26,91.65,14.3l.11-.23q-.14,1.2-.3,2.4c-1.86.78-8.31,3.6-11.92,6.66-4.25,3.6-31.74,25.85-38,36.32,0,0,1.15-1,3-2.76l1.57,4.07a28.13,28.13,0,0,1,4.91-1.31c2.29-.32,11.78-8.83,14.07-11.12S74,40.15,75,39.17s7.2-6.88,7.2-6.88c14.36-6.88,26,12,27.87,15.23C98.62,27.13,88.33,28.37,85,29.5Zm-6.73,1.81c-4.58,4.58-16.36,13.75-20.94,16.36-3.46,2-9,6-11.47,7.87,3.59-3.38,9-8.56,14.09-14.08,8.72-9.38,25.74-21.93,31.2-22.87-.48,2.6-1.15,4.93-2.08,6.18C86.08,28.7,78.23,31.31,78.23,31.31ZM33.16,25.25c2-2.16,11.6-10.78,43.76-16.19C76.92,9.06,45.27,11,33.16,25.25Z"/><path class="cls-11" d="M58.27,49.64s9.16-4.91,12.11-8.18c0,0,6.87-4.91,12.1-6.22s14.73,3.27,16.37,7.2,2.29,7.85-1.31,9.49S76.92,58.47,73,58.8s-5.56-1-6.87-1.31Z"/><path class="cls-12" d="M115.1,102.65a28.75,28.75,0,0,1,4.8-10.26c3.49-4.36,5.67-7,5.45-9.6S114.23,59,109.86,56.18s-7.2,6.76-7.2,6.76S99,81.27,99,83.67s2.19,8.51,2.19,8.51Z"/><path class="cls-13" d="M111.59,169.07c-8.71-2-16.08-4.58-20.1-12.76-6.37-13.09-3.35-25.52-3.35-39.27H37.55c0,13.75,3,26.18-3.35,39.27-4,8.18-11.39,10.8-20.11,12.76h.67c14.75,0,28.81,4.69,43.22,5.89,27.48,2.3,34.51-4.58,54.28-5.56Z"/><path class="cls-14" d="M116.68,154.35s6,3.6,7.36,7.53a63.25,63.25,0,0,0,3.18,7.27c3.79-.73,6.47-1.55,6.47-1.55-2.94-1-5.07-3.6-7.36-8.83s-14.39-12.11-18.65-15.06-5.56-14.88-5.56-14.88-16.85,2.94-18,17.17,12.93,18.66,15,19.64,3.27,5.07,3.27,5.07l2.83-.11a7.16,7.16,0,0,0-1.35-3.65c-1.48-1.64-3.27-5.89-3.27-5.89s5.66,5,6.45,9.47c2.87-.1,6.76-.23,10.72-.31a51.31,51.31,0,0,0,5.34-.42c-.13-1.86-.53-6.08-1.41-8.09C120.61,159.09,116.68,154.35,116.68,154.35Z"/><path class="cls-15" d="M112.59,154.51c-3-2-6.87-6.87-10-10s-3.76-10.47-3.76-10.47L98,135.7c.65,9.32,9.16,15.7,9.16,15.7l-5.56-4.09c-4.1-2.67-6.82-14.89-7-15.81l-.84.46c-.9.95-2.06,3.64-1,11.26,1.64,11.46,19.8,16,22.42,18,2.13,1.6,3.5,7,3.94,8.95.79,0,1.58-.11,2.37-.18C121.87,162.41,115.3,156.32,112.59,154.51Z"/><path class="cls-16" d="M112.59,154.51c-3-2-6.87-6.87-10-10s-3.76-10.47-3.76-10.47l-.54,1.07v.24a18.72,18.72,0,0,0,4.15,10.14,69.54,69.54,0,0,0,8.83,8.84c1.37,1,9.93,8.46,9.75,15.68l.49,0C121.87,162.41,115.3,156.32,112.59,154.51Zm-9.27-6.27-2-1.63-2-3.17-2.29-5.78-.46,1.05c1.22,3.52,2.93,7.26,5,8.6l4.12,3,0,0Z"/><path class="cls-17" d="M98.68,164.16a30.36,30.36,0,0,1-5.89-4.9c-2.45-2.78-5.4-14.73-5.4-14.73l2.46-1.14a99.19,99.19,0,0,0,2.94,10.79C94.26,158.11,93.77,159.26,98.68,164.16Z"/><path class="cls-18" d="M95.08,152.06a21.51,21.51,0,0,0,5.73,6.22c3.44,2.29,8,7.36,8.83,10.63l2.62.66s-6.38-8.84-8.67-10.64S96.88,155.17,95.08,152.06Z"/><path class="cls-19" d="M114.44,88.9c-1.31-3.7-.22-8.07,0-13.52s-4.58-19-4.58-19c-3.49-3.27-11.12-14.18-11.12-14.18-4.15-1.53-17.46-1.74-20.51,0s-8.73,3.05-8.73,3.05l.44-1.74c-3.27,2.62-8.07,4.14-17.67,8.51S29.8,67.53,29.8,67.53a58.93,58.93,0,0,1-2.62,22l2.18,10.69-.87.65c-2.18-7.63-6.11-13.74-13.09-18.1-.21.43-.43.43-.87.65l-.22.87c.22,6.11,3.71,14.18,5.46,16.8s9.16,3.71,9.16,3.71S30,109,33.29,117.48s14,13.74,27.27,23.34,25.09,6.77,29.89,5.24,15-22.25,21.38-33.6S115.75,92.61,114.44,88.9Z"/><path class="cls-20" d="M41.36,71s-.65-10.68,6.33-14.83S78,39.82,98.3,44.18a27,27,0,0,1,10.91,27.27L97.65,77.34,63,79.09Z"/><path class="cls-21" d="M51.77,129.81C59.94,125.72,61,111.19,54,97.35,47.86,85,37.47,77.4,29.51,78.79a53.06,53.06,0,0,1-2.33,10.77l2.18,10.69-.87.65a31.4,31.4,0,0,0-7.63-13.74c-1.31,4.12-1.34,9.38,0,15,2.65,1.88,8.11,2.69,8.11,2.69S30,109,33.29,117.48c2,5.08,6.55,9,12.76,13.35A10.69,10.69,0,0,0,51.77,129.81Z"/><path class="cls-22" d="M114.44,88.9a16.86,16.86,0,0,1-.52-6.86c-4,4.11-7.92,10.91-10.52,19.07-3.7,11.6-3.67,22.48-.41,27.57,3.17-5.69,6.31-11.7,8.84-16.22C118.15,101.12,115.75,92.61,114.44,88.9Z"/><path class="cls-23" d="M93.94,122c0,4.7-4.54,8.51-10.15,8.51S73.65,126.65,73.65,122s4.54-8.5,10.14-8.5S93.94,117.25,93.94,122Z"/><path class="cls-24" d="M39.62,116.83c-2.64-6.48-9.78-20.11-12.19-26l1.93,9.46-.87.65c-2.18-7.63-6.11-13.74-13.09-18.1-.21.43-.43.43-.87.65l-.22.87c0,.32,0,.65.07,1,2.32,1.56,12,8.69,13.18,19.28.82.17,1.37.25,1.37.25S30,109,33.29,117.48c2.88,7.48,11.5,12.44,22.58,20l-.11-.2S42.45,123.81,39.62,116.83Z"/><path class="cls-25" d="M109.86,56.4c-3.49-3.27-11.12-14.18-11.12-14.18-4.15-1.53-17.46-1.74-20.51,0s-8.73,3.05-8.73,3.05l.44-1.74c-3.27,2.62-8.07,4.14-17.67,8.51S29.8,67.53,29.8,67.53a59.66,59.66,0,0,1-2.45,21.53,30.57,30.57,0,0,0,5.07-12.37C34,68.4,40.49,61.63,47,57.71s27.71-13.31,33.6-14,18.11.87,18.11.87,7.63,11.13,9.38,13.09,5.85,13.37,6.29,18.35l0-.68C114.66,69.92,109.86,56.4,109.86,56.4Z"/><path class="cls-26" d="M37.22,81.49s0-9.82,6.32-11.13l6.11.22L55.32,73l13.75,4.14s2,8.51-4.37,10.47l-10.9.22-8.95-2.18L40.71,84.1Z"/><path class="cls-27" d="M88.92,87.59S87,80,90.45,76.25l7.85-3,4.8-2.4,3.05-.66,3.71,2,2,2.18s2,4.14-.21,6.32l-6.33,3.27-8.07,3.28Z"/><path class="cls-28" d="M40.46,59.2c-1.21.86-2.37,1.72-3.45,2.54-1.59,11-5.07,42,2.58,64.1q1.5,1.34,3.27,2.67C42.26,126.68,33.35,98.54,40.46,59.2Z"/><path class="cls-29" d="M72.18,114.1a12.69,12.69,0,0,1,5.56.16c2.29.82,3.76,1.8,5.07,1.8s4.58,1,6.06-2.12c0,0,1.79-1.64,3.43-1l-.49,1.8s-2.78,5.89-8.67,5.73-6.55-1.63-10-4.58Z"/><path class="cls-30" d="M80.41,113.3c2.18,2.21,8.77,1.94,7.64-2.67-.22-.88-2.18-5.1-2-19.53a6.6,6.6,0,0,0-7.2.44v12.88C78.88,108,79.1,112,80.41,113.3Z"/><path class="cls-19" d="M78.45,107.88a9.31,9.31,0,0,1,9.6-.87l-.44-2s-4.14-1.75-9.82,1.09Z"/><path class="cls-31" d="M72.56,109.63a8.51,8.51,0,0,0,3.27-5c.65-3.27.22-11.56.22-11.56s-10,7.42-5,18.76Z"/><path class="cls-32" d="M91.48,109.25a8.79,8.79,0,0,1-2.86-4.79C87.85,101.24,87.48,93,87.48,93a18.74,18.74,0,0,1,5.33,18.38Z"/><path class="cls-33" d="M115.92,93.75c-.4-2.64-1.61-5.11-1.84-7.76-.34-4,.86-8.08.54-12.13a48.07,48.07,0,0,0-1.85-9c-.7-2.54-1.49-5-2.34-7.54a2.88,2.88,0,0,0-.5-1.21,34.65,34.65,0,0,1-2.57-2.84c-2-2.46-4-5-5.84-7.61-.67-.91-1.33-1.82-2-2.74-.22-.31-.46-.87-.85-1a26.2,26.2,0,0,0-7.16-1.09,57.1,57.1,0,0,0-8.87.11,21.71,21.71,0,0,0-3.21.53,20.59,20.59,0,0,0-3,1.33A40.75,40.75,0,0,1,69.81,45c.11-.47.23-.93.34-1.39a.22.22,0,0,0-.36-.22,30.92,30.92,0,0,1-6.86,3.76c-3.83,1.7-7.73,3.26-11.51,5.07-6.48,3.1-12.36,7.56-17.94,12-1.29,1-2.57,2.07-3.81,3.14-.29.25,0,1.65,0,2,0,1.29,0,2.57,0,3.86A64,64,0,0,1,29.15,80a54.74,54.74,0,0,1-1.8,8.39A4.94,4.94,0,0,0,27,89.56a7.82,7.82,0,0,0,.32,1.57c.43,2.12.86,4.23,1.3,6.35.16.8.33,1.6.49,2.4l.06.29-.26.2-.31.23a34.56,34.56,0,0,0-4.83-10.12,29.15,29.15,0,0,0-8.31-7.76.09.09,0,0,0-.12,0,1.54,1.54,0,0,1-.84.63c-.1,0,0,.19.08.14a1.9,1.9,0,0,0,.78-.48c.2-.21.92.42,1.09.53a31.84,31.84,0,0,1,2.55,2A27.85,27.85,0,0,1,23.19,90a34,34,0,0,1,5.13,11,.19.19,0,0,0,.27.11l.87-.65a.2.2,0,0,0,.08-.21q-1.08-5.34-2.17-10.69c0,.19.06-.07.1-.18.1-.31.2-.62.29-.93.34-1.11.63-2.24.88-3.37a62,62,0,0,0,1.48-11.51c0-1.17,0-2.35,0-3.53,0-.61,0-1.23-.08-1.84,0-.14-.15-.43,0-.52l1.34-1.13q3.36-2.81,6.88-5.42a107.71,107.71,0,0,1,9.55-6.43,98.25,98.25,0,0,1,11.35-5.4c3.52-1.51,7.33-2.87,10.45-5.17-.1.38-.19.76-.29,1.14a.23.23,0,0,0,.27.27A40.83,40.83,0,0,0,77.26,43a14.14,14.14,0,0,1,3.23-1.22,29.31,29.31,0,0,1,4.38-.46,58.24,58.24,0,0,1,9.88.34,19.61,19.61,0,0,1,3.72.74c.12,0,.09,0,.25.22s.4.58.61.86c1.61,2.26,3.25,4.5,4.94,6.7q1.41,1.84,2.89,3.63c.43.52.87,1,1.31,1.52l.6.64a6.32,6.32,0,0,1,.58.53,104.23,104.23,0,0,1,4,14.08,25.69,25.69,0,0,1,.54,4.19,56.28,56.28,0,0,1-.45,6.48,24.5,24.5,0,0,0,0,6,31.9,31.9,0,0,0,1,3.62c2.1,7.35.46,15-3.18,21.54-3.55,6.43-6.93,13-10.58,19.32-1.7,3-3.45,5.92-5.41,8.73-1.26,1.82-2.67,3.93-4.59,5.14a8.79,8.79,0,0,1-2.42.84,36.3,36.3,0,0,1-3.59.75A30.79,30.79,0,0,1,75,147a34.46,34.46,0,0,1-12.47-5c-2.22-1.42-4.32-3-6.48-4.51-2-1.37-4-2.7-6-4a113,113,0,0,1-9.5-6.93,26,26,0,0,1-6.18-7.07,36.77,36.77,0,0,1-2.18-5.31c-.63-1.71-1.24-3.44-1.82-5.17-.45-1.35-.91-2.72-1.27-4.1a.19.19,0,0,0-.1-.1,30.68,30.68,0,0,1-4-.89c-2-.57-4.21-1.33-5.35-3.17a37.12,37.12,0,0,1-3.15-7,32.51,32.51,0,0,1-2.07-9.33.07.07,0,0,0-.14,0A35.49,35.49,0,0,0,17.08,96c1,2.4,2,5.34,4.3,6.71a21.52,21.52,0,0,0,7.2,2.25l.24,0c0,.14.07.29.11.43.26.88.53,1.75.81,2.62.53,1.64,1.1,3.27,1.68,4.89.7,2,1.36,4,2.24,5.83a23.84,23.84,0,0,0,6,7.38,94.28,94.28,0,0,0,9.54,7.09c4.14,2.81,8.22,5.7,12.35,8.52a33.43,33.43,0,0,0,22.22,6,33.82,33.82,0,0,0,6.75-1.44c1.71-.54,3-2.36,4.07-3.7,4.24-5.43,7.49-11.69,10.78-17.72,1.76-3.23,3.49-6.48,5.26-9.71,2-3.71,4-7.35,4.93-11.5A26.6,26.6,0,0,0,115.92,93.75ZM20,95c-.18.32-.06.37.09.74a8,8,0,0,0,1.59,2.57s.1,0,.06-.07a7,7,0,0,1-1.07-1.57c-.25-.49-.74-1.22-.41-1.76a8.28,8.28,0,0,0,.87-2.33c.34-1.41.57-3.5-.24-4.81a.06.06,0,0,0-.11,0,10.07,10.07,0,0,1-.15,5.83A7.53,7.53,0,0,1,20,95Zm5.67-.11c.14,0,.08-.24-.06-.21-2.37.31-2.26,2.7-1.1,4.27,0,0,.1,0,.07,0C23.57,97.42,23.46,95.2,25.69,94.9Z"/><path class="cls-34" d="M71.65,113.07a6.29,6.29,0,0,1,.11-3.86.08.08,0,0,0-.14-.06c-1.31,2.3.07,5.21,1.51,7.07.07.1.24,0,.17-.1A10.6,10.6,0,0,1,71.65,113.07Zm16.56,3.34a12,12,0,0,1-3.85.73,17.65,17.65,0,0,1-1.92-.11,4.8,4.8,0,0,1-2.16-.5,8.77,8.77,0,0,0-6.86-1.5c-.07,0,0,.11,0,.1a8,8,0,0,1,4.42.36,10.27,10.27,0,0,1,1.89.91c.27.16.76.39.88.7a.21.21,0,0,0,.15.15,12.79,12.79,0,0,0,3.85.41,7.3,7.3,0,0,0,3.73-.87C88.56,116.67,88.44,116.33,88.21,116.41Zm3.55-2.69a3.81,3.81,0,0,0-2.65,1.78s0,.06,0,0a5.21,5.21,0,0,1,1.23-1.11,9,9,0,0,1,1.39-.61C91.84,113.8,91.81,113.72,91.76,113.72Zm0-5.22a.07.07,0,0,0-.12,0c.67,1.94,1,4.54-.48,6.21a.15.15,0,0,0,.22.21C93,113.34,93,110.37,91.81,108.5Zm-2.62,1.75a18.33,18.33,0,0,1-1.63-6.33c-.17-2.1-.12-4.2-.36-6.29,0,0,0,0,0,0,.13,2.17.11,4.36.29,6.53a18,18,0,0,0,1.64,6.15C89.12,110.39,89.23,110.32,89.19,110.25Z"/><path class="cls-35" d="M60.07,123.92s10,8.34,14.89,10.31c0,0,7.85,2.12,15.38-1.15,0,0,2-2,3.11-3.44s5.07-5.89,5.07-5.89l-6.22,2.13-7,.82s-6.71.33-7.53.33-6.87-.66-6.87-.66l-3.93-.49-2-.16Z"/><path class="cls-36" d="M92.3,125.88l-7,.82s-6.71.33-7.53.33-6.87-.66-6.87-.66l-3.93-.49-2-.16-4.91-1.8s1.89,1.57,4.42,3.52c2.65.67,20.51,4.85,31.25-.74l.35-.19c1.25-1.44,2.43-2.76,2.43-2.76Zm-16.2,7.69c-1.47-.33-6.21-2.29-6.21-2.29l-.06,0A31.24,31.24,0,0,0,75,134.23s7.85,2.12,15.38-1.15c0,0,2-2,3.11-3.44l.07-.09c-.8.66-2,1.56-3.35,2.55C87.39,134.06,77.58,133.9,76.1,133.57Z"/><path class="cls-37" d="M72,130.62s2.95,2,5.08,2,10,.65,12.59-1.31l1.48-2a49.17,49.17,0,0,1-8.35,1.14c-3.27,0-11.78-.65-11.78-.65Z"/><path class="cls-36" d="M94.59,124.08c-3,.12-4.58-1-6.38-.82s-4.25,2-4.25,2a11.4,11.4,0,0,0-4.58-1.48c-2.46-.16-7.86,1.31-11.29,1.64s-9.82-2.13-9.82-2.13a40.52,40.52,0,0,0,22.24,4.58l.17.17a11.5,11.5,0,0,0,5.49-.58l1.06-.08c5.23-.16,10.8-1.31,13.42-6.38A7.91,7.91,0,0,1,94.59,124.08Z"/><path class="cls-38" d="M80.52,127.79a53.18,53.18,0,0,1-11.41-.7,42.67,42.67,0,0,1-10.84-3.83s0,0,0,0a39.67,39.67,0,0,0,22.25,4.63C80.59,127.89,80.6,127.78,80.52,127.79Zm5.89-.57c-1,.13-1.89.48-2.86.59a19.57,19.57,0,0,1-2.87.13c-.08,0-.07.12,0,.13,2,.21,3.95.41,5.8-.61A.13.13,0,0,0,86.41,127.22Zm14.2-6.27a15.85,15.85,0,0,1-2.42,3,11.87,11.87,0,0,1-3.5,2.06,22.51,22.51,0,0,1-7.46,1.29c-.08,0-.08.13,0,.12a23.22,23.22,0,0,0,7.92-1.4,9.76,9.76,0,0,0,5.54-5S100.63,120.91,100.61,121Z"/><path class="cls-39" d="M39.62,45.38s-11.45,29.45-4.26,66.43,24.22,51.37,24.22,51.37-19-21.59-22.25-52.68-2-43.85,5.89-64.79Z"/><path class="cls-40" d="M37.33,74.51s5.72-3.6,9.32-3.44,5.89,2.78,8.67,3.6,13.91,2.78,13.91,2.78-5.4-4.25-10.47-5.4-8-1.14-11.13-3.11C47.63,68.94,41.25,69.43,37.33,74.51Z"/><path class="cls-41" d="M112,74.51s-4.15-3.6-6.76-3.44S101,73.85,99,74.67s-10.08,2.78-10.08,2.78,3.91-4.25,7.59-5.4,5.81-1.14,8.06-3.11A10.59,10.59,0,0,1,112,74.51Z"/><path d="M41.75,84.81a12.16,12.16,0,0,1-4.91-3.27,7.88,7.88,0,0,0,4.91.66c2.29-.66,8.83-3,13.41-.82C58.75,83,50.91,86,50.91,86Z"/><path d="M108.22,81.69a11.51,11.51,0,0,0-8.39-1.46c-4.75,1.15-2,4.09-2,4.09l8.58-2,1.73.67s2.62-.81,3.6-2.45A16.31,16.31,0,0,1,108.22,81.69Z"/><path d="M41.54,84.86l-.64-.64s3.57-3.84,10.71-3.46,11.66,5.91,11.66,5.91Z"/><path class="cls-42" d="M64.56,87.94c-4.14-4.27-8.5-6.38-14.89-6.13-2.51,0-6.5,1.21-8.13,3l.56.88c4.91,4.9,13,3.75,18.37,2.43l2-.47Z"/><path class="cls-43" d="M56.16,84a4.88,4.88,0,0,0-.38-1.58,20,20,0,0,0-6.11-.62,13.88,13.88,0,0,0-3,.43,4.91,4.91,0,0,0-.47,2.5,5,5,0,0,0,3.67,4.45c.67.07,1.36.11,2,.12A5,5,0,0,0,56.16,84Z"/><path class="cls-44" d="M51.51,88.78a4.41,4.41,0,0,0,3.54-6.53,20.49,20.49,0,0,0-5.38-.44,12.85,12.85,0,0,0-2.25.26,4.41,4.41,0,0,0,4.09,6.71Z"/><path d="M53.79,84.19A2.61,2.61,0,1,1,51,81.78,2.62,2.62,0,0,1,53.79,84.19Z"/><path class="cls-45" d="M53,84.24a1.84,1.84,0,1,1-3.67.27A1.84,1.84,0,0,1,53,84.24Z"/><path class="cls-42" d="M51.11,83.28a1.06,1.06,0,0,0,1-1.14,1.55,1.55,0,0,0-.07-.31c-.64,0-1.29,0-2,0a1.17,1.17,0,0,0-.09.5A1.07,1.07,0,0,0,51.11,83.28Z"/><path class="cls-42" d="M51.88,86.88a.51.51,0,1,1-.55-.48A.51.51,0,0,1,51.88,86.88Z"/><path d="M41.56,84.87a11.48,11.48,0,0,1,5.73-2.66,18.43,18.43,0,0,1,6.5-.08c4.26.61,7.61,2.94,10.71,5.89.08.07.21-.06.14-.14A18.43,18.43,0,0,0,46.8,82.1a9.82,9.82,0,0,0-5.27,2.74s0,.06,0,0Z"/><path class="cls-46" d="M42.09,85.77c4.67,4.8,12.6,4,18.4,2.45.06,0,0-.12,0-.11-6.14,1.32-13.23,2.36-18.34-2.39,0,0-.06,0,0,0Z"/><path d="M107.79,83.64l.51-.68a10,10,0,0,0-8.83-2.84c-5.82.79-9.37,6.57-9.37,6.57Z"/><path class="cls-42" d="M89.07,88c3.28-4.5,6.79-6.86,12-7,2-.1,5.34.83,6.71,2.58l-.44.91C103.47,89.72,96.82,89,92.42,88l-1.65-.35Z"/><path class="cls-47" d="M97.65,88.32a4.83,4.83,0,0,0,4.55-5.08,5.23,5.23,0,0,0-.53-2.18,5.8,5.8,0,0,0-.59,0,13,13,0,0,0-8.16,2.84A4.79,4.79,0,0,0,97.65,88.32Z"/><path class="cls-48" d="M97.64,87.75a4.27,4.27,0,0,0,4-4.5,4.59,4.59,0,0,0-.6-2.19,13,13,0,0,0-7.62,2.46A4.26,4.26,0,0,0,97.64,87.75Z"/><path d="M100,83.28a2.43,2.43,0,1,1-2.48-2.55A2.52,2.52,0,0,1,100,83.28Z"/><path class="cls-49" d="M99.26,83.3a1.72,1.72,0,1,1-1.75-1.8A1.77,1.77,0,0,1,99.26,83.3Z"/><path class="cls-42" d="M97.52,82.24a1,1,0,0,0,1-.91,12.57,12.57,0,0,0-1.78.48A1,1,0,0,0,97.52,82.24Z"/><path class="cls-42" d="M98.08,85.87a.52.52,0,0,1-.47.53.5.5,0,0,1-.49-.51.49.49,0,0,1,.47-.52A.5.5,0,0,1,98.08,85.87Z"/><path d="M107.77,83.65A8.16,8.16,0,0,0,103,81.33a12.25,12.25,0,0,0-5.31.29c-3.46.86-6.13,3.37-8.6,6.49-.06.08-.17,0-.11-.13a15.56,15.56,0,0,1,8.88-6.64,12.36,12.36,0,0,1,5.54-.16,7.3,7.3,0,0,1,4.37,2.44,0,0,0,0,1,0,0Z"/><path class="cls-46" d="M107.37,84.57c-3.7,5.06-10.19,4.77-15,3.51,0,0,0-.12,0-.11,5,1,10.85,1.59,14.91-3.44,0,0,0,0,0,0Z"/></g></g></svg>