<svg xmlns="http://www.w3.org/2000/svg" xmlns:xlink="http://www.w3.org/1999/xlink" viewBox="0 0 127.29 162.73"><defs><style>.cls-1{fill:url(#linear-gradient);}.cls-2{fill:url(#linear-gradient-2);}.cls-3{fill:url(#linear-gradient-3);}.cls-4{fill:url(#linear-gradient-4);}.cls-5{fill:url(#linear-gradient-5);}.cls-6{fill:url(#linear-gradient-6);}.cls-7{fill:url(#linear-gradient-7);}.cls-8{fill:url(#linear-gradient-8);}.cls-9{fill:url(#linear-gradient-9);}.cls-10{fill:#ffc2a7;}.cls-11{fill:url(#linear-gradient-10);}.cls-12{fill:url(#radial-gradient);}.cls-13{fill:url(#radial-gradient-2);}.cls-14{fill:url(#radial-gradient-3);}.cls-15{fill:url(#linear-gradient-11);}.cls-16{fill:url(#linear-gradient-12);}.cls-17{fill:url(#linear-gradient-13);}.cls-18{fill:url(#linear-gradient-14);}.cls-19{fill:url(#linear-gradient-15);}.cls-20{fill:url(#linear-gradient-16);}.cls-21{fill:#a9563f;}.cls-22{fill:url(#linear-gradient-17);}.cls-23{fill:#f3735c;}.cls-24{fill:#f36252;}.cls-25{fill:url(#radial-gradient-4);}.cls-26{fill:#c22537;}.cls-27{fill:url(#linear-gradient-18);}.cls-28{fill:url(#linear-gradient-19);}.cls-29{fill:url(#linear-gradient-20);}.cls-30{fill:url(#linear-gradient-21);}.cls-31{fill:url(#linear-gradient-22);}.cls-32{fill:url(#linear-gradient-23);}.cls-33{fill:url(#linear-gradient-24);}.cls-34{fill:url(#linear-gradient-25);}.cls-35{fill:#fff;}.cls-36{fill:url(#linear-gradient-26);}.cls-37{fill:url(#linear-gradient-27);}.cls-38{fill:url(#linear-gradient-28);}.cls-39{fill:#eba9a9;}.cls-40{fill:url(#linear-gradient-29);}.cls-41{fill:url(#linear-gradient-30);}.cls-42{fill:url(#linear-gradient-31);}.cls-43{fill:#e39b83;}</style><linearGradient id="linear-gradient" x1="63.64" y1="145.58" x2="63.64" y2="97.8" gradientUnits="userSpaceOnUse"><stop offset="0" stop-color="#794e3a"/><stop offset="1" stop-color="#37231a"/></linearGradient><linearGradient id="linear-gradient-2" x1="66.26" y1="145.58" x2="66.26" y2="97.8" gradientUnits="userSpaceOnUse"><stop offset="0" stop-color="#734a37"/><stop offset="1" stop-color="#503326"/></linearGradient><linearGradient id="linear-gradient-3" x1="65.82" y1="145.58" x2="65.82" y2="97.8" gradientUnits="userSpaceOnUse"><stop offset="0" stop-color="#5f3928"/><stop offset="1" stop-color="#372116"/></linearGradient><linearGradient id="linear-gradient-4" x1="64.79" y1="112.74" x2="64.79" y2="140.56" gradientUnits="userSpaceOnUse"><stop offset="0" stop-color="#d4866f"/><stop offset="1" stop-color="#ffc2a7"/></linearGradient><linearGradient id="linear-gradient-5" x1="50.02" y1="130.53" x2="50.02" y2="18.25" xlink:href="#linear-gradient"/><linearGradient id="linear-gradient-6" x1="47.93" y1="77.67" x2="47.93" y2="11.27" xlink:href="#linear-gradient-2"/><linearGradient id="linear-gradient-7" x1="47.58" y1="72.24" x2="47.58" y2="11.4" gradientUnits="userSpaceOnUse"><stop offset="0" stop-color="#84553f"/><stop offset="1" stop-color="#613e2e"/></linearGradient><linearGradient id="linear-gradient-8" x1="50.02" y1="132.59" x2="50.02" y2="29.85" xlink:href="#linear-gradient-3"/><linearGradient id="linear-gradient-9" x1="50.11" y1="130.71" x2="50.11" y2="18.23" gradientUnits="userSpaceOnUse"><stop offset="0" stop-color="#5e3421"/><stop offset="1" stop-color="#1c0f0a"/></linearGradient><linearGradient id="linear-gradient-10" x1="69.1" y1="31.44" x2="69.1" y2="64.36" gradientUnits="userSpaceOnUse"><stop offset="0" stop-color="#ffd9bd"/><stop offset="1" stop-color="#ffc2a7"/></linearGradient><radialGradient id="radial-gradient" cx="84.39" cy="-571.61" r="56.49" gradientTransform="matrix(0.21, -0.14, 0.22, 0.32, 144.67, 293.69)" gradientUnits="userSpaceOnUse"><stop offset="0" stop-color="#ffa191"/><stop offset="1" stop-color="#ffc2a7"/></radialGradient><radialGradient id="radial-gradient-2" cx="598.62" cy="-181.52" r="56.49" gradientTransform="matrix(0.23, 0.12, -0.18, 0.34, -61.92, 85.01)" xlink:href="#radial-gradient"/><radialGradient id="radial-gradient-3" cx="502.59" cy="-214.54" r="28.66" gradientTransform="translate(-142.93 166.63) scale(0.44 0.26)" xlink:href="#linear-gradient-10"/><linearGradient id="linear-gradient-11" x1="53.68" y1="60.45" x2="53.68" y2="81.53" xlink:href="#linear-gradient-4"/><linearGradient id="linear-gradient-12" x1="93.75" y1="62.72" x2="93.75" y2="82.44" xlink:href="#linear-gradient-4"/><linearGradient id="linear-gradient-13" x1="83.77" y1="71" x2="66.97" y2="94.34" gradientUnits="userSpaceOnUse"><stop offset="0" stop-color="#d4866f"/><stop offset="1" stop-color="#ffad96"/></linearGradient><linearGradient id="linear-gradient-14" x1="78.66" y1="99.06" x2="78.66" y2="83.72" xlink:href="#linear-gradient-10"/><linearGradient id="linear-gradient-15" x1="66.93" y1="101.55" x2="68.56" y2="101.66" xlink:href="#linear-gradient-10"/><linearGradient id="linear-gradient-16" x1="1629.35" y1="214.4" x2="1630.99" y2="214.51" gradientTransform="matrix(-0.67, -0.12, -0.18, 0.98, 1222.96, 88.71)" xlink:href="#linear-gradient-10"/><linearGradient id="linear-gradient-17" x1="77.31" y1="105.52" x2="77.31" y2="113.34" xlink:href="#linear-gradient-4"/><radialGradient id="radial-gradient-4" cx="322.39" cy="-179.54" r="37.03" gradientTransform="translate(-5.57 166.63) scale(0.26)" gradientUnits="userSpaceOnUse"><stop offset="0" stop-color="#f38f76"/><stop offset="1" stop-color="#f3735c"/></radialGradient><linearGradient id="linear-gradient-18" x1="77.26" y1="98.99" x2="77.26" y2="89.62" gradientUnits="userSpaceOnUse"><stop offset="0" stop-color="#a9563f"/><stop offset="1" stop-color="#e9a68c"/></linearGradient><linearGradient id="linear-gradient-19" x1="53.83" y1="62.46" x2="53.83" y2="67.37" xlink:href="#linear-gradient-9"/><linearGradient id="linear-gradient-20" x1="95.79" y1="62.46" x2="95.79" y2="67.37" xlink:href="#linear-gradient-9"/><linearGradient id="linear-gradient-21" x1="88.08" y1="100.2" x2="88.08" y2="27.34" xlink:href="#linear-gradient"/><linearGradient id="linear-gradient-22" x1="94.25" y1="76.34" x2="94.25" y2="32.61" xlink:href="#linear-gradient-2"/><linearGradient id="linear-gradient-23" x1="94.63" y1="74.23" x2="94.63" y2="35.78" xlink:href="#linear-gradient-7"/><linearGradient id="linear-gradient-24" x1="88.08" y1="101.44" x2="88.08" y2="41.76" xlink:href="#linear-gradient-3"/><linearGradient id="linear-gradient-25" x1="88.14" y1="100.31" x2="88.14" y2="27.21" xlink:href="#linear-gradient-9"/><linearGradient id="linear-gradient-26" x1="52.28" y1="81.51" x2="52.28" y2="74.89" gradientUnits="userSpaceOnUse"><stop offset="0" stop-color="#39140a"/><stop offset="1"/></linearGradient><linearGradient id="linear-gradient-27" x1="52.28" y1="81.51" x2="52.28" y2="74.89" gradientUnits="userSpaceOnUse"><stop offset="0.01" stop-color="#652312"/><stop offset="1" stop-color="#210000"/></linearGradient><linearGradient id="linear-gradient-28" x1="52.28" y1="78.24" x2="52.28" y2="79.96" gradientUnits="userSpaceOnUse"><stop offset="0"/><stop offset="1" stop-color="#77726d"/></linearGradient><linearGradient id="linear-gradient-29" x1="93.31" y1="82.38" x2="93.31" y2="75.76" xlink:href="#linear-gradient-26"/><linearGradient id="linear-gradient-30" x1="93.3" y1="82.38" x2="93.3" y2="75.76" xlink:href="#linear-gradient-27"/><linearGradient id="linear-gradient-31" x1="93.3" y1="79.11" x2="93.3" y2="80.83" xlink:href="#linear-gradient-28"/></defs><g id="Layer_2" data-name="Layer 2"><g id="_10_Face" data-name="10_Face"><path d="M127.1,153.37c-13-10-12.85-35.6-8.77-54.48.26-1.17.52-2.34.78-3.53,3.46-15.53,7.38-33.12-3.2-59.37A57.63,57.63,0,0,0,92.58,8c-8.35-5.1-18.16-8-26.93-8-1,0-2.06,0-3,.13A37.76,37.76,0,0,0,42,8.44C36,13.12,29.91,20,23,30,11.37,46.86,12.21,76.75,12.56,89.52c0,1.71.09,3.19.09,4.25A153.47,153.47,0,0,0,14.4,113.7a.49.49,0,0,0,.49.41h0a.5.5,0,0,0,.45-.5c-.1-3.66.28-9.48.71-14.6,0,9.94.27,20.36.27,20.49-.22,16.93-4.57,26.23-8.19,31.05C4.28,155.75.39,157,.35,157a.49.49,0,0,0,.14,1l.12,0a45.28,45.28,0,0,1,6.84-1.1.54.54,0,0,0,.27-.11,48.15,48.15,0,0,0,12.89-17.84c-1.63,5.91-4.42,13.3-8.75,16.71a.5.5,0,0,0-.16.56.48.48,0,0,0,.46.32h0c1.17-.07,2.41-.12,3.7-.17l2-.05,1.22,0h3.34a.49.49,0,0,0,.37.16h.57c7.2,0,14.35,1.57,21.25,3.09a133.14,133.14,0,0,0,15.67,2.8c3.18.31,6.23.47,9,.47,9.05,0,15.18-1.58,21.1-3.11a79.54,79.54,0,0,1,16.36-2.92l.12,0c.79,0,1.61.06,2.43.06s1.6,0,2.4-.06h0c.56,0,1.13-.06,1.69-.1a69.17,69.17,0,0,0,13.45-2.35.49.49,0,0,0,.34-.38A.51.51,0,0,0,127.1,153.37Z"/><path class="cls-1" d="M117.85,98.78c3.5-16.14,9-34.46-2.4-62.6S77.71-.69,62.66.62,36.48,11.31,23.4,30.29,13.14,84.82,13.14,93.77a149.83,149.83,0,0,0,1.75,19.85c-.22-7.85,1.74-25.31,1.74-25.31-.22,11.13.22,31.2.22,31.2-.44,33.16-16.36,38-16.36,38a46.87,46.87,0,0,1,6.91-1.12C11.35,153,19.27,144.84,23,130.42c0,0-2.78,19.25-10.8,25.57,6.09-.35,11.67-.27,11.67-.27l12.87-.87,17.24.22,41.44.43,10.91.66a66.05,66.05,0,0,0,20.51-2.4C112.62,142.85,114.36,114.93,117.85,98.78Z"/><path class="cls-2" d="M26.59,88.73c.06.25.12.49.2.72C26.73,89.21,26.66,89,26.59,88.73Zm4.33-66.62s-21.81,15-16.36,65.44a169.08,169.08,0,0,1,.94-22.64c1.82-2.19,2.85,3.36,3,4.3.51,2.49.95,5,1.47,7.43.62,2.9,1.44,3.32,3.32,5.23,1.72,1.74,2.6,4.49,3.26,6.86-.43-2-.08-4.41-.25-6.37-.17-1.77.18-5.57-1.13-7-1-1.08-2.34-.37-3.46-.9-1.53-.74-1.82-2.17-2.13-3.83-.63-3.34-.33-6.73-.47-10.1-.06-1.56.18-4.45-.44-5.88s-1.18-.53-1.14-3C19.89,40.41,23.92,29.19,30.92,22.11Zm72.62,1.71a9,9,0,0,1-.77-2.87c6.36,7.25,12.2,17.24,16.07,31,0,0-7.2-48-50.18-49.95a30.53,30.53,0,0,1,4.2.68A4.77,4.77,0,0,1,74.56,4c.65,1.11-.5.72-.46,1.3.1,1.43,0,1.18,1.54,2.4,1.79,1.43,4.22,4.11,1.51,5.73,1.58,1.45,4.92,1.75,7,2.41-1.6-.76-2.39-2.35-3.35-3.94-.51-.82-3.28-2.77-3-3.66.42-1.23,3.69-.85,6.36-.25a15.37,15.37,0,0,1,6.26,4.4,11,11,0,0,0,2.83,3.27c1.47,1.08,3.32,2.11,4,3.88-1.49,1.05-1.44.85-.66,2.4.66,1.31,2,2.26,2.83,3.44,1.48,2,3.66,7.8-.63,8.15.15,1.91,3.07,4.15,4.11,5.85,1.51,2.47,3.15,5,4.43,7.64.64-4.06-.87-11.69-3-15.43C103.24,29.49,97.65,22.19,103.54,23.82ZM15.21,144.71s9.38-14.18,6.33-38C21.54,106.75,21.32,128.34,15.21,144.71Zm99.7-40.36a71,71,0,0,0-3,23.78c.65,12.87,6.54,18.32,6.54,18.32S110.55,128.34,114.91,104.35Z"/><path class="cls-3" d="M45.1,10.33C38.78,14,25.91,30.18,22.63,60.72s2,54.53,1.75,69.59c-.18,12.59-6.48,22.59-8.52,25.52,1.84-.07,3.52-.1,4.86-.11a109.3,109.3,0,0,0,5.19-18.43,84.15,84.15,0,0,1-2.79,18.43h.71l12.87-.87,17.24.22,8.63.09a35.37,35.37,0,0,0,3.91-5c4.58-7.2,5.45-55.41,5.45-55.41L64.08,41.3S51.43,6.62,45.1,10.33Zm62.17,104.49c3.28-11.13,8.51-39.49,8.51-39.49L83.06,111.77c-6.33,8.5-8.07,15.7-9.6,22.46-1.11,4.92,6.41,15.11,12,21.17l10,.1,1.77.11A102.77,102.77,0,0,1,101.6,136a111.74,111.74,0,0,0-.51,19.87l4,.24c-3.41-14.36-1.11-30.36-1.11-30.36a82.49,82.49,0,0,0,6,30.51c1.16,0,2.3-.07,3.41-.15C107.45,148.72,104.3,124.93,107.27,114.82ZM74.55,50.47c3.06,2.4,17,7.19,17,7.19l15.92-1.74,3.71-9.38C101,18.4,73.68,13.38,73.68,13.38L60.37,29.09C61.68,32.14,71.5,48.07,74.55,50.47Z"/><path class="cls-4" d="M106.21,155.88c-7.45-2-13.76-4.58-17.2-12.76-5.44-13.09-2.86-25.52-2.86-39.27H42.87c0,13.75,2.58,26.18-2.87,39.27-3.44,8.18-9.74,10.8-17.19,12.76h.57c12.61,0,24.64,4.69,37,5.89,23.5,2.3,29.52-4.58,46.43-5.56Z"/><path class="cls-5" d="M61.68,1.16l-2.4.66c-19.2,5.45-29.45,27.92-32.5,45.81l.23.1c-2.29,10.09-2.53,21-2.63,32l.3-.9c-.86,20.24,2.31,41,7.11,60l0-.1c.94,9.42,1.95,16,1.95,16,.65-7.85,1.52-15.71,2.18-23.56.57-8.12,2.6-18.05,2.15-26.51l9-48.69,2,.81c.65-.22,9.6-11.78,9.6-11.78l17-17.45C75.86,20.14,73.9-.15,61.68,1.16Z"/><path class="cls-6" d="M45.1,42.34c-3.46-2.79-.91-7.79-.56-11.74A55.43,55.43,0,0,1,52.3,23a45.51,45.51,0,0,0-7.81,5.7,1.18,1.18,0,0,0,0-.2c-.59-2.64-3-2.45-4.18-3.21,4.35-4.29,8.54-8,8.54-8a31.67,31.67,0,0,0-9.21,7,4.47,4.47,0,0,1,.47-2.38c.64-1.57,6.39-9.15,4.84-9.9A17.84,17.84,0,0,1,50.24,6,43,43,0,0,0,39,17.08l.18.24c.93,1.06,1.45,0,1.15,1.95a15,15,0,0,1-1.15,2.4A10.61,10.61,0,0,0,38,26.18a44.53,44.53,0,0,0-4.63,6.61c1.26-1.58,2.86-3.35,4.56-5.1-.09,2.55.24,2.32,2.65,3.85a4.57,4.57,0,0,1,.63.49C29.55,45,27.31,61.84,26.88,67.62a2.69,2.69,0,0,0-.76.95c-1.21-2.49-.62-5.62-1-8.38C24.69,65,24.52,70,24.44,75A2.68,2.68,0,0,1,27,76.2c1.59,2,1.47,5.26,1.92,7.63.24,1.28,1.11,3.32,2.67,3.63,2.09.41,3.12-2.26,5.4-.79,1.81,1.18,2.36,3.53,3.4,5.31l.51-2.77c.19-3.06.28-6.94-1.28-7.78-.74-.4-2.46.27-3.28.23a6.82,6.82,0,0,1-3.54-1.09c-3.32-2-3.58-6.29-4.15-9.78-.19-1.16-.66-3.46-1.56-3.28a77.2,77.2,0,0,1,15-33.95c.45,1.45.09,3.19-.08,4.9-.39,3.8-.72,7.6-.88,11.4,0,.8-.39,3.17,0,3.88.6,1,1.41.45,2.14,1,2.08,1.7.5,4.27.21,6.74,1.11-1.36,2.2-2.81,3.26-4.31L47.06,56l.49.2a134.05,134.05,0,0,0,8-13.33C52.81,43.63,47.6,44.36,45.1,42.34ZM67.79,11.68c-.67-2.42-.91-3.52-3.49-4.58C62,6.17,60,6.36,61.07,3.39c.35-1,1.15-1.48,1-2.26l-.38,0-2.4.66a31,31,0,0,0-4.21,1.52h.28c2-1.4,5.55-.17,3.57,2.42,1.26.36,3.19,1.08,3.9,2.37,1.25,2.28-1.29,3.83-.93,5.92.52,3,5.18-.43,6.82,2.15.84-.65,1.82-1.37,2.71-2C69,13.67,68.5,14.24,67.79,11.68Z"/><path class="cls-7" d="M32.57,82.16c-1.65.33-2.83-3.26-3.28-4.48-.35-.93-2.37-7.78-3.44-5.73l-.33,2.13c4.48,1.35,2.81,10.69,6.85,11.27A11.29,11.29,0,0,0,32.57,82.16ZM43,35.14c-.11-2.14.11-4.41-.69-6.35-1-2.32-3.24-1-3.9-3.41-.16,2.77.14,3.58,2.46,5s1.93,3.45,1.8,6.05c-.18,3.95-1.22,10.12.33,13.74l4.42-4.58C42.49,44.55,43.24,39.26,43,35.14ZM41.39,17.47l-.16,1c1.76-2.13,1-5,2.31-7.14-.78,1.35-2,2.23-2.78,3.51C41.88,15.25,41.51,16.54,41.39,17.47ZM59.55,2.58v.33A2.93,2.93,0,0,1,59.9,5.5a3.2,3.2,0,0,0,1.07,0c-1.06-1.08,0-2.32.19-3.42A9.14,9.14,0,0,0,59.55,2.58Zm6.88,9.33c-1-2.16-.88-3.26-3.28-4.58L62.33,7c2,2.15,2.68,4.2,2,7,1.29.07,4.08-.6,4.39,1.12a7.11,7.11,0,0,0,.93-.9A4.74,4.74,0,0,1,66.43,11.91Z"/><path class="cls-8" d="M74.22,14.17c-6.53,2-15.81,19.93-15.81,19.93-3.27,5-17.24,19-20.51,26.83s-4.8,27.49-4.8,27.49c-1.52,15,.66,50.4.66,50.4h.16l-.16,1.73C31.36,131.83,30.92,95,30.92,95c-1.49,13.72-.35,31.28.9,43.82,0,.25.05.51.08.77a.28.28,0,0,0,0,.09c.58,5.74,1.18,10.33,1.53,12.88v0c0,.12,0,.24,0,.35h0c0,.11,0,.22,0,.33h0c.05.31.08.57.12.78v0l0,.19v0l0,.13a.13.13,0,0,0,0,.06.15.15,0,0,0,0,.07s0,.05,0,.07v0l0,.09c.1-1.19.2-2.39.31-3.58,0-.4.07-.8.11-1.2.07-.78.15-1.57.22-2.35l.15-1.62c0-.16,0-.33.05-.5l.63-6.52q.38-3.89.71-7.79c.57-8.12,2.6-18.05,2.15-26.51l9-48.69,2,.81c.65-.22,9.6-11.78,9.6-11.78l17-17.45A54.16,54.16,0,0,0,74.22,14.17Zm-20.39,5.1S33.32,27.48,25.59,55.91A203.83,203.83,0,0,0,24.38,79.7l.3-.9v0a134.9,134.9,0,0,1,2.1-19A59.54,59.54,0,0,1,53.83,19.27ZM27,47.73c2.62-11.55,7.92-22,18.75-30.42,0,0-9,4.2-15.5,16.89a82.9,82.9,0,0,0-3.48,13.43l.23.1Z"/><path class="cls-9" d="M53.79,19.21A59.88,59.88,0,0,0,26.84,58.32C22.94,78,23.91,98.37,27.19,118c1.14,6.82,2.64,13.55,4.39,20.24.08.83.16,1.66.25,2.49.48,4.69,1,9.38,1.72,14,0,.26.41.17.43-.06.42-5,.92-9.9,1.39-14.85.44-4.57.75-9.15,1.27-13.71.93-8.35,2.59-17,1.13-25.35,0-.11-.19-.06-.17,0,1.26,8.37-.44,17-1.4,25.3-.53,4.56-.84,9.14-1.28,13.71-.42,4.32-.85,8.65-1.22,13-1.31-8.92-2.18-17.92-2.77-26.91A200.25,200.25,0,0,1,31,95c0-.11-.16-.11-.17,0a145.16,145.16,0,0,0-.61,23.59c.22,6.2.66,12.4,1.24,18.58C27,117.94,24,98.23,24.91,78.47a135.48,135.48,0,0,1,1.52-15.3,75.29,75.29,0,0,1,2.92-12.6A59.64,59.64,0,0,1,42,29.23a61.22,61.22,0,0,1,11.88-9.9A.07.07,0,1,0,53.79,19.21ZM24.38,79.7C24.74,64,25,47.22,32.61,33a50.34,50.34,0,0,1,13.2-15.64c.06-.05,0-.16-.09-.11A49.26,49.26,0,0,0,30.79,35.67,70.19,70.19,0,0,0,25.15,57.8a195.23,195.23,0,0,0-.78,21.9Zm34.88-78C44.94,5.42,35.79,19.06,30.81,32.13a75.56,75.56,0,0,0-4,15.5h0a85.93,85.93,0,0,1,6.67-20.69,54,54,0,0,1,13-17.84A36.44,36.44,0,0,1,59.31,1.91.09.09,0,0,0,59.26,1.73ZM74.07,12.66c-1.31-4.57-3.83-10-8.82-11.34a9.14,9.14,0,0,0-3.57-.16s0,0,0,0a9.28,9.28,0,0,1,7.09,2.49,17.16,17.16,0,0,1,4.11,6.85,49.55,49.55,0,0,1,2.53,15.71c0,.45,0,.89,0,1.34a.21.21,0,0,0,.42,0A45.47,45.47,0,0,0,74.07,12.66Z"/><path class="cls-10" d="M61,33.18c-1.48,3.76-5.08,6.54-7.2,9.65,0,0-11.78,12.6-14.07,18.32s-5.57,25-5.57,25,1.64,21.1,7.86,29.12,24.48,18.43,31.19,19.58c4.66.79,9,.65,12.87-2,4.11-2.73,7.76-7.06,11.07-10.58,3.06-3.25,6.37-5.46,7.6-10,0,0,4-21.07,3.15-30s-8.29-20.94-8.29-20.94Z"/><path class="cls-11" d="M48.26,69.33l19.31,1.31,24.22-2.29,8-6.76-.13-.22L61,33.18c-1.48,3.76-5.08,6.54-7.2,9.65,0,0-11.78,12.6-14.07,18.32a39.29,39.29,0,0,0-1.33,4.29l.67,1Z"/><path class="cls-12" d="M52.06,115.86C59,111.19,59,99,52,88.57c-4.36-6.5-10.41-10.75-16-11.89-1,5.17-1.76,9.51-1.76,9.51s1.64,21.1,7.86,29.12a26.15,26.15,0,0,0,2,2.25A11.51,11.51,0,0,0,52.06,115.86Z"/><path class="cls-13" d="M107.93,82.31a29.67,29.67,0,0,0-1.14-5.42A29.09,29.09,0,0,0,95.19,89c-5.93,11-4.76,23.21,2.62,27.17a10.57,10.57,0,0,0,4.25,1.22,12.88,12.88,0,0,0,2.72-5S108.8,91.26,107.93,82.31Z"/><path class="cls-14" d="M91.57,111.11c0,4.1-5.67,7.42-12.66,7.42s-12.65-3.32-12.65-7.42,5.67-7.42,12.65-7.42S91.57,107,91.57,111.11Z"/><path class="cls-15" d="M42.92,77.19S37,71.84,40,67.26c0,0,4.48-4.69,13.53-2.29a123.21,123.21,0,0,1,14.29,4.58S70,79,64.41,82.1Z"/><path class="cls-16" d="M85.46,83s-4.26-7.31-.87-13.31l2.5.33L91,67.59s6.33-1.85,6.44-1.09,6.43,7,6.43,7l.33,4.58-2.62,1.31-8.83,2Z"/><path class="cls-17" d="M107.93,82.31c-.87-8.94-8.29-20.94-8.29-20.94L61,33.18c-1.48,3.76-5.08,6.54-7.2,9.65,0,0-11.78,12.6-14.07,18.32a61.69,61.69,0,0,0-2.21,7.92c1.2-1.41,4.17-5.09,5.37-8.35,1.3-3.52,13-16.18,17.68-23.12,2.73,4,17.5,25.47,28.35,31.19,0,0,11.78,6.54,12.65,12.22s5.17,20.09.32,36.53a13,13,0,0,0,2.86-5.21S108.8,91.26,107.93,82.31Z"/><path class="cls-18" d="M79.24,104.57s-5.78-.22-5.45-5.79.65-14.5.65-14.5l6.66.33s.32,8.07.76,10.14,2,5.12,1.64,7.09S82,104.57,79.24,104.57Z"/><path class="cls-10" d="M73.35,97.26s5.24-2.29,9.49-.55l-.11-1s-3.71-1.42-9.49.55Z"/><path class="cls-19" d="M66.81,103.91c.27,1.87,2-.26,2.21-1,.35-1,.76-2.81,0-3.73-2.06-2.68-2.37,3.44-2.37,4.47Z"/><path class="cls-20" d="M87.57,104.58c-.47,1.54-1.29-.46-1.35-1.07-.09-.86-.09-2.46.53-3.15,1.79-2,1.08,3.18.92,4Z"/><path class="cls-21" d="M61,33.17a20.42,20.42,0,0,1-3.87,5.62c-.67.76-1.35,1.5-2,2.28-.47.55-.86,1.21-1.35,1.74-1.09,1.17-2.16,2.36-3.23,3.57-2,2.31-4,4.67-5.93,7.11A40.08,40.08,0,0,0,40,60.43a33.79,33.79,0,0,0-2.07,6.68c-.75,3.06-1.39,6.14-2,9.23-.51,2.55-1,5.1-1.44,7.66a9.82,9.82,0,0,0-.36,2.4,113.91,113.91,0,0,0,2,13.26c1.19,5.73,2.74,12.06,6.63,16.61a44.84,44.84,0,0,0,7.18,6.44,93.63,93.63,0,0,0,9.36,6.14c5.27,3.06,10.91,6.08,17.09,6.52a15.87,15.87,0,0,0,9.12-1.9,36.21,36.21,0,0,0,7.87-6.8c2.25-2.36,4.43-4.77,6.77-7.06a16.45,16.45,0,0,0,4.78-7.25.09.09,0,0,0-.17,0c-1.21,4.28-4.65,6.88-7.58,10-3.26,3.44-6.33,7.11-10.16,9.94A15.05,15.05,0,0,1,80.58,135a21.89,21.89,0,0,1-7.31-.21A29.21,29.21,0,0,1,66,132.16a87.31,87.31,0,0,1-18.5-11.61A28.88,28.88,0,0,1,41.25,114a33.67,33.67,0,0,1-3.56-8.59,98.69,98.69,0,0,1-3.18-17,9.94,9.94,0,0,1-.18-2.4q.44-2.58.92-5.16a175.87,175.87,0,0,1,3.84-17.43c1.59-5.37,5.5-9.8,9-14,1.79-2.13,3.63-4.23,5.52-6.27a5.07,5.07,0,0,0,.36-.45,34.51,34.51,0,0,1,2.68-3.23,22.25,22.25,0,0,0,4.38-6.25s-.06-.07-.08,0Z"/><path class="cls-22" d="M67.57,105.66a11.74,11.74,0,0,1,6.71-1s4.91,3.28,9.49-.32c0,0,2.62.32,3.27,1.63,0,0-1,1.8-2.13,2a9.9,9.9,0,0,1-7.2,3.11c-4.58,0-9.16-3.77-9.16-3.77A1.62,1.62,0,0,1,67.57,105.66Z"/><path d="M70.9,105.93a15.48,15.48,0,0,1,3.21.27A3.75,3.75,0,0,1,70.9,105.93Z"/><path d="M82.68,106.37l.76-.39,1.26.22A2.37,2.37,0,0,1,82.68,106.37Z"/><path class="cls-23" d="M59.06,112.86a40.3,40.3,0,0,0,14.4,9.65s6.87,1.31,10.47-1.15,4.42-4.9,8.35-8.18c0,0-7,1.31-8,1.31s-9.16.82-9.16.82l-6.87-.49L65,114.66Z"/><path class="cls-24" d="M84.26,114.49c-1,0-9.16.82-9.16.82l-6.87-.49L65,114.66l-5.89-1.8A34.51,34.51,0,0,0,62,115.63h.17s17.51,3.6,27.32-.33l.84-.34c.56-.57,1.2-1.16,2-1.79C92.28,113.18,85.24,114.49,84.26,114.49Zm-15.38,5.89v0a33.31,33.31,0,0,0,4.59,2.1s6.87,1.31,10.47-1.15a16.35,16.35,0,0,0,2.34-1.92l-.21.12C78.53,124.15,68.88,120.38,68.88,120.38Z"/><path class="cls-25" d="M67.46,118.75a18.91,18.91,0,0,0,10.91,2.4c6-.66,8.29-2.51,8.4-3.28s-4-.11-8.07-.21S67.57,117.44,67.46,118.75Z"/><path class="cls-24" d="M90.8,113c-1.47.49-2,.49-4.09,0a19.58,19.58,0,0,0-4.74-.33l-2.78.82c-1-.82-3.77-1-3.77-1-5.23-.16-6.7,1.47-10,1.47s-10-2.45-10-2.45a75.12,75.12,0,0,0,10.15,3.6c3.38.8,6.76.34,10.13.48l.34.33a9,9,0,0,0,2.29.66,8.26,8.26,0,0,0,1.87-.52l.26,0c3.1-1,11.61-.82,13.25-5.07A9.24,9.24,0,0,1,90.8,113Z"/><path class="cls-26" d="M75.92,115.54a46.33,46.33,0,0,0-5,0,24.84,24.84,0,0,1-5.58-.52,74.08,74.08,0,0,1-9.87-3.47s0,0,0,.07a76.67,76.67,0,0,0,9.84,3.59c3.41.92,7.12.63,10.63.57C76.05,115.74,76,115.55,75.92,115.54ZM93.7,111c-1.19,2.36-3.86,3.12-6.26,3.66-2,.45-4.1.6-6.08,1.13.13-.08.25-.17.37-.26s0-.23-.12-.21c-.93.24-1.79.72-2.72,1a2.82,2.82,0,0,1-1.32.09,8.53,8.53,0,0,1-1.49-.45s0,0,0,0a6.42,6.42,0,0,0,1.2.45,4.14,4.14,0,0,0,1.43.34,9.09,9.09,0,0,0,2.14-.66c2.36-.6,4.86-.62,7.24-1.2,2.15-.52,5-1.49,5.72-3.83C93.83,111,93.73,111,93.7,111Z"/><path class="cls-27" d="M67.09,104.5a15.25,15.25,0,0,1-.1-5.22.08.08,0,0,0-.15,0,13.11,13.11,0,0,0,0,5.68c.56,2,2.17,2.77,4,3.19,0,0,0,0,0,0A5.37,5.37,0,0,1,67.09,104.5Zm7.73,1.89a6.09,6.09,0,0,0-5.63,0s0,.09,0,.07a7.72,7.72,0,0,1,5.52.06A.1.1,0,0,0,74.82,106.39Zm10.77.23a3,3,0,0,0-2.28-.75,4.55,4.55,0,0,0,.67-1.34,0,0,0,0,0-.09,0,5.87,5.87,0,0,1-3.75,2.85,10.89,10.89,0,0,1-5-.44c-.08,0-.11.1,0,.13,2.53,1,6.07,1.25,7.94-.81a3.28,3.28,0,0,1,2.53.44S85.61,106.64,85.59,106.62Zm2.32-6a.05.05,0,0,0-.1,0c-.3,2.66,0,5.8-3,7.12-.1,0,0,.22.08.18C87.87,106.76,88.22,103.34,87.91,100.58Zm-3.67,3.11s0,0,0,0c.8-2.42-.09-4.49-.79-6.81a22.4,22.4,0,0,1-.95-4.14c-.16-1.47-.16-3-.21-4.44,0,0-.07,0-.07,0a24.62,24.62,0,0,0,.63,7.56C83.59,98.41,84.9,101,84.24,103.69Z"/><path class="cls-28" d="M39.59,67.54s3.77-3.44,11.46-2.3,11,6.22,14.39,5.89a7.51,7.51,0,0,0,2.62-1.63s-5.4-1.8-9.32-3.27S45.65,60.83,39.59,67.54Z"/><path class="cls-29" d="M107,67.54s-3-3.44-9-2.3-8.63,6.22-11.33,5.89a5.83,5.83,0,0,1-2.06-1.63s4.25-1.8,7.34-3.27S102.23,60.83,107,67.54Z"/><path class="cls-30" d="M116,70.54c0-9-2.62-20.29-7.2-28.37-7.2-13.3-18.76-22-33.59-26l-1.75.44c-2.18,1.53-3.49,3.49-7.85,8.07a22.48,22.48,0,0,0-5.46,8.73c7.2,8.07,12.22,17.23,20.07,25.09,3.93,3.92,8.07,8.07,12.66,10.9,3.27,2,7.63,3.71,9.81,6.77,0,0,7.42,20.07.44,39.7,0,0,6.17-11.42,8.47-21.77l0,.17A63,63,0,0,0,116,70.54Z"/><path class="cls-31" d="M114.93,59.76a17.42,17.42,0,0,1-.51,3.8c-.13.49-.24.93-.35,1.36-.8-6.18-3.27-17.36-10.74-27.05a2.39,2.39,0,0,1,.83-1.21,1.78,1.78,0,0,1,1-.3,50.37,50.37,0,0,0-10-10.42,11.35,11.35,0,0,1,.68,1.41,10.64,10.64,0,0,1,.5,3.35,43.55,43.55,0,0,0-6.56-4.45,49.49,49.49,0,0,1,6.83,6.39c.89,5.87-2.67,5.91-8,7.29q-.66.18-1.17.36c-1.33-.92-2.73-1.83-4.22-2.7A42.47,42.47,0,0,1,87,40.51a3.53,3.53,0,0,0-2,2.92c-.4,2,.37,4.84-1.74,5.73-1.87.77-4.55-.65-6.55-.44-1.76.18-2.26.74-4.14-.22l-.09,1c1.93,2.52,3.94,5,6.17,7.41.29-1.89,1-3.52,3.08-4.23,1.78-.59,3.44,0,5.23-.05,2.77-.11,3.1-1.61,4-4.08a18.25,18.25,0,0,1,1.32-2.94A64.6,64.6,0,0,1,108.75,78c-.13,0-.25.11-.39.15-1.49.51-3.11-1-3.93.67-.31-.27-.77-.52-1.14-.79a65,65,0,0,1,1.79,7.71c.25-.76.46-1.51.71-2.09A12.42,12.42,0,0,1,109,79.21c.21,1.3.38,2.62.51,4a32.07,32.07,0,0,0,0-4.4c.26-.23.54-.45.83-.67,1.67-1.25,3.81-3.56,5.63-3.84.07-1.25.1-2.5.1-3.74A59.34,59.34,0,0,0,114.93,59.76Zm-5.57,17.95A50.21,50.21,0,0,0,93,44.63a8.46,8.46,0,0,1,2.71-2.41c1.86-1,3.89-.65,5.72-1.36a2.54,2.54,0,0,0,1.11-.77A66.23,66.23,0,0,1,113.4,68.81c0,.27-.05.55-.07.84C113.14,72.39,112,76.14,109.36,77.71Z"/><path class="cls-32" d="M109.17,78.33c.26-.15.52-.31.77-.48a7.43,7.43,0,0,0,1.12-.94c-.31.21-.62.42-.91.65ZM95.91,39.52c-2.54,1.27-6.81,1-8.55,3.31s.6,6.7-2.45,7.69c-3.24,1.06-8.18-1-11.65,0,.77,1,1.55,2,2.35,3A15.38,15.38,0,0,1,82.3,51a35.58,35.58,0,0,1,6,.29,10.72,10.72,0,0,1,.31-6.5c1-2.48,2.56-3.11,5-3.81,2-.56,4.17-.68,5.88-2s2.43-3.62,3.48-5.55q-1.56-1.87-3.27-3.57C100.3,33.53,98.89,38,95.91,39.52Zm20,27.31-.06-.26c-1.8,3.33-2,7.61-4.74,10.34a19.78,19.78,0,0,0,2.49-1.69c.69-.59,1.48-2,2.4-2.31,0-.79,0-1.58,0-2.37C116,69.34,116,68.1,115.86,66.83ZM104.12,81.12l.32,1.4a43.13,43.13,0,0,1,4.73-4.19c-.86.5-1.74.92-2.53,1.44A9.66,9.66,0,0,1,104.12,81.12Z"/><path class="cls-33" d="M74.11,36.72C91.57,51.56,97.35,68.46,97.35,68.46v.07c-.37-.35-.78-.7-1.21-1-5-4-12.55-9.27-20.29-19.85,0,0,8.4,11.56,9.82,12.87a38.24,38.24,0,0,0,7.63,6.11c3.3,1.92,6.68,5.93,8,7.8l0,.29a8.74,8.74,0,0,1,1.35,1.51s.09.24.24.69l.09.18c-1.2-6.44-13.85-25.74-13.85-25.74C81.64,40.43,74.11,36.72,74.11,36.72Zm34.69,5.45a55,55,0,0,0-3.6-5.77c14.08,24.09,9,45.58,7.3,50.95.16-13.59-5.91-29.64-8.93-34.54-3.44-5.56-11.29-11-11.29-11,14.23,12.27,17.34,29.28,18.32,42.21.83,10.86-4.82,25.77-6.64,30.25,1.76-3.5,5.86-12.15,7.64-20.17l0,.17A63,63,0,0,0,116,70.54C116,61.59,113.38,50.25,108.8,42.17ZM89,65.74C86.11,64,76.08,53.3,72.81,47.85c-3-4.91-10.84-13.53-12.39-15.2-.19.51-.27.8-.27.8,7.2,8.07,12.22,17.23,20.07,25.09,3.93,3.92,8.07,8.07,12.66,10.9,2.37,1.43,5.32,2.74,7.6,4.53C99.88,73.09,91.72,67.44,89,65.74Z"/><path class="cls-34" d="M116,66.36a61.69,61.69,0,0,0-7.31-24.7,52,52,0,0,0-13.85-16.2,55.1,55.1,0,0,0-19.61-9.4.16.16,0,0,0-.09.31,55.56,55.56,0,0,1,21.49,11A52.93,52.93,0,0,1,110.9,46.82c6.27,14.59,6.34,31.43,1.11,46.34.19-1,.35-2.08.45-3.13A46.48,46.48,0,0,0,112,79.36a84.1,84.1,0,0,0-3.54-14.92,60.15,60.15,0,0,0-5.31-12s-.11,0-.08.05a56.2,56.2,0,0,1,4.26,9.62,92.8,92.8,0,0,1,3.3,11.67,66.81,66.81,0,0,1,1.56,11.79,36.77,36.77,0,0,1-1.37,10.93,89,89,0,0,1-7,17.68,60.13,60.13,0,0,0,1.77-25.56,69.25,69.25,0,0,0-1.8-9c-.22-.85-.47-1.71-.75-2.55a3.59,3.59,0,0,0-.3-.89c-.17-.23-.35-.44-.53-.66A28.38,28.38,0,0,0,95,67.94a98.14,98.14,0,0,1-7.83-6C81.52,56.79,78.2,49.69,73,44.13c0,0,0,0,0,0,5,5.57,8.43,12.45,13.83,17.72a60.73,60.73,0,0,0,7.29,5.69,38.32,38.32,0,0,1,4,3.29,35.58,35.58,0,0,1,3.44,3.93c-2.37-2.31-5.63-3.65-8.46-5.3-4.27-2.5-7.89-6.09-11.38-9.55A103.31,103.31,0,0,1,72,48.68c-2.82-3.75-5.5-7.61-8.42-11.3q-1.44-1.82-3-3.56c-.21-.23-.4-.25-.32-.52a5.89,5.89,0,0,1,.21-.59A22.66,22.66,0,0,1,64,26.64c1.76-2.23,3.84-4.25,5.72-6.38a23.39,23.39,0,0,1,3.71-3.6s0,0,0,0c-2.33,1.65-4.13,4-6.07,6.08-2.71,2.91-5.34,5.78-6.89,9.5-.14.34-.26.68-.37,1s.1.41.36.7c1.64,1.88,3.19,3.84,4.7,5.83,2.84,3.74,5.52,7.6,8.41,11.31a105,105,0,0,0,9.93,10.84,51.87,51.87,0,0,0,11,8.56,53.44,53.44,0,0,1,5.42,3.19c.91.66,2.36,1.67,2.74,2.78a50.88,50.88,0,0,1,1.44,5.1c2.66,11.23,2.75,23.35-1.12,34.31-.06.17.21.28.3.12a101,101,0,0,0,6.42-14.61,61.29,61.29,0,0,0,2.16-7.46,52.56,52.56,0,0,0,3.7-13.73A64.65,64.65,0,0,0,116,66.36ZM102.87,76c0,.06.11,0,.08-.05a151.45,151.45,0,0,0-8.17-16.19A78.12,78.12,0,0,0,83.94,45s0,0,0,0a84.37,84.37,0,0,1,10.59,14.9C97.53,65.17,99.91,70.74,102.87,76Z"/><path d="M43.34,77.75l-.55-.63s3.56-3.31,10.13-2.48,10.37,6.24,10.37,6.24Z"/><path class="cls-35" d="M64.4,82.15c-3.54-4.22-7.43-6.47-13.34-6.67-2.33-.13-6.09.68-7.72,2.27l.46.86c4.2,4.85,11.77,4.33,16.8,3.47l1.89-.29Z"/><path class="cls-36" d="M56.9,78a4.52,4.52,0,0,0-.24-1.49,18.44,18.44,0,0,0-5.6-1,12.8,12.8,0,0,0-2.8.2,4.61,4.61,0,0,0,2.49,6.63,17,17,0,0,0,1.88.25A4.62,4.62,0,0,0,56.9,78Z"/><path class="cls-37" d="M52.28,82.05A4.09,4.09,0,0,0,56.37,78,3.93,3.93,0,0,0,56,76.25a19,19,0,0,0-4.93-.77,11.06,11.06,0,0,0-2.1.1,4.08,4.08,0,0,0,3.32,6.47Z"/><path d="M54.7,78a2.42,2.42,0,1,1-2.42-2.42A2.42,2.42,0,0,1,54.7,78Z"/><path class="cls-38" d="M54,78a1.71,1.71,0,1,1-1.71-1.71A1.71,1.71,0,0,1,54,78Z"/><path class="cls-35" d="M52.28,76.94a1,1,0,0,0,1-1,.93.93,0,0,0-.05-.29c-.58-.08-1.19-.13-1.81-.16a1,1,0,0,0-.12.45A1,1,0,0,0,52.28,76.94Z"/><path class="cls-35" d="M52.76,80.31a.48.48,0,1,1-.48-.47A.47.47,0,0,1,52.76,80.31Z"/><path d="M43.36,77.77a10.54,10.54,0,0,1,5.47-2.08,17.13,17.13,0,0,1,6,.36c3.9.86,6.83,3.23,9.5,6.17.07.07.19,0,.13-.12a17.16,17.16,0,0,0-9.8-6.31,16.86,16.86,0,0,0-6.29-.23,9,9,0,0,0-5.05,2.18s0,0,0,0Z"/><path class="cls-39" d="M43.78,78.62c4,4.75,11.38,4.59,16.83,3.51.06,0,0-.11,0-.1-5.76.8-12.38,1.29-16.78-3.44,0,0-.06,0,0,0Z"/><path d="M102.78,79.31l.48-.62a9.17,9.17,0,0,0-8.12-2.8c-5.4.61-8.81,5.9-8.81,5.9Z"/><path class="cls-35" d="M85.36,83c3.13-4.1,6.42-6.22,11.25-6.22,1.91-.05,4.93.87,6.17,2.52l-.42.83c-3.7,4.71-9.84,4-13.9,2.93l-1.52-.35Z"/><path class="cls-40" d="M93.3,83.45a4.48,4.48,0,0,0,4.31-4.63,4.85,4.85,0,0,0-.44-2,5.28,5.28,0,0,0-.56,0A12,12,0,0,0,89,79.25,4.44,4.44,0,0,0,93.3,83.45Z"/><path class="cls-41" d="M93.3,82.91a4,4,0,0,0,3.81-4.09,4.3,4.3,0,0,0-.51-2,12,12,0,0,0-7.11,2.12A3.94,3.94,0,0,0,93.3,82.91Z"/><path d="M95.55,78.82a2.26,2.26,0,1,1-2.25-2.41A2.34,2.34,0,0,1,95.55,78.82Z"/><path class="cls-42" d="M94.89,78.82a1.59,1.59,0,1,1-1.59-1.7A1.65,1.65,0,0,1,94.89,78.82Z"/><path class="cls-35" d="M93.3,77.81a.94.94,0,0,0,.9-.82,12.42,12.42,0,0,0-1.65.4A.9.9,0,0,0,93.3,77.81Z"/><path class="cls-35" d="M93.74,81.18a.46.46,0,0,1-.44.48.48.48,0,1,1,.44-.48Z"/><path d="M102.76,79.32a7.63,7.63,0,0,0-4.34-2.25,11.52,11.52,0,0,0-4.92.17c-3.23.73-5.75,3-8.09,5.84-.06.07-.16,0-.1-.12a14.46,14.46,0,0,1,8.35-6,11.4,11.4,0,0,1,5.13,0,6.72,6.72,0,0,1,4,2.34,0,0,0,1,1,0,0Z"/><path class="cls-39" d="M102.37,80.16c-3.52,4.62-9.53,4.21-13.92,3,0,0,0-.11,0-.1,4.65,1,10,1.69,13.87-2.9,0,0,0,0,0,0Z"/><path class="cls-43" d="M51.21,85.21s6.71.16,9-1.15A8.56,8.56,0,0,1,51.21,85.21Z"/><path class="cls-43" d="M96.53,85.61s-5.09.54-6.93-.64A5.44,5.44,0,0,0,96.53,85.61Z"/></g></g></svg>