<svg xmlns="http://www.w3.org/2000/svg" xmlns:xlink="http://www.w3.org/1999/xlink" viewBox="0 0 147.45 177.89"><defs><style>.cls-1{fill:url(#linear-gradient);}.cls-2{fill:url(#linear-gradient-2);}.cls-3{fill:url(#linear-gradient-3);}.cls-4{fill:url(#linear-gradient-4);}.cls-5{fill:url(#linear-gradient-5);}.cls-6{fill:#da7c58;}.cls-7{fill:url(#radial-gradient);}.cls-8{fill:url(#radial-gradient-2);}.cls-9{fill:url(#radial-gradient-3);}.cls-10{fill:url(#linear-gradient-6);}.cls-11{fill:url(#linear-gradient-7);}.cls-12{fill:url(#linear-gradient-8);}.cls-13{fill:url(#linear-gradient-9);}.cls-14{fill:url(#linear-gradient-10);}.cls-15{fill:url(#linear-gradient-11);}.cls-16{fill:url(#linear-gradient-12);}.cls-17{fill:url(#linear-gradient-13);}.cls-18{fill:url(#linear-gradient-14);}.cls-19{fill:url(#linear-gradient-15);}.cls-20{fill:url(#linear-gradient-16);}.cls-21{fill:#a8431f;}.cls-22{fill:url(#linear-gradient-17);}.cls-23{fill:#e75062;}.cls-24{fill:#cb3e44;}.cls-25{fill:url(#radial-gradient-4);}.cls-26{fill:#ae261c;}.cls-27{fill:url(#linear-gradient-18);}.cls-28{fill:url(#linear-gradient-19);}.cls-29{fill:url(#linear-gradient-20);}.cls-30{fill:url(#linear-gradient-21);}.cls-31{fill:#fff;}.cls-32{fill:url(#linear-gradient-22);}.cls-33{fill:url(#linear-gradient-23);}.cls-34{fill:url(#linear-gradient-24);}.cls-35{fill:url(#linear-gradient-25);}.cls-36{fill:url(#linear-gradient-26);}.cls-37{fill:url(#linear-gradient-27);}</style><linearGradient id="linear-gradient" x1="71.52" y1="166.08" x2="71.52" y2="124.87" gradientUnits="userSpaceOnUse"><stop offset="0" stop-color="#da7c58"/><stop offset="1" stop-color="#c15331"/></linearGradient><linearGradient id="linear-gradient-2" x1="27.19" y1="18.5" x2="50.82" y2="65.76" gradientUnits="userSpaceOnUse"><stop offset="0" stop-color="#984721"/><stop offset="1" stop-color="#562712"/></linearGradient><linearGradient id="linear-gradient-3" x1="28.49" y1="17.8" x2="50.43" y2="61.69" gradientUnits="userSpaceOnUse"><stop offset="0" stop-color="#bd6a3c"/><stop offset="1" stop-color="#7b3927"/></linearGradient><linearGradient id="linear-gradient-4" x1="74.93" y1="26.48" x2="74.93" y2="98.47" gradientUnits="userSpaceOnUse"><stop offset="0" stop-color="#46200f"/><stop offset="1" stop-color="#300f02"/></linearGradient><linearGradient id="linear-gradient-5" x1="27.11" y1="18.34" x2="50.77" y2="65.67" xlink:href="#linear-gradient-2"/><radialGradient id="radial-gradient" cx="116.47" cy="353.62" r="30.34" gradientTransform="translate(46.56 27.03) scale(0.38 0.26)" gradientUnits="userSpaceOnUse"><stop offset="0" stop-color="#e5896b"/><stop offset="1" stop-color="#da7c58"/></radialGradient><radialGradient id="radial-gradient-2" cx="-514.85" cy="-38.05" r="25.62" gradientTransform="matrix(0.44, 0.53, -0.36, 0.3, 261.98, 382.97)" gradientUnits="userSpaceOnUse"><stop offset="0" stop-color="#f19c71"/><stop offset="1" stop-color="#da7c58"/></radialGradient><radialGradient id="radial-gradient-3" cx="-908.86" cy="-160.48" r="25.61" gradientTransform="matrix(-0.29, 0.62, -0.42, -0.2, -213.24, 630.73)" xlink:href="#radial-gradient-2"/><linearGradient id="linear-gradient-6" x1="84.28" y1="64.87" x2="84.28" y2="30.27" gradientUnits="userSpaceOnUse"><stop offset="0" stop-color="#da7c58"/><stop offset="1" stop-color="#faa87a"/></linearGradient><linearGradient id="linear-gradient-7" x1="63.26" y1="83.87" x2="63.26" y2="68.04" xlink:href="#linear-gradient"/><linearGradient id="linear-gradient-8" x1="105.95" y1="83.75" x2="105.95" y2="68.25" xlink:href="#linear-gradient"/><linearGradient id="linear-gradient-9" x1="58.79" y1="84.28" x2="58.79" y2="72.17" gradientUnits="userSpaceOnUse"><stop offset="0" stop-color="#c96038"/><stop offset="1" stop-color="#a63616"/></linearGradient><linearGradient id="linear-gradient-10" x1="107.96" y1="84.11" x2="107.96" y2="71.06" xlink:href="#linear-gradient-9"/><linearGradient id="linear-gradient-11" x1="78.83" y1="82.95" x2="78.83" y2="20.43" xlink:href="#linear-gradient"/><linearGradient id="linear-gradient-12" x1="55.73" y1="138.85" x2="118.32" y2="35.42" xlink:href="#linear-gradient"/><linearGradient id="linear-gradient-13" x1="89.4" y1="117.75" x2="89.4" y2="109.86" xlink:href="#linear-gradient"/><linearGradient id="linear-gradient-14" x1="91.34" y1="92.25" x2="91.34" y2="119.24" xlink:href="#linear-gradient-6"/><linearGradient id="linear-gradient-15" x1="78.68" y1="98.17" x2="89.32" y2="104.37" xlink:href="#linear-gradient"/><linearGradient id="linear-gradient-16" x1="99.03" y1="100.85" x2="92.99" y2="102.48" xlink:href="#linear-gradient"/><linearGradient id="linear-gradient-17" x1="89.39" y1="110.03" x2="89.39" y2="106.04" gradientUnits="userSpaceOnUse"><stop offset="0" stop-color="#ae4826"/><stop offset="1" stop-color="#da7c58"/></linearGradient><radialGradient id="radial-gradient-4" cx="458.27" cy="397.51" r="35.98" gradientTransform="translate(-29.26 27.03) scale(0.26)" gradientUnits="userSpaceOnUse"><stop offset="0" stop-color="#ff979a"/><stop offset="1" stop-color="#e75062"/></radialGradient><linearGradient id="linear-gradient-18" x1="63.66" y1="66.62" x2="63.66" y2="70.27" xlink:href="#linear-gradient-4"/><linearGradient id="linear-gradient-19" x1="-1452.87" y1="66.68" x2="-1452.87" y2="70.51" gradientTransform="matrix(-0.66, 0, 0, 1, -858.98, 0)" xlink:href="#linear-gradient-4"/><linearGradient id="linear-gradient-20" x1="61.04" y1="65.08" x2="61.04" y2="69.72" gradientUnits="userSpaceOnUse"><stop offset="0" stop-color="#ad431b"/><stop offset="1" stop-color="#9d2d08"/></linearGradient><linearGradient id="linear-gradient-21" x1="106.19" y1="65.64" x2="106.19" y2="70.23" xlink:href="#linear-gradient-20"/><linearGradient id="linear-gradient-22" x1="40.84" y1="47.24" x2="40.84" y2="40.61" gradientTransform="matrix(1, 0.03, -0.03, 1, 22.05, 40.09)" gradientUnits="userSpaceOnUse"><stop offset="0" stop-color="#7b7f16"/><stop offset="1"/></linearGradient><linearGradient id="linear-gradient-23" x1="40.84" y1="47.24" x2="40.84" y2="40.61" gradientTransform="matrix(1, 0.03, -0.03, 1, 22.05, 40.09)" gradientUnits="userSpaceOnUse"><stop offset="0.01" stop-color="#999b1c"/><stop offset="1" stop-color="#5c4f00"/></linearGradient><linearGradient id="linear-gradient-24" x1="40.84" y1="43.96" x2="40.84" y2="45.68" gradientTransform="matrix(1, 0.03, -0.03, 1, 22.05, 40.09)" gradientUnits="userSpaceOnUse"><stop offset="0"/><stop offset="1" stop-color="#9ea799"/></linearGradient><linearGradient id="linear-gradient-25" x1="110.91" y1="117.42" x2="110.91" y2="110.8" gradientTransform="translate(-15.6 -19.73) rotate(-4.38)" xlink:href="#linear-gradient-22"/><linearGradient id="linear-gradient-26" x1="110.91" y1="117.42" x2="110.91" y2="110.79" gradientTransform="translate(-15.6 -19.73) rotate(-4.38)" xlink:href="#linear-gradient-23"/><linearGradient id="linear-gradient-27" x1="110.91" y1="114.15" x2="110.91" y2="115.87" gradientTransform="translate(-15.6 -19.73) rotate(-4.38)" xlink:href="#linear-gradient-24"/></defs><g id="Layer_2" data-name="Layer 2"><g id="_14_Face" data-name="14_Face"><path d="M146.69,84.64a47.52,47.52,0,0,0-3.93-11.89,57.79,57.79,0,0,0-6.7-10.38c-.8-1-1.66-2.13-2.65-3.36-2.79-5.14-4.16-11-5.48-16.77-.31-1.33-.63-2.72-1-4.06-1.07-4.34-2.25-9-3.81-15.1a1.3,1.3,0,0,0-.51-.65l-.1-.08c-.38-.35-.77-.69-1.24-1.08-1-.87-2.15-1.79-3.47-2.8a113,113,0,0,0-10.1-7A51.55,51.55,0,0,0,96.93,6.37a78.58,78.58,0,0,0-11.76-2.8,45,45,0,0,0-6.23-.64h-.21l-.73,0-.69,0a5,5,0,0,1-1.18-.12,7.11,7.11,0,0,1-2.71-1.68L73.26,1a3.47,3.47,0,0,0-2.05-1h-.06c-.92,0-1.48.91-1.72,1.3A12,12,0,0,0,68.1,4.93a21.64,21.64,0,0,0-6.82-2.11c-.52,0-1.06-.08-1.59-.08a17.85,17.85,0,0,0-9.93,3A67,67,0,0,0,43,11.24c-.72.64-1.44,1.27-2.17,1.89-2.17,1.86-4.47,3.63-6.69,5.34-1.75,1.35-3.56,2.74-5.3,4.16a92.55,92.55,0,0,0-7.09,6.43l-.45.46a3.71,3.71,0,0,0-.64,1.89c0,.14,0,.27-.06.38a27,27,0,0,0-.17,6.94c0,.5.07,1,.11,1.49a48.51,48.51,0,0,1,.21,5.53,23,23,0,0,1-1.55,7.09A53.5,53.5,0,0,1,15.81,60l-.16.29c-1.07,2-2.17,4-3.21,6.06l-.06.13C10.59,70,8.13,74.89,9.94,79.08a20.75,20.75,0,0,0,2.49,4c1.39,1.92,2.71,3.74,3,6,.48,4.13-1.8,8-4.18,11.66-.46.7-.93,1.39-1.4,2.08-.7,1-1.43,2.1-2.1,3.18a55.55,55.55,0,0,0-3.3,6.32A46.58,46.58,0,0,0,.25,126.45c-.41,3.35-.55,7.25,1.45,10.76a24.47,24.47,0,0,0,5.85,6.24l.41.34c2.6,2.19,5.27,4.6,6.86,7.78,2.08,4.16,1.71,9.44-1.12,15.69a.67.67,0,0,0,0,.34c-1.08.84-2.26,1.69-3.67,2.67a.63.63,0,0,0,.34,1.15.56.56,0,0,0,.33-.1l.12-.07h0c1.61-.13,5.42-.45,8.65-.79h.07l.13,0,.62-.07h.07l.53-.07q.33,0,.81,0H23c.52,0,1.11.08,1.72.14h.15l.34,0h.1l.39.05h.21l.3,0h.11l.36.05h.22l.46.06,1.12.15h0l.43.07h.19l.4.06h.07c1,.14,1.95.3,2.94.46l.81.13.15,0,.82.13.1,0,1.77.3,3.42.61c2.68.48,4.8.9,5.58,1.05l0,0a.68.68,0,0,0,.5.22.61.61,0,0,0,.47-.21c4.47,1.07,7.75,2,7.8,2a73.59,73.59,0,0,0,17.6,2,89.36,89.36,0,0,0,24.28-3.36l.07,0c13.5-6.74,22.67-7.47,22.76-7.48a.47.47,0,0,0,.39-.24.66.66,0,0,0,.25,0h0c7.41-.27,11.6-6.43,13.81-11.54,2.89-6.69,3.55-13.79,4.06-21.71a79.17,79.17,0,0,1,1.5-12.5,38.93,38.93,0,0,1,2.06-6.36c.55-1.29,1.24-2.55,1.9-3.77.41-.76.84-1.55,1.24-2.35C148.24,99.8,147.82,90.71,146.69,84.64Z"/><path class="cls-1" d="M24.4,169.81a22.13,22.13,0,0,0,20.19-13.42c6.43-14.07,4.28-34.68,4.28-34.68l45.29,7.52s-5.81,27.49,24.48,37.31c0,0-9.18.65-23,7.52,0,0-20.5,6.55-41.61,1.31C54.08,175.37,34.19,169.81,24.4,169.81Z"/><path class="cls-2" d="M137,64.77c-1.1-1.44-2.26-2.93-3.46-4.44-3.24-5.44-4.78-12.2-6-17.48-1.31-5.57-4.91-19.64-4.91-19.64-2-2-12.1-10.14-20.28-14.07s-21-5.89-24.55-5.56S72.83.63,71.19.63s-2.62,5.24-2.62,5.24A33.86,33.86,0,0,0,62,3.58,17.27,17.27,0,0,0,50.9,5.87c-4.25,2.62-9.49,8.18-17,13.74A96.32,96.32,0,0,0,21.78,30.08c-2,5.89.65,12.77-.66,18.65-1,5.24-3.92,10.48-6.54,15.06C12.61,68,9.34,73,10.32,77.86c1.31,4.25,5.57,6.87,5.89,11.45.66,6.55-5.56,13.09-8.5,18.33-3.6,6.54-6.55,13.74-6.87,21.27-1,11.45,8.83,12.76,14.07,21.26,3.27,5.57,2,11.78-.66,17.35a4,4,0,0,0-.2.65c-1.17.89-2.42,1.76-3.73,2.62,0,0,6.22-.49,10.48-1s24.86,3.6,24.86,3.6a1.16,1.16,0,0,0,0-.18s3.82-14.52.8-22c4-13.45,2.37-29.54,2.37-29.54l45.29,7.52s-5.68,26.89,23.51,37h1.62c10.8-.33,15-13.75,16.36-22.91,1.64-12.43,0-21.59,6.55-33.05C150.38,96.18,146.78,77.53,137,64.77ZM24.4,169.81h0Z"/><path class="cls-3" d="M134.13,75.79l-4.59-5.89,3.71,10.47s3.28,12.65,3.49,13.52,0,9.38,0,9.38l.66,9.82s4.58-8.94,3.71-17.67S134.13,75.79,134.13,75.79ZM28.54,95.86c1.53-14-2-22.47-2-22.47,2.83,9.81-1.53,21.16-1.75,39.7s5,22.25,8.73,30.54-.22,18.11-.22,18.11l-1.09,4.14a85.94,85.94,0,0,0,5.67-8.29c3-5-2.62-20.29-5.67-26S27,109.82,28.54,95.86Zm101.22,20.72c-.24-7.73-3.21-14.94-2.19-23,.47-3.65.93-7.16,1.1-10.85a46.23,46.23,0,0,0,.22-5c-.12-2-.84-2.23-2-3.84,1.09,5.79.74,13-.16,18.73-1,6.15,0,11.82,1.19,17.69-.88-2.47-1.94-4.89-2.77-7-2.18-5.67-1.53-23.78-1.53-23.78l-4.36,41.23s-5.89,5.68-6.76,6.11-4.58,7.2-5.24,9,1.09,7.85,1.09,7.85S111,150,112.09,153s-3,4.8-3,4.8,3.93,0,5.89-3.05-3.06-10.69-3.27-13.31,2.4-6.55,6.54-7.42,9.38-6.32,11.13-12a12.88,12.88,0,0,0,.25-5.69Zm-20.29,39.48v-4.79a21,21,0,0,0-2.61-3.06c-1.31-1.31-5.67-.87-7.64,0-.76.34-1,1.74-1,3.31a29.81,29.81,0,0,0,5.37,6.58l-.44-4.43C106,153.23,109.47,156.06,109.47,156.06ZM137,64.77c-1.1-1.44-2.26-2.93-3.46-4.44a48.15,48.15,0,0,1-4.79-12.42,38.19,38.19,0,0,1-3-2.5c-3.45-3.21-6.09-7.27-9-10.86a34.7,34.7,0,0,0-14.1-10.33,18.5,18.5,0,0,1-.08-2.53c.09-2.2.61-3.58-.26-5.68-1.06-2.56-.84-3.28,1-3.44a138.64,138.64,0,0,1,17.55,13.48l4.37,7.54c-1.32-5.27-2.63-10.38-2.63-10.38-2-2-12.1-10.14-20.28-14.07s-21-5.89-24.55-5.56S72.83.63,71.19.63s-2.62,5.24-2.62,5.24A33.86,33.86,0,0,0,62,3.58,17.27,17.27,0,0,0,50.9,5.87c-4.25,2.62-9.49,8.18-17,13.74A96.32,96.32,0,0,0,21.78,30.08c-2,5.89.65,12.77-.66,18.65-1,5.24-3.92,10.48-6.54,15.06C12.61,68,9.34,73,10.32,77.86c1.31,4.25,5.57,6.87,5.89,11.45.66,6.55-5.56,13.09-8.5,18.33-3.6,6.54-6.55,13.74-6.87,21.27-.6,6.93,2.77,10.15,6.69,13.5-2.28-2.73-5.13-7.29-4.73-12.74.65-8.95,3.71-16.14,8.51-24.22s6.11-10.69,5.89-15.7-6.55-10.47-3.49-17.46c2-4.67,5.55-11.2,7.71-17.23a20.62,20.62,0,0,0,1.39,8.29c.83,2.05,2.24,4.1,3.23,6.2L24.4,64.88c.37-2.51-.79-5.67-.87-8.29a16.55,16.55,0,0,1,1.3-7.36,14.46,14.46,0,0,1,5.68-6.17,67.5,67.5,0,0,1,6.29-4c-4.89,2.19-10.79,4.75-13.63,9.3.07-.55.12-1.08.14-1.59.21-7.42-.66-15.05,1.09-17.23.81-1,4.23-3.55,8.07-6.41,1.49.27,2.41,1,3.44,3.14.87,1.79,1,4,2,5.67s3.19,1.7,4.09,3.27a8.38,8.38,0,0,1,.39,4.31c-5,2.28-11.33,7-10.81,16.41l2.62,31.64S37.05,79.06,36,72.08,32.69,55.5,34.87,50s6.38-7.63,11.2-10.43c3.63-1.3,11-4.4,11-4.4l-3.91,1.07a45.21,45.21,0,0,0,11.71-6.66c-2.09.71-4.1,1.42-6.29,2.06C55.81,32.5,52.42,33,49.52,34a7.39,7.39,0,0,1,.15-1c-2.73-1.15-6.41,1.45-9.32-.25s.13-4.88,1.28-7.15a11.15,11.15,0,0,0,1.53-7,12.3,12.3,0,0,1,.77-4.71l.1-.1C48.17,9.47,60,2.49,67.37,8.81S75,21.69,75,21.69L76.1,16s-4.37-7-5.24-8.94-.22-4.58,1.31-3.93S76.1,6.85,76.1,6.85A57.48,57.48,0,0,1,86.45,7a29.81,29.81,0,0,1,5.62,6.44c2.21,3,9.13,3.56,8.94,8.29,0,.74-.09,1.38-.15,1.95a23.23,23.23,0,0,0-6.15-1.08c2,.65,4.07,1.35,6.06,2.15a6.8,6.8,0,0,0,.86,4,6.59,6.59,0,0,0,.44.72,45.58,45.58,0,0,0-18.56-3.34c8.73.22,18.77,5.67,18.77,5.67l.26-.26a1.07,1.07,0,0,1-.26.26c-1,.83-3.71.32-5,.92a14.76,14.76,0,0,1,.82,2.1c-1.43,0-2.9-.25-4.33-.4l4.8,7c2.35.12,4.46-.36,5-2.62.37-1.5-.82-3.73,0-5,0,0,9.65,5.9,14.45,10.92s13.53,16.58,13.53,16.58,13.61,15.91,15.18,33A46.55,46.55,0,0,0,137,64.77ZM109.13,33.41l.27.07c-3.52-2.64-5.8-4.53-6.6-7.94,5.1,2.22,9.81,5.18,13.27,9.72a113.21,113.21,0,0,1,6.65,9.55A53.66,53.66,0,0,0,109.13,33.41ZM36.8,39.06l.83-.38C37.36,38.79,37.08,38.92,36.8,39.06Zm-20,93.88s-3.93-9.6-1.09-18.11,6.76-17.23,6.11-25.3c0,0-2.18,10-5.46,14.4S10.87,118.54,12,123.56s4.8,11.56,4.8,11.56ZM21.56,117s.44,12.65,3.71,19.41,6.32,17.67,2,23.56c-2.94,4-9.55,8.24-13.75,10.53,2-.17,4.59-.41,6.78-.65,4.32-2.73,9.39-6.87,10.25-11.62,1.52-8.51-1.1-18.76-3.93-23.13S21.56,117,21.56,117ZM26,69.55l1,2.75A12,12,0,0,0,26,69.55Z"/><path class="cls-4" d="M25.43,151l.11.34c.82-8.18-1.63-8-4.42-18.49s-1.31-22.41-1.31-22.41c-3.65,14.07-1.23,23,.71,27.36-3.59-5.09-5-9-6.76-15.58-1.8-6.88,4.75-21.93,4.75-21.93s-8.84,9.17-8,21.11,6.54,13.91,10,21.1-3.76,12.44-3.76,12.44l-.06.05c.69,4.2-.51,8.54-2.4,12.55a3.82,3.82,0,0,0-.19.6c2.24-.71,9.35-9.6,9.35-9.6A22.52,22.52,0,0,0,25.43,151ZM20.14,96.51a18.25,18.25,0,0,0-1-16A60,60,0,0,1,20.14,96.51Zm12,10.14.81-7.85s3.44-17.51,1.31-29.45c0,0-2.94-14.56-2.29-17.51,0,0-2.12,7.86-.65,15.22S32.09,99.46,32.09,106.65ZM98.51,28.12s14.56,6.87,28.8,24.54a40.19,40.19,0,0,0,5.29,6c-2.64-5.11-4-11.08-5.13-15.84-1.31-5.57-4.91-19.64-4.91-19.64l-.16-.16a69.87,69.87,0,0,1,1.82,21A81.74,81.74,0,0,0,98.51,28.12ZM73,29.92c-3.6,2.94-13.09,3.44-13.09,3.44,4.25-.82,11.62-5.9,11.62-5.9l-.17-3.1C70,28.61,56.63,33.68,51.88,34.66s-11.61,5.89-11.61,5.89C45.66,37.12,56,36.3,56,36.3,68.9,35.65,73,29.92,73,29.92ZM132.6,74.59C127.79,64,120,53.7,118.25,51.4a3.5,3.5,0,0,0-.38-.48c-1.8-1.92-7.24-9.32-12.56-11-2.34-3.39-18.25-9.34-18.25-9.34s-4.74.66-4.58-.16-2.78-3.6-4.91-4.58,1.8-3.76,2.29-6.38-3.27-5.4-5.24-7.36-3.43-7.37-4.25-7-.49,2-.49,2c5.89,5.24,5.56,11.13,4.09,15.38s3.11,5.24,3.11,5.24a18.13,18.13,0,0,1-2.46,4.91l-5.07,8a15,15,0,0,0,7.2,5.4c4.58,1.8,20.62,1.15,20.62,1.15s1.31-.49,2.89-1.28a66.1,66.1,0,0,0-1.47,11.42L92.73,129l1.43.24s-3.67,17.4,10.08,29.45c0,0-2.73-3.05-2.51-6.32,0,0,3.71-.88,8.18,3.49l-.68.21s-2.7-2-4.58-1.47A4.12,4.12,0,0,0,109,158a4.72,4.72,0,0,0,5.08-4.09c.24-1.4-.82-5.24-.82-5.24s-2.54-5.07-2.95-7.36.17-6.22,1.47-7.2,1.4-.82,5.9-1.47,7.28-2.62,8.67-7.45,1.63-8.26-.9-15.3c0,0-2.87-4.17-2.1-15.08s1.74-23.88-.66-31.95c0,0-.31-1-.78-2.5,3.37,3.08,8.31,15.15,8.31,15.15,2,9.16.11,15.7-.76,24.21S135,113.31,135,113.31c.22,4.36-2.18,12.43-4.91,18.1s-10.58,6.66-10.58,6.66c-6.55,3.38-3.49,9.81-2.73,12.43s2,5.56.11,9.6-6.22,2.94-6.22,2.94l0,.08a46.39,46.39,0,0,0,7,3.09h1.62a12.22,12.22,0,0,0,3.16-.51l.11,0c8.29-2.62,9.82-17.23,10.47-18.76s1.1-7,1.2-12.43S135.54,120,135.54,120c1.09-2.84,3.49-14.62,3.49-14.62C141.32,88.88,132.6,74.59,132.6,74.59ZM56.46,38.26c-5.23-.81-12.92,4.91-12.92,4.91C37,48.08,38.3,51.68,38.3,54s2.13,12.76,2.13,12.76L41.9,79l2.29.66s.49-6.06,1.31-6.38,6.87-8.18,8-10,6.22-15.06,6.22-15.06S61.7,39.08,56.46,38.26Zm-5.89,70.68-6.87-7.69-3.11-.81-5.72,3.92s-2.13,14.07.82,22.75c0,0,3.27,10,5.88,13.9a64.88,64.88,0,0,1,5,10.09c4-13.42,2.32-29.39,2.32-29.39L57,123.06C55.05,117.7,50.57,108.94,50.57,108.94Zm-18,62.11c2.48.4,5,.83,7.12,1.22,1.49-2.91,6.16-13.33,2.83-24.06C42.5,148.21,42.5,166.72,32.55,171.05Zm7.55-20.22c-1.31-11.35-9.16-19.85-10.69-29.67,0,0,0,7.42,5,17.89,4.9,10.23,4,23.79-12.56,30.72a69.39,69.39,0,0,1,7.82.83C32.59,168.22,41.19,160.28,40.1,150.83Z"/><path class="cls-5" d="M44.71,146c-1.9-3.82-4.25-7.4-6-11.3A50.22,50.22,0,0,1,34.93,122a59.14,59.14,0,0,1-.66-10,45.75,45.75,0,0,1,.29-4.68,16.9,16.9,0,0,1,1-5s-.05-.1-.08,0a16.1,16.1,0,0,0-1.16,5.55,53.69,53.69,0,0,0-.36,6.59,56.35,56.35,0,0,0,1.63,13.18,50.57,50.57,0,0,0,4.8,11.76c2,3.75,4.33,7.38,5.72,11.44a27.28,27.28,0,0,1,1.3,10.46c-.24,4.05-1.26,8-1.91,12,0,.21.28.3.33.09,1-5,2.41-10,2.23-15.19A29.61,29.61,0,0,0,44.71,146ZM21.83,133.81c-3.09-10.4-2.72-21.56-.3-32,0-.1-.13-.14-.15,0a64,64,0,0,0-1.25,27.09,50,50,0,0,0,1.67,6.72c.68,2.13,1.65,4.14,2.37,6.25a21.44,21.44,0,0,1,1,10.91c-1.55,8-8.52,13.59-14.87,18-.15.1,0,.33.13.24,5.93-3.73,11.89-8.55,14.46-15.28a19.25,19.25,0,0,0,.91-9.69C25.13,141.69,23,137.9,21.83,133.81Zm-6.16-25.94c-2.19,6.7-3.18,13.78-.74,20.55A29.47,29.47,0,0,0,17.09,133c1,1.71,2.18,3.25,3.29,4.87,2.18,3.17,4.38,6.81,5,10.68,0,0,.08,0,.07,0-.63-4.7-3-8.75-5.7-12.55a29.3,29.3,0,0,1-5.37-12c-1.66-9.56,3.08-18.65,5.82-27.52,1-3.11,1.9-6.39,1.41-9.66A26.32,26.32,0,0,0,19,79.4a23.49,23.49,0,0,1-2.63-7.78c-.35-3.61,1-7.24,2.56-10.42,0-.07-.06-.12-.09-.06-1.82,3.57-3.23,7.48-2.58,11.54.54,3.3,2.34,6.22,3.65,9.25a18.84,18.84,0,0,1,1.53,5.3,17.23,17.23,0,0,1-.82,6.53C19.25,98.57,17.21,103.14,15.67,107.87ZM146.21,84.73A47.31,47.31,0,0,0,142.31,73a56.65,56.65,0,0,0-6.64-10.29Q134.35,61,133,59.28c-3.51-6.43-4.77-13.94-6.51-21-1.24-5-2.52-10.07-3.8-15.1,0-.18-.34-.37-.47-.49-.4-.37-.81-.72-1.22-1.07-1.13-1-2.29-1.88-3.46-2.78a112,112,0,0,0-10.05-7,51.14,51.14,0,0,0-10.72-5A75.45,75.45,0,0,0,85.09,4.06a43.91,43.91,0,0,0-6.16-.64A13.48,13.48,0,0,1,76,3.32,7.88,7.88,0,0,1,73,1.41,3.08,3.08,0,0,0,71.19.49c-.62,0-1.06.62-1.34,1.07a12.6,12.6,0,0,0-1.4,4.07,22.55,22.55,0,0,0-7.21-2.32A17.32,17.32,0,0,0,50,6.18a97.54,97.54,0,0,0-8.92,7.33c-3.89,3.32-8,6.26-12,9.5a90.88,90.88,0,0,0-7,6.39c-.16.15-.3.31-.45.46a4.64,4.64,0,0,0-.58,2,26.69,26.69,0,0,0-.17,6.8,64.34,64.34,0,0,1,.33,7.07A23.84,23.84,0,0,1,19.62,53a53.86,53.86,0,0,1-3.38,7.22c-1.14,2.1-2.28,4.19-3.36,6.33-1.79,3.56-4.22,8.3-2.49,12.32,1.53,3.56,5,6.18,5.51,10.19.51,4.38-2,8.47-4.26,12-1.15,1.77-2.38,3.48-3.5,5.26a59.21,59.21,0,0,0-3.27,6.27A46.83,46.83,0,0,0,.73,126.51c-.43,3.6-.44,7.22,1.4,10.45,1.48,2.61,3.89,4.55,6.15,6.45,2.69,2.28,5.37,4.74,7,7.94,2.59,5.15,1.15,11.13-1.1,16.11-.06.13.14.25.2.12,1.93-4,3.23-8.44,2.47-12.92-.64-3.85-3.07-7-5.83-9.58-2.26-2.14-4.82-4-6.86-6.31a12.86,12.86,0,0,1-3-9.37,44.2,44.2,0,0,1,3.48-14.66,68.19,68.19,0,0,1,6.72-12.07c2.3-3.4,4.7-7,5.2-11.21a9.73,9.73,0,0,0-.87-5.37,32.28,32.28,0,0,0-3.13-4.73A16.53,16.53,0,0,1,11.08,79a7.25,7.25,0,0,1-.62-3.59,18.83,18.83,0,0,1,2.18-7c1-2.12,2.07-4.21,3.22-6.26a74,74,0,0,0,3.49-6.88,33.4,33.4,0,0,0,2.16-7,26.14,26.14,0,0,0,.14-6.73,67.55,67.55,0,0,1-.34-7.11A16.49,16.49,0,0,1,21.8,31a1.65,1.65,0,0,1,.39-.91c5.52-5.74,12.12-10.16,18.16-15.29,3.12-2.64,6.1-5.51,9.43-7.89A17.33,17.33,0,0,1,61.41,3.69,22.65,22.65,0,0,1,68.49,6a.17.17,0,0,0,.24-.1C69,4.57,69.81-.08,71.89,1c1.2.61,2,1.74,3.29,2.32a8.5,8.5,0,0,0,3.75.38A51.68,51.68,0,0,1,88.6,5a64.93,64.93,0,0,1,11.75,3.46,61.21,61.21,0,0,1,10.89,6.16c3.09,2.1,6.1,4.35,9,6.73.45.37.89.75,1.32,1.13.18.15.85.59.9.81.13.49.26,1,.38,1.48q1.07,4.15,2.11,8.31,1.5,6,2.93,12a59.87,59.87,0,0,0,4.59,13.6,182.16,182.16,0,0,0-14.28-16c-5.7-5.6-12-10.9-19.16-14.48,0,0,0,0,0,0,7.81,4,14.47,10,20.49,16.26a251.5,251.5,0,0,1,17.1,20.33A47.8,47.8,0,0,1,146.21,88a39.22,39.22,0,0,1-.51,12.51,33.62,33.62,0,0,1-1.82,5.88c-.88,2.12-2.1,4.06-3.11,6.11a41,41,0,0,0-3.67,12.26c-.59,4.11-.72,8.28-1,12.43-.52,7.17-1.65,14.63-5.27,21-2.47,4.3-6.38,7.71-11.52,7.91-.16,0-.16.26,0,.25,6.67-.25,10.92-5.55,13.38-11.25,2.94-6.82,3.55-14.21,4-21.54A80.47,80.47,0,0,1,138.2,121a38.13,38.13,0,0,1,2.09-6.44c.9-2.13,2.12-4.08,3.15-6.15C147.06,101.08,147.68,92.65,146.21,84.73ZM118.67,52.11a108.56,108.56,0,0,1,7.63,11.34,114.37,114.37,0,0,1,6.4,12.09,94.24,94.24,0,0,1,5,13.41,42.18,42.18,0,0,1,1.23,14.46c-.38,5-1.86,9.79-3,14.68a74.11,74.11,0,0,0-1.73,14.77c0,2.31-.07,4.62-.23,6.93-.09,1.28-.24,2.55-.44,3.82-.16,1-.45,2-.54,3,0,.05.06.05.07,0,.12-1.18.48-2.34.68-3.51s.32-2.38.43-3.57c.21-2.51.26-5,.36-7.53a77.66,77.66,0,0,1,2.18-15.25c1.14-4.72,2.44-9.3,2.76-14.17a41.83,41.83,0,0,0-1.36-14A103.69,103.69,0,0,0,126.9,63.42c-4.48-7.46-9.48-14.83-16.35-20.29A31.41,31.41,0,0,0,98,36.93s0,0,0,0C106.56,39.19,113.33,45.33,118.67,52.11Zm-6.18,81.47a7,7,0,0,1,3.41-.64,15.79,15.79,0,0,0,4.58-.8c3.1-1.14,4.88-3.92,6-6.89a20,20,0,0,0,.21-11.86c-1-4-2.67-7.88-3.08-12a39.65,39.65,0,0,1,0-5.87c.09-2,.22-4.1.36-6.14.27-4.19.55-8.39.55-12.6,0-8.43-1.45-16.8-5.81-24.12a.09.09,0,1,0-.15.09,42.83,42.83,0,0,1,4.69,13.82,71.79,71.79,0,0,1,.66,14.13c-.16,4.67-.57,9.32-.81,14a47,47,0,0,0-.07,6.71,30.25,30.25,0,0,0,1.23,5.86c1.18,4,2.77,7.86,2.9,12.05.12,3.76-1.11,8.29-3.88,11-2.54,2.47-5.87,2.27-9.12,2.65a3.72,3.72,0,0,0-2.42,1.09c-1,1.05-1.16,2.63-1.43,4-.58,2.94.55,5.76,1.74,8.39s2.82,5.92,1.5,8.77a5.22,5.22,0,0,1-5.93,2.55,4,4,0,0,1-2.62-2.14c-.12-.25-.15-.56-.28-.79-.25-.45,1.27-.12,1.46-.08a8.26,8.26,0,0,1,2.95,1.43s.07,0,0-.05a8.17,8.17,0,0,0-4.59-1.65s0,0,0,.05a4.39,4.39,0,0,0,5.13,3.53,5.07,5.07,0,0,0,4.53-4.63c.28-3.53-2-6.69-3.11-9.88a11.47,11.47,0,0,1-.49-6C110.82,136.11,111.21,134.41,112.49,133.58Zm3.44,9.75c.22-3,2.55-4.67,5.07-5.79.16-.07,0-.33-.11-.27-2.67.94-5.17,2.75-5.51,5.75-.32,2.77.73,5.54,1.45,8.17.78,2.84,1.42,5.95,0,8.68a5.38,5.38,0,0,1-3.19,3,6.48,6.48,0,0,1-4.09-.41,13.39,13.39,0,0,1-7.09-7.16,8.74,8.74,0,0,1-.62-2.29c-.06-.43-.2-.73.32-.73a9,9,0,0,1,1.93.24,11.26,11.26,0,0,1,6,3.64c.07.08.19,0,.12-.11a11.61,11.61,0,0,0-8.57-4c-.06,0-.1,0-.1.1-.19,2.8,1.69,5.61,3.55,7.53s4.48,3.56,7.23,3.58,4.65-2,5.5-4.45c1-2.68.17-5.65-.56-8.28C116.6,148.19,115.75,145.78,115.93,143.33Zm6.35-5.43c6.54-2.26,9.8-8.79,11.43-15.08a49.58,49.58,0,0,0,1-5.11c.11-.74.2-1.49.29-2.23,0-.39.08-.77.11-1.16a4.1,4.1,0,0,0,.13-1.19c-.09-.31-.59-.67-.81-.92s-.68-.78-1-1.19a18,18,0,0,1-1.77-2.71A15.55,15.55,0,0,1,130,103c-.58-4.42.46-8.81.9-13.19a67.83,67.83,0,0,0-.78-16.53,0,0,0,0,0-.08,0c.26,5.13.94,10.16.53,15.31-.32,4.18-1.4,8.27-1.29,12.49a17,17,0,0,0,3.39,9.89,19.42,19.42,0,0,0,1.94,2.21c.41.41,0,2-.06,2.49-.19,1.74-.47,3.48-.82,5.19-1.41,6.76-4.56,14.2-11.55,16.72C122,137.65,122.08,138,122.28,137.9ZM70.82,32c-3.88,2.54-8.33,3.44-12.86,4-4.22.49-8.51.73-12.54,2.19-6.35,2.29-12.7,6.38-13.72,13.58a20.12,20.12,0,0,0,.14,5.48c.34,2.53.82,5,1.3,7.53s1,5.28,1.35,8a45.81,45.81,0,0,1,.14,7.68c-.45,10.34-2.81,20.52-2.62,30.9a63,63,0,0,0,3.08,17.52c1.84,5.86,4.34,11.47,6.64,17.15,0,0,0,0,0,0C38.34,136.83,34.48,127.69,33,118c-1.54-10.33.42-20.67,1.53-30.94.53-5,1-10.12.3-15.11-.72-5.18-2-10.26-2.64-15.45a14.79,14.79,0,0,1,2-10.25c2-3,5.15-5,8.36-6.52a33.2,33.2,0,0,1,6.9-2.4,76.35,76.35,0,0,1,7.68-1.11c4.8-.54,9.66-1.35,13.72-4.13C71,32.06,70.91,31.91,70.82,32Zm-11,6.48a16.18,16.18,0,0,0-9.28.74,23.35,23.35,0,0,0-8.79,5.29A13.36,13.36,0,0,0,39,48.09a10,10,0,0,0-.91,4.61c0,4.11,1.53,8,1.93,12.07,0,.06.11.07.1,0C40,61,38.94,57.4,38.7,53.67a10.77,10.77,0,0,1,.66-5A12.35,12.35,0,0,1,42,45a22.34,22.34,0,0,1,8.47-5.22,18.87,18.87,0,0,1,9.26-1.08C59.88,38.76,60,38.5,59.78,38.45ZM77.44,27.32c-1.64-.59-3.65-1.4-3.58-3.45,0-1.57.87-3.12,1.24-4.63,1.08-4.51-1.83-9.32-5.16-12.13-.08-.07-.21,0-.12.13a17.49,17.49,0,0,1,4.64,6.9,9.4,9.4,0,0,1,.47,4.3,16.78,16.78,0,0,1-.75,2.69c-.41,1.23-1.05,2.76-.47,4.05a3.63,3.63,0,0,0,1.49,1.54,9,9,0,0,0,1.41.65c.37.14.67.11.49.57s-.25.75-.42,1.12c0,.09.1.17.14.08a11.45,11.45,0,0,1,.71-1.6A.15.15,0,0,0,77.44,27.32Z"/><path class="cls-6" d="M119.29,83c-.22-5,.87-12.22-.87-20.08s-8.73-19-11.13-21.37S99,36.74,95.08,35.65a82.55,82.55,0,0,1-9.6-3.71c-1.75,1.31-6.77,1.31-6.77,1.31l-.21-1.53L76.75,33.9l-2,.44a18.65,18.65,0,0,1,.87-3.71c-3,6.11-19,7.63-19,7.63a12.36,12.36,0,0,1-2.18,4.15l-2,2a9.77,9.77,0,0,1-3.27,5L50.79,49a14.09,14.09,0,0,1-2,3.06,52.75,52.75,0,0,0-3.06,5.89l1.09-.66c-1.3,3.93-6.32,10.91-6.32,10.91s-.87-5.89-.22.87A49.35,49.35,0,0,1,37.7,88.44a27.52,27.52,0,0,0-.87,3.29v0a124.08,124.08,0,0,0-1.75,13.06c.66,2.18,4.37,3.71,6.11,1.53a67.9,67.9,0,0,0,3.06,13.09c2,5.37,18.11,14.83,26,20.72S88.1,145.37,94,144.72s7.85-6.76,14.83-14.4,8.07-12.87,8.73-17.23,2.83-12.87,2.83-12.87C122.78,93.46,119.51,88,119.29,83Z"/><path class="cls-7" d="M90.93,110.69c-6.38,0-11.56,3.52-11.56,7.85s5.18,7.86,11.56,7.86,11.56-3.52,11.56-7.86S97.32,110.69,90.93,110.69Z"/><path class="cls-8" d="M63.21,116.81c6-5,4.87-16.17-2.47-25-6.4-7.67-15.44-11-21.61-8.42a46.56,46.56,0,0,1-1.43,5,27.52,27.52,0,0,0-.87,3.29v0a114.55,114.55,0,0,0-1.66,12.1,27.56,27.56,0,0,0,1.67,3,3.35,3.35,0,0,0,4.35-.48s.39,3.17,1.28,7C49.46,119.42,58.1,121.07,63.21,116.81Z"/><path class="cls-9" d="M120.38,100.22c2.4-6.76-.87-12.22-1.09-17.23,0-.58,0-1.19,0-1.82-4.9,1.83-9.72,6.45-12.72,12.82-4.88,10.37-3.13,21.46,3.91,24.78a10.26,10.26,0,0,0,5.45.88,29.39,29.39,0,0,0,1.65-6.56C118.2,108.73,120.38,100.22,120.38,100.22Z"/><path class="cls-10" d="M53,67.06s-.43-19.63,8.29-25.31,34-4.14,42.54.22c0,0,10.26,5.24,11.78,26.18L99.22,76.44S73.7,75.79,73,76Z"/><path class="cls-11" d="M49.48,82.55s-5-5.89-1.52-11.78c0,0,3.92-5.89,14-3.27a100.91,100.91,0,0,0,17.67,3s2,13.74-5.89,17.67l-12.22-2.4Z"/><path class="cls-12" d="M95.51,88S92,79.93,94.64,74.26l5.45-3.05,7.64-3.71,4.14-.44,3.71,1.31,2.18,2.18s2,7.85-2.18,12.22c0,0-4.8,3.71-5.67,3.92Z"/><path class="cls-13" d="M51.88,79.49s-5.32-1.28-4.18-8.25c-3,5.73,1.78,11.31,1.78,11.31l12,3.27,9.1,1.79.28-2.23S66.28,77.09,51.88,79.49Z"/><path class="cls-14" d="M115.58,82.77c4.15-4.37,2.18-12.22,2.18-12.22l-.49-.49.06.27c1.53,7.2-3.71,10-3.71,10-11.34-3.5-15.93,4.79-15.93,4.79l1.19,2.54,11-1C110.78,86.48,115.58,82.77,115.58,82.77Z"/><path class="cls-15" d="M43.16,73.39c1.09-7.2,5.89-7.86,7.41-15.27s6.11-18.77,17-20.73,31.41,0,37.52,3.49c0,0,12.22,12.44,12.22,28.8,0,0,1,5,2,8.4a59,59,0,0,0-.91-15.17c-1.75-7.85-8.73-19-11.13-21.37S99,36.74,95.08,35.65a82.55,82.55,0,0,1-9.6-3.71c-1.75,1.31-6.77,1.31-6.77,1.31l-.21-1.53L76.75,33.9l-2,.44a18.65,18.65,0,0,1,.87-3.71c-3,6.11-19,7.63-19,7.63a12.36,12.36,0,0,1-2.18,4.15l-2,2a9.77,9.77,0,0,1-3.27,5L50.79,49a14.09,14.09,0,0,1-2,3.06,52.75,52.75,0,0,0-3.06,5.89l1.09-.66c-1.3,3.93-6.32,10.91-6.32,10.91s-.87-5.89-.22.87a48.72,48.72,0,0,1-2.09,17.81l.13.08A43.18,43.18,0,0,0,43.16,73.39Z"/><path class="cls-16" d="M54.66,115.82c-1.8-2.95-10.79-11.29-14.07-16.69-2.57-4.26-2.51-10-2.37-12.29-.17.55-.34,1.09-.52,1.6a27.52,27.52,0,0,0-.87,3.29v0a124.08,124.08,0,0,0-1.75,13.06c.66,2.18,4.37,3.71,6.11,1.53a67.9,67.9,0,0,0,3.06,13.09c2,5.37,18.11,14.83,26,20.72.15.12.32.23.47.34l-.64-.61C61,131.52,56.46,118.76,54.66,115.82Zm60.7-8.35c-4.09,6.22-4.9,14.4-6.54,18.16-1.15,2.65-3.11,7.24-4.17,9.73,1.19-1.57,2.54-3.26,4.17-5,7-7.63,8.07-12.87,8.73-17.23s2.83-12.87,2.83-12.87a15.18,15.18,0,0,0,.85-4.16C120.47,98.72,118.77,102.3,115.36,107.47Z"/><path class="cls-17" d="M79.91,110.58a8.82,8.82,0,0,1,4.37-1.2c2.51,0,3.92,2.62,7.52,2.07s5-2.4,5-2.4,1.75,0,2.07,1.2c0,0-.54,1.86-1.85,2.18a6.83,6.83,0,0,1-6.44,4.15c-4.9,0-8.94-2.07-10.14-4.58Z"/><path class="cls-18" d="M91.18,109.5s-4.21-.91-3.87-4.61S87,89.25,87,89.25l6.66.08s.07,9.51.91,11.86S98,109.48,91.18,109.5Z"/><path class="cls-6" d="M86.9,103.54s4.74-2.78,9-.32l-.49-1.47a12.34,12.34,0,0,0-9,1Z"/><path class="cls-19" d="M79.86,108.62c.69-2.55,3.3-4.15,3.93-6.88.56-2.46.18-5.64,0-8.18,0-1,.22-3.72-.85-4.1S79.62,92,79,92.79a17.52,17.52,0,0,0-3.93,9.45c-.16,3.18,1.36,6.64,4.59,7.52Z"/><path class="cls-20" d="M98.68,107.64c-.41-1-1.46-1.59-1.93-2.5a14.38,14.38,0,0,1-1.35-3.89,51.22,51.22,0,0,0-1-7.19c2.07.43,5.21,5.3,5.69,7.32.68,2.9-.49,4.93-1.27,7.56Z"/><path d="M82.89,111.07a3.1,3.1,0,0,1,3.11.41A2.49,2.49,0,0,1,82.89,111.07Z"/><path d="M94.75,111.64l1.14-.81,1.15.08S96.55,112.22,94.75,111.64Z"/><path class="cls-21" d="M119.48,83c-.22-4.23.26-8.46.07-12.69a38.12,38.12,0,0,0-2.62-12.62,69.19,69.19,0,0,0-5.18-10.19,29.3,29.3,0,0,0-4.58-6.33,18.31,18.31,0,0,0-4.52-2.84A45.39,45.39,0,0,0,97,36.05c-1.8-.6-3.63-1.08-5.41-1.74s-3.3-1.31-4.92-2l-1.14-.51a.19.19,0,0,0-.18,0c-1.46,1-3.59,1.13-5.31,1.24l-1.21,0v0c0-.18,0-.35-.07-.53l-.12-.84a.19.19,0,0,0-.3-.08c-.54.69-1.09,1.37-1.63,2.05-.11.13-.06.1-.1.11L76,33.9l-1,.22a13.83,13.83,0,0,1,.85-3.45c.06-.18-.23-.3-.32-.13a9.45,9.45,0,0,1-4.3,3.77A30.72,30.72,0,0,1,64.9,36.6a53.29,53.29,0,0,1-8.22,1.5.17.17,0,0,0-.15.12A15.42,15.42,0,0,1,55.34,41a15.06,15.06,0,0,1-2.81,3.16,3.3,3.3,0,0,0-.47,1.16,9.56,9.56,0,0,1-1.16,2.13,8.2,8.2,0,0,1-1.71,1.82c-.13.1-.06.33.12.28l1.19-.35c-.78,1.59-2,2.92-2.83,4.48q-1.08,2-2,4.16c0,.12.07.27.19.19l.76-.46a36.11,36.11,0,0,1-3.55,6.63c-.78,1.23-1.6,2.45-2.44,3.64,0-.33-.1-.66-.16-1s-.05-1-.29-1.17a.13.13,0,0,0-.12,0c-.12.08-.08.3-.08.42,0,.78.12,1.55.19,2.33a43.74,43.74,0,0,1,.1,7.24,54.41,54.41,0,0,1-2.71,13,50.81,50.81,0,0,0-1.79,9.4c-.28,2.19-.51,4.4-.69,6.61a1.91,1.91,0,0,0,.49,1,4.26,4.26,0,0,0,1.81,1.35,3.28,3.28,0,0,0,3.75-.64,70.55,70.55,0,0,0,1.42,7.76,30.45,30.45,0,0,0,1.74,5.67,10.22,10.22,0,0,0,1.86,2.57,48.22,48.22,0,0,0,7.19,6.1c3,2.26,6.2,4.39,9.33,6.52,2.89,2,5.68,4.08,8.58,6a26.45,26.45,0,0,0,11.48,4,47,47,0,0,0,10.6-.07,9.85,9.85,0,0,0,3.9-1.12,12.89,12.89,0,0,0,3.32-2.88c2.82-3.22,5.14-6.84,8-10a40.63,40.63,0,0,0,7.16-10.28,29.21,29.21,0,0,0,2.07-7.68c.51-3.32,1.32-6.6,2.1-9.85.66-2.73,1.6-5.39,1.59-8.22C121.44,90.83,119.69,87,119.48,83Zm.2,19.24c-.79,3.24-1.57,6.49-2.15,9.78a38,38,0,0,1-1.9,7.8,36.2,36.2,0,0,1-7.16,10.62c-2.92,3.21-5.27,6.84-8.07,10.13a13.41,13.41,0,0,1-3.52,3.07,11.12,11.12,0,0,1-4.47,1.07,44.19,44.19,0,0,1-11.08-.21,26.25,26.25,0,0,1-11.59-4.92c-5.84-4.31-12-8.09-17.8-12.49a32.94,32.94,0,0,1-6.65-6.15,13.13,13.13,0,0,1-1.76-4.17c-.62-2.05-1.11-4.14-1.53-6.24-.27-1.39-.53-2.79-.7-4.19,0-.13-.23-.13-.21,0s0,0,0,.06c-1.42,1.54-3.74,1-5.15-.27a2.29,2.29,0,0,1-.75-2.31q.39-4.4,1.08-8.75c.12-.8.26-1.59.42-2.38,0,2,1,3.92,1.7,5.78a8.39,8.39,0,0,1-1.11-.67s-.08,0,0,0c.4.35.89.55,1.27.92a.1.1,0,0,0,.16-.09,34.55,34.55,0,0,0-1.11-3.3,13.22,13.22,0,0,1-.67-3.63c.11-.52.23-1,.36-1.54.42-1.67,1-3.28,1.5-4.94a49.39,49.39,0,0,0,1.82-13.67c0-1.46-.18-2.92-.3-4.38a1,1,0,0,1,0-.17c.06.38.11.76.16,1.14,0,.12.17.11.23,0,1-1.32,1.85-2.68,2.73-4.06A33.91,33.91,0,0,0,47,57.28a.14.14,0,0,0-.2-.16l-.71.42c.55-1.19,1.13-2.38,1.74-3.55.91-1.73,2.29-3.17,3.09-5,0-.12,0-.26-.17-.22l-.84.24a11.59,11.59,0,0,0,1.26-1.45,10.45,10.45,0,0,0,1.2-2.2c.1-.27.15-.79.34-1l.62-.62a18.46,18.46,0,0,0,1.82-1.93,10.14,10.14,0,0,0,1.2-2.25q.24-.59.45-1.2l.19,0A45.29,45.29,0,0,0,70.47,35,12.31,12.31,0,0,0,75.1,31.8a10.19,10.19,0,0,0-.49,2.54.17.17,0,0,0,.22.16l1.22-.26c.22-.05.7-.06.85-.25l1.48-1.85c.06.39.11.77.16,1.15a.18.18,0,0,0,.17.13,25.86,25.86,0,0,0,2.92-.18,16.47,16.47,0,0,0,2.1-.37,8.36,8.36,0,0,0,1-.33c.1,0,.85-.36.66-.44a82,82,0,0,0,7.93,3.19c1.82.62,3.66,1.1,5.46,1.77a37.86,37.86,0,0,1,5.81,2.71,12,12,0,0,1,3.26,2.66,36.84,36.84,0,0,1,2.38,3.34,74.85,74.85,0,0,1,5.44,9.89A38.48,38.48,0,0,1,119,68.21c.41,4.43,0,8.86,0,13.29,0,4,1.44,7.67,1.89,11.58a16.09,16.09,0,0,1-.76,7.09C120,100.83,119.85,101.55,119.68,102.23Z"/><path class="cls-22" d="M80.15,110.75a7,7,0,0,1-.08-3.28s-.07,0-.09,0a5.45,5.45,0,0,0-.21,3.56,4.25,4.25,0,0,0,2.7,2.21s.06,0,0-.06A5.11,5.11,0,0,1,80.15,110.75Zm2,.79s0,.08,0,0c1.47-1.42,3.32-.11,4.86.38.09,0,.16-.09.09-.14C85.73,110.67,83.48,110.08,82.13,111.54Zm12.75,0a6.94,6.94,0,0,1-3.49,1.39,7.82,7.82,0,0,1-4-.71s-.07,0,0,.06c2.22,1.12,5.74,1.35,7.59-.64C95,111.56,94.94,111.46,94.88,111.51Zm.88-.74a7.47,7.47,0,0,0,1.82-2.29s0-.12-.09-.07c-.62.75-1.12,1.58-1.79,2.3A0,0,0,1,0,95.76,110.77Zm1.87.2a1.61,1.61,0,0,0-2.28.21c-.07.07,0,.17.11.11a1.61,1.61,0,0,1,2-.1C97.6,111.26,97.75,111.08,97.63,111Zm.93-4c0-.06-.12,0-.11,0a10.7,10.7,0,0,1,.37,2.82A3.05,3.05,0,0,1,97,112.47c-.09,0,0,.18.06.15C99.3,111.81,99.79,108.86,98.56,107Z"/><path class="cls-23" d="M72,124.16a26.94,26.94,0,0,0,12.43,8s8.18,2.29,12.44-1.47a21.11,21.11,0,0,0,3.27-4.26,19.61,19.61,0,0,1,3.11-4.09s-3.93.82-4.58.82H88.37c-.66,0-9.33-.33-9.33-.33Z"/><path class="cls-24" d="M98.68,123.18H88.37c-.66,0-9.33-.33-9.33-.33l-7,1.31a18.77,18.77,0,0,0,1.9,2H74s20.89,1.13,27.15-1.24a23.71,23.71,0,0,1,2.14-2.52S99.33,123.18,98.68,123.18Zm-18.33,7.36v0a25,25,0,0,0,4.1,1.62s8.18,2.29,12.44-1.47A26.83,26.83,0,0,0,99.21,128a11.39,11.39,0,0,0-1,.77C92.13,133.81,80.35,130.54,80.35,130.54Z"/><path class="cls-25" d="M79.48,128.25a73,73,0,0,1,11-1,36.48,36.48,0,0,1,7.64.54s-2.73,2.95-8.4,2.95A23.65,23.65,0,0,1,79.48,128.25Z"/><path class="cls-24" d="M100.31,122c-1.09-.87-2-2-4.36-2.18a6.17,6.17,0,0,0-4.36,1.75,14.81,14.81,0,0,0-7.42-1.31c-3.93.43-8.07,2.18-11.34,2.83s-5.68-2.18-5.68-2.18a10.35,10.35,0,0,0,5.68,3.49c5,.44,10-.22,15,0h0l.19.21a17.21,17.21,0,0,0,3.27.87,18,18,0,0,0,1.87-.69l.53,0c2.29-.86,4.7-.43,6.92-1,2-.52,3.64-2.63,4.86-4.25C105.55,119.63,101.4,122.91,100.31,122Z"/><path class="cls-26" d="M87.88,124.35c-3.81-.41-7.71,0-11.53,0-1,0-1.92,0-2.88-.1a5,5,0,0,1-1.1,0c-.4-.12-.79-.26-1.17-.41a9.89,9.89,0,0,1-4-2.87s-.06,0,0,0a9.15,9.15,0,0,0,3.33,2.68c.3.15.61.27.92.39s1,.24,1.29.56c.12.15.62.13.8.15.53.06,1.06.06,1.6.08,2.13.08,4.27,0,6.4-.13s4.27-.12,6.41-.18C88,124.51,88,124.37,87.88,124.35Zm7.05-.5c.07-.08,0-.23-.12-.16a11.3,11.3,0,0,1-3,1.48c-1.18.41-2.6-.14-3.73-.56-.06,0-.08.06,0,.09a16.62,16.62,0,0,0,2.08.63c.75.18,1.06.42,1.78.19A6.17,6.17,0,0,0,94.93,123.85Zm10.6-4.23c-1.32,1.57-2.66,3.3-4.67,4-2.3.8-4.79.39-7.1,1.24,0,0,0,0,0,0a14.68,14.68,0,0,1,4.07-.54,10.48,10.48,0,0,0,3.4-.42c1.91-.82,3.2-2.6,4.33-4.28C105.58,119.62,105.55,119.6,105.53,119.62Z"/><path class="cls-27" d="M47.74,71s3.93-3.49,8.94-2.62,15.93,6.76,19.85,5.45a7.22,7.22,0,0,0,3.06-3.27,58.53,58.53,0,0,1-12.65-3.71C60.17,64,50.14,66,47.74,71Z"/><path class="cls-28" d="M118.2,71s-3-3.49-6.92-2.62-13.82,7.2-16.86,5.89A16.73,16.73,0,0,1,96,70.44a60.6,60.6,0,0,0,7.39-3.6C108.58,64,116.34,66,118.2,71Z"/><path class="cls-29" d="M50.37,80.82c5.76-5.64,15.2-3.48,21.35.22,0,0,0,0,0,0A24.21,24.21,0,0,0,61,77a14.51,14.51,0,0,0-5.93.53,9.53,9.53,0,0,0-4.69,3.27s0,0,0,0Z"/><path class="cls-30" d="M114.15,81.18A7.44,7.44,0,0,0,110.74,78a8.19,8.19,0,0,0-4.29-.58,15.2,15.2,0,0,0-8.21,4s0,0,0,0a15.39,15.39,0,0,1,7.79-3.58,8.61,8.61,0,0,1,8,3.35s0,0,0,0Z"/><path d="M68.82,89.16s-12.4,4.75-19.46-7a9.4,9.4,0,0,0,4.58.12c2.31-.6,11.08-4.63,17.41,3.88L66.56,88Z"/><path class="cls-31" d="M53.86,85.17c3.8,5.17,11.33,5.2,17.6,3.24l1.63,0-1-1.34C69,81,57.76,80.2,53.06,84.66Z"/><path class="cls-32" d="M66.28,85a4.59,4.59,0,0,0-.76-2.67,16.19,16.19,0,0,0-7.64-.11A4.58,4.58,0,0,0,57,84.75,4.63,4.63,0,0,0,59.65,89a14.87,14.87,0,0,0,2.32.45A4.62,4.62,0,0,0,66.28,85Z"/><path class="cls-33" d="M61.55,89a4.09,4.09,0,0,0,3.15-6.82,16.32,16.32,0,0,0-6-.09A4.08,4.08,0,0,0,61.55,89Z"/><path d="M64.07,85a2.41,2.41,0,1,1-2.34-2.48A2.4,2.4,0,0,1,64.07,85Z"/><path class="cls-34" d="M63.36,84.93a1.7,1.7,0,1,1-1.65-1.75A1.71,1.71,0,0,1,63.36,84.93Z"/><path class="cls-31" d="M62.7,82.91a1,1,0,1,1-2-.06,1,1,0,1,1,2,.06Z"/><path class="cls-31" d="M62.07,87.25a.49.49,0,0,1-.49.47.48.48,0,0,1-.46-.49.49.49,0,0,1,.49-.47A.48.48,0,0,1,62.07,87.25Z"/><path d="M72.17,87.1c-1.64-3.3-5.28-4.9-8.78-5.36-3.66-.49-7.64.27-10.35,2.9,0,0,0,.06,0,0,2.59-2.3,6.61-2.85,9.93-2.58,3.52.28,7.34,1.79,9.12,5C72.14,87.16,72.19,87.13,72.17,87.1Zm-.72,1.27c-1.55.33-3.06.77-4.64,1a20.18,20.18,0,0,1-4.85.07,11.53,11.53,0,0,1-8.08-4.26s0,0,0,0a11.3,11.3,0,0,0,7.66,4.32,18.46,18.46,0,0,0,4.87.06,18.78,18.78,0,0,0,5.09-1.13S71.48,88.37,71.45,88.37Z"/><path d="M99.16,89.14s10.44,5,16.63-6.61a6.78,6.78,0,0,1-3.89,0c-2-.64-9.33-4.87-14.84,3.5l4,1.94Z"/><path class="cls-31" d="M111.92,85.49c-3.31,5.08-9.7,5-15,2.84H95.54L96.37,87c2.74-6.06,12.33-6.59,16.24-2Z"/><path class="cls-35" d="M108.09,85a4.75,4.75,0,0,0-1.3-2.93,11.25,11.25,0,0,0-7.14,1.36,4.78,4.78,0,0,0-.37,2.24,4.65,4.65,0,0,0,2.82,4,13.77,13.77,0,0,0,3.4-.07A4.61,4.61,0,0,0,108.09,85Z"/><path class="cls-36" d="M104,89.41A4,4,0,0,0,107.58,85a4.12,4.12,0,0,0-1.67-3,11.36,11.36,0,0,0-5.44,1,4.13,4.13,0,0,0-.68,2.64A4,4,0,0,0,104,89.41Z"/><path d="M106,85.16a2.31,2.31,0,1,1-2.49-2.23A2.37,2.37,0,0,1,106,85.16Z"/><path class="cls-37" d="M105.31,85.21a1.63,1.63,0,1,1-3.25.25,1.63,1.63,0,1,1,3.25-.25Z"/><path class="cls-31" d="M104.48,83.26a.95.95,0,1,1-1-.91A1,1,0,0,1,104.48,83.26Z"/><path class="cls-31" d="M104.32,87.65a.46.46,0,1,1-.49-.44A.47.47,0,0,1,104.32,87.65Z"/><path d="M96.39,87a9.14,9.14,0,0,1,7.83-4.83c2.82-.19,6.22.45,8.37,2.8a0,0,0,0,0,0,0,9.52,9.52,0,0,0-8.73-3.14A9.2,9.2,0,0,0,96.35,87,0,0,0,1,0,96.39,87Zm.53,1.32a13.92,13.92,0,0,0,4.3,1.23,13.37,13.37,0,0,0,4.14.06,9.26,9.26,0,0,0,6.57-4.15s0,0,0,0A9.4,9.4,0,0,1,105,89.56a14.91,14.91,0,0,1-4.11-.18c-1.34-.25-2.61-.72-3.92-1.08C96.91,88.29,96.89,88.34,96.92,88.36Z"/></g></g></svg>