<svg xmlns="http://www.w3.org/2000/svg" xmlns:xlink="http://www.w3.org/1999/xlink" viewBox="0 0 136.05 170.64"><defs><style>.cls-1{fill:#783f30;}.cls-2{fill:#3f190f;}.cls-3{fill:url(#linear-gradient);}.cls-4{fill:url(#linear-gradient-2);}.cls-5{fill:url(#linear-gradient-3);}.cls-6{fill:url(#linear-gradient-4);}.cls-7{fill:url(#linear-gradient-5);}.cls-8{fill:url(#linear-gradient-6);}.cls-9{fill:url(#radial-gradient);}.cls-10{fill:url(#radial-gradient-2);}.cls-11{fill:url(#linear-gradient-7);}.cls-12{fill:url(#radial-gradient-3);}.cls-13{fill:url(#linear-gradient-8);}.cls-14{fill:url(#linear-gradient-9);}.cls-15{fill:url(#linear-gradient-10);}.cls-16{fill:url(#linear-gradient-11);}.cls-17{fill:url(#linear-gradient-12);}.cls-18{fill:url(#linear-gradient-13);}.cls-19{fill:url(#linear-gradient-14);}.cls-20{fill:#531f12;}.cls-21{fill:#41160e;}.cls-22{fill:url(#radial-gradient-4);}.cls-23{fill:#140805;}.cls-24{fill:url(#linear-gradient-15);}.cls-25{fill:url(#linear-gradient-16);}.cls-26{fill:url(#linear-gradient-17);}.cls-27{fill:url(#linear-gradient-18);}.cls-28{fill:url(#linear-gradient-19);}.cls-29{fill:url(#linear-gradient-20);}.cls-30{fill:url(#linear-gradient-21);}.cls-31{fill:#26120d;}.cls-32{fill:#fff;}.cls-33{fill:url(#linear-gradient-22);}.cls-34{fill:url(#linear-gradient-23);}.cls-35{fill:url(#linear-gradient-24);}.cls-36{fill:url(#linear-gradient-25);}.cls-37{fill:url(#linear-gradient-26);}.cls-38{fill:url(#linear-gradient-27);}</style><linearGradient id="linear-gradient" x1="37.08" y1="131.64" x2="34.14" y2="151.6" gradientUnits="userSpaceOnUse"><stop offset="0"/><stop offset="1" stop-color="#2d4753"/></linearGradient><linearGradient id="linear-gradient-2" x1="45.19" y1="56.41" x2="13.12" y2="27.61" xlink:href="#linear-gradient"/><linearGradient id="linear-gradient-3" x1="45.47" y1="54.85" x2="14.38" y2="26.93" gradientUnits="userSpaceOnUse"><stop offset="0"/><stop offset="1" stop-color="#17242a"/></linearGradient><linearGradient id="linear-gradient-4" x1="46.52" y1="54.92" x2="14.46" y2="26.12" gradientUnits="userSpaceOnUse"><stop offset="0" stop-color="#0c1417"/><stop offset="1" stop-color="#436270"/></linearGradient><linearGradient id="linear-gradient-5" x1="45.2" y1="56.39" x2="13.14" y2="27.59" xlink:href="#linear-gradient"/><linearGradient id="linear-gradient-6" x1="81.48" y1="162.2" x2="81.48" y2="116.55" gradientUnits="userSpaceOnUse"><stop offset="0" stop-color="#783f30"/><stop offset="1" stop-color="#572619"/></linearGradient><radialGradient id="radial-gradient" cx="16.05" cy="-474.08" r="64.49" gradientTransform="matrix(0.26, 0.09, -0.12, 0.36, 73.87, 264.99)" gradientUnits="userSpaceOnUse"><stop offset="0" stop-color="#91513e"/><stop offset="1" stop-color="#783f30"/></radialGradient><radialGradient id="radial-gradient-2" cx="359.5" cy="-420.49" r="64.49" gradientTransform="matrix(0.26, -0.08, 0.11, 0.36, 8.34, 278.15)" xlink:href="#radial-gradient"/><linearGradient id="linear-gradient-7" x1="60.45" y1="128.36" x2="60.45" y2="64.27" xlink:href="#linear-gradient-6"/><radialGradient id="radial-gradient-3" cx="164.54" cy="-777.91" r="27.4" gradientTransform="translate(35.99 314.18) scale(0.4 0.26)" xlink:href="#radial-gradient"/><linearGradient id="linear-gradient-8" x1="93.91" y1="10.67" x2="93.91" y2="66.53" gradientTransform="matrix(1, 0, 0, 1, 0, 0)" xlink:href="#radial-gradient"/><linearGradient id="linear-gradient-9" x1="89.75" y1="73.89" x2="89.75" y2="33.41" xlink:href="#linear-gradient-6"/><linearGradient id="linear-gradient-10" x1="71.06" y1="80.35" x2="71.06" y2="68.22" xlink:href="#linear-gradient-6"/><linearGradient id="linear-gradient-11" x1="118.02" y1="79.79" x2="118.02" y2="68.35" xlink:href="#linear-gradient-6"/><linearGradient id="linear-gradient-12" x1="31.35" y1="95.58" x2="48.52" y2="82.84" xlink:href="#linear-gradient-6"/><linearGradient id="linear-gradient-13" x1="32.19" y1="91.22" x2="41.88" y2="85.75" xlink:href="#linear-gradient-6"/><linearGradient id="linear-gradient-14" x1="27.75" y1="116.62" x2="29.02" y2="113.83" gradientUnits="userSpaceOnUse"><stop offset="0" stop-color="#5e2b1c"/><stop offset="1" stop-color="#3d150c"/></linearGradient><radialGradient id="radial-gradient-4" cx="258.21" cy="-730.21" r="37.63" gradientTransform="translate(35.19 314.18) scale(0.26)" gradientUnits="userSpaceOnUse"><stop offset="0" stop-color="#6a3321"/><stop offset="1" stop-color="#531f12"/></radialGradient><linearGradient id="linear-gradient-15" x1="107.96" y1="101.57" x2="107.96" y2="87.22" gradientTransform="matrix(1, -0.04, 0.04, 1, -8.56, 0.42)" xlink:href="#radial-gradient"/><linearGradient id="linear-gradient-16" x1="89.05" y1="99.67" x2="92.86" y2="102.29" gradientTransform="matrix(1, 0, 0, 1, 0, 0)" xlink:href="#radial-gradient"/><linearGradient id="linear-gradient-17" x1="-94.41" y1="114.19" x2="-90.59" y2="116.81" gradientTransform="matrix(-0.68, 0.1, 0.14, 0.99, 32.7, -3.91)" xlink:href="#radial-gradient"/><linearGradient id="linear-gradient-18" x1="101.22" y1="115.55" x2="101.22" y2="107.76" xlink:href="#linear-gradient-6"/><linearGradient id="linear-gradient-19" x1="101.51" y1="100.3" x2="101.51" y2="89.57" gradientUnits="userSpaceOnUse"><stop offset="0" stop-color="#3f190f"/><stop offset="1" stop-color="#783f30"/></linearGradient><linearGradient id="linear-gradient-20" x1="68.81" y1="61.36" x2="70.66" y2="67.31" gradientUnits="userSpaceOnUse"><stop offset="0" stop-color="#270b04"/><stop offset="1"/></linearGradient><linearGradient id="linear-gradient-21" x1="71.11" y1="61.5" x2="72.87" y2="67.18" gradientTransform="matrix(-0.79, 0, 0, 1, 177.02, 0)" xlink:href="#linear-gradient-20"/><linearGradient id="linear-gradient-22" x1="77.78" y1="94.98" x2="77.78" y2="88.36" gradientTransform="translate(-14.73 -4.87) rotate(-4.93)" gradientUnits="userSpaceOnUse"><stop offset="0" stop-color="#39140a"/><stop offset="1"/></linearGradient><linearGradient id="linear-gradient-23" x1="77.78" y1="94.98" x2="77.78" y2="88.36" gradientTransform="translate(-14.73 -4.87) rotate(-4.93)" gradientUnits="userSpaceOnUse"><stop offset="0.01" stop-color="#652312"/><stop offset="1" stop-color="#210000"/></linearGradient><linearGradient id="linear-gradient-24" x1="77.78" y1="91.71" x2="77.78" y2="93.43" gradientTransform="translate(-14.73 -4.87) rotate(-4.93)" gradientUnits="userSpaceOnUse"><stop offset="0"/><stop offset="1" stop-color="#77726d"/></linearGradient><linearGradient id="linear-gradient-25" x1="121.43" y1="91.64" x2="121.43" y2="85.01" gradientTransform="matrix(1, -0.06, 0.06, 1, -10.54, -2.24)" xlink:href="#linear-gradient-22"/><linearGradient id="linear-gradient-26" x1="121.43" y1="91.64" x2="121.43" y2="85.01" gradientTransform="matrix(1, -0.06, 0.06, 1, -10.54, -2.24)" xlink:href="#linear-gradient-23"/><linearGradient id="linear-gradient-27" x1="121.43" y1="88.37" x2="121.43" y2="90.08" gradientTransform="matrix(1, -0.06, 0.06, 1, -10.54, -2.24)" xlink:href="#linear-gradient-24"/></defs><g id="Layer_2" data-name="Layer 2"><g id="_5_Face" data-name="5_Face"><path d="M135.8,54.66a22.35,22.35,0,0,0-1.31-5.15,7.48,7.48,0,0,0-.41-.8,3.56,3.56,0,0,1-.44-.93,4.44,4.44,0,0,1,.08-2.15,5.13,5.13,0,0,0-.22-2.41l-.06-.21a35,35,0,0,0-3-7.81,6.25,6.25,0,0,0-1-1.29,7.36,7.36,0,0,1-.62-.74,26.39,26.39,0,0,1-1.94-3.33c-.15-.3-.28-.6-.42-.92a10.22,10.22,0,0,0-.74-1.48,32.7,32.7,0,0,0-2.83-3.79,21.17,21.17,0,0,0-3.19-3.15,14.33,14.33,0,0,0-1.55-1,11.73,11.73,0,0,1-1.42-.88,33.74,33.74,0,0,1-5.47-5,10,10,0,0,0-4.67-3.43,8.57,8.57,0,0,1-2.52-1.5l-.63-.47c-.8-.57-1.6-1.17-2.38-1.78a8.83,8.83,0,0,0-4.68-1.85c-.32,0-.65-.05-1-.05l-.9,0-.31,0c-.71-.39-1.43-.73-2-1A41.85,41.85,0,0,0,80.71.23,23.49,23.49,0,0,0,77.42,0a33.52,33.52,0,0,0-9.36,1.49,39.5,39.5,0,0,0-3.92,1.36l-.71.3h-.58c-.54,0-1.12.06-1.87.14a34.94,34.94,0,0,0-11.65,3.6A16.08,16.08,0,0,0,46,9c-1.11,1-2.14,2.07-3.14,3.12l-.12.14c-.91.95-1.85,2-3,3.25l-.67.75-.21.07-.4.13a27,27,0,0,0-7.36,3.26,6.85,6.85,0,0,0-2.4,3.94,12,12,0,0,0-.35,1.63C25.9,27,23.4,28.84,21.85,31.24a6.65,6.65,0,0,0-1.16,4.41l-1.12,1.18a34.59,34.59,0,0,0-3.23,3.94c-1.15,1.7-1.47,3.12-.94,4.24l0,0-.45.78c-.87,1.47-1.69,2.78-2.52,4-.53.78-1,1.45-1.52,2.05-.17.2-.34.39-.53.59a8.23,8.23,0,0,0-.87,1.05,9.48,9.48,0,0,0-1.26,4.43,19,19,0,0,0,0,3.37,5.54,5.54,0,0,1-.2,1.18c-.07.32-.14.62-.17.88a22.43,22.43,0,0,0-.15,6.16A3.32,3.32,0,0,0,9,72a49.35,49.35,0,0,0,1.2,8.48l.09.46c.2,1,.42,2,.63,3V84a.17.17,0,0,0,0,.07,19.65,19.65,0,0,1-.61,2,22.61,22.61,0,0,1-1.41,3.21L8.52,90a12.47,12.47,0,0,0-1.2,2.67,6.46,6.46,0,0,0-.14,3.13c-.13.08-.25.18-.4.28a12.44,12.44,0,0,0-1,.84,13.6,13.6,0,0,0-2.09,2.29A21.07,21.07,0,0,0,.8,104.67a16.29,16.29,0,0,0-.8,5.6,19.51,19.51,0,0,0,.81,5.48A18.39,18.39,0,0,0,7,124.93a40.78,40.78,0,0,0,4.09,2.71c.4.24.81.48,1.2.73a37.51,37.51,0,0,0,6,3.11A18.25,18.25,0,0,0,25,132.76l2.74,0,2.78,0h1.16a29.9,29.9,0,0,0,8-1A30.57,30.57,0,0,0,44,130c.85-.39,1.72-.79,2.6-1.13l1.33-.51c3.12-1.15,6.93-2.56,8.43-5.68.51,9.59.85,18.69-3.63,28.12-4,8.35-11.73,10.75-19.3,12.5a.49.49,0,0,0-.38.53.5.5,0,0,0,.49.44h.65c8.24,0,16.4,1.57,24.3,3.09a176.72,176.72,0,0,0,17.87,2.8c3.68.31,7.06.46,10.32.46,10.31,0,17.3-1.58,24.06-3.1a102.6,102.6,0,0,1,18.7-2.92.5.5,0,0,0,.45-.39.48.48,0,0,0-.26-.54l-.65-.33-.11,0c-7.57-1.75-15.29-4.15-19.3-12.49a38.49,38.49,0,0,1-3-9.11,17,17,0,0,0,5-2.48,18,18,0,0,0,3.62-3.84c1.41-1.86,2.77-3.72,4-5.54A115.55,115.55,0,0,0,126.55,118c4.76-8.92,7.28-17.61,7.5-25.83a40.32,40.32,0,0,0-.22-4.94,17.08,17.08,0,0,0,1.26-6.16l0-.46a51.49,51.49,0,0,0,.15-5.21.62.62,0,0,0-.45-.59l-.21-.06a1.43,1.43,0,0,0,.19-.49l.15-.7a22.52,22.52,0,0,0,.76-7.49,30.24,30.24,0,0,1,.18-6.84L136,58A14,14,0,0,0,135.8,54.66Z"/><path class="cls-1" d="M132.85,87.55c2-3.1,1.8-12.1,1.8-12.1a5.74,5.74,0,0,0-2.45-.17l-1.8,1Z"/><path class="cls-2" d="M132.23,75.4a6.3,6.3,0,0,1,1.44,0c.08,0,.85.18.85.1v.63c0,1.08-.06,2.15-.12,3.22-.17,2.7-.39,5.72-1.73,8.12a.21.21,0,0,0,.36.21c1.29-1.94,1.43-4.79,1.6-7,.13-1.72.19-3.45.15-5.17a.14.14,0,0,0-.09-.13,5.7,5.7,0,0,0-2.53-.15c-.15,0-.09.25.07.23Z"/><path class="cls-3" d="M64.09,129.3c.17-.84-1.06-1.48-1.48-.6A17.78,17.78,0,0,1,54,137.11l.5-.82c1.86-3,3.45-6.23,5.83-8.89.71-.78-.45-1.94-1.15-1.16-3.17,3.53-4.92,8.21-7.82,11.92a29.72,29.72,0,0,1-10.38,1.34,37.46,37.46,0,0,1-8.68-1.38,30.49,30.49,0,0,0,5.42-.88A12.35,12.35,0,0,0,39,136.8,24,24,0,0,0,58.13,124c.5-.93-.91-1.75-1.41-.82a22.55,22.55,0,0,1-13.36,11.15c.52-.37,1-.76,1.53-1.16,2.36-1.84,4.78-3.61,7.14-5.45a18.42,18.42,0,0,0,4.83-5.2A12.94,12.94,0,0,0,58.24,115c-.07-1.05-1.71-1.05-1.63,0A11.85,11.85,0,0,1,55.26,122a18.06,18.06,0,0,1-4.89,4.93c-2.08,1.6-4.2,3.14-6.26,4.77a24,24,0,0,1-5.6,3.52,25.49,25.49,0,0,1-2.63.05c-6.24-.22-16.35-2-17.92-9.3a.67.67,0,0,0-.56-.57,19.75,19.75,0,0,1-.06-2.16c0-1-1.61-1-1.64,0a24.93,24.93,0,0,0,.56,5.72.86.86,0,0,0,0,1.08l.34.41a29.05,29.05,0,0,0,.93,2.82c-2-2.44-3.14-5.84-5.67-8-.81-.68-2,.48-1.16,1.16,2.23,1.89,3.31,4.65,4.87,7a9,9,0,0,0,3.62,3.25c3,5.31,7.91,9.41,14.16,9.87a21.2,21.2,0,0,0,5.65-.5,32.93,32.93,0,0,0,5.26.25c4-.12,7.48-.67,10.68-3.26,4.2-3.4,5.73-8.75,9.6-12.41A.81.81,0,0,0,64.09,129.3Zm-14.9,11.16-.2.18c-1.84,1.6-4.45,2.35-6.74,3-1.07.31-2.17.58-3.28.8a22.33,22.33,0,0,1-6.27-1.89,28.43,28.43,0,0,1-6.34-4.32l1.4,0a40.42,40.42,0,0,0,13.18,2.88A31.32,31.32,0,0,0,49.19,140.46Zm-27.73-5.62a.76.76,0,0,0,0,1,7.24,7.24,0,0,1-1.08-.38,24.86,24.86,0,0,1-1.09-2.34A25.47,25.47,0,0,0,21.46,134.84Zm2.37-.41a31.05,31.05,0,0,0,8.51,2.16,32.86,32.86,0,0,1-4,.17A31.75,31.75,0,0,1,23.83,134.43Zm-2.17,3.17c.66.16,1.33.29,2,.39a35.21,35.21,0,0,0,8.22,6,20.36,20.36,0,0,0,2.42,1C28.92,145.09,24.6,141.94,21.66,137.6Zm33.6,3a13.44,13.44,0,0,1-4.6,3.22,19.4,19.4,0,0,1-5.87.85l-.34,0a21.39,21.39,0,0,0,4.52-2,12.23,12.23,0,0,0,3.29-3.09,22.2,22.2,0,0,0,6.25-3.32A24.65,24.65,0,0,1,55.26,140.61Z"/><path class="cls-4" d="M56.12,121.59c-1.31,4.58-8.84,5.89-12.44,7.85-6.54,3.27-11.45,2.62-19,2.62-5.56,0-10.47-3.27-15-6.22A18.07,18.07,0,0,1,1.47,104.9C2.78,101.3,4.74,98,8,96.06c0,0-1-2.29,1-5.56A23,23,0,0,0,11.61,84s-2-8.51-2-12.44c0,0-1.31,0-1.31-3.93A24.62,24.62,0,0,1,9,61.38s-.66-5.89,1.63-8.18S16.19,45,16.19,45s-1-1,.33-3.28a40,40,0,0,1,4.91-5.89s-.65-1.63,1-4.25S29,25.71,29,25.71s.32-3.6,2.29-5.24,8.18-3.6,8.18-3.6,4.91-5.56,7.2-7.52,10.14-5.56,17-5.56c0,0,8.51-3.93,16.36-2.95A41.45,41.45,0,0,1,94.07,5.42s3.93-.65,6.55,1.64c0,0,4.58,3.6,5.89,3.92s3.27,2,4.58,3.6c0,0,4.91,4.91,7.2,5.89S125.81,28,126.14,30c0,0,2,3.93,3,4.58s4.25,9.17,3.92,10.8c0,0-.65,2.29.33,3.6s2,6.22,2,8.51c0,0-.65,6.55-.32,8.84s-1,8.18-1,8.18l-3.28,1.63L72.8,107.51Z"/><path class="cls-5" d="M118.38,34.05c1.52-3.08,2-6.52,3.28-9.68-.44-.5-.89-1-1.32-1.39a39.12,39.12,0,0,0-1.5,5.2,28.11,28.11,0,0,1-2.32,5.92c-.92,1.68-2.35,1.62-3.84,1.19a11.73,11.73,0,0,0,4.08-5.12c1-2.66,1.2-5.55,1.64-8.34,0-.14,0-.28.07-.42a3.3,3.3,0,0,0-.51-.28,7.43,7.43,0,0,1-1-.53c-.09.4-.18.81-.25,1.23a54,54,0,0,1-1.21,6.91,10.84,10.84,0,0,1-5.08,6.08.83.83,0,0,0,.19,1.5c1.57.57,3.41,1.26,5.08.71C117.07,36.59,117.8,35.23,118.38,34.05ZM94.24,28.84a.88.88,0,0,0,0-1.44c-.82-.56-1.6-1.16-2.38-1.76l-.32-.36A21.23,21.23,0,0,0,86,20.46c-11.87-7.59-28.66-5.42-43.13-7l-1.35,1.45c10.08,1.19,21.55.36,31.6,2.37a60.83,60.83,0,0,0-7.54.39c-6.15.63-12.22,1.87-18.35,2.62-4.79.58-9.8.91-14.53-.21a9.64,9.64,0,0,0-1.74,1.07l-.13.11C45.68,25.8,67,15,81.72,20.22a53.67,53.67,0,0,0-9.4-.29,63,63,0,0,0-9.59,1c-6.26,1.11-12.45,2.56-18.79,3.2a51.6,51.6,0,0,1-14.53-.57A12.13,12.13,0,0,0,29,25.14a52.18,52.18,0,0,0,12.74.79c5.95-.35,11.83-1.6,17.68-2.69A88,88,0,0,1,69.8,21.69a79.31,79.31,0,0,1,10.11,0,14.3,14.3,0,0,1,7.55,2.59c1.08.73,2.1,1.54,3.12,2.36l.07.08c.15.2.3.39.45.6-8.75-6.16-19.67-6.62-30-4.17C54.56,24.69,48.47,27.61,42,29.23c-5.79,1.45-11.58,1-17.39.27A20.37,20.37,0,0,0,23.1,31c5.65.74,11.31,1.37,17,.36,6.56-1.17,12.61-4.1,19-5.94,11.25-3.24,23.85-3.13,33.14,4.84a.78.78,0,0,0,.81.16.67.67,0,0,0,.43.29l.16.26A.82.82,0,0,0,95,30.1C94.75,29.67,94.5,29.25,94.24,28.84Zm18,.16a10.79,10.79,0,0,0,.44-6.09c-.34-2.32-1.24-4.93-1.72-7.53l-.15-.14a16.31,16.31,0,0,0-1.67-1.77,44.33,44.33,0,0,0,1.26,6.43,21.26,21.26,0,0,1,.82,6.72c-.24,2.55-2.17,4.06-4.44,4.84-1,.35-.57,1.93.43,1.58A8,8,0,0,0,112.19,29Zm17.67,8a19.92,19.92,0,0,1-3.07,1.8c-3.07,1.51-7,3.06-10.46,3.12a.82.82,0,0,0,0,1.63c2.72,0,10-2.11,14.18-5.09C130.29,37.92,130.07,37.43,129.86,37Zm-48-9A43.32,43.32,0,0,0,67,28.34a144.1,144.1,0,0,1-17.19,2.37C44,31,38.29,31.82,32.52,32.14l-.78,0c-2.65.13-5.31.22-8,.27l-2,.24a7.17,7.17,0,0,0-.45,1.43l2.37,0a64.77,64.77,0,0,1,8.7-.31c5.07.11,10.17.52,15.24.3A59.25,59.25,0,0,1,54.08,34c2.1.14,4.19.46,6.28.73,4.21.53,8.46.8,12.55-.56,1-.33.57-1.91-.43-1.57-4.15,1.38-8.44,1-12.69.42-2.09-.27-4.17-.56-6.28-.7a26.42,26.42,0,0,0-2.67,0,121.54,121.54,0,0,0,13.75-1.82c5.59-1.08,11.16-1.87,16.83-.89C82.45,29.73,82.89,28.16,81.86,28Zm53,28.42c-.07-.55-.15-1.13-.26-1.71-3.72.31-8.28,2.08-9.45-1.22a30.08,30.08,0,0,1,7.76-1.53l1-.1a11.78,11.78,0,0,0-.56-1.55c-3.27.36-6.65.64-9.63,2a.84.84,0,0,0-.37.93C124.38,58.7,130.58,56.5,134.86,56.39Zm-2.15-10.62a7.18,7.18,0,0,0-.26-1.67,12.86,12.86,0,0,1-10.7.1c-.94-.47-1.76.94-.82,1.41A14.58,14.58,0,0,0,132.71,45.77Zm-7,14.79a.81.81,0,0,0-.29,1.12c1.14,2.16,3.54,2.62,5.78,2.82.47,0,2,0,3.34.15,0-.5,0-1,.05-1.56-2.23-.16-5.42.16-7.1-1.38a15.93,15.93,0,0,1,3.47.12c1.23.09,2.46.21,3.69.18,0-.58.07-1.13.11-1.64h-.53C131.54,60.38,128.31,59.4,125.73,60.56ZM22.82,44.21c3.63.4,7.16,1.15,10.82,1.35,9,.5,18.32,1.86,27.06-1,1-.32.57-1.9-.44-1.57-9.06,2.91-18.79,1.24-28.1.82C27,43.62,21.22,41.62,16.1,42.64a3,3,0,0,0-.2,1.75A19.83,19.83,0,0,1,22.82,44.21Zm109.92,4.91a4.11,4.11,0,0,1-.27-1.58,44.48,44.48,0,0,1-9,1.13c-1,0-1,1.67,0,1.64A46.27,46.27,0,0,0,132.74,49.12Zm-1.58,18.51c-2,.11-3.93,0-5.89,0a.82.82,0,0,0,0,1.64c2.4,0,4.8.09,7.2-.11.63-.05,1.4-.11,2.18-.24a12.76,12.76,0,0,0,0-1.6A26.42,26.42,0,0,1,131.16,67.63ZM22.68,67.28c4,.79,8,1.23,12,.33,2.9-.65,5.72-1.69,8.72-1.89,3.16-.21,4.7,1.8,7.06,3.45.86.61,1.68-.81.82-1.41-1.89-1.33-3.3-3-5.65-3.57s-5,.19-7.16.74c-2.68.68-5.32,1.57-8.1,1.63a32.13,32.13,0,0,1-5.7-.58,50.66,50.66,0,0,1-12.25-3.51,32,32,0,0,1-3.49-1.79c0,.43.06.7.06.7s-.12.42-.26,1.22C13.05,65.08,18.33,66.42,22.68,67.28Zm5.43,44.64a24.26,24.26,0,0,1-8.45,1.27,21.31,21.31,0,0,1-8.94-1.58c-2.89-1.37-5.1-4.25-7.26-6.5q-.73-.77-1.5-1.47c-.17.41-.34.83-.49,1.26-.05.16-.09.32-.13.49,1.82,1.82,3.49,3.83,5.42,5.49a19.08,19.08,0,0,0,5.92,2.64,42.94,42.94,0,0,0,9.17,1.28,25.34,25.34,0,0,0,4.61-.64,52.87,52.87,0,0,0,7.59-2.83c3-1.23,6-2.46,9.12-3.43,5.92-1.85,12.68-2.6,17.6,1.94.78.71,1.94-.44,1.16-1.16C52.21,99.71,38.23,108.3,28.11,111.92Zm2.22-55.74c7,1.64,15.13,1.5,21.06,6.1.83.64,2-.51,1.16-1.15-6.08-4.72-14.08-4.88-21.31-6.42-4.4-.94-8.6-2.49-13.06-3.21A42.22,42.22,0,0,0,12.57,51c-.39.58-.8,1.13-1.2,1.63a41.91,41.91,0,0,1,7,.56C22.43,53.84,26.3,55.24,30.33,56.18ZM38,40.27c8.23-.59,16.4-5.57,24.45-1.42.94.48,1.77-.93.83-1.41-7.61-3.92-15.46-.49-23.23.91a38.88,38.88,0,0,1-19-1.78c-.17.17-.64.65-1.24,1.3A45.78,45.78,0,0,0,38,40.27ZM17.83,114.76a21.22,21.22,0,0,1-7.64-1.6,15.4,15.4,0,0,1-3.43-2.28c-.77-.5-1.53-1-2.29-1.62-1.12-.85-2.27-1.68-3.45-2.45-.11.6-.19,1.2-.24,1.81,1.55,1.07,3.05,2.22,4.51,3.31,4.78,3.53,11.4,4.41,17.18,4.52s11.3-1.39,16.81-3.34c3.13-1.11,7.08-2.68,10.76-2.72a18,18,0,0,1,3-.64c.75-.09.95.72.64,1.23.23.09.47.19.7.3.94.46,1.77-1,.82-1.42-4.31-2.09-9.46-.6-13.76.78-2.49.8-4.92,1.75-7.41,2.56a36.8,36.8,0,0,1-10.32,1.6c-.62,0-1.25,0-1.88,0A33.64,33.64,0,0,1,17.83,114.76ZM42.75,50.62c-5.17.9-10,1.54-15.21.54-2.92-.56-5.8-1.32-8.76-1.63-1.68-.18-3.37-.21-5.05-.29-.33.52-.68,1.06-1,1.59,1.42.09,2.85.14,4.29.21a62.5,62.5,0,0,1,9.59,1.59,37.46,37.46,0,0,0,14.12,0c7.94-1.33,19.28-4.5,25.54,2.45.7.79,1.86-.37,1.15-1.15C61.25,47.11,50.7,49.23,42.75,50.62Zm73.87-13a.81.81,0,0,0,.17,1.28c4.58,2.38,8.43-.64,11.67-3.92a8.65,8.65,0,0,1-1-1.29c-2.48,2.61-5.44,5.14-8.72,4.25.93-.61,2-1,3-1.59a8.82,8.82,0,0,0,2.64-2.73,23.92,23.92,0,0,0,1.53-2.71l-.13-.24a5.65,5.65,0,0,0-.78-1.75c-.59,1.16-1.14,2.34-1.79,3.48a7.6,7.6,0,0,1-3.2,3A12,12,0,0,0,116.62,37.57ZM39.33,64c4.05-.64,8.85-1.06,12.06,2,.77.73,1.93-.43,1.16-1.16-6-5.7-15.23-1.52-22.32-1.13-8,.45-14.36-4.2-20.81-8.28a10.69,10.69,0,0,0-.36,1.68c5.74,3.61,11.28,7.46,18.3,8.16C31.39,65.67,35.38,64.62,39.33,64Zm-.56,51.23c-5.18,2-10.48,3.49-16.08,3.28A44,44,0,0,1,.8,112c.07.71.18,1.41.32,2.11,5.86,3.4,12.7,5.08,19.46,5.85,5.67.63,11.11-.49,16.44-2.36a69.77,69.77,0,0,0,7.53-3.12c2.72-1.32,5.47-2.74,8.51-3.1a.86.86,0,0,0,.64-.41,10.22,10.22,0,0,0-3.66-.59C46.14,111.55,42.55,113.78,38.77,115.23Zm68-93.63c-.4-1.85-1.34-3.51-1.84-5.33a24.09,24.09,0,0,1-.63-4.8l-.06-.86c-.54-.36-1.13-.77-1.68-1.17.06,1.08.11,2.13.18,3.1a28.27,28.27,0,0,0,.47,3.55,40.93,40.93,0,0,0,1.62,4.67c1.26,3.76.13,6.68-2.11,9.77a.75.75,0,0,0-.07.12c3.06-9.34-3.52-17-8.8-24.59l-.13,0A30,30,0,0,0,91,4.73c4.88,7.34,12.54,15.07,10.51,24-1.35-2.55-2.06-5.36-3.29-7.95a13.41,13.41,0,0,0-5.86-5.94c-5-2.76-11.16-3.22-16.55-5.11C71.16,8.13,66.69,6,62,4.49a27.11,27.11,0,0,0-4.28.63c.82.14,1.63.32,2.45.53C65.22,7,70,9.36,74.92,11.17c5.14,1.89,10.75,2.45,15.76,4.69a12.36,12.36,0,0,1,6.15,5.78c1.31,2.57,1.93,5.42,3.3,8a.74.74,0,0,0,1.1.27,15.45,15.45,0,0,1-.66,1.74c-.44,1,1,1.79,1.41.83.24-.53.44-1.05.62-1.57a.86.86,0,0,0,1.56.48C106.35,28.34,107.62,25.34,106.8,21.6ZM12.49,72.74a21.9,21.9,0,0,0,13.27,1.85c4.92-.71,9.59-2.38,14.63-1.66,4.34.62,8.27,2.87,12,5,.92.51,1.75-.9.83-1.41-3.8-2.12-7.67-4.25-12-5.07-4.64-.87-9.12.25-13.65,1.18a28.1,28.1,0,0,1-7.92.62,20.21,20.21,0,0,1-7.76-2.6c-1.2-.62-2.38-1.29-3.56-1.94a5.87,5.87,0,0,0,.46,2.07C10.06,71.44,11.27,72.14,12.49,72.74ZM10.1,101.88c3.56,4.2,8.68,6.05,14.08,6.23a42.45,42.45,0,0,0,8.56-.75c3.11-.54,5.75-2,8.68-3.1,5.77-2.09,12.25-2.28,17.56,1.13.89.57,1.71-.85.82-1.42C55,100.91,49.45,100.56,44,101.78a53.94,53.94,0,0,0-8,3,31,31,0,0,1-9.7,1.62c-6.22.36-11.64-1.48-15.66-6.33-1-1.22-2-2.52-3-3.76l-.08,0a2.76,2.76,0,0,0,.12.38c-.39.23-.76.49-1.12.75C7.8,98.94,8.93,100.5,10.1,101.88Z"/><path class="cls-6" d="M23.15,43.55c3.62.4,7.16,1.16,10.81,1.36,9,.49,18.33,1.85,27.06-1,1-.32.57-1.9-.43-1.58-9.07,2.92-18.8,1.25-28.1.83C27.35,43,21.52,41,16.39,42a4.33,4.33,0,0,0-.55,1.83A19.5,19.5,0,0,1,23.15,43.55Zm15.19-3.93C46.56,39,54.73,34,62.79,38.2c.94.48,1.77-.93.83-1.42-7.61-3.92-15.46-.49-23.24.91-6.45,1.17-12.88.22-19-1.77-.16.17-.63.65-1.23,1.3A45.93,45.93,0,0,0,38.34,39.62Zm43.84-12.3a43,43,0,0,0-14.88.36,146.19,146.19,0,0,1-17.19,2.38c-5.77.31-11.49,1.11-17.26,1.42l-.79,0c-2.65.14-5.3.22-8,.28q-1,.09-2,.24a8.07,8.07,0,0,0-.61,1.42l2.54,0a66.46,66.46,0,0,1,8.7-.3c5.07.1,10.17.52,15.24.3a56.74,56.74,0,0,1,6.39-.12c2.1.14,4.19.46,6.28.73,4.21.54,8.46.81,12.55-.55,1-.33.57-1.91-.44-1.58-4.14,1.38-8.43,1-12.68.42-2.09-.27-4.18-.55-6.28-.69a26.43,26.43,0,0,0-2.67,0,121,121,0,0,0,13.74-1.81c5.6-1.08,11.17-1.88,16.84-.89C82.78,29.08,83.22,27.5,82.18,27.32Zm12.39.87a.88.88,0,0,0,0-1.44c-.82-.57-1.61-1.17-2.38-1.76l-.32-.37a21.24,21.24,0,0,0-5.62-4.81c-11.86-7.59-28.65-5.43-43.12-7-.47.49-.93,1-1.35,1.45,10.08,1.19,21.55.35,31.6,2.36a64.85,64.85,0,0,0-7.54.39c-6.15.63-12.22,1.88-18.35,2.62-4.79.58-9.81.91-14.54-.21a9.88,9.88,0,0,0-1.73,1.07l-.13.12C46,25.14,67.33,14.36,82,19.56a54.54,54.54,0,0,0-9.39-.29,65.78,65.78,0,0,0-9.6,1c-6.26,1.11-12.45,2.56-18.78,3.2a51.48,51.48,0,0,1-14.62-.58,10.24,10.24,0,0,0-.48,1.58,53.32,53.32,0,0,0,12.94.82c6-.36,11.83-1.61,17.68-2.7A92.42,92.42,0,0,1,70.13,21a79.31,79.31,0,0,1,10.11,0,14.29,14.29,0,0,1,7.55,2.58c1.08.73,2.1,1.55,3.12,2.36l.07.09.45.59c-8.76-6.16-19.67-6.61-30-4.17C54.89,24,48.8,27,42.3,28.58c-5.79,1.44-11.58,1-17.39.27a18.4,18.4,0,0,0-1.48,1.44c5.65.74,11.31,1.37,17,.37,6.55-1.17,12.6-4.11,19-5.94,11.25-3.25,23.85-3.14,33.13,4.84a.82.82,0,0,0,.82.16.71.71,0,0,0,.43.29l.15.26a.82.82,0,0,0,1.42-.83C95.08,29,94.82,28.6,94.57,28.19ZM107.13,21c-.41-1.85-1.34-3.52-1.84-5.33a23.57,23.57,0,0,1-.63-4.8L104.6,10c-.55-.35-1.13-.77-1.68-1.16.06,1.07.1,2.12.18,3.09a28.19,28.19,0,0,0,.47,3.56,40.77,40.77,0,0,0,1.62,4.66c1.26,3.77.13,6.68-2.11,9.78L103,30c3.06-9.34-3.52-17-8.81-24.59l-.13,0s-1-.58-2.73-1.35c4.89,7.34,12.55,15.07,10.52,24-1.36-2.54-2.06-5.35-3.29-7.95a13.34,13.34,0,0,0-5.86-5.93c-5-2.77-11.16-3.23-16.55-5.12C71.49,7.47,67,5.29,62.28,3.83A27.19,27.19,0,0,0,58,4.47c.81.14,1.63.31,2.45.53,5.09,1.33,9.86,3.71,14.78,5.52C80.39,12.4,86,13,91,15.2A12.34,12.34,0,0,1,97.15,21c1.32,2.56,1.94,5.42,3.31,8a.74.74,0,0,0,1.1.27,15.1,15.1,0,0,1-.67,1.74c-.43,1,1,1.78,1.41.82a15.43,15.43,0,0,0,.63-1.56.86.86,0,0,0,1.56.47C106.68,27.69,108,24.69,107.13,21Zm5.39,7.4a10.71,10.71,0,0,0,.43-6.09c-.33-2.32-1.23-4.94-1.71-7.53l-.15-.15a15.36,15.36,0,0,0-1.67-1.76,44.59,44.59,0,0,0,1.26,6.43A21.26,21.26,0,0,1,111.5,26c-.24,2.55-2.17,4.05-4.45,4.84-1,.34-.56,1.92.44,1.58A8,8,0,0,0,112.52,28.35Zm6.19,5c1.51-3.09,2-6.52,3.27-9.69-.44-.49-.88-1-1.31-1.39a41,41,0,0,0-1.51,5.2,27,27,0,0,1-2.32,5.93c-.91,1.67-2.34,1.62-3.84,1.18a11.57,11.57,0,0,0,4.09-5.12c1-2.65,1.19-5.55,1.64-8.34,0-.14,0-.28.07-.42a4.43,4.43,0,0,0-.51-.28,5.94,5.94,0,0,1-1-.53c-.1.41-.18.82-.25,1.23a53.72,53.72,0,0,1-1.22,6.91,10.76,10.76,0,0,1-5.07,6.08.83.83,0,0,0,.19,1.5c1.57.57,3.41,1.27,5.08.72C117.4,35.94,118.13,34.57,118.71,33.4ZM117,36.91a.83.83,0,0,0,.16,1.29c4.59,2.37,8.43-.64,11.68-3.92a8.65,8.65,0,0,1-.95-1.29c-2.48,2.6-5.44,5.13-8.73,4.25.94-.62,2-1,3-1.6a8.6,8.6,0,0,0,2.65-2.72,22.54,22.54,0,0,0,1.52-2.72l-.12-.24a5.88,5.88,0,0,0-.78-1.74c-.59,1.16-1.14,2.34-1.79,3.48a7.6,7.6,0,0,1-3.2,3A11.79,11.79,0,0,0,117,36.91Zm13.24-.57a20.76,20.76,0,0,1-3.07,1.8c-3.08,1.5-7,3.06-10.47,3.11a.82.82,0,0,0,0,1.64c2.73,0,10-2.11,14.19-5.1C130.62,37.27,130.4,36.77,130.19,36.34Zm5,19.39c-.07-.54-.16-1.12-.26-1.71-3.72.32-8.28,2.09-9.45-1.22a30.42,30.42,0,0,1,7.76-1.53l1-.09a12.05,12.05,0,0,0-.55-1.56c-3.27.37-6.65.64-9.63,2a.82.82,0,0,0-.37.92C124.71,58,130.91,55.85,135.19,55.73ZM133,45.11a7.06,7.06,0,0,0-.25-1.66,12.94,12.94,0,0,1-10.7.1c-.94-.47-1.77.94-.82,1.41A14.56,14.56,0,0,0,133,45.11Zm-7,14.8a.82.82,0,0,0-.3,1.12c1.15,2.16,3.55,2.62,5.79,2.82.47,0,2,0,3.34.14,0-.5,0-1,.05-1.55-2.23-.17-5.43.16-7.11-1.39a16,16,0,0,1,3.48.12c1.23.09,2.46.21,3.69.18,0-.57.07-1.13.11-1.63h-.53C131.86,59.73,128.64,58.75,126.06,59.91ZM131.49,67c-2,.1-3.93,0-5.89,0a.82.82,0,0,0,0,1.64c2.4,0,4.8.09,7.2-.11.63,0,1.4-.11,2.18-.24a12.6,12.6,0,0,0,0-1.59A26.54,26.54,0,0,1,131.49,67Zm1.58-18.52a3.91,3.91,0,0,1-.27-1.57,43.71,43.71,0,0,1-9,1.12c-1,0-1,1.68,0,1.64A44.85,44.85,0,0,0,133.07,48.46ZM23,66.63A28.8,28.8,0,0,0,35,67c2.91-.64,5.73-1.69,8.72-1.89,3.16-.21,4.71,1.81,7.06,3.46.87.61,1.69-.81.83-1.41-1.89-1.33-3.31-3-5.65-3.58s-4.95.19-7.16.75c-2.68.67-5.32,1.56-8.11,1.62A32,32,0,0,1,25,65.33a50.23,50.23,0,0,1-12.25-3.52,28.78,28.78,0,0,1-3.85-2c0,.93.09,1.57.09,1.57s-.05.16-.12.47C13.23,64.39,18.59,65.76,23,66.63Zm16.66-3.29c4.05-.64,8.85-1.05,12.06,2,.76.72,1.92-.43,1.16-1.16-6-5.71-15.24-1.53-22.32-1.13-8,.45-14.41-4.24-20.89-8.33a8.35,8.35,0,0,0-.48,1.61C15,60,20.59,63.9,27.69,64.61,31.72,65,35.71,64,39.66,63.34Zm-9-7.81c7,1.64,15.13,1.5,21.07,6.1.82.64,2-.51,1.16-1.16-6.09-4.71-14.08-4.87-21.32-6.41-4.39-.94-8.59-2.49-13.06-3.21a39,39,0,0,0-5.6-.51c-.4.57-.8,1.13-1.2,1.63a40.94,40.94,0,0,1,7,.55C22.76,53.18,26.63,54.59,30.65,55.53ZM43.08,50c-5.17.9-10,1.54-15.21.54C25,50,22.07,49.19,19.1,48.88c-1.67-.18-3.36-.22-5-.3-.33.52-.68,1.06-1.05,1.59,1.43.1,2.86.14,4.29.21A62.3,62.3,0,0,1,26.89,52,37.26,37.26,0,0,0,41,52c8-1.32,19.29-4.5,25.54,2.46.71.78,1.86-.38,1.16-1.16C61.58,46.45,51,48.58,43.08,50ZM12.82,72.09a21.94,21.94,0,0,0,13.26,1.84c4.93-.71,9.6-2.37,14.64-1.66,4.34.62,8.27,2.87,12,5a.82.82,0,0,0,.82-1.41c-3.79-2.12-7.67-4.24-12-5.06C37,69.89,32.48,71,28,71.94a28.14,28.14,0,0,1-7.92.63A20.31,20.31,0,0,1,12.26,70c-1.32-.69-2.61-1.43-3.92-2.14a11.12,11.12,0,0,0,.18,1.9C10,70.54,11.38,71.37,12.82,72.09Zm-2.39,29.14c3.55,4.19,8.67,6,14.08,6.23a42.46,42.46,0,0,0,8.56-.76c3.11-.54,5.75-2,8.68-3.09,5.77-2.1,12.25-2.29,17.55,1.12.89.57,1.71-.84.83-1.41-4.76-3.06-10.35-3.42-15.77-2.19a55.36,55.36,0,0,0-8,3,31.29,31.29,0,0,1-9.71,1.63c-6.21.36-11.63-1.48-15.65-6.34C10,98.14,9,96.79,7.86,95.51a3.45,3.45,0,0,0,.15.55c-.38.24-.76.49-1.11.76C8.13,98.28,9.26,99.84,10.43,101.23Zm18,10A24.18,24.18,0,0,1,20,112.54,21.37,21.37,0,0,1,11,111c-2.88-1.37-5.09-4.24-7.26-6.5-.49-.52-1-1-1.52-1.49-.25.54-.48,1.11-.69,1.68,1.86,1.84,3.55,3.9,5.52,5.59A19.37,19.37,0,0,0,13,112.87a43.67,43.67,0,0,0,9.18,1.28,25.35,25.35,0,0,0,4.61-.65,54.51,54.51,0,0,0,7.59-2.82c3-1.24,6-2.46,9.11-3.43,5.93-1.86,12.69-2.61,17.61,1.93.77.72,1.94-.44,1.16-1.15C52.53,99.05,38.56,107.64,28.43,111.26ZM18.15,114.1a21.26,21.26,0,0,1-7.64-1.59,15.57,15.57,0,0,1-3.42-2.28c-.77-.5-1.53-1-2.29-1.63-1.18-.89-2.38-1.76-3.62-2.56-.13.58-.24,1.17-.31,1.75,1.64,1.12,3.21,2.34,4.75,3.48,4.78,3.54,11.4,4.41,17.18,4.52s11.3-1.39,16.8-3.33c3.14-1.11,7.09-2.68,10.77-2.72a18,18,0,0,1,3-.64c.74-.09,1,.71.63,1.23.24.09.47.18.7.29,1,.46,1.78-1,.83-1.41-4.32-2.1-9.46-.6-13.76.78-2.49.8-4.93,1.75-7.41,2.56a36.85,36.85,0,0,1-10.32,1.6c-.63,0-1.26,0-1.88,0A31.84,31.84,0,0,1,18.15,114.1Zm21,.47c-5.19,2-10.48,3.49-16.08,3.29-7.61-.28-15.8-2.42-22.28-6.75A17.75,17.75,0,0,0,1,113.17c6,3.61,13,5.35,20,6.14,5.67.64,11.1-.49,16.44-2.36a69.42,69.42,0,0,0,7.53-3.12c2.71-1.32,5.47-2.74,8.51-3.1a.82.82,0,0,0,.63-.4,9.75,9.75,0,0,0-3.65-.59C46.47,110.89,42.88,113.13,39.1,114.57Z"/><path class="cls-7" d="M56,121.55c-1,3.3-4.89,4.71-7.81,5.83-1.4.53-2.82,1-4.17,1.68a27.52,27.52,0,0,1-6,2.21c-4.16.94-8.5.61-12.73.58a18.59,18.59,0,0,1-6.91-1.34,38.5,38.5,0,0,1-6.3-3.37c-2.7-1.7-5.35-3.29-7.37-5.81a17.79,17.79,0,0,1-3.55-8.22c-1-6.23,1.43-13.46,7-16.86a.21.21,0,0,0,.1-.25c-1-2.35.71-4.8,1.72-6.78A23.42,23.42,0,0,0,11.56,85a2.76,2.76,0,0,0,.24-1.23c-.38-1.63-.71-3.29-1-4.94a42.22,42.22,0,0,1-.92-7.34.21.21,0,0,0-.21-.21c-.47,0-.78-1-.88-1.42a17.09,17.09,0,0,1,0-6c.07-.63.17-1.24.3-1.86a2.82,2.82,0,0,0,.14-.64A20.6,20.6,0,0,1,9.12,59a11.75,11.75,0,0,1,.81-4.43,7.14,7.14,0,0,1,1.29-1.75c.48-.54.92-1.12,1.35-1.71a59.56,59.56,0,0,0,3.78-6,.18.18,0,0,0,0-.22A2.08,2.08,0,0,1,16.16,43a10,10,0,0,1,2.11-3.41c1-1.26,2.14-2.47,3.29-3.62a.18.18,0,0,0,0-.17c-.47-1.24.21-2.8.8-3.85A14.73,14.73,0,0,1,26,28.12C27,27.34,28,26.6,29,25.91a.34.34,0,0,0,.17-.31,11.9,11.9,0,0,1,.34-1.68,6.21,6.21,0,0,1,2.84-4,28.28,28.28,0,0,1,4.5-2c.88-.33,1.76-.63,2.65-.92.13,0,.23-.21.31-.31l1-1.13q1.58-1.76,3.2-3.45a28,28,0,0,1,3.1-3A28.74,28.74,0,0,1,57.16,4.85a30.46,30.46,0,0,1,3.13-.64c.59-.09,1.19-.15,1.79-.19A9.51,9.51,0,0,0,63.69,4c.65-.18,1.29-.54,1.93-.78A34.81,34.81,0,0,1,77.25.88,34.3,34.3,0,0,1,90.11,3.8c1.15.47,2.27,1,3.37,1.57a1.65,1.65,0,0,0,1.19.23,8.72,8.72,0,0,1,4.84,1A24.24,24.24,0,0,1,102,8.4a35.07,35.07,0,0,0,3.51,2.4,6.87,6.87,0,0,0,1.29.53,8.74,8.74,0,0,1,2.85,2c.8.76,1.48,1.61,2.28,2.37,1.09,1,2.2,2.05,3.36,3a19.57,19.57,0,0,0,3.17,2.1,12.89,12.89,0,0,1,3.09,2.76,33.71,33.71,0,0,1,3.09,3.94,15.81,15.81,0,0,1,.94,1.59c.17.33.23.71.39,1a32.59,32.59,0,0,0,1.78,3.15c.49.76,1.22,1.32,1.68,2.09a31.41,31.41,0,0,1,3,7.74,5.41,5.41,0,0,1,.25,2.55,5.62,5.62,0,0,0-.09,2,6.45,6.45,0,0,0,.85,2,17.89,17.89,0,0,1,1.34,5A13.58,13.58,0,0,1,135,58a38.17,38.17,0,0,0-.28,8.27,15.76,15.76,0,0,1-.3,4.49c-.18,1.17-.4,2.33-.64,3.48-.05.24,0,0,.06,0l-.43.21-1.74.88c-.38.19-.77.37-1.14.57l-5.15,2.79-25.1,13.62-23.9,13-3.68,2c-.27.14,0,.54.23.39,4.94-2.67,9.89-5.32,14.82-8l27.67-15,15.44-8.37c.68-.37,1.38-.69,2.07-1s1.26-.41,1.4-1.1c.54-2.55,1.25-5.42.91-8a38.54,38.54,0,0,1,.29-8.24,13.11,13.11,0,0,0-.21-3.19,21.29,21.29,0,0,0-1.27-5,14.84,14.84,0,0,1-.88-1.79,5,5,0,0,1,.08-2.39,5.28,5.28,0,0,0-.27-2.39,34.89,34.89,0,0,0-2.95-7.7,18.6,18.6,0,0,0-1.56-2,27.28,27.28,0,0,1-2-3.39c-.4-.77-.66-1.6-1.14-2.37A31.38,31.38,0,0,0,122.55,24a20.58,20.58,0,0,0-3.11-3.08c-.93-.7-2-1.16-3-1.86a33.9,33.9,0,0,1-5.54-5,9.91,9.91,0,0,0-4.43-3.28,12,12,0,0,1-3.3-2c-.81-.58-1.62-1.18-2.4-1.79a8.27,8.27,0,0,0-4.44-1.75,10.81,10.81,0,0,0-1.8,0l-.45,0c-.24,0,.17.09,0,0-.71-.41-1.45-.76-2.19-1.1A41.39,41.39,0,0,0,80.64.72,29.5,29.5,0,0,0,68.2,2a37.87,37.87,0,0,0-3.88,1.35l-.71.3a2.61,2.61,0,0,1-.74,0c-.62,0-1.23.07-1.84.14A34.1,34.1,0,0,0,49.56,7.32,15.18,15.18,0,0,0,46.3,9.4c-1.14,1-2.19,2.13-3.24,3.23s-2,2.15-3,3.25c-.23.26-.47.52-.7.79-.08.09-.07.06,0,0l-.36.12c-2.57.85-5.42,1.73-7.63,3.33a6.55,6.55,0,0,0-2.22,3.67,10.68,10.68,0,0,0-.33,1.59,2.7,2.7,0,0,0,0,.28c0-.19.08-.14-.13,0-2.32,1.59-4.85,3.41-6.39,5.8a6,6,0,0,0-1.07,4.11,1.19,1.19,0,0,0,.07.27c-.05-.14.08-.2-.12,0-.41.42-.81.85-1.21,1.28A32.7,32.7,0,0,0,16.75,41c-.68,1-1.49,2.53-.9,3.75a1.2,1.2,0,0,0,.18.31c.09.11.07-.28,0-.1-.2.35-.4.71-.61,1.06-.8,1.37-1.64,2.71-2.54,4-.49.71-1,1.41-1.54,2.08s-1,1-1.38,1.61A8.88,8.88,0,0,0,8.76,58a19,19,0,0,0,0,3.29,16.06,16.06,0,0,1-.38,2.17,22.49,22.49,0,0,0-.14,6c.1.75.35,1.83,1.1,2.21a.74.74,0,0,0,.29.08l-.21-.21a49.79,49.79,0,0,0,1.29,9.32c.2,1,.41,2,.64,3a1.16,1.16,0,0,0,0,.18c-.05-.19,0,0-.06.16-.17.71-.39,1.41-.63,2.1a23.25,23.25,0,0,1-1.43,3.28,16.38,16.38,0,0,0-1.5,3.2,5.69,5.69,0,0,0,0,3.32c0,.13,0-.11-.1-.06-.22.13-.42.28-.63.42a12.79,12.79,0,0,0-1,.81,13.73,13.73,0,0,0-2,2.22,21.26,21.26,0,0,0-2.77,5.38,16.34,16.34,0,0,0-.77,5.43,19,19,0,0,0,.79,5.35,17.81,17.81,0,0,0,6,8.92A53.59,53.59,0,0,0,12.57,128,37.6,37.6,0,0,0,18.52,131,17.78,17.78,0,0,0,25,132.27c2.23,0,4.45.07,6.68,0a29.76,29.76,0,0,0,7.86-1c2.41-.68,4.56-1.94,6.88-2.85,3.48-1.36,8.61-2.76,9.83-6.81.06-.17-.22-.25-.27-.07Z"/><path class="cls-8" d="M128.76,163.8c-8.51-2-15.71-4.58-19.63-12.76-6.22-13.09-3.28-25.53-3.28-39.27H56.44c0,13.74,3,26.18-3.27,39.27-3.93,8.18-11.12,10.79-19.63,12.76h.65c14.4,0,28.13,4.69,42.21,5.89,26.84,2.29,33.71-4.58,53-5.56Z"/><path class="cls-1" d="M132.79,84.39A63.66,63.66,0,0,1,132.14,68c.22-4.15-2.18-9.16-4.14-18.11s-5.67-16.14-12.44-19.19-11.34-2.84-11.34-2.84l-2.4-1.53s-1.31,1.75-3.06,1.31-9.16-2-9.16-2a29.28,29.28,0,0,1-6.76,2.18,40.67,40.67,0,0,1-5.24.44s-8.29,5-14,5c0,0-2,3.93-3.49,4.15a27.55,27.55,0,0,1-3.92,3,61.89,61.89,0,0,0-3.93,5.24,11.91,11.91,0,0,1-1.75,3.27,9.38,9.38,0,0,1,0,5.24c-.87,2.4-2.18,5.23-2.18,5.23s.22,2.84-.65,3.93c0,0,.87,2.62,0,3.27a7.34,7.34,0,0,0-.22,3.49c.43,1.31,1.09,3.27.43,4.58a6.38,6.38,0,0,1-.21,4.58l-.66-.21c-3.05-1.75-4.8-3.71-7.41-5.89,0,0-4.8-.88-6.33,3.49s2,15.27,3.49,17.67a100.3,100.3,0,0,0,6.76,8.29c1.31,1.52,4.58,3.92,6.33,3,0,0,2.83,12.65,12,19.63s19.41,13.75,25.74,15.27,19.85,3.71,26.18-4.58C125.05,121.38,135.94,103.78,132.79,84.39Z"/><path class="cls-9" d="M132.79,84.39a59.59,59.59,0,0,1-.86-12.2C125.6,74.61,119.8,81,117,89.54c-4.1,12.55-.2,25.15,8.71,28.6C131.3,107.75,134.75,96.42,132.79,84.39Z"/><path class="cls-10" d="M52.84,106.53l5.24,13.09,0,.1a13.61,13.61,0,0,0,4.42-.61c9.41-3,13.73-15.85,9.65-28.76-4-12.76-14.75-20.76-24.09-18.08a4,4,0,0,1-.15,2.52,6.38,6.38,0,0,1-.21,4.58l-.58-.19,3.09,15.25Z"/><path class="cls-11" d="M54.7,103.37c-5.1-8.82-6.32-22.74-6.52-25.48a5,5,0,0,1-.46,1.48l-.66-.21c-.57-.33-1.1-.67-1.59-1,2,3.18,2.93,10.77,3.12,12.13a52.78,52.78,0,0,1,1.31,9.6,9.93,9.93,0,0,1-1.64,6,2.39,2.39,0,0,0,1.64-.08s2.83,12.65,12,19.63c4.44,3.39,9.14,6.72,13.53,9.44C63.61,125.69,60.34,113.13,54.7,103.37Z"/><path class="cls-12" d="M113.16,112.86c0,3.92-4.93,7.09-11,7.09s-11-3.17-11-7.09,4.93-7.09,11-7.09S113.16,108.94,113.16,112.86Z"/><path class="cls-13" d="M60.15,65.85s-3-23.34,9.38-30.32,40.36-8.73,50.83,3.27c0,0,6.76,7.63,7.64,27.7l-19,5-31.85-.65Z"/><path class="cls-14" d="M128,49.92c-2-8.94-5.67-16.14-12.44-19.19s-11.34-2.84-11.34-2.84l-2.4-1.53s-1.31,1.75-3.06,1.31-9.16-2-9.16-2a29.28,29.28,0,0,1-6.76,2.18,40.67,40.67,0,0,1-5.24.44s-8.29,5-14,5c0,0-2,3.93-3.49,4.15a27.55,27.55,0,0,1-3.92,3,61.89,61.89,0,0,0-3.93,5.24,11.91,11.91,0,0,1-1.75,3.27,9.38,9.38,0,0,1,0,5.24c-.87,2.4-2.18,5.23-2.18,5.23s.22,2.84-.65,3.93c0,0,.87,2.62,0,3.27a7.34,7.34,0,0,0-.22,3.49c.43,1.31,1.09,3.27.43,4.58a6.52,6.52,0,0,1-.13,4.4l.13.18s7-4.58,8.08-11.12-2.4-25.52,12.43-33.81c8.39-4.69,18.72-5.83,28.18-5.44,7.57.32,15.94,1,22,6.12,5.7,4.85,8.8,14,9.63,21.35.93,8.18,1.39,12.4,3.8,13.87,0-.79.09-1.55.13-2.31C132.36,63.88,130,58.87,128,49.92Z"/><path class="cls-15" d="M57.92,78.23s-6.06-8.18,1.8-12.76c0,0,7.69-3.6,13.9-2a99,99,0,0,1,12.27,4.26s2.62,9.16-3.6,14.23L72,81.66l-10-1.3Z"/><path class="cls-16" d="M107.49,81.34s-3.11-9.33.65-14.24l6.39-3.43,5.89-.17,3.6.17,2.78,1.8,2.94,2.78s.49,7.69-3.6,9.65S115,80.85,115,80.85Z"/><path class="cls-17" d="M48.15,95.52c-1-1.65-1.91-2.17-1.95-4.09,0-1.46.68-2.4.07-3.92A35.78,35.78,0,0,0,43,81.3c-1.64-2.48-5.76-7.9-8.58-3.67,0,0,.65,10.91,3.27,15.05a41,41,0,0,0,7.2,8.07c1.31,1.31,1.31-2,2.18-2.83A4.92,4.92,0,0,0,48.15,95.52Z"/><path class="cls-18" d="M39.65,81.12c0,2-3.93,4.8.87,12,0,0-2.18-4.58-.44-7.2l1.53-2.4s2,3.71,2,5S42.48,94,44.66,96.17a2.46,2.46,0,0,0,3-1.46c-.76-1.08-1.39-1.71-1.42-3.28s.68-2.4.07-3.92A35.78,35.78,0,0,0,43,81.3c-1.64-2.48-5.76-7.9-8.58-3.67,0,0,0,.24.05.64l.17.23S39.65,79.16,39.65,81.12Z"/><path class="cls-2" d="M47.08,79.12a33.32,33.32,0,0,1-5.52-4.24c-.78-.7-1.43-1.65-2.51-1.72a5.52,5.52,0,0,0-5.62,3.16c-1.1,2.68-.45,6,.12,8.69a39.39,39.39,0,0,0,2.71,8.55,16.48,16.48,0,0,0,2.08,3.1c1.14,1.47,2.36,2.88,3.58,4.29,1.82,2.1,4,4.92,7,5.1.24,0,.88-.07.85-.21,0,.17.08.34.13.51.2.79.45,1.57.71,2.34a43.23,43.23,0,0,0,3.53,7.85,30.76,30.76,0,0,0,7.06,8.5,136.26,136.26,0,0,0,11.88,8.49,69,69,0,0,0,11,6.1,35.26,35.26,0,0,0,8.34,2.14c6.23.95,13.48,1,18.79-2.93a17.37,17.37,0,0,0,3.52-3.74q2.07-2.73,4-5.52a114.22,114.22,0,0,0,7.31-11.77c4.22-7.91,7.2-16.59,7.44-25.61.12-4.73-.93-9.31-1.29-14a74.3,74.3,0,0,1,.08-9.67A25.66,25.66,0,0,0,130.91,60c-.58-2-1.16-4-1.69-6-.6-2.29-1.06-4.62-1.68-6.91a32.79,32.79,0,0,0-4.8-10.64A18.84,18.84,0,0,0,114.47,30a29.62,29.62,0,0,0-9.16-2.32c-.29,0-.57,0-.86,0h-.21c.05,0,.13.06,0-.05l-2.26-1.44a.26.26,0,0,0-.34.09,4.13,4.13,0,0,1-1.16,1,3,3,0,0,1-2.29.06c-1.34-.3-2.68-.58-4-.87l-3.78-.79a1.82,1.82,0,0,0-1.44.14,29,29,0,0,1-11,2.33,2.62,2.62,0,0,0-1.22.51c-1.16.66-2.36,1.26-3.56,1.82-2.93,1.36-6.18,2.66-9.45,2.69a.24.24,0,0,0-.21.12A17.27,17.27,0,0,1,61.71,36a15.68,15.68,0,0,1-2.34,1.9c-.6.52-1.2,1-1.83,1.51-.3.23-.6.45-.91.65a3,3,0,0,0-.6.37Q55,41.68,54,43a13,13,0,0,0-2,3,14.33,14.33,0,0,1-1,2.06c-.24.41-.75.74-.62,1.23a9,9,0,0,1-.32,5.7c-.57,1.5-1.21,3-1.87,4.43a3.89,3.89,0,0,0,0,1.32,8.21,8.21,0,0,1-.15,1.4c-.09.47-.39.83-.51,1.26a.84.84,0,0,0,.08.38,8.77,8.77,0,0,1,.25,1.13,3,3,0,0,1,0,1.34c-.07.25-.28.38-.34.64a7.85,7.85,0,0,0-.29,2.73c.09,1.2.72,2.31.83,3.54a4.05,4.05,0,0,1,0,.92c0,.25-.23.48-.23.72a3,3,0,0,0,.15.57,5.88,5.88,0,0,1-.32,3.92c-.1.22.23.41.33.19a6.55,6.55,0,0,0,.29-4.63c0-.15.15-.48.19-.65a4.06,4.06,0,0,0,0-1.3A15,15,0,0,0,47.65,70a5.85,5.85,0,0,1,.16-2.72c.1-.45.39-.7.48-1.17a4.65,4.65,0,0,0-.12-1.78c-.05-.25-.12-.49-.18-.73s.11-.27.23-.56a7.84,7.84,0,0,0,.38-3.47c0,.19.07-.11.12-.23.14-.29.27-.59.4-.89.41-.92.8-1.86,1.17-2.8A10,10,0,0,0,51,49.92c0-.25-.11-.51-.17-.77s0,0,.15-.23a10.73,10.73,0,0,0,1.2-2.21,26.34,26.34,0,0,1,4.18-5.94,8.55,8.55,0,0,1,1.43-1c.62-.47,1.22-1,1.81-1.49a3.13,3.13,0,0,1,.84-.64,3.37,3.37,0,0,0,1.39-1.09,14.52,14.52,0,0,0,2-3,.93.93,0,0,0,.05-.1c-.11.22.28.1.37.1.36,0,.72-.06,1.07-.11A21.06,21.06,0,0,0,68,32.88a41.7,41.7,0,0,0,8.68-3.75c.28-.16.56-.31.84-.48s0-.07.25-.08a39.51,39.51,0,0,0,4.74-.39,23.29,23.29,0,0,0,5.3-1.46c.52-.2,1-.41,1.55-.64l.34-.15c-.17.08-.23,0,0,.05,2.26.46,4.51.94,6.76,1.42a11.27,11.27,0,0,0,3.18.57,3.66,3.66,0,0,0,2.4-1.48l-.34.09,2.37,1.5c.31.2,1,.07,1.36.1a28.93,28.93,0,0,1,10.79,3.13C123.66,35.1,126.3,43.68,128,51.22c.93,4,2.22,7.87,3.21,11.84a19.63,19.63,0,0,1,.67,4.23c0,1.37-.13,2.76-.2,4.13a62.3,62.3,0,0,0,.57,11.17,68,68,0,0,1,.81,7.4,43.48,43.48,0,0,1-.33,6.84c-1.13,9.25-5.09,17.94-9.87,25.84-2.38,3.93-5,7.7-7.76,11.39a21.43,21.43,0,0,1-4,4.5,15.59,15.59,0,0,1-4.6,2.33c-6,2-12.79,1.09-18.81-.35-3.68-.88-7.13-2.83-10.37-4.72a141.92,141.92,0,0,1-12.18-8.15,41,41,0,0,1-7.52-6.57A36.25,36.25,0,0,1,53,113.94a37.27,37.27,0,0,1-3-8.2c0-.06-.09-.07-.14,0-1.72.76-3.93-1-5.16-2a28.19,28.19,0,0,1-2.91-3.17c-2-2.31-4.35-4.68-5.6-7.51a41.54,41.54,0,0,1-2.75-9.27c-.55-3-1.11-6.95,1.42-9.23a6,6,0,0,1,4.72-1.22c.4.06,1,.84,1.33,1.11l2,1.75a27,27,0,0,0,4.17,3,0,0,0,0,0,0-.07Z"/><path class="cls-19" d="M48.39,95.38a14.94,14.94,0,0,1-1.86-3.24c-.35-1.23.22-2.59,0-3.85a14.06,14.06,0,0,0-1.7-4,35.06,35.06,0,0,0-2.2-3.68c-1.71-2.51-5.67-7-8.3-3,0,0,.05.08.08,0,1.87-2.53,4.14-1.28,6,.64h0c.41,1.32,1.27,2.49,1.25,3.92s-1.2,2.38-1.88,3.5c-1.4,2.3,0,5.18.91,7.4h0A24.26,24.26,0,0,1,39.51,89a5,5,0,0,1,1.36-4.3,4.23,4.23,0,0,0,1.12-3,8.06,8.06,0,0,0-1.17-3.09,26.14,26.14,0,0,1,2.37,3.17,32.26,32.26,0,0,1,2,3.57c.34.69.66,1.39,1,2.11a3.06,3.06,0,0,1,0,2.36,4.9,4.9,0,0,0,0,3,12.82,12.82,0,0,0,1.74,2.72A.27.27,0,0,0,48.39,95.38ZM45.6,87a.07.07,0,0,0-.13,0,4.06,4.06,0,0,1-.67,2.7,8.35,8.35,0,0,0-1.14,1.75c-.72,1.89.72,4,1.65,5.59,0,0,0,0,0,0-1-1.9-2.44-4.23-1.07-6.28C45.07,89.55,46,88.57,45.6,87Z"/><path class="cls-20" d="M83.44,119s6.54,4.25,7.69,5.23a13,13,0,0,0,9.33,3.77c5.39,0,8.18-.49,10.3-4.09a70.77,70.77,0,0,1,4.42-6.55l-8,1.48s-10.3.49-10.8.65-7.52.33-7.52.33Z"/><path class="cls-21" d="M107.16,118.81s-10.3.49-10.8.65-7.52.33-7.52.33l-5.4-.82s2,1.3,4,2.63c2.47.05,9.44.21,11.72.48,2.44.28,9.69.19,13.19-.72,1.54-2.36,2.84-4,2.84-4Zm-14.72,6.38-.06.07a12.63,12.63,0,0,0,8.08,2.71c5.39,0,8.18-.49,10.3-4.09-1.47,1.31-3.92,2.61-8.83,2.78A29.21,29.21,0,0,1,92.44,125.19Z"/><path class="cls-22" d="M92.44,123.88a26.44,26.44,0,0,0,10.63,2c5.24-.33,7.37-3,7.37-3s-4.83.17-7.61-.08A35.9,35.9,0,0,0,92.44,123.88Z"/><path class="cls-21" d="M113.22,117c-1.51,0-5-2.94-8-2.13-.81.21-2.29,2-2.29,2s-3.08-2.31-4.91-2c-3.43.65-6.71,3.43-8.83,3.6s-9-1.15-9-1.15c6,3.77,12.59,3.44,19.3,3.27l.32.15-.15,0a7,7,0,0,0,1,.37l.63.28.39-.08a5.88,5.88,0,0,0,3.79-.86l.89-.2c5.4,0,8.84-1.47,11.79-6.22C118.13,114.06,115.18,117,113.22,117Z"/><path class="cls-23" d="M99.47,120.52c-1.58-.12-3.2,0-4.78,0s-3.14-.06-4.7-.19a22.88,22.88,0,0,1-9.8-3,0,0,0,1,0,0,.07,23.35,23.35,0,0,0,9.24,3.22,34.19,34.19,0,0,0,4.74.3,38.09,38.09,0,0,0,5.34-.2A.09.09,0,1,0,99.47,120.52Zm6.65-.67a10.13,10.13,0,0,1-3.39,1.29,6.16,6.16,0,0,1-3.09-.39s0,0,0,0a6.77,6.77,0,0,0,3.34.79,4.8,4.8,0,0,0,3.31-1.56C106.36,119.91,106.21,119.81,106.12,119.85ZM118.07,114c-.76.86-1.35,1.85-2.17,2.68a11.57,11.57,0,0,1-2.69,2,15.92,15.92,0,0,1-6.87,1.56.06.06,0,0,0,0,.11,14.07,14.07,0,0,0,6.93-1.19,10,10,0,0,0,2.73-2,10.43,10.43,0,0,0,2.19-3C118.22,114,118.12,114,118.07,114Z"/><path class="cls-24" d="M104.91,103.58c-2,.2-4.75-.27-5.93-2.1-1.38-2.13.59-5.21.79-7.51.1-1.07.2-10.58-.75-10.45,1.14-.21,5.7-.89,5.7-.89s.53,9,1.46,11.9c.56,1.74,2.51,3.88,2.37,5.71A4,4,0,0,1,104.91,103.58Z"/><path class="cls-1" d="M98.76,96.83s5-2.4,8.29-.44l-.87-1.86a11,11,0,0,0-7.63,1Z"/><path class="cls-25" d="M92.3,103.38c.52-.64,1.77-2.33,1.67-3.17-.16-1.4-2.18-1.08-3-.41C89.09,101.22,90.07,106.13,92.3,103.38Z"/><path class="cls-26" d="M111.72,103.83a8,8,0,0,1-1.59-3c-.09-1.39,1.33-1.27,2-.7C113.6,101.38,113.64,106.34,111.72,103.83Z"/><path class="cls-27" d="M90.26,105a6.9,6.9,0,0,0,2.72-.55c1-.54,3.71-1.85,6.11-1s6.76,3,10.15-.44a3.25,3.25,0,0,1,2.94,3.17,3.86,3.86,0,0,1-2,1.52,10.32,10.32,0,0,1-8.18,3.93c-5.46,0-10.69-4.36-10.69-4.36A4.29,4.29,0,0,1,90.26,105Z"/><path d="M94.73,105.66a4.38,4.38,0,0,1,3.49-.54A2.79,2.79,0,0,1,94.73,105.66Z"/><path d="M110.22,105.55s-.33-.76-1.75-1l-.87,1S109.34,106.42,110.22,105.55Z"/><path class="cls-28" d="M90.75,106a9.59,9.59,0,0,1-1.37-5.19.05.05,0,1,0-.1,0,9.15,9.15,0,0,0,1.28,5.68c1.16,1.68,3.09,2,5,2,0,0,0,0,0,0A6.66,6.66,0,0,1,90.75,106Zm2.79.67a.05.05,0,1,0,.09,0c1.24-1.9,3.75-1.68,5.65-1.21a.12.12,0,0,0,.09-.23C97.7,104.06,94.49,104.91,93.54,106.67Zm17-.46s0,0,0,0a2,2,0,0,0-1.84-1.73,4.12,4.12,0,0,0,.75-1.86c0-.1-.12-.1-.15,0a7.17,7.17,0,0,1-3.63,4.11,5.61,5.61,0,0,1-5.94-.52s0,0,0,0a5.46,5.46,0,0,0,5.85.72,7.62,7.62,0,0,0,3-2.26h0A2,2,0,0,1,110.58,106.21Zm2.19-5.94c0-.07-.13,0-.1.08a5.58,5.58,0,0,1,.39,4.29,5.43,5.43,0,0,1-3,3.11c-.11,0,0,.23.08.19C113.16,106.92,115,103,112.77,100.27Zm-4.41-1.8a4.91,4.91,0,0,1,1.07,2.66s0,0,0,0A7.11,7.11,0,0,0,107.83,97a8.28,8.28,0,0,1-1.38-2.73c-.24-1-.32-2-.58-3,0,0,0,0,0,0a25.78,25.78,0,0,0,1.23,5.31A10.15,10.15,0,0,0,108.36,98.47Z"/><path class="cls-29" d="M55.63,68.58s5.56-3.93,10-4.09a42.27,42.27,0,0,1,13.08,2,36.79,36.79,0,0,0,7.53,1.31S83.77,63.5,82.78,63,65.28,57.94,55.63,68.58Z"/><path class="cls-30" d="M130.23,68.58s-4-3.93-7.26-4.09a23.22,23.22,0,0,0-9.52,2A20.09,20.09,0,0,1,108,67.76s1.79-4.26,2.5-4.75S123.21,57.94,130.23,68.58Z"/><path class="cls-31" d="M59.4,76.76c2-2.42,5.45-3.47,8.46-3.82a27,27,0,0,1,9.35.57,0,0,0,1,0,0-.06c-5.74-1.78-13.88-2-17.85,3.3,0,0,0,0,0,0Z"/><path class="cls-31" d="M115,71.86a17.28,17.28,0,0,1,6.21.23,6.27,6.27,0,0,1,4.34,4.2.08.08,0,0,0,.16-.05,5.68,5.68,0,0,0-3.84-4.39c-2.19-.76-4.65-.39-6.88,0,0,0,0,0,0,0Z"/><path d="M78.21,83S66.43,89.1,58.08,78.18a9.36,9.36,0,0,0,4.56-.4c2.22-.86,10.49-5.86,17.74,1.88L75.83,82Z"/><path class="cls-32" d="M62.9,80.71c4.36,4.71,11.84,3.88,17.85,1.22l1.63-.15-1.1-1.21C77.49,74.82,66.2,75.33,62,80.29Z"/><path class="cls-33" d="M75.22,79.14a4.67,4.67,0,0,0-1.07-2.57,16.14,16.14,0,0,0-7.6.76,4.63,4.63,0,0,0,2.54,6.57,15.21,15.21,0,0,0,2.35.18A4.63,4.63,0,0,0,75.22,79.14Z"/><path class="cls-34" d="M71,83.61a4.09,4.09,0,0,0,3.73-4.43,4.14,4.14,0,0,0-1.37-2.71,16.34,16.34,0,0,0-6,.6A4.08,4.08,0,0,0,71,83.61Z"/><path d="M73,79.33a2.41,2.41,0,1,1-2.62-2.2A2.41,2.41,0,0,1,73,79.33Z"/><path class="cls-35" d="M72.31,79.39a1.71,1.71,0,1,1-1.85-1.55A1.7,1.7,0,0,1,72.31,79.39Z"/><path class="cls-32" d="M71.42,77.45a1,1,0,1,1-1.07-.89A1,1,0,0,1,71.42,77.45Z"/><path class="cls-32" d="M71.29,81.85a.48.48,0,1,1-.52-.44A.48.48,0,0,1,71.29,81.85Z"/><path d="M81.31,80.55c-2-3.1-5.81-4.27-9.33-4.34-3.7-.07-7.57,1.14-10,4.07,0,0,0,0,0,0,2.31-2.58,6.24-3.58,9.56-3.69,3.54-.12,7.5.95,9.64,4C81.28,80.61,81.33,80.58,81.31,80.55Zm-.58,1.35c-1.5.49-3,1.11-4.49,1.49a20.1,20.1,0,0,1-4.82.62,11.55,11.55,0,0,1-8.51-3.31s0,0,0,0A11.34,11.34,0,0,0,71,84.15a18.79,18.79,0,0,0,4.84-.5A18.58,18.58,0,0,0,80.76,82S80.77,81.88,80.73,81.9Z"/><path d="M111.34,82.16s10.35,5.21,16.74-6.33a6.78,6.78,0,0,1-3.89,0c-1.94-.68-9.25-5-14.9,3.25l4,2Z"/><path class="cls-32" d="M124.16,78.73c-3.4,5-9.78,4.78-15,2.59l-1.39,0,.84-1.3c2.85-6,12.44-6.38,16.28-1.75Z"/><path class="cls-36" d="M120.34,78.17a4.75,4.75,0,0,0-1.25-2.94,11.27,11.27,0,0,0-7.16,1.23,4.72,4.72,0,0,0,2.34,6.24,13.33,13.33,0,0,0,3.4,0A4.62,4.62,0,0,0,120.34,78.17Z"/><path class="cls-37" d="M116.17,82.52a4,4,0,0,0,3.66-4.32,4.12,4.12,0,0,0-1.62-3.07,11.42,11.42,0,0,0-5.46.91,4.22,4.22,0,0,0-.72,2.63A4,4,0,0,0,116.17,82.52Z"/><path d="M118.23,78.3A2.31,2.31,0,1,1,115.79,76,2.35,2.35,0,0,1,118.23,78.3Z"/><path class="cls-38" d="M117.56,78.34a1.63,1.63,0,1,1-1.73-1.61A1.68,1.68,0,0,1,117.56,78.34Z"/><path class="cls-32" d="M116.75,76.38a.94.94,0,1,1-1-.93A1,1,0,0,1,116.75,76.38Z"/><path class="cls-32" d="M116.53,80.76a.49.49,0,0,1-.43.51.48.48,0,0,1-.06-1A.48.48,0,0,1,116.53,80.76Z"/><path d="M108.61,80a9.12,9.12,0,0,1,7.9-4.69c2.82-.14,6.21.55,8.33,2.94a0,0,0,0,0,0,0A9.53,9.53,0,0,0,116.19,75a9.21,9.21,0,0,0-7.63,5S108.59,80.05,108.61,80Zm.5,1.33a14,14,0,0,0,4.28,1.31,13.38,13.38,0,0,0,4.14.13,9.28,9.28,0,0,0,6.64-4s0,0,0,0a9.37,9.37,0,0,1-7,4,14.62,14.62,0,0,1-4.12-.25c-1.33-.26-2.59-.77-3.9-1.14C109.1,81.28,109.08,81.33,109.11,81.34Z"/></g></g></svg>