<svg xmlns="http://www.w3.org/2000/svg" xmlns:xlink="http://www.w3.org/1999/xlink" viewBox="0 0 131.89 171.95"><defs><style>.cls-1{fill:url(#linear-gradient);}.cls-2{fill:url(#linear-gradient-2);}.cls-3{fill:url(#linear-gradient-3);}.cls-4{fill:url(#linear-gradient-4);}.cls-5{fill:#ffc2a7;}.cls-6{fill:url(#radial-gradient);}.cls-7{fill:url(#radial-gradient-2);}.cls-8{fill:url(#radial-gradient-3);}.cls-9{fill:url(#linear-gradient-5);}.cls-10{fill:url(#linear-gradient-6);}.cls-11{fill:url(#linear-gradient-7);}.cls-12{fill:url(#linear-gradient-8);}.cls-13{fill:url(#linear-gradient-9);}.cls-14{fill:url(#linear-gradient-10);}.cls-15{fill:url(#linear-gradient-11);}.cls-16{fill:url(#linear-gradient-12);}.cls-17{fill:url(#linear-gradient-13);}.cls-18{fill:url(#linear-gradient-14);}.cls-19{fill:url(#linear-gradient-15);}.cls-20{fill:#a9563f;}.cls-21{fill:#f3735c;}.cls-22{fill:url(#radial-gradient-4);}.cls-23{fill:#f36252;}.cls-24{fill:#c22537;}.cls-25{fill:url(#linear-gradient-16);}.cls-26{fill:url(#linear-gradient-17);}.cls-27{fill:url(#linear-gradient-18);}.cls-28{fill:url(#linear-gradient-19);}.cls-29{fill:url(#linear-gradient-20);}.cls-30{fill:url(#linear-gradient-21);}.cls-31{fill:#131f23;}.cls-32{fill:url(#linear-gradient-22);}.cls-33{fill:url(#linear-gradient-23);}.cls-34{fill:url(#linear-gradient-24);}.cls-35{fill:#fff;}.cls-36{fill:url(#linear-gradient-25);}.cls-37{fill:url(#linear-gradient-26);}.cls-38{fill:url(#linear-gradient-27);}.cls-39{fill:url(#linear-gradient-28);}.cls-40{fill:url(#linear-gradient-29);}.cls-41{fill:url(#linear-gradient-30);}</style><linearGradient id="linear-gradient" x1="77.31" y1="141.13" x2="77.31" y2="169.1" gradientUnits="userSpaceOnUse"><stop offset="0"/><stop offset="1" stop-color="#3a5b6f"/></linearGradient><linearGradient id="linear-gradient-2" x1="100.27" y1="149.42" x2="100.27" y2="163.01" gradientUnits="userSpaceOnUse"><stop offset="0"/><stop offset="1" stop-color="#2e4858"/></linearGradient><linearGradient id="linear-gradient-3" x1="63.2" y1="121.83" x2="63.2" y2="149.65" gradientUnits="userSpaceOnUse"><stop offset="0" stop-color="#d4866f"/><stop offset="1" stop-color="#ffc2a7"/></linearGradient><linearGradient id="linear-gradient-4" x1="63.23" y1="121.75" x2="63.23" y2="149.68" xlink:href="#linear-gradient-3"/><radialGradient id="radial-gradient" cx="-157.9" cy="-204.88" r="59.42" gradientTransform="matrix(0.29, 0.02, -0.01, 0.2, 122.95, 159.36)" gradientUnits="userSpaceOnUse"><stop offset="0" stop-color="#ffd9bd"/><stop offset="1" stop-color="#ffc2a7"/></radialGradient><radialGradient id="radial-gradient-2" cx="-743.83" cy="-1278.42" r="59.43" gradientTransform="matrix(0.09, 0.37, -0.26, 0.06, -224.96, 455.2)" gradientUnits="userSpaceOnUse"><stop offset="0" stop-color="#ffa191"/><stop offset="1" stop-color="#ffc2a7"/></radialGradient><radialGradient id="radial-gradient-3" cx="-1027.39" cy="-1652.23" r="59.42" gradientTransform="matrix(-0.12, 0.36, -0.26, -0.09, -435.16, 333.63)" xlink:href="#radial-gradient-2"/><linearGradient id="linear-gradient-5" x1="75.92" y1="28.52" x2="75.92" y2="65.55" gradientTransform="matrix(1, 0, 0, 1, 0, 0)" xlink:href="#radial-gradient"/><linearGradient id="linear-gradient-6" x1="55.28" y1="62.5" x2="55.28" y2="81.67" xlink:href="#linear-gradient-3"/><linearGradient id="linear-gradient-7" x1="102.88" y1="63.39" x2="102.88" y2="81.69" xlink:href="#linear-gradient-3"/><linearGradient id="linear-gradient-8" x1="74.02" y1="66.46" x2="74.02" y2="134.23" gradientUnits="userSpaceOnUse"><stop offset="0" stop-color="#d4866f"/><stop offset="1" stop-color="#ffad96"/></linearGradient><linearGradient id="linear-gradient-9" x1="73.84" y1="103.92" x2="75.65" y2="105.38" gradientTransform="matrix(1, 0, 0, 1, 0, 0)" xlink:href="#radial-gradient"/><linearGradient id="linear-gradient-10" x1="90.57" y1="104.32" x2="88.91" y2="105.61" gradientTransform="matrix(1, 0, 0, 1, 0, 0)" xlink:href="#radial-gradient"/><linearGradient id="linear-gradient-11" x1="80.78" y1="102.73" x2="93.25" y2="92.09" xlink:href="#linear-gradient-3"/><linearGradient id="linear-gradient-12" x1="89.8" y1="107.54" x2="68.53" y2="91.7" xlink:href="#linear-gradient-3"/><linearGradient id="linear-gradient-13" x1="83.27" y1="100.36" x2="83.27" y2="81.61" gradientTransform="matrix(1, 0, 0, 1, 0, 0)" xlink:href="#radial-gradient"/><linearGradient id="linear-gradient-14" x1="81.57" y1="106.97" x2="81.57" y2="116.51" xlink:href="#linear-gradient-3"/><linearGradient id="linear-gradient-15" x1="81.81" y1="100.86" x2="81.81" y2="90.8" gradientUnits="userSpaceOnUse"><stop offset="0" stop-color="#a9563f"/><stop offset="1" stop-color="#e9a68c"/></linearGradient><radialGradient id="radial-gradient-4" cx="-65.14" cy="-234.28" r="32.36" gradientTransform="translate(95.53 186.36) rotate(3.12) scale(0.26)" gradientUnits="userSpaceOnUse"><stop offset="0" stop-color="#f38f76"/><stop offset="1" stop-color="#f3735c"/></radialGradient><linearGradient id="linear-gradient-16" x1="52.59" y1="67.27" x2="52.59" y2="65.47" gradientUnits="userSpaceOnUse"><stop offset="0"/><stop offset="1" stop-color="#162329"/></linearGradient><linearGradient id="linear-gradient-17" x1="-2436.35" y1="67.27" x2="-2436.35" y2="65.47" gradientTransform="matrix(-0.65, 0, 0, 1, -1493.05, 0)" xlink:href="#linear-gradient-16"/><linearGradient id="linear-gradient-18" x1="65.93" y1="154.43" x2="65.93" y2="-47.82" gradientUnits="userSpaceOnUse"><stop offset="0"/><stop offset="1" stop-color="#2d4753"/></linearGradient><linearGradient id="linear-gradient-19" x1="75.27" y1="59.1" x2="75.27" y2="6.74" gradientUnits="userSpaceOnUse"><stop offset="0"/><stop offset="1" stop-color="#386375"/></linearGradient><linearGradient id="linear-gradient-20" x1="81.08" y1="34.35" x2="43.8" y2="201.91" xlink:href="#linear-gradient"/><linearGradient id="linear-gradient-21" x1="69.22" y1="-10.04" x2="69.22" y2="103.82" xlink:href="#linear-gradient-18"/><linearGradient id="linear-gradient-22" x1="79.22" y1="42.73" x2="44.55" y2="198.53" gradientUnits="userSpaceOnUse"><stop offset="0"/><stop offset="1" stop-color="#2e4757"/></linearGradient><linearGradient id="linear-gradient-23" x1="66.44" y1="-71.56" x2="66.44" y2="102.05" xlink:href="#linear-gradient-18"/><linearGradient id="linear-gradient-24" x1="65.95" y1="154.64" x2="65.95" y2="-48.16" gradientUnits="userSpaceOnUse"><stop offset="0"/><stop offset="1" stop-color="#1f313a"/></linearGradient><linearGradient id="linear-gradient-25" x1="55.7" y1="82.69" x2="55.7" y2="75.67" gradientUnits="userSpaceOnUse"><stop offset="0" stop-color="#39140a"/><stop offset="1"/></linearGradient><linearGradient id="linear-gradient-26" x1="55.7" y1="82.69" x2="55.7" y2="75.67" gradientUnits="userSpaceOnUse"><stop offset="0.01" stop-color="#652312"/><stop offset="1" stop-color="#210000"/></linearGradient><linearGradient id="linear-gradient-27" x1="55.7" y1="79.22" x2="55.7" y2="81.04" gradientUnits="userSpaceOnUse"><stop offset="0"/><stop offset="1" stop-color="#77726d"/></linearGradient><linearGradient id="linear-gradient-28" x1="99.05" y1="82.69" x2="99.05" y2="75.67" xlink:href="#linear-gradient-25"/><linearGradient id="linear-gradient-29" x1="99.05" y1="82.69" x2="99.05" y2="75.67" xlink:href="#linear-gradient-26"/><linearGradient id="linear-gradient-30" x1="99.05" y1="79.22" x2="99.05" y2="81.04" xlink:href="#linear-gradient-27"/></defs><g id="Layer_2" data-name="Layer 2"><g id="_9_Face" data-name="9_Face"><path d="M131.87,103.88a76.77,76.77,0,0,0-.79-8.37c-.19-1.48-.4-3-.54-4.52-.56-5.61-1-11.78-1.29-18.86a108.94,108.94,0,0,0-2.71-21.31,77.07,77.07,0,0,0-8.83-21.2,62.69,62.69,0,0,0-15.47-17.9A58,58,0,0,0,79.06,1a49.35,49.35,0,0,0-10.2-1A64.56,64.56,0,0,0,52.73,2.19,68.38,68.38,0,0,0,38.81,7.26a2,2,0,0,0-.64.64L38,8.08,36.89,9.4c-.77.9-1.56,1.83-2.41,2.87-1.4,1.69-2.83,3.49-4.26,5.36C27.44,21.25,24.8,25,22.35,28.84A140.83,140.83,0,0,0,2.78,77.12,142.23,142.23,0,0,0,.44,91.44a81.56,81.56,0,0,0-.18,15A53.25,53.25,0,0,0,3,120a45.26,45.26,0,0,0,5.3,10.13c3.33,4.85,12.49,16.2,25.79,17.08a23.59,23.59,0,0,0,4.39,2.87,28.08,28.08,0,0,1-2.06,4.44,18.28,18.28,0,0,1-7.19,6.85,39.84,39.84,0,0,1-8.18,3.11.5.5,0,0,0,.14,1h.56c7.16.07,14.33,1.65,21.27,3.18,1.8.4,3.68.82,5.52,1.19A93.88,93.88,0,0,0,67.69,172c1.82,0,3.64-.07,5.4-.2A89.69,89.69,0,0,0,89,168.8a94.66,94.66,0,0,1,16.22-2.94.55.55,0,0,0,.51-.58.54.54,0,0,0-.53-.53l-.35-.2a.31.31,0,0,0-.1-.05,36.3,36.3,0,0,1-9.33-3.78A18.08,18.08,0,0,1,91.09,157a29.41,29.41,0,0,0,12.75-11.47,38.61,38.61,0,0,0,5-14.62,46.51,46.51,0,0,0,.46-4.69,31.62,31.62,0,0,1,.79,13.16c-.59,4.37-2.2,10.37-6.52,14.22a29.61,29.61,0,0,1-3.22,1.31,26.46,26.46,0,0,1-5,1.22.74.74,0,0,0-.65.75.7.7,0,0,0,.68.68c.75.05,1.49.07,2.22.07a28.57,28.57,0,0,0,13.71-3.27,30.34,30.34,0,0,0,10.66-10c4.84-7.18,7.87-16.43,9.28-28.28A87.51,87.51,0,0,0,131.87,103.88Z"/><path class="cls-1" d="M124.92,114.13c-.49-1.47-2-22.09-2-22.09l-10.8-6.87-20.61,28s-8.84,21.59-8.84,26.5,6.61,17.47,6.61,17.47c21.38-8.72,19.19-34.68,19.19-34.68,4.59,8.94,3.06,25.74-5.23,32.06l8.88-3.07,5.4-5.89s6.38-14.72,6.38-16.2S125.41,115.6,124.92,114.13Zm-94.73-6.38c-3.43,7.85,9.33,35.83,9.33,35.83h6.87s3.44-14.73,3.93-17.18-6.87-19.14-6.87-19.14S33.63,99.9,30.19,107.75Z"/><path class="cls-2" d="M103.32,154.56c4.66-3.51,6.8-9.47,7.59-15.06s.4-12-2.22-17.17a.21.21,0,0,0-.38.11,35.64,35.64,0,0,1-.18,6.69A40.31,40.31,0,0,1,104,143.57a29.32,29.32,0,0,1-14.69,13.5c-.07,0,0,.14,0,.11a28.94,28.94,0,0,0,14.08-12,42.39,42.39,0,0,0,5.3-22.78l-.38.1c2.58,5.1,3,11.27,2.2,16.86s-2.82,11.49-7.31,15c-.06.05,0,.16.09.11Z"/><path class="cls-3" d="M104.61,165c-7.45-2-13.75-4.58-17.19-12.76C82,139.12,84.55,126.69,84.55,113H41.27c0,13.74,2.58,26.17-2.86,39.26C35,160.39,28.66,163,21.21,165h.57c12.61,0,24.64,4.69,37,5.89,23.5,2.3,29.52-4.58,46.43-5.56Z"/><path class="cls-4" d="M37.35,154.84a37,37,0,0,0,4.11-12.91A74.9,74.9,0,0,0,42,128.21c-.17-5.09-.52-10.17-.65-15.26,0-.17-.21-.17-.22,0-.22,9.53,1.26,19.08-.08,28.57a37.11,37.11,0,0,1-4.2,13.27,18.93,18.93,0,0,1-7.39,7A38.68,38.68,0,0,1,21.21,165h0a36.78,36.78,0,0,0,9.27-3.35A18.4,18.4,0,0,0,37.35,154.84Zm50.8-.59a18.37,18.37,0,0,0,6.69,7.09,34.25,34.25,0,0,0,9.77,3.64h0a36.25,36.25,0,0,1-9.45-3.84,18.86,18.86,0,0,1-7-7.74c-4.22-8.46-4.25-18.58-3.85-28,.17-4.14.42-8.28.32-12.43,0-.17-.21-.17-.22,0-.24,9.35-1.4,18.83-.19,28.14A39.11,39.11,0,0,0,88.15,154.25Zm17,11a80.45,80.45,0,0,0-16.52,2.89,87,87,0,0,1-17,3,93.46,93.46,0,0,1-24.25-2.22c-8.49-1.77-16.94-4-25.62-3.91,0,0,0,0,0,0,9.1.1,18,2.56,26.88,4.39a88.66,88.66,0,0,0,24.4,1.89,89.35,89.35,0,0,0,15.82-2.93,92.77,92.77,0,0,1,16.31-3C105.26,165.36,105.26,165.23,105.19,165.23Z"/><path class="cls-5" d="M115.93,72.26l-.22-7.42-5.89-4.14S89.76,46.52,86.92,41.28s-9.38-15.92-9.38-15.92-9.38,3.05-14.4,11.78S47.22,66.81,41.33,74.66s-9.22,28.47-9.22,28.47c1.31,4.25,2.13,8.51,5.07,12.11A55.78,55.78,0,0,0,57,132.74c13.41,7.2,18.7,9.27,26.45,8.67,8.51-.65,13.63-6.81,17.89-14.83s10.8-18,12.76-27.87c2.34-11.68.33-15.71.33-15.71Z"/><path class="cls-6" d="M80.7,103.85c-9.39-.51-17.29,4.42-17.65,11s7,12.34,16.34,12.86,17.28-4.42,17.64-11S90.08,104.37,80.7,103.85Z"/><path class="cls-7" d="M50.88,120.94c8.61-2,13.27-13.59,10.41-25.87S49.11,74.48,40.5,76.49c-.15,0-.3.08-.44.12-5.1,8.85-8,26.52-8,26.52,1.31,4.25,2.13,8.51,5.07,12.11,0,0,.47.75,1.41,2C42.3,120.43,46.67,121.92,50.88,120.94Z"/><path class="cls-8" d="M113.86,84l.93-6.52c-7.28.39-14.78,7.21-18.1,17.17-3.9,11.76-.5,23.52,7.6,26.56,3.72-6.66,7.77-14.15,9.24-21.51C115.87,88,113.86,84,113.86,84Z"/><path class="cls-9" d="M69.58,71.06s11.77,3.27,21.92.33,14.07-4.58,14.07-4.58.33-7.53-3.27-11.13-11.13-19-14.4-21.27-4.25-8.18-9.82-8.83-16.69,3.27-20.61,7.2-10.8,18-11.13,19,.33,8.83.66,11.12,2.62,3.93,4.25,4.91S69.58,71.06,69.58,71.06Z"/><path class="cls-10" d="M45.52,80.39s-5.72.32-5.4-3S46,66,49.94,66s12.93,1.64,12.93,1.64l4.42,1.3,2.29-.32s2.94,9.16-2,13.58c0,0-7.52-.33-8.18-.33S45.52,80.39,45.52,80.39Z"/><path class="cls-11" d="M92,82.19S88.88,77,90.19,68.77l4.09-.16L98.86,67s9.16-1.14,14.56,1.47c0,0,2.62,4.26,2.46,4.75s-2,7-2,7l-4.9.66Z"/><path class="cls-12" d="M114.41,83l1.52-10.74-.22-7.42-5.89-4.14S89.76,46.52,86.92,41.28s-9.38-15.92-9.38-15.92-9.38,3.05-14.4,11.78S47.22,66.81,41.33,74.66s-9.22,28.47-9.22,28.47c1.31,4.25,2.13,8.51,5.07,12.11a48.6,48.6,0,0,0,8,9.13c-.75-2.63-7.1-26.27.51-42.73,8.07-17.45,15.92-28.36,19.63-37.3A32,32,0,0,1,75.36,31s1.74,12.22,8.29,21.16S91.28,63.32,100.44,67c0,0,11.13,4.58,10.91,13.3-.21,8.23,2.69,14.52,1.93,21.61.31-1.08.58-2.16.8-3.23C116.42,87,114.41,83,114.41,83Z"/><path class="cls-13" d="M73,106c.16,1.08,1.51.4,2-.08s1.37-2.16,1-3c-1-2.28-2.62,2.07-2.89,2.7Z"/><path class="cls-14" d="M90.52,106.81c-.69-.33-2.39-3.22-1.48-3.75,1.27-.72,1.53,2.76,1.64,3.26Z"/><path class="cls-15" d="M89.86,103.13s-2.37-1.88-2.78-2.95a22.2,22.2,0,0,1-.9-10.79s.82-4,1.31-4.42S93.05,94.13,93,99.12s-2.29,7.2-2.29,7.2a14.88,14.88,0,0,0-.25-2.29Z"/><path class="cls-16" d="M73.5,104.33a13.73,13.73,0,0,1,2-3.38c3.35-3.87,2.69-14.62,1.71-15.82s-7.93,3.17-9.24,8.4-.77,10.58,4.91,14.4a4.84,4.84,0,0,1,.32-2.84Z"/><path class="cls-17" d="M86.7,105.2c-.37,2-2.34,2.19-3.94,1.6-4.4-1.61-2.06-6.81-2.06-10.22A138.19,138.19,0,0,0,79.61,82.3l5.56.76s0,12,.44,15.16S87.46,101.82,86.7,105.2Z"/><path class="cls-5" d="M79.94,100.51A6.49,6.49,0,0,1,86.7,100l-.11-.88s-2.94-1.74-6.87.55Z"/><path class="cls-18" d="M73.07,107.49a2.86,2.86,0,0,0,2.07-.22c1.2-.54,3.16-1.74,4-1.74a20.67,20.67,0,0,1,2.18,1.64,5.36,5.36,0,0,0,3.93,1.09c1.42-.33,2.29-2.62,2.29-2.62a3,3,0,0,1,2.51,2.62,3,3,0,0,1-1.53,1.41s-1.09,3.82-6.1,4a9.3,9.3,0,0,1-8.62-4.15,5.86,5.86,0,0,1-.66-1.41Z"/><path d="M76.94,107.93a3.29,3.29,0,0,1,2.56-.44S78.74,109.07,76.94,107.93Z"/><path d="M87.19,107.38s1-.21,1.15.33c0,0-.11.65-1.26.16Z"/><path class="cls-19" d="M73.15,107.72a5.68,5.68,0,0,1,.61-3.82s-.05-.06-.08,0a5.54,5.54,0,0,0-.84,4.13,3.68,3.68,0,0,0,3,2.46s0,0,0,0A4.31,4.31,0,0,1,73.15,107.72ZM79,107.2a4.68,4.68,0,0,0-2.86,1.16s0,0,0,0a5.85,5.85,0,0,1,2.21-.85,1.9,1.9,0,0,1,2.21,1.2c0,.06.11,0,.11,0A1.75,1.75,0,0,0,79,107.2Zm8.88,0a1.39,1.39,0,0,0-.46,0,5.24,5.24,0,0,0,.3-1.18s0,0,0,0a7.69,7.69,0,0,1-4.13,4.68s0,0,0,0a6.08,6.08,0,0,0,3.77-3.31c.11,0,.24,0,.36,0a1,1,0,0,1,.46.15.65.65,0,0,1,.15.83c0,.06.08.1.1,0a.84.84,0,0,0-.08-1A.91.91,0,0,0,87.86,107.19Zm2-4.09s-.08,0-.06.05c1,2.08,1.22,5.23-1.2,6.48,0,0,0,.12.05.1C91.33,108.82,91.44,105.06,89.89,103.1ZM86,95.38c0,.41.07.83.13,1.23C86.06,96.2,86,95.79,86,95.38Zm.2-6s-.05,0-.05,0a26.18,26.18,0,0,0-.15,6A33.19,33.19,0,0,1,86.18,89.39Zm.71,11.49a10,10,0,0,1,1,3.67h0c.13-2.29-1.07-4.45-1.56-6.63-.1-.43-.17-.87-.23-1.31,0,.15,0,.29,0,.44A19.05,19.05,0,0,0,86.89,100.88Z"/><path class="cls-20" d="M32.1,103.13c.66,2.19,1.22,4.41,2,6.56a23.11,23.11,0,0,0,1.2,2.75c.52,1,1.25,1.86,1.84,2.82a31.34,31.34,0,0,0,2,2.74,57.71,57.71,0,0,0,16,13.82,134.91,134.91,0,0,0,12.13,6.26,41.34,41.34,0,0,0,8.57,3,26.8,26.8,0,0,0,7.79.42,17.42,17.42,0,0,0,9.41-3.83,31.08,31.08,0,0,0,7-8.65c2.23-3.8,4.29-7.72,6.4-11.58a91.06,91.06,0,0,0,6-12.81,49.66,49.66,0,0,0,2.69-13.2A27.09,27.09,0,0,0,115,85a7.18,7.18,0,0,0-.54-2c0-.07-.14,0-.11.07a9,9,0,0,1,.65,3,39.08,39.08,0,0,1-.62,10.46c-1.6,9.59-6.5,18-11.18,26.35-3.79,6.77-7.43,14.53-15.2,17.43-5.66,2.11-12.11,1-17.58-1.13a111.11,111.11,0,0,1-11.18-5.34,69,69,0,0,1-11.72-7.54,50.12,50.12,0,0,1-10.2-10.92,30.21,30.21,0,0,1-2.56-4.22,64.73,64.73,0,0,1-2.64-8.05s0,0,0,0Z"/><path class="cls-21" d="M63.79,119.32s7.08,5.46,12.54,7.4c0,0,9,1.14,12.5-.79a16,16,0,0,0,2.45-2.82c.89-1.42,4.67-4.5,4.67-4.5l-5.28.7-6.38-.18c-.49,0-9,.49-9,.49Z"/><path class="cls-22" d="M73,123.1a65.9,65.9,0,0,1,7.71-.24c4.75.1,8.79-.42,9.1-.07s-.49,2.92-7.29,3S73.55,125.18,73,123.1Z"/><path class="cls-23" d="M90.67,119.31l-6.38-.18c-.49,0-9,.49-9,.49l-11.46-.3s1.88,1.45,4.44,3.11h.06s7.08-.51,10-.44,6,.41,7.79,0a23.58,23.58,0,0,1,6.17-.08c1.44-1.49,3.68-3.32,3.68-3.32Zm-2,6.12c-3.1,1.3-10.11.67-11.59.76a14.25,14.25,0,0,1-4.36-1.14l0,0a28.72,28.72,0,0,0,3.64,1.64s9,1.14,12.5-.79a18.94,18.94,0,0,0,1.73-1.82l-.07-.06Z"/><path class="cls-23" d="M95.16,118.08c-2.17.7-2.17.7-3.46.3s-3-1.64-4.83-1.57-2.54,1.5-3.69,1.6-1.74-1.24-3.2-1.49-5.13,1-7.45,1.4l-6.11,1c-2.45-.14-7.2-3.18-7.2-3.18a23.79,23.79,0,0,0,8.1,4.7,103.43,103.43,0,0,0,12.34-.13l.27.16c1,.22,1.78.43,2.59.64a5.61,5.61,0,0,0,2-.7h.38a43.91,43.91,0,0,1,6.57-.29c2.3-.2,6.72-3.08,7.51-5.49A8.69,8.69,0,0,1,95.16,118.08Z"/><path class="cls-24" d="M79.78,120.62c-1.74-.08-3.5.09-5.24.11s-3.75,0-5.62-.07a8.58,8.58,0,0,1-2.63-.3,18.59,18.59,0,0,1-2.57-1.17,23.83,23.83,0,0,1-4.49-3.08s0,0,0,0a24,24,0,0,0,4.19,3,24.92,24.92,0,0,0,2.32,1.14,6.31,6.31,0,0,0,2.22.8c2,.1,4,.09,6,0a40,40,0,0,0,5.89-.39C79.86,120.73,79.85,120.63,79.78,120.62ZM98.91,115c-.91,2.19-3.28,3.8-5.36,4.75a9.75,9.75,0,0,1-3.89.62,27.44,27.44,0,0,0-4.71.35c.22-.16.44-.32.64-.49s0-.14-.08-.12a26.3,26.3,0,0,1-2.76,1.14,7,7,0,0,1-2.81-.41s0,0,0,0c.53.13,1.06.28,1.59.42a2,2,0,0,1,.86.32.2.2,0,0,0,.18.06,5.13,5.13,0,0,0,2.24-.86s0,0,.06,0a45.76,45.76,0,0,1,6-.19,5.47,5.47,0,0,0,1.4-.09,8.86,8.86,0,0,0,1.59-.75c1.94-.95,4.48-2.6,5.13-4.81C99,115,98.92,115,98.91,115Z"/><path class="cls-25" d="M35.44,69.26s9.05-2.62,16.89-1.8a63.1,63.1,0,0,1,8,1.8c2.09.82,7.31,1,9.4-.65,0,0-4.88-.82-8.88-2A34.23,34.23,0,0,0,35.44,69.26Z"/><path class="cls-26" d="M114.57,69.26s-6.49-2.62-12.11-1.8a34.36,34.36,0,0,0-5.74,1.8c-1.5.82-5.25,1-6.75-.65a52.07,52.07,0,0,0,6.37-2A18.35,18.35,0,0,1,114.57,69.26Z"/><path class="cls-27" d="M130.77,98.87c-1.64-10.47-2.29-27.81-2.29-27.81-.66-21.27-6.88-35.67-16.36-48.43S85.94,1,69.9.71s-30.76,7.2-30.76,7.2C20.16,29.5,8.71,51.43,3.48,77.28c-2.95,13.09-4.26,27.81-.33,40.9,3.93,12.76,17,27.81,31.41,28.47,6.87,5.89,22.74,9.33,29.29.82l.16-.16c-9.15,4.05-16.93,1.14-23-4.7l.08-.05c-8.35-14.56-7.37-38.12-7.37-38.12.33-10.15,8.84-28.8,12.6-33.54A134.07,134.07,0,0,0,63,43.74C68.43,31.63,76,28,76,28c4.58,2.46,3.92,16,11.78,27A29.2,29.2,0,0,0,107.37,67,24.27,24.27,0,0,1,94,55c3.93,7.85,18.49,13.41,18.49,13.41-2.27-1.19-6.28-6-8.28-8.45a72.71,72.71,0,0,0,9.59,8.62,84.51,84.51,0,0,1-.49,9.16c-.49,3.44.65,9.16,1,10.8s2.13,10,2.13,10c3.27,14.4-.66,43.19-5.57,50.06s-15.37,8.18-15.37,8.18C130.44,159.08,132.4,109.35,130.77,98.87Z"/><path class="cls-28" d="M112.12,22.63C102.63,9.87,85.94,1,69.9.71s-30.76,7.2-30.76,7.2c-.67.76-1.33,1.53-2,2.3l.68.1L42,8.56S59.43.49,75.79,3.33a67.23,67.23,0,0,1,37.59,21C113,23.79,112.55,23.21,112.12,22.63ZM95.37,10.69c-1-1.15-3.39-2.07-4.62-2.5,2.47,3.37-2.2,8.94-5.59,10.12C80.83,19.82,74,17.79,70,17c-6.57-1.34-23.28-.4-24.05-9.83L42,8.6A9.94,9.94,0,0,0,41.54,11c.83-.16,2,.32,2.84.18C39,20.4,57,18.23,61.13,18.41c4,.17,6.26,2,9.81,3.33,2.37.89,6.1.43,6.86,2.89,2.06-6.71,8.71-.06,12.17-3.36,2.11-2-.58-4.66,2.08-6.27,1.83-1.11,4.36.23,6.33.76C96.12,14.43,96.93,12.4,95.37,10.69Z"/><path class="cls-29" d="M48.35,37.45c-4.64-.62-7.32-3.28-9.44-7.24-1.95-3.63-2.34-8.43-7.66-7.45-.11-4.68,4.16-8.09,5.52-12.1C19.21,31.37,8.49,52.52,3.48,77.28c-2.95,13.09-4.26,27.81-.33,40.9,3.93,12.76,17,27.81,31.41,28.47,6.87,5.89,22.74,9.33,29.29.82l.16-.16c-9.15,4.05-16.93,1.14-23-4.7l.08-.05c-8.35-14.56-7.37-38.12-7.37-38.12.33-10.15,8.84-28.8,12.6-33.54A134.07,134.07,0,0,0,63,43.74a38.28,38.28,0,0,1,8.36-12.27C64.77,34.63,55.81,38.46,48.35,37.45Zm82.42,61.42c-1.64-10.47-2.29-27.81-2.29-27.81-.55-17.61-4.9-30.51-11.77-41.67-.07,2.26-.38,4.4-1.46,5.25-2.78,2.2-6.12-1.82-6.54-4.78-.15,2.53-.17,5.59-1.95,7.26-4.34-2.79-9.27-5.85-14.6-3.85-2.54.95-4.13,4-7,3.83-2.5-.14-5.37-3.39-6.38-5.43l-.12.16c2.09,5.38,3.22,15,9.08,23.2A29.2,29.2,0,0,0,107.37,67,24.27,24.27,0,0,1,94,55c3.93,7.85,18.49,13.41,18.49,13.41-2.27-1.19-6.28-6-8.28-8.45a72.71,72.71,0,0,0,9.59,8.62,84.51,84.51,0,0,1-.49,9.16c-.49,3.44.65,9.16,1,10.8s2.13,10,2.13,10c3.27,14.4-.66,43.19-5.57,50.06s-15.37,8.18-15.37,8.18C130.44,159.08,132.4,109.35,130.77,98.87Z"/><path class="cls-30" d="M59,50.08l-.52.65C58.69,50.52,58.86,50.31,59,50.08ZM51.8,53.72c-3.55.57-7,1.45-10.69.39-3.2-.92-6.29-2.85-9.16-4.48-2.08-1.17-4.22-2.9-6.71-2.89-1.71,0-2.2.87-3.38-.43-1-1.05-.15-3.33-2.1-3.1a4.16,4.16,0,0,1,0-1.27l.43-2.62c-3.71,2.91-4.5,9.83-6.34,13.88.91-1,2.24-2.24,3.73-2.33,2-.12,2.29,1.32,3.77,2.14s2.73.11,4.46-.33a18.34,18.34,0,0,1,7.08-.28c4.08.57,7.36,2.92,11.3,3.94,1.46.37,3.49.39,4.8,1.25C50.63,58.68,50,59.5,50,61.29c2.81-3.53,5.71-7,8.47-10.56C56.76,52.74,54.36,53.31,51.8,53.72ZM100,52a24.86,24.86,0,0,1-13.09-3L88,51.32c.55,2,2.38,3.52,3.94,4.94a4.8,4.8,0,0,1-.2-2.29c2.19,0,3.52,1.06,5.85.45,2.11-.55,3.62-1.37,5.9-1.14,2.57.25,8.46,1.78,9.61,4.29-.36-1.89.09-5.54-1.27-6.88C110.9,53.15,102.59,51.84,100,52ZM124,47.68a10.66,10.66,0,0,1-8.46,4.08l-.66.65a15,15,0,0,1,.88,3.91c.28-1.91,3.92-1.75,5.18-2.86s1.4-4.91,3.71-3.25A7.69,7.69,0,0,0,124,47.68Zm-8.25,9.13a2.57,2.57,0,0,0,0-.49A2,2,0,0,0,115.71,56.81Z"/><path class="cls-31" d="M116.71,29.39c-.07,2.26-.38,4.4-1.46,5.25-2.78,2.2-6.12-1.82-6.54-4.78-.15,2.53-.17,5.59-1.95,7.26-4.34-2.79-9.27-5.85-14.6-3.85-2.54.95-4.13,4-7,3.83-2.5-.14-5.37-3.39-6.38-5.43l-.12.16c1.18,3,2,7.43,3.64,12.14h0c6.18.46,11.12-4.36,17.36-4.64,5.93-.28,11.31-1,15.46,3.8.57-2.65,3.28-4.56,6-5.52A78.89,78.89,0,0,0,116.71,29.39ZM48.35,37.45c-4.64-.62-7.32-3.28-9.44-7.24-1.95-3.63-2.34-8.43-7.66-7.45-.11-4.68,4.16-8.09,5.52-12.1A167.26,167.26,0,0,0,19.5,34.9a21.65,21.65,0,0,1,11.06-.09c3.58.91,6.76,2.85,10.23,3.94,7.38,2.31,15.71,1.55,23.46,1.9l.29,0a36.62,36.62,0,0,1,6.85-9.2C64.77,34.63,55.81,38.46,48.35,37.45Z"/><path class="cls-32" d="M130.77,98.87c-1.64-10.47-2.29-27.81-2.29-27.81A100.57,100.57,0,0,0,126.92,56c.43,6.85.57,20.48,1.56,30.6,1.14,11.78,3.92,16.53-.5,38s-20.77,29.29-20.77,29.29c6.05-3.6,9-12.6,11.29-28.14a86.2,86.2,0,0,0-2.13-33.22c-1-3.59-2.62-10-1.8-15.87s-.49-21.59-.82-26.5-2.83-13.2-2.83-13.2c.28,1.33.53,2.86.74,4.52,1,7.8,1.38,18.54,2.29,25.45-2.43-1.45-9.53-7.28-9.53-7.28l.58,1.32a78.82,78.82,0,0,0,8.75,7.68,84.51,84.51,0,0,1-.49,9.16c-.49,3.44.65,9.16,1,10.8s2.13,10,2.13,10c3.27,14.4-.66,43.19-5.57,50.06s-15.37,8.18-15.37,8.18C130.44,159.08,132.4,109.35,130.77,98.87ZM112.44,68.44c-2-1-5.2-4.71-7.35-7.3l1.63,3.7C103.07,63,95.62,57,94.57,56.11,99.21,63.39,112.44,68.44,112.44,68.44ZM47.06,152.15c-.88-.16-1.75-.35-2.6-.58C45.31,151.8,46.18,152,47.06,152.15Zm-5.32-1.46a27.51,27.51,0,0,1-3.91-1.8A27.51,27.51,0,0,0,41.74,150.69Zm2.31-80.61c-3,3-6.72,13.14-7.84,16.36-2.76-18-.83-28.63-.83-28.63-3,9.65-2.07,18.81-1.8,28.79-3.94,14.1,0,39.86.58,43.56a95.66,95.66,0,0,1-6.8-13.94c1.77,8.5,6.52,19.5,13.67,26.39l.08-.05c-8.35-14.56-7.37-38.12-7.37-38.12.33-10.15,8.84-28.8,12.6-33.54A134.07,134.07,0,0,0,63,43.74c.33-.73.66-1.44,1-2.11l-.35,0C60.09,48.81,47.65,66.48,44.05,70.08ZM16.56,105.75a71.38,71.38,0,0,1,1-18.66S7,114.61,27.46,142A42.69,42.69,0,0,1,2.82,106.4C.46,81,13.82,46.55,17.41,38.63A137.65,137.65,0,0,0,3.48,77.28c-2.95,13.09-4.26,27.81-.33,40.9,3.93,12.76,17,27.81,31.41,28.47a21,21,0,0,0,3.26,2.24l-4.18-3C22.83,136.23,17.84,119.75,16.56,105.75ZM94.45,56h0a32.17,32.17,0,0,0,4.26,7.36c-5.3-2.29-12.61-11.86-14.35-14.2A37.12,37.12,0,0,0,87.74,55,29.2,29.2,0,0,0,107.37,67,24.71,24.71,0,0,1,94.45,56Zm-30.6,91.46.16-.16-.15.06Z"/><path class="cls-33" d="M10.78,61.14c-20.5,58.9,9,74.6,9,74.6C-5.36,110,10.78,61.14,10.78,61.14ZM56.6,150.79h0ZM17.76,97.57s0,56,38.75,53.23C54.62,150.9,23.48,151.72,17.76,97.57Zm111-2.18s.22,34.9-12.21,49.73C116.59,145.12,132.51,131.82,128.8,95.39Z"/><path class="cls-34" d="M131.38,103.89c-.09-4.32-.91-8.56-1.33-12.85-.62-6.28-1-12.59-1.29-18.89a106.72,106.72,0,0,0-2.69-21.21,77.14,77.14,0,0,0-8.78-21.07,62.43,62.43,0,0,0-15.35-17.76A57.61,57.61,0,0,0,79,1.52C70.28-.32,61.38.45,52.85,2.67A68.64,68.64,0,0,0,39,7.7c-.23.12-.46.5-.63.7L37.26,9.72c-.81.94-1.61,1.9-2.4,2.86q-2.18,2.64-4.25,5.35-4.16,5.41-7.85,11.17A140.9,140.9,0,0,0,3.26,77.22,143.61,143.61,0,0,0,.92,91.48a82,82,0,0,0-.17,14.86,53.17,53.17,0,0,0,2.74,13.51,44.13,44.13,0,0,0,5.25,10c5.79,8.45,14.93,16.25,25.57,16.88a25,25,0,0,0,7.77,4.35c5.88,2.12,13.32,2.83,18.81-.7a11.9,11.9,0,0,0,3-2.89.07.07,0,0,0,0-.11l.14-.06s0-.09,0-.07a21.49,21.49,0,0,1-10,1.61,19.44,19.44,0,0,1-8.64-3.09,27.65,27.65,0,0,1-4.3-3.39c-3.71-6.59-5.37-14.26-6.34-21.68a104.24,104.24,0,0,1-.88-15.29c.08-5.25,1.61-10.38,3.35-15.3A109.81,109.81,0,0,1,41.5,79.78a63.43,63.43,0,0,1,4.07-7.52C47,70.05,48.78,68,50.32,65.89c2.41-3.36,4.67-6.83,6.78-10.38,2.5-4.22,4.58-8.61,6.7-13a38.8,38.8,0,0,1,6.69-9.87,24.17,24.17,0,0,1,4.86-4l.51-.29c.25-.14.07-.06.2,0a5.7,5.7,0,0,1,2,2.55c1.4,2.9,2,6.2,2.88,9.27a56.22,56.22,0,0,0,4.46,11.51A30.37,30.37,0,0,0,99.1,64.69a25,25,0,0,0,8.27,2.47c.22,0,.23-.3,0-.37a25.43,25.43,0,0,1-10.36-7.33,37.24,37.24,0,0,0,7.35,5.3,54.88,54.88,0,0,0,8,3.87c.21.09.35-.25.15-.36a18.86,18.86,0,0,1-4.91-4.46c.83.74,1.67,1.47,2.52,2.18s1.91,1.57,2.89,2.33l.51.39c0,.19,0,.38,0,.57q0,2.37-.15,4.74c-.09,1.81-.42,3.6-.45,5.41a42.73,42.73,0,0,0,1.15,9.41c1,4.67,2.23,9.34,2.8,14.08a97.13,97.13,0,0,1-.23,21.49,87.67,87.67,0,0,1-3.86,19.44,16.5,16.5,0,0,1-3.55,6.27,21.61,21.61,0,0,1-8.78,5.2,26.67,26.67,0,0,1-5,1.24.23.23,0,0,0,0,.46,28.9,28.9,0,0,0,15.66-3.14A30.05,30.05,0,0,0,121.57,144c5.54-8.23,8-18.33,9.2-28.06A87.14,87.14,0,0,0,131.38,103.89Zm-4,26.34c-2.88,9.48-8.12,19.06-17.31,23.66a27.61,27.61,0,0,1-12.38,2.74,25.37,25.37,0,0,0,10.63-5c4.19-3.46,5.53-8.91,6.68-14a120.05,120.05,0,0,0,2.7-21.29,72.16,72.16,0,0,0-1.2-18.21,147.56,147.56,0,0,1-3-15.44c-.39-3.71.28-7.38.39-11.09,0-1,0-2,0-3,0-.35-1.09-.94-1.31-1.11a57,57,0,0,1-8-7.19c-.53-.64-1-1.29-1.55-2-.15-.2-.49,0-.34.2.41.58.86,1.14,1.32,1.68.73.9,1.47,1.79,2.23,2.67,1,1.19,2.09,2.36,3.21,3.46.42.41.86.83,1.33,1.22a61.08,61.08,0,0,1-5.94-3c-4.12-2.33-8.6-5.33-10.81-9.67-.11-.23-.43,0-.33.19a19.18,19.18,0,0,0,3,4.67A25.27,25.27,0,0,0,106,66.61a28,28,0,0,1-10.21-4.14c-7.49-4.76-11.59-12.61-14.09-20.88-1-3.24-1.67-6.58-2.88-9.74a10.29,10.29,0,0,0-1.57-2.92c-.23-.29-1-1.24-1.46-1a17.44,17.44,0,0,0-3.25,2.28,32.79,32.79,0,0,0-6.16,7c-2.65,3.95-4.34,8.43-6.53,12.63a133.22,133.22,0,0,1-7,11.73C51,64.44,49,67.25,46.86,70a39.92,39.92,0,0,0-3.75,5.86,98.69,98.69,0,0,0-8,19.71,46.32,46.32,0,0,0-1.31,6.08c.23-6.94-.1-13.93-.35-20.86-.13-3.78-.22-7.57,0-11.34a54.74,54.74,0,0,1,1.94-11.59.06.06,0,0,0-.12,0C33,65,33,72.67,33.24,80.15c.13,3.95.26,7.9.31,11.85.06,3.64,0,7.29.14,10.93,0,.5-.09,1-.11,1.51,0,1.08,0,2.16,0,3.23a105.43,105.43,0,0,0,1.33,15.87,57.22,57.22,0,0,0,5.88,18.54,45,45,0,0,1-8-11.21,57.61,57.61,0,0,1-5.35-14.65s0,0,0,0a60,60,0,0,0,6.71,17.59c3.12,5.43,7.32,10.58,13,13.5A19,19,0,0,0,55,149.42a19.51,19.51,0,0,0,8.79-2c-4.38,5.42-12.4,5.53-18.61,4a27.74,27.74,0,0,1-9-3.91,34.19,34.19,0,0,1-8-8.15c-4.89-6.67-7.89-14.62-9.72-22.63a88.66,88.66,0,0,1-1.87-12.33,73.75,73.75,0,0,1,.89-16.39c.05-.32.1-.64.14-1a0,0,0,1,0-.05,0,78.58,78.58,0,0,0-1.26,15.76,77.33,77.33,0,0,0,1.58,12.32,66.08,66.08,0,0,0,8.74,22.65A40.51,40.51,0,0,0,34,146.49c-7.93-.61-14.9-5.33-20.24-11A45.34,45.34,0,0,1,2.32,114.15c-2.16-9.82-1.63-20.1,0-30A155.76,155.76,0,0,1,9,58.08c6-17,15.57-32.47,27.1-46.27.74-.88,1.5-1.76,2.25-2.64.31-.35.62-.91,1-1.13s1.1-.52,1.66-.77a75.92,75.92,0,0,1,8.26-3.09c8.52-2.68,17.61-4,26.52-2.73A56.44,56.44,0,0,1,99.62,11a54.7,54.7,0,0,1,9.65,8.51,70.2,70.2,0,0,1,6.9,9.46,76.64,76.64,0,0,1,9.19,21.14A101.3,101.3,0,0,1,128.27,72c.27,6.21.66,12.41,1.25,18.6.42,4.37,1.26,8.71,1.38,13.11A84.47,84.47,0,0,1,127.37,130.23Zm-16.68-95a35.56,35.56,0,0,0-5-11.09,33.5,33.5,0,0,0-12.18-11s0,0,0,0a35.93,35.93,0,0,1,16.06,19.29,48.81,48.81,0,0,1,2.19,10.85c.45,4,.72,8,1,12A125.3,125.3,0,0,0,114,68.59c0,.21.33.12.31-.08-1-7.61-1.31-15.29-2-22.93A68.85,68.85,0,0,0,110.69,35.19Z"/><path d="M62.54,83.66a23.06,23.06,0,0,1-17.67-2.29s-1.15-1.15.65-2.78,12.93-9.33,20.29,1Z"/><path class="cls-35" d="M46.83,80.39c3.93,3.43,12.6,4.42,17.84,2.45l1.8-.33,1.14-.32c-2.45-4.09-6.22-7.2-11.12-6.71C51.9,76,50.6,77,46.83,80.06Z"/><path class="cls-36" d="M60.6,78.92a4.87,4.87,0,0,0-1.31-3.32,9.62,9.62,0,0,0-2.8-.12,13.9,13.9,0,0,0-5.2,1.34,4.79,4.79,0,0,0-.48,2.1,4.88,4.88,0,0,0,2.89,4.46,24,24,0,0,0,2.7.38A4.89,4.89,0,0,0,60.6,78.92Z"/><path class="cls-37" d="M55.7,83.25a4.33,4.33,0,0,0,2.6-7.79,10,10,0,0,0-1.81,0,15.78,15.78,0,0,0-4.32.94,4.32,4.32,0,0,0,3.53,6.83Z"/><path d="M58.26,78.92a2.56,2.56,0,1,1-2.56-2.55A2.56,2.56,0,0,1,58.26,78.92Z"/><path class="cls-38" d="M57.51,78.92a1.81,1.81,0,1,1-1.81-1.8A1.81,1.81,0,0,1,57.51,78.92Z"/><path class="cls-35" d="M56.75,76.8a1,1,0,1,1-1-1A1,1,0,0,1,56.75,76.8Z"/><path class="cls-35" d="M56.21,81.42a.5.5,0,0,1-.51.5.5.5,0,0,1-.5-.5.5.5,0,0,1,.5-.51A.51.51,0,0,1,56.21,81.42Z"/><path d="M46.86,80.09a25.47,25.47,0,0,1,4.66-3.19,14.57,14.57,0,0,1,5.71-1.27,10,10,0,0,1,6,1.79,17.15,17.15,0,0,1,4.39,4.79,0,0,0,1,0,.08,0c-1.94-3.69-5.66-6.78-9.94-6.93a14.11,14.11,0,0,0-5.88,1.13,22,22,0,0,0-5,3.67s0,.09,0,.06Z"/><path d="M46.79,80.43a16.26,16.26,0,0,0,8.45,3.27,19,19,0,0,0,9.44-.8.06.06,0,0,0,0-.11,21.5,21.5,0,0,1-9.16.81,16.06,16.06,0,0,1-8.62-3.25s-.13,0-.08.08Z"/><path d="M95.92,83.66A15.12,15.12,0,0,0,110,81.37s.91-1.15-.52-2.78-10.33-9.33-16.21,1Z"/><path class="cls-35" d="M108.46,80.39c-3.14,3.43-10.06,4.42-14.24,2.45l-1.44-.33-.92-.32c2-4.09,5-7.2,8.89-6.71,3.66.49,4.7,1.47,7.71,4.58Z"/><path class="cls-39" d="M99.05,83.81a4.73,4.73,0,0,0,4.56-4.89,5.11,5.11,0,0,0-1-3.1,15.05,15.05,0,0,0-1.83-.34,7.08,7.08,0,0,0-6.18,2.59,4.8,4.8,0,0,0-.08.85A4.73,4.73,0,0,0,99.05,83.81Z"/><path class="cls-40" d="M99.05,83.25a4.19,4.19,0,0,0,4-4.33,4.47,4.47,0,0,0-1.42-3.3c-.28-.05-.58-.1-.91-.14a6.73,6.73,0,0,0-5.45,1.87A4.55,4.55,0,0,0,95,78.92,4.19,4.19,0,0,0,99.05,83.25Z"/><path d="M101.43,78.92a2.39,2.39,0,1,1-2.38-2.55A2.48,2.48,0,0,1,101.43,78.92Z"/><path class="cls-41" d="M100.73,78.92a1.68,1.68,0,1,1-1.68-1.8A1.75,1.75,0,0,1,100.73,78.92Z"/><path class="cls-35" d="M100,76.8a1,1,0,1,1-1-1A1,1,0,0,1,100,76.8Z"/><path class="cls-35" d="M99.52,81.42a.47.47,0,1,1-.94,0,.47.47,0,1,1,.94,0Z"/><path d="M108.44,80.09a20.69,20.69,0,0,0-3.73-3.19,9.66,9.66,0,0,0-4.55-1.27,6.9,6.9,0,0,0-4.76,1.79,16.47,16.47,0,0,0-3.5,4.79c0,.05-.09,0-.07,0,1.55-3.69,4.52-6.78,7.94-6.93a9.35,9.35,0,0,1,4.7,1.13,18.46,18.46,0,0,1,4,3.67s0,.09,0,.06Z"/><path d="M108.49,80.43a11.59,11.59,0,0,1-6.75,3.27,12.32,12.32,0,0,1-7.54-.8s0-.13,0-.11a13.9,13.9,0,0,0,7.32.81,11.43,11.43,0,0,0,6.88-3.25s.1,0,.06.08Z"/></g></g></svg>