<svg xmlns="http://www.w3.org/2000/svg" xmlns:xlink="http://www.w3.org/1999/xlink" viewBox="0 0 131.6 168.1"><defs><style>.cls-1{fill:url(#linear-gradient);}.cls-2{fill:url(#linear-gradient-2);}.cls-3{fill:#9c5338;}.cls-4{fill:url(#linear-gradient-3);}.cls-5{fill:url(#radial-gradient);}.cls-6{fill:url(#linear-gradient-4);}.cls-7{fill:url(#radial-gradient-2);}.cls-8{fill:url(#radial-gradient-3);}.cls-9{fill:url(#linear-gradient-5);}.cls-10{fill:url(#linear-gradient-6);}.cls-11{fill:url(#linear-gradient-7);}.cls-12{fill:url(#linear-gradient-8);}.cls-13{fill:url(#linear-gradient-9);}.cls-14{fill:url(#linear-gradient-10);}.cls-15{fill:url(#linear-gradient-11);}.cls-16{fill:url(#linear-gradient-12);}.cls-17{fill:url(#linear-gradient-13);}.cls-18{fill:url(#linear-gradient-14);}.cls-19{fill:url(#linear-gradient-15);}.cls-20{fill:#6d2d15;}.cls-21{fill:#953229;}.cls-22{fill:#872825;}.cls-23{fill:url(#radial-gradient-4);}.cls-24{fill:#721f1e;}.cls-25{fill:#4d1b18;}.cls-26{fill:url(#linear-gradient-16);}.cls-27{fill:url(#linear-gradient-17);}.cls-28{fill:#4e2617;}.cls-29{fill:#fff;}.cls-30{fill:url(#linear-gradient-18);}.cls-31{fill:url(#linear-gradient-19);}.cls-32{fill:url(#linear-gradient-20);}.cls-33{fill:url(#linear-gradient-21);}.cls-34{fill:url(#linear-gradient-22);}.cls-35{fill:url(#linear-gradient-23);}.cls-36{fill:url(#linear-gradient-24);}.cls-37{fill:#31120b;}.cls-38{fill:url(#linear-gradient-25);}.cls-39{fill:url(#linear-gradient-26);}</style><linearGradient id="linear-gradient" x1="65.43" y1="159.53" x2="65.43" y2="113.89" gradientUnits="userSpaceOnUse"><stop offset="0" stop-color="#914d34"/><stop offset="1" stop-color="#73301d"/></linearGradient><linearGradient id="linear-gradient-2" x1="65.47" y1="159.53" x2="65.47" y2="113.89" xlink:href="#linear-gradient"/><linearGradient id="linear-gradient-3" x1="75.19" y1="15.2" x2="75.19" y2="69.32" gradientUnits="userSpaceOnUse"><stop offset="0" stop-color="#ca6f44"/><stop offset="1" stop-color="#9c5338"/></linearGradient><radialGradient id="radial-gradient" cx="-756.25" cy="-683.79" r="33.3" gradientTransform="translate(312.07 330.03) scale(0.31)" xlink:href="#linear-gradient-3"/><linearGradient id="linear-gradient-4" x1="73.74" y1="69.23" x2="73.74" y2="26.96" gradientUnits="userSpaceOnUse"><stop offset="0" stop-color="#9c5338"/><stop offset="1" stop-color="#7e3420"/></linearGradient><radialGradient id="radial-gradient-2" cx="-1274.64" cy="-965.75" r="95.5" gradientTransform="matrix(0.15, -0.03, 0.06, 0.25, 283.95, 298.61)" xlink:href="#linear-gradient-3"/><radialGradient id="radial-gradient-3" cx="-1214.31" cy="-511.96" r="95.47" gradientTransform="matrix(0.14, 0.05, -0.09, 0.24, 233.87, 287.29)" xlink:href="#linear-gradient-3"/><linearGradient id="linear-gradient-5" x1="50.68" y1="74.63" x2="50.68" y2="61.55" xlink:href="#linear-gradient-4"/><linearGradient id="linear-gradient-6" x1="95.25" y1="76.64" x2="95.25" y2="64.86" xlink:href="#linear-gradient-4"/><linearGradient id="linear-gradient-7" x1="92.37" y1="85.02" x2="104.15" y2="75.42" xlink:href="#linear-gradient-4"/><linearGradient id="linear-gradient-8" x1="51.25" y1="80.48" x2="37.29" y2="70.88" xlink:href="#linear-gradient-4"/><linearGradient id="linear-gradient-9" x1="76.4" y1="124.07" x2="76.4" y2="86.77" xlink:href="#linear-gradient-3"/><linearGradient id="linear-gradient-10" x1="63.88" y1="103.66" x2="65.96" y2="105.08" xlink:href="#linear-gradient-3"/><linearGradient id="linear-gradient-11" x1="-612.53" y1="36.15" x2="-610.46" y2="37.57" gradientTransform="matrix(-0.83, -0.19, -0.15, 0.98, -414.14, -44.69)" xlink:href="#linear-gradient-3"/><linearGradient id="linear-gradient-12" x1="64.2" y1="94.02" x2="76.65" y2="103.04" xlink:href="#linear-gradient-4"/><linearGradient id="linear-gradient-13" x1="85" y1="95.95" x2="75.62" y2="100.31" xlink:href="#linear-gradient-4"/><linearGradient id="linear-gradient-14" x1="75.41" y1="119.72" x2="75.41" y2="112.12" xlink:href="#linear-gradient-4"/><linearGradient id="linear-gradient-15" x1="75.24" y1="103.54" x2="75.24" y2="91.19" gradientUnits="userSpaceOnUse"><stop offset="0" stop-color="#6d2d15"/><stop offset="1" stop-color="#9c5338"/></linearGradient><radialGradient id="radial-gradient-4" cx="-866.15" cy="-718.81" r="44.79" gradientTransform="translate(299.85 312.97) scale(0.26)" gradientUnits="userSpaceOnUse"><stop offset="0" stop-color="#c3563c"/><stop offset="1" stop-color="#953229"/></radialGradient><linearGradient id="linear-gradient-16" x1="49.3" y1="61.37" x2="51.07" y2="67.1" gradientUnits="userSpaceOnUse"><stop offset="0" stop-color="#4f1905"/><stop offset="1"/></linearGradient><linearGradient id="linear-gradient-17" x1="-700.92" y1="48.24" x2="-698.78" y2="55.13" gradientTransform="matrix(-0.72, -0.04, -0.05, 1, -405.3, -10.99)" xlink:href="#linear-gradient-16"/><linearGradient id="linear-gradient-18" x1="51.46" y1="85.18" x2="51.46" y2="78.55" gradientUnits="userSpaceOnUse"><stop offset="0" stop-color="#2d1106"/><stop offset="1"/></linearGradient><linearGradient id="linear-gradient-19" x1="51.46" y1="85.18" x2="51.46" y2="78.55" gradientUnits="userSpaceOnUse"><stop offset="0.01" stop-color="#4a1b0a"/><stop offset="1" stop-color="#350704"/></linearGradient><linearGradient id="linear-gradient-20" x1="51.46" y1="81.91" x2="51.46" y2="83.62" gradientUnits="userSpaceOnUse"><stop offset="0"/><stop offset="1" stop-color="#59544e"/></linearGradient><linearGradient id="linear-gradient-21" x1="91.94" y1="86.81" x2="91.94" y2="80.19" xlink:href="#linear-gradient-18"/><linearGradient id="linear-gradient-22" x1="91.94" y1="86.81" x2="91.94" y2="80.19" xlink:href="#linear-gradient-19"/><linearGradient id="linear-gradient-23" x1="91.94" y1="83.54" x2="91.94" y2="85.26" xlink:href="#linear-gradient-20"/><linearGradient id="linear-gradient-24" x1="76.13" y1="14.74" x2="60.36" y2="136.02" gradientUnits="userSpaceOnUse"><stop offset="0" stop-color="#270b04"/><stop offset="1"/></linearGradient><linearGradient id="linear-gradient-25" x1="68.25" y1="4.74" x2="68.25" y2="27.32" gradientUnits="userSpaceOnUse"><stop offset="0" stop-color="#562316"/><stop offset="1" stop-color="#2f130c"/></linearGradient><linearGradient id="linear-gradient-26" x1="64.52" y1="107.98" x2="64.52" y2="19.06" gradientUnits="userSpaceOnUse"><stop offset="0" stop-color="#31120b"/><stop offset="1" stop-color="#0b0301"/></linearGradient></defs><g id="Layer_2" data-name="Layer 2"><g id="_3_Face" data-name="3_Face"><path d="M129.86,95.25c-2.33-.08-4.12-1.88-5.71-3.81a27.28,27.28,0,0,1-2.62-3.82C129.07,77.82,131.92,65,129,54a31.11,31.11,0,0,0-2.63-6.53l0,0,0,0q-.19-.36-.39-.69l0-.08,0-.07-.39-.66-.06-.09,0-.05c-.44-.71-.9-1.41-1.37-2.07l0,0,0-.06-.3-.41,0-.06-.24-.33c-.11-.14-.21-.28-.32-.41l-.3-.4-.3-.36c-.11-.15-.23-.29-.35-.44l-.07-.08-.2-.24-.42-.49-.09-.11-.13-.15-.58-.66c-.23-.83-.46-1.84-.73-3-.86-3.79-2-9-4.61-13.54C111.16,15.66,99.76,7.12,93,6.25a16.79,16.79,0,0,0-1.88-.12,18.62,18.62,0,0,0-9.83,3.1C77.82,4.85,73,0,66.3,0a12.88,12.88,0,0,0-1.38.07c-6.1.59-11.66,3.39-17,6.11l-1,.5c-3.92,2-8,3.81-11.95,5.58-1.61.73-3.23,1.45-4.83,2.19-3.29,1.5-5.68,4.09-7.54,8.15-.62,1.36-1.22,2.75-1.8,4.09-1,2.25-2,4.59-3.12,6.84a37.25,37.25,0,0,0-3.21,8.11l-.81,1.29-.3.49-.16.26-.14.23c-.08.13-.16.26-.23.39-.21.34-.41.69-.61,1l-.09.16-.11.19c-.23.41-.46.82-.68,1.23l-.06.1,0,.06c-.25.45-.49.9-.74,1.37l0,0C9.66,50,8.91,51.5,8.2,53,3.14,64-1.32,79.7,6.05,92.45a29.6,29.6,0,0,0,1.8,18.36c-.24.57-.43,1.07-.6,1.54A19.32,19.32,0,0,0,6.58,124a9.12,9.12,0,0,1-2.21.25,14,14,0,0,1-2.16-.18l-.31,0A1.94,1.94,0,0,0,0,125.89a1.54,1.54,0,0,0,1.35,1.71,20,20,0,0,0,3.08.26,13.44,13.44,0,0,0,3.38-.41,22.3,22.3,0,0,0,2.47,4,1.56,1.56,0,0,0,1.23.65,1.86,1.86,0,0,0,1.6-1.09,1.88,1.88,0,0,0-.2-2A17.26,17.26,0,0,1,11,126a12.88,12.88,0,0,0,1.07-.85,10.37,10.37,0,0,0,1.79-2.25,12.31,12.31,0,0,0,.69,3.05,11.11,11.11,0,0,0,3.88,5.21c-1.91,3.9-3,8,.81,11.7a1.76,1.76,0,0,0,1.22.51,1.94,1.94,0,0,0,1.74-1.21,1.66,1.66,0,0,0-.43-1.86c-1.82-1.76-2-3.79-.62-6.79l.36-.73a15.77,15.77,0,0,0,5.33.88l.8,0a17.6,17.6,0,0,0-.24,1.86c-.5,6.68,4,11.19,8.05,14.39-.17.28-.34.55-.52.81a20,20,0,0,1-8.23,6.85,47.81,47.81,0,0,1-9.36,3.12.49.49,0,0,0,.13,1h.64c8.19.08,16.38,1.66,24.3,3.19,2.07.4,4.2.81,6.3,1.19a121.64,121.64,0,0,0,21.82,2.09c2.07,0,4.14-.06,6.15-.19A115.23,115.23,0,0,0,94.86,165,122.14,122.14,0,0,1,113.41,162a.56.56,0,0,0,0-1.12h0l-.42-.21-.1,0a44.92,44.92,0,0,1-10.68-3.79,19.64,19.64,0,0,1-7.76-7.55,35,35,0,0,1-4.15-13.76c.38-.45.75-.91,1.08-1.34A13.91,13.91,0,0,0,98,143.33a1.74,1.74,0,0,0,.89.25,1.87,1.87,0,0,0,1.74-1.42,1.67,1.67,0,0,0-.82-1.94c-4.69-2.67-5.37-7.52-5.34-10.28l.93-1.28q1.29-1.77,2.57-3.56l.13-.17c.13.87.31,1.76.53,2.64s.42,1.52.71,2.35a12.57,12.57,0,0,0,1.43,3.74,15.55,15.55,0,0,1-1.92.71,1.75,1.75,0,0,0-1.24,2,1.71,1.71,0,0,0,1.67,1.55,1.76,1.76,0,0,0,.55-.09,23.69,23.69,0,0,0,2.63-1l.31.58c2,3.69,2.6,6.26-.09,8.47a1.57,1.57,0,0,0-.53,1.77A2,2,0,0,0,104,149a1.84,1.84,0,0,0,1.17-.43,7.36,7.36,0,0,0,2.7-7.77,1.71,1.71,0,0,0,1.16.49,1.56,1.56,0,0,0,1.23-.65,13.2,13.2,0,0,0,2-14,19.28,19.28,0,0,0-2-3.56c-.05-.6-.12-1.25-.21-2l.3-.36c.78.9,1.64,1.82,2.58,2.74,2.75,2.71,5.68,4.15,8.49,4.15a8.58,8.58,0,0,0,2-.25,1.66,1.66,0,0,0,1.3-1.88,1.81,1.81,0,0,0-1.76-1.65,2.4,2.4,0,0,0-.46,0,4.68,4.68,0,0,1-1.17.14c-2.5,0-4.72-1.92-6.56-3.8-.66-.68-1.31-1.4-1.92-2.13l.79-.93c2.71-3.18,5.51-6.48,6.2-10.91a24.9,24.9,0,0,0-.71-9.73c.43-1.73.71-3.29.89-4.54,2.22,3.26,5.57,6.7,9.9,6.86h.08a1.68,1.68,0,0,0,1.7-1.71A1.8,1.8,0,0,0,129.86,95.25Zm-6.45-45.59a30.13,30.13,0,0,1,1.83,4.4c2.25,7,1.6,15.43-1.7,23.12A85.84,85.84,0,0,0,123.41,49.66Zm-18.93,72.05c-.62.69-1.16,1.34-1.62,2a15.58,15.58,0,0,1,.84-2.93C104,121.07,104.22,121.39,104.48,121.71Zm1.29-4.09-.36-.46.21-.38Zm-1.83,13.22c-.13-2.43,1.16-4.41,2.7-6.19a18.13,18.13,0,0,1-.07,1.85,7.87,7.87,0,0,1-2.69,5.24.91.91,0,0,0-.07-.14A1.74,1.74,0,0,0,103.94,130.84ZM114.22,108a28.48,28.48,0,0,0,2.09-3.7,12.49,12.49,0,0,1-2.14,6.16A22.24,22.24,0,0,0,114.22,108ZM21.8,123.67a16.92,16.92,0,0,1-1.42,3.8l-.19.36a7.6,7.6,0,0,1-2.73-5.58,21.1,21.1,0,0,1,.68-6.23A46.52,46.52,0,0,1,21.8,123.67Zm1.51,5.8a27,27,0,0,0,1.56-3.34,22.43,22.43,0,0,0,1,3.82A13.07,13.07,0,0,1,23.31,129.47Zm13.84,17.18a20,20,0,0,1-4.51-4.6,9.9,9.9,0,0,1-1.59-5.29,10.83,10.83,0,0,0,2.06,1.06,1.71,1.71,0,0,0,.65.13,1.62,1.62,0,0,0,1.56-1.41,1.88,1.88,0,0,0-1.16-2.16A7.45,7.45,0,0,1,31.9,133c.54-.14,1.07-.31,1.6-.49a11.78,11.78,0,0,0,6.07,5.85A36.76,36.76,0,0,1,37.15,146.65Zm3-13.34c0,.43-.06.85-.1,1.26a8.35,8.35,0,0,1-3.23-3.33A25.59,25.59,0,0,0,40.18,133.31ZM10.27,115a8.16,8.16,0,0,0,.77.91,4.2,4.2,0,0,1,.9,2.36,9.7,9.7,0,0,1-2.12,3.89A16.37,16.37,0,0,1,10.27,115Zm2.62-60.29a27.9,27.9,0,0,1,1.39-3.47c-.13,5.7-1.63,12.19-3,17.71A40.63,40.63,0,0,1,12.89,54.74Zm-5.24,10c0,1.33,0,2.71,0,4.16s.16,3,.26,4.44c.32,4.75.65,9.67-.17,14.38v0C5.16,81.33,5.12,73.61,7.65,64.73Zm99.6,74.07a33.67,33.67,0,0,0-1.7-3.73,11,11,0,0,0,3.63-4.54,8.71,8.71,0,0,0,.32-.85c.08.25.14.49.2.74.8,3.36-1,6.28-2.11,7.73A1.93,1.93,0,0,0,107.25,138.8Z"/><path class="cls-1" d="M112.72,161.13c-8.51-2-15.71-4.58-19.64-12.76-6.21-13.09-3.27-25.52-3.27-39.27H40.4c0,13.75,3,26.18-3.27,39.27C33.2,156.55,26,159.17,17.5,161.13h.65c14.4,0,28.13,4.69,42.21,5.89,26.83,2.29,33.71-4.58,53-5.56Z"/><path class="cls-2" d="M35.92,151a33.83,33.83,0,0,0,4.7-12.91,65.69,65.69,0,0,0,.64-13.73c-.19-5.09-.58-10.17-.73-15.26a.13.13,0,0,0-.25,0c-.25,9.54,1.43,19.08-.1,28.58A33.83,33.83,0,0,1,35.38,151,20.66,20.66,0,0,1,27,158a49,49,0,0,1-9.45,3.15h0a46,46,0,0,0,10.58-3.35A20,20,0,0,0,35.92,151Zm58-.59a19.67,19.67,0,0,0,7.64,7.09,43.18,43.18,0,0,0,11.16,3.64h0a44.77,44.77,0,0,1-10.79-3.84,20.09,20.09,0,0,1-8-7.74c-4.82-8.46-4.86-18.58-4.4-28,.2-4.14.48-8.28.37-12.44a.13.13,0,0,0-.25,0c-.28,9.35-1.6,18.84-.23,28.15A35.92,35.92,0,0,0,93.92,150.41Zm19.45,11a103.86,103.86,0,0,0-18.86,2.89,112.93,112.93,0,0,1-19.43,3A121.43,121.43,0,0,1,47.39,165c-9.69-1.77-19.33-4-29.24-3.92,0,0,0,0,0,0,10.38.1,20.53,2.56,30.69,4.39a115.1,115.1,0,0,0,27.85,1.89,116,116,0,0,0,18.06-2.93,118.71,118.71,0,0,1,18.62-3A.07.07,0,0,0,113.37,161.39Z"/><path class="cls-3" d="M108,84.89c-.82-6.71,1.15-9.16.66-13.91-.36-3.42-6.38-33.86-20.62-37.46s-25-3.93-34.52,4.25S40.24,61.66,38.44,69.35C35.83,80.47,33,92.4,33.72,103.89a27.14,27.14,0,0,0,2.84,10.5c5.3,10.57,16.67,20.7,27.29,25.54a25.79,25.79,0,0,0,10.91,2.55s9.49.82,16.69-9.32,15-19.8,16.52-27.82S108.79,91.6,108,84.89Z"/><path class="cls-4" d="M46.29,64.33S44.54,33.79,74.65,34c0,0,27.27-2.84,29.45,33.59L89.7,74.15,62,73.49Z"/><path class="cls-5" d="M87.08,117.23a10.36,10.36,0,1,1-10.36-10.36A10.36,10.36,0,0,1,87.08,117.23Z"/><path class="cls-6" d="M55.67,37.5c10.69-8.29,31.85-5,38.61,1.31s11.35,22.9,10.91,29.67l2.18,8.29s.29.45.71,1a24.93,24.93,0,0,0,.55-6.84c-.36-3.42-6.38-33.86-20.62-37.46s-25-3.93-34.52,4.25c-8.94,7.71-12.8,22.09-14.72,30.16l5.56-3.82S45,45.79,55.67,37.5Z"/><path class="cls-7" d="M53.49,96.56c-2.73-11.48-9.7-20-16.53-20.86C34.88,85,33.1,94.57,33.72,103.89a27.14,27.14,0,0,0,2.84,10.5,48.23,48.23,0,0,0,6.65,9.76,8.23,8.23,0,0,0,2-.22C53,122.09,56.66,109.84,53.49,96.56Z"/><path class="cls-8" d="M108,84.89a24.76,24.76,0,0,1,.11-7.07c-5.3,2.71-10.5,9.06-13.54,17.35C90,107.54,91.93,119.7,98.77,123c4.49-6.38,8.23-12.37,9.2-17.65C109.44,97.33,108.79,91.6,108,84.89Z"/><path class="cls-9" d="M39.25,79.66,54.8,83.58l8.34,1.31c3.77-7.36-.32-17-.32-17L60.2,68l-6.71-1.47s-6.38-2-11.45-1.64a6.12,6.12,0,0,0-2.72.75c-.34,1.35-.63,2.59-.88,3.67-.61,2.57-1.22,5.19-1.8,7.83A5.21,5.21,0,0,0,39.25,79.66Z"/><path class="cls-10" d="M106.66,68.37l-5.4-.49L93.57,69l-5.23,2-3.93-1c-4.09,6.22-1,15.87-1,15.87s5.89-.49,6.38-.49,7.36-1.14,11.45-2c2.95-.59,5.38-1.18,6.51-2.08a29,29,0,0,1,.44-4.33c-.34-3.24-.89-7.66-.89-7.66Z"/><path class="cls-11" d="M108.48,75.3c-1.59,1.71-6.32,3.64-8,2.07-2-1.8-7-1.31-7-1.31-7,1.47-7.53,6.38-7.53,6.38l14.73,2.45a18.62,18.62,0,0,0,7.17-2.48A35.44,35.44,0,0,1,108.48,75.3Z"/><path class="cls-12" d="M50.22,75.08a13.78,13.78,0,0,0-4.78.09c-1.32-.28-5.87-1.45-7.25-4.79-.56,2.42-1.13,4.87-1.67,7.35a10.58,10.58,0,0,0,7,4.22l.31-.92,2.63,1.08,16.64,2.73S62,75,50.22,75.08Z"/><path class="cls-13" d="M81,104.43c.41,2.16-.2,4.19-3.26,4.19-4.25,0-6.43-2.19-5.89-6.33s.77-15.38.77-15.38l6.21.22c-.45,5.25-.75,10.29,1.49,15.2A9.9,9.9,0,0,1,81,104.43Z"/><path class="cls-14" d="M65.46,102.53c-1.4.22-3.79,4.11-1.26,3.77a4.16,4.16,0,0,0,2.65-2.44C67.2,102.81,66.64,102.34,65.46,102.53Z"/><path class="cls-15" d="M85.93,103.78c1.12.48,2.53,4.75.48,3.94a4.21,4.21,0,0,1-1.82-2.9C84.44,103.72,85,103.37,85.93,103.78Z"/><path class="cls-16" d="M71.05,86.91c-1.09-.33-8.29,4.91-9.16,8a14.36,14.36,0,0,0,1.2,10.47,6,6,0,0,1,1.82-2.82c.94-.57,1.83.15,2.79.06a2.33,2.33,0,0,0,1.66-1.23c1.49-2.18,1.63-5,2.06-7.56a20.62,20.62,0,0,0,.43-5C71.81,88.23,71.73,87.12,71.05,86.91Z"/><path class="cls-17" d="M81.63,103.27s-1.74-2.94-1.74-5.23-.88-7,0-9.71,3.27,3,4,4.36,4.25,8.4,4.15,10a5.7,5.7,0,0,1-.77,2.61s-1.2-2.18-2.18-2.18-2.83,2-2.83,2Z"/><path class="cls-3" d="M71.57,101.58a8.85,8.85,0,0,1,8.59-.41L80,100.11a8.67,8.67,0,0,0-8.59.73Z"/><path class="cls-18" d="M63.41,108.4a8.73,8.73,0,0,1,4.26-.88c2.51.11,5.12,1.64,6.43,2.41s5.57,2.18,8.4-1c0,0,2.73-1.2,4.91-.43,0,0-.65,2.07-2.29,2.4a11.21,11.21,0,0,1-9.05,5c-6,0-11.56-5.67-11.56-5.67S63.41,108.94,63.41,108.4Z"/><path d="M67.07,108.86a5.35,5.35,0,0,0,4.42,1.23A5.37,5.37,0,0,0,67.07,108.86Z"/><path d="M82.45,110.66a4.73,4.73,0,0,1,2.78-1.06S84.82,110.82,82.45,110.66Z"/><path class="cls-19" d="M63.09,107.32A4.83,4.83,0,0,1,65,102.75s0-.07,0-.06c-3.19,1.87-2.83,7.46,1,8.25a0,0,0,0,0,0-.06A5.13,5.13,0,0,1,63.09,107.32Zm1.67,1.75s0,.09,0,.07c2.77-1,6.07.31,8.31,2,0,0,.1,0,.06-.08C71,109,67.6,107.72,64.76,109.07Zm21,.4a5.19,5.19,0,0,0-2.67.57,4,4,0,0,0,.29-.59c0-.08-.09-.12-.14,0a8.26,8.26,0,0,1-4.28,3.11,5.67,5.67,0,0,1-5.29-1s-.06,0,0,0a6.51,6.51,0,0,0,9-.92h0a6.83,6.83,0,0,1,1.39-.73,5.88,5.88,0,0,1,1.67-.2A.13.13,0,0,0,85.72,109.47Zm.36-5.81s-.11,0-.08.07a6.34,6.34,0,0,1,1.34,3.85,4,4,0,0,1-2.28,3.48s0,0,0,0a3.63,3.63,0,0,0,2.62-3.15A4.75,4.75,0,0,0,86.08,103.66ZM82.25,107a0,0,0,1,0,.07,0c.14-2.24-.85-4.1-1.57-6.16a18.28,18.28,0,0,1-.9-3.8c-.15-1.26-.1-2.52-.13-3.78,0-.06-.09-.08-.1,0a17.31,17.31,0,0,0,.51,6.94C80.75,102.48,82.3,104.5,82.25,107Z"/><path class="cls-20" d="M36.55,114.39c3.94,7.82,10.27,14.39,17.25,19.57a53.83,53.83,0,0,0,11.13,6.48,27.12,27.12,0,0,0,10.2,2.1c5.09.09,10-2.54,13.57-6A40.93,40.93,0,0,0,93,131.13c1.52-2.11,3.06-4.2,4.57-6.31a102.34,102.34,0,0,0,7.68-11.91,32.62,32.62,0,0,0,2.25-5.27,33.26,33.26,0,0,0,1.16-6.28,61.07,61.07,0,0,0-.21-13.31,54.07,54.07,0,0,1-.57-6.72,35.09,35.09,0,0,1,.6-5.31,18.86,18.86,0,0,0,.09-6.18,87.79,87.79,0,0,0-3.07-12.25,61.53,61.53,0,0,0-7.17-15.74A24.68,24.68,0,0,0,93.06,36a17.91,17.91,0,0,0-7.54-3.17C77.91,31.07,69.7,30,62.15,32.59,47.85,37.54,42.25,53.39,39,66.78A216.85,216.85,0,0,0,34.23,90c-1.07,8.15-1.45,16.82,2.29,24.37,0,0,.1,0,.08,0a31.91,31.91,0,0,1-2.94-14.45,89.37,89.37,0,0,1,1.62-15.72c.91-5,2.1-10,3.26-15,.67-2.88,1.39-5.75,2.24-8.59C42.94,53.4,45.93,46.06,51,40.34a27.56,27.56,0,0,1,9.36-6.89A28.33,28.33,0,0,1,71.6,31.18a56.79,56.79,0,0,1,12.79,1.55,32.12,32.12,0,0,1,5.22,1.39,14,14,0,0,1,3.35,2c4.46,3.44,7.31,8.79,9.52,13.86a89.51,89.51,0,0,1,5,15.42c.37,1.57.71,3.16,1,4.75a23.15,23.15,0,0,1-.37,7.33,26.36,26.36,0,0,0-.34,5.4c.1,2.24.49,4.49.71,6.73a56.81,56.81,0,0,1-.21,13.85,32.28,32.28,0,0,1-4.39,11.69,145.61,145.61,0,0,1-8.21,12.12c-2.84,3.93-5.42,8.22-9.32,11.2a19.65,19.65,0,0,1-8.18,3.71C71.86,143.39,65.45,141,60.06,138a63.6,63.6,0,0,1-13.53-10.28,51.81,51.81,0,0,1-10-13.3S36.54,114.37,36.55,114.39Z"/><path class="cls-21" d="M55.78,120.56s7.2,6.87,11.29,8.34,14.07,2.62,18.65-2c4.1-4.1,7.69-7.36,7.69-7.36l-7.2,1.47-9.16.66-10.14-.66Z"/><path class="cls-22" d="M86.21,121.05l-9.16.66-10.14-.66-11.13-.49s1.14,1.08,2.76,2.48l.19,0s14.39,1,17.5,1.48c2.89.45,10.6-.65,13.63-1.59,2.11-2,3.55-3.32,3.55-3.32Zm-22.16,6.24a15,15,0,0,0,3,1.61c4.09,1.48,14.07,2.62,18.65-2C77.93,131,65.23,127.62,64.05,127.29Z"/><path class="cls-23" d="M64.61,126.12s3.77,2,11,1.64,9-1.15,9-1.15l1.14-2s-11.45,2-20.94-.49A1.48,1.48,0,0,0,64.61,126.12Z"/><path class="cls-24" d="M93.41,118.43a8.24,8.24,0,0,1-6,.82c-3-.65-4.75-1.63-6.55-1.47a9.08,9.08,0,0,0-3.93,2c-2.78-2-6.7-2.45-10.47-2s-8,1.31-10.79,1.31-5.08-2.62-5.08-2.62L52,118.21c6.55,5.24,14.18,2.62,20.73,4.37h.47a19.76,19.76,0,0,0,3.23,1.08,9.87,9.87,0,0,0,3-.88h0c6.54-1.75,12.21.43,16.8-6.55A13.84,13.84,0,0,1,93.41,118.43Z"/><path class="cls-25" d="M72.71,122.5c-3.28-.81-6.66-.66-10-.83A18.63,18.63,0,0,1,52,118.2s0,0,0,0a17.3,17.3,0,0,0,9.75,3.48c3.65.31,7.39,0,11,.94C72.76,122.68,72.8,122.53,72.71,122.5Zm23.5-6.28a15.15,15.15,0,0,1-3.65,3.67,11.66,11.66,0,0,1-4.19,1.55c-2.76.52-5.57.51-8.3,1.15a4.88,4.88,0,0,0,.75-.61.09.09,0,0,0-.11-.13,10.94,10.94,0,0,1-3.33,1.52c-1.47.35-2.89-.29-4.25-.81,0,0,0,0,0,0,.78.32,1.55.65,2.36.92a2.8,2.8,0,0,0,1.71.14,8.4,8.4,0,0,0,2.55-.88c3-.69,6.06-.65,9.06-1.25a10.89,10.89,0,0,0,7.48-5.26S96.25,116.18,96.21,116.22Z"/><path class="cls-26" d="M39.25,66.24c3.11-1.68,6.68-1,9.92-.16,3,.8,5.25,3,8.41,3.43a5.75,5.75,0,0,0,5.24-1.8s-8.19-2-12-2.94a20.32,20.32,0,0,0-10.8-.33Z"/><path class="cls-27" d="M107.49,69.78c-2.95-1.83-6.47-1.35-9.68-.66-3,.64-5.29,2.71-8.41,3a5.55,5.55,0,0,1-5-2.06s8.1-1.55,11.83-2.34a19.47,19.47,0,0,1,10.57.22Z"/><path class="cls-28" d="M40.26,78.37a9.93,9.93,0,0,1,4.5-2.71A17,17,0,0,1,50.44,75a15.93,15.93,0,0,1,10.39,4.16s.08,0,.05,0c-2.24-3-6.71-4.16-10.24-4.52a15.38,15.38,0,0,0-6.18.61,8.13,8.13,0,0,0-4.25,3.09s0,.07,0,0Z"/><path class="cls-28" d="M102.05,79.48a6.4,6.4,0,0,0-3.15-3,8.86,8.86,0,0,0-4.61-.63c-2.9.31-6.3,1.82-7.75,4.5,0,0,0,.06,0,0a10.91,10.91,0,0,1,7.52-4.16c2.94-.29,6.21.75,7.88,3.34,0,0,.07,0,.06,0Z"/><path d="M58.73,85.69s-12.26,5.1-19.64-6.5a9.33,9.33,0,0,0,4.58,0c2.29-.66,10.95-4.93,17.51,3.4l-4.74,2Z"/><path class="cls-29" d="M43.67,82.13c3.94,5.06,11.46,4.88,17.68,2.74H63l-1-1.31c-3.29-6-14.57-6.51-19.15-1.92Z"/><path class="cls-30" d="M56.08,81.62A4.59,4.59,0,0,0,55.24,79a16.17,16.17,0,0,0-7.64.1,4.62,4.62,0,0,0,2,6.77,16,16,0,0,0,2.33.38A4.62,4.62,0,0,0,56.08,81.62Z"/><path class="cls-31" d="M51.46,85.71a4.09,4.09,0,0,0,3-6.91,16.51,16.51,0,0,0-6,.08,4.08,4.08,0,0,0,3,6.83Z"/><path d="M53.87,81.62a2.42,2.42,0,1,1-2.41-2.41A2.41,2.41,0,0,1,53.87,81.62Z"/><path class="cls-32" d="M53.16,81.62a1.71,1.71,0,1,1-1.7-1.71A1.7,1.7,0,0,1,53.16,81.62Z"/><path class="cls-29" d="M52.45,79.62a1,1,0,1,1-1-1A1,1,0,0,1,52.45,79.62Z"/><path class="cls-29" d="M51.93,84a.48.48,0,1,1-.47-.48A.48.48,0,0,1,51.93,84Z"/><path d="M62,83.55c-1.73-3.26-5.41-4.75-8.92-5.12-3.67-.39-7.63.48-10.26,3.19a0,0,0,0,0,0,0c2.52-2.36,6.52-3,9.85-2.85,3.53.18,7.39,1.59,9.26,4.78C62,83.61,62,83.58,62,83.55Zm-.68,1.29c-1.54.37-3,.85-4.61,1.11a20.19,20.19,0,0,1-4.85.2,11.57,11.57,0,0,1-8.2-4s0,0,0,0a11.28,11.28,0,0,0,7.77,4.12,18.47,18.47,0,0,0,4.87-.09,18.59,18.59,0,0,0,5.06-1.26A0,0,0,0,0,61.34,84.84Z"/><path d="M87.13,86.7s10,5.82,17.09-5.31a6.77,6.77,0,0,1-3.88-.29c-1.89-.79-8.93-5.57-15.07,2.35l3.88,2.25Z"/><path class="cls-29" d="M100.13,84c-3.69,4.82-10,4.19-15.16,1.69l-1.38-.11.92-1.24c3.2-5.84,12.8-5.63,16.35-.78Z"/><path class="cls-33" d="M96.36,83.26a4.72,4.72,0,0,0-1.08-3,11.25,11.25,0,0,0-7.22.81,4.78,4.78,0,0,0-.54,2.21A4.64,4.64,0,0,0,90,87.42a14,14,0,0,0,3.4.19A4.62,4.62,0,0,0,96.36,83.26Z"/><path class="cls-34" d="M91.94,87.35a4,4,0,0,0,3.91-4.09,4.15,4.15,0,0,0-1.44-3.17,11.33,11.33,0,0,0-5.51.59A4.22,4.22,0,0,0,88,83.26,4,4,0,0,0,91.94,87.35Z"/><path d="M94.24,83.26a2.31,2.31,0,1,1-2.3-2.42A2.36,2.36,0,0,1,94.24,83.26Z"/><path class="cls-35" d="M93.57,83.26a1.63,1.63,0,1,1-1.63-1.71A1.67,1.67,0,0,1,93.57,83.26Z"/><path class="cls-29" d="M92.88,81.25a.95.95,0,1,1-1.89,0,.95.95,0,1,1,1.89,0Z"/><path class="cls-29" d="M92.39,85.62a.46.46,0,0,1-.45.47.48.48,0,0,1,0-1A.46.46,0,0,1,92.39,85.62Z"/><path d="M84.53,84.39a9.19,9.19,0,0,1,8.17-4.21c2.83,0,6.17.93,8.14,3.44a0,0,0,0,0,0,0,9.53,9.53,0,0,0-8.47-3.8,9.21,9.21,0,0,0-7.91,4.57S84.51,84.43,84.53,84.39ZM85,85.75a16.06,16.06,0,0,0,8.31,1.94,9.28,9.28,0,0,0,6.87-3.64s0,0,0,0a9.4,9.4,0,0,1-7.22,3.54,14.47,14.47,0,0,1-4.09-.5c-1.32-.34-2.55-.92-3.83-1.37C85,85.68,84.93,85.73,85,85.75Z"/><path class="cls-36" d="M129.84,95.75c-2.59-.1-4.52-2.12-6.07-4a28.28,28.28,0,0,1-2.83-4.17c7.24-9.25,10.64-22,7.55-33.48a35.16,35.16,0,0,0-8.37-14.45c-1-3.59-2-10.62-5.33-16.55C110.86,16.12,99.74,7.61,93,6.74,87.39,6,82.7,8.87,81.23,9.88,77.15,4.73,72.05-.13,65,.56c-6.39.62-12.23,3.72-17.88,6.56s-11.19,5.21-16.8,7.77c-3.52,1.62-5.71,4.46-7.29,7.92-1.67,3.65-3.12,7.35-4.94,10.94a36.19,36.19,0,0,0-3.18,8.09,91.84,91.84,0,0,0-6.24,11.4C3.12,65.2-.45,80.41,6.57,92.36a29.18,29.18,0,0,0,1.82,18.45c-.24.56-.47,1.13-.68,1.71a18.92,18.92,0,0,0-.53,11.86,11,11,0,0,1-5,.21c-1.66-.26-2.36,2.26-.7,2.52a14.86,14.86,0,0,0,6.65-.25,21,21,0,0,0,2.59,4.28c1,1.33,2.87-.54,1.85-1.85a17.52,17.52,0,0,1-2.12-3.49,9.54,9.54,0,0,0,1.36-1,10.66,10.66,0,0,0,2.57-3.9,12.37,12.37,0,0,0,.71,4.89A10.61,10.61,0,0,0,19.1,131c-1.94,3.87-3.25,7.88.52,11.5,1.22,1.17,3.07-.68,1.85-1.85-2.27-2.19-2-4.68-.72-7.34.18-.39.37-.77.56-1.15a15.54,15.54,0,0,0,6.75,1l.17.24a17.69,17.69,0,0,0-.3,2.17c-.48,6.34,3.58,10.67,8.2,14.23.44-.75.84-1.53,1.21-2.33a21.7,21.7,0,0,1-5.11-5.1,10.74,10.74,0,0,1-1.67-6.51,11,11,0,0,0,2.73,1.56c1.57.61,2.25-1.92.69-2.53a7.93,7.93,0,0,1-3-2.11.06.06,0,0,0,0,0,20.23,20.23,0,0,0,2.78-.83A11.35,11.35,0,0,0,40.12,138l.06-.35c.13-.78.23-1.56.31-2.34a8.91,8.91,0,0,1-4.41-4.55l.57-.33a24.7,24.7,0,0,0,4,2.56,105.86,105.86,0,0,0-.1-12.08,47.35,47.35,0,0,1-4-6.51,0,0,0,0,1,0,0c-.28-.56-.52-1.12-.75-1.69a25,25,0,0,0,3.53-10.39c.7-6.36-.44-13-1.25-19.33-.35-2.71-.7-5.41-1-8.11.62-2.71,1.27-5.42,1.93-8.11,3.28-13.39,8.88-29.24,23.18-34.19,6.3-2.18,13.05-1.78,19.54-.56a20.4,20.4,0,0,1,2.93,2.74c3.82,4.37,5.59,10.24,6.89,15.77.75,3.14,1.19,6.35,1.94,9.49A42.23,42.23,0,0,0,98,70.78c3.72,6.66,8.58,12.91,10.18,20.51a1.18,1.18,0,0,0,.58.82,52.94,52.94,0,0,1-.14,9.25,33.26,33.26,0,0,1-1.16,6.28,32.62,32.62,0,0,1-2.25,5.27,93.66,93.66,0,0,1-6.82,10.71,26,26,0,0,0,.68,3.82c.2.8.44,1.58.7,2.35a12.08,12.08,0,0,0,1.68,4.09,17,17,0,0,1-2.5,1c-1.61.49-.92,3,.7,2.53a23.92,23.92,0,0,0,3-1.14l.52,1c1.71,3.17,3,6.43-.2,9.08-1.31,1.08.55,2.92,1.85,1.85,4.7-3.86,2.42-8.74.11-13.23a10.59,10.59,0,0,0,3.81-4.58,12.14,12.14,0,0,0,.7-2.25,13.07,13.07,0,0,1,.75,2.21,9.7,9.7,0,0,1-2.21,8.15c-1,1.31.81,3.18,1.85,1.85a12.66,12.66,0,0,0,1.93-13.49,18.48,18.48,0,0,0-2.08-3.58c-.06-.77-.14-1.53-.25-2.29.26-.3.51-.6.75-.91l.11,0c.92,1.1,1.89,2.13,2.88,3.11,2.68,2.64,6.19,4.71,10,3.77,1.64-.4.94-2.92-.7-2.52-3.26.79-6.07-1.62-8.19-3.8-.77-.78-1.51-1.61-2.21-2.47,3-3.62,6.39-7.06,7.15-11.92a24.75,24.75,0,0,0-.73-9.65,48.9,48.9,0,0,0,1.08-5.92c2.4,3.9,5.88,7.59,10.23,7.75C131.53,98.43,131.52,95.81,129.84,95.75ZM125.7,53.91c2.79,8.67,1.11,18.62-3.28,26.7a83.78,83.78,0,0,0-.06-33.76A30.51,30.51,0,0,1,125.7,53.91ZM8.26,87.83c-.14.44-.29.87-.43,1.27C3.7,80.27,5.14,70,8.42,60.69a51.86,51.86,0,0,0-.24,8.17C8.46,75.16,9.35,81.59,8.26,87.83Zm1.25,35.31a17.2,17.2,0,0,1,.58-9.23,11.51,11.51,0,0,0,1.3,1.69,4.85,4.85,0,0,1,1,2.74A9.42,9.42,0,0,1,9.51,123.14ZM11,72.28c0-.38-.05-.75-.08-1.12-.35-5.64-.24-11.15,1.5-16.57a27.5,27.5,0,0,1,2.34-5.27C15,56.62,12.61,65.63,11,72.28Zm9.82,55.41c-.16.29-.31.59-.47.89A8.09,8.09,0,0,1,17,122.29a23.7,23.7,0,0,1,1-7.41c1.7,2.05,3.57,6.63,4.39,8.76A17.59,17.59,0,0,1,20.82,127.69Zm1.78,2.06a26.56,26.56,0,0,0,2-4.36c.17-.51.31-1,.43-1.55,0,0,0,.06,0,.1a23.27,23.27,0,0,0,1.59,6.54A13.09,13.09,0,0,1,22.6,129.75Zm9.08.08a33.42,33.42,0,0,0,.7-3.73,20,20,0,0,0,.54,3.32C32.52,129.57,32.1,129.71,31.68,129.83Zm3-20.49c-.2-.75-.38-1.51-.52-2.29h0L34,106.5A55.74,55.74,0,0,1,34.23,90c.32-2.45.72-4.88,1.17-7.31a120.26,120.26,0,0,1,1.44,16.7A23.13,23.13,0,0,1,34.63,109.34Zm65.63-39.88a38.93,38.93,0,0,1-4.61-11.58c-.66-3.33-1.24-6.67-2.08-10-1.37-5.31-3.4-10.58-6.95-14.81a23.67,23.67,0,0,1,2.63.8l.11,0A13.43,13.43,0,0,1,93.06,36a19.75,19.75,0,0,1,1.68,1.48c.55.79,1.08,1.61,1.56,2.45a33.78,33.78,0,0,1,3.89,12.59c.62,4.94.25,9.93.87,14.87a43.48,43.48,0,0,0,.91,5Q101.09,70.92,100.26,69.46ZM108.44,76a41.82,41.82,0,0,0-.57,4.46,39.07,39.07,0,0,1-4.44-15.3c-.45-4.94-.16-9.87-.91-14.8-.06-.39-.13-.79-.21-1.18a77.87,77.87,0,0,1,3.15,8.39,87.79,87.79,0,0,1,3.07,12.25A18.86,18.86,0,0,1,108.44,76Zm-2.56,39.3c0,.21.07.41.1.61.18,1.14.4,2.29.6,3.44-.6-.71-1.19-1.43-1.75-2.17C105.17,116.57,105.52,116,105.88,115.32Zm-3.76,10.38a20.56,20.56,0,0,1,.25-2.09,17.58,17.58,0,0,1,1.19-3.83c.51.66,1,1.3,1.57,2A21.63,21.63,0,0,0,102.12,125.7Zm4.93.85a8.35,8.35,0,0,1-3.35,6l-.43-.93a1.24,1.24,0,0,0,.18-.72c-.15-2.84,1.48-5.07,3.32-7.1l.36.47A17.84,17.84,0,0,1,107.05,126.55ZM110,115.16l-.38-.64,1.18-2A12.23,12.23,0,0,1,110,115.16Zm3.46-2.8c.08-.45.14-.9.19-1.35a22,22,0,0,0,.1-3.15,31.63,31.63,0,0,0,3-5.72l.06.7C117.06,106.68,115.5,109.62,113.44,112.36ZM99.52,140.64c-4-2.29-5.67-6.5-5.58-10.86l-1,1.35L91.59,133a13.54,13.54,0,0,0,6.61,9.88A1.31,1.31,0,0,0,99.52,140.64Z"/><path class="cls-37" d="M67.19,26.92a1,1,0,0,0-.61-.59c-12.86-5.59-28.46,1.06-33.51,14.12-2.36,6.1-5.07,12.11-7,18.34-1.78,5.66-3.29,12.74.14,18.09.91,1.42,3.17.11,2.26-1.32-1.71-2.67-1.94-5.83-1.55-9a1.32,1.32,0,0,0,1.35-.23,28.44,28.44,0,0,0,7.78-11c1.86-4.46,3.34-9,5.77-13.22,4.86-8.41,14.64-14.11,24.44-12.78C67.78,29.59,68.5,27.37,67.19,26.92ZM41.39,38.06c-3.08,4.12-4.94,8.94-6.74,13.71-1.7,4.49-3.78,8.47-7.2,11.76.32-1.4.72-2.76,1.11-4C30.32,53.76,33,48.36,35,42.76A23.58,23.58,0,0,1,46.67,29.3,22.46,22.46,0,0,1,59.14,27,28.36,28.36,0,0,0,41.39,38.06ZM70.18,16.52c-6-3.89-13.47-3.84-20.21-2.24a39,39,0,0,0-18,9.64,1.17,1.17,0,0,0-.32,1.26,15.87,15.87,0,0,0-1.88,1.71c-4,4.31-3.82,10.14-5,15.52-1.37,6.34-6.8,11-6.94,17.78a1.31,1.31,0,0,0,2.62,0c.12-5.78,4.66-10.44,6.46-15.73.91-2.64.94-5.54,1.46-8.27a16.8,16.8,0,0,1,2.7-6.8c3.75-5.23,11.65-6.08,17.39-7.54,3.4-.86,6.47-2.27,10-2.05a19.19,19.19,0,0,1,9.71,3.89c1.37,1,2.68-1.29,1.32-2.26a22.55,22.55,0,0,0-9.66-4.09c-3.77-.59-6.88.51-10.44,1.54-3.23.93-6.72,1.57-10,2.57a40.85,40.85,0,0,1,10.84-4.53c6.15-1.62,13.14-1.71,18.64,1.86C70.28,19.7,71.59,17.43,70.18,16.52ZM109.55,37C104.87,31.05,98,26,90.14,26.48a1.91,1.91,0,0,0-.36.07,14.34,14.34,0,0,0-5.23.31c-1.64.38-.94,2.91.7,2.52,10.3-2.43,15.6,8.79,20,16,1.22,2,2.66,3.82,3.9,5.79a13.83,13.83,0,0,1,2.15,7.33c.06,3.11-.4,6.21-.22,9.32.22,3.81,1,7.52.35,11.33-.26,1.66,2.26,2.36,2.53.7.62-3.88.11-7.61-.22-11.48-.29-3.43.24-6.84.17-10.26-.12-5.86-3.88-9.9-6.76-14.64-2.64-4.32-5.52-9.37-9.32-12.84a27.16,27.16,0,0,1,9.91,8.28c4.25,5.51,7.36,12.6,7.25,19.65a1.31,1.31,0,0,0,2.61,0C117.75,50.78,114.3,43,109.55,37ZM98.32,22.88c5.4,2.63,9.54,7.53,12.29,12.77.78,1.5,3,.17,2.25-1.32-3.17-6.06-8.11-11.53-14.47-14.28-6.6-2.87-13.44-1.5-19,2.89-1.33,1,.54,2.88,1.85,1.85A15.58,15.58,0,0,1,98.32,22.88Z"/><path class="cls-38" d="M114.79,23.1C110.86,16.12,99.74,7.61,93,6.74,87.39,6,82.7,8.87,81.23,9.88,77.15,4.73,72.05-.13,65,.56c-6.39.62-12.23,3.72-17.88,6.56s-11.19,5.21-16.8,7.77c-3.52,1.62-5.71,4.46-7.29,7.92-1.67,3.65-3.12,7.35-4.94,10.94a36.19,36.19,0,0,0-3.18,8.09A89.77,89.77,0,0,0,8.77,53h0s5.67-8.07,8.07-10.25c0,0,1.53-5.9,3.27-8.51s4.15-10.69,6.55-13.75S42.58,11.76,48.25,8.92,61.12,2.81,64.61,2.38,77.92,6.74,80.54,12c0,0,8.07-4.59,12.43-3.71s15.71,8.72,18.11,12,7.42,20.5,7.42,20.5a76.39,76.39,0,0,1,9.23,10.95,36.79,36.79,0,0,0-7.61-12.07C119.1,36.06,118.12,29,114.79,23.1Z"/><path class="cls-39" d="M25,103.8c-.34-7.5,5.24-13.85,5.36-21.36a1.31,1.31,0,0,0-2.62,0C27.63,90,22.3,96.2,22.39,103.8A15.85,15.85,0,0,0,26,113c2.05,2.78,4.5,5.35,5.31,8.8.39,1.65,2.92,1,2.53-.69C32.26,114.58,25.32,110.8,25,103.8Zm-2.2-13.88c.59-4.57-1.6-8.9-2.47-13.27-1-4.9.08-9.6,1.91-14.15.63-1.57-1.91-2.25-2.53-.7A27.62,27.62,0,0,0,17.5,75.33c.54,4.76,3,9.17,2.74,14-.2,4.37-2.54,8.46-4.33,12.34a39.32,39.32,0,0,0-2.18,5.72,45.83,45.83,0,0,1-.64-20.26c.31-1.65-2.21-2.35-2.53-.7A47.42,47.42,0,0,0,12.9,113c0,.22,0,.45,0,.67.06,1.69,2.68,1.69,2.62,0C15.23,105.11,21.73,98.23,22.81,89.92Zm96.56-8.57c.11-1.69-2.51-1.68-2.62,0-.62,9.71-9.16,17.74-7.15,27.83.33,1.66,2.85.95,2.53-.69-.95-4.72,1.12-9.43,3-13.67S119.06,86.13,119.37,81.35Z"/></g></g></svg>