<svg xmlns="http://www.w3.org/2000/svg" xmlns:xlink="http://www.w3.org/1999/xlink" viewBox="0 0 143.65 183.71"><defs><style>.cls-1{fill:url(#linear-gradient);}.cls-2{fill:url(#linear-gradient-2);}.cls-3{fill:url(#linear-gradient-3);}.cls-4{fill:url(#linear-gradient-4);}.cls-5{fill:url(#linear-gradient-5);}.cls-6{fill:url(#linear-gradient-6);}.cls-7{fill:url(#linear-gradient-7);}.cls-8{fill:url(#linear-gradient-8);}.cls-9{fill:url(#linear-gradient-9);}.cls-10{fill:url(#linear-gradient-10);}.cls-11{fill:#ffc2a7;}.cls-12{fill:url(#radial-gradient);}.cls-13{fill:url(#radial-gradient-2);}.cls-14{fill:url(#linear-gradient-11);}.cls-15{fill:url(#radial-gradient-3);}.cls-16{fill:url(#linear-gradient-12);}.cls-17{fill:url(#linear-gradient-13);}.cls-18{fill:url(#linear-gradient-14);}.cls-19{fill:url(#linear-gradient-15);}.cls-20{fill:url(#linear-gradient-16);}.cls-21{fill:url(#linear-gradient-17);}.cls-22{fill:#a9563f;}.cls-23{fill:#f3735c;}.cls-24{fill:#f36252;}.cls-25{fill:url(#radial-gradient-4);}.cls-26{fill:#c22537;}.cls-27{fill:url(#linear-gradient-18);}.cls-28{fill:url(#linear-gradient-19);}.cls-29{fill:url(#linear-gradient-20);}.cls-30{fill:url(#linear-gradient-21);}.cls-31{fill:url(#linear-gradient-22);}.cls-32{fill:#fff;}.cls-33{fill:url(#linear-gradient-23);}.cls-34{fill:url(#linear-gradient-24);}.cls-35{fill:url(#linear-gradient-25);}.cls-36{fill:#eba9a9;}.cls-37{fill:url(#linear-gradient-26);}.cls-38{fill:url(#linear-gradient-27);}.cls-39{fill:url(#linear-gradient-28);}</style><linearGradient id="linear-gradient" x1="49.48" y1="89.17" x2="-3.17" y2="41.9" gradientUnits="userSpaceOnUse"><stop offset="0"/><stop offset="1" stop-color="#2d4753"/></linearGradient><linearGradient id="linear-gradient-2" x1="77.12" y1="220.06" x2="77.12" y2="235.12" xlink:href="#linear-gradient"/><linearGradient id="linear-gradient-3" x1="86.97" y1="50.29" x2="77.16" y2="-12.32" gradientUnits="userSpaceOnUse"><stop offset="0" stop-color="#0c1417"/><stop offset="1" stop-color="#436270"/></linearGradient><linearGradient id="linear-gradient-4" x1="47.81" y1="135.1" x2="45.52" y2="170.44" xlink:href="#linear-gradient"/><linearGradient id="linear-gradient-5" x1="111.52" y1="141.43" x2="108.9" y2="168.26" xlink:href="#linear-gradient"/><linearGradient id="linear-gradient-6" x1="17.56" y1="77.12" x2="-5.51" y2="41.29" xlink:href="#linear-gradient"/><linearGradient id="linear-gradient-7" x1="81.47" y1="120.35" x2="56.93" y2="23.17" xlink:href="#linear-gradient-3"/><linearGradient id="linear-gradient-8" x1="77.58" y1="23.07" x2="77.58" y2="131.71" gradientUnits="userSpaceOnUse"><stop offset="0" stop-color="#436270"/><stop offset="0.5" stop-color="#0c1417"/><stop offset="1" stop-color="#436270"/></linearGradient><linearGradient id="linear-gradient-9" x1="84.59" y1="70.19" x2="84.59" y2="82.3" gradientUnits="userSpaceOnUse"><stop offset="0"/><stop offset="1" stop-color="#3a5b6f"/></linearGradient><linearGradient id="linear-gradient-10" x1="78.7" y1="133.72" x2="78.7" y2="161.54" gradientUnits="userSpaceOnUse"><stop offset="0" stop-color="#d4866f"/><stop offset="1" stop-color="#ffc2a7"/></linearGradient><radialGradient id="radial-gradient" cx="-497.69" cy="82.22" r="43.83" gradientTransform="matrix(0.34, -0.09, 0.16, 0.57, 213.66, 14.04)" gradientUnits="userSpaceOnUse"><stop offset="0" stop-color="#ffa191"/><stop offset="1" stop-color="#ffc2a7"/></radialGradient><radialGradient id="radial-gradient-2" cx="-624.63" cy="356.73" r="43.84" gradientTransform="matrix(0.35, 0.07, -0.11, 0.58, 383.26, -59.74)" xlink:href="#radial-gradient"/><linearGradient id="linear-gradient-11" x1="84.66" y1="45.08" x2="84.66" y2="70.75" gradientUnits="userSpaceOnUse"><stop offset="0" stop-color="#ffd9bd"/><stop offset="1" stop-color="#ffc2a7"/></linearGradient><radialGradient id="radial-gradient-3" cx="-571.83" cy="-295.91" r="27.4" gradientTransform="matrix(0.34, -0.02, 0.02, 0.26, 294.54, 187.77)" xlink:href="#linear-gradient-11"/><linearGradient id="linear-gradient-12" x1="65.23" y1="67.81" x2="65.23" y2="89.03" xlink:href="#linear-gradient-10"/><linearGradient id="linear-gradient-13" x1="111.7" y1="66.53" x2="111.7" y2="89" xlink:href="#linear-gradient-10"/><linearGradient id="linear-gradient-14" x1="94.24" y1="113.65" x2="94.24" y2="122.98" xlink:href="#linear-gradient-10"/><linearGradient id="linear-gradient-15" x1="95.04" y1="105.59" x2="95.04" y2="86.28" xlink:href="#linear-gradient-11"/><linearGradient id="linear-gradient-16" x1="102.13" y1="67.73" x2="78.49" y2="100.58" gradientUnits="userSpaceOnUse"><stop offset="0" stop-color="#d4866f"/><stop offset="1" stop-color="#ffad96"/></linearGradient><linearGradient id="linear-gradient-17" x1="35.09" y1="79.53" x2="57.34" y2="127.31" gradientUnits="userSpaceOnUse"><stop offset="0" stop-color="#d4866f"/><stop offset="1" stop-color="#ffb19f"/></linearGradient><radialGradient id="radial-gradient-4" cx="-953.8" cy="-139.16" r="31.35" gradientTransform="translate(340.74 177.52) rotate(1.95) scale(0.26)" gradientUnits="userSpaceOnUse"><stop offset="0" stop-color="#f38f76"/><stop offset="1" stop-color="#f3735c"/></radialGradient><linearGradient id="linear-gradient-18" x1="94.23" y1="112.63" x2="94.23" y2="107.81" gradientUnits="userSpaceOnUse"><stop offset="0" stop-color="#a9563f"/><stop offset="1" stop-color="#e9a68c"/></linearGradient><linearGradient id="linear-gradient-19" x1="60.78" y1="84.96" x2="60.78" y2="93.95" xlink:href="#linear-gradient-10"/><linearGradient id="linear-gradient-20" x1="118.54" y1="84.08" x2="118.54" y2="92.19" xlink:href="#linear-gradient-10"/><linearGradient id="linear-gradient-21" x1="65.06" y1="72.62" x2="65.06" y2="70.01" gradientUnits="userSpaceOnUse"><stop offset="0"/><stop offset="1" stop-color="#162329"/></linearGradient><linearGradient id="linear-gradient-22" x1="989.62" y1="59.84" x2="989.62" y2="57.24" gradientTransform="matrix(-0.77, 0.03, 0.04, 1, 869.83, -17.94)" xlink:href="#linear-gradient-21"/><linearGradient id="linear-gradient-23" x1="100.66" y1="73.42" x2="100.66" y2="66.49" gradientTransform="translate(-40.19 24.26) rotate(-4.18)" gradientUnits="userSpaceOnUse"><stop offset="0" stop-color="#39140a"/><stop offset="1"/></linearGradient><linearGradient id="linear-gradient-24" x1="100.66" y1="73.42" x2="100.66" y2="66.49" gradientTransform="translate(-40.19 24.26) rotate(-4.18)" gradientUnits="userSpaceOnUse"><stop offset="0.01" stop-color="#652312"/><stop offset="1" stop-color="#210000"/></linearGradient><linearGradient id="linear-gradient-25" x1="100.66" y1="69.99" x2="100.66" y2="71.79" gradientTransform="translate(-40.19 24.26) rotate(-4.18)" gradientUnits="userSpaceOnUse"><stop offset="0"/><stop offset="1" stop-color="#77726d"/></linearGradient><linearGradient id="linear-gradient-26" x1="120.24" y1="83.42" x2="120.24" y2="76.49" gradientTransform="translate(-11.72 8.3) rotate(-1.22)" xlink:href="#linear-gradient-23"/><linearGradient id="linear-gradient-27" x1="120.23" y1="83.42" x2="120.23" y2="76.49" gradientTransform="translate(-11.72 8.3) rotate(-1.22)" xlink:href="#linear-gradient-24"/><linearGradient id="linear-gradient-28" x1="120.23" y1="80" x2="120.23" y2="81.8" gradientTransform="translate(-11.72 8.3) rotate(-1.22)" xlink:href="#linear-gradient-25"/></defs><g id="Layer_2" data-name="Layer 2"><g id="_7_Face" data-name="7_Face"><path d="M143.52,176.54c-7.27-7.93-10.49-21-9.84-40.11.56-16.15,3.76-33,6.33-46.55q.47-2.47.9-4.74c.15-.83.3-1.64.44-2.43A87.34,87.34,0,0,0,137.07,37a.45.45,0,0,0-.2-.23c-3.71-2.19-9-7.65-14.63-13.44-5.19-5.35-11.08-11.42-16.73-16C98,1.27,86.49,0,78.14,0a69.32,69.32,0,0,0-7,.33c-12,1.45-22.92,6.82-32.51,16A85.71,85.71,0,0,0,22,38.88c-6.8,13.25-9.22,56.35-9.22,89.23,0,.54,0,1.08,0,1.6v.53c0,.35,0,.7,0,1s0,.42,0,.62,0,.61,0,.92l0,.65,0,.86v.21l0,.44,0,.84c0,.3,0,.59-.05.89l-.06,1-.06.8v.09l0,.47c0,.29,0,.58-.07.87l0,.45c0,.3-.05.6-.08.9l0,.35c0,.32-.07.64-.1,1v.15c-.2,1.87-.45,3.72-.73,5.51C8,169.19.24,176.43.16,176.5a.5.5,0,0,0-.11.59.5.5,0,0,0,.44.27H.6a42.65,42.65,0,0,1,6.8-.8l1.16-.05h.17l1.13,0h0l1.14,0h1.42a.51.51,0,0,0,.42-.24,139,139,0,0,0,13.32-31.1c-1.43,8.38-4.4,20.1-10.56,30.61a.48.48,0,0,0,0,.49.49.49,0,0,0,.42.25l1.39,0h.49l.89,0h.54l1,0h.13l1.6.05h0a.5.5,0,0,0,.43-.25A74.44,74.44,0,0,0,31.08,155a186.48,186.48,0,0,0,2.77-21c.32,10.61-.25,29.62-7.23,42a.51.51,0,0,0,0,.48.5.5,0,0,0,.4.25l2.11.13a.49.49,0,0,0,.48.43h.67c8.44,0,16.8,1.57,24.89,3.09a184.53,184.53,0,0,0,18.29,2.8c3.71.31,7.27.46,10.57.46,10.55,0,17.71-1.58,24.62-3.1a107.56,107.56,0,0,1,19.16-2.93.48.48,0,0,0,.45-.39s0,0,0,0c1.27,0,2.72,0,4.32,0,5.27,0,10.5.15,10.56.15h0a.49.49,0,0,0,.45-.29A.47.47,0,0,0,143.52,176.54Zm-22-1.65c-1-.31-1.86-.62-2.7-1-.59-7.79.63-16.58,1.8-22.74A121.12,121.12,0,0,0,121.51,174.89ZM21.27,142.79c-.76,8-3.76,16.31-6.11,21.86,4.2-15.22,5.92-31.84,6.61-42.75A187.6,187.6,0,0,1,21.27,142.79Z"/><path class="cls-1" d="M140.87,82.63a86.05,86.05,0,0,0-4.25-45.49c-7.2-4.25-19.64-20-31.42-29.45s-34-6.87-34-6.87C44,4.09,28.63,27,22.41,39.11s-9.16,51.7-9.16,89S.49,176.87.49,176.87a63.51,63.51,0,0,1,12-1C15.88,170,25.82,151.75,28,133.67c0,0-.62,23-11.91,42.24,2.12,0,4.2.09,6.08.17a73.88,73.88,0,0,0,8.45-21.14c2.61-12.76,3.27-28.79,3.27-28.79s3.44,31.92-6.82,50.16c2.18.13,3.55.23,3.55.23l1.41-.26c1.57-3.65,4.34-11.9,4.8-25.59.66-19.31,1-52,2-56.28l2.94,11.45s7.2,1.64,9.82,3.27,14.72,10.8,16.36,12.11,14.4,6.54,16,6.87,38.29-8.51,38.29-8.51-.66,14.4-2.29,21.6-5.89,25.85-3,35l.21.66,1.44,0c-2-14.37,3.26-33.73,3.26-33.73a117.59,117.59,0,0,0,.43,33.75c1.3,0,2.27,0,2.84,0,6.22-.33,18,0,18,0C124.84,156.91,136.29,107.82,140.87,82.63ZM21.76,142.84c-1.31,13.74-9.16,28.46-9.16,28.46,9.16-26.83,9.16-61.51,9.16-61.51S23.07,129.09,21.76,142.84Z"/><path class="cls-2" d="M119.93,141.2c1.63-7.2,2.29-21.6,2.29-21.6s-36.65,8.84-38.29,8.51-14.39-5.56-16-6.87-13.74-10.47-16.36-12.11-9.82-3.27-9.82-3.27L38.78,94.41c-1,4.25-1.31,37-2,56.28-.46,13.69-3.23,21.94-4.8,25.59l7.42-1.38,25.2.66s35.74,1.07,52.56,1.31l-.21-.66C114,167.05,118.29,148.4,119.93,141.2Z"/><path class="cls-3" d="M70.84,29.78c-.1-3.23-3.16-5.71-5.23-8-4.07-4.44-8.9-8.56-4.58-14.44L57.76,8.46A5.27,5.27,0,0,0,56,11c.36-.07.88.12,1.25.07.42,2.59-1.14,3.09.68,5.63,2.54,3.56,4.79,6.19,2.84,10.7-.62,1.44-3,4.49-2.63,6.12.23,1,1.46,1.18,1.93,2.16.9,1.89-.94,3.69-1.12,5.21,3.57-4.31,10.25-5.11,15.06-7.4C70.21,33.57,70.94,33,70.84,29.78Zm37.59-11.12c-.4-1.26-3.05-3.76-1.39-4.58-.85-1.57-2.47-2.65-3.69-3.88l-4.58-2c2.31,1.76,2.94,3.72,3.75,6.32.76,2.43,4.64,3.3,4.54,6.11-.11,3.07-4.24,4.56-4.81,7.42-.28,1.36.63,2.4-.15,3.71s-2.45,1.51-3.7,1.75c2.69-.28,5.4,1.55,8,1.05.16-3.18-1.9-7.41,0-10C108.06,22.36,109.46,21.93,108.43,18.66Z"/><path class="cls-4" d="M38.78,173.92a138.83,138.83,0,0,0,3.27-42.21l3.6,5.56s1.63,15.06,1.31,20c0,0,1.63-14.73,1.63-18.66l1.64,3.28s1,22.57,2,24.54-7.85,9.16-8.83,9.49S38.78,173.92,38.78,173.92Z"/><path class="cls-5" d="M112.4,172.29s1-18,2.62-23.89l1-7.53-5.23,6.22-1.31,14.4-1.64-13.09-1.64,2.29s2.29,11.45-1,17Z"/><path class="cls-6" d="M28.75,109.69c-.58-67.35,26.59-83.55,29-84.87-17.49,9-25.48,30.52-29.14,48.6a265.49,265.49,0,0,1,9.69-44.27c-22.58,29-19.64,81-21.11,105.52a133.08,133.08,0,0,1-9.83,41.39c1.62-.09,3.34-.14,5.08-.15C15.88,170,25.82,151.75,28,133.67c0,0-.62,23-11.91,42.24,1.53,0,3,.06,4.48.11C28.05,167.07,30.78,136.83,28.75,109.69Zm-7,33.15c-1.31,13.74-9.16,28.46-9.16,28.46,9.16-26.83,9.16-61.51,9.16-61.51S23.07,129.09,21.76,142.84Z"/><path class="cls-7" d="M136.62,37.14c-7.2-4.25-19.64-20-31.42-29.45s-34-6.87-34-6.87C44,4.09,28.63,27,22.41,39.11s-9.16,51.7-9.16,89a131.42,131.42,0,0,1-1.46,20.27l0,0s2.46-15.22,4.42-43.69,1-52.51,9.33-64.78S47.15.19,80.53,3.14c0,0,7.85,6.87,8.83,22.57,0,0,2-6.87-4.91-21.59,0,0,14.64-.3,19.55,4.12s24,24.65,31.2,29.88c0,0,7.4,18.78,4.75,49.44.33-1.73.64-3.38.92-4.93A86.05,86.05,0,0,0,136.62,37.14Z"/><path class="cls-8" d="M124.07,120.8c2.18-30.32-.87-48.43-6.54-65.22s-9-22-9-22l1.31,5.24c-5.67-3.71-16.58-4.15-16.58-4.15L89,36.82l-1.09-2.19A45.46,45.46,0,0,0,59.5,42.92c-14,9.82-20.72,31-22.25,49.09s-.87,41.66-1.31,56.93a92.54,92.54,0,0,1-5.56,27.58l.22,0,1.41-.26c1.57-3.65,4.34-11.9,4.8-25.59.66-19.31,1-52,2-56.28l2.94,11.45s7.2,1.64,9.82,3.27,14.72,10.8,16.36,12.11,14.4,6.54,16,6.87,38.29-8.51,38.29-8.51-.66,14.4-2.29,21.6-5.89,25.85-3,35l.21.66H118c-.08-.36-.17-.73-.26-1.1C113.6,159.2,121.89,151.13,124.07,120.8Z"/><path class="cls-9" d="M51.21,56.45s4.58-10.8,14.07-15.71S87.2,36.49,87.2,36.49l1,2.29a8.31,8.31,0,0,1,4.58-3c2.94-.65,15,2,18.32,5.57,0,0,5.57,13.09,6.87,21.27Z"/><path class="cls-10" d="M127.11,176.87c-8.71-2-16.08-4.58-20.1-12.76-6.37-13.09-3.35-25.53-3.35-39.27H53.07c0,13.74,3,26.18-3.35,39.27-4,8.18-11.4,10.79-20.11,12.76h.67c14.75,0,28.81,4.69,43.22,5.89,27.48,2.29,34.51-4.58,54.28-5.57Z"/><path class="cls-11" d="M120.58,71.5c-3.27-17.89-11.78-29.23-13.09-30.1s-6.54-1.31-8.72-1.31H94l.87-.87a15.32,15.32,0,0,0-3.49.43,26.76,26.76,0,0,1-3.93.66c-5-.88-18.76.65-29.88,8.72S44.88,75,44.88,79.57s-.21,5.24-2,11.35.66,12.21.66,12.21A28.45,28.45,0,0,1,39.87,97l-1.09-2.19a32.22,32.22,0,0,1-.44,5,45.26,45.26,0,0,0-.44,6.33s3.28,6.54,5.24,6.76a3.44,3.44,0,0,0,3-1.31c2.62,13.53,10.47,19.2,19.64,26.61s20.72,12,29,11.35,11.34-4.8,16.36-10.69,11.35-18.76,11.35-18.76C125.38,95.28,120.58,71.5,120.58,71.5Z"/><path class="cls-12" d="M71.12,103c-4-14.64-14.48-24.52-23.37-22.08a10.83,10.83,0,0,0-2.92,1.32c-.13,2.53-.56,4-1.91,8.71-1.74,6.11.66,12.21.66,12.21A28.45,28.45,0,0,1,39.87,97l-1.09-2.19a32.22,32.22,0,0,1-.44,5,45.26,45.26,0,0,0-.44,6.33s3.28,6.54,5.24,6.76a3.44,3.44,0,0,0,3-1.31c2.13,11,7.69,16.77,14.61,22.53a9.46,9.46,0,0,0,1.5-.29C71.19,131.45,75.14,117.6,71.12,103Z"/><path class="cls-13" d="M121.69,78.39c-6,3.55-11.26,11.83-13.24,22.14-2.6,13.54,1.3,25.92,8.83,29.37,3-5,5.27-9.75,5.27-9.75C124.45,103.44,122.91,87.23,121.69,78.39Z"/><path class="cls-14" d="M54.05,73S51.43,57.76,61.9,50.56,94,41.4,105.75,44.23c0,0,8.07,15.49,9.81,25.53L104.22,75l-28.58.66Z"/><path class="cls-15" d="M106.17,122.12c.23,3.91-3.73,7.32-8.84,7.62s-9.44-2.63-9.67-6.54,3.73-7.32,8.84-7.62S105.94,118.21,106.17,122.12Z"/><path class="cls-16" d="M70,72.81s-10.69-3.27-17.23,1.31,2.83,12.22,2.83,12.22l13.31,2.18L78,89.61c3.27-5.67,1.53-16.36,1.53-16.36Z"/><path class="cls-17" d="M117.09,70.63l-5.45.87-9.16,2.4c-2.84,5.89-.66,15.71-.66,15.71l16.8-4.15,3-.43.71-1c-.74-6.91-1.61-11.56-1.77-12.38C118.91,71.1,117.09,70.63,117.09,70.63Z"/><path class="cls-18" d="M84.26,114.21a11.8,11.8,0,0,1,4.58-1.15c2.29,0,4.91,2.29,7.2,1.8a19.88,19.88,0,0,0,5.4-2.62s2.45.33,2.78,1.47c0,0-1,1.8-2.13,2,0,0-2.12,4.58-6.7,4.58s-7-1-9.33-3.93l-1.47-1.14Z"/><path d="M87.86,114.45a6.73,6.73,0,0,1,2.53.57A1.48,1.48,0,0,1,87.86,114.45Z"/><path d="M99.88,114.53l.82-.74h.9A1.17,1.17,0,0,1,99.88,114.53Z"/><path class="cls-19" d="M96.15,112.51s-5.89.22-6.11-5.23,1.53-8.73-.22-19.2L98.11,87s0,10.47.44,13.31S103.35,111.42,96.15,112.51Z"/><path class="cls-11" d="M89.6,104.44s3.49-4.58,11.35-.65v-2.62S94,99,88.51,102.48Z"/><path class="cls-20" d="M120.58,71.5c-3.27-17.89-11.78-29.23-13.09-30.1s-6.54-1.31-8.72-1.31H94l.87-.87a15.32,15.32,0,0,0-3.49.43,26.76,26.76,0,0,1-3.93.66c-5-.88-18.76.65-29.88,8.72-7.06,5.12-10.25,14.18-11.65,21.3a41.52,41.52,0,0,1,23-25.88c18.32-5,38-1.31,38-1.31s13.52,29.45,14.61,44.72c1,13.62-1.87,34.69-2.49,39.1,2.1-3.79,3.59-6.81,3.59-6.81C125.38,95.28,120.58,71.5,120.58,71.5Z"/><path class="cls-21" d="M51,113.17c-5.74-9.31-6.81-23.65-7-26.22-.27,1-.63,2.3-1.11,4-1.74,6.11.66,12.21.66,12.21A28.45,28.45,0,0,1,39.87,97l-1.09-2.19a32.22,32.22,0,0,1-.44,5,45.26,45.26,0,0,0-.44,6.33s3.28,6.54,5.24,6.76a3.44,3.44,0,0,0,3-1.31c2.62,13.53,10.47,19.2,19.64,26.61a57.93,57.93,0,0,0,9,6l-.5-.31C63.43,137.16,57.32,123.42,51,113.17Z"/><path class="cls-22" d="M123.27,93.93c-.65-12.21-2.1-24.83-6.49-36.32a57.16,57.16,0,0,0-8-14.93,8.34,8.34,0,0,0-1.08-1.22,5.58,5.58,0,0,0-2.68-.89A58,58,0,0,0,94.56,40h-.4l.73-.73a.08.08,0,0,0,0-.13,23.15,23.15,0,0,0-4.6.7,11.91,11.91,0,0,1-3.71.27,32.07,32.07,0,0,0-8.24.44A51.39,51.39,0,0,0,67,43.76,40.06,40.06,0,0,0,56.17,50c-5.12,4.35-8,10.86-9.63,17.23a57.15,57.15,0,0,0-1.44,8.11c-.22,2.14-.2,4.26-.28,6.41a24.56,24.56,0,0,1-.92,5.57c-.4,1.48-.88,3-1.23,4.45a18,18,0,0,0-.39,4.63,22,22,0,0,0,1.14,6.32c0,.12.09.25.14.37a6.16,6.16,0,0,0-.78-1.08c-.25-.35-.49-.7-.73-1.06a28.65,28.65,0,0,1-2.13-3.88A.1.1,0,0,0,40,97c-.36-.73-.72-1.46-1.09-2.18a.11.11,0,0,0-.21,0c0,2.81-.62,5.54-.78,8.33-.06,1-.09,2-.09,3,0,.35.4.84.56,1.12A18.54,18.54,0,0,0,42,112.48a3,3,0,0,0,4.11-.59,35,35,0,0,0,4.07,10.88,38.24,38.24,0,0,0,6.65,8.08c2.7,2.56,5.64,4.85,8.53,7.19a60.47,60.47,0,0,0,11.35,7.3c6.76,3.33,14.89,5.77,22.38,3.62a18.24,18.24,0,0,0,8-5.22,65.56,65.56,0,0,0,6.63-8,125,125,0,0,0,8.75-15.24,1.75,1.75,0,0,0,.13-.28,9.92,9.92,0,0,0,.18-1.63c.08-.74.14-1.49.21-2.23.22-2.61.36-5.23.44-7.84C123.62,103.63,123.53,98.77,123.27,93.93ZM123.21,110q-.15,4-.53,7.89c-.06.64-.13,1.28-.2,1.92,0,.24,0,.21-.06.35l-.33.66a114.26,114.26,0,0,1-9.47,16.09c-1.08,1.48-2.29,2.85-3.48,4.24a43.71,43.71,0,0,1-3.61,3.84,17.32,17.32,0,0,1-9.91,4.41,28.54,28.54,0,0,1-11.34-1.33,51.77,51.77,0,0,1-12.23-5.58,84.63,84.63,0,0,1-9.2-6.8,87.17,87.17,0,0,1-7.21-6.36,34.29,34.29,0,0,1-9.34-17.74.11.11,0,0,0-.2,0,3.38,3.38,0,0,1-2.71,1.28c-.9,0-1.6-.86-2.13-1.5a26.87,26.87,0,0,1-3-4.77,1.27,1.27,0,0,1-.22-.9c0-1.14.06-2.29.15-3.43s.25-2.34.4-3.51a35.54,35.54,0,0,1,4.56,6.79s0,0,0,0a27,27,0,0,0-4.51-7.06l0,0c.13-1,.24-2.09.27-3.14.29.59.59,1.19.89,1.78a.09.09,0,0,0,.13,0,30.75,30.75,0,0,0,3.66,6s0,0,0,0a20.91,20.91,0,0,1-1.2-9.24c.32-3.68,2.06-7.1,2.41-10.8.21-2.2.08-4.43.27-6.64a55,55,0,0,1,1.28-8.06c1.54-6.65,4.4-13.36,9.58-18a38.9,38.9,0,0,1,11.54-6.71,49.87,49.87,0,0,1,11.27-3.06,27.66,27.66,0,0,1,8.66-.24,5,5,0,0,0,1.33-.16c1.06-.14,2.09-.38,3.13-.62a14.55,14.55,0,0,1,2.8-.31l-.2.2-.55.54a.08.08,0,0,0,.06.13,72.66,72.66,0,0,1,10,.4c1.08.15,2.71.25,3.59,1a7.31,7.31,0,0,1,1,1.17c3.65,4.59,6.23,10.18,8.26,15.62A85.2,85.2,0,0,1,121,74.59a184,184,0,0,1,2.12,20.7C123.38,100.2,123.41,105.11,123.21,110Z"/><path class="cls-23" d="M77.94,126.44s6.8,6.94,10.84,8.39,11.73,1.71,14.12-1.16,6.66-8.12,6.66-8.12l-7.91,1.53-12.9-.77Z"/><path class="cls-24" d="M101.65,127.08l-12.9-.77-10.81.13s1.2,1.23,2.91,2.77c2.76.44,19.82,2.94,26.44-.87l2.27-2.79Zm-15.91,5.84-.14.14a14.84,14.84,0,0,0,3.18,1.77c4,1.45,11.73,1.71,14.12-1.16l1-1.25-.18.13C98,136.94,85.74,132.92,85.74,132.92Z"/><path class="cls-25" d="M86.56,131.15s5.67.19,9.17.09,7.3.14,7.18.68-2.7,2.2-7.49,2S88.78,133.3,86.56,131.15Z"/><path class="cls-24" d="M113.62,121.75s-4.86,3.44-7,3-3.21-1.74-5.18-1.65A11.15,11.15,0,0,0,97,125a24.56,24.56,0,0,0-5.36-1.49c-2.28-.25-7.6,2.19-11.38,2.56a10.27,10.27,0,0,1-6.65-1.87c5.73,5,13.29,4.06,20.32,4.29h.29l.69.21a3.63,3.63,0,0,0,3.72-.38C104.79,128.25,109.93,126.75,113.62,121.75Z"/><path class="cls-26" d="M93.92,128.31a36.23,36.23,0,0,0-5.21-.09,47.38,47.38,0,0,1-5.19-.18,18.48,18.48,0,0,1-9.92-3.88s0,0,0,0a17.44,17.44,0,0,0,9.16,3.9,49.29,49.29,0,0,0,5.43.46,52.17,52.17,0,0,0,5.73.07A.15.15,0,0,0,93.92,128.31Zm19.66-6.6a16.55,16.55,0,0,1-6.94,5.21A29.76,29.76,0,0,1,99,128.16a2.68,2.68,0,0,0,.28-.3c.06-.07,0-.17-.12-.12-.28.17-.58.34-.88.5h-.08s0,0,0,0a4.21,4.21,0,0,1-3.27.35s0,0,0,0a3.5,3.5,0,0,0,2.48.43,3.31,3.31,0,0,0,1.41-.74c5.46.43,11.87-1.86,14.9-6.57C113.7,121.73,113.62,121.66,113.58,121.71Z"/><path class="cls-27" d="M85.62,115.57a5.22,5.22,0,0,1-1.57-1.67c-1-1.76-.07-3.93.28-5.73a.07.07,0,0,0-.14,0c-.62,1.65-1.32,4.16-.58,5.88.82,1.89,2.88,2.49,4.57,3.32,0,0,0,0,0,0A25.7,25.7,0,0,1,85.62,115.57Zm.57-.61a.07.07,0,1,0,.07.12c1.34-.77,3-.31,4.34.16s2.71,1.23,4.09,1.82c.1,0,.18-.1.08-.15C92.24,115.77,89,113.1,86.19,115Zm15.78-.8a.54.54,0,0,0,.07-.48.11.11,0,0,0-.11-.08c-.2,0-.41,0-.61,0h-.26c.26-.27.5-.54.74-.81,0,0,0-.1-.06-.07-2.08,1.54-3.59,4.31-6.52,4.24a.06.06,0,0,0,0,.11,5.35,5.35,0,0,0,3.44-1.3,19.3,19.3,0,0,0,2.16-1.91,2.1,2.1,0,0,0,.5,0,4.7,4.7,0,0,0,.53,0,.39.39,0,0,1,0,.36,3.88,3.88,0,0,0-.23.33s0,0,0,0C101.71,114.38,101.86,114.3,102,114.16Zm2.13-7c0-.05-.11,0-.09,0,1.18,3,1.45,7-2.11,8.38-.15,0-.09.28.06.23a4.16,4.16,0,0,0,3.14-3.53A9.15,9.15,0,0,0,104.1,107.15Z"/><path class="cls-28" d="M60.7,83.61A9.12,9.12,0,0,0,55,85.79a14.06,14.06,0,0,1-3,.44l.44.87,2.51.33S59.5,92,65.72,91.24s2.83-3.7,2.83-3.7Z"/><path class="cls-29" d="M115.56,89.83s4-1.75,5.24-3.93l1.64-.76v-1l-1.75.11A5,5,0,0,0,116.11,83C113.16,83.5,115.56,89.83,115.56,89.83Z"/><path class="cls-30" d="M49.9,75.86s7.42-3.7,12.87-2.83S73.68,77,75.64,76.3,80.23,73,80.23,73s-2.41.43-7.86-1.31S59.28,66.92,49.9,75.86Z"/><path class="cls-31" d="M107.16,71.29c-4.12,1.91-6,1.54-6,1.54s2.12,2.54,3.66,3.14,5.61-2.63,9.77-3.67a11.47,11.47,0,0,1,6.26.73c-.17-1-.28-1.53-.28-1.53l-.09-.49C114.91,67.3,110.5,69.74,107.16,71.29Z"/><path d="M55.93,86.9l-.63-.61s3.46-3.73,10.38-3.36S77,88.66,77,88.66Z"/><path class="cls-32" d="M78.23,89.89C74.21,85.75,70,83.71,63.8,84c-2.43,0-6.3,1.17-7.87,3l.54.86c4.75,4.75,12.61,3.63,17.79,2.35l1.95-.45Z"/><path class="cls-33" d="M70.09,86.09a4.89,4.89,0,0,0-.37-1.54A19.44,19.44,0,0,0,63.8,84a13.08,13.08,0,0,0-2.9.42,4.71,4.71,0,0,0-.45,2.42A4.83,4.83,0,0,0,64,91.1q1,.11,2,.12A4.83,4.83,0,0,0,70.09,86.09Z"/><path class="cls-34" d="M65.58,90.71a4.29,4.29,0,0,0,4-4.58A4.35,4.35,0,0,0,69,84.37,20.06,20.06,0,0,0,63.8,84a12,12,0,0,0-2.18.26A4.23,4.23,0,0,0,61,86.75,4.28,4.28,0,0,0,65.58,90.71Z"/><path d="M67.79,86.25a2.53,2.53,0,1,1-2.71-2.33A2.54,2.54,0,0,1,67.79,86.25Z"/><path class="cls-35" d="M67.05,86.31a1.78,1.78,0,1,1-1.91-1.65A1.79,1.79,0,0,1,67.05,86.31Z"/><path class="cls-32" d="M65.19,85.38a1,1,0,0,0,1-1.11,1,1,0,0,0-.08-.3c-.61,0-1.25,0-1.9,0a1.11,1.11,0,0,0-.09.48A1,1,0,0,0,65.19,85.38Z"/><path class="cls-32" d="M66,88.86a.51.51,0,0,1-.47.54.5.5,0,1,1,.47-.54Z"/><path d="M55.94,86.92a11.08,11.08,0,0,1,5.55-2.58,18,18,0,0,1,6.3-.08c4.13.6,7.37,2.85,10.38,5.71.08.07.2-.06.13-.14A17.87,17.87,0,0,0,61,84.23a9.53,9.53,0,0,0-5.1,2.66,0,0,0,0,0,0,0Z"/><path class="cls-36" d="M56.45,87.79C61,92.44,68.67,91.7,74.28,90.16c.06,0,0-.12,0-.1-5.94,1.27-12.81,2.28-17.77-2.32,0,0,0,0,0,.05Z"/><path d="M120.11,85.72l.49-.65a9.58,9.58,0,0,0-8.55-2.75c-5.64.76-9.08,6.36-9.08,6.36Z"/><path class="cls-32" d="M102,90c3.18-4.36,6.57-6.65,11.63-6.77,2-.09,5.17.81,6.5,2.5l-.42.89c-3.76,5-10.21,4.34-14.47,3.37l-1.6-.34Z"/><path class="cls-37" d="M110.29,90.26a4.67,4.67,0,0,0,4.4-4.93,5.12,5.12,0,0,0-.5-2.11c-.2,0-.4,0-.58,0a12.69,12.69,0,0,0-7.9,2.75A4.64,4.64,0,0,0,110.29,90.26Z"/><path class="cls-38" d="M110.28,89.71a4.14,4.14,0,0,0,3.89-4.37,4.45,4.45,0,0,0-.58-2.12,12.75,12.75,0,0,0-7.39,2.38A4.15,4.15,0,0,0,110.28,89.71Z"/><path d="M112.54,85.38a2.36,2.36,0,1,1-2.41-2.48A2.44,2.44,0,0,1,112.54,85.38Z"/><path class="cls-39" d="M111.85,85.39a1.67,1.67,0,1,1-1.7-1.75A1.73,1.73,0,0,1,111.85,85.39Z"/><path class="cls-32" d="M110.16,84.37a1,1,0,0,0,.93-.88,10.6,10.6,0,0,0-1.72.46A1,1,0,0,0,110.16,84.37Z"/><path class="cls-32" d="M110.7,87.89a.47.47,0,0,1-.45.5.5.5,0,0,1,0-1A.47.47,0,0,1,110.7,87.89Z"/><path d="M120.1,85.74a8,8,0,0,0-4.6-2.26,12.09,12.09,0,0,0-5.14.28c-3.36.84-6,3.27-8.33,6.3-.06.07-.17,0-.11-.13a15.08,15.08,0,0,1,8.6-6.44,11.89,11.89,0,0,1,5.37-.14,7,7,0,0,1,4.23,2.36s0,0,0,0Z"/><path class="cls-36" d="M119.7,86.63c-3.58,4.9-9.87,4.61-14.49,3.4,0,0,0-.12,0-.11,4.88.93,10.51,1.54,14.45-3.34,0,0,0,0,0,0Z"/></g></g></svg>