<svg xmlns="http://www.w3.org/2000/svg" xmlns:xlink="http://www.w3.org/1999/xlink" viewBox="0 0 151.75 170.61"><defs><style>.cls-1{fill:url(#linear-gradient);}.cls-2{fill:url(#linear-gradient-2);}.cls-3{fill:url(#linear-gradient-3);}.cls-4{fill:url(#linear-gradient-4);}.cls-5{fill:url(#linear-gradient-5);}.cls-6{fill:url(#linear-gradient-6);}.cls-7{fill:url(#linear-gradient-7);}.cls-8{fill:url(#linear-gradient-8);}.cls-9{fill:url(#linear-gradient-9);}.cls-10{fill:url(#linear-gradient-10);}.cls-11{fill:url(#linear-gradient-11);}.cls-12{fill:#f29a6e;}.cls-13{fill:url(#linear-gradient-12);}.cls-14{fill:url(#radial-gradient);}.cls-15{fill:url(#radial-gradient-2);}.cls-16{fill:url(#linear-gradient-13);}.cls-17{fill:url(#radial-gradient-3);}.cls-18{fill:url(#linear-gradient-14);}.cls-19{fill:url(#linear-gradient-15);}.cls-20{fill:url(#linear-gradient-16);}.cls-21{fill:url(#linear-gradient-17);}.cls-22{fill:url(#linear-gradient-18);}.cls-23{fill:url(#linear-gradient-19);}.cls-24{fill:url(#linear-gradient-20);}.cls-25{fill:url(#linear-gradient-21);}.cls-26{fill:url(#linear-gradient-22);}.cls-27{fill:url(#linear-gradient-23);}.cls-28{fill:url(#linear-gradient-24);}.cls-29{fill:url(#linear-gradient-25);}.cls-30{fill:url(#linear-gradient-26);}.cls-31{fill:#c36135;}.cls-32{fill:url(#linear-gradient-27);}.cls-33{fill:url(#linear-gradient-28);}.cls-34{fill:url(#linear-gradient-29);}.cls-35{fill:url(#linear-gradient-30);}.cls-36{fill:#f06244;}.cls-37{fill:#dc513e;}.cls-38{fill:url(#radial-gradient-4);}.cls-39{fill:#a73825;}.cls-40{fill:url(#linear-gradient-31);}.cls-41{fill:url(#linear-gradient-32);}.cls-42{fill:#fff;}.cls-43{fill:url(#linear-gradient-33);}.cls-44{fill:url(#linear-gradient-34);}.cls-45{fill:url(#linear-gradient-35);}.cls-46{fill:url(#linear-gradient-36);}.cls-47{fill:url(#linear-gradient-37);}.cls-48{fill:url(#linear-gradient-38);}</style><linearGradient id="linear-gradient" x1="38.95" y1="101.27" x2="38.95" y2="69.03" gradientUnits="userSpaceOnUse"><stop offset="0"/><stop offset="1" stop-color="#162329"/></linearGradient><linearGradient id="linear-gradient-2" x1="49" y1="122.29" x2="37.55" y2="146.17" xlink:href="#linear-gradient"/><linearGradient id="linear-gradient-3" x1="87.98" y1="61.31" x2="87.98" y2="7.32" xlink:href="#linear-gradient"/><linearGradient id="linear-gradient-4" x1="114.25" y1="122.5" x2="114.25" y2="142.79" xlink:href="#linear-gradient"/><linearGradient id="linear-gradient-5" x1="88.3" y1="46.02" x2="88.3" y2="9.91" gradientUnits="userSpaceOnUse"><stop offset="0" stop-color="#0f171b"/><stop offset="1" stop-color="#1e3038"/></linearGradient><linearGradient id="linear-gradient-6" x1="87.98" y1="61.31" x2="87.98" y2="7.32" gradientUnits="userSpaceOnUse"><stop offset="0" stop-color="#1a2533"/><stop offset="1" stop-color="#30445d"/></linearGradient><linearGradient id="linear-gradient-7" x1="81.22" y1="157.68" x2="81.22" y2="112.46" gradientUnits="userSpaceOnUse"><stop offset="0" stop-color="#f29a6e"/><stop offset="1" stop-color="#d46c41"/></linearGradient><linearGradient id="linear-gradient-8" x1="65.92" y1="57.12" x2="69.85" y2="62.36" xlink:href="#linear-gradient"/><linearGradient id="linear-gradient-9" x1="94.17" y1="29.46" x2="94.17" y2="25.22" xlink:href="#linear-gradient"/><linearGradient id="linear-gradient-10" x1="94.69" y1="29.83" x2="94.69" y2="25.26" gradientUnits="userSpaceOnUse"><stop offset="0" stop-color="#0f1619"/><stop offset="1" stop-color="#426170"/></linearGradient><linearGradient id="linear-gradient-11" x1="94.96" y1="27.57" x2="94.96" y2="24.88" xlink:href="#linear-gradient-10"/><linearGradient id="linear-gradient-12" x1="92.14" y1="62.8" x2="92.14" y2="9.63" gradientUnits="userSpaceOnUse"><stop offset="0" stop-color="#f29a6e"/><stop offset="1" stop-color="#ffb68b"/></linearGradient><radialGradient id="radial-gradient" cx="-224.59" cy="-1256.41" r="61.33" gradientTransform="matrix(0.24, -0.05, 0.06, 0.3, 197.73, 454.57)" gradientUnits="userSpaceOnUse"><stop offset="0" stop-color="#ffb68b"/><stop offset="1" stop-color="#f29a6e"/></radialGradient><radialGradient id="radial-gradient-2" cx="-858.2" cy="-907.16" r="61.34" gradientTransform="matrix(0.18, 0.08, -0.12, 0.3, 166.42, 431.14)" xlink:href="#radial-gradient"/><linearGradient id="linear-gradient-13" x1="53.23" y1="91.11" x2="78.75" y2="146.08" xlink:href="#linear-gradient-7"/><radialGradient id="radial-gradient-3" cx="-371.92" cy="-1331.47" r="36.67" gradientTransform="translate(188.05 452.69) scale(0.26)" xlink:href="#radial-gradient"/><linearGradient id="linear-gradient-14" x1="104.36" y1="119.37" x2="145.81" y2="50.85" xlink:href="#linear-gradient-7"/><linearGradient id="linear-gradient-15" x1="88.57" y1="63.7" x2="88.57" y2="21.87" xlink:href="#linear-gradient-7"/><linearGradient id="linear-gradient-16" x1="36.34" y1="88.29" x2="53.89" y2="75.45" xlink:href="#linear-gradient-7"/><linearGradient id="linear-gradient-17" x1="43.56" y1="81.07" x2="49.21" y2="78.02" gradientUnits="userSpaceOnUse"><stop offset="0" stop-color="#dd7444"/><stop offset="1" stop-color="#cc5b2c"/></linearGradient><linearGradient id="linear-gradient-18" x1="45.67" y1="71.4" x2="49.81" y2="69.16" xlink:href="#linear-gradient-17"/><linearGradient id="linear-gradient-19" x1="82.71" y1="83.11" x2="100.54" y2="93.25" xlink:href="#linear-gradient-7"/><linearGradient id="linear-gradient-20" x1="102.57" y1="85.4" x2="86.32" y2="90.31" xlink:href="#linear-gradient-7"/><linearGradient id="linear-gradient-21" x1="93.82" y1="82.41" x2="92.52" y2="110.56" xlink:href="#linear-gradient-12"/><linearGradient id="linear-gradient-22" x1="84.7" y1="94.72" x2="80.78" y2="95.81" xlink:href="#linear-gradient-12"/><linearGradient id="linear-gradient-23" x1="98.89" y1="95.93" x2="102.38" y2="98.11" xlink:href="#linear-gradient-12"/><linearGradient id="linear-gradient-24" x1="91.35" y1="107.78" x2="91.35" y2="99.24" xlink:href="#linear-gradient-7"/><linearGradient id="linear-gradient-25" x1="69.28" y1="71.26" x2="72.72" y2="58.5" xlink:href="#linear-gradient-7"/><linearGradient id="linear-gradient-26" x1="113.22" y1="77.65" x2="115.18" y2="67.34" xlink:href="#linear-gradient-7"/><linearGradient id="linear-gradient-27" x1="71.23" y1="53.37" x2="71.23" y2="57.93" gradientUnits="userSpaceOnUse"><stop offset="0" stop-color="#cf6632"/><stop offset="1" stop-color="#b3471a"/></linearGradient><linearGradient id="linear-gradient-28" x1="115.24" y1="57.31" x2="115.24" y2="62.44" xlink:href="#linear-gradient-27"/><linearGradient id="linear-gradient-29" x1="91.45" y1="98.54" x2="91.45" y2="92.06" gradientUnits="userSpaceOnUse"><stop offset="0" stop-color="#c36135"/><stop offset="1" stop-color="#f29a6e"/></linearGradient><linearGradient id="linear-gradient-30" x1="44.19" y1="81.44" x2="49.77" y2="78.42" xlink:href="#linear-gradient-27"/><radialGradient id="radial-gradient-4" cx="-373" cy="-1292.31" r="35.76" gradientTransform="translate(188.05 452.69) scale(0.26)" gradientUnits="userSpaceOnUse"><stop offset="0" stop-color="#ff9e73"/><stop offset="1" stop-color="#f06244"/></radialGradient><linearGradient id="linear-gradient-31" x1="70.45" y1="61.66" x2="70.45" y2="56.83" xlink:href="#linear-gradient"/><linearGradient id="linear-gradient-32" x1="22.81" y1="54.29" x2="22.81" y2="49.45" gradientTransform="matrix(-0.65, -0.24, -0.35, 0.94, 150.94, 23.81)" xlink:href="#linear-gradient"/><linearGradient id="linear-gradient-33" x1="71.6" y1="76.11" x2="71.6" y2="69.48" gradientUnits="userSpaceOnUse"><stop offset="0" stop-color="#876130"/><stop offset="1"/></linearGradient><linearGradient id="linear-gradient-34" x1="71.6" y1="76.11" x2="71.6" y2="69.48" gradientUnits="userSpaceOnUse"><stop offset="0.01" stop-color="#9c6e52"/><stop offset="1" stop-color="#4a1a1a"/></linearGradient><linearGradient id="linear-gradient-35" x1="71.6" y1="72.84" x2="71.6" y2="74.55" gradientUnits="userSpaceOnUse"><stop offset="0"/><stop offset="1" stop-color="#a38b7f"/></linearGradient><linearGradient id="linear-gradient-36" x1="112.34" y1="80.58" x2="112.34" y2="73.95" xlink:href="#linear-gradient-33"/><linearGradient id="linear-gradient-37" x1="112.34" y1="80.58" x2="112.34" y2="73.95" xlink:href="#linear-gradient-34"/><linearGradient id="linear-gradient-38" x1="112.35" y1="77.31" x2="112.35" y2="79.02" xlink:href="#linear-gradient-35"/></defs><g id="Layer_2" data-name="Layer 2"><g id="_1_Face" data-name="1_Face"><path d="M151.62,165.58c-10-11.08-11.21-28.53-11.22-28.71,0,0,0-.07,0-.1-2.62-9.72.82-26.07,3.86-40.49.48-2.26.95-4.47,1.38-6.62,3.25-16,1.34-35.51,1.31-35.74s-2.33-13.61-13.83-30.09S98.18.15,97.94.08a.18.18,0,0,0-.1,0s-.72-.06-2-.06A64.5,64.5,0,0,0,52.51,17.86c-.59.57-1.16,1.13-1.71,1.69l-.32.33-.19.19-1.13,1.19-.53.57c-.37.4-.73.81-1.09,1.21l-.17.2-.24.27c-.49.55-1,1.11-1.4,1.66l-.09.1-.08.1c-.39.49-.78,1-1.14,1.44l-.35.46,0,.06c-.29.38-.58.76-.85,1.14l-.08.1-.31.43c-.3.41-.58.82-.86,1.22l-.12.18-.14.21c-.36.53-.71,1.05-1,1.58l-.08.14-.1.16c-.27.42-.53.84-.78,1.25l-.2.35-.09.14-.62,1.07-.27.48L37.82,37l-.07.13-.07.14c-.26.49-.5,1-.73,1.45l-.13.25,0,.09-.5,1.07-.13.28-.08.17-.42,1-.07.16-.1.25c-.17.39-.32.78-.49,1.2l0,.11c-.17.43-.32.85-.47,1.26l-.09.25,0,.11-.3.87,0,.07-.11.34c-.09.27-.17.53-.25.79l0,.08-.09.29-.29,1,0,.08,0,.09q-.13.46-.24.93l-.09.37c-.06.2-.1.41-.15.6l-.09.38c0,.19-.08.38-.11.55l-.07.35c0,.23-.09.46-.13.68l-.07.42-.07.41,0,.26,0,.12,0,.28c0,.13,0,.26-.06.44s-.05.41-.07.6V55c0,.18,0,.35,0,.49V56l0,.38v.15h0A55.11,55.11,0,0,0,28.35,81c-6.9,25.74-3.19,38.69-3,39.23a.69.69,0,0,0,.1.19C23.2,146.64.44,163.16.21,163.32a.5.5,0,0,0-.17.6.5.5,0,0,0,.46.32H.57c1.28-.18,2.73-.33,4.31-.46a.46.46,0,0,0,.29-.13,80,80,0,0,0,17.5-23.21c-2.82,7.22-7.11,16-12.93,22.18a.51.51,0,0,0-.09.55.5.5,0,0,0,.46.29h0c2.65-.1,5.58-.16,8.72-.16l3.51,0,1.51,0,1.27,0c2.42,0,4.38.12,5.61.17h.08a.47.47,0,0,0,.17,0,181.68,181.68,0,0,1,27.62,5c5.09,1.35,11.84,2,20.06,2,12.27,0,25.11-1.57,31.45-3.12A175.26,175.26,0,0,1,131.44,164a.51.51,0,0,0,.37-.22,72.55,72.55,0,0,1,8.53.63c.46,0,.91.11,1.34.18,3,.42,5.56.93,7.18,1.28l.31.06.23.05.36.08.16,0,.19,0,.21.05.1,0,.16,0,.08,0,.07,0,.13,0,.26.06.12,0a.51.51,0,0,0,.38-.84Zm-41-24A40.73,40.73,0,0,0,115.41,157a37.54,37.54,0,0,1-3.81-2.52A43.2,43.2,0,0,1,110.6,141.55Z"/><path class="cls-1" d="M71.51,96C71.18,93.71,52.2,65.57,52.2,65.57S41.08,61,32.24,77,26,119.23,26,119.23C24.39,146.72.5,163.73.5,163.73c1.36-.19,2.82-.34,4.34-.46a82.13,82.13,0,0,0,22.5-35.53S21.88,150.45,10.11,163c10.57-.43,21.81.13,21.81.13L64,162.43c2.62-.66,8.84-5.9,8.84-5.9l4.58-29.77S71.84,98.29,71.51,96Z"/><path class="cls-2" d="M51.55,137.23c-.44,5.05-4.57,17.78-7.23,25.6l7-.15C52.72,150.89,51.55,137.23,51.55,137.23Zm-19-25.85a164.23,164.23,0,0,1-9.49,45.48s11.13-25.19,12.11-40.25Zm17.67,13.41c-2.62,11.78-12.43,29.78-12.43,29.78s10.8-30.1,10.8-32.07-7.53-21.27-7.53-21.27c-2.66,25.84-14.43,52.54-18.72,61.58l2.9.05c3.8-9,9.67-23.36,12.22-32.5,0,0-3.31,20-6.84,32.66l1.28.06,6.66-.14c7.18-9.95,10.22-23.39,11.33-27C51.22,131.67,50.24,124.79,50.24,124.79Z"/><path class="cls-3" d="M43.26,79.75s-8.73,20.07.65,47.77c0,0-7.41-11.56-9.81-24.65a97.06,97.06,0,0,1-.66-26.4s-9.16,23.35-7.2,40.58l-.43,3s-3.93-13.09,3.05-39a54.12,54.12,0,0,1,3.49-24.43s0-18.76,20.51-38.39S97.8.56,97.8.56s23.34,7,34.9,23.56S146.45,54,146.45,54s2,19.42-1.31,35.56-8.29,36-5.24,47.34c0,0,1.09,17.67,11.34,29,0,0-11.12-2.84-21.16-2.62s-12.87-4.37-12.87-4.37-7-9.16-6.32-24.21c0,0-2.4,12,.65,21.38l-7.2-.44-29.67-22L66,103.31l-9.6-19Z"/><path class="cls-4" d="M111.43,122.83s-5.56,18.33-3.92,32.07c0,.33.08.64.12,1l3.91.24c-3.05-9.38-.65-21.38-.65-21.38-.66,15.05,6.32,24.21,6.32,24.21a9,9,0,0,0,4.08,3l0-1.1S110.78,149.66,111.43,122.83Z"/><path class="cls-5" d="M56.31,44.77l0,0h0C56.4,44.7,56.39,44.69,56.31,44.77Zm8.81-33.52a44.24,44.24,0,0,0-5.29,4.57c-1.37,1.41-4.67,3.56-5.24,5.45-.2.67.39,1.56.23,2.42a7.49,7.49,0,0,1-1.14,2.39c-1.15,1.8-2.79,3.16-3.87,5-.87,1.48-1.6,3.63-.93,5.29s2.46,2.45,2.67,4.31C52,44.62,48,49.11,47.24,52.91a4,4,0,0,0,1.09,4.31c1.47,1.74,1.56,2.06.85,4.35a91.63,91.63,0,0,0,4.61-9.32c1.05-2.33.53-5.52,2.5-7.46l-.15.05c-.66-.57-3,1.28-4.11-.48s1.1-4.86,1.65-6.29c.89-2.34.85-2.89-.65-4.74-.76-.94-1.19-.33-1.27-1.78s1.58-2.85,2.36-3.78c1.51-1.8,3.52-3.67,4.19-5.83.57-1.81.61-2.53,2.18-4.25A61.21,61.21,0,0,1,72.71,7.1l4.36-1.74A31.06,31.06,0,0,0,65.12,11.25ZM131.84,31.1c.48,2.32.56,4,1.74,6.16s2.31,3.42,1.14,5.84c-.92,1.91-2.67,2.28-3.11,4.41-.5,2.46.74,5.1.22,7.59C131.24,58,129.58,56.79,128,58c-1.41,1-1.5,3.15-1.62,4.73-.27-.29-.92-.55-1.18-.83a9,9,0,0,1,.13,2.38l-1.52-4.58c.87,3.92,1.31,22.68,1.31,22s1.52-6.33,1.52-6.33c.44-2.83,4.15-9.16,6.55-11.34s3.05-10.25,2.4-14.62,1.74-5.23,1.09-9.16-3.49-12-7-16.14-9.38-10.25-9.38-10.25a33.55,33.55,0,0,1,4.84,6.7C127.19,24.12,131,26.94,131.84,31.1Zm-20-23.75c1.26,1.81,2.14,2.42.24,4.18a9.46,9.46,0,0,1-4.19,1.91c-3.75.73-7.24-.92-10.91-1.1-3.44-.17-7.5.65-10.69-.38a9.72,9.72,0,0,1-4.09-2.73c-.46-.48-.75-1-1.21-1.42-.31-.29,0-.68-.31-1s-1.06.12-1.39-.14l-.17,0c.16-.34.1-.67.38-1-1.19.27-3.62,1.25-4.12,2.36L78,7.32c-.47.77-1.2,1.58-1.06,2.58C80.48,9.87,82.7,13,86,14c4.3,1.37,9.39-.57,13.92-.38,3.38.14,8.67,3.34,11.33.82,1.28-1.21.7-2,2.89-1.74a6,6,0,0,1,3.49,2C117.6,11.67,114.62,8.32,111.79,7.35Zm-72.9,65.8c-2.3-1.77-3-4.67-3-7.58,0-1.67.64-3.33.67-5a7.62,7.62,0,0,0-.68-2.27c-.29-1.84.51-3.53.67-5.42l2.18-5.45c-1.23,2.43-3.36,4-4.3,6.76A22.51,22.51,0,0,0,33,61.36c.47-2,1.3-1.09,1.75-.16s.17,2.09.22,3.06a32,32,0,0,0,.88,6.32c1,4.18,4.7,6.48,4.36,11.06a12.24,12.24,0,0,1,2.53-5.36c-.35.39-.81.41-1.19.6C41,74.61,40.55,74.42,38.89,73.15ZM141.27,88.73c-1.42,1.93-2.57,5.7-4.65,6.89-1.26.71-2.47.28-3.54,1.14-1.63,1.33-2.17,4.67-3,6.55a5.65,5.65,0,0,1-2.61,3.27c-1.27.78-2,.47-2.67,2.16a2.77,2.77,0,0,1-.81-2.1c-.39,1.72-.65,3.47-.89,5.17l-.43,4.15a10.64,10.64,0,0,1,3.92-5.07c2.63-2,4.1-3.09,5.08-6.43.43-1.48.66-3.51,1.62-4.69s2-1.19,3.08-2,4.26-6.68,4.84-2.63A58.1,58.1,0,0,0,143.61,82,14.56,14.56,0,0,1,141.27,88.73Z"/><path class="cls-6" d="M130.34,112.53c.33-4.83.8-9.65,1.08-14.48s.56-9.74,1.07-14.6h0c-.55,4.86-.87,9.73-1.19,14.6-.33,5-.89,10.07-1.29,15.11a97.36,97.36,0,0,0,1.54,26.28,81.52,81.52,0,0,0,7.23,21.49c.51,1,1.06,2,1.63,3,.46,0,.91.12,1.36.18a78.4,78.4,0,0,1-9.57-25.34A96.69,96.69,0,0,1,130.34,112.53Zm9.56,24.37c-3.05-11.34,2-31.19,5.24-47.34S146.45,54,146.45,54s-2.19-13.3-13.75-29.88S97.8.56,97.8.56s-24.44-2-44.94,17.67C36.62,33.77,33.24,48.77,32.54,54.34l.19-.29c-.09.29-.18.59-.26.89-.12,1.08-.12,1.68-.12,1.68a54.12,54.12,0,0,0-3.49,24.43c-7,26-3.05,39.05-3.05,39.05l.43-3c-2-17.23,7.2-40.58,7.2-40.58a97.06,97.06,0,0,0,.66,26.4c2.4,13.09,9.81,24.65,9.81,24.65-.16-.5-.33-1-.48-1.49A83.07,83.07,0,0,1,35,73.42S46.1,53.79,60.28,40.92c0,0-27.71,21.37-33.16,52.79a90.39,90.39,0,0,1,14.4-38.83A144,144,0,0,1,71,23.9S38.43,47.46,30.14,73.29c-.09-5.18.81-34.83,33.41-46.55,0,0-18.13,5.44-27.23,19.71,1.93-5.4,8.12-20.12,21.57-31.37l3-.3a85.6,85.6,0,0,1,15.1-.4c4.37.31,9.17,1,12.85,3.54,3.35,2.34,3.41,6.67,1.52,10a7.25,7.25,0,0,0-.66,1.34c-.18.51.61.83.86.36,1.08-2,2.13-3.73,2.19-6.09a6.05,6.05,0,0,0-1.53-4.14c-2.43-2.8-6.52-4-10-4.71a62.23,62.23,0,0,0-22-.69,59.35,59.35,0,0,1,28-12.14c.68.23,1.37.47,2,.72A35.7,35.7,0,0,1,99.21,7.9c3,2.34,5.58,5.56,5.65,9.49.08,4.79-4.35,8.48-7.94,10.93a.44.44,0,0,0,.45.76,14.93,14.93,0,0,0,7.73-10.26c.81-3.85-1.12-7.5-3.69-10.25a26.87,26.87,0,0,0-12.19-7A70.51,70.51,0,0,1,97.36,1a52.86,52.86,0,0,1,7.47,2.69,14.47,14.47,0,0,1,3.24,8.1c.51,6.6-3,13.45-8.36,17.26-.11.08,0,.25.1.19,5.67-3.26,9-10.68,9.14-17a13.15,13.15,0,0,0-2.19-7.67,73.36,73.36,0,0,1,8.49,4.7c2.29,4.18,3.22,9.32,0,12.89-3.5,3.89-10.43,3.76-13,8.69,0,.08.08.19.14.1,2.13-2.69,4.84-3.92,8-5.18,2.63-1.05,5.22-2.37,6.82-4.78,2.25-3.4,1.32-7.42-.69-10.88a65.85,65.85,0,0,1,28,40.68c-.79-.48-1.57-1-2.34-1.48a100,100,0,0,1-11.8-9.11c-6.55-5.84-14.21-12.1-23.62-10,0,0,0,0,0,0,5.07-1,9.87.38,14.27,2.91,4.25,2.46,7.5,5.94,11,9.25a77.17,77.17,0,0,0,10.51,8.3l2.24,1.43c.12.55.23,1.1.34,1.66,0,0,3.05,19.19-3.93,49.73a117.54,117.54,0,0,0-3.08,28.15,136.69,136.69,0,0,1-1.68-15.38c-.92-16,.55-31.95,1.28-47.89,0,0,0,0,0,0-1.09,16.12-2.82,32.25-2.11,48.43a115,115,0,0,0,3,21.86c1,9.66,3.84,19.43,10.29,26.57l.12.13c1.44.31,2.28.53,2.28.53C141,154.57,139.9,136.9,139.9,136.9ZM121.69,127c.73-18.31,6.33-36,7.5-54.21A65.33,65.33,0,0,0,128.35,57,50.91,50.91,0,0,0,124,44.36c-2.68-5.65-7.42-14-14.86-13.08,0,0,0,.07,0,.07,7.24-.23,11.4,7.37,14.11,13a54.68,54.68,0,0,1,5.22,25.09c-.13,9.22-2,18.37-3.48,27.45-1.46,8.91-2.92,17.84-3.52,26.86-.66,9.93-.25,20,2.7,29.57a56.12,56.12,0,0,0,4.18,10h1a55.42,55.42,0,0,1-4.16-9.13A74.24,74.24,0,0,1,121.69,127Z"/><path class="cls-7" d="M131.39,163.52c-13.52-3.06-23.56-9.17-27-16.8S102.16,109,102.16,109H60.06c.65,7.85,1.31,24.87-3.27,35.56S31,163.08,31,163.08a180.76,180.76,0,0,1,27.71,5C73.58,172,100.2,169.4,110,167A174.84,174.84,0,0,1,131.39,163.52Z"/><path class="cls-8" d="M49.09,67.2S54,57.06,54.82,55.42l5.57-14.89s12.92-11,16.85-11.61-6.55,23.23-7,24.87S52.86,80.13,52.86,80.13l-3.11-.66Z"/><path class="cls-9" d="M110.78,31.37c-6.71-4.42-17.51-6.54-17.51-6.54A59.7,59.7,0,0,0,79,28.1l-1.48.82,1.8,3.43,22.09,3.28Z"/><path class="cls-10" d="M89.33,25.36c1.17,2.09,1.32,4.92,1.65,7.2-2.07-.18-1.7-3.6-2.13-5.1a4.33,4.33,0,0,0-1.11-1.8l-.53.11c.19.21.37.42.54.64,1,1.29.83,2.95,1.12,4.45.25,1.32,1,2.4,2.44,2.27a.29.29,0,0,0,.27-.36c-.42-2.32-.6-5.28-1.84-7.48Zm-2.17,5.57a13.77,13.77,0,0,0-1.74-4.17,5.25,5.25,0,0,0-.33-.49l-.52.13a7.94,7.94,0,0,1,.63,1,14,14,0,0,1,1.48,3.91A16.72,16.72,0,0,1,87,33.48c0,.63.09,1.25.18,1.88,0,.3.44.18.47-.06a8.23,8.23,0,0,0,0-1.72A19.76,19.76,0,0,0,87.16,30.93Zm-4.27-4.06c.24.32.46.65.66,1a7.39,7.39,0,0,1,1.14,3.75c-.65-.14-1-.93-1.21-1.48a7,7,0,0,0-1.09-1.78,4.83,4.83,0,0,0-1.25-.94l-.5.16a4.7,4.7,0,0,1,2,1.94c.5.95.93,2.66,2.28,2.6a.24.24,0,0,0,.24-.24,7.65,7.65,0,0,0-2.07-5.05Zm14.24-1.11a19.08,19.08,0,0,1-1.23,5.9,17.9,17.9,0,0,0,0-2.64,14.91,14.91,0,0,0-.75-3.78l-.34-.08A18.3,18.3,0,0,1,95.48,29a16.09,16.09,0,0,1-.18,4c0,.24-.09.47-.15.71a3.68,3.68,0,0,1-.66-.06,20.33,20.33,0,0,0-.29-5.88,12.13,12.13,0,0,0-1.08-2.93l-.32,0a12.76,12.76,0,0,1,.65,1.53A15.4,15.4,0,0,1,94,33.76a.24.24,0,0,0,.11.26,2.87,2.87,0,0,0,.86.22c0,.13-.06.26-.1.38v0a16.41,16.41,0,0,0-.63,1.59.16.16,0,0,0,.27.16,3.81,3.81,0,0,0,.84-1.68l.12-.45h.07a.29.29,0,0,0,.28-.21c.52-2.49,1.89-5.42,1.86-8.15Zm7,5.85A16.68,16.68,0,0,0,106.37,29l-.47-.21A17.86,17.86,0,0,1,104,31.1c-.61.63-1.27,1.21-1.94,1.78a1.18,1.18,0,0,1-.91.35c-.42,0-1.13-.07-1.37,0a5.54,5.54,0,0,0,2-1.09,11.87,11.87,0,0,0,1.85-1.62,12.87,12.87,0,0,0,1.52-2l-.33-.14a15.41,15.41,0,0,1-1.62,2.1A11.5,11.5,0,0,1,101.36,32c-.61.43-1.33.71-1.92,1.16a.07.07,0,0,0,0,.11,6.63,6.63,0,0,0,1.16.17,3.35,3.35,0,0,0,1.18,0A7.44,7.44,0,0,0,104.1,31.61Zm4.35-1.6a12.25,12.25,0,0,1-1.32,1.61,29.82,29.82,0,0,1-4.2,3.33l-.08.06c-.16.11,0,.36.15.25l1.34-.95a20,20,0,0,0,4.41-4.15Zm-6.87-2.9A23,23,0,0,1,100,30c-.47.76-1,1.49-1.52,2.21-.22.31-.63,1.14-1,1.07l-.39-.07c1.3-2.07,2.87-4,3.54-6.42l-.32-.1a7.7,7.7,0,0,1-.28.85,27.76,27.76,0,0,1-3.29,5.71.14.14,0,0,0,.12.21,2.28,2.28,0,0,1,.83.18.2.2,0,0,0,.31,0,28.54,28.54,0,0,0,4.11-6.35Zm-10.68-2-.18,0a14.56,14.56,0,0,1,1.1,3.07,21.44,21.44,0,0,1,.29,6c0,.62-.06,1.25-.08,1.88,0,.1.17.13.19,0a18.31,18.31,0,0,0,.25-1.85A20,20,0,0,0,92,28.15,13.09,13.09,0,0,0,90.9,25.12Z"/><path class="cls-11" d="M79,28.1A69.7,69.7,0,0,1,90,25.42c1-.15,2-.27,3-.37a1.17,1.17,0,0,1,.53,0c.61.13,1.21.27,1.81.42a57.2,57.2,0,0,1,15.42,6,.11.11,0,0,0,.11-.2,33.29,33.29,0,0,0-8-3.94,65.42,65.42,0,0,0-7.39-2.22c-.62-.15-1.24-.3-1.87-.42a9.32,9.32,0,0,0-3.05.3A62.91,62.91,0,0,0,79,28.09s0,0,0,0Z"/><path class="cls-12" d="M122.89,66.22C121.58,30.88,110,31.32,110,31.32c-7.19.87-29.66-2.19-29.66-2.19l-2-.43c-5.23,1.53-17,12-17,12C58.53,46.81,55.26,56,55.26,56s-2,7.85-2.62,10.47S51.33,78,51.33,78c0-2.4-2.4-10.69-2.4-10.69A126.09,126.09,0,0,0,43,79.53c1.31,3.92,2.4,12,7.2,13.52l.44.88c.65,8.94,7.08,16.24,9.16,18.1,6.11,5.46,11.71,11.23,18.37,15.21,3.86,2.31,8,3,12.39,3.12,6.76.22,10.25-5.68,17.89-11.13S122,104.4,122,104.4A318.81,318.81,0,0,0,122.89,66.22Z"/><path class="cls-13" d="M64.31,57.06c-.73-.32,3.62-10,4-10.62,4.36-7.51,12-11.5,20.46-12.63,8-1.08,18.78-1.5,24.64,5.33,2.26,2.63,8.89,26.43,5.88,27.08l-12.11,2.62-15.71,1-9.82-5.23Z"/><path class="cls-14" d="M65.93,108.65C74.13,106.87,79,97.22,76.8,87.08S66.18,70.16,58,71.94a12.82,12.82,0,0,0-6.45,3.61c-.12,1.44-.2,2.45-.2,2.45a12.3,12.3,0,0,0-.24-2,19.14,19.14,0,0,0-4.47,13.88,6.73,6.73,0,0,0,3.62,3.16l.44.88A26.75,26.75,0,0,0,55,106.11,13.67,13.67,0,0,0,65.93,108.65Z"/><path class="cls-15" d="M123.07,73.85c-5.15,1.22-10.61,6.6-13.72,14.18-4.19,10.22-2.53,20.58,3.7,23.14a7.89,7.89,0,0,0,3.44.55A68.56,68.56,0,0,0,122,104.4,292.57,292.57,0,0,0,123.07,73.85Z"/><path class="cls-16" d="M51.88,76.37l-.36-.72C51.4,77,51.33,78,51.33,78a22.43,22.43,0,0,0-.68-4.08l-.08-.17s2,8.83.65,14.4-2.29,4.25-2.29,4.25v0a5.28,5.28,0,0,0,1.31.63l.44.88c.65,8.94,7.08,16.24,9.16,18.1,4.29,3.84,8.34,7.83,12.68,11.24C61.29,111.63,62.62,103,57.77,96,52.53,88.47,51.88,76.37,51.88,76.37Z"/><path class="cls-17" d="M101.29,108.11a9.49,9.49,0,1,1-9.49-9.49A9.49,9.49,0,0,1,101.29,108.11Z"/><path class="cls-18" d="M122,104.4c1-10,1.13-20.76,1.08-28.29l-2.5,2.22s1.31,25.52-9.16,38c-.47.56-.9,1.12-1.28,1.67A63.49,63.49,0,0,0,122,104.4Z"/><path class="cls-19" d="M110,31.32c-7.19.87-29.66-2.19-29.66-2.19l-2-.43c-5.23,1.53-17,12-17,12C58.53,46.81,55.26,56,55.26,56l-1,4,2.21-.65s7.2-7.2,9.82-13.42,10.47-14.4,24.54-13.74,19.63.33,22.25,2.94,7.2,11.78,8.18,30.76c0,0,.71.21,1.64.46v-.13C121.58,30.88,110,31.32,110,31.32Z"/><path class="cls-20" d="M50,86s-1.31-3.27-.41-5.07L50,79.88l-2.38-5.56,2-4.91-.66-2.13s-4.58,8.51-5.81,12c0,0,2.05,10.14,4.83,12.35,0,0-.82-3.19-.49-3.84s2.86.32,2.86-.41A3,3,0,0,0,50,86Z"/><path class="cls-21" d="M46,83.73s.24-3.85.73-4.09,1.39,1.22,1.39,1.22-.49,3.28,1.56,3.77l-.41-2.29L50,79.88s-2.62-6.13-3.6-7.2l-.41.25-2.87,6.3.33,1.55s1.39-4.17,1.88-4.5,1.15,1.07,1.15,1.07-2,4.58.16,8.34Z"/><polygon class="cls-22" points="46.89 73.09 49.26 68.59 48.93 67.28 46.4 72.68 46.89 73.09"/><path class="cls-23" d="M84.58,92.63A6.26,6.26,0,0,0,87,90a14.54,14.54,0,0,0,1.3-9.24c-.13-.94-.51-4.3-1.65-4.63-.94-.28-1.52,1.18-1.89,1.82a11,11,0,0,1-2.1,3c-1.38,1.16-1.83,3.35-1.83,5.06a10.48,10.48,0,0,0,1.63,5.93A1.65,1.65,0,0,0,84.58,92.63Z"/><path class="cls-24" d="M99.65,79.75a65.72,65.72,0,0,0-1.2,8.18c0,2.29.77,5.78,1.75,5.78s2.51-4,2.83-6.11-.76-7.85-1.85-9.38Z"/><path class="cls-25" d="M92.21,100.25s-3.11-1.06-3.36-3.92,1-16,1-16l8.5.57s-1,9.66-1.06,13.5S96.46,101.07,92.21,100.25Z"/><path class="cls-12" d="M88.61,93.3s5.81-2.21,8.92.73l.4-.65-.24-.82s-3.36-2.53-9.33-.32Z"/><path class="cls-26" d="M82.2,96.76a1.07,1.07,0,0,0,1.64.79c.65-.32,1-1.28,1.23-1.88.75-2.1-.18-3.14-2.31-3a12.69,12.69,0,0,1-.67,4Z"/><path class="cls-27" d="M100.85,99.71c-1.21-.79-2.17-1.22-2.07-2.84A4,4,0,0,1,99.22,95c.42-.47,1-.24,1.64-.4,0,1.4,0,2.81,0,4.21Z"/><path class="cls-28" d="M82.06,98.37a5.44,5.44,0,0,0,1.64.49c.82.08,4-.08,6,1.47s5.16,2.21,7.2-.32c0,0,2.29-.82,3.68.57a3.37,3.37,0,0,1-2.12,2.21s-2.87,4.17-6.71,3.68-7-2-8.75-5.64A4.68,4.68,0,0,1,82.06,98.37Z"/><path d="M85.42,100c.82,1.71,3.11,1.31,3.11,1.31A6.09,6.09,0,0,0,85.74,100ZM97,101.32l-.49.65c1.64.08,1.72-.9,1.72-.9Z"/><path class="cls-29" d="M62.35,71.13S56.46,70,56,65.57s.82-8,6.38-8.51,7.85,2.62,9.49,3.43,11.29,4.42,11.29,4.42l1.63,3.44s.82,5.56-2.12,8c0,0-6.55-1.31-7.2-1.15s-10.64-3.6-10.64-3.6Z"/><path class="cls-30" d="M104.07,79.15s-1-4.59,1.31-7.53l2.94-2.29,3.11-.65,5.56-1,5.4-1.31.66.49s-.16,8,.16,9.33l-2.94.49s-5.73,2.62-6.22,2.62Z"/><path class="cls-31" d="M50.27,93c-2.65-.9-4-3.62-4.93-6.07S44,82,43.21,79.63c-.09-.29.36-1,.49-1.3.48-1.1,1-2.19,1.46-3.28a74.46,74.46,0,0,1,3.9-7.66l-.27,0c.41,1.42.79,2.84,1.15,4.27A27.39,27.39,0,0,1,51.18,78a.15.15,0,0,0,.3,0c.16-2.13.35-4.27.57-6.4a56.14,56.14,0,0,1,1.39-7.73l1.92-7.67a47,47,0,0,1,1.88-5.13c.7-1.84,1.43-3.67,2.17-5.48.4-1,.81-1.94,1.23-2.9.19-.43.38-.86.58-1.29a1.84,1.84,0,0,1,.3-.63c1.32-1.17,2.68-2.3,4-3.42,2.46-2,5-4,7.61-5.72a31.86,31.86,0,0,1,3.61-2.12,10.7,10.7,0,0,1,1.53-.63c.37-.12,1.14.22,1.53.3,1,.22,2,.31,3,.44q3.78.48,7.56.88a125.86,125.86,0,0,0,17.78,1.1c1.44-.05,2.29-.25,3.6.37a12.25,12.25,0,0,1,5,5.19c2.71,4.69,3.9,10.23,4.71,15.53a135.68,135.68,0,0,1,1.32,17.45c.18,7.84.13,15.7-.24,23.53q-.17,3.63-.45,7.26l-.15,1.74c0,.29-.05.58-.07.86a2.91,2.91,0,0,1-.07.79l-.27.42a65.18,65.18,0,0,1-4.93,6.52,56.42,56.42,0,0,1-4.18,4.43,61.42,61.42,0,0,1-5.33,4.33c-3.4,2.58-6.34,5.78-9.91,8.14a11.75,11.75,0,0,1-5.11,2,23.68,23.68,0,0,1-6.82-.46c-4.95-.88-9-3.62-12.91-6.68-2.94-2.33-5.69-4.88-8.45-7.42a73.1,73.1,0,0,1-5.78-5.49c-3.93-4.47-6.9-10.18-7.37-16.16,0-.17-.27-.17-.26,0a29,29,0,0,0,8.91,18c3.4,3.24,6.91,6.42,10.47,9.47s7.26,6,11.57,7.62A25.68,25.68,0,0,0,88,130.36a16.27,16.27,0,0,0,5.78-.23c3.51-.95,6.31-3.72,9-6.06,1.87-1.64,3.77-3.25,5.79-4.7a41.44,41.44,0,0,0,4.69-4,63.08,63.08,0,0,0,7-8.15c.58-.78,1.14-1.59,1.67-2.4l.24-.36a2.7,2.7,0,0,0,.1-1c.07-.67.12-1.34.18-2,.39-4.77.61-9.54.73-14.32q.24-9.89-.07-19.77a110.21,110.21,0,0,0-2-19.18c-.94-4.45-2.31-9.09-5-12.84a10.63,10.63,0,0,0-4.64-3.94c-1.53-.57-3.17-.15-4.76-.14A162.41,162.41,0,0,1,88.51,30a95,95,0,0,1-10.09-1.43c-.31-.07-.88.28-1.16.4a18.56,18.56,0,0,0-1.73.86,43.49,43.49,0,0,0-3.76,2.4c-2.48,1.73-4.85,3.61-7.18,5.54-.83.68-1.64,1.37-2.45,2.06-.23.21-.77.51-.91.81-1.63,3.52-3,7.13-4.43,10.76A42.82,42.82,0,0,0,55,56.24q-1,3.94-2,7.89A81,81,0,0,0,51.18,78h.3a27.05,27.05,0,0,0-1.16-6.1c-.39-1.55-.8-3.1-1.25-4.63a.15.15,0,0,0-.27,0,76.45,76.45,0,0,0-4,8c-.49,1.08-1,2.16-1.43,3.25-.2.46-.48.82-.32,1.31.83,2.61,1.36,5.3,2.39,7.84.93,2.29,2.35,4.65,4.81,5.48.14,0,.2-.17.06-.21Z"/><path class="cls-32" d="M62.72,69c-.07-.33-.19-1.24.18-1.49s.58-.4.88-.58a10.45,10.45,0,0,1,2.13-1,14.08,14.08,0,0,1,4.65-.67,16.52,16.52,0,0,1,9.28,2.91s0,0,0,0A15.7,15.7,0,0,0,71.26,65c-2.87-.21-6.49.37-8.66,2.45a.11.11,0,0,0,0,.1c.12.46-.07,1,.05,1.46,0,.06.11,0,.09,0Z"/><path class="cls-33" d="M109.15,71.62a10.15,10.15,0,0,1,7.28-.79,12.26,12.26,0,0,1,3.11,1.27c.44.25,1.27.65,1.29,1.19a12.21,12.21,0,0,1,.16,1.6c0,.08.12.11.15,0a4.39,4.39,0,0,0,.18-1.84.26.26,0,0,0-.32-.24c-.26.08-1-.6-1.19-.73a11.53,11.53,0,0,0-1.48-.77,12.28,12.28,0,0,0-3.08-.86,9.29,9.29,0,0,0-6.11,1.13Z"/><path class="cls-34" d="M85.91,101.68a3.52,3.52,0,0,1-3.67-3.09c-.35-1.68.71-3.34.44-5.06,0-.06-.09,0-.09,0,0,2.06-1.43,3.94-.55,6a3.52,3.52,0,0,0,3.87,2.24C86,101.76,86,101.68,85.91,101.68Zm-1.47-1.79a0,0,0,1,0,0,.07,5.86,5.86,0,0,1,5,2.63c.06.08.21,0,.17-.07C88.85,100.39,86.49,99.7,84.44,99.89Zm14.61,1.26a2.23,2.23,0,0,0-1.81-.06,2.48,2.48,0,0,0,.18-.66c0-.06-.08-.12-.12-.05a5,5,0,0,1-3.12,2.89,6.41,6.41,0,0,1-4.49-.43s-.08,0,0,.06a6,6,0,0,0,4.61.63,4.76,4.76,0,0,0,2.78-2h0c.25-.07.48-.21.74-.29a1.78,1.78,0,0,1,1.16.1C99.07,101.37,99.14,101.2,99.05,101.15Zm2-3.54C101,96.73,101,95.89,101,95a.06.06,0,0,0-.12,0c-.81,2.58,1,6.42-2.41,7.65-.06,0,0,.13,0,.11a3.33,3.33,0,0,0,2.55-2.88A10.13,10.13,0,0,0,101.08,97.61Z"/><path class="cls-35" d="M49.71,81.32c.16-.58.55-1.11.35-1.71a32.92,32.92,0,0,0-1.6-3.83c-.26-.55-.54-1.12-.86-1.67v0a.14.14,0,0,0-.09-.12,10.23,10.23,0,0,0-1.13-1.58c-.07-.08-.19,0-.15.12.33.7.71,1.39,1.07,2.08-.14,1.8-1.27,3.41-1.6,5.2-.37,2.07.29,4.14.93,6.09,0,0,0,0,0,0C46,83.55,45.39,81.38,46,79c.36-1.39,1.29-2.57,1.55-4,.16.33.33.66.48,1,.32.7.6,1.41.88,2.12.2.5.84,1.5.66,2a6.15,6.15,0,0,0-.39,2.9,31.07,31.07,0,0,0,.87,3.1s.06,0,.05,0a19.62,19.62,0,0,1-.65-3.28A5.33,5.33,0,0,1,49.71,81.32Z"/><path class="cls-36" d="M73.47,109.2c.3.08.8,1.06,1,1.29a36.47,36.47,0,0,0,2.86,3.23c2.8,2.81,5.8,5.79,9.78,6.77,3.27.81,7.63.89,10.5-1.15a34.3,34.3,0,0,0,8.07-8.51s-4.69,1.42-6.43,1.31-15.93-1.2-15.93-1.2l-6.76-.87Z"/><path class="cls-37" d="M99.22,112.14c-1.75-.11-15.93-1.2-15.93-1.2l-6.76-.87-3.06-.87c.3.08.8,1.06,1,1.29l.51.63c1.29.34,6.76,1.74,10.3,2.22,4,.55,6.77,2.07,10.15.76,0,0,5.79-.09,8.93-1.38.46-.6.91-1.23,1.32-1.89C105.65,110.83,101,112.25,99.22,112.14Zm-8.51,8.07c-5.56-.32-11.13-4.47-11.13-4.47l-.11.1a17.49,17.49,0,0,0,7.61,4.65c3.27.81,7.63.89,10.5-1.15a31.51,31.51,0,0,0,2.55-2.1l-.15-.08A13.55,13.55,0,0,1,90.71,120.21Z"/><path class="cls-38" d="M81.85,115.12c.46-1,3.18-1,4-.91,3,.44,6.11,1.31,9.6,1,1.06-.1,6.27-1.14,4.38,1.34-1.76,2.31-5.86,3.06-8.53,3a14.72,14.72,0,0,1-7.15-1.81,6.49,6.49,0,0,1-2-1.56A1,1,0,0,1,81.85,115.12Z"/><path class="cls-37" d="M104.72,110.67c-3.38,1-5.77-3.06-9.14-2.4-1,.19-1.64,1-2.49,1.44-1.06.56-1.43-.37-2.17-.93a4.38,4.38,0,0,0-2.11-.78,10.42,10.42,0,0,0-4.32.57,24.43,24.43,0,0,1-5.62,1.17c-4.91.33-9-2.94-9-2.94,5.57,5.23,12.93,4.25,19.64,6h.09l.24.16a6.33,6.33,0,0,0,2.29.82,4.49,4.49,0,0,0,1.92-.83h.37c3.43.17,11.78-.49,14.72-5.23C109.14,107.78,106.58,110.12,104.72,110.67Z"/><path class="cls-39" d="M84.87,111.79c-1.73-.25-3.48-.46-5.21-.73a18.8,18.8,0,0,1-9.77-4.28,0,0,0,0,0,0,0,18.29,18.29,0,0,0,9.25,4.39c1.71.36,3.45.58,5.18.82s3.48.74,5.22.93c.09,0,.13-.15,0-.18A18.65,18.65,0,0,0,84.87,111.79Zm9.52.84a7.59,7.59,0,0,1-2.06,1,3.53,3.53,0,0,1-2.46-.68c-.07,0-.13.06-.07.11a4.6,4.6,0,0,0,1,.5,5.69,5.69,0,0,0,1.28.39,3.27,3.27,0,0,0,2.34-1.24S94.43,112.6,94.39,112.63Zm14.73-4.87c-1.77,2.42-4.45,3.63-7.29,4.36a27.69,27.69,0,0,1-7.41.89s0,0,0,0a24.52,24.52,0,0,0,7.68-.67c2.67-.68,5.67-2,7.07-4.56A0,0,0,0,0,109.12,107.76Z"/><path class="cls-40" d="M56,59.68s5.56-3.28,10-1.48,7.52,4.42,11.61,5.89a24.21,24.21,0,0,1,7.37,4.59A13.91,13.91,0,0,0,84,63s-3-.66-5.57-1.15-7.69-3.27-10.31-4.74S58.59,56.57,56,59.68Z"/><path class="cls-41" d="M127.1,70.72s-2.43-4.42-5.92-3.81-6.42,2.3-9.58,2.68a17.53,17.53,0,0,0-6.36,2.49A19.5,19.5,0,0,1,107.89,67s2.13.11,4,.29,6.11-1.19,8.32-1.93S126.51,67.17,127.1,70.72Z"/><path d="M74,77.46S66.71,79,62.13,71.13a9.37,9.37,0,0,1-4.58-2.29,16.39,16.39,0,0,0,6.22.65c2.72-.43,10.8-4.25,17.34,4.58Z"/><path class="cls-42" d="M82.15,75.71C78.38,69.49,69.71,67.53,63.49,71l-.43.32.6,1.15C67.42,77.67,73.31,78,79.2,77c0,0,1.26-.33,1.75-.44a6.21,6.21,0,0,1,1.63,0Z"/><path class="cls-43" d="M76.22,72.55a4.63,4.63,0,0,0-.56-2.22,15,15,0,0,0-7.46-.91,4.63,4.63,0,0,0,2,7.53l.68.16a4.52,4.52,0,0,0,.74.06A4.62,4.62,0,0,0,76.22,72.55Z"/><path class="cls-44" d="M67.51,72.55A4.09,4.09,0,1,0,74.82,70a14.85,14.85,0,0,0-5.73-.7A4.08,4.08,0,0,0,67.51,72.55Z"/><path d="M74,72.55a2.42,2.42,0,1,1-2.42-2.41A2.42,2.42,0,0,1,74,72.55Z"/><path class="cls-45" d="M73.31,72.55a1.71,1.71,0,1,1-3.41,0,1.71,1.71,0,0,1,3.41,0Z"/><path class="cls-42" d="M72.59,70.55a1,1,0,1,1-1-1A1,1,0,0,1,72.59,70.55Z"/><path class="cls-42" d="M72.08,74.91a.49.49,0,0,1-.48.48.48.48,0,0,1,0-1A.49.49,0,0,1,72.08,74.91Z"/><path d="M63.5,71a15.26,15.26,0,0,1,10.21-1.14,13.81,13.81,0,0,1,8.36,5.92.09.09,0,0,0,.16-.1C78.65,69.4,69.58,67.31,63.49,71c0,0,0,0,0,0Z"/><path d="M63.64,72.45c3.6,5.07,9.87,5.66,15.57,4.59,0,0,0-.05,0-.05a23.88,23.88,0,0,1-8.43,0,11.89,11.89,0,0,1-7.08-4.6s-.06,0,0,0Z"/><path d="M111.09,81.49s5.85,2.67,11.16-4.32a7.59,7.59,0,0,0,4.27-1.52,12.2,12.2,0,0,1-5.34-.35c-2.21-.86-8.27-5.9-15.41,1.74Z"/><path class="cls-42" d="M104.6,78.49c4.31-5.51,12-6.06,16.53-1.7l.31.39-.72,1c-4.13,4.55-9.14,3.93-13.9,2,0,0-1-.52-1.38-.71a4.47,4.47,0,0,0-1.36-.31Z"/><path class="cls-46" d="M117,77a4.6,4.6,0,0,0-1-2.92,11.29,11.29,0,0,0-8,1.4,4.71,4.71,0,0,0-.26,1.52,4.62,4.62,0,0,0,3.63,4.51c.34,0,.67.09,1,.11A4.62,4.62,0,0,0,117,77Z"/><path class="cls-47" d="M112.34,81.11A4.09,4.09,0,0,0,115.05,74a11.28,11.28,0,0,0-6.31,1.13,4,4,0,0,0-.49,1.93A4.09,4.09,0,0,0,112.34,81.11Z"/><path d="M114.76,77a2.42,2.42,0,1,1-2.42-2.41A2.41,2.41,0,0,1,114.76,77Z"/><path class="cls-48" d="M114.05,77a1.71,1.71,0,1,1-1.71-1.71A1.7,1.7,0,0,1,114.05,77Z"/><path class="cls-42" d="M113.33,75a1,1,0,1,1-1-1A1,1,0,0,1,113.33,75Z"/><path class="cls-42" d="M112.82,79.38a.48.48,0,1,1-.48-.48A.47.47,0,0,1,112.82,79.38Z"/><path d="M121.12,76.8a11.28,11.28,0,0,0-8.35-2.74,12,12,0,0,0-8.11,4.48c-.08.09-.19,0-.12-.11,4.16-5.59,12.17-6.2,16.6-1.65,0,0,0,0,0,0Z"/><path d="M120.74,78.23c-4,4.41-9.34,4-13.93,2,0,0,0-.05,0,0a17.72,17.72,0,0,0,7.07,1.38,10.23,10.23,0,0,0,6.79-3.41s.06,0,0,0Z"/></g></g></svg>