<svg xmlns="http://www.w3.org/2000/svg" xmlns:xlink="http://www.w3.org/1999/xlink" viewBox="0 0 154.41 188.9"><defs><style>.cls-1{fill:url(#linear-gradient);}.cls-2{fill:url(#linear-gradient-2);}.cls-3{fill:url(#linear-gradient-3);}.cls-4{fill:url(#linear-gradient-4);}.cls-5{fill:url(#linear-gradient-5);}.cls-6{fill:url(#linear-gradient-6);}.cls-7{fill:url(#linear-gradient-7);}.cls-8{fill:url(#linear-gradient-8);}.cls-9{fill:url(#linear-gradient-9);}.cls-10{fill:url(#linear-gradient-10);}.cls-11{fill:#c77759;}.cls-12{fill:url(#radial-gradient);}.cls-13{fill:url(#radial-gradient-2);}.cls-14{fill:url(#radial-gradient-3);}.cls-15{fill:url(#linear-gradient-11);}.cls-16{fill:url(#linear-gradient-12);}.cls-17{fill:url(#linear-gradient-13);}.cls-18{fill:url(#linear-gradient-14);}.cls-19{fill:url(#linear-gradient-15);}.cls-20{fill:url(#linear-gradient-16);}.cls-21{fill:url(#linear-gradient-17);}.cls-22{fill:url(#linear-gradient-18);}.cls-23{fill:url(#linear-gradient-19);}.cls-24{fill:#622b17;}.cls-25{fill:url(#linear-gradient-20);}.cls-26{fill:url(#linear-gradient-21);}.cls-27{fill:url(#linear-gradient-22);}.cls-28{fill:#b84031;}.cls-29{fill:#a3322b;}.cls-30{fill:url(#radial-gradient-4);}.cls-31{fill:#4e190c;}.cls-32{fill:url(#linear-gradient-23);}.cls-33{fill:url(#linear-gradient-24);}.cls-34{fill:url(#linear-gradient-25);}.cls-35{fill:#fff;}.cls-36{fill:url(#linear-gradient-26);}.cls-37{fill:url(#linear-gradient-27);}.cls-38{fill:url(#linear-gradient-28);}.cls-39{fill:url(#linear-gradient-29);}.cls-40{fill:url(#linear-gradient-30);}.cls-41{fill:url(#linear-gradient-31);}.cls-42{fill:url(#linear-gradient-32);}</style><linearGradient id="linear-gradient" x1="26.31" y1="23.5" x2="52.32" y2="75.53" gradientUnits="userSpaceOnUse"><stop offset="0" stop-color="#6d3d26"/><stop offset="1" stop-color="#2b180f"/></linearGradient><linearGradient id="linear-gradient-2" x1="80.99" y1="6.93" x2="80.99" y2="130.61" xlink:href="#linear-gradient"/><linearGradient id="linear-gradient-3" x1="79.12" y1="209.28" x2="79.12" y2="139.58" gradientUnits="userSpaceOnUse"><stop offset="0" stop-color="#2b180f"/><stop offset="1" stop-color="#150904"/></linearGradient><linearGradient id="linear-gradient-4" x1="39.59" y1="16.87" x2="65.6" y2="68.89" gradientUnits="userSpaceOnUse"><stop offset="0" stop-color="#4c2614"/><stop offset="1" stop-color="#201008"/></linearGradient><linearGradient id="linear-gradient-5" x1="40" y1="16.47" x2="68.73" y2="73.93" xlink:href="#linear-gradient-4"/><linearGradient id="linear-gradient-6" x1="76.29" y1="177.08" x2="76.29" y2="135.88" gradientUnits="userSpaceOnUse"><stop offset="0" stop-color="#c77759"/><stop offset="1" stop-color="#95442b"/></linearGradient><linearGradient id="linear-gradient-7" x1="110.92" y1="-13.69" x2="110.92" y2="-45.1" xlink:href="#linear-gradient"/><linearGradient id="linear-gradient-8" x1="111.51" y1="-13.69" x2="111.51" y2="-45.1" gradientUnits="userSpaceOnUse"><stop offset="0" stop-color="#4c2716"/><stop offset="1" stop-color="#0a0503"/></linearGradient><linearGradient id="linear-gradient-9" x1="115.19" y1="-13.69" x2="115.19" y2="-45.1" xlink:href="#linear-gradient-8"/><linearGradient id="linear-gradient-10" x1="110.06" y1="-13.69" x2="110.06" y2="-45.1" xlink:href="#linear-gradient-8"/><radialGradient id="radial-gradient" cx="-350.96" cy="-95.33" r="32.55" gradientTransform="matrix(0.38, -0.09, 0.14, 0.6, 200.11, 140.88)" gradientUnits="userSpaceOnUse"><stop offset="0" stop-color="#de8b71"/><stop offset="1" stop-color="#c77759"/></radialGradient><radialGradient id="radial-gradient-2" cx="-43.49" cy="206.07" r="32.55" gradientTransform="matrix(0.38, 0.1, -0.16, 0.59, 167.08, -3.45)" xlink:href="#radial-gradient"/><radialGradient id="radial-gradient-3" cx="-208.73" cy="366.95" r="26.55" gradientTransform="translate(169.11 35.78) scale(0.38 0.26)" xlink:href="#radial-gradient"/><linearGradient id="linear-gradient-11" x1="86.02" y1="78.59" x2="86.02" y2="41.48" gradientUnits="userSpaceOnUse"><stop offset="0" stop-color="#c77759"/><stop offset="1" stop-color="#de8b71"/></linearGradient><linearGradient id="linear-gradient-12" x1="81.1" y1="95.65" x2="81.1" y2="34.94" xlink:href="#linear-gradient-6"/><linearGradient id="linear-gradient-13" x1="45.97" y1="135.81" x2="71.43" y2="93.74" xlink:href="#linear-gradient-6"/><linearGradient id="linear-gradient-14" x1="89.57" y1="106.39" x2="89.57" y2="117.61" xlink:href="#linear-gradient-11"/><linearGradient id="linear-gradient-15" x1="82.27" y1="121.6" x2="79.98" y2="119.97" xlink:href="#linear-gradient-11"/><linearGradient id="linear-gradient-16" x1="95.69" y1="120.91" x2="97.49" y2="119.6" xlink:href="#linear-gradient-11"/><linearGradient id="linear-gradient-17" x1="88.52" y1="130.09" x2="88.52" y2="122.37" xlink:href="#linear-gradient-6"/><linearGradient id="linear-gradient-18" x1="65.09" y1="97.33" x2="65.09" y2="84.7" xlink:href="#linear-gradient-6"/><linearGradient id="linear-gradient-19" x1="106.64" y1="97.21" x2="106.64" y2="84.7" xlink:href="#linear-gradient-6"/><linearGradient id="linear-gradient-20" x1="88.29" y1="118.62" x2="88.29" y2="109.77" gradientUnits="userSpaceOnUse"><stop offset="0" stop-color="#6f321d"/><stop offset="1" stop-color="#c77759"/></linearGradient><linearGradient id="linear-gradient-21" x1="77.01" y1="-13.69" x2="77.01" y2="-45.1" xlink:href="#linear-gradient"/><linearGradient id="linear-gradient-22" x1="77.03" y1="-13.69" x2="77.03" y2="-45.1" xlink:href="#linear-gradient-8"/><radialGradient id="radial-gradient-4" cx="-651.31" cy="400" r="38.47" gradientTransform="translate(257.91 35.78) scale(0.26)" gradientUnits="userSpaceOnUse"><stop offset="0" stop-color="#e86f60"/><stop offset="1" stop-color="#b84031"/></radialGradient><linearGradient id="linear-gradient-23" x1="65.25" y1="84.14" x2="65.25" y2="86.88" gradientUnits="userSpaceOnUse"><stop offset="0" stop-color="#46200f"/><stop offset="1" stop-color="#300f02"/></linearGradient><linearGradient id="linear-gradient-24" x1="107.13" y1="84.14" x2="107.13" y2="86.88" xlink:href="#linear-gradient-23"/><linearGradient id="linear-gradient-25" x1="62.65" y1="75.12" x2="62.65" y2="81.6" gradientUnits="userSpaceOnUse"><stop offset="0" stop-color="#592213"/><stop offset="1" stop-color="#411207"/></linearGradient><linearGradient id="linear-gradient-26" x1="63.73" y1="100.82" x2="63.73" y2="94.19" gradientUnits="userSpaceOnUse"><stop offset="0" stop-color="#39140a"/><stop offset="1"/></linearGradient><linearGradient id="linear-gradient-27" x1="63.73" y1="100.82" x2="63.73" y2="94.19" gradientUnits="userSpaceOnUse"><stop offset="0.01" stop-color="#652312"/><stop offset="1" stop-color="#210000"/></linearGradient><linearGradient id="linear-gradient-28" x1="63.73" y1="97.55" x2="63.73" y2="99.27" gradientUnits="userSpaceOnUse"><stop offset="0"/><stop offset="1" stop-color="#77726d"/></linearGradient><linearGradient id="linear-gradient-29" x1="1831.72" y1="75.11" x2="1831.72" y2="81.6" gradientTransform="matrix(-0.78, 0, 0, 1, 1531.63, 0)" xlink:href="#linear-gradient-25"/><linearGradient id="linear-gradient-30" x1="105.22" y1="100.82" x2="105.22" y2="94.19" xlink:href="#linear-gradient-26"/><linearGradient id="linear-gradient-31" x1="105.22" y1="100.82" x2="105.22" y2="94.19" xlink:href="#linear-gradient-27"/><linearGradient id="linear-gradient-32" x1="105.22" y1="97.55" x2="105.22" y2="99.27" xlink:href="#linear-gradient-28"/></defs><g id="Layer_2" data-name="Layer 2"><g id="_12_Face" data-name="12_Face"><path d="M154.11,129.11a4.79,4.79,0,0,0-2.38-2.22l-.59-.34a1.83,1.83,0,0,1-1-1.31,2.33,2.33,0,0,1,.84-1.82l.59-.56a6.42,6.42,0,0,0,2.09-2.9,6.85,6.85,0,0,0-1.15-5.39,6.17,6.17,0,0,0-3.72-2.39l-.43-.12c-1.13-.3-2.29-.61-2.64-1.64a3.43,3.43,0,0,1,.3-2.47,5,5,0,0,1,.86-1.13,7.89,7.89,0,0,0,.65-.76c1.32-1.76,1.8-4.69.12-6.65a10.22,10.22,0,0,0-1.89-1.6,6.7,6.7,0,0,1-2.15-2.08c-.87-1.61.15-3,1.24-4.56a9.36,9.36,0,0,0,1.58-2.87c.37-1.52-.31-2.93-1.94-4l-.39-.24a5.82,5.82,0,0,1-1.65-1.32,3.67,3.67,0,0,1-.32-3,12.32,12.32,0,0,1,.47-1.32,12.64,12.64,0,0,0,.59-1.8,6,6,0,0,0-.19-3.15c-.7-2-2.76-3.17-4.64-4.1a.59.59,0,0,0-.26-.07l-.12,0-.22-.09c.82-2.63.68-5.74-.43-9.48A36.46,36.46,0,0,0,133,50.38a22.16,22.16,0,0,0-3.79-4.16,23.5,23.5,0,0,1-3.41-3.64,12,12,0,0,1-1.41-3.29c-.15-.46-.3-.93-.46-1.38A7.75,7.75,0,0,0,121,34.09a.45.45,0,0,0-.17-.08l.06-.32a.52.52,0,0,0,.1-.11,7.14,7.14,0,0,0,1.1-5.43A5.56,5.56,0,0,0,121,25.78a4.39,4.39,0,0,0-2.3-1.42c-1.21-.42-1.57-.82-1.43-1.57l0-.11a2,2,0,0,0-.25-1.78,1.91,1.91,0,0,0-.32-.27l-.11-.09a6.76,6.76,0,0,0,.28-1.3,9.15,9.15,0,0,0-.07-2.79c-.2-1.29-.83-3.56-2.71-4.31a10.89,10.89,0,0,0-1.5-.42q-.5-.11-1-.24c-.38-.12-.44-.33-.52-1a2.52,2.52,0,0,0-.48-1.36,11.74,11.74,0,0,0-9.06-3.92c-.43,0-.87,0-1.29.07a11.15,11.15,0,0,0-5.5,2.14.52.52,0,0,0-.11.1l-.2.06a10,10,0,0,0-7-5.44A14.7,14.7,0,0,0,84,1.82h-1.6A19,19,0,0,1,77.14,1l-.33-.1A17,17,0,0,0,72.13,0h-.4a11.15,11.15,0,0,0-5,1.55A12.48,12.48,0,0,0,62.88,5a9.78,9.78,0,0,0-.74,1.23c-.11.21-.23.41-.35.62a2.8,2.8,0,0,1-1.5,1.24l-.87,0H59a12.34,12.34,0,0,0-4.92.88c-2.14,1-3,2.91-3.78,4.76A9.39,9.39,0,0,1,48,17.34a10.62,10.62,0,0,0-4.64,3.89,11.92,11.92,0,0,0-1.25,2.5q-.16.45-.36.9c-.44,1-1,2-1.5,3-.27.5-.54,1-.8,1.51a13.54,13.54,0,0,0-1.6,4.41,20.12,20.12,0,0,0-.05,2.57A14.21,14.21,0,0,1,37.69,39a.45.45,0,0,0,0,.3c-.7,1.05-1.33,2.14-1.94,3.2-.46.81-.94,1.64-1.43,2.43l-.32.52a61.49,61.49,0,0,0-3.46,6l-.09.18c-.59,1.2-1.55,3.18-.82,4.62l-.08,0-.23.16c-1.32.92-3,2.06-3.07,4a3.72,3.72,0,0,0,.21,1.22,3.31,3.31,0,0,1,.18.81c0,.11,0,.21,0,.31a2.82,2.82,0,0,0,0,.75c0,.1,0,.18.06.26a.65.65,0,0,1,0,.45,3.77,3.77,0,0,1-1.38,1.66l-.22.19a8.66,8.66,0,0,0-1.88,2.29,5.25,5.25,0,0,0-1,2.82,4.84,4.84,0,0,0,.67,1.9,6.64,6.64,0,0,1,.35.71c.26.62-.45,1.59-1.06,2-.25.19-.51.36-.78.53a10.79,10.79,0,0,0-1.14.81c-1.52,1.3-2.22,2.6-2,3.76a4.87,4.87,0,0,0,.95,2,9.18,9.18,0,0,1,.54.85,2.53,2.53,0,0,1-1.09,3.29,15.77,15.77,0,0,1-2,1c-1.57.74-3.2,1.5-4.08,3.25-1.08,2.13.05,4.06.87,5.48a3.7,3.7,0,0,1,.72,2.27,4.54,4.54,0,0,1-2,2.63l-.92.62a10.85,10.85,0,0,0-1.83,1.4,4.76,4.76,0,0,0-1.23,3.65.5.5,0,0,0,0,.21v.06a.55.55,0,0,0-.1.22c-.48,1.91.69,3.75,1.63,5.23.17.27.34.53.49.79a6.38,6.38,0,0,1,1.15,3c0,1-.72,1.9-2.32,2.75a.59.59,0,0,0-.26.28l-.79.39a.52.52,0,0,0-.22.07c-.94.52-4,2.43-4.47,4.85a3.2,3.2,0,0,0,.85,2.75,6.57,6.57,0,0,0,1.65,1.3,6.55,6.55,0,0,1,1.42,1.1,2.06,2.06,0,0,1,.19,2.46A7.64,7.64,0,0,1,5,135a13.3,13.3,0,0,0-1.81,1.26c-1.63,1.42-1.88,3.34-.69,5.41A10.11,10.11,0,0,0,5.71,145l.14.09a8.11,8.11,0,0,1,1.42,1.13c.16.18.65.72,0,1.94-.75,1.51-2,2.16-3.55,2.92l-.24.12a6.17,6.17,0,0,0-3.14,3.36c-.79,2-.31,4,1.39,5.82.33.35.72.68,1.13,1,1,.86,2,1.75,2.15,2.83s-1.13,2.11-1.8,2.66c-.21.17-.5.36-.8.56-1,.69-2.28,1.54-2.4,2.8a2.78,2.78,0,0,0,.76,1.87,14.39,14.39,0,0,0,2.27,2.29l.07.06a9,9,0,0,1,1.73,1.7c.27.39.2.61.18.68s-.35.64-1.51,1.09a.62.62,0,0,0-.38.69.59.59,0,0,0,.59.49c2,0,4,.17,6,.33s4,.31,6,.32a.59.59,0,0,0,.46-.21h.1l.17,0h.2l.1,0h.12l.2,0h.07l.24,0h.1l.68.08h.18l.17,0h.24l.19,0,.22,0h0l1,.12h.11l.25,0,.2,0h.06l.3,0,1.43.16h0l.39,0,.22,0c1.92.22,3.79.43,5.52.6a.5.5,0,0,0,.43.29h.44c9.76.15,28.93,5.48,29.14,5.54a73.08,73.08,0,0,0,17.6,2.05,90.68,90.68,0,0,0,23.84-3.23l.35.67v.07a.58.58,0,0,0,.59.59.6.6,0,0,0,.6-.6v-.24a6.51,6.51,0,0,1,.07-1.19c12.9-6.24,21.59-6.93,21.67-6.94a.5.5,0,0,0,.29-.12,52.38,52.38,0,0,1,9.39-.8A54.66,54.66,0,0,1,145,178.38a13.64,13.64,0,0,0,3.51.91c.53.09,1,.17,1.52.28l.13,0a.66.66,0,0,0,.62-.44.61.61,0,0,0-.21-.68,8.09,8.09,0,0,1-3.3-5.54,2.26,2.26,0,0,1,.46-1.85,4.18,4.18,0,0,1,1-.68c.2-.11.41-.23.6-.36a4.92,4.92,0,0,0,2.32-3.29,2.41,2.41,0,0,0-.82-2,8.44,8.44,0,0,0-1-.79c-1.16-.82-1.69-1.26-1.09-2.38a8.39,8.39,0,0,1,1.54-1.91,12.57,12.57,0,0,0,1.27-1.44,6,6,0,0,0,.65-4.55,6.21,6.21,0,0,0-1.33-2.42,7.23,7.23,0,0,1-1-1.61c-.5-1.25.18-2.06,1.36-3.26a3.86,3.86,0,0,0,1.42-3.39,3.57,3.57,0,0,0-2.56-2.53c-.57-.23-1.64-.67-1.87-1.29a1.15,1.15,0,0,1,.15-.92,4,4,0,0,1,2-1.37l.54-.24a5.71,5.71,0,0,0,2.73-2.19,3.85,3.85,0,0,0,.45-2.07A4.19,4.19,0,0,0,154.11,129.11Z"/><path class="cls-1" d="M147.4,136l4.7-1.75c1.09-1.31,2.18-2.84,1.52-4.58-.65-2.4-4.36-2.19-4.14-4.8.22-2.18,3.49-2.84,3.71-5.67a6.26,6.26,0,0,0-2.62-5.68c-2.18-1.31-6.11-.65-5.45-4.58.21-2,1.74-2.4,2.39-3.92,3.5-7.64-7.19-5.9-4.14-12.66.87-1.74,3.27-3.49,2.4-5.89-.65-1.74-3.05-2-3.93-3.71-1.31-2.83.88-4.58.88-7.2.21-2.83-2-4.36-4.59-5.67L137,69.45c2.18-5.89-1.74-14.4-5-19.2-2-2.84-5.68-5-7.2-7.85s-1.09-5.67-4.15-7.86h-.46l.24-1.3a6.21,6.21,0,0,0-.21-7.41c-.88-.87-2.62-.87-3.28-1.75-1.09-1.09.88-2.4-1.09-3.27a8.12,8.12,0,0,0-1.09-7.42c-1.09-1.09-3.05-.87-3.92-1.52-.66-.66-.22-1.75-.88-2.4A11.58,11.58,0,0,0,95.16,7.93l-.87.25-.22,0C92.32,4,87.74,2.26,83.6,2.47S77.92,1.82,74.22,1C70.29.08,66.14,2,63.75,5.09,62.44,6.62,62.44,8.37,60,8.8v0a16.94,16.94,0,0,0-5.24.64c-4.36,1.52-3.27,6.54-7,8.72l0,0A10.59,10.59,0,0,0,43,23.42c-1.09,3.27-3.49,6.32-4.36,9.6-.44,2,0,4.14-.44,6.1l.43.12a33.18,33.18,0,0,0-2.17,3.59C35.17,45.45,28.84,54,30.37,56.14l-.44.65a9.52,9.52,0,0,0-2.62,2.4c-.87,1.75,0,1.75,0,3.28-.21,1.52.66,1.09-.21,2.61-.22.66-1.75,1.53-2.4,2.4A8.84,8.84,0,0,0,23,71C23,72.07,24,73.37,24,74c-.43,2.62-2.18,2.4-3.71,4.14-3.71,3.71,1.53,4.15.22,7.86-.65,2.18-5.23,2.83-6.76,4.8-3.27,4.58,3.71,6.32.22,10.25-2,2.4-5.24,2.4-5.24,6.32a8.74,8.74,0,0,0,4.65,7.78c.46,1.34.86,2.48.86,2.48l-3.44,4.74s2,5.56,2.13,6.06S9,135.16,9,135.16s-1.47,5.24-1,5.89,1.8,12.77,1.31,13.09a46,46,0,0,0-4.58,3.11c-.33.49,4.58,10.47,4.58,10.47a7.54,7.54,0,0,1-.82,2.78,8.24,8.24,0,0,0-.32,4.26l3.43,3.44,4.09.81S36,181.63,40.46,181.3s11.78-2.94,13.09-3.43,5.4-5.89,6.87-10c1.29-3.6,2.72-16.69,2.59-21.24l1.61.46,27.7,1.09,3.44-.39a10,10,0,0,0-2.29,3.06c-.66,2.29-1.8,11-1.8,11l2.62,3.6,13.41,8.84,15.38,3.27a55.39,55.39,0,0,1,23.23.66s-2.94-2.95-1-5.57,3.77-4.09,2.78-5.72-2-4.42-.16-6.55,3.27-2.94,2.29-5.07-4.09-4.91-2.45-6.71,3.43-3.43,2.94-5.07-3.92-2.62-3.76-4.91A19.21,19.21,0,0,1,147.4,136Z"/><path class="cls-2" d="M103.22,31.94c.8.4,1.55-.26,2.36.41,1.57,1.28.2,3.25,2.45,3.94,1.82.55,4.1-.93,5.84.49,1.56,1.27.47,3.46,1.8,4.76.21.21,1.12.08,1.53.42s.43.77.7,1.09c.67.8.84,1.49,1.69,2.18s2,.73,3,1.36c.7.47.86,1.11,1.41,1.65,3.06,3,8.21,1.49,9.06,7.29.6,4.13,4.7,8.17,2.42,12.63.1.38.24,0,.46.2l1.36.22c1.53-5.84-2.17-13.76-5.28-18.33a20.81,20.81,0,0,0-3.13-3.34,12.94,12.94,0,0,1-3.64-.35,19.21,19.21,0,0,1-6.15-3.79c-1.63-1.37-1.49-3.77-2.47-5.5s-2.53-2.05-4.2-2.78c-1.43-.63-3.21-.53-4.56-1.32a14.47,14.47,0,0,1-3.16-3c-2-2.29-3-2.22-5.85-2.38a52.25,52.25,0,0,0-6-.23,14.65,14.65,0,0,1,9,2.89C102.49,31,102.43,31.54,103.22,31.94ZM51.09,18.62c1.44-1.21,2.07-3.29,3.27-4.59.91-1,2.07-2.45,3.88-2.13,3.11.55,7.05,3.47,9.23,5.55-.16-2-2.24-4-2.26-5.81,0-2.19,2.22-2,3.73-1.12-.08-1.53-1.35-3-.18-4.17.87-.87,3.65-.65,4.82-.61,3.36.11,6.88,2.78,8.23,5.83,0-.77-.11-3.58.52-4,1.24-.9,2.34,1,3.46,1.43s2.44,0,3.52.53c1.46.65,2.25,2.42,2.81,3.81-.63-3,2.4-3.32,4.57-3.64,3.74-.56,1.7.92,3.54,3,.79-1,1.79-2.61,3.22-2.77,2-.22,1.75.87,2.39,2,1.44,2.49,1.23,4,1.57,6.75,1.35-.78,3.55-1.73,5-.58s.87,2.6-1,2.83c2.5.64,3.35,2.74,5.41,3.64l.22-.4,0,0c-1.09-1.09.88-2.4-1.09-3.27a8.12,8.12,0,0,0-1.09-7.42c-1.09-1.09-3.05-.87-3.92-1.52-.66-.66-.22-1.75-.88-2.4A11.58,11.58,0,0,0,95.16,7.93l-.87.25-.22,0C92.32,4,87.74,2.26,83.6,2.47S77.92,1.82,74.22,1C70.29.08,66.14,2,63.75,5.09,62.44,6.62,62.44,8.37,60,8.8v0a16.94,16.94,0,0,0-5.24.64c-4.36,1.52-3.27,6.54-7,8.72l0,0a7.68,7.68,0,0,0-.74.41ZM67.56,44.91l.3-.47A3.15,3.15,0,0,0,67.56,44.91Zm27.56-6.48c.49,0,1,0,1.45,0A4.14,4.14,0,0,0,95.12,38.43Zm18.68,8.06c2.33.09,3.06,1.92,3.23,4.13.18,2.42-.51,2.85,1.18,4.54,1.33,1.33,1.52,1.78,3.39,2,2.46.24,3.32.44,4.14,2.78.62,1.76.58,1.73,2.29,2.33s4.54,1.69,5.08,3.68c.25.9-1,4.81,1.59,3.65l.82-.5c-1.12-1.17-.38-3.17-1.19-4.61-.93-1.67-2.57-2.11-4.22-2.79-2.12-.86-1.45-1.86-2-3.76s-1.68-2.16-3.4-2.41a6.7,6.7,0,0,1-4.59-2.42c-1-1.31-.76-3.15-1.47-4.74a5.37,5.37,0,0,0-3.73-3.52c-1.91-.63-3.1,0-4.94,0-2,0-2.38-1.23-3.76-2.25s-2-1-3.08-2.37c-1.9-2.46-4.07-2-6.58-1.84a13.78,13.78,0,0,1,3.24.77c2,.83,1.42,2.13,2.49,3.11.39.37,1.29.23,1.77.61s.56,1,.85,1.48a4.9,4.9,0,0,0,3,2.33C110.1,47.65,111.45,46.4,113.8,46.49Zm36.77,67c-1.57-.94-4-.86-5.06-2.2-1.14-.88-1.32-2.06-1.49-3.69-.29-2.71-.77-3.62-3.43-4.86-2.5-1.15-2.89-1.24-2.19-4,.4-1.62,1.2-3.43.39-5.07s-2.67-2.09-3.44-3.71-.56-3-2.06-4.53c-1.29-1.31-3.06-1.7-3-4,0-2.09,1.95-4.07,2.24-6.11s-.68-3-2.45-4.09c-2.08-1.35-2.94-1.2-3.49-3.77-.38-1.81-.69-3.46-2.35-4.64s-3.47-.72-4.42-2.54c-.79-1.53-.48-3.4-2.11-4.66-1.33-1-3.45-.28-4-2.07a.33.33,0,0,1-.17-.27l-3-3.49c1.58,1.67,1.22,4.35,2.55,5.91,1.48,1.72,2.88.76,3.56,3.26.6,2.19.19,3.86,2.62,5,1.79.81,3.91.35,5,2.46s-.53,4.17,1.36,5.94c1.64,1.53,4,1.06,4.1,3.88,0,2.34-2.58,3.8-2.3,6.16.3,2.62,2.75,3.06,4.31,4.58,2.12,2,.41,3.77,1.09,6.11s3.86,1.3,4.59,3.66c.56,1.79-1.07,3.65-.61,5.67.66,2.94,2.74,2.8,4.75,4.3,2.2,1.65,1.19,3.55,1.52,5.72.45,3,3.42,3.3,5.69,4.54s3.08,2.55,3,5a4.18,4.18,0,0,0,1.52-2.76A6.26,6.26,0,0,0,150.57,113.51Zm-44.3-87.64c1.31.43,2.63.41,3.94,1s2.62,1.71,3.86,2.21c-2.48-2.61-7.11-4.43-10.19-6.35s-7.65-3.17-11.29-3.91-7.31-.24-11-.39c-3.85-.16-6.8.5-10.47,1.09-4.36.7-7.13,2.09-11.11,3.93-2,.91-4.12,1.13-5.95,2.35-1.25.83-4.66,2.84-5.19,4.19L48,31.27c2-1.38,4-2.93,6.11-4.16s3.7-1.06,5.84-1.73c3.19-1,6.67-4.23,10.57-4.36,2.22-.07,3.82.53,6.06.2a41.42,41.42,0,0,1,5.67-.37c3.38,0,4.58,3.08,6.28,5.6-.74-2.94-.26-4.71,2.93-3.92a61.93,61.93,0,0,0,6.93,1.06C101.38,24,103.48,25,106.27,25.87ZM55.24,33C58,32.6,58.05,33,60,30.6a3.91,3.91,0,0,1,4.64-1.51c2.24.57,2.25.68,4.56-.38,3.53-1.62,6.21-2.23,10-1.58C77.33,26.92,75.8,26,74,25.77c-2.28-.33-3.35,1.08-5.46,1.58-3.33.79-6-1.1-9.22,1.24-1.5,1.1-2.66,2.26-4.53,2.68s-3.49.07-4.52,1.75-.49,3.6-1.36,5.23c-1.16,2.18-2.17,1.26-4.36,1.9a14.22,14.22,0,0,0-3.45,1.64c-.72.69-.66,1.81-1.41,2.56-1.15,1.18-3.11,1.19-4.95,1.38-2.26,3.6-5.51,8.78-4.37,10.41l-.44.65a9.52,9.52,0,0,0-2.62,2.4c-.87,1.75,0,1.75,0,3.28-.21,1.52.66,1.09-.21,2.61a2.09,2.09,0,0,1-.6.74l.2.12a6.58,6.58,0,0,0-2.6,3.66c-.23,1.25.81,4.32,2,4.21l.33-1c-1.18-2.92,2.13-3.66,3.89-4.71a9.16,9.16,0,0,1,5.07-1.67A5.92,5.92,0,0,0,37.14,66a4.26,4.26,0,0,0-.66,1.66c-.88,4.43-1.65,6.87-5.94,8.89-1.6.75-2.85,1.32-3.61,2.94s-.58,3.84-1.57,5.41-2.84,1.68-3.88,3.5c-.91,1.58,0,4.52-1.35,5.67-1.63,1.4-3.27-.19-4.22,2.81-.74,2.34-.68,3.29-1.65,3.85l-.25.31c-2,2.4-5.24,2.4-5.24,6.32a8.74,8.74,0,0,0,4.65,7.78l.14.39v-.75c-1.84-5-1.44-7,2.84-10.19,2.15-1.59,2.41-2.3,2.61-4.86s1.13-3,3.27-4.42,2.27-2.17,2.41-4.69.39-2.68,2.61-3.92c2.06-1.15,2.54-2,2.62-4.42.09-2.59.21-2.76,2.84-3.65,2.06-.7,4.11-.65,5-2.89.72-1.87,0-4.14.65-6.07A6.57,6.57,0,0,1,43,65.46c2-.63,4.56-.08,5.94-2.12,1.12-1.65-.13-3.84.59-5.47,1-2.27,3.88-1.28,5.72-1.77,3.95-1.06,2.82-5.68,6.5-6.77,1.44-.43,2.65-.23,3.87-1.32a11.62,11.62,0,0,0,1.91-3.1c-2.38,3.42-5.51,1.59-8.82,2.94-1.78.73-2.11,3.6-3.28,5A3.47,3.47,0,0,1,53.2,54.2a2.58,2.58,0,0,0,1.16-1.13c.79-2.21-1.37-3.86,1.15-5.9,2.08-1.68,4.23-.59,6.58-.84,2.54-.26,2.81-3.57,5.19-4.38a17.93,17.93,0,0,1,3-.7c1.52-.25,1.36-.07,2.29-1.3a5.14,5.14,0,0,1,6.16-1.79,7,7,0,0,0-4-.84c-1.8.22-2,1.64-3.26,2.42s-3.11,0-4.55,0c-2.26.08-2.87,1.47-4.29,2.94-1.77,1.82-2.91,1.26-5.23,1.15s-3.09,1.12-4.22,3a19.27,19.27,0,0,0-2.34,4.94c-.8,2.51-2.61,1.61-4.74.46-3.3-1.78-6.59-.4-8.55,2.74s.25,5.3-.64,8.41-4.21,1.89-7,1.75L31,64.43a4.3,4.3,0,0,1-1.09-2.61c.05-1.94.76-1.39,2-2.36C34.07,57.7,33.39,57,33,54.34c-.82-6,6.34-6.42,9.39-9.53.9-.92.82-1.61,2.28-2s2.87.19,4.21,0c2.69-.41,2.1-1.82,2.22-4.29S52.35,33.44,55.24,33ZM39,57c.16-.34.7-.47.83-.79s-.17-.94.11-1.37c.64-1,2.46-1.24,3.65-1.11,1.7.19,3.12,1.27,4.73,1.61-2.36,1.89-1.13,5.77-3.26,7.88-1.87,1.87-4.76,1-6.7,1.87C39.54,63.1,37.74,59.58,39,57Zm-27,68.55a6.74,6.74,0,0,0,1.42,0l.14-6.76-2.65,3.65Z"/><path class="cls-3" d="M147.4,136l4.7-1.75.43-.54a4.15,4.15,0,0,1-1.65-.25c-2.44-.87-3-4-4.48-6.07-2-2.78-1.74-3.85-2.69-7.1-1-3.46-2.84-3.57-5.59-4.9-3.23-1.56-3-3-3.59-6.23-.84-4.42-2.08-3-5.25-4.89S127.7,100,128,97c.49-4.9-2.77-7.84-6.45-10.35-.22-1.19-1-2.11-3-3.2.91-2.67.58-6.11-1.59-7.79-4-3.13-6.78,1.85-6.94,6a7.81,7.81,0,0,0-3.62,2.59c-10.18,12-10.06,27.34-12.42,42.16a73.93,73.93,0,0,1-2.69,12.23c-1.07,3.13-2.89,6.11-3.64,9.34l4.68.19,3.44-.39a10,10,0,0,0-2.29,3.06c-.66,2.29-1.8,11-1.8,11l2.62,3.6,13.41,8.84,15.38,3.27a55.39,55.39,0,0,1,23.23.66s-2.94-2.95-1-5.57,3.77-4.09,2.78-5.72-2-4.42-.16-6.55,3.27-2.94,2.29-5.07-4.09-4.91-2.45-6.71,3.43-3.43,2.94-5.07-3.92-2.62-3.76-4.91A19.21,19.21,0,0,1,147.4,136Zm-11.48,3.92c-2.28,3.9,2.11,5.75,1.89,9.57-.24,4-4.95,3.67-6,7.12s3.9,6,1.83,9.74c-1.93,3.47-6.93.81-9,3.68-.82,1.12-.09,2.78-.63,3.92-.95,2-2.41,2.12-4.32,2.87,2.24-1.48.26-4.72.79-6.8.77-3,3.52-2.31,5.57-4.25,2.74-2.6.57-3.88.39-6.87-.23-3.77,3.09-3.46,4.28-6.55,1.11-2.88-1.62-4.77-1.4-7.52.26-3.37,3.3-3.61,4.66-6.13,1.78-3.3-1.6-4.27-2.7-7s1.49-5.24.59-7.46-3.79-1.1-2.61-4.59a9.9,9.9,0,0,0-2.18-1c.92.89.38,1.92.68,2.64.47,1.16,1.28,1.53,1.8,2.63,1.44,3-.77,4.44-.24,7.44.46,2.62,4.11,4.32,2.71,7.53s-5.4,2.28-5.66,6.22c-.18,2.74,2.82,4.78,2.06,7.27-.89,2.88-3.69,2.22-4,5.49-.35,3.44,2.21,4.64-2,6.46-3.13,1.36-5.69.09-7.28,3.61a13.15,13.15,0,0,0-.76,5.31c-1.76-1.44-1.4-1.82-2.11-3.93-.59-1.79-.42-2.25-1.63-3.93s-2.93-2.6-3.36-4.59c-.86-3.88,2.8-4.32,3.7-7.52.39-1.38-.79-2.62-.11-3.94s3.48-2.18,4.67-2.93c1.38-.87,3.21-1.71,3.54-3.52.38-2.08-1-2.12-1.65-3.66-1.73-4,.77-4.43,3.61-6.9,3.71-3.22,1.63-5.18,1.12-9.15-.39-3.09,2.17-4.85,1.9-8.18-.24-3-2.64-3.62-3.62-5.81-1.34-3,1.14-4.8,2.36-7.39.08.36.17.72.26,1.09.94,3.64,3.69,3.18,5.17,6.22,1.63,3.35-.65,5.36,2.77,8.1,3.74,3,2.82,2,2.53,6.88-.28,4.53,3.6,4.06,5.91,6.94C143.12,135.62,137.82,136.64,135.92,139.91Zm-71.49,6.85c-2.78-6.82-9.22-14.32-10.05-21.63-.74-6.5,1.31-13.37,1-20-.28-5.83-3.2-17-10.56-17.29-.29-2.25-1.34-3.63-4.45-3.27-3.65.43-6,2.17-7,5.5s-.77,7.38-3.51,10.22c-2.35,2.44-6.31,2.26-8.84,4.56-3.56,3.23-1.73,6.25-2.62,10.41-.8,3.72-2.3,2.36-4.65,3.15a5.44,5.44,0,0,0-1.25.6c-3,1.94-2.85,6.69-1.88,9.67a12.3,12.3,0,0,0,1.15,2.19,2.72,2.72,0,0,1,.09,2.14c-.43,1.55-1.89,2.31-3.08,3.22a5.33,5.33,0,0,0-1.19,1.18c-2.75,4-.36,6.58,1.44,9.47A8.76,8.76,0,0,1,10.53,151c.27,4.28-4.16,5.3-4.75,9.11a6.16,6.16,0,0,0,.07,2.16c.54,2.84,1.86,5.23,2.9,7.81l.15.37c1.09,2.81.75,3.51,0,5l2.79,2.8,4.09.81s8.41,1.09,15.58,1.77a7,7,0,0,1-3.14-4.88c-.36-3.84,2.18-4.92-1-8.25-1.8-1.88-6.26-3.69-6.87-6.47-.66-3,3-4.68,3.69-7.13,1.88-6.51-6-8.7.58-14.45,2.55-2.22,5-4.91,4-8.53-.91-3.35-4.92-6.34-3.71-10.39,1.25-4.21,5.45-3.1,5-8.26-.37-4.15-.6-6.07,3.52-7.93,4.32-1.95,3.64-2.72,4-6.13a6.17,6.17,0,0,1,.56,4c-.54,2.77-3.45,4.53-3.85,7.13-.5,3.22,3.15,4.38,3.54,7.2.49,3.62-3.85,5-2.71,8.76,1,3.23,6.05,3.86,6.65,6.94.69,3.58-4.77,5.07-4.2,8.84.47,3.17,4.15,3.67,3.45,7.12-.34,1.68-2,1.75-1.48,3.93.29,1.32,2.17,2.71,3.12,3.67,2.5,2.51,3.4,4.4,1.81,7.86-.54,1.18-2.33,2.6-2.4,3.92-.09,1.47,1.29,2.31,1.33,3.93,0,2.24-2.3,4.53-4.62,6.29-1.36-2.39-1.15-5-2-8.6-1.51-6.32-10.87-4.88-8-12.42,1.32-3.52.06-3.63-.16-6.86s2.18-3.89,4.08-6.22c4.68-5.7.45-9.49-2.44-14.66-1.36-2.42-1.59-4.12-.18-6.6,1.85-3.26,2-3,1.57-6.79.36,3.87-2,4-3.21,7.1-1,2.57.06,5,1.33,7.2,1.55,2.72,2.67,3.81,2.2,6.87-.52,3.34-2.29,3.72-4.51,6-2.48,2.54-1.41,3.26-.47,6.22,1.13,3.59,0,4.31-1.81,7.46-3.94,6.82,5,6.79,5.81,12.41.39,2.78-1.66,5.1-1.23,7.78.33,2.09,2.06,3.17,3.76,4.16a57.4,57.4,0,0,0,7.13.33c4.42-.32,11.78-2.94,13.09-3.43s5.4-5.89,6.87-10c1.29-3.6,2.72-16.69,2.59-21.24l1.56.44Z"/><path class="cls-4" d="M91.18,40c-1.44-1.19-2.73-.86-2.26-3.3.3-1.5,1.7-2.14,1.16-3.64s-1.78-1.67-1.69-3.4c.06-1.11.68-2.1.5-3.4a19.93,19.93,0,0,0-1.31-3.47c-.18-.5-.25-1-.4-1.44a8.07,8.07,0,0,0,.11,1.77c.36,1.12,1.06,1.84,1.11,3.11s-.85,1.78-1.12,3,.73,1.67,1.08,2.74c.73,2.23-2.36,5.24-1.07,7,.85,1.17,1.88.49,2.25,2.33.33,1.63-.44,3.27-.33,4.9h.17C90.85,44.47,94.15,42.44,91.18,40Zm59.39,73.54c-2.18-1.31-6.11-.65-5.45-4.58a4.09,4.09,0,0,1,1.39-2.51,5.59,5.59,0,0,0-2-3.38c-1.36-1-4.34-1.41-5.08-3s1.23-3.58.89-5.47c-.41-2.24-2.24-2.45-3.39-4s0-3.52-1.13-5-3.67-1.2-4.17-3.48c-.78-3.64,5.94-6.7,1.75-10.48-1.5-1.36-3.87-.63-5.19-2.22-1.15-1.39-.5-3.6-1.4-5.14-1-1.73-2.45-1.76-4.08-2.46-2.71-1.15-1.69-2.16-2.46-4.57s-2.06-2.39-4.1-2.62c-2.57-.28-2.14-.61-3.33-2.78a6,6,0,0,0-3.87-3.06c-1.43-.41-3.12-1.58-4.56-1.69.87.26,1.35,1.35,2,1.6,1,.38,2.06,0,3.06.42,2.58,1.13,2,3.34,3.22,5.3,1.45,2.32,2.83,0,4.85,1.25s.4,3.32,1,5.07c.8,2.22,3,2,4.86,2.4,2.52.57,2.7,1.43,2.79,3.93s-.46,3.18,1.74,4.31c1.53.78,3.49.92,3.94,2.92.6,2.69-2.54,4.84-2.63,7.38-.12,2.92,2.5,2.76,4.15,4.31s.48,3.46,1.46,5.08,3,1,3.77,2.83c1.47,3.69-3.35,8.05,1.58,10.64,1.7.89,3.3.85,3.88,3.1s-.36,3.38,1.79,5c2.77,2,5.27,2.52,7.31,5A6.08,6.08,0,0,0,150.57,113.51ZM76.39,26.87a3.66,3.66,0,0,0-4.13-.74A6.74,6.74,0,0,1,76.39,26.87Zm10.06-6.62a2,2,0,0,1,.73,1.07A1.12,1.12,0,0,0,86.45,20.25ZM105.9,43.37c.54.91.31,1.64,1.31,2.27,2.11,1.31,4-.93,6.06-1.12a4.77,4.77,0,0,1,4.58,2.62c1.31,2.14-.79,3.38,0,5.52.6,1.66,1.86,3.65,3.78,3.64s3.27-1.15,4.9.7-.54,2.9.65,4.37,3.45.21,4.91,1.31a5.22,5.22,0,0,1,1.64,4.59c-.22,1.59-.85,2.46.7,3.73,1.1.9,2.4.67,3.71,1.13,1.61.58,3.31,1.79,3.44,3.61.12,1.59-1.11,3.07-1.3,4.61a4.17,4.17,0,0,0,1.46,3.9c1,.89,2.36,1.33,2.46,2.81.21,3.15-4.34,4.58-1.6,7.69l.25.26a4.93,4.93,0,0,1,.53-2.66c.87-1.74,3.27-3.49,2.4-5.89-.65-1.74-3.05-2-3.93-3.71-1.31-2.83.88-4.58.88-7.2.21-2.83-2-4.36-4.59-5.67L137,69.45c2.18-5.89-1.74-14.4-5-19.2-2-2.84-5.68-5-7.2-7.85s-1.09-5.67-4.15-7.86h-.46l.24-1.3a6.21,6.21,0,0,0-.21-7.41c-.88-.87-2.62-.87-3.28-1.75-1.09-1.09.88-2.4-1.09-3.27a8.12,8.12,0,0,0-1.09-7.42c-1.09-1.09-3.05-.87-3.92-1.52-.66-.66-.22-1.75-.88-2.4A11.58,11.58,0,0,0,95.16,7.93l-.87.25-.22,0C92.32,4,87.74,2.26,83.6,2.47S77.92,1.82,74.22,1C70.29.08,66.14,2,63.75,5.09,62.44,6.62,62.44,8.37,60,8.8v0a16.94,16.94,0,0,0-5.24.64c-4.36,1.52-3.27,6.54-7,8.72l0,0A10.59,10.59,0,0,0,43,23.42c-1.09,3.27-3.49,6.32-4.36,9.6a9.41,9.41,0,0,0-.2,1.77,1.4,1.4,0,0,0,.41-.2c.74-.52.66-3.32.89-4.14.5-1.73,1.74-2.73,3-3.89,2-1.83,1.81-5.86,5.27-6.09,1.7-.11,3.09.13,4.1,1.48.59.79,2.12,2.61,1.92,3.55-.27.18-.55.37-.82.58-1,.75-5.65,4.69-5.4,5.52l1.31-1c1.08-2.59,5.92-5.46,8.67-6.19,2.93-.77,5.15-2.44,7.89-3.52,3.6-1.4,8.25-1.67,12.07-2.08a14,14,0,0,1,8.64,1.29c1.1-2.24,5.28.18,6.9.36s3.15-.15,4.7.16c2.41.47,4.79,1.91,6.92,3.1,1.74,1,3.15,2.44,4.91,3.32a10.39,10.39,0,0,1,3.64,2.24c1.77,1.9,3.91,2.94,6,4.46a3.79,3.79,0,0,1,.57,1.9,3,3,0,0,1,.93.36,15.28,15.28,0,0,1,1.63,3.14,21.12,21.12,0,0,0,1.15,3.89,6.93,6.93,0,0,0,1.6,2.09,15.6,15.6,0,0,1-3.74-1.56,15.88,15.88,0,0,1-3.11-1.8c-.95-1-.81-2.61-1.11-3.84-.48-2-1.12-1.93-2.78-2.74-1.3-.63-2-1.82-3.43-2.13-1.28-.27-2.8.41-3.93-.29-2.62-1.62-1.63-5.13-5.56-5.27A14.82,14.82,0,0,1,97.56,27a6.74,6.74,0,0,0-4.09.2h1.14c.83.11,1.52-.19,2.3,0,.57.11,1.08.53,1.62.69,1.39.43,2.91.28,4.27.82,1.58.64,2.13,2.23,3.26,3.44,1.39,1.47,2.55,1.7,4.39,2.09,1.66.35,1.69,1.26,3,2s2.48.1,3.29,2,.34,3.1,2.12,4.42a23.65,23.65,0,0,1,3.8,2.94c2.09,2.26,4.91,2.71,7.57,3.7,2,2.35,2.83,5.58,4.21,8.25,1.27,2.46,2.21,5.66,1.32,8.21l-.22.57c-.3-1.52-.39-2.53-1.67-3.5-1.13-.87-2.22-.77-3.4-1.36-1.85-.92-.95-2-1.14-3.59a4.06,4.06,0,0,0-2.78-3c-1.4-.58-2.81,0-4.13-.56s-2.13-2.14-2.43-3.49.33-2.46-.44-3.6a9.61,9.61,0,0,0-3.63-2.45c-2.85-1.17-7,.72-8.71-2.13-.55-.89-.1-1-1.11-1.47-.69-.33-1.45.1-2.14-.53s-.38-1.42-1.29-2c-.65-.4-1.59-.3-2.3-.61l1.47.65c.81.64.68,1.41,1.15,2.17.57.94.61.69,1.47,1.27S105.39,42.5,105.9,43.37ZM68.27,19.49c-3.14.16-4.89,1.94-7.69,2.91a32.86,32.86,0,0,0-3.44,1.37,5.51,5.51,0,0,1-2.9-2.48c-1-1.74-1.41-3.43-3.64-3.76a1.77,1.77,0,0,0-.33,0,14.12,14.12,0,0,1,1.14-1.66c1.05-1.18,1.67-2.52,2.67-3.72,2.43-3,6.8-1.17,9.28.65s3.43,4.71,5.36,6.68Zm1.57-.13c-.16-.38-.25-1.32-.46-1.79a21.26,21.26,0,0,0-1.44-2.66c-.65-1-1.73-1.32-2.58-2.16s-1-1.76-1.62-2.47a6.22,6.22,0,0,0-1.09-.9,11.06,11.06,0,0,0,1.2-1.3,2.71,2.71,0,0,0,.21-.37c2.09,1,3.65,3.09,5.36,4.7A11.32,11.32,0,0,1,72,15.73a16.58,16.58,0,0,0,1.85,2.9A35.13,35.13,0,0,1,69.84,19.36Zm5-1c-1-1.34-1.88-2.63-2.71-4s-2-2.1-2.74-3.39c-.88-1.5-1.2-3.27-2.75-4.3-.43-.28-1-.64-1.62-1a4.46,4.46,0,0,1,2-1.54,3,3,0,0,1,.92.59c1.29,1.18,2.3,3.36,3.4,4.75.57.71.94,1.58,1.48,2.3s1,1,1.51,1.58c1.16,1.34,1.29,3.29,2,4.63ZM77,17.9a17.31,17.31,0,0,0-3-5.61,34.76,34.76,0,0,1-3.11-4.78A24.32,24.32,0,0,0,68.5,3.7c.29-.08.6-.17.92-.28,1.83-.6,3.22-1.27,5.23-1.11s3.11,1.36,4.82,2.09c.25.7.45,1.43.75,2.17a19.69,19.69,0,0,1,1.43,3.1,14.92,14.92,0,0,1,0,4.06,27.47,27.47,0,0,0,.19,3.75A23.57,23.57,0,0,0,77,17.9Zm7.49-4.79c-.35,1.47-1.58,3.1-1.47,4.4l-.48,0c-1.2-2.71.48-6-.5-8.8-.49-1.35-1.14-2.38-1.53-3.76-.06-.23-.14-.55-.26-.88a7.62,7.62,0,0,1,4.24,9.06Zm5.17,5.11c-1.5-.24-3.07-.45-4.64-.58-.67-1.93,1.24-4.75,1.07-6.86C86,9,85,6,83.77,4.63a4,4,0,0,0-.68-.56,18.2,18.2,0,0,0,4,1.19,6.57,6.57,0,0,1,1.18.15,9.39,9.39,0,0,1,1.6,4.43,29.44,29.44,0,0,0,1.18,5.07C91.63,16.86,90.8,17.4,89.68,18.22Zm5.6,1.08c-.75-.18-1.51-.35-2.3-.5l-.63-.12a22.79,22.79,0,0,1,.6-2.75c-2.17-2-2.46-5.77-2.72-8.42,0-.52,0-1,0-1.45A5.63,5.63,0,0,1,93.5,9.62c1-1.41,2.84-1.17,4.39-1.42l.4-.08c.89.55.92,1.27.87,2.5A13.47,13.47,0,0,1,95.28,19.3ZM97.7,20c.06-.79.51-2.74.67-3.44.36-1.56,1.4-2.92,1.77-4.45A7.74,7.74,0,0,0,100,7.68a5.3,5.3,0,0,1,2.6-.13,8.83,8.83,0,0,1,3.43,1.34c-.12.68-.9,1.24-1.15,1.92s-.09,1.43-.35,2.14c-.68,1.8-2.32,2.76-3,4.38-.43,1.1-1,2.77-1.26,3.6C99.48,20.58,98.6,20.27,97.7,20Zm3.2,1.17.42.14c.79-.47,1.2-3.79,2-4.91.51-.74,1.3-1,1.8-1.67s.45-1.79.66-2.58A12.61,12.61,0,0,1,107,9.63l.39.37c.34.34.8.71,1.24,1.12a7,7,0,0,1-2.25,4.76c-1.87,1.83-4,3-4.2,5.82C101.74,21.51,101.32,21.32,100.9,21.15Zm2.09.93c.76-1.55.35-3.26,2.24-4.33-.21.79-1.63,3.54-1.39,4.75C103.56,22.35,103.27,22.22,103,22.08Zm4.22,2.24c-.89-.52-1.77-1-2.65-1.46a11.07,11.07,0,0,1,2.49-7.1,8.09,8.09,0,0,0,2.16-2.65c.14-.28.29-.57.45-.85a2.35,2.35,0,0,1,.52,1.48c3.73.07,6.33,3.25,4.58,6.54l-1-.13a5.8,5.8,0,0,0-3.8.94,4.23,4.23,0,0,0-1.6,1.51C107.92,23.23,107.87,24.06,107.21,24.32ZM120,29.8c-.16,1.15-.57,1.14-1,2.08a4.25,4.25,0,0,0-.3.68c-1.24-1.18-3-2.15-4-3.13A31.91,31.91,0,0,0,108.39,25l-.11-.06a16.18,16.18,0,0,1,.94-2.15A5.67,5.67,0,0,1,112,21.29a4.83,4.83,0,0,1,3,.57c.47,1,.51,2.19,1.29,3,1,1.06,3,1.12,3.6,2.65A5.38,5.38,0,0,1,120,29.8ZM71.18,26.4a5.39,5.39,0,0,0-1.23.65c.86-.3,1.6-.67,2.31-.92A6.56,6.56,0,0,0,71.18,26.4ZM34.77,48.07c.21-.21.42-.4.62-.57,1-.81,1.74-.6,2.78-1,1.59-.63,2.27-2.15,3.4-3.29a10,10,0,0,1,6.21-2.94c2.27-.36,2-1.33,2.33-3.45.27-1.84.39-3.63,2.42-4.36,1.5-.54,2.72.06,4.08-.9a41.52,41.52,0,0,1,5.12-3.24,4.54,4.54,0,0,1,2.62-.82c.82.12,1.32.87,2.12,1,1.31.2,2.38-.73,3.48-1.45-.27.09-.56.18-.86.26-1.62.41-2.55-.32-4.09-.46a8.25,8.25,0,0,0-4.09.94c-2.69,1.33-4.57,3.37-7.54,3.47-4.48.16-3.47,3.32-4.56,6.56s-5.77,0-7.54,3c-1.28,2.14-1.09,2.87-3.8,3.44-.27,0-.71.13-1.21.25.29-.75.6-1.5,1-2.25,1.9-3.93,7.39-5.88,8.45-10.3-3.11,1.62-4.79,4.85-7.18,7.26l.16,0a33.18,33.18,0,0,0-2.17,3.59C35.17,45.45,28.84,54,30.37,56.14l-.44.65a9.52,9.52,0,0,0-2.62,2.4c-.87,1.75,0,1.75,0,3.28-.21,1.52.66,1.09-.21,2.61-.22.66-1.75,1.53-2.4,2.4A8.84,8.84,0,0,0,23,71C23,72.07,24,73.37,24,74c-.43,2.62-2.18,2.4-3.71,4.14-3.71,3.71,1.53,4.15.22,7.86-.65,2.18-5.23,2.83-6.76,4.8-1.72,2.4-.61,4,.32,5.58-.73-1.94-.77-3.83,1.19-5.22,1.26-.88,3.27-1.38,4.95-2.18,0,1.2.29,2.43-.18,3.56-.82,2-2.75,1.22-4.11,2.18-1.67,1.17-.44,1.8-1,3.38a3.07,3.07,0,0,1-.91,3c-2,2.4-5.24,2.4-5.24,6.32a9.21,9.21,0,0,0,.63,3.32C9,108.36,9,107.07,11,105.22c1.49-1.42,3.64-1.63,5.07-3,2-1.91.4-3.13,1-5.29s3.14-1.52,4.63-2.77.87-3.33,1.43-5.13c.65-2.06,1.91-2.26,3.27-3.71,2.87-3.06-.36-7.74,5.29-8.9s4.57-3.42,5.4-8c1-5.52,8.53-1.77,9.66-6.56.48-2-1-3.65.64-5.46,1.51-1.63,3.77-1.05,5.68-1.35,4.47-.71,2.86-6.11,7-7.1,1.67-.41,3.64.7,5.07-.2,1.8-1.13.73-3.2,3.47-3.12-1.69-1.16-2,.91-3,1.8-1.53,1.3-2.78.56-4.64.55-4.47,0-3.78,5.31-7.64,6.17a10.71,10.71,0,0,1-2,.2,6.38,6.38,0,0,0,.51-.6c1-1.4.24-2.87.94-4.41a5,5,0,0,1,5.92-3.08c2.68.5,3.92.67,5.24-1.87,1-1.85,1.59-3.34,3.93-3.4,1.84,0,3.11,1.13,4.63-.45,1.07-1.11,1.42-2.81,3.41-2a2.28,2.28,0,0,0-2.85.29c-1.25,1.15-1.13,2-2.89,2-3-.1-4.4-1-6.68,1.63-1,1.14-1.62,2.15-3.31,1.77s-2-1.59-3.76-.46c-2.44,1.57-3.66,4.3-4.87,6.75-1.9,3.82-3.35-.78-5.76-.66-1.74.08-4.93,2.06-6.39,3A6,6,0,0,0,36.83,55a9,9,0,0,0-.95,3.76c0,1.3.79,2.89,0,4.09-.94,1.52-2.6.86-4,.65a4,4,0,0,0-3,.69c-.72-1.64-2.17-3.38-.39-4.9.63-.55,1.64-.67,2.3-1.18.47-.37.94-1.09,1.41-1.44-2.28-.91.38-5.25,1.2-6.38A14.17,14.17,0,0,0,34.77,48.07Zm4,6c2.36-2.49,4.61-2.15,7.36-.68a7.88,7.88,0,0,0,1.88.74l0,0a5.37,5.37,0,0,0-2.62,4.2c-.23,1.79.53,3.55-1.08,4.85s-3.91.64-5.68,1a9.34,9.34,0,0,0-1.32.42A4.78,4.78,0,0,0,37.81,61C37,58.21,36.46,56.55,38.82,54ZM30.64,65.62c1.61-.5,3.68.35,5.17.08a5.09,5.09,0,0,0-1.07,2c-.56,1.79.24,4.31-.43,5.91C32.88,77,27.19,75,26.05,79.31c-.5,1.92.68,4-.91,5.47a4.61,4.61,0,0,1-2,.93c.32-3.13-4.21-6-.06-8.31,1.5-.85,3.85-.87,3.6-3.1-.18-1.6-2-2.41-1.49-4.26S28.87,66.17,30.64,65.62Z"/><path class="cls-5" d="M29.87,56.7c-1.33.92-3,2-3.09,3.78,0,.66.37,1.31.39,2a5.25,5.25,0,0,0,0,1,1.65,1.65,0,0,1,.07,1,4.57,4.57,0,0,1-1.75,2.07,8.43,8.43,0,0,0-1.77,2.17,4.88,4.88,0,0,0-.92,2.54,8.22,8.22,0,0,0,1,2.45c.39.94-.52,2.1-1.21,2.63s-1.31.81-1.9,1.31c-.89.76-2.08,2-1.87,3.31.17,1,1,1.79,1.44,2.69A3,3,0,0,1,19,87.49c-2,1.33-4.72,1.76-5.9,4.09-.91,1.81-.07,3.44.85,5a4.11,4.11,0,0,1,.78,2.59,5.07,5.07,0,0,1-2.24,3,20,20,0,0,0-2.69,2,4.2,4.2,0,0,0-1.09,3.28.05.05,0,1,0,.1,0,5,5,0,0,1,2.73-4.06,9.89,9.89,0,0,0,3.22-2.88c1.39-2.19-.68-4-1.44-5.95a3.69,3.69,0,0,1,1.05-4c1.2-1.11,2.93-1.62,4.34-2.41a3.69,3.69,0,0,0,2.19-2.76,4.26,4.26,0,0,0-1-3,2.45,2.45,0,0,1-.52-2.53,7.63,7.63,0,0,1,3-3,3.94,3.94,0,0,0,1.81-2.48A1.84,1.84,0,0,0,23.81,73a3.39,3.39,0,0,1-.53-2.77,8.87,8.87,0,0,1,3-4c.61-.5,1.56-1.45,1.38-2.35s-.2-2-.49-3c-.52-1.75,1.76-3.11,2.88-4C30.11,56.79,30,56.62,29.87,56.7Zm16-24.84a28.19,28.19,0,0,0-7,6.77c-1.54,2.08-2.67,4.41-4,6.6A68.66,68.66,0,0,0,31,51.66c-.57,1.18-1.68,3.28-.8,4.57a.18.18,0,0,0,.3-.18,2.56,2.56,0,0,1,0-2,16,16,0,0,1,1.28-2.94c1.06-2,2.31-4,3.53-5.91S37.67,41,39,39.06A33.91,33.91,0,0,1,45.91,32,.08.08,0,0,0,45.82,31.86ZM87.38,2.65a19.31,19.31,0,0,0-5-.32A19.44,19.44,0,0,1,77,1.44,16.54,16.54,0,0,0,71.75.5,10.75,10.75,0,0,0,67,2,11.91,11.91,0,0,0,63.27,5.3a20.12,20.12,0,0,0-1.05,1.8,3.3,3.3,0,0,1-1.87,1.5c-.32,0-.64,0-.94,0a12.22,12.22,0,0,0-5.15.84c-3.55,1.63-3.24,6.13-6,8.38a10,10,0,0,0-4.48,3.74,17.85,17.85,0,0,0-1.56,3.31c-.68,1.55-1.54,3-2.31,4.52a12.82,12.82,0,0,0-1.55,4.24c-.2,1.84.16,3.71-.17,5.53,0,.06.09.09.1,0a23.5,23.5,0,0,0,.37-4.1,11.72,11.72,0,0,1,1.3-4.7c.6-1.27,1.31-2.5,2-3.75s1-2.48,1.63-3.69a10.31,10.31,0,0,1,4.38-4.46,5.09,5.09,0,0,1,2.81-.61A4.17,4.17,0,0,1,53.66,20a.06.06,0,1,0,.1-.06,4.28,4.28,0,0,0-4.82-2.33l-.21.06a8.29,8.29,0,0,0,2.05-2.85c.73-1.52,1.27-3.13,2.6-4.25s3.35-1.29,5-1.43,3.8-.19,5.05,1.11c.12.12.33,0,.23-.17a3.87,3.87,0,0,0-2.72-1.37A3.86,3.86,0,0,0,62.77,7a13.89,13.89,0,0,1,3.06-3.64,11.09,11.09,0,0,1,5-2.26,13,13,0,0,1,5.59.65,25.7,25.7,0,0,0,4.41.88c1.79.15,3.57-.12,5.36.13A10,10,0,0,1,94,8.21a.12.12,0,0,0,.22-.1C93.12,5.19,90.28,3.38,87.38,2.65ZM121.6,28.24a5.34,5.34,0,0,0-1-2.16,4,4,0,0,0-2.08-1.26c-1-.36-2-.86-1.75-2.12.09-.47.25-1.06-.12-1.47s-.68-.4-.55-.78a6.13,6.13,0,0,0,.28-1.27,9.05,9.05,0,0,0-.06-2.65c-.24-1.49-.9-3.33-2.41-3.93-.79-.31-1.62-.41-2.42-.65-1.2-.37-.6-1.71-1.24-2.48a11.57,11.57,0,0,0-9.92-3.67,10.79,10.79,0,0,0-5.26,2c-.1.08,0,.25.1.17a11.65,11.65,0,0,1,14.46,1.44c.8.79.27,2.19,1.37,2.75s2.15.44,3.13,1c1.14.62,1.6,2.3,1.84,3.47a7.78,7.78,0,0,1-.25,4.14.16.16,0,0,0,.06.14c1.55.76.28,1.66.75,2.77.41.95,1.46,1.22,2.34,1.54,3.14,1.14,3,5.59,1.44,8-.09.14.13.26.22.13A6.66,6.66,0,0,0,121.6,28.24Zm11,22.41c-2-3-5.16-4.86-7.19-7.79a19.87,19.87,0,0,1-1.93-4.78,7.31,7.31,0,0,0-2.75-3.59s-.13,0-.07.1a8,8,0,0,1,2.68,4.2A16.93,16.93,0,0,0,125,43.1c1.81,2.91,5,4.62,7,7.44a36.59,36.59,0,0,1,4.48,9c1.05,3.14,1.62,6.72.49,9.92-.07.18.22.26.29.08,1.12-3.11.62-6.52-.29-9.61A36.17,36.17,0,0,0,132.58,50.65Zm21.07,78.64c-.46-1.18-1.77-1.71-2.76-2.33-1.64-1-1.5-2.62-.22-3.89,1-1,2.15-1.81,2.56-3.24a6.33,6.33,0,0,0-1.09-5,5.65,5.65,0,0,0-3.44-2.2c-1.28-.36-2.92-.63-3.41-2.07a4,4,0,0,1,.33-2.86,15.42,15.42,0,0,1,1.56-2,5,5,0,0,0,.14-6c-1.21-1.42-3.19-2.09-4.1-3.77-1.59-2.94,2.14-5.24,2.77-7.78.38-1.52-.52-2.66-1.73-3.43a7.68,7.68,0,0,1-2.16-1.67,4.06,4.06,0,0,1-.4-3.48c.28-1.06.82-2,1.05-3.1a5.53,5.53,0,0,0-.17-2.88c-.67-1.89-2.71-3-4.4-3.82-.11-.06-.21.11-.1.17,1.74.89,3.64,2,4.33,3.91s-.36,3.84-.85,5.69a4.12,4.12,0,0,0,1.13,4.3c1.45,1.26,3.54,1.86,3.09,4.25-.32,1.72-1.92,2.82-2.56,4.38a4.48,4.48,0,0,0-.33,3c.51,1.71,2.43,2.6,3.69,3.68a4.23,4.23,0,0,1,1.53,2.47,5.8,5.8,0,0,1-1.44,4.42,8.37,8.37,0,0,0-1.35,1.68,4.44,4.44,0,0,0-.39,2.36,2.69,2.69,0,0,0,1.88,2.23c1.27.53,2.7.61,3.87,1.39a6,6,0,0,1,2.27,6c-.5,2.23-5.16,4-3.18,6.64.7.94,2,1.3,2.86,2,2,1.64.66,4.13-.64,5.72-.12.14.09.35.21.2C153.44,132.84,154.41,131.25,153.65,129.29Z"/><path class="cls-6" d="M29.17,180.81A22.1,22.1,0,0,0,49.36,167.4c6.43-14.07,4.29-34.69,4.29-34.69l45.28,7.53s-5.81,27.48,24.48,37.3c0,0-9.18.66-23,7.53,0,0-20.5,6.54-41.61,1.3C58.85,186.37,39,180.81,29.17,180.81Z"/><path class="cls-7" d="M104.19,180.08c4.23-3.93-3.27-5.89-2.5-10.69,1-6.33,10.58-4.36,9.23-10.69-.57-2.62-2.88-3.93-2.3-7,.76-3.93,3.84-3.27,6-5.24,4-3.49-1.54-5.23-2.5-8.72-.58-3.28,1.34-5.24,3.27-6.77l.26-.17.12-.48.33.19.19-.12-.52-.07a3.18,3.18,0,0,0,1.8-1.88c0-.13,0-.26.08-.39.19-2.18-2.72-4.72-3.42-6.46a8.54,8.54,0,0,1,.39-7.2c.57-1.52,3.08-2.83,3.08-4.79.19-5.24-7.89-5-3.85-11.35.54-.82,1.77-.48,2.07-1.73.56.47,1.12,1,1.65,1.49a4.53,4.53,0,0,0-.64,2c-.58,5.89,7.11,6.32,4.42,13.3-1.35,3.71-2.5,4.15-1.35,8.07,1.16,3.5,1.93,5.46-.19,8.51-1.73,2.84-6.15,3.93-3.85,7.86,1.54,2.4,4.24,2.18,2.31,6.32-1.15,2.4-3.84,3.27-5.19,5.24-2.31,3.05-.58,4.8.38,7.85,1.93,6.55-3.07,6.76-6.73,9.38-6.35,4.8,3.27,7.2,1,12.22-1.34,3-6.34,3-6.54,6.54v1.09l-.57-1.09C98.42,181.17,102.65,181.6,104.19,180.08Zm15.89-54-.16,1A3.56,3.56,0,0,0,120.08,126.13Z"/><path class="cls-8" d="M105.15,181a5.07,5.07,0,0,0,2.64-3.09,4.1,4.1,0,0,0-.7-3.1c-.92-1.52-2.66-2.92-2.75-4.92-.11-2.57,3.06-4.08,4.71-4.93a14.55,14.55,0,0,0,3.31-2,4.46,4.46,0,0,0,1.31-3.79c-.15-2-1.2-3.69-1.73-5.57a5,5,0,0,1,1.11-4.54c1-1.42,2.61-2.21,3.82-3.37s2.47-3.29,1.66-4.92c-.54-1.08-1.79-1.66-2.5-2.6a3.75,3.75,0,0,1-.72-3.4,7.65,7.65,0,0,1,2.43-2.82,9.78,9.78,0,0,0,3-4.24c1.17-3.66-2.3-7-1.1-10.7.95-2.93,3.15-5.78,1.43-8.91-1.1-2-3-3.17-4-5.34a5.88,5.88,0,0,1-.27-3.35,4.54,4.54,0,0,1,.58-1.45l.22.21a4.49,4.49,0,0,0-.6,1.5,5.51,5.51,0,0,0,.78,3.9c1.14,1.88,3.1,3.08,3.87,5.25,1.09,3.12-1.09,5.8-1.91,8.6-.59,2,.36,4.07.93,5.93a7.54,7.54,0,0,1,.13,4.85,9.66,9.66,0,0,1-2.68,3.73c-1,.87-2.23,1.71-2.67,3.09-.54,1.66.82,3.23,1.87,4.14A3.6,3.6,0,0,1,119,141.4a6,6,0,0,1-1.65,4.2c-1.16,1.3-2.7,2.06-3.87,3.36a5.57,5.57,0,0,0-1.45,3,6.23,6.23,0,0,0,.65,2.88,13.28,13.28,0,0,1,1.3,5.05c0,2.78-2.28,4.07-4.23,5.08a17,17,0,0,0-3.74,2.33,3.35,3.35,0,0,0-1.33,3.08,6.66,6.66,0,0,0,1.47,2.62,13.43,13.43,0,0,1,1.63,2.52,4.29,4.29,0,0,1-1.7,5.24c-1,.77-2.22,1.25-3.27,2a4,4,0,0,0-1.32,1.43,4.85,4.85,0,0,0-.3,2.21.1.1,0,1,1-.2,0,4.36,4.36,0,0,1,1-3.32A13.07,13.07,0,0,1,105.15,181Z"/><path class="cls-9" d="M115.84,106c-1.23-1.24-3.08-2.29-3.3-4.35A5.69,5.69,0,0,1,113.8,98c.43-.56,1.22-.52,1.7-1a1.13,1.13,0,0,0,.28-.58l.22.19a1.71,1.71,0,0,1-.41.71c-.39.39-1,.45-1.41.74a4.77,4.77,0,0,0-1.23,2.33c-.67,2.41,1.48,3.78,2.87,5s2.79,3.66,1.52,5.78a12.81,12.81,0,0,1-1.65,1.94,7.38,7.38,0,0,0-1.61,3.06,7.93,7.93,0,0,0,1.32,6.94,11.52,11.52,0,0,1,2.31,4c.4,1.64-.74,2.72-1.95,3.29-.11.05-.18-.15-.08-.21a3.46,3.46,0,0,0,1.69-1.82,3,3,0,0,0-.37-2.12,29,29,0,0,0-2.37-3.5,8.55,8.55,0,0,1,.64-9.81c1.08-1.23,2.4-2.24,2.15-4.18A5,5,0,0,0,115.84,106Z"/><path class="cls-10" d="M102.48,180.83a4.61,4.61,0,0,0,2.67-2.33c.49-1.09-.19-2.18-.78-3-1.29-1.76-3.09-3.44-2.82-6s2.1-3.92,4-4.87c1.71-.87,4.25-1.47,5.17-3.54.62-1.38,0-3.06-.62-4.27-.73-1.36-1.62-2.55-1.66-4.22a4.94,4.94,0,0,1,1.65-3.78c1-.88,2.38-1.16,3.51-1.81s2.73-2,2.24-3.66c-.39-1.27-1.62-2.24-2.42-3.17a6.85,6.85,0,0,1-1.42-2.44,5.7,5.7,0,0,1,.56-3.87c1.17-2.3,3.4-3.37,5.32-4.65a4.33,4.33,0,0,0,2.07-2.64c.32-1.5-.48-3.27-1.13-4.52a16.07,16.07,0,0,1-1.34-2.69,7,7,0,0,1,.18-3.71s.08,0,.07,0a6.3,6.3,0,0,0,.53,5,14.24,14.24,0,0,1,1.9,4.41c.65,3.26-2.44,4.51-4.42,5.8a8.09,8.09,0,0,0-3.43,4.29,5.13,5.13,0,0,0,1.39,5c1.37,1.61,3.54,3.41,1.75,5.67-1.91,2.42-5.59,2-6.57,5.47s2.76,5.57,2.3,9c-.28,2.15-2.24,3.06-3.81,3.79-2.06,1-4.54,1.92-5.35,4.53-.68,2.17.42,3.91,1.67,5.43.86,1,2.13,2.27,2,3.84s-1.73,2.73-3,3.24a6.24,6.24,0,0,0-2.21,1.08c-.85.84-.39,2.13.06,3.07,0,0,0,0,0,0-.45-.88-.94-2.11-.32-3A4.76,4.76,0,0,1,102.48,180.83Z"/><path class="cls-11" d="M118.5,98.68c.22-3.49,1.31-8.07,0-12.43s-3.27-12.66-3.27-12.66l-1.47-7.31-4.26-3.6s-1.8-6-2.29-7.19S102.47,54,102.47,54l-1.8-2s-2-3.6-3.11-4.42-5.89.33-5.89.33c-1,.33-4.75-.49-4.75-.49l-4.09-.66-5.07-2L75,48l-3.6,3.93-3.6,6.21s-6.22,2.29-7.85,2.78-1.31,4.26-1.15,6.22-3.27,6.22-3.27,6.22l-6.87-.66L45.86,77.9l-1.64,8.51.49,5.4-1.63,3.93,2.29,5.07-.82,4.2c.22,4.58.43,7.63,2.18,12.21,0,0,3.05,12,7.42,17.45s16.36,15.06,22.68,17,19.2,3.49,25.53-4.15,16.14-23.34,17-31.41S118.28,102.17,118.5,98.68Z"/><path class="cls-12" d="M67.86,111.52c-3-12.74-12-21.53-20.06-19.63a10,10,0,0,0-3.93,1.93l-.79,1.92,2.29,5.07-.82,4.2c.22,4.58.43,7.63,2.18,12.21,0,0,3.05,12,7.42,17.45a39.09,39.09,0,0,0,3.32,3.58,12.21,12.21,0,0,0,1.21-.2C66.76,136.14,70.87,124.27,67.86,111.52Z"/><path class="cls-13" d="M118.5,98.68c.13-2.13.59-4.67.63-7.31-6.55,1.54-12.94,9-15.61,19.1-3.09,11.68-.11,22.77,6.66,26.09,4.54-7.22,8.64-15.34,9.19-20.43C120.25,108.06,118.28,102.17,118.5,98.68Z"/><path class="cls-14" d="M99.52,130.75c0,3.79-4.54,6.87-10.14,6.87s-10.15-3.08-10.15-6.87,4.55-6.88,10.15-6.88S99.52,127,99.52,130.75Z"/><path class="cls-15" d="M55.51,84.94a34,34,0,0,1,4.74-15.71c4.59-7.2,8.19-10.15,8.19-10.15l6.21-6.87s13.75-4.58,21.93-1c0,0,4.58,2.45,5.07,3.11s4.58,3.93,4.58,3.93L110,66,112.61,72l2.62,6.87,1.31,7.53-9.33,2.78L95.43,90.83,76.94,91,60.42,89.84Z"/><path class="cls-16" d="M115.23,73.59l-1.47-7.31-4.26-3.6s-1.8-6-2.29-7.19S102.47,54,102.47,54l-1.8-2s-2-3.6-3.11-4.42-5.89.33-5.89.33c-1,.33-4.75-.49-4.75-.49l-4.09-.66-5.07-2L75,48l-3.6,3.93-3.6,6.21s-6.22,2.29-7.85,2.78-1.31,4.26-1.15,6.22-3.27,6.22-3.27,6.22l-6.87-.66L45.86,77.9l-1.64,8.51.49,5.4-1.63,3.93,1.65,3.65,3.58.11s-1.63-3-.82-4.91a57.06,57.06,0,0,0,2.29-7.53c.49-2.12,1-4.91,2.29-5.72s7.69-2.62,8.84-7.37,1.31-9.16,6-10.63,5.73-1.8,6.88-5.73,4.41-7.69,8.67-8.18,11.94-.65,13.74.66S99,55.81,101,56.47s3.93,2.61,5.08,6.71,4.41,2.94,4.09,5.88-2.13,6.06,2.45,8.51a11.56,11.56,0,0,1,3,8,5.51,5.51,0,0,0,3.57,5.34,16,16,0,0,0-.63-4.68C117.19,81.88,115.23,73.59,115.23,73.59Z"/><path class="cls-17" d="M46.73,117.22s3.05,12,7.42,17.45a61.51,61.51,0,0,0,8.8,8.4,26.27,26.27,0,0,1-8.42-13.63c-3-12.76-8.67-9.82-9.16-25a25.91,25.91,0,0,0-.2-2.6L44.55,105C44.77,109.59,45,112.64,46.73,117.22Z"/><path class="cls-18" d="M90,122.57a3.9,3.9,0,0,1-4-4.09c-.16-4.26,1.07-11,.49-14.16l4.91.08c0,2.1,0,4.21.12,6.3.06,1.24.21,2.46.37,3.69.24,1.71,1.41,3.23,1.37,5A3.08,3.08,0,0,1,90,122.57Z"/><path class="cls-11" d="M85.62,116.84s4.17-2,7.19-.41l-.32-1.23s-4.18-.9-7,.9Z"/><path class="cls-19" d="M81,122a3,3,0,0,0,1.39-2.35c-.18-1.44-1.86-.18-2.33.36C79.17,121,79.2,123.18,81,122Z"/><path class="cls-20" d="M96.25,121.81a3.36,3.36,0,0,1-1-2.36c.14-1.44,1.32-.17,1.65.37C97.52,120.79,97.49,123,96.25,121.81Z"/><path class="cls-21" d="M79.89,123.55a9.56,9.56,0,0,1,4.74-1.23c2.38.16,3.44,2.05,5.89,1.55A5.16,5.16,0,0,0,94,121.58s2.86,0,3.19,1.48a4.2,4.2,0,0,1-1.8,1.88,5.88,5.88,0,0,1-6,4c-4.91,0-8.67-4.26-8.67-4.26Z"/><path d="M82.75,123.55a5.38,5.38,0,0,1,3.44.32S84.06,125,82.75,123.55Z"/><path d="M94,123.3a3.34,3.34,0,0,1,1.8.25A1.14,1.14,0,0,1,94,123.3Z"/><path class="cls-22" d="M51.91,96.39s-3.93-5.89,2-10.31c0,0,3.11-3.93,10.48-1.64s14.88,4.75,14.88,4.75,2,8.84-3.76,11.29l-8,.33-7.52-2.13L56,98l-2.13-.5Z"/><path class="cls-23" d="M96.9,100.48s-3.1-6.55-1.14-11l5.56-2.46,5.24-1.8s5.56-3.43,9.65,0l2,3.44s.17,7.85-4.58,8.83a97.43,97.43,0,0,0-10,2.79l-4.91.32Z"/><path class="cls-24" d="M44.54,105a56.45,56.45,0,0,0,.56,6.49,30.39,30.39,0,0,0,.72,3.14c.25.89.65,1.75.88,2.63.49,1.93,1.09,3.84,1.73,5.73a52,52,0,0,0,4,9.35,30.86,30.86,0,0,0,5.91,6.89A86,86,0,0,0,67,146.3a44.2,44.2,0,0,0,8.51,5,29.82,29.82,0,0,0,8.14,1.86,29.76,29.76,0,0,0,10.09-.48,16,16,0,0,0,8.54-4.92,81.63,81.63,0,0,0,6.08-8.23c2.2-3.3,4.26-6.7,6.12-10.2a56.56,56.56,0,0,0,4.18-9.54,30.13,30.13,0,0,0,.93-11.11c-.13-1.85-.38-3.68-.63-5.52a26.66,26.66,0,0,1-.36-4.37c.09-2.21.5-4.4.61-6.61a19.89,19.89,0,0,0-.81-6.69c-1-3.26-1.78-6.56-2.59-9.85-.17-.7-.35-1.4-.52-2.1,0-.11-.19-.07-.17.05.55,2.29,1.1,4.58,1.67,6.87.44,1.7.88,3.4,1.37,5.1a21.06,21.06,0,0,1,.76,7.2c-.12,2.11-.54,4.2-.58,6.31a25.24,25.24,0,0,0,.38,4.16,52.5,52.5,0,0,1,.49,13,30.64,30.64,0,0,1-3,9.1,98.57,98.57,0,0,1-5.62,10.29c-2,3.19-4.09,6.31-6.35,9.31a29,29,0,0,1-3.29,3.87,15,15,0,0,1-4.69,2.85c-6,2.39-13.32,1.76-19.41-.11A32.6,32.6,0,0,1,68.43,147a85.64,85.64,0,0,1-9.13-7.19A35.06,35.06,0,0,1,53,133a45.62,45.62,0,0,1-4.37-9.62c-.69-2-1.33-4-1.87-6-.16-.63-.44-1.23-.65-1.85a29.1,29.1,0,0,1-.89-3.45,48.25,48.25,0,0,1-.69-7s0,0,0,0Z"/><path class="cls-25" d="M79.26,122c-.1-1.46,1.75-2.15,2-3.53a.07.07,0,0,0-.12,0c-.74,1.43-2.45,2.22-2.26,4s2.21,2.52,3.61,3.26c0,0,.08,0,0-.07C81.23,124.73,79.39,123.78,79.26,122Zm2.25,2.16s0,.06,0,0c1.71-1.34,3.73-.55,5.53,0,.07,0,.11-.09.05-.12C85.53,123.1,83,122.9,81.51,124.18Zm14.62-.7a3,3,0,0,0-3.11.09,3.59,3.59,0,0,0,.17-.34s-.06-.07-.09,0a4.49,4.49,0,0,1-5.81,1.1c-.09,0-.16.08-.08.13,1.79,1.06,4.5,1.18,5.7-.67a3.76,3.76,0,0,1,3.15-.13A.08.08,0,0,0,96.13,123.48Zm1.28-2.85a11,11,0,0,0-.76-2,.09.09,0,0,0-.16,0,5.75,5.75,0,0,0,.43,1.56,9.91,9.91,0,0,1,.36,1.5c.26,1.46-.86,2.47-2,3.11-.06,0,0,.12.05.09,1.18-.52,2.26-1.12,2.41-2.51A4.11,4.11,0,0,0,97.41,120.63Zm-3.62,1.28s0,0,0,0a4.61,4.61,0,0,0,0-3.86c-.31-.86-.67-1.71-.93-2.59a12.39,12.39,0,0,1-.37-3.69s-.06,0-.06,0a11.33,11.33,0,0,0,.73,5.58C93.74,118.84,94.5,120.33,93.79,121.91Z"/><path class="cls-26" d="M153.41,132.06c-.66-4.15-4.8-3.49-7.42-5.46-3.27-2.4-.87-4.36-1.31-7.41-.87-4.15-3.71-5-7-6.11-3.93-1.53-2.18-1.31-2.18-5,0-4.36-1.75-3.71-4.58-5-5.68-2.61,2.18-9.38-3.06-14.39L127,88c-1.53-1.31-3.93-2.4-4.36-4.58-.44-2.4,2-4.37.43-7.2-1.52-3.27-5-2.18-7-4.14-2.4-2.19.22-4.15-.87-6.77-1.31-2.83-4.15-1.74-5.24-5-.65-2.62.44-4.59-2.83-6.33-1.31-.66-3.27,0-4.58-.88s-1.75-3-2.62-4.14c-3.49-5.67-5.67-.65-10.26-1.31l-1.09.22c-1.3-1.31-3.27-.44-5-1.31-2.19-1.09-3.71-4.8-7.2-3.49-1.53.65-1.53,2-2.18,3.27-1.09,2-.88,2-2.62,3.49-2,1.31-2,1.1-3.06,3.06-.87,1.53-1.3,3.49-2.83,4.8-2,2-5,1.09-6.76,3-2.62,3.49.65,10.25-5.24,10.69-4.8.44-8.07-2.18-9.16,5-.44,2.83.65,5-2.84,6.32-3.05,1.31-5.89-.43-8.29,3.06-2.18,3-.22,8.72-3.27,11.12-4.58,3.93-10.91.66-12.22,8.73-.43,2.84,1.75,8.51-2.61,9.38-2.62.65-6.77-4.15-6.55-7-1.09,3.93,7.42,8.72.66,12.22l-1.31.65c-1.53.87-3.93,2.62-4.15,4.58-.22,3.27,3.71,3.06,4.36,5.67C9.64,136-2.14,135.55,4.19,143c2,2.19,5.67,2.62,3.27,6.11-1.52,2.62-5,2.18-6.32,5.24-3.28,7,9.59,7.63,2.18,13.3-2.84,2.18-3.93,2.4-.66,5.68,1.75,1.52,5.24,3.7,1.09,5.23,3.93,0,8.08.66,12,.66a6.21,6.21,0,0,1-3.71-2.4c-1.09-2.4.22-1.75.88-3.71,1.31-4.15.21-3.93-2.4-7-5.24-5.89.21-8.73,3.05-13.53,3.49-6.11-3.05-8.07-3.27-13.31-.22-6.76,10.47-5,5.45-12-1.52-2.19-3.92-4.37-1.09-7,2-1.75,5.67,0,7-2.62,1.31-2-1.09-5-1.09-7.2,0-2.84,1.75-4.58,4.36-5.67C31,102,34.51,101.73,35,94.1c.22-7.42,2.4-8.51,8.94-6.33v1.31c.22,2-1.31,1.75-2.18,3-2.4,4.15,1.53,3.71,2,7.42.65,5.89-8.08,6.33-5,13.31,1.52,3.71,2.83,4.14,1.52,8.07-1.3,3.49-2.18,5.45.22,8.51,2,2.83,7,3.93,4.37,7.85-1.75,2.4-4.8,2.18-2.62,6.33,1.31,2.4,4.36,3.27,5.89,5.23,2.62,3.06.65,4.8-.44,7.86-2.18,6.54,3.49,6.76,7.64,9.38,7.2,4.8-3.71,7.2-1.09,12.21,1.52,3.06,7.2,3.06,7.41,6.55v1.09l.66-1.09c2.4-4.15-2.4-3.71-4.15-5.24-4.8-3.92,3.71-5.89,2.84-10.69-1.09-6.32-12-4.36-10.47-10.69.65-2.61,3.27-3.92,2.62-7-.88-3.92-4.37-3.27-6.77-5.23-4.58-3.49,1.75-5.24,2.84-8.73.65-3.27-1.53-5.23-3.71-6.76l-.3-.18-.14-.48-.37.19-.22-.12.59-.07a3.4,3.4,0,0,1-2-1.88c0-.13-.06-.26-.08-.39-.22-2.18,3.08-4.71,3.87-6.45a7.65,7.65,0,0,0-.44-7.2c-.65-1.53-3.49-2.84-3.49-4.8-.22-5.24,9-5,4.37-11.34-.66-.88-2.19-.44-2.4-2-.22-1.74,2-1.52,2.4-2.83,1.74-3.49-.88-2.84-1.75-5.89h1.09c3.06-.22,3.71-2.84,3.49-5.67-2.62,0-2.18-3.06-1.31-4.8,2.18-5,2.84-.44,6.11-.22,6.11.65,5.24-7,4.8-10.26-1.09-8.94,6.76-2.39,10.91-5.88,2.4-1.75,2.18-3.71,2.62-5.89.21-2.19-1.31-.88.65-2.84.44-.44,2,.22,3-.87.88-1.53-1.09-3.28,1.1-4.15,1.52-.87,3.27,1.53,4.79,2,1.53.22,2.84-.87,5,0l1.53-.43a4.67,4.67,0,0,1,1.53.65c1.74.22,2-.65,3.7-.65,4.59-.22,4.15,2.18,5.46,5.23,1.74,3.71,2.4.22,5.45,2.19,3.06,1.74.44,3.92.87,6.54.66,3.27,4.37,1.75,5.24,5.24.65,2.4-2.4,4.14-1.31,6.54,1.09,3,4.15,1.09,6.33,2.62,3,2.18,0,4.58.43,7.41.4,2.59,2.07,3.41,4,3.91l0,0c2.62,2.18,7.2,5.89,7,9.6-.22,2.18-2.4,3.71-1.74,6.11.87,3.71,3.7,2,5.89,3.49,3.49,2.4,0,8.29,3.92,11.12,2.4,1.75,5.46.66,7.2,3.93.87,2,.66,3.71,2,5.67,2.4,3.71,2,4.37.65,8.29-1.53,5.46,1.75,3.27,3.71,6.77,2,3.27-2.18,2.83-3.49,5-2.4,3.93,3,5.24,3.27,8.29.44,3.71-4.36,3.93-4.36,7,.22,3.71,3.92,2.62,1.31,6.55-1.53,2.18-3.93,3-3.06,6.11.87,2.61,4.15,2.61,7,3.27a9.21,9.21,0,0,1-3.49-5.46c-.43-3.71,1.53-2.83,3.49-5,3.71-4.8-5.67-3.28-1.09-8.51,1.75-2.18,2.62-2,2.62-5,0-2.83-2.18-3.49-2.62-5.67-.65-2.84,3.71-3.49,2.84-6.54-.66-2.19-4.8-1.53-4.36-4.15C148,135.76,153.84,136.64,153.41,132.06ZM40.24,126.62a3.21,3.21,0,0,1-.19-1Z"/><path class="cls-27" d="M60,180.36A5.07,5.07,0,0,1,57,178c-.55-1.08.22-2.17.9-3,1.45-1.75,3.49-3.43,3.19-6s-2.38-3.91-4.49-4.86c-1.94-.88-4.83-1.47-5.87-3.54-.7-1.39,0-3.06.7-4.27s1.85-2.55,1.89-4.22a4.72,4.72,0,0,0-1.87-3.79c-1.17-.87-2.7-1.15-4-1.8s-3.1-2-2.54-3.66c.44-1.28,1.84-2.24,2.74-3.18a6.63,6.63,0,0,0,1.61-2.43,5.06,5.06,0,0,0-.64-3.87c-1.33-2.31-3.85-3.38-6-4.66a4.43,4.43,0,0,1-2.34-2.63c-.36-1.5.54-3.27,1.27-4.53A14.87,14.87,0,0,0,43,119a6.16,6.16,0,0,0-.2-3.7s-.09,0-.08,0a5.66,5.66,0,0,1-.59,5A13.09,13.09,0,0,0,40,124.65c-.74,3.25,2.76,4.5,5,5.79a8.39,8.39,0,0,1,3.89,4.29c.65,2-.23,3.58-1.58,5-1.55,1.6-4,3.41-2,5.66,2.17,2.42,6.34,2,7.45,5.47s-3.13,5.58-2.61,9c.32,2.16,2.55,3.06,4.33,3.79,2.33,1,5.14,1.93,6.06,4.54.77,2.17-.48,3.91-1.9,5.43-1,1-2.41,2.26-2.27,3.83s2,2.73,3.37,3.24a7.53,7.53,0,0,1,2.5,1.08c1,.84.44,2.13-.07,3.07,0,0,0,0,0,0,.5-.87,1.06-2.1.36-3A5.49,5.49,0,0,0,60,180.36ZM44.89,105c-1.72,1.38-3.17,3.66-1.72,5.78A12.57,12.57,0,0,0,45,112.72a7.35,7.35,0,0,1,1.83,3.07,7.2,7.2,0,0,1-1.5,6.93,11.5,11.5,0,0,0-2.62,4c-.45,1.64.84,2.73,2.21,3.3.13,0,.21-.15.09-.22A3.65,3.65,0,0,1,43.13,128a2.65,2.65,0,0,1,.41-2.11,28.38,28.38,0,0,1,2.7-3.5,7.76,7.76,0,0,0-.74-9.81c-1.22-1.23-2.72-2.24-2.43-4.18a4.86,4.86,0,0,1,1.79-2.81c1.39-1.24,3.5-2.29,3.74-4.34a5.22,5.22,0,0,0-1.43-3.62c-.48-.57-1.38-.53-1.92-1a1.31,1.31,0,0,1,0-1.77,3.91,3.91,0,0,1,1-.62,3.52,3.52,0,0,0,1.65-3.52A2.85,2.85,0,0,0,47,89.36a5.92,5.92,0,0,1-1.43-2.28.13.13,0,0,0-.26.07,4.65,4.65,0,0,0,.89,1.76,14.75,14.75,0,0,1,1.21,1.41,2.58,2.58,0,0,1-.23,2.36,3.28,3.28,0,0,1-1.65,1.53,1.63,1.63,0,0,0-.36,2.67c.43.4,1.1.46,1.59.74a4.62,4.62,0,0,1,1.4,2.33C48.9,102.37,46.47,103.74,44.89,105ZM87.78,48.35a5,5,0,0,0-2.52-.28c-1,.15-2,.58-3,.12-1.16-.55-2.47-2.25-3.9-1.95a2.38,2.38,0,0,0-1.51,1,2.54,2.54,0,0,0,0,1.72,3.06,3.06,0,0,1,0,1.38c-.18.73-1.2.88-1.8.92s-1.1,0-1.59.44c-.25.25-.81.67-.85,1.08s.27.54.34.8a7.45,7.45,0,0,1-.28,2.72,6.34,6.34,0,0,1-1,2.69c-1.8,2.59-4.76,2.38-7.52,2.13-1.81-.17-3.91-.25-4.63,1.78a9.24,9.24,0,0,0-.08,4,25.55,25.55,0,0,1,.19,3.71,8.32,8.32,0,0,1-.86,3.83,3.62,3.62,0,0,1-3.38,1.79,5.64,5.64,0,0,1-3.61-1.59c-.69-.53-1.39-.73-2.07-.08A7.62,7.62,0,0,0,48,78,3.41,3.41,0,0,0,48.38,81a1.83,1.83,0,0,0,1.22.58c.58,0,.32,1.53.27,2a3.65,3.65,0,0,1-3.36,3.52c-.06,0-.07.1,0,.1,3.11-.26,3.74-3.06,3.63-5.72a.15.15,0,0,0-.14-.14c-2.13-.14-2-2.31-1.46-3.85.33-1,1.25-3.57,2.64-2.73,1,.61,1.71,1.47,2.88,1.82a5,5,0,0,0,3.76-.4C59.94,75,60.21,72,60.18,69.8a28.86,28.86,0,0,0-.31-3.47c-.19-1.3-.41-3.07.5-4.17a3.33,3.33,0,0,1,2.72-.79c1.16,0,2.3.19,3.46.21a6.06,6.06,0,0,0,6.15-4,15.67,15.67,0,0,0,.45-2.46,3.22,3.22,0,0,0,0-1.87,2.77,2.77,0,0,0-.22-.37c-.12-.17.31-.53.41-.63a1.51,1.51,0,0,1,1.17-.68,9.08,9.08,0,0,0,1.17-.09c1.83-.31,1.48-1.88,1.31-3.24a1.63,1.63,0,0,1,2.07-1.66A8.06,8.06,0,0,1,81.48,48a2.92,2.92,0,0,0,2.25.62,7.33,7.33,0,0,1,4,0C87.89,48.73,88,48.42,87.78,48.35Zm-4.4-2.07c-1.26-.74-2.13-2-3.33-2.87a3.79,3.79,0,0,0-3.94-.35,3,3,0,0,0-1.35,1.6c-.37.88-.72,1.73-1.16,2.58a8.87,8.87,0,0,1-3.28,3.27A7.22,7.22,0,0,0,68,53.64c-1,2-1.8,4.11-4.09,5-1.6.61-3.37.57-4.75,1.69a5.48,5.48,0,0,0-1.46,3.5c-.18,1.35-.16,2.72-.39,4.06A3.65,3.65,0,0,1,55.13,71a10.6,10.6,0,0,1-4.42.21c-2.17-.16-4.28-.3-5.44,1.88a11.13,11.13,0,0,0-1.08,4.72c-.06,1.56.06,3.13-1.36,4.14-1.6,1.13-3.56,1.09-5.41,1.28a5.52,5.52,0,0,0-4,2.25c-2.1,2.74-.94,6.57-2.1,9.64s-5,3.63-7.69,4.3a8.88,8.88,0,0,0-3.32,1.4,6.26,6.26,0,0,0-2.1,3.22,12.9,12.9,0,0,0-.28,5.14c.13,1.65.3,3.72-1,5-1.64,1.6-3.8.53-5.21-.74s-2.91-3.34-2.81-5.35a.12.12,0,0,0-.24,0c-.5,2,1.1,4,2.07,5.65A6.84,6.84,0,0,1,11.94,117c0,1.55-1.35,2.55-2.58,3.19-.14.08,0,.3.13.23a4.84,4.84,0,0,0,2.57-2.58,4.05,4.05,0,0,0-.38-2.83c-.66-1.5-2.14-3.14-2.68-4.86a9.36,9.36,0,0,0,4.36,4.75,3.36,3.36,0,0,0,3.33-.24,3.73,3.73,0,0,0,1.49-2.87,24,24,0,0,0-.15-4.32,8.91,8.91,0,0,1,1-4.76c1.4-2.62,4.42-2.92,7-3.59a11,11,0,0,0,3.77-1.68A5.52,5.52,0,0,0,32,93.91c.76-3.41-.18-7.93,3.64-9.77,1.54-.75,3.43-.44,5.07-.81a4.89,4.89,0,0,0,3.59-2.46c.52-1.24.29-2.73.42-4,.15-1.55.52-3.49,1.71-4.6a4.17,4.17,0,0,1,3.1-.72,31.23,31.23,0,0,0,4,.08A4.24,4.24,0,0,0,56.7,70.2a6.25,6.25,0,0,0,1-3.23,33.2,33.2,0,0,1,.46-4.22A5.89,5.89,0,0,1,59,60.91a4.63,4.63,0,0,1,2.89-1.5c1.86-.44,3.38-.87,4.65-2.4s1.7-3.4,2.67-5a5.11,5.11,0,0,1,1.71-1.59,8.89,8.89,0,0,0,2.24-2,11.79,11.79,0,0,0,1.29-2.3c.59-1.24.76-2.57,2.24-3.08,2.37-.81,4,1.13,5.53,2.56A5.13,5.13,0,0,0,84.53,47c1.38.31,2.88-.12,4,.91.06.05.15,0,.09-.1C87.2,46.45,85,47.25,83.38,46.28ZM43.85,87.94c.21.07.3-.27.09-.33-2.08-.69-5.11-1.78-7.11-.33s-1.92,5-2.08,7.32a11.12,11.12,0,0,1-1.3,4.82A7.45,7.45,0,0,1,30.61,102a38.66,38.66,0,0,1-4,1.85A14.84,14.84,0,0,0,22,106.41a5.57,5.57,0,0,0-1.64,4.23c.05,1.73,1.13,3.32,1.43,5a3,3,0,0,1-.86,2.66,4,4,0,0,1-2.57.83c-1.48.13-2.94.15-4.07,1.25-3,2.92,1,5.89,2.26,8.53a2.71,2.71,0,0,1-.21,3A9.09,9.09,0,0,1,14,133.68c-1.76,1.09-3.53,2.4-3.81,4.61-.36,2.94,1.56,5.12,3,7.42a6.29,6.29,0,0,1,1.18,4.08c-.2,2-1.56,3.72-2.75,5.24-1.84,2.33-4.22,4.84-3.2,8,.62,1.93,2.22,3.43,3.58,4.86a4.69,4.69,0,0,1,1.19,1.67,4.78,4.78,0,0,1-.21,2.67,5.62,5.62,0,0,1-1.24,2.32,1.38,1.38,0,0,0-.22,1.3A4.85,4.85,0,0,0,14.85,179c-3.52-.09-7-.56-10.54-.63.92-.42,1.81-1.1,1.39-2.22s-1.88-2.08-2.83-2.88A8.7,8.7,0,0,1,1,171.09a1.37,1.37,0,0,1,.39-1.81c1.11-1.08,2.52-1.79,3.55-3a2.79,2.79,0,0,0-.17-4.05c-1.3-1.46-3.12-2.54-3.82-4.46a4.66,4.66,0,0,1,.4-3.63c.76-1.67,2.54-2.28,4.05-3.08a5.8,5.8,0,0,0,2.89-3.35,2.43,2.43,0,0,0-1.18-2.67,14.7,14.7,0,0,1-3.68-3.31,4.12,4.12,0,0,1-.88-3.34c.51-1.82,2.8-2.75,4.2-3.76a4.39,4.39,0,0,0,1.71-2,3,3,0,0,0-.94-3c-1.15-1.09-2.93-1.53-3.37-3.23C3.52,124,6.4,122,8.14,121c0,0,0-.1,0-.08-2.21,1.24-5.86,4.12-3.49,6.86.85,1,2.19,1.41,3.06,2.39a2.55,2.55,0,0,1,.24,3.06c-1,1.55-3,2.24-4.41,3.43C2,138,1.93,139.7,2.91,141.43A9.69,9.69,0,0,0,6,144.59a8.56,8.56,0,0,1,1.64,1.29,2.1,2.1,0,0,1,.11,2.5c-.87,1.73-2.38,2.42-4,3.25a5.67,5.67,0,0,0-2.91,3.1A4.88,4.88,0,0,0,2.13,160c1.09,1.18,3.22,2.39,3.4,4.15.14,1.28-1.1,2.36-2,3.09s-2.89,1.66-3,3a2.39,2.39,0,0,0,.66,1.53,13.93,13.93,0,0,0,2.19,2.22,9.21,9.21,0,0,1,1.89,1.85c.89,1.29-.47,2.09-1.55,2.51a.12.12,0,0,0,0,.23c4,0,8,.63,12,.65.13,0,.16-.2,0-.22a6.41,6.41,0,0,1-2.94-1.53c-.65-.57-1.49-1.86-.92-2.73a9.34,9.34,0,0,0,1-1.47,9.63,9.63,0,0,0,.62-2.47A3.43,3.43,0,0,0,12.46,168c-1.41-1.54-3-3-3.75-5-1.26-3.53,2.25-6.52,4.1-9.07a8.78,8.78,0,0,0,1.9-4.5,6.3,6.3,0,0,0-1.06-3.57c-1.49-2.51-3.78-4.8-3.1-8,.51-2.34,2.82-3.43,4.64-4.62,1.61-1.06,2.48-2.39,1.71-4.3-.63-1.55-1.86-2.76-2.73-4.16a3.38,3.38,0,0,1-.55-2.8,3.59,3.59,0,0,1,2.54-2.3c1.46-.38,3-.08,4.43-.75a3.2,3.2,0,0,0,1.54-3.38c-.26-1.84-1.45-3.45-1.42-5.35a5.61,5.61,0,0,1,3.06-4.69c2.64-1.56,5.79-2.17,8.26-4,2.31-1.77,2.92-4.62,3.09-7.38.13-2.12,0-5.3,2.06-6.65C39.05,86.21,42,87.32,43.85,87.94ZM57,180.56a5.34,5.34,0,0,1-3-3.09,3.75,3.75,0,0,1,.79-3.1c1-1.53,3-2.93,3.13-4.92.13-2.58-3.47-4.08-5.35-4.94a17,17,0,0,1-3.75-2,4.17,4.17,0,0,1-1.49-3.78c.17-2,1.36-3.69,2-5.57s-.17-3.19-1.27-4.54-3-2.21-4.33-3.38c-1.21-1-2.8-3.29-1.88-4.92.61-1.08,2-1.66,2.84-2.6a3.4,3.4,0,0,0,.81-3.39,7.93,7.93,0,0,0-2.75-2.83,9.75,9.75,0,0,1-3.41-4.24c-1.33-3.65,2.6-7,1.24-10.69-1.08-2.93-3.57-5.78-1.62-8.92,1.24-2,3.46-3.17,4.48-5.33a5.25,5.25,0,0,0,.31-3.36,6.62,6.62,0,0,0-1.86-2.86A3.05,3.05,0,0,1,42,91.91c.42-.5,1.06-.77,1.51-1.24a1.89,1.89,0,0,0,.38-1.59,0,0,0,0,0-.08,0c0,1.09-.45,1.53-1.28,2.08a3.84,3.84,0,0,0-1.41,1.77,2.79,2.79,0,0,0,.23,3c.83,1.08,1.77,1.85,2.08,3.26a4.94,4.94,0,0,1-.88,3.9c-1.28,1.87-3.51,3.07-4.38,5.24-1.24,3.12,1.22,5.8,2.16,8.6.67,2-.41,4.08-1,5.94a6.64,6.64,0,0,0-.15,4.84,9.67,9.67,0,0,0,3,3.73c1.09.87,2.53,1.72,3,3.09.61,1.67-.93,3.23-2.13,4.14-.77.59-1.74,1.21-1.86,2.26a5.62,5.62,0,0,0,1.88,4.21c1.31,1.3,3.06,2.06,4.38,3.36a5.31,5.31,0,0,1,1.65,3,5.61,5.61,0,0,1-.73,2.88A11.94,11.94,0,0,0,47,159.43c0,2.79,2.59,4.08,4.79,5.08A19.86,19.86,0,0,1,56,166.84a3.19,3.19,0,0,1,1.52,3.08,6.57,6.57,0,0,1-1.67,2.62A13.51,13.51,0,0,0,54,175.06c-1,2.08.13,4.09,1.93,5.25,1.18.76,2.52,1.24,3.71,2a4.46,4.46,0,0,1,1.5,1.43,4.31,4.31,0,0,1,.33,2.22.12.12,0,0,0,.23,0,4,4,0,0,0-1.1-3.32A14.69,14.69,0,0,0,57,180.56ZM89.7,47.66a8.49,8.49,0,0,0,4.19-.7c1.25-.48,2.55-1,3.83-.32,1.64.86,2.53,2.92,3.29,4.51a5.28,5.28,0,0,0,1.33,1.9,3.72,3.72,0,0,0,2.28.66,5.72,5.72,0,0,1,3.16.76,3.75,3.75,0,0,1,1.63,2.28c.37,1.51.08,3,.84,4.47s2.06,1.72,3.26,2.4a3.76,3.76,0,0,1,1.73,2.18,6.06,6.06,0,0,1-.22,3,3.65,3.65,0,0,0,2.4,4.29c.92.37,1.89.56,2.82.87a4.65,4.65,0,0,1,2.82,2.57c1.17,2.34-1,4.38-.62,6.71s2.77,3.52,4.47,4.84c.14.11.34-.08.2-.2-1.37-1.23-3.17-2-4-3.75s.42-3.54.65-5.27a4.88,4.88,0,0,0-1.83-4.42c-1.15-.9-2.69-1.06-4-1.53a4.4,4.4,0,0,1-2.26-1.7,3.63,3.63,0,0,1-.14-2.91,4.4,4.4,0,0,0-.93-4.29c-1-1-2.58-1.26-3.59-2.33-1.23-1.32-.93-3.22-1.23-4.85a3.84,3.84,0,0,0-1.4-2.29,4.85,4.85,0,0,0-3.19-1,5.74,5.74,0,0,1-2.28-.39,3.69,3.69,0,0,1-1.44-1.68,29.39,29.39,0,0,0-1.81-3.24c-1-1.46-2.35-2.38-4.15-1.91-2,.5-3.58,1.58-5.73,1.33C89.67,47.6,89.67,47.65,89.7,47.66ZM153,130.44a5.25,5.25,0,0,0-3-2.25,13.14,13.14,0,0,1-4.51-2.19c-1.52-1.36-1-3-.72-4.76a6.57,6.57,0,0,0-.93-4.63c-1.73-2.84-5.25-3-7.9-4.46-1-.56-.56-1.48-.41-2.4a8.06,8.06,0,0,0-.26-4.33c-.62-1.4-2.13-1.65-3.43-2.13a4.73,4.73,0,0,1-2.49-1.69,3.9,3.9,0,0,1-.43-2.49c.17-1.83.83-3.58.95-5.43a6.3,6.3,0,0,0-1.92-5.09c-.06-.06-.17,0-.1.11a6.11,6.11,0,0,1,1.87,4.63,23.83,23.83,0,0,1-.76,4.36,6.68,6.68,0,0,0-.09,3.38,3.82,3.82,0,0,0,2.4,2.23c1.11.46,2.57.66,3.4,1.59,1.07,1.18.83,3.5.59,4.93-.1.65-.47,1.5,0,2.09.64.88,2.29,1.23,3.25,1.56a10.88,10.88,0,0,1,4.45,2.39,6.27,6.27,0,0,1,1.55,5.49c-.22,1.31-.62,2.56,0,3.82A6.31,6.31,0,0,0,148,127.8c1.43.54,3,.87,4.14,2a3.76,3.76,0,0,1,.54,4.64c-.7,1-2,1.46-3.09,2a3.78,3.78,0,0,0-2.12,1.74c-1.11,2.88,3.18,2.64,4.14,4.43.83,1.53-.63,2.87-1.59,3.85a3.19,3.19,0,0,0-1.15,2.94c.3,1.5,1.57,2.47,2.22,3.79a4.79,4.79,0,0,1-.63,5c-1.1,1.19-3.92,3.49-2.51,5.35.6.8,1.61,1.16,2.32,1.83,1.33,1.23-.06,3-1.15,3.83-.61.47-1.33.77-1.93,1.26a2.67,2.67,0,0,0-.79,2.06,8.35,8.35,0,0,0,3.17,6.21,16.33,16.33,0,0,1-4.83-1.27,3.39,3.39,0,0,1-.79-5.19c1.28-1.6,4.67-4.11,2.56-6.28-1-1-1.88-2.27-1.38-3.8.41-1.24,1.83-2,2.76-2.79a3.79,3.79,0,0,0,1.47-3.13,4.66,4.66,0,0,0-1.57-3c-.92-1-2.12-1.95-2.31-3.36-.22-1.66,1.09-2.88,2.41-3.58.83-.43,1.95-.84,2.18-1.85s-.84-2.5-1.62-3.2-1.81-.94-2.52-1.65c-1.16-1.17-.07-3.63.35-4.88a7,7,0,0,0,.49-4.08,8.8,8.8,0,0,0-1-2.11,13.8,13.8,0,0,1-1.67-3.51c-.47-1.86-.75-3.65-2.38-4.86-1.25-.93-2.93-1-4.36-1.51a5,5,0,0,1-3.3-4.13c-.26-1.58-.09-3.21-.33-4.8a4.13,4.13,0,0,0-2.16-3.19c-1.22-.64-2.67-.38-3.91-1a3,3,0,0,1-1.45-2.18,4.42,4.42,0,0,1,.63-3.22c.79-1.51,1.38-2.78.93-4.5a10.71,10.71,0,0,0-2.68-4.27A39.4,39.4,0,0,0,121.4,88c2,.44,4.28.66,5.36,2.61a0,0,0,0,0,.06,0c-1.14-2.29-3.95-2.45-6.13-3.07a4.68,4.68,0,0,1-3.16-2.34c-.89-1.83-.07-3.55.41-5.34a3.15,3.15,0,0,0-1.47-3.68c-1.27-.83-2.89-.48-4.3-.77a2.54,2.54,0,0,1-1.85-1.83,3.29,3.29,0,0,1,.46-2.75c.72-1.42,1.34-2.62.73-4.21a4.36,4.36,0,0,0-2.71-2.25,4.75,4.75,0,0,1-1.71-1,3.29,3.29,0,0,1-.56-2.88c.24-1.33,1-2.71.23-4a4.11,4.11,0,0,0-3.61-1.76c-.44,0-.86.2-1.3.24-.76.09-1.19-.68-1.51-1.25-.69-1.26-.89-2.73-1.55-4a3.33,3.33,0,0,0-2.67-1.72,8,8,0,0,0-2.63.06c-.85.18-1.89,1-2.78.48a4.28,4.28,0,0,0-1.44-.58c-.22,0-.22.31,0,.34a4.39,4.39,0,0,1,1.44.63,2.23,2.23,0,0,0,1.06,0c.85-.08,1.59-.57,2.46-.65,1.62-.13,3.39,0,4.24,1.59s1.16,5.88,3.72,5.4a6.37,6.37,0,0,1,1.5-.2,4,4,0,0,1,2.74,1.58,2.85,2.85,0,0,1,.06,2.39A10.84,10.84,0,0,0,106,61.4a3.22,3.22,0,0,0,1.91,3c1.41.7,2.77,1,3.32,2.7s-.87,3.2-1.36,4.78a3.27,3.27,0,0,0,1.35,3.58c1.2.74,2.87.33,4.2.67a3.17,3.17,0,0,1,2.21,2.07,5,5,0,0,1-.43,2.7,5.86,5.86,0,0,0,0,4.45,4.43,4.43,0,0,0,2.51,2.18,8.22,8.22,0,0,0,1.06.34A47.8,47.8,0,0,1,125,91.65c1.36,1.45,2.68,3.25,2.79,5.32.1,1.87-1.54,3.33-1.84,5.12a3.86,3.86,0,0,0,1.54,3.7c1.1.67,2.57.47,3.76.9,1.81.65,2.31,2.5,2.43,4.22a22.79,22.79,0,0,0,.41,4.67,5,5,0,0,0,2.9,3.23c1.47.65,3.13.67,4.53,1.53,2.11,1.3,2,4,2.82,6.08.68,1.82,2.26,3.22,2.39,5.26.12,1.79-.93,3.56-1.3,5.27a3.14,3.14,0,0,0,.46,3c.72.72,1.8,1,2.57,1.68,1.08,1,2.15,2.82.64,3.85-1,.69-2.2,1-3,2a3.34,3.34,0,0,0-.57,3.37,9.67,9.67,0,0,0,2.27,2.79,3.87,3.87,0,0,1,1.22,4c-.43,1.31-1.81,2.08-2.8,2.91a3.26,3.26,0,0,0-1.37,3,4.77,4.77,0,0,0,1.63,2.77c1.26,1.3-.06,3-1,4.1s-2.25,2-2.55,3.57a3.6,3.6,0,0,0,1.76,3.76c1.6,1,3.67,1,5.45,1.43.12,0,.25-.14.13-.23a8.61,8.61,0,0,1-3.49-5.89,2.77,2.77,0,0,1,.6-2.23,9.4,9.4,0,0,1,1.68-1.11c1.44-.94,3-3,1.44-4.54-1.22-1.14-3.3-1.71-2.21-3.77.7-1.33,2-2.2,2.84-3.39a5.35,5.35,0,0,0,.57-4.16c-.35-1.55-1.75-2.52-2.32-4-.66-1.63.39-2.7,1.46-3.78a3.38,3.38,0,0,0,1.29-3c-.24-1.22-1.19-1.72-2.26-2.16-1.27-.52-2.85-1.26-2-2.9.52-1,1.87-1.39,2.8-1.82a5.17,5.17,0,0,0,2.51-2A4,4,0,0,0,153,130.44Z"/><path class="cls-28" d="M71.05,134.13s6.77,6.11,14.29,7.52a20.87,20.87,0,0,0,6.36.09c3-.36,5.74-1.31,7.64-3.77a23.67,23.67,0,0,1,5-5.26l-7,.44H88.4l-9.38.76-5,.76Z"/><path class="cls-29" d="M97.34,133.15H88.4l-9.38.76-5,.76-3-.54a33.6,33.6,0,0,0,2.75,2.16c3-.13,19.71-.85,27.34-.58a17.53,17.53,0,0,1,3.18-3ZM79,139.25l-.29.05a25.22,25.22,0,0,0,6.61,2.35,20.87,20.87,0,0,0,6.36.09c3-.36,5.74-1.31,7.64-3.77,0,0-2.44,2.05-8,2.7S79,139.25,79,139.25Z"/><path class="cls-30" d="M78.8,137.4a101.1,101.1,0,0,1,12-.65,77.41,77.41,0,0,1,8,.43l-.55,1.09a31.24,31.24,0,0,1-8.83,1.86,45.39,45.39,0,0,1-9.71-1.2Z"/><path class="cls-29" d="M94.12,134.18a6.58,6.58,0,0,1-6.05.49h-.66c-6,0-13.08,1.64-18.81-1.47,0,0,3.76,1.31,6.87.49s7-2.62,10-2.78a11.66,11.66,0,0,1,5.07.82,20.7,20.7,0,0,1,4.58-1.31c1.8-.16,3.11,1.15,5.24,1.64a5.89,5.89,0,0,0,4.91-.82,16.68,16.68,0,0,0,1.8-1.47c-1.5,2.79-4.23,4-7.29,4.31-1.65.19-3.33.07-5,.27Z"/><path class="cls-31" d="M87.41,134.64c-6.25-.17-12.93,1.44-18.81-1.45,0,0,0,0,0,0,5.78,3.29,12.55,1.72,18.82,1.49C87.45,134.7,87.45,134.65,87.41,134.64Zm6.69-.55a9.8,9.8,0,0,1-2.94.84,7,7,0,0,1-.79,0c-.17,0-.33.13-.52.13a5.32,5.32,0,0,1-1.78-.42s0,0,0,0a7,7,0,0,0,3.35.69,5.06,5.06,0,0,0,2.77-1.12C94.26,134.19,94.18,134.05,94.1,134.09Zm12.9-4.35a7.91,7.91,0,0,1-2.15,2.35,7.49,7.49,0,0,1-1.16.68c-.36.17-1.06.27-1.31.55s-1,.4-1.46.48a14.78,14.78,0,0,1-2.09.28c-1.35.11-2.7.07-4,.25a0,0,0,0,0,0,0c1.45-.11,2.91-.07,4.36-.14a14.25,14.25,0,0,0,1.6-.19,11.25,11.25,0,0,1,1.79-.33,3.42,3.42,0,0,0,1.16-.47,9.35,9.35,0,0,0,1.36-.89,7.7,7.7,0,0,0,2-2.55C107.13,129.73,107,129.68,107,129.74Z"/><path class="cls-32" d="M51.09,89.68s3.27-5.4,8-5.4,8,2.29,9.65,3.11a35.92,35.92,0,0,0,10.64,2s-1.8-2.78-3-3.27-7-.82-9.65-1.64S53.87,80.68,51.09,89.68Z"/><path class="cls-33" d="M118.5,89.68s-2.63-5.4-6.44-5.4-6.44,2.29-7.76,3.11a23.81,23.81,0,0,1-8.54,2s1.44-2.78,2.36-3.27,5.66-.82,7.76-1.64S116.27,80.68,118.5,89.68Z"/><path class="cls-34" d="M54.08,97.38a8.4,8.4,0,0,1,1.22-2.16,6.9,6.9,0,0,1,1.93-1.72A11.47,11.47,0,0,1,62.1,92a15.55,15.55,0,0,1,9.15,1.75s.08,0,0-.08A10.21,10.21,0,0,0,67.12,92a17.47,17.47,0,0,0-5.54-.27,11,11,0,0,0-4.85,1.57A6.81,6.81,0,0,0,55,94.87a6,6,0,0,0-1,2.49s.06.07.08,0Z"/><path d="M62.11,93.33a12,12,0,0,0-6.87,3.51h0c-2.84,1.08-4.15-2.62-4.15-2.62a5,5,0,0,0,4.35,4.1c3.84,5,11.14,4.08,11.14,4.08l5.24-4.48C70.62,96.17,67.24,92.46,62.11,93.33Z"/><path class="cls-35" d="M75.47,100.48c-3.6-1.31-5.4-5.73-10-6.22a11.5,11.5,0,0,0-9.33,3.11l.17.49c3.27,4.91,9.65,5.56,14.72,3.76a9.33,9.33,0,0,1,2.46-1C74.16,100.64,75.47,100.48,75.47,100.48Z"/><path class="cls-36" d="M63.73,101.88a4.63,4.63,0,0,0,3.94-7,7.76,7.76,0,0,0-2.18-.58,12.7,12.7,0,0,0-5.82.8,4.52,4.52,0,0,0-.56,2.2A4.62,4.62,0,0,0,63.73,101.88Z"/><path class="cls-37" d="M63.73,101.35a4.09,4.09,0,0,0,4.09-4.09,4,4,0,0,0-1.07-2.75,7.81,7.81,0,0,0-1.26-.25,12.89,12.89,0,0,0-5,.5,4,4,0,0,0-.86,2.5A4.09,4.09,0,0,0,63.73,101.35Z"/><path d="M66.14,97.26a2.41,2.41,0,1,1-2.41-2.41A2.41,2.41,0,0,1,66.14,97.26Z"/><path class="cls-38" d="M65.44,97.26a1.71,1.71,0,1,1-3.41,0,1.71,1.71,0,0,1,3.41,0Z"/><path class="cls-35" d="M64.72,95.26a1,1,0,1,1-1-1A1,1,0,0,1,64.72,95.26Z"/><path class="cls-35" d="M64.21,99.62a.48.48,0,1,1-.48-.48A.48.48,0,0,1,64.21,99.62Z"/><path d="M75.49,100.45c-3.22-1.43-5.07-4.8-8.43-6a10.68,10.68,0,0,0-5.72-.13,8.85,8.85,0,0,0-5.21,3c0,.06,0,.12.07.08,3-2.53,7.74-4,11.51-2.37,3,1.27,4.64,4.47,7.75,5.47A0,0,0,0,0,75.49,100.45Zm-4.44,1.15c-5.18,1.65-11.38,1-14.71-3.75,0,0,0,0,0,0,3.23,4.8,9.58,5.72,14.75,3.78C71.09,101.63,71.08,101.59,71.05,101.6Z"/><path class="cls-39" d="M114.52,97.38a9.08,9.08,0,0,0-1-2.16,6.22,6.22,0,0,0-1.58-1.72,8.32,8.32,0,0,0-4-1.55,10.87,10.87,0,0,0-7.52,1.75s-.07,0,0-.08A7.67,7.67,0,0,1,103.79,92a11.91,11.91,0,0,1,4.56-.27,8,8,0,0,1,4,1.57,6.14,6.14,0,0,1,1.41,1.58,6.8,6.8,0,0,1,.84,2.49s-.06.07-.07,0Z"/><path d="M107.92,93.33a9.51,9.51,0,0,1,5.64,3.51h0c2.33,1.08,3.4-2.62,3.4-2.62a4.43,4.43,0,0,1-3.57,4.1c-3.16,5-9.16,4.08-9.16,4.08l-4.31-4.48C100.92,96.17,103.7,92.46,107.92,93.33Z"/><path class="cls-35" d="M96.93,100.48c3-1.31,4.44-5.73,8.21-6.22a8.44,8.44,0,0,1,7.66,3.11l-.13.49c-2.69,4.91-7.94,5.56-12.11,3.76a7,7,0,0,0-2-1A15.66,15.66,0,0,1,96.93,100.48Z"/><path class="cls-40" d="M105.22,101.88a4.54,4.54,0,0,0,4.45-4.62,4.76,4.76,0,0,0-.79-2.62,8.74,8.74,0,0,0-3.74-.38A7.22,7.22,0,0,0,100.79,97a2.26,2.26,0,0,0,0,.26A4.54,4.54,0,0,0,105.22,101.88Z"/><path class="cls-41" d="M105.22,101.35a4,4,0,0,0,3.93-4.09A4.16,4.16,0,0,0,108,94.41a8.9,8.9,0,0,0-2.9-.15,6.42,6.42,0,0,0-3.76,2.12,4.24,4.24,0,0,0-.09.88A4,4,0,0,0,105.22,101.35Z"/><path d="M107.54,97.26a2.32,2.32,0,1,1-2.32-2.41A2.37,2.37,0,0,1,107.54,97.26Z"/><path class="cls-42" d="M106.86,97.26a1.64,1.64,0,1,1-1.64-1.7A1.68,1.68,0,0,1,106.86,97.26Z"/><path class="cls-35" d="M106.17,95.26a1,1,0,1,1-1-1A1,1,0,0,1,106.17,95.26Z"/><path class="cls-35" d="M105.68,99.62a.46.46,0,1,1-.46-.48A.48.48,0,0,1,105.68,99.62Z"/><path d="M96.92,100.45c2.64-1.43,4.17-4.8,6.93-6a7.28,7.28,0,0,1,4.7-.13,7.13,7.13,0,0,1,4.28,3c0,.06,0,.12-.06.08-2.47-2.53-6.36-4-9.46-2.37-2.44,1.27-3.81,4.47-6.37,5.47C96.91,100.52,96.89,100.47,96.92,100.45Zm3.65,1.15c4.25,1.65,9.36,1,12.09-3.75,0,0,0,0,0,0-2.65,4.8-7.87,5.72-12.12,3.78C100.53,101.63,100.54,101.59,100.57,101.6Z"/></g></g></svg>