<svg xmlns="http://www.w3.org/2000/svg" xmlns:xlink="http://www.w3.org/1999/xlink" viewBox="0 0 1384 1667.03"><defs><style>.cls-1,.cls-17,.cls-18,.cls-25,.cls-30,.cls-43,.cls-45,.cls-8{fill:none;}.cls-2{clip-path:url(#clip-path);}.cls-3{fill:#1f4636;}.cls-4{fill:#f48c85;}.cls-19,.cls-5{fill:#0d0a07;}.cls-15,.cls-20,.cls-22,.cls-44,.cls-5{fill-rule:evenodd;}.cls-6{fill:#d4625a;}.cls-7{fill:#193f2f;}.cls-8{stroke:#000;}.cls-25,.cls-43,.cls-45,.cls-8{stroke-width:3.33px;}.cls-9{fill:#fcc478;}.cls-10{fill:#5d3315;}.cls-11{fill:#0c0501;}.cls-12{fill:#4a250a;}.cls-13,.cls-15{fill:#4a240a;}.cls-14{fill:#f1d6a9;}.cls-16{fill:#b4792d;}.cls-17,.cls-18{stroke:#6d3a09;stroke-width:5px;}.cls-18,.cls-45{stroke-linecap:round;}.cls-20{fill:#cd574f;}.cls-21{fill:#993e00;}.cls-22{fill:#b4510e;}.cls-23{fill:#7c3200;}.cls-24{fill:#f9a76f;}.cls-25{stroke:#113325;}.cls-26{fill:#ae6128;}.cls-27{fill:#c14721;}.cls-28{fill:#a23d1e;}.cls-29{fill:#b03815;}.cls-30{stroke:#c74522;stroke-width:6.67px;}.cls-31{fill:#35401c;}.cls-32{fill:#151d05;}.cls-33{fill:#080b02;}.cls-34{fill:#0f1403;}.cls-35{fill:#151c05;}.cls-36{fill:#242f0e;}.cls-37{fill:#182103;}.cls-38{fill:#902808;}.cls-39{fill:#b33913;}.cls-40{fill:#0f1503;}.cls-41{fill:#8f2808;}.cls-42,.cls-44{fill:#242e0e;}.cls-43{stroke:#35401c;}.cls-45{stroke:#c6443a;}.cls-46{fill:#532d12;}.cls-47{fill:#311a09;}.cls-48{fill:#45240c;}.cls-49{fill:#573014;}.cls-50{font-size:56px;fill:#fff;font-family:Bungee-Regular, Bungee;}.cls-51{letter-spacing:-0.01em;}.cls-52{letter-spacing:0em;}</style><clipPath id="clip-path" transform="translate(-313.31 -166)"><rect class="cls-1" width="2000" height="2000"/></clipPath></defs><g id="Layer_2" data-name="Layer 2"><g id="Layer_1-2" data-name="Layer 1"><g class="cls-2"><path class="cls-3" d="M885.27,566.57a16.68,16.68,0,0,1,23,1l47.37,49.33a16.67,16.67,0,0,1-.23,23.33L844.84,750.8a33.36,33.36,0,0,1-47.15,0l-32.36-32.37a33.34,33.34,0,0,1,1.66-48.7Z" transform="translate(-313.31 -166)"/><path class="cls-4" d="M579.61,289.39a36.67,36.67,0,0,0-38,38.14l-3.34,187.16H638l3.34-63.35h7.25c12.13,0,28.9-9.29,29.92-21.38l1.64-98.63a36.67,36.67,0,0,0-35.24-39.73Z" transform="translate(-313.31 -166)"/><path class="cls-5" d="M603.05,433.35c27.22-5.69,26.58-23.51,25.59-51.06-.2-5.58-.41-11.56-.41-17.91V321H530a16.08,16.08,0,0,0,.08,4.12v39.23c0,3.29,0,6.5,0,9.62-.25,34.87-.41,58.87,31.72,60.4C561.79,434.4,589.65,437.39,603.05,433.35Z" transform="translate(-313.31 -166)"/><path class="cls-4" d="M1003.08,529.61l7.45.49.82,1.09A58.16,58.16,0,0,1,1022.23,556a14.5,14.5,0,0,1-3.06,11.79l-10.54,12.87a16.67,16.67,0,0,1-25.44.42l-4.12-4.7L951,584.64Z" transform="translate(-313.31 -166)"/><path class="cls-4" d="M927.79,542.58l-2.26,8.82-12.09,13L962,607l5.1-2.33a44.3,44.3,0,0,0,23.5-25.85l26.06-29.89a6.67,6.67,0,0,0,1-7.23l-9.5-20.13a16.66,16.66,0,0,0-10.73-9l-3.08-.83a3,3,0,0,1-1.06-5.31l30.85-23.7a8.22,8.22,0,0,0-9.34-13.5l-52.52,32.5-15.39,11.87A53.4,53.4,0,0,0,927.79,542.58Z" transform="translate(-313.31 -166)"/><rect class="cls-3" x="926.22" y="547.26" width="26.64" height="77.51" rx="3.33" transform="translate(-452.5 669.99) rotate(-45)"/><path class="cls-6" d="M623.86,452.74h17.86l-1.66,21.67-17.43-18.88A1.67,1.67,0,0,1,623.86,452.74Z" transform="translate(-313.31 -166)"/><path class="cls-3" d="M542.39,462.74a10.17,10.17,0,0,0-10.35,10v16.67a6.67,6.67,0,0,1-6.67,6.67H470.64a43.33,43.33,0,0,0-43.34,43.85l4.54,386.24c0,11.05,9.27,33.34,20.71,33.34H749c11.55,0,17.89-22.47,17.72-33.64L751.9,720.14l8.49-185.73c-.33-21.26-18.26-38.33-40.28-38.33H662.67a6.67,6.67,0,0,1-6.67-6.64l-.08-16.7a10.18,10.18,0,0,0-10.35-10Z" transform="translate(-313.31 -166)"/><path class="cls-7" d="M750.07,706.12c-29.45-33.9-66.68-43.35-80-155l83.35,86.69Z" transform="translate(-313.31 -166)"/><path class="cls-3" d="M410.37,530.21a53.75,53.75,0,0,1,71.5-24.92h0A53.74,53.74,0,0,1,506.1,579l-117.28,220L377,792.44a90,90,0,0,1-36.94-118Z" transform="translate(-313.31 -166)"/><path class="cls-3" d="M527.75,852.57a16.68,16.68,0,0,1-5.17,22.66l-53.81,34.89A16.67,16.67,0,0,1,446,905.56l-94.17-137.4a66.69,66.69,0,0,1,17.3-92.7L405,650.86Z" transform="translate(-313.31 -166)"/><path class="cls-8" d="M433.51,926.17h0L429,539.91a41.68,41.68,0,0,1,41.68-42.17h54.73a8.33,8.33,0,0,0,8.33-8.33V472.74a8.52,8.52,0,0,1,8.69-8.34H645.57a8.52,8.52,0,0,1,8.68,8.34h0l.09,16.7a8.32,8.32,0,0,0,8.33,8.29h57.44c21.14,0,38.27,16.37,38.61,36.65l-8.49,192.35v.19l14.84,199a54.87,54.87,0,0,1-4.33,20.27,28,28,0,0,1-5.25,8.44c-2,2.08-4.17,3.19-6.47,3.19H452.55c-2.3,0-4.64-1.12-6.94-3.23a32.14,32.14,0,0,1-6.24-8.43C435.72,939.41,433.51,931.35,433.51,926.17Z" transform="translate(-313.31 -166)"/><path class="cls-3" d="M857,679.89a56.8,56.8,0,0,1-20,76.6h0a56.81,56.81,0,0,1-80.06-22.93L674.56,571.14a52.58,52.58,0,0,1,23.34-70.77h0a52.58,52.58,0,0,1,69.3,21.09Z" transform="translate(-313.31 -166)"/><path class="cls-8" d="M840.11,651.1l-73-129.52a52.52,52.52,0,0,0-69.29-21.18h0a52.51,52.51,0,0,0-23.32,70.68l83.4,164.68a53,53,0,0,0,71,23.46h0a53.18,53.18,0,0,0,11.36-7.66l23.16-20.44" transform="translate(-313.31 -166)"/><path class="cls-4" d="M783.41,1646.32h-90l6.67,96.69h90Z" transform="translate(-313.31 -166)"/><path class="cls-9" d="M696.73,1696.34h90L783.42,1743H700.07Z" transform="translate(-313.31 -166)"/><path class="cls-10" d="M759.79,1724.13a16.69,16.69,0,0,1-14.74,8.89H733.24a13.27,13.27,0,0,1-12.32-8.34h0a13.26,13.26,0,0,0-12.31-8.33H686.75V1819.7h50.84L763,1806.37h25.42l35,3.33,15.83,10h50.85l2.49-17.42a33.35,33.35,0,0,0-24.37-36.91l-44.48-11.94A33.32,33.32,0,0,1,799.29,1725l-1.5-13.14a10,10,0,0,0-9.94-8.87H777a10,10,0,0,0-8.85,5.33Z" transform="translate(-313.31 -166)"/><path class="cls-11" d="M686.75,1793c4.27,4.27,11.73,6.67,17.76,6.67H892.59v20H829.18a10.07,10.07,0,0,0-9.49-6.66h-.54a10.84,10.84,0,0,0-8.94,4.7l-1.35,2H781.77a16.69,16.69,0,0,0-13.34-6.66h-6.14a19.52,19.52,0,0,0-14.69,6.66H686.75Z" transform="translate(-313.31 -166)"/><path class="cls-12" d="M860.22,1763.21a19.94,19.94,0,0,0-3.44,5.64,19.88,19.88,0,0,1-18.46,12.5h-4.87a18.34,18.34,0,0,0-18.34,18.34h77.77a33.34,33.34,0,0,0-24.63-34.33Z" transform="translate(-313.31 -166)"/><path class="cls-13" d="M686.75,1726.35H705a9.94,9.94,0,0,1,9.24,6.25A16.57,16.57,0,0,0,729.65,1743h23.23a16.66,16.66,0,0,0,15.07-9.54l7.78-16.41a10,10,0,0,1,9-5.73h12.94a10,10,0,0,0-9.86-8.33H777a10,10,0,0,0-8.85,5.33l-8.33,15.79a16.69,16.69,0,0,1-14.74,8.89H733.24a13.27,13.27,0,0,1-12.32-8.34,13.26,13.26,0,0,0-12.31-8.33H686.75Z" transform="translate(-313.31 -166)"/><path class="cls-14" d="M798.47,1718H786.76a5,5,0,1,0,0,10h13q-.3-1.48-.48-3l0-.34H786.76a1.67,1.67,0,1,1,0-3.33h12.09Z" transform="translate(-313.31 -166)"/><path class="cls-14" d="M801.89,1734.68h-11.8a5,5,0,1,0,0,10H808.7a32.8,32.8,0,0,1-2.89-3.34H790.09a1.67,1.67,0,1,1,0-3.33h13.5A32.6,32.6,0,0,1,801.89,1734.68Z" transform="translate(-313.31 -166)"/><path class="cls-15" d="M773.41,1708c0,20.71.76,36.83,11.49,48.43s30.88,18.24,68.38,21.58l.3-3.32c-37.52-3.34-56.5-10-66.23-20.52S776.74,1729,776.74,1708Zm-86.67,63.34c19,0,31.67,12.69,31.67,28.34h3.34c0-17.49-14.18-31.67-35-31.67Z" transform="translate(-313.31 -166)"/><path class="cls-4" d="M413.34,1646.32h90L496.69,1743h-90Z" transform="translate(-313.31 -166)"/><path class="cls-9" d="M410,1696.34h90V1743H406.68Z" transform="translate(-313.31 -166)"/><path class="cls-10" d="M473.06,1724.13a16.7,16.7,0,0,1-14.75,8.89H446.5a13.25,13.25,0,0,1-12.31-8.34h0a13.26,13.26,0,0,0-12.31-8.33H400V1819.7h50.84l25.42-13.33H501.7l35,3.33,15.84,10h50.84l2.49-17.42a33.33,33.33,0,0,0-24.36-36.91L537,1753.43A33.32,33.32,0,0,1,512.56,1725l-1.51-13.14a10,10,0,0,0-9.93-8.87H490.23a10,10,0,0,0-8.84,5.33Z" transform="translate(-313.31 -166)"/><path class="cls-11" d="M400,1793c4.26,4.27,11.72,6.67,17.76,6.67H605.86v20H542.44A10.06,10.06,0,0,0,533,1813h-.54a10.82,10.82,0,0,0-8.94,4.7l-1.35,2H495A16.69,16.69,0,0,0,481.7,1813h-6.14a19.56,19.56,0,0,0-14.7,6.66H400Z" transform="translate(-313.31 -166)"/><path class="cls-12" d="M573.48,1763.21a19.71,19.71,0,0,0-3.44,5.64,19.88,19.88,0,0,1-18.46,12.5H546.7a18.34,18.34,0,0,0-18.33,18.34h77.77a33.34,33.34,0,0,0-24.63-34.33Z" transform="translate(-313.31 -166)"/><path class="cls-13" d="M400,1726.35h18.27a9.94,9.94,0,0,1,9.23,6.25A16.58,16.58,0,0,0,442.91,1743h23.24a16.67,16.67,0,0,0,15.07-9.54l7.77-16.41a10,10,0,0,1,9-5.73h13a10,10,0,0,0-9.87-8.33H490.23a10,10,0,0,0-8.84,5.33l-8.33,15.79a16.7,16.7,0,0,1-14.75,8.89H446.5a13.25,13.25,0,0,1-12.31-8.34,13.26,13.26,0,0,0-12.31-8.33H400Z" transform="translate(-313.31 -166)"/><path class="cls-14" d="M511.76,1718H500a5,5,0,0,0,0,10h13a30.21,30.21,0,0,1-.48-3l0-.34H500a1.67,1.67,0,1,1,0-3.33h12.1Z" transform="translate(-313.31 -166)"/><path class="cls-14" d="M515.17,1734.68h-11.8a5,5,0,0,0,0,10H522a32.8,32.8,0,0,1-2.89-3.34H503.37a1.67,1.67,0,0,1,0-3.33h13.5A37.23,37.23,0,0,1,515.17,1734.68Z" transform="translate(-313.31 -166)"/><path class="cls-15" d="M486.67,1708c0,20.71.76,36.83,11.49,48.43S529,1774.68,566.54,1778l.29-3.32c-37.51-3.34-56.49-10-66.23-20.52S490,1729,490,1708ZM400,1771.35c19,0,31.67,12.69,31.67,28.34H435c0-17.49-14.18-31.67-35-31.67Z" transform="translate(-313.31 -166)"/><path class="cls-16" d="M603.39,944.51h-185L395,1688H515Z" transform="translate(-313.31 -166)"/><path class="cls-16" d="M571.73,944.51h175L803.44,1688h-130l-94.61-557.63Z" transform="translate(-313.31 -166)"/><path class="cls-17" d="M573.38,1081.2,505,1688" transform="translate(-313.31 -166)"/><path class="cls-17" d="M675.06,1689.66,566.7,1049.52" transform="translate(-313.31 -166)"/><path class="cls-17" d="M668.38,1641.32h130" transform="translate(-313.31 -166)"/><path class="cls-17" d="M395,1641.32h126.7" transform="translate(-313.31 -166)"/><path class="cls-18" d="M606.7,1022.85h66.68" transform="translate(-313.31 -166)"/><path class="cls-3" d="M420,922.83a6.67,6.67,0,0,1,6.66-6.67H776.76a6.67,6.67,0,0,1,6.67,6.67v43.34a6.67,6.67,0,0,1-6.67,6.67H426.68a6.66,6.66,0,0,1-6.66-6.67Z" transform="translate(-313.31 -166)"/><path class="cls-19" d="M663.41,326.05h-70v25c4.74-2.37,26.06.35,34.26,1.38a3.36,3.36,0,0,1,2.89,2.68l2.85,14.28h5a4,4,0,0,0,3.65-3.32c1.88-8.89,12-4.31,18-13.35C666.74,342.72,663.41,326.05,663.41,326.05Z" transform="translate(-313.31 -166)"/><path class="cls-4" d="M643.18,369.38c1.66,20-7.25,20-18.24,20s-18.24-9-18.24-20,7.25-20,18.24-20S643.18,358.33,643.18,369.38Z" transform="translate(-313.31 -166)"/><path class="cls-20" d="M620.09,361.42a1.67,1.67,0,0,1,2.35.26l8.86,11a1.67,1.67,0,1,1-2.6,2.09l-8.86-11A1.67,1.67,0,0,1,620.09,361.42Z" transform="translate(-313.31 -166)"/><path class="cls-21" d="M526.7,304.33a70,70,0,0,1,61.15-69.45l16.78-2.14a3,3,0,0,1,.85,0l16.78,2.14a70,70,0,0,1,61.14,69.45V322.7a3.33,3.33,0,0,1-3.33,3.34H530a3.34,3.34,0,0,1-3.34-3.34Z" transform="translate(-313.31 -166)"/><path class="cls-22" d="M666.72,326a3.33,3.33,0,0,0,3.33-3.33V302.76a70,70,0,0,0-59.37-69.2l-5.13-.79a2.28,2.28,0,0,0-.45,0,3.64,3.64,0,0,0-.57,0l-5.14.79A70,70,0,0,0,540,302.76v19.95a3.34,3.34,0,0,0,3.34,3.33Zm0-3.33V302.76a66.7,66.7,0,0,0-44.72-63,53.59,53.59,0,0,1,24.71,45.15v37.77ZM563.36,284.94a53.61,53.61,0,0,1,24.71-45.15,66.71,66.71,0,0,0-44.71,63v19.95h20Zm3.34,0v37.77h20v-60a33.71,33.71,0,0,1,9.64-23.6A50.26,50.26,0,0,0,566.7,284.94Zm47-45.84a50.28,50.28,0,0,1,29.64,45.84v37.77h-20v-60A33.75,33.75,0,0,0,613.74,239.1Zm6.3,83.61v-60a30.39,30.39,0,0,0-15-26.2,30.38,30.38,0,0,0-15,26.2v60Z" transform="translate(-313.31 -166)"/><rect class="cls-23" x="210.06" y="143.36" width="163.37" height="30.01" rx="3.33"/><rect class="cls-24" x="336.75" y="153.38" width="20" height="13.34" rx="3.33"/><path class="cls-21" d="M609.94,235.33a5.25,5.25,0,0,0,.09-1,5,5,0,0,0-10,0,4.53,4.53,0,0,0,.1,1l4.9-1Z" transform="translate(-313.31 -166)"/><path class="cls-25" d="M550,466.07v26.67" transform="translate(-313.31 -166)"/><path class="cls-25" d="M576.7,466.07v26.67" transform="translate(-313.31 -166)"/><path class="cls-25" d="M630.06,466.07v26.67" transform="translate(-313.31 -166)"/><path class="cls-25" d="M610.06,466.07v26.67" transform="translate(-313.31 -166)"/><path class="cls-8" d="M403.35,672.77l28.34,55" transform="translate(-313.31 -166)"/><path class="cls-26" d="M541.72,1021.19c-75,61.68-123.36,25-123.36,25l-1.67-73.35H748.43C726.76,1002.85,583.4,986.92,541.72,1021.19Z" transform="translate(-313.31 -166)"/><path class="cls-27" d="M703.39,369.37v130H376.65v0a65,65,0,0,1,0-130v0Z" transform="translate(-313.31 -166)"/><path class="cls-28" d="M317,456.06H690V499.4H376.64v0A65.05,65.05,0,0,1,317,456.06Z" transform="translate(-313.31 -166)"/><path class="cls-10" d="M630,369.37h51a75,75,0,0,0-126,55v75h20v-75A55,55,0,0,1,630,369.37Z" transform="translate(-313.31 -166)"/><path class="cls-10" d="M463.33,369.37h51a75,75,0,0,0-126,55v75h20v-75A55,55,0,0,1,463.33,369.37Z" transform="translate(-313.31 -166)"/><circle class="cls-29" cx="385.06" cy="268.38" r="65.01"/><circle class="cls-30" cx="385.09" cy="268.38" r="45.01"/><circle class="cls-30" cx="385.04" cy="268.39" r="18.34"/><path class="cls-31" d="M730.06,512.75a13.34,13.34,0,0,0-13.34-13.34H376.64V972.85a26.68,26.68,0,0,0,26.68,26.67h313.4a13.34,13.34,0,0,0,13.34-13.33Z" transform="translate(-313.31 -166)"/><path class="cls-32" d="M350,946.17a23.34,23.34,0,0,0,23.34,23.34H613.37a20,20,0,0,0,20-20v-180A33.35,33.35,0,0,0,600,736.12H383.32A33.34,33.34,0,0,0,350,769.46Z" transform="translate(-313.31 -166)"/><path class="cls-33" d="M350,812.8a23.34,23.34,0,0,0,23.34,23.34H566.69a20,20,0,0,0,20-20V768.59a33.35,33.35,0,0,1,14.36-27.41l7.31-5.06h-225A33.34,33.34,0,0,0,350,769.46Z" transform="translate(-313.31 -166)"/><path class="cls-34" d="M586.68,940.33a29.18,29.18,0,0,0,29.18,29.18h0A17.51,17.51,0,0,0,633.36,952V759.46A23.34,23.34,0,0,0,610,736.12h0a23.34,23.34,0,0,0-23.34,23.34Z" transform="translate(-313.31 -166)"/><path class="cls-35" d="M346.63,532.75A33.34,33.34,0,0,1,380,499.41H633.36v156.7H360a13.33,13.33,0,0,1-13.34-13.33Z" transform="translate(-313.31 -166)"/><path class="cls-35" d="M600,532.75a33.35,33.35,0,0,1,33.35-33.34h0v156.7h-20A13.34,13.34,0,0,1,600,642.78Z" transform="translate(-313.31 -166)"/><path class="cls-34" d="M586.68,532.75A33.34,33.34,0,0,1,620,499.41h13.34v156.7H600a13.33,13.33,0,0,1-13.34-13.33Z" transform="translate(-313.31 -166)"/><path class="cls-36" d="M633.36,499.41h83.35a13.34,13.34,0,0,1,13.34,13.34V986.19a13.33,13.33,0,0,1-13.34,13.33H660a26.67,26.67,0,0,1-26.67-26.67Z" transform="translate(-313.31 -166)"/><path class="cls-37" d="M649.38,997.3a26.68,26.68,0,0,1-16-24.46V919l37.89-37.89,23.57,23.58,21.89,13.12v11.66Z" transform="translate(-313.31 -166)"/><path class="cls-35" d="M690,499.41H680v95a5,5,0,0,0,5,5h0a5,5,0,0,0,5-5Z" transform="translate(-313.31 -166)"/><rect class="cls-38" x="360.06" y="630.13" width="20" height="13.34"/><path class="cls-39" d="M716.71,822.8a20,20,0,0,0-20-20H670a20,20,0,0,0-20,20v76.68h66.68Z" transform="translate(-313.31 -166)"/><path class="cls-27" d="M716.71,899.48H660V822.8c0-11,10.15-20,22.67-20H694c14.34,0,22.68,9,22.68,20Z" transform="translate(-313.31 -166)"/><rect class="cls-29" x="356.74" y="613.46" width="26.67" height="20" rx="3.33"/><path class="cls-35" d="M720,839.48H646.67v83.35a16.67,16.67,0,0,0,16.67,16.67h40A16.67,16.67,0,0,0,720,922.83Z" transform="translate(-313.31 -166)"/><path class="cls-40" d="M762.8,846.52l-15,10.46v53.16l38.42-30.91a6.77,6.77,0,0,0,.66-2.91V853.19a6.66,6.66,0,0,0-6.66-6.67Z" transform="translate(-313.31 -166)"/><path class="cls-35" d="M723.39,859.84a6.67,6.67,0,0,1,6.67-6.66h43.53a6.67,6.67,0,0,1,6.67,6.66V883a6.69,6.69,0,0,1-1.62,4.35l-24.17,28.08a6.7,6.7,0,0,1-5.06,2.32H730.06a6.67,6.67,0,0,1-6.67-6.67Z" transform="translate(-313.31 -166)"/><path class="cls-41" d="M692.54,784.46a.84.84,0,0,1,.84-.83.83.83,0,0,1,.83.83v10a.83.83,0,0,1-.83.83.84.84,0,0,1-.84-.83Z" transform="translate(-313.31 -166)"/><path class="cls-41" d="M685.88,784.46a.83.83,0,0,1,1.66,0v10a.83.83,0,0,1-1.66,0Z" transform="translate(-313.31 -166)"/><path class="cls-41" d="M680,783.63a.83.83,0,0,0-.83.83v10a.83.83,0,0,0,.83.83.84.84,0,0,0,.84-.83v-10A.84.84,0,0,0,680,783.63Z" transform="translate(-313.31 -166)"/><path class="cls-41" d="M672.54,784.46a.83.83,0,0,1,.83-.83.84.84,0,0,1,.84.83v10a.84.84,0,0,1-.84.83.83.83,0,0,1-.83-.83Z" transform="translate(-313.31 -166)"/><rect class="cls-10" x="226.7" y="436.75" width="23.34" height="130.03" rx="3.33"/><rect class="cls-10" x="90.01" y="436.75" width="23.34" height="130.03" rx="3.33"/><rect class="cls-42" x="76.67" y="513.43" width="50.01" height="16.67" rx="3.33"/><rect class="cls-42" x="213.38" y="513.43" width="50.01" height="16.67" rx="3.33"/><circle class="cls-43" cx="240.03" cy="760.17" r="11.67"/><circle class="cls-43" cx="73.34" cy="760.17" r="11.67"/><path class="cls-44" d="M489.69,535.1a3.33,3.33,0,0,0-4.72,0L459,561a3.33,3.33,0,0,0,0,4.71L485,591.68a3.34,3.34,0,0,0,4.72,0l25.93-25.94a3.33,3.33,0,0,0,0-4.71Zm-6.36,12.37a3.31,3.31,0,0,0-2.35,1l-12,12a3.33,3.33,0,0,0,0,4.71l12,12a3.31,3.31,0,0,0,2.35,1Zm8.05,0a3.35,3.35,0,0,1,2.36,1l11.95,12a3.33,3.33,0,0,1,0,4.71l-11.95,12a3.35,3.35,0,0,1-2.36,1Z" transform="translate(-313.31 -166)"/><path class="cls-45" d="M988.61,583.65c2.27-4.75,6.29-9.81,13.18-15.11a3.46,3.46,0,0,0,.55-5l-2.21-2.52" transform="translate(-313.31 -166)"/><rect class="cls-46" x="1036.9" width="123.36" height="1667.03" rx="6.67"/><rect class="cls-10" x="1023.58" width="96.69" height="1667.03" rx="6.67"/><path class="cls-47" d="M1232.65,257.87a6.63,6.63,0,0,1,4.6-1.85H1553.6a6.67,6.67,0,0,1,6.67,6.67V429.4a6.67,6.67,0,0,1-6.67,6.66H1237.25a6.66,6.66,0,0,1-4.6-1.84l-87.41-83.35a6.66,6.66,0,0,1,0-9.65Z" transform="translate(-313.31 -166)"/><path class="cls-48" d="M1219.3,257.87a6.64,6.64,0,0,1,4.6-1.85h316.35a6.67,6.67,0,0,1,6.67,6.67V429.4a6.67,6.67,0,0,1-6.67,6.66H1223.9a6.68,6.68,0,0,1-4.6-1.84l-87.41-83.35a6.66,6.66,0,0,1,0-9.65Z" transform="translate(-313.31 -166)"/><path class="cls-47" d="M1607.83,601.27a6.68,6.68,0,0,0-4.6-1.84H1286.88a6.66,6.66,0,0,0-6.67,6.67V772.8a6.67,6.67,0,0,0,6.67,6.67h316.35a6.68,6.68,0,0,0,4.6-1.84l87.41-83.36a6.66,6.66,0,0,0,0-9.65Z" transform="translate(-313.31 -166)"/><path class="cls-48" d="M1587.81,601.27a6.68,6.68,0,0,0-4.6-1.84H1266.86a6.66,6.66,0,0,0-6.67,6.67V772.8a6.67,6.67,0,0,0,6.67,6.67h316.35a6.68,6.68,0,0,0,4.6-1.84l87.41-83.36a6.66,6.66,0,0,0,0-9.65Z" transform="translate(-313.31 -166)"/><path d="M755,269.54,745.64,267a33.94,33.94,0,0,1,3-7.67,17.43,17.43,0,0,1,4.29-5,63,63,0,0,1,6.64-4.47c2-1.17,3.78-2.26,5.42-3.3a20.17,20.17,0,0,0,4.38-3.68,15.37,15.37,0,0,0,3.13-11.89,8.84,8.84,0,0,0-2.58-4.84,12.12,12.12,0,0,0-5.53-2.94,15.28,15.28,0,0,0-5.81-.43,9.44,9.44,0,0,0-8.29,7.38L741,227.75A17.6,17.6,0,0,1,755.5,214.5a25.54,25.54,0,0,1,11,.64,24.17,24.17,0,0,1,10.25,5.23,16.45,16.45,0,0,1,5.11,8.49,21.33,21.33,0,0,1-.36,10.79,19.47,19.47,0,0,1-4.1,7.86,33,33,0,0,1-6.58,5.84,87.41,87.41,0,0,1-7.78,4.71,13.17,13.17,0,0,0-5.28,4.79A25.23,25.23,0,0,0,755,269.54Zm-14,13.33a5.62,5.62,0,0,1,2.43-3.44,6.38,6.38,0,0,1,8.2,2.19,5.71,5.71,0,0,1,.39,4.2,5.56,5.56,0,0,1-2.41,3.35,5.43,5.43,0,0,1-4.54.45,5.38,5.38,0,0,1-3.66-2.65A5.54,5.54,0,0,1,741,282.87Z" transform="translate(-313.31 -166)"/><path d="M794.57,298.44l-4.28-8.7a34.15,34.15,0,0,1,7.73-2.81,17.39,17.39,0,0,1,6.55,0,66,66,0,0,1,7.74,2.05q3.26,1.08,6.05,1.9a20.45,20.45,0,0,0,5.66.88,13.76,13.76,0,0,0,6-1.58,13.62,13.62,0,0,0,5-3.9A8.91,8.91,0,0,0,837,281.1a12.12,12.12,0,0,0-1.43-6.09,15.18,15.18,0,0,0-3.51-4.66A9.44,9.44,0,0,0,821,269l-4.26-8.64a17.62,17.62,0,0,1,19.55,2.21,25.47,25.47,0,0,1,6.8,8.73,24.21,24.21,0,0,1,2.82,11.15,16.41,16.41,0,0,1-3,9.44,21.37,21.37,0,0,1-8.36,6.85,19.43,19.43,0,0,1-8.61,2.09,32.86,32.86,0,0,1-8.73-1.1,86.32,86.32,0,0,1-8.67-2.75,13.31,13.31,0,0,0-7.08-.81A25.14,25.14,0,0,0,794.57,298.44Zm-19.28-1.77a5.69,5.69,0,0,1,4.2-.44,5.35,5.35,0,0,1,3.31,3.07,5.45,5.45,0,0,1,.44,4.55,5.67,5.67,0,0,1-2.9,3,5.61,5.61,0,0,1-4.11.4,5.49,5.49,0,0,1-3.33-3.12,5.36,5.36,0,0,1-.42-4.5A5.55,5.55,0,0,1,775.29,296.67Z" transform="translate(-313.31 -166)"/><rect class="cls-49" x="946.9" y="153.38" width="223.38" height="40.01" rx="6.67"/><rect class="cls-49" x="1010.26" y="503.44" width="223.38" height="40.01" rx="6.67"/></g><text class="cls-50" transform="translate(921.8 202.86)">IN<tspan class="cls-51" x="76.05" y="0">V</tspan><tspan class="cls-52" x="116.37" y="0">ALID</tspan></text><text class="cls-50" transform="translate(1015.33 538.56)">IN<tspan class="cls-51" x="76.05" y="0">V</tspan><tspan class="cls-52" x="116.37" y="0">ALID</tspan></text></g></g></svg>