<svg xmlns="http://www.w3.org/2000/svg" xmlns:xlink="http://www.w3.org/1999/xlink" viewBox="0 0 112.18 175.68"><defs><style>.cls-1{fill:url(#linear-gradient);}.cls-2{fill:#cf7d5a;}.cls-3{fill:url(#radial-gradient);}.cls-4{fill:url(#radial-gradient-2);}.cls-5{fill:url(#linear-gradient-2);}.cls-6{fill:url(#radial-gradient-3);}.cls-7{fill:url(#radial-gradient-4);}.cls-8{fill:url(#linear-gradient-3);}.cls-9{fill:url(#linear-gradient-4);}.cls-10{fill:url(#linear-gradient-5);}.cls-11{fill:url(#linear-gradient-6);}.cls-12{fill:url(#linear-gradient-7);}.cls-13{fill:url(#linear-gradient-8);}.cls-14{fill:url(#linear-gradient-9);}.cls-15{fill:url(#linear-gradient-10);}.cls-16{fill:url(#linear-gradient-11);}.cls-17{fill:url(#linear-gradient-12);}.cls-18{fill:url(#linear-gradient-13);}.cls-19{fill:url(#linear-gradient-14);}.cls-20{fill:url(#linear-gradient-15);}.cls-21{fill:url(#linear-gradient-16);}.cls-22{fill:url(#linear-gradient-17);}.cls-23{fill:url(#linear-gradient-18);}.cls-24{fill:url(#linear-gradient-19);}.cls-25{fill:url(#linear-gradient-20);}.cls-26{fill:url(#linear-gradient-21);}.cls-27{fill:url(#linear-gradient-22);}.cls-28{fill:url(#linear-gradient-23);}.cls-29{fill:url(#linear-gradient-24);}.cls-30{fill:#c7543f;}.cls-31{fill:url(#radial-gradient-5);}.cls-32{fill:#b54438;}.cls-33{fill:#602614;}.cls-34{fill:url(#linear-gradient-25);}.cls-35{fill:url(#linear-gradient-26);}.cls-36{fill:url(#linear-gradient-27);}.cls-37{fill:url(#linear-gradient-28);}.cls-38{fill:url(#linear-gradient-29);}.cls-39{fill:url(#linear-gradient-30);}.cls-40{fill:url(#linear-gradient-31);}.cls-41{fill:url(#linear-gradient-32);}.cls-42{fill:url(#linear-gradient-33);}.cls-43{fill:url(#linear-gradient-34);}.cls-44{fill:url(#linear-gradient-35);}.cls-45{fill:url(#linear-gradient-36);}.cls-46{fill:url(#linear-gradient-37);}.cls-47{fill:url(#linear-gradient-38);}.cls-48{fill:url(#linear-gradient-39);}.cls-49{fill:url(#linear-gradient-40);}.cls-50{fill:url(#linear-gradient-41);}.cls-51{fill:#fff;}.cls-52{fill:url(#linear-gradient-42);}.cls-53{fill:url(#linear-gradient-43);}.cls-54{fill:url(#linear-gradient-44);}.cls-55{fill:#cf8b6e;}.cls-56{fill:url(#linear-gradient-45);}.cls-57{fill:url(#linear-gradient-46);}.cls-58{fill:url(#linear-gradient-47);}</style><linearGradient id="linear-gradient" x1="56.09" y1="162.12" x2="56.09" y2="114.58" gradientUnits="userSpaceOnUse"><stop offset="0" stop-color="#cf7d5a"/><stop offset="1" stop-color="#a44d2f"/></linearGradient><radialGradient id="radial-gradient" cx="-1089.15" cy="553.98" r="41.19" gradientTransform="matrix(0.25, -0.18, 0.31, 0.44, 134.13, -345.53)" gradientUnits="userSpaceOnUse"><stop offset="0" stop-color="#e39e78"/><stop offset="1" stop-color="#cf7d5a"/></radialGradient><radialGradient id="radial-gradient-2" cx="1351.1" cy="-100.05" r="41.19" gradientTransform="matrix(0.24, 0.19, -0.33, 0.43, -266.17, -120.38)" xlink:href="#radial-gradient"/><linearGradient id="linear-gradient-2" x1="64.18" y1="53.8" x2="64.18" y2="17.4" gradientUnits="userSpaceOnUse"><stop offset="0" stop-color="#cf7d5a"/><stop offset="1" stop-color="#e39e78"/></linearGradient><radialGradient id="radial-gradient-3" cx="561.26" cy="1861.56" r="37.42" gradientTransform="translate(-72.92 -336.42) scale(0.25)" gradientUnits="userSpaceOnUse"><stop offset="0" stop-color="#a44d2f"/><stop offset="1" stop-color="#cf7d5a"/></radialGradient><radialGradient id="radial-gradient-4" cx="-13.43" cy="1815.13" r="44.45" gradientTransform="matrix(0.46, 0, 0, 0.25, 68.98, -338)" gradientUnits="userSpaceOnUse"><stop offset="0" stop-color="#e38f71"/><stop offset="1" stop-color="#cf7d5a"/></radialGradient><linearGradient id="linear-gradient-3" x1="43.1" y1="80.11" x2="54.86" y2="72.73" xlink:href="#linear-gradient"/><linearGradient id="linear-gradient-4" x1="-1534.24" y1="80.04" x2="-1521.85" y2="72.26" gradientTransform="matrix(-0.76, 0, 0, 1, -1081.81, 0)" xlink:href="#linear-gradient"/><linearGradient id="linear-gradient-5" x1="55.19" y1="81.34" x2="70.71" y2="90.38" xlink:href="#linear-gradient"/><linearGradient id="linear-gradient-6" x1="78.44" y1="82.72" x2="66.45" y2="85.95" xlink:href="#linear-gradient"/><linearGradient id="linear-gradient-7" x1="67.73" y1="78.06" x2="67.73" y2="108.67" xlink:href="#linear-gradient-2"/><linearGradient id="linear-gradient-8" x1="60.85" y1="98.61" x2="56.6" y2="94.36" xlink:href="#linear-gradient-2"/><linearGradient id="linear-gradient-9" x1="74.56" y1="97.85" x2="77.45" y2="95.92" xlink:href="#linear-gradient-2"/><linearGradient id="linear-gradient-10" x1="58.71" y1="73.45" x2="58.71" y2="-13.6" xlink:href="#linear-gradient"/><linearGradient id="linear-gradient-11" x1="58.71" y1="-2.42" x2="58.71" y2="46.97" gradientUnits="userSpaceOnUse"><stop offset="0" stop-color="#270b04"/><stop offset="1"/></linearGradient><linearGradient id="linear-gradient-12" x1="59.35" y1="-2.45" x2="59.35" y2="32.58" gradientUnits="userSpaceOnUse"><stop offset="0" stop-color="#581f0f"/><stop offset="1" stop-color="#120603"/></linearGradient><linearGradient id="linear-gradient-13" x1="30.59" y1="126.32" x2="56.56" y2="83.41" xlink:href="#linear-gradient"/><linearGradient id="linear-gradient-14" x1="90.82" y1="112.58" x2="80.57" y2="89.56" gradientUnits="userSpaceOnUse"><stop offset="0" stop-color="#be6a47"/><stop offset="1" stop-color="#913d1f"/></linearGradient><linearGradient id="linear-gradient-15" x1="-288.58" y1="195.89" x2="-223.05" y2="87.58" gradientTransform="translate(325.54 -61.28)" gradientUnits="userSpaceOnUse"><stop offset="0" stop-color="#c4704b"/><stop offset="1" stop-color="#984123"/></linearGradient><linearGradient id="linear-gradient-16" x1="40.74" y1="71.94" x2="40.74" y2="60.82" xlink:href="#linear-gradient"/><linearGradient id="linear-gradient-17" x1="87.01" y1="71.92" x2="87.01" y2="61.23" xlink:href="#linear-gradient-14"/><linearGradient id="linear-gradient-18" x1="66.57" y1="110.88" x2="66.57" y2="99.88" xlink:href="#linear-gradient"/><linearGradient id="linear-gradient-19" x1="40.45" y1="55.63" x2="40.45" y2="59.47" gradientUnits="userSpaceOnUse"><stop offset="0" stop-color="#8b3f1f"/><stop offset="1" stop-color="#6f280d"/></linearGradient><linearGradient id="linear-gradient-20" x1="87.82" y1="54.8" x2="87.82" y2="58.85" xlink:href="#linear-gradient-19"/><linearGradient id="linear-gradient-21" x1="107.11" y1="80.7" x2="102.91" y2="79.16" xlink:href="#linear-gradient-14"/><linearGradient id="linear-gradient-22" x1="8.97" y1="86.63" x2="17.6" y2="81.96" xlink:href="#linear-gradient-14"/><linearGradient id="linear-gradient-23" x1="105.47" y1="78.55" x2="103.29" y2="77.75" gradientUnits="userSpaceOnUse"><stop offset="0" stop-color="#90401f"/><stop offset="1" stop-color="#74270d"/></linearGradient><linearGradient id="linear-gradient-24" x1="11.84" y1="83.82" x2="17.16" y2="80.94" xlink:href="#linear-gradient-23"/><radialGradient id="radial-gradient-5" cx="161.96" cy="4722.52" r="33.21" gradientTransform="matrix(0.39, 0.01, 0, 0.11, 15.99, -406.02)" gradientUnits="userSpaceOnUse"><stop offset="0" stop-color="#f08368"/><stop offset="1" stop-color="#c7543f"/></radialGradient><linearGradient id="linear-gradient-25" x1="57.27" y1="98.51" x2="57.27" y2="93" gradientUnits="userSpaceOnUse"><stop offset="0" stop-color="#5b2619"/><stop offset="1" stop-color="#b36853"/></linearGradient><linearGradient id="linear-gradient-26" x1="60.83" y1="101.63" x2="60.83" y2="100.15" xlink:href="#linear-gradient-25"/><linearGradient id="linear-gradient-27" x1="67.9" y1="103.56" x2="67.9" y2="102.66" xlink:href="#linear-gradient-25"/><linearGradient id="linear-gradient-28" x1="73.85" y1="101.53" x2="73.85" y2="100.04" xlink:href="#linear-gradient-25"/><linearGradient id="linear-gradient-29" x1="76.59" y1="98.06" x2="76.59" y2="92.25" xlink:href="#linear-gradient-25"/><linearGradient id="linear-gradient-30" x1="73.72" y1="87.41" x2="73.72" y2="78.31" xlink:href="#linear-gradient-25"/><linearGradient id="linear-gradient-31" x1="73.9" y1="79.02" x2="73.9" y2="69.17" gradientUnits="userSpaceOnUse"><stop offset="0" stop-color="#471a0e"/><stop offset="1" stop-color="#9f5440"/></linearGradient><linearGradient id="linear-gradient-32" x1="58.69" y1="48.09" x2="58.69" y2="64.03" gradientUnits="userSpaceOnUse"><stop offset="0" stop-color="#270b04"/><stop offset="1" stop-color="#471a0e"/></linearGradient><linearGradient id="linear-gradient-33" x1="106.78" y1="73.54" x2="106.78" y2="64.06" xlink:href="#linear-gradient-25"/><linearGradient id="linear-gradient-34" x1="104.81" y1="2.23" x2="104.81" y2="28.21" gradientUnits="userSpaceOnUse"><stop offset="0" stop-color="#672a1a"/><stop offset="1" stop-color="#4b170b"/></linearGradient><linearGradient id="linear-gradient-35" x1="101.67" y1="95.48" x2="101.67" y2="90.94" xlink:href="#linear-gradient-25"/><linearGradient id="linear-gradient-36" x1="18.49" y1="99.69" x2="18.49" y2="93.83" xlink:href="#linear-gradient-25"/><linearGradient id="linear-gradient-37" x1="10.5" y1="80.47" x2="10.5" y2="62.62" xlink:href="#linear-gradient-25"/><linearGradient id="linear-gradient-38" x1="22.79" y1="97.01" x2="22.79" y2="94.94" xlink:href="#linear-gradient-25"/><linearGradient id="linear-gradient-39" x1="14.68" y1="7.38" x2="14.68" y2="32.4" xlink:href="#linear-gradient-34"/><linearGradient id="linear-gradient-40" x1="41.96" y1="57.36" x2="41.26" y2="61.41" xlink:href="#linear-gradient-11"/><linearGradient id="linear-gradient-41" x1="85.47" y1="56.85" x2="87.05" y2="61.95" xlink:href="#linear-gradient-11"/><linearGradient id="linear-gradient-42" x1="41" y1="75.21" x2="41" y2="68.08" xlink:href="#linear-gradient-11"/><linearGradient id="linear-gradient-43" x1="41" y1="75.21" x2="41" y2="68.08" gradientUnits="userSpaceOnUse"><stop offset="0.01" stop-color="#511708"/><stop offset="1" stop-color="#2a0101"/></linearGradient><linearGradient id="linear-gradient-44" x1="41" y1="71.69" x2="41" y2="73.54" gradientUnits="userSpaceOnUse"><stop offset="0"/><stop offset="1" stop-color="#635d56"/></linearGradient><linearGradient id="linear-gradient-45" x1="86.24" y1="75.21" x2="86.24" y2="68.08" xlink:href="#linear-gradient-11"/><linearGradient id="linear-gradient-46" x1="86.24" y1="75.21" x2="86.24" y2="68.08" xlink:href="#linear-gradient-43"/><linearGradient id="linear-gradient-47" x1="86.24" y1="71.69" x2="86.24" y2="73.54" xlink:href="#linear-gradient-44"/></defs><g id="Layer_2" data-name="Layer 2"><g id="_13_Face" data-name="13_Face"><path d="M63,175.68c-45,0-62.6-11.09-62.78-11.2A.51.51,0,0,1,0,164a.5.5,0,0,1,.32-.41c.21-.08,20.93-8.08,23.29-14.14s1.73-38.2,1.73-38.52a.5.5,0,0,1,.49-.51h0l63.69,4.23a.5.5,0,0,1,.36.18.54.54,0,0,1,.1.39c-.05.25-4.16,24.6-.39,33.51s22,15.14,22.23,15.21a.5.5,0,0,1,.33.42.49.49,0,0,1-.25.48c-.2.11-20.29,10.83-48.93,10.83Z"/><path class="cls-1" d="M.49,164.06S21.61,156,24.07,149.64s1.76-38.71,1.76-38.71l63.69,4.22s-4.22,24.63-.35,33.78,22.52,15.48,22.52,15.48S91.85,175.18,63,175.18C17.6,175.18.49,164.06.49,164.06Z"/><path d="M108.51,67.52a4.43,4.43,0,0,0-3.21-1.86c0-.06,0-.12,0-.19v-.08c.1-.63.19-1.32.3-2.17.32-2.54.56-5.22.72-8,.52-8.88.08-16-1.39-22.54a33.61,33.61,0,0,0-4-10.27,35.88,35.88,0,0,0-7.26-8.3A61.35,61.35,0,0,0,73.76,3,45.7,45.7,0,0,0,58.64,0a29.61,29.61,0,0,0-3.56.21A49.51,49.51,0,0,0,34.51,8.15,55.17,55.17,0,0,0,16.43,26.74c-3.67,6.36-5.55,14.47-5.6,24.08a72.4,72.4,0,0,0,1.48,15.25h-.19c-2,0-3.63,2.43-4.21,3.48l0,.07c-.3.52-.56,1-.42,1.4a1.7,1.7,0,0,1-.11.43c0,.09-.06.18-.08.26-.11.39-.18.79-.25,1.17a20.34,20.34,0,0,0-.32,4.37,24,24,0,0,0,1.66,8.22,55.55,55.55,0,0,0,5,9.61l0,0,.11.15a.65.65,0,0,0,0,.19l.11.33a17.39,17.39,0,0,0,2.72,5.55,3.85,3.85,0,0,0,2.55,1.36h.39a5.15,5.15,0,0,0,1.2-.14,2.94,2.94,0,0,1,.59.58l.17.19a15.94,15.94,0,0,1,1.17,1.36.54.54,0,0,0,.31.21,29.49,29.49,0,0,0,1.86,7.86,17.25,17.25,0,0,0,3.61,4.88l.19.21c1.7,1.8,3.48,3.6,5.28,5.35a79.73,79.73,0,0,0,11.75,9.41c1,.63,2,1.27,3.13,1.93l.22.13a3.6,3.6,0,0,1,.69.46,25.63,25.63,0,0,0,2,1.59,25.93,25.93,0,0,0,15.13,5.12c.58,0,1.16,0,1.73-.07A24.66,24.66,0,0,0,76.41,140a13,13,0,0,0,4-2.57,14.09,14.09,0,0,0,1.33-1.58c.25-.32.48-.62.72-.91,1.46-1.71,3-3.42,4.46-5.08,2.47-2.77,5-5.64,7.36-8.62a21.58,21.58,0,0,0,2.29-3.33,24.12,24.12,0,0,0,1.53-3.94,50.14,50.14,0,0,0,2-13.3c0-.36,0-.73,0-1.1.38-.16.74-.34,1.09-.51l.72-.35a.73.73,0,0,0,.41-.68,4.47,4.47,0,0,1,.56-1.68c.13-.27.25-.53.35-.77a32.89,32.89,0,0,0,1.09-3.4.57.57,0,0,0,0-.34h0a15.66,15.66,0,0,0,3.4-8.05,7.43,7.43,0,0,0,0-1.94,3.93,3.93,0,0,0-.15-.59c.19-.89.41-1.77.62-2.63a31.9,31.9,0,0,0,1.16-7.13A6.94,6.94,0,0,0,108.51,67.52Z"/><path class="cls-2" d="M106.85,81.44l.16-.35c.52-3,1.6-5.58,1.67-8.84,0-1.86.08-3.85-1.17-4.89a4,4,0,0,0-2.73-1.15s-.06-.17-.15-.39c.28-1.7,4.12-26.43-3-40.81C94.26,10,71.22.79,59.09.61S27.85,9.45,17.57,26.17,13.12,66.7,13.12,66.7l.28.38-.16,0c-2-1.29-4,1.42-4.78,3-1.75,3.53-1.17,10.32,0,13.7a60.44,60.44,0,0,0,5.32,11l.35.46c1.38,3.12,2.3,7.75,6.46,6.56a24.16,24.16,0,0,1,2.31,2.53l.31-.19c.41,3.23,1.14,7.54,2.65,9.74,1.89,2.74,5,5.48,7.38,8a78,78,0,0,0,16.4,12.54s7.19,6.87,16.93,6.77c0,0,10.91.06,14.58-5.76,0,0,3.59-4.24,5-5.8s8.18-9,9.77-11.89,3.7-10.05,3.62-19l.15.1c.58-.24,1.39-.7,2-.94v-.11a46.12,46.12,0,0,0,2.17-5.9v-.46c1.76-2.21,3.8-7.08,3.06-10Z"/><path class="cls-3" d="M18,74.79c-5.76,4-4.69,15.48,2.38,25.52s17.46,14.91,23.22,10.86,4.68-15.48-2.39-25.52S23.71,70.74,18,74.79Z"/><path class="cls-4" d="M99.52,98.84l.15.1c.58-.24,1.39-.7,2-.94v-.11a46.12,46.12,0,0,0,2.17-5.9v-.46c1.76-2.21,3.8-7.08,3.06-10l0-.11.16-.35c.44-2.58,1.29-4.82,1.57-7.45-5.86-1.74-14.66,2.67-21.16,11.08-7.51,9.71-9.09,21.08-3.53,25.38,3.58,2.77,9.25,1.94,14.84-1.59A53.51,53.51,0,0,0,99.52,98.84Z"/><path class="cls-5" d="M33.89,55.72a35.15,35.15,0,0,0,1.44-9.21c0-5.28-.46-10.84.91-16,2-7.44,11.44-3.21,16.09-1.83a51.37,51.37,0,0,0,11.4,2c3.85.24,11.57.7,14.87-1.76,0,0,5.41-4.05,8.88-3.11s7.32,6.16,7,13.25-.3,17-.3,17L74.6,65.88,56.1,66Z"/><path class="cls-6" d="M55.89,127.05l3.62-2.26s10.45.42,13.88-.46l2.88,2.54A138.75,138.75,0,0,0,55.89,127.05Z"/><path class="cls-7" d="M86.08,111.56c-.06,6.08-9.3,11.13-20.65,11.29s-20.6-4.63-20.58-10.72,9.29-11.19,20.71-11.34S86.15,105.47,86.08,111.56Z"/><path class="cls-8" d="M51.37,76.4l-1.85-.11a19.52,19.52,0,0,1-7.31,2.84A15.15,15.15,0,0,0,51.37,76.4Z"/><path class="cls-9" d="M76.76,76.26l1.52-.13A13.92,13.92,0,0,0,84.2,78.9,10.46,10.46,0,0,1,76.76,76.26Z"/><path class="cls-10" d="M57,93.66a3,3,0,0,1,.61-.55c2.1-1.43,3.42-1.23,4.09-4a37.2,37.2,0,0,0,.52-6.67c.3-4.87-1.56-9.77-3.95-13.86,0,0,0,6.2-1.48,8.65s-5.06,9.93-5.19,12c-.19,2.93,3.46,4.78,4.4,7.21A5.19,5.19,0,0,1,57,93.66Z"/><path class="cls-11" d="M76.65,94.12a3.89,3.89,0,0,1,1.08,1.28c.6-1.48,1.66-2.65,2.21-4.22a15.25,15.25,0,0,0,.93-6.3,7.3,7.3,0,0,0-1.58-2.8c-1.42-2-3.25-3.86-4.37-6-.9-1.75-2-4.31-2-4.31,0,.94.15,6.3.23,8.51.08,2.05-.67,6.93-.24,9.18a1.26,1.26,0,0,0,0,.62,5.67,5.67,0,0,0,.54,1.51c.4.86,1.29,1.73,1.29,2.72,0-.66,1.07-.53,1.4-.42A1.77,1.77,0,0,1,76.65,94.12Z"/><path class="cls-12" d="M64.68,100.54a10.67,10.67,0,0,1-3.36-4c-.58-2.25,1.7-5.3,2.89-7a31.48,31.48,0,0,0,.26-7.84,63,63,0,0,1,.15-12.77l7.28.14s.42,7.17.18,12.33-.52,7-.11,8.36c.56,1.86,2.44,3.77,2.24,5.9a8.29,8.29,0,0,1-3.16,4.94A8.21,8.21,0,0,1,64.68,100.54Z"/><path class="cls-13" d="M56.69,98.69s-.65-4,.65-4.69A4.53,4.53,0,0,1,60,93.55s-.12,3.38.82,4.42C60.84,98,58,97.55,56.69,98.69Z"/><path class="cls-14" d="M76.66,99.25S75.65,98,74.79,98a11.85,11.85,0,0,0,.74-3.64S78.28,94.73,76.66,99.25Z"/><path class="cls-2" d="M63.69,89.82s6.23-1.55,8.85.06l0-1.39s-4.81-1.6-8.86.17Z"/><path class="cls-15" d="M19.9,79A65.66,65.66,0,0,0,25,64.88l6-10.09s3.17-5.15,2.67-10.11S32,28.29,37.1,24.35c0,0,5.81-2.16,14.19,2.3,0,0,14.65,4.78,27.1.13,0,0,6.52-4.3,11-2.16s6.48,7.46,6.74,12.78-1.83,14.86-.68,18.2,3.26,10.52,3.26,10.52L101.1,78l1.46-13.12,2.32-.76c.82-6.12,3-26.55-3.22-39.1C94.26,10,71.22.79,59.09.61S27.85,9.45,17.57,26.17c-8.42,13.72-6,32.37-4.86,38.48l3.38,3.62Z"/><path class="cls-16" d="M18.6,77l1.24,2.33a3.37,3.37,0,0,0,.05-.41A23.92,23.92,0,0,0,20,75.4c-.11-2.58-1-10.67-.2-14.44S24.82,51,24.82,51s-.19-14.1,3.93-20.3a24.23,24.23,0,0,1,9.42-8.48s6.33-1.09,13.66,3.55c0,0,16.63,3.9,26.11.08,0,0,6.23-4.06,10.64-3.23s9.47,9.47,9.47,9.47,2,11.93,1.33,21.46a49.91,49.91,0,0,1,1.19,10.18c0,5.26.42,14.34.42,14.34s1.8-10,2.87-11.78l.82-.39-.05-.12c.28-1.7,4.12-26.43-3-40.81C94.26,10,71.22.79,59.09.61S27.85,9.45,17.57,26.17,13.12,66.7,13.12,66.7l.28.38h0c.51.7,3,4.2,3.56,6C17,73.1,17.64,76,18.6,77Z"/><path class="cls-17" d="M59.09.61C47,.43,27.85,9.45,17.57,26.17c-.61,1-1.16,2-1.66,3A2.94,2.94,0,0,1,18.31,28c-.73-1-.37-1.89.94-1.89-.49-1.14.25-2.16,1.46-1.73A1.59,1.59,0,0,1,22,22.47a5.39,5.39,0,0,0-.37-.63c.31-.08.6,0,.9-.07a2.55,2.55,0,0,1-.17-1.12c.38.13.9,0,1.34.17-.15-1.34.56-1.82,1.45-.78A1.94,1.94,0,0,1,27,18.64c-.36-.27-.68-1.13-.89-1.35.35,0,.78-.09,1.13-.09-.14-.22-.32-.72-.42-.87.32.1.77.07,1.11.18-.88-1.76,1.1-2.6,1.39-.71a1.67,1.67,0,0,1,2.39-1.29c-.33-.26-.6-.79-.89-1,.48.06,1.11-.16,1.6-.1-.33-.29-.47-.92-.65-1.16.69,0,1.07-.35,1.83.17-.46-1.34.34-1.71,1.22-.71-.21-1.33.74-2,1.82-1.39.06-.23,0-.44.08-.67.55.09,1.29-.19,1.82-.07C38,8.29,39,7.82,40.23,8.08,40,7.7,40,7.29,39.83,7c.66.19,1.2,0,1.8.61-.09-1.36,1.52-2.64,2.17-1.09a1.35,1.35,0,0,1,1.89-.61A4.41,4.41,0,0,0,45.46,5c.51.18,1.29.15,1.83.4-.11-.36-.07-.78-.17-1.13.32.21,1,.27,1.33.6-.05-.37.14-.93.09-1.32.82.23,1.05,0,1.6.85A2,2,0,0,1,52,3.59a4.78,4.78,0,0,1,.07.65,13.44,13.44,0,0,0,1.79,0,8.67,8.67,0,0,0-.15-1.14c.32.18.73.14,1.09.42,0-.29.09-.61.1-.9.36.24,1.13.24,1.55.66.79-.93,1.48-.85,1.5.49.56-1,2.44-1.59,2.33.17a1.35,1.35,0,0,1,2,.31,4,4,0,0,0,.09-.92c.17.11.61.31.84.43.32-1.45,1.4-.89,2,.18,1-1.06,2.35-.59,1.9,1,.57-.4,1-.17,1.52-.36.07.23,0,.43.06.65a9.52,9.52,0,0,0,1.56.67c0-.35.26-.83.28-1.09.18.26.7.53.93.91,1.07-1.23,2.24-.43,1.89,1.2,1.08-.81,2.3-.42,1.64,1.05a5.42,5.42,0,0,1,1.83.32,10.11,10.11,0,0,0,0-1.08c.93,1.34,3-.38,2.77,1.86.27-.18.83-.25,1.1-.43-.07.41.12,1,0,1.37a1.28,1.28,0,0,1,1.88,1,5.72,5.72,0,0,0,.22-1.15c.46.48.7.22.93,1.15,1.17-1.5,2.35-.23,1.65,1.36,2-1.65,1.67.71,3.18,1.19.05-.3.15-.59.21-.85,1.06.65,1,2,2.52,1.69-.18.37-.08,1-.37,1.41.47-.14,1.05.12,1.5,0,0,.34.1.78.06,1.12.28.22,1,.69,1.35.91.14-.23.34-.49.46-.67.59,1,1.9,1.8,1.67,2.9.34,0,.72.06,1,0a8.17,8.17,0,0,0,.06,1.11,2.82,2.82,0,0,1,1.33,1.39c.86-1.3,1.41.06,1.17,1.24.22-.08.63-.1.84-.18,0,.49.37,1,.29,1.6,1.31.08,1.1,1.55,1.36,2.61a2.61,2.61,0,0,1,.66-.23c-.34-.89-.71-1.76-1.12-2.59C94.26,10,71.22.79,59.09.61Z"/><path class="cls-18" d="M51.18,134.8c-.84-1.71-4.73-8-7.12-10s-3-9.1-3.18-12.54S33.71,99.11,29.57,95.66A83.33,83.33,0,0,1,20.41,86L22.3,91c.86,2.09-.37,7-1.24,8.88-.7,1.54-2.83,1.52-3.65,1.46a3.38,3.38,0,0,0,3.18.46,24.16,24.16,0,0,1,2.31,2.53l.31-.19c.41,3.23,1.14,7.54,2.65,9.74,1.89,2.74,5,5.48,7.38,8a78,78,0,0,0,16.4,12.54,72.09,72.09,0,0,0,7.68,4.87C55.18,137.83,51.73,135.9,51.18,134.8Z"/><path class="cls-19" d="M100.57,96.92c-.48-2.08.7-9.71.7-9.71-.2,1.73-2.53,6.6-5,9.91s-6,9.54-6.44,14.88-1.7,10.14-4.32,13.42c-2.22,2.78-5,9.49-5.57,11.59a11.33,11.33,0,0,0,.71-1s4.08-4.81,5.47-6.37,8.18-9,9.77-11.89,3.7-10.05,3.62-19l.15.1c.58-.24,1.39-.7,2-.94v-.11c.31-.69.6-1.4.88-2.12A4.27,4.27,0,0,1,100.57,96.92Z"/><path class="cls-20" d="M89.48,115.14c-.81,2.55-1.51,5-2.09,7.22A26.73,26.73,0,0,0,89.48,115.14Zm-45.42,9.62c-2.39-2-3-9.1-3.18-12.54S33.71,99.11,29.57,95.66A83.33,83.33,0,0,1,20.41,86L22.3,91a3.24,3.24,0,0,1,.2.76c3.05,2.51,11.78,10,15.7,16.61,4.78,8,3.08,20.4,3.08,20.4L44,130.89q2.2,1.53,4.5,2.9l1.83-.59C48.78,130.64,46,126.37,44.06,124.76ZM80,137a11.33,11.33,0,0,0,.71-1s3.12-3.68,4.84-5.65c.29-1.43.93-4.38,1.89-8a15.83,15.83,0,0,1-1.87,3.06C83.3,128.2,80.54,134.91,80,137ZM96.28,97.12c-2.46,3.3-6,9.54-6.44,14.88-.08,1.07-.2,2.12-.36,3.14,2.46-7.76,6-16.29,10.39-20.58l.64-.63c.18-3,.76-6.72.76-6.72C101.07,88.94,98.74,93.81,96.28,97.12Z"/><path class="cls-21" d="M30.66,72.76s-6.25-4.3-5.43-7.47S33.28,60,33.28,60l17.64,2.28,5.41,3.84S55.44,73.57,51,75Z"/><path class="cls-22" d="M76.55,74.86s-3.73-5.7-1.84-9S83.08,62,83.08,62L94,60.41l3.9,1.72,2,2.35s-.87,5-4.49,7.84Z"/><path class="cls-23" d="M74.34,99.17c-1.72-.07-3,2.36-3,2.36-4.15,1.93-7,0-7,0s-2.72-2.67-4.88-2.74a3.76,3.76,0,0,0-3.21,1.84,13.47,13.47,0,0,0,9.51,6.49c.23.69.81,2.16,1.67,2.16s1.63-1.87,2-2.75c2.78-1.16,5.27-3.52,6-3.87a3.93,3.93,0,0,0,1.4-1.83A3.06,3.06,0,0,0,74.34,99.17Z"/><path d="M59.43,100.61a4.07,4.07,0,0,1,2.69,1.07s-2.25.6-3.32-1Z"/><path d="M72.79,101.43s.76-.87,1.39-.7a1.6,1.6,0,0,1,.9.63,3.36,3.36,0,0,1-2.52.31Z"/><path class="cls-24" d="M31.35,68.83c2.25-2.21,5.67-3.08,8.73-3.29a12.68,12.68,0,0,1,9.41,3.19,0,0,0,0,0,.06-.06c-2.38-2.82-6-3.26-9.47-3.27-3.17,0-6.77.65-8.75,3.41,0,0,0,0,0,0Z"/><path class="cls-25" d="M79.57,68.13c4.7-4,12-3.34,16.51.58,0,0,0,0,0,0a11.71,11.71,0,0,0-9-3.59,11.84,11.84,0,0,0-7.61,3,0,0,0,0,0,0,0Z"/><path class="cls-26" d="M106.23,79.61A34.9,34.9,0,0,0,108,70.8l-.14-1.46a5.82,5.82,0,0,0-.79-.93,55.67,55.67,0,0,0-5.23,14.91s.47,1.19-.63,4.58c0,0,.19,3.56,1.14,3.2s3.61-4.7,3.44-8.61c0,0-.54-3.39-.1-3.92Z"/><path class="cls-27" d="M18.3,94.35,20.56,94l.4-1a8.1,8.1,0,0,1-1.49-2.78,16.53,16.53,0,0,1,.12-3.37c0-2.22-1.38-4.31-2.54-6.28-.92-1.64-6.49-12.86-8.71-8.38a51.51,51.51,0,0,0-.92,5.87,23.55,23.55,0,0,0,1,5.71,60.44,60.44,0,0,0,5.32,11l.35.46c.43,1,.82,2.09,1.27,3.13h.11S16,94.71,18.3,94.35Z"/><path class="cls-28" d="M103.21,84.59a8.39,8.39,0,0,0-.33-2.86c.17-.44.34-.91.52-1.39l.1,1.47s.36-3.72,1.92-4.66L105,76.1c1.35-3.59,2.6-6.87,2.6-6.87l-.56-.64a6.55,6.55,0,0,0-.37.55c-.72,1.4-1.42,3-2.07,4.63-.45,1.29-.88,2.63-1.25,3.89l-.11.14V78c-.79,2.73-1.31,4.93-1.31,4.93l-.05.84a4.19,4.19,0,0,1,0,.73l.06-.16-.06.29a13.5,13.5,0,0,1-.61,2.92A4.66,4.66,0,0,0,103.21,84.59Z"/><path class="cls-29" d="M19.59,86.84c0-2.22-1.38-4.31-2.54-6.28-.92-1.64-6.49-12.86-8.71-8.38,0,0,0,.16-.1.46l0,.06s1-.52,2.67.74a29.7,29.7,0,0,1,.76,10.06s1.6-4.52,1.06-8.17a21.66,21.66,0,0,1,2,3.24c-1.13.62-1.68,6.33-1.68,6.33l-.09,1A8.15,8.15,0,0,1,16,81a35.36,35.36,0,0,1,2,5.31c-.11.13-.41.34-1.27.5,0,0-1.28.94-.18,4.19l1,2.38S19.11,92,20,93.06l-.05-.18a2.28,2.28,0,0,0,.34.29l.65-.23a7.88,7.88,0,0,1-1.45-2.73A16.53,16.53,0,0,1,19.59,86.84Z"/><path class="cls-30" d="M46.78,115.13s4.55,3.4,6.09,4.79a22.74,22.74,0,0,0,7,3.66c2.66.72,10.6.84,13.45-.38,2.2-.94,5.17-4.61,6.43-5.63l4.66-3.71a41.33,41.33,0,0,1-4.92,1c-1.47.09-10.36-.85-10.36-.85l-9.29-.37Z"/><path class="cls-31" d="M54.5,120.58a1.19,1.19,0,0,0,.19.64,27.42,27.42,0,0,0,4.49,2.15,33.91,33.91,0,0,0,6.65.75c2.88,0,5.92-.26,7.47-.92a15.72,15.72,0,0,0,4.11-3.34c-1.48-1.37-5.85-2.41-11-2.49C59.87,117.28,54.57,118.71,54.5,120.58Z"/><path class="cls-32" d="M79.73,117.57l4.66-3.71a41.33,41.33,0,0,1-4.92,1c-1.47.09-10.36-.85-10.36-.85l-9.29-.37-13,1.53s2.82,2.11,4.78,3.69l.13-.06s-.94-1.5-.44-1.73a5.21,5.21,0,0,1,2.54,0,39.57,39.57,0,0,1,5.14.27,42.09,42.09,0,0,0,6.25.57c2.94.18,5.88-.47,8.81-.53.51,0,4.43.35,4.53-.18a9.7,9.7,0,0,1-1.7,3c-.15.14-.16.27-.08.37C78,119.33,79.08,118.1,79.73,117.57Z"/><path class="cls-32" d="M73.3,123.2a11.91,11.91,0,0,0,3-2.28,10.52,10.52,0,0,1-3.52,1.82c-3,1-9.42.66-12,.39s-6.65-2.27-6.65-2.27l0,0a24.6,24.6,0,0,0,5.68,2.69C62.51,124.3,70.45,124.42,73.3,123.2Z"/><path class="cls-32" d="M81.68,114.39c-1.72.19-3.88-1.18-5.39-1.77a29.13,29.13,0,0,0-3.8-1.25,8.25,8.25,0,0,0-1.85-.33c-.69,0-1,.36-1.62.64a5.85,5.85,0,0,1-1.93.54c-1.06.1-2.14-.87-3-1.24a5,5,0,0,0-3,.13c-1.13.23-2.24.55-3.34.89-2.15.67-4.26,1.49-6.41,2.16a12.62,12.62,0,0,1-7.12.12c5.58,2.27,10.87,1.66,18.11,1.08h.12a7.33,7.33,0,0,0,4.61,1.33l.12-.12.24.25c1.11-.22,2.7-.42,3.59-1.21,5.74.08,10.32,1.53,15.64-3.44C86.65,112.17,83.52,114.19,81.68,114.39Z"/><path class="cls-33" d="M67.06,116.51a10.26,10.26,0,0,1-2.59-.38,6.35,6.35,0,0,1-1.34-.57c-.26-.14-.37-.27-.67-.28a24.51,24.51,0,0,0-2.84.22c-1.15.1-2.3.18-3.46.25a28.48,28.48,0,0,1-11.93-1.48s0,0,0,0c3.78,1.58,7.84,1.79,11.94,1.6,1.15-.06,2.3-.14,3.46-.23l2-.16a6.47,6.47,0,0,1,.76,0s0,.18.06.2a6.5,6.5,0,0,0,4.65,1.23C67.34,116.85,67.28,116.51,67.06,116.51Zm19.54-4.39a14.2,14.2,0,0,1-5,3,14.59,14.59,0,0,1-4.87.61c-1.57,0-3.13-.24-4.7-.3a5.55,5.55,0,0,0-1.08,0c-.22,0-.64.4-.88.51a13.16,13.16,0,0,1-2.7.74c-.11,0-.07.17,0,.15a13.44,13.44,0,0,0,2.52-.53,3,3,0,0,0,.76-.37c.44-.31.81-.18,1.33-.15,1.72.06,3.44.15,5.17.15a13.41,13.41,0,0,0,9.48-3.76C86.78,112.16,86.67,112.06,86.6,112.12Z"/><path class="cls-34" d="M58.9,102.9a4.83,4.83,0,0,1-2.75-3.21,15.44,15.44,0,0,1,.11-5.42c0-.06-.08-.07-.09,0-.29,1.84-.82,4-.34,5.86a4.08,4.08,0,0,0,3.05,2.82s0,0,0,0Z"/><path class="cls-35" d="M57.9,101.22c2-1.58,4.13.7,5.76,1.58.08,0,.21,0,.15-.14a6.88,6.88,0,0,0-3-1.94,2.68,2.68,0,0,0-3,.45s0,.08.06,0Z"/><path class="cls-36" d="M64,103.6c2.18.78,5.74,1.22,7.68-.5.14-.12,0-.29-.17-.23a10.43,10.43,0,0,1-3.79,1,13.21,13.21,0,0,1-3.71-.35,0,0,0,1,0,0,0Z"/><path class="cls-37" d="M72,102.69a4.54,4.54,0,0,1,1.17-1.54c.83-.73,1.72.07,2.24.76.15.18.47-.06.34-.26a3.08,3.08,0,0,0-1.84-1.27.18.18,0,0,0-.21.09c-.23.39-.81.7-1.12,1a3.87,3.87,0,0,0-.7,1.11c0,.08.08.15.12.07Z"/><path class="cls-38" d="M75.46,102.71c1.55-1,2.18-3.29,2.37-5,.17-1.54-.14-4-2.12-4.16-.09,0-.1.13,0,.16,1.84.56,2.06,2.45,1.87,4.17s-.79,3.73-2.2,4.67c-.1.07,0,.24.1.17Z"/><path class="cls-39" d="M74.88,94.65a21.1,21.1,0,0,0-1.37-3.51,8.5,8.5,0,0,1-.64-3.47c-.08-2.44.35-4.87.29-7.32a0,0,0,0,0,0,0c-.16,2.44-.47,4.88-.52,7.32a6.26,6.26,0,0,0,.28,2.86,30,30,0,0,1,1.91,4.15.05.05,0,0,0,.1,0Z"/><path class="cls-40" d="M73,79.54c.38-4.84-.91-10,2-14.33,0-.06,0-.13-.1-.08-3.16,4.07-1.57,9.76-1.9,14.41,0,0,0,0,0,0Z"/><path class="cls-41" d="M22.94,102c.37,3.57.74,7.29,2.13,10.6a17.86,17.86,0,0,0,3.71,4.93c1.71,1.81,3.47,3.6,5.26,5.33a78.94,78.94,0,0,0,11.67,9.35c1,.67,2,1.3,3.11,1.92a6,6,0,0,1,1,.64,24.66,24.66,0,0,0,2,1.56,25.19,25.19,0,0,0,16.51,5,24.79,24.79,0,0,0,7.9-1.79A12.61,12.61,0,0,0,80,137a30,30,0,0,0,2-2.46c3.9-4.57,8.09-8.93,11.8-13.67a21.91,21.91,0,0,0,2.24-3.26,23.33,23.33,0,0,0,1.5-3.84,49.84,49.84,0,0,0,2-13.16c.09-3.3-.23-6.66.71-9.9a41.37,41.37,0,0,0,1.59-5.84,9.61,9.61,0,0,0-.32-3.11c-.72-4,.35-8.07,1.29-12,.24-1,.5-2.08.82-3.09,0-.13.09-.25.13-.37s.64-.21.84-.32.12-.57.14-.69q.17-1.08.3-2.16c.33-2.63.56-5.27.72-7.92a80.83,80.83,0,0,0-1.38-22.39,33,33,0,0,0-3.94-10.11,35.64,35.64,0,0,0-7.16-8.18A61,61,0,0,0,73.58,3.47C67.72,1.41,61.41,0,55.15.74A49.35,49.35,0,0,0,34.79,8.59,54.91,54.91,0,0,0,16.89,27c-4.14,7.18-5.49,15.68-5.53,23.83a71.72,71.72,0,0,0,1.51,15.34,1.62,1.62,0,0,0,.2.68c.75,1,1.46,2.08,2.13,3.15a19.91,19.91,0,0,1,2,4.28,25,25,0,0,0,2.18,4.43l.39.66c-.07-.11-.05.13-.07.26s-.08.48-.11.72a10.26,10.26,0,0,0,.25,4.48c.93,3,2.69,5.67,3.07,8.79,0,.07.12.07.11,0a21.92,21.92,0,0,0-1.7-5.52,16.36,16.36,0,0,1-1.62-5.4,13.84,13.84,0,0,1,.23-3c.05-.29.1-.37-.05-.62a32.05,32.05,0,0,1-2.21-4.28c-.27-.64-.42-1.33-.67-2a15.84,15.84,0,0,0-1-2c-.74-1.28-1.58-2.52-2.44-3.73a7,7,0,0,1-.75-2.74,72,72,0,0,1-.85-19.12A49.38,49.38,0,0,1,14.66,32.6a42,42,0,0,1,7-11.84A57.69,57.69,0,0,1,41.75,5.1C47.86,2.21,54.62.23,61.36.84,68.44,1.48,75.42,4,81.72,7.15c6.87,3.45,13.48,8.16,17.91,14.59s5.65,14.48,6.06,22.11a108.5,108.5,0,0,1-.75,19.07c-.09.76-.19,1.52-.31,2.27,0,.19,0,.37-.08.56s0,.1-.32.22c-.51.21-.56.19-.71.67-.34,1-.58,2.06-.83,3.09-.91,3.77-1.92,7.69-1.37,11.54a18.14,18.14,0,0,1,.44,3.19c-.09,2.09-1,4.2-1.62,6.2-.9,3-.68,6.21-.71,9.3a49,49,0,0,1-2,13.76,21.11,21.11,0,0,1-1.59,4,22.91,22.91,0,0,1-2.48,3.48c-2,2.57-4.23,5-6.43,7.46-1.82,2-3.58,4.09-5.34,6.16a22.25,22.25,0,0,1-2.21,2.53,14,14,0,0,1-4.48,2.41,24.62,24.62,0,0,1-16.72-.23,27.83,27.83,0,0,1-7.72-4.51,12.86,12.86,0,0,0-1.8-1.26,70.83,70.83,0,0,1-6.37-4.21,99.31,99.31,0,0,1-11.46-10.25,38.14,38.14,0,0,1-5-5.62,15.39,15.39,0,0,1-1.9-5.41c-.44-2.09-.69-4.21-.93-6.34,0,0,0,0,0,0Z"/><path class="cls-42" d="M104.78,66.25a4,4,0,0,1,3.55,2.69,11.62,11.62,0,0,1,.2,4c-.14,2.79-1.16,5.45-1.57,8.2,0,0,.08.06.09,0,.68-3.25,1.72-6.31,1.76-9.65a6.47,6.47,0,0,0-.74-3.64,4,4,0,0,0-3.29-1.64s0,.07,0,.08Z"/><path class="cls-43" d="M107.88,69.31c-.24-.35-.52-.64-.78-1a.09.09,0,0,0-.14,0,50.13,50.13,0,0,0-3.15,7.21c-.34,1-.67,1.94-1,2.92,0,0-.11,0-.1.06s0,.16,0,.23a35.41,35.41,0,0,0-1,4.51c0,.1.13.15.15,0,.26-1.32.57-2.63.94-3.94.16,1.28.54,2.54.72,3.8a7.08,7.08,0,0,1-1.39,5.56s0,0,0,0a6.65,6.65,0,0,0,1.62-4.54,22.14,22.14,0,0,0-.81-5.35c.31-1.09.66-2.17,1-3.24.2-.55.41-1.1.62-1.65a13.59,13.59,0,0,0,1.12,4.52A12.62,12.62,0,0,1,106.81,83c.07,3-1.38,6.06-3,8.51,0,0,0,.08,0,0a15,15,0,0,0,3.37-7.88,6.32,6.32,0,0,0,0-1.79,11.27,11.27,0,0,0-.93-2.39,17.27,17.27,0,0,1-1.6-5.58c.33-.86.68-1.71,1.06-2.56.26-.59.53-1.16.81-1.74.15-.31.31-.62.47-.93s.76.69.77.7S107.93,69.38,107.88,69.31Z"/><path class="cls-44" d="M103.77,92c-.54,1.6-1.07,3.2-1.72,4.76a11.93,11.93,0,0,0-.6,1.1c0,.17,0,0-.12.07-.59.27-1.16.58-1.74.87-.19.09-.07.41.13.33.69-.25,1.34-.63,2-.93a.22.22,0,0,0,.11-.18,7.9,7.9,0,0,1,.93-2.66A32.5,32.5,0,0,0,103.85,92s-.06-.08-.08,0Z"/><path class="cls-45" d="M23,104.3c-.26-.33-.52-.65-.8-1a9.35,9.35,0,0,1-1.42-1.6.16.16,0,0,0-.18-.07,3.92,3.92,0,0,1-2.66-.21,4.58,4.58,0,0,1-1.63-1.7c-.89-1.43-1.25-3.09-2-4.56a.11.11,0,0,0-.21.09A18,18,0,0,0,16.75,101a3.31,3.31,0,0,0,2.19,1.17,4.83,4.83,0,0,0,1.47-.12c.42-.1,1,.66,1.23.92q.63.67,1.2,1.41c.05.07.16,0,.11-.07Z"/><path class="cls-46" d="M13.79,94.78c-2.84-4.92-5.56-10.26-6.15-16a19.63,19.63,0,0,1,.42-7.52c.1-.33.18-.16.25-.32s.21-.5.33-.74a9,9,0,0,1,1-1.57c.85-1.09,2.1-2.06,3.49-1.35a.17.17,0,0,0,.16-.29c-2.07-1.35-4,1.21-5,2.84-.11.2-.5.82-.41,1.06s-.12.72-.19,1-.17.76-.24,1.13a19.73,19.73,0,0,0-.31,4.27,23.76,23.76,0,0,0,1.63,8,54.68,54.68,0,0,0,4.93,9.52s0,0,0,0Z"/><path class="cls-47" d="M23,98.66a27.54,27.54,0,0,0-.43-3.25s-.06,0-.05,0A32.25,32.25,0,0,1,23,98.66Z"/><path class="cls-48" d="M17.88,93.18c-.53.37-1.52-3-1.6-3.4a5.23,5.23,0,0,1-.08-2c.18-1,.89-1,1.66-1.22.94-.29.92-1.74.85-2.5a0,0,0,0,0-.08,0,10.31,10.31,0,0,1-.2,1.74c-.23.78-1,.67-1.57.85s-.81,1.08-.85,1.66a8,8,0,0,0,1.67,5.11,0,0,0,0,0,.07,0c.82-.59,1.66-1.18,2.49-.15,0,0,.08,0,.05-.05C19.56,92.28,18.76,92.56,17.88,93.18ZM13.55,81.81c-.18,1.35-.53,2.68-.7,4s-.21,2.86.66,3.88c.05.06.15,0,.11-.09-1.42-2-.42-5,0-7.23.16-.86.54-5.16,2.05-3.46,0,0,0,0,0,0C14.2,77.17,13.67,80.94,13.55,81.81ZM21,93a12.72,12.72,0,0,1-1.38-2.79,10.57,10.57,0,0,1,0-3.32c.1-1.8-.89-3.55-1.75-5-1-1.68-1.87-3.39-2.86-5-.81-1.36-4.95-8.41-6.75-4.58,0,0,0,0,0,0,.86-1.51,2.12-1,3.34.27,0,0-.06,0,0,.08,1.16,1.88,1.15,4.29,1,6.43A18.5,18.5,0,0,1,12,82.58a10,10,0,0,1-.58,1.53,5.86,5.86,0,0,1-.3.55c-.22.37-.49.2-.78,0,0,0-.06,0,0,.06.47.33.21.23.59.35l0,0C12.2,83.38,12.54,81,12.74,79s.29-4.64-.86-6.33a29.52,29.52,0,0,1,3.55,5.23c1,1.69,2,3.4,2.88,5.13a11,11,0,0,1,1.06,2.73,9.13,9.13,0,0,1,0,3,4.31,4.31,0,0,0,.21,2.41,6.79,6.79,0,0,0,1.35,2C21,93.12,21.08,93,21,93Z"/><path d="M25.12,64.48s4.4-3.35,7.75-3,11.61,3,17.94,3.16c0,0,4,.53,4.58.53a5.15,5.15,0,0,1,1.41.35s-1.76-4.92-3.88-7c0,0-3.51.7-10.55-1.59s-8.27-3.52-12-3.17C30.4,53.74,26,57.09,25.12,64.48Z"/><path class="cls-49" d="M55.63,64.49h-.24c-.31,0-2.55-.27-4.48-.53h-.08a69,69,0,0,1-12.54-2.09,54,54,0,0,0-5.35-1.07,5.49,5.49,0,0,0-.58,0A13.17,13.17,0,0,0,26.08,63a15.52,15.52,0,0,1,4.61-8.56c.31,0,.6,0,.89,0,1.75,0,3.06.49,5.45,1.38,1.31.49,2.94,1.1,5.12,1.81a30.48,30.48,0,0,0,9.24,1.72,12,12,0,0,0,1.27-.06,21,21,0,0,1,3,5.25Z"/><path d="M99.89,64.48s-3.47-3.35-6.11-3-9.15,3-14.14,3.16c0,0-3.19.53-3.61.53a3.46,3.46,0,0,0-1.11.35s1.39-4.92,3-7c0,0,2.78.7,8.32-1.59s6.52-3.52,9.44-3.17C95.73,53.74,99.19,57.09,99.89,64.48Z"/><path class="cls-50" d="M76,64.48a23,23,0,0,1,2.3-5.22c.22,0,.52,0,.89,0a19.65,19.65,0,0,0,7.38-1.74c1.73-.71,3-1.32,4-1.81,1.91-.91,2.87-1.36,4.19-1.36l.59,0A16.94,16.94,0,0,1,99,62.79a8.88,8.88,0,0,0-4.77-2,4,4,0,0,0-.49,0,33.9,33.9,0,0,0-4.26,1.08A43.65,43.65,0,0,1,79.61,64h-.09c-1.51.25-3.23.51-3.49.52Z"/><path d="M50.4,73c-2.4-7.57-10-7-10-7a13,13,0,0,0-6.64,2.44,11.55,11.55,0,0,0-2.92,3.31c2.29,3.46,7,4.22,7,4.22L36.16,72.8Z"/><path class="cls-51" d="M32.52,73c5.54,5,12.22,3.69,17.15,1.32,0,0,1.5.17,1.76-.09s-1-1.14-1-1.14a10.24,10.24,0,0,0-16.71-2.38c-.53.53-1,1.23-1.5,1.85Z"/><path class="cls-52" d="M41,76.35A5,5,0,0,0,44.6,68a10.28,10.28,0,0,0-7.54.41,5,5,0,0,0,3.94,8Z"/><path class="cls-53" d="M36.61,71.38a4.4,4.4,0,1,0,6.63-3.78,10.2,10.2,0,0,0-4.87.27A4.37,4.37,0,0,0,36.61,71.38Z"/><path d="M43.6,71.38A2.6,2.6,0,1,1,41,68.79,2.59,2.59,0,0,1,43.6,71.38Z"/><path class="cls-54" d="M42.84,71.38A1.84,1.84,0,1,1,41,69.55,1.84,1.84,0,0,1,42.84,71.38Z"/><path class="cls-51" d="M42.07,69.23A1.07,1.07,0,1,1,41,68.16,1.07,1.07,0,0,1,42.07,69.23Z"/><path class="cls-51" d="M41.52,73.92a.52.52,0,1,1-.52-.51A.51.51,0,0,1,41.52,73.92Z"/><path d="M50.47,73.09A10.46,10.46,0,0,0,42,67.19a10.24,10.24,0,0,0-5.14,1,12.09,12.09,0,0,0-4.66,4.29.1.1,0,0,0,.16.12c.73-.74,1.3-1.59,2.08-2.29a11.43,11.43,0,0,1,2.24-1.54,10.39,10.39,0,0,1,5.1-1.14c3.89.1,6.76,2.2,8.71,5.43,0,0,0,0,0,0Z"/><path class="cls-55" d="M32.48,73.05a13.24,13.24,0,0,0,8.6,3.44,17.18,17.18,0,0,0,8.61-2.13s0-.08,0-.07a23.66,23.66,0,0,1-8.09,2.1,13.09,13.09,0,0,1-9-3.42.05.05,0,0,0-.07.08Z"/><path d="M78.51,73a9.1,9.1,0,0,1,9.24-7,10.75,10.75,0,0,1,8.81,5.75C94.45,75.21,90.13,76,90.13,76l1.51-3.17Z"/><path class="cls-51" d="M95,73c-5.11,5-11.27,3.69-15.81,1.32,0,0-1.37.17-1.62-.09s.89-1.14.89-1.14c3-6.42,10.7-7.66,15.41-2.38.48.53.89,1.23,1.38,1.85Z"/><path class="cls-56" d="M86.24,76.35a4.83,4.83,0,0,0,4.69-5,5.15,5.15,0,0,0-1.4-3.54,8.72,8.72,0,0,0-7.25.88,5.18,5.18,0,0,0-.74,2.66A4.84,4.84,0,0,0,86.24,76.35Z"/><path class="cls-57" d="M82.08,71.38a4.16,4.16,0,1,0,8.31,0,4.44,4.44,0,0,0-2.15-3.85,8.67,8.67,0,0,0-4.77.58A4.48,4.48,0,0,0,82.08,71.38Z"/><path d="M88.69,71.38a2.45,2.45,0,1,1-2.45-2.59A2.53,2.53,0,0,1,88.69,71.38Z"/><path class="cls-58" d="M88,71.38a1.73,1.73,0,1,1-1.73-1.83A1.79,1.79,0,0,1,88,71.38Z"/><path class="cls-51" d="M87.24,69.23a1,1,0,1,1-1-1.07A1,1,0,0,1,87.24,69.23Z"/><path class="cls-51" d="M86.72,73.92a.49.49,0,1,1-.48-.51A.5.5,0,0,1,86.72,73.92Z"/><path d="M78.45,73.09a9.7,9.7,0,0,1,7.84-5.9,8.86,8.86,0,0,1,4.74,1,11.54,11.54,0,0,1,4.29,4.29c.06.1-.08.2-.15.12-.67-.74-1.2-1.59-1.92-2.29a10.25,10.25,0,0,0-2.06-1.54,9,9,0,0,0-4.7-1.14c-3.58.1-6.23,2.2-8,5.43,0,0,0,0,0,0Z"/><path class="cls-55" d="M95,73.05a11.74,11.74,0,0,1-7.93,3.44,14.82,14.82,0,0,1-7.93-2.13s0-.08,0-.07a20.48,20.48,0,0,0,7.46,2.1A11.54,11.54,0,0,0,95,73s.11,0,.07.08Z"/></g></g></svg>