<svg xmlns="http://www.w3.org/2000/svg" xmlns:xlink="http://www.w3.org/1999/xlink" viewBox="0 0 107.23 172.81"><defs><style>.cls-1{fill:url(#linear-gradient);}.cls-2{fill:#ffc2a7;}.cls-3{fill:url(#linear-gradient-2);}.cls-4{fill:url(#linear-gradient-3);}.cls-5{fill:url(#linear-gradient-4);}.cls-6{fill:url(#radial-gradient);}.cls-7{fill:url(#radial-gradient-2);}.cls-8{fill:url(#linear-gradient-5);}.cls-9{fill:url(#linear-gradient-6);}.cls-10{fill:url(#linear-gradient-7);}.cls-11{fill:url(#linear-gradient-8);}.cls-12{fill:url(#linear-gradient-9);}.cls-13{fill:url(#linear-gradient-10);}.cls-14{fill:url(#linear-gradient-11);}.cls-15{fill:url(#linear-gradient-12);}.cls-16{fill:url(#linear-gradient-13);}.cls-17{fill:url(#linear-gradient-14);}.cls-18{fill:url(#linear-gradient-15);}.cls-19{fill:url(#linear-gradient-16);}.cls-20{fill:url(#linear-gradient-17);}.cls-21{fill:#c57762;}.cls-22{fill:#a9563f;}.cls-23{fill:#954e47;}.cls-24{fill:url(#linear-gradient-18);}.cls-25{fill:#f3796c;}.cls-26{fill:url(#radial-gradient-3);}.cls-27{fill:#c23a49;}.cls-28{fill:url(#linear-gradient-19);}.cls-29{fill:url(#linear-gradient-20);}.cls-30{fill:url(#linear-gradient-21);}.cls-31{fill:url(#linear-gradient-22);}.cls-32{fill:#fff;}.cls-33{fill:url(#linear-gradient-23);}.cls-34{fill:url(#linear-gradient-24);}.cls-35{fill:url(#linear-gradient-25);}.cls-36{fill:#eba9a9;}.cls-37{fill:url(#linear-gradient-26);}.cls-38{fill:url(#linear-gradient-27);}.cls-39{fill:url(#linear-gradient-28);}.cls-40{fill:url(#linear-gradient-29);}.cls-41{fill:url(#linear-gradient-30);}.cls-42{fill:url(#linear-gradient-31);}.cls-43{fill:url(#linear-gradient-32);}.cls-44{fill:url(#linear-gradient-33);}.cls-45{fill:url(#linear-gradient-34);}.cls-46{fill:url(#linear-gradient-35);}.cls-47{fill:url(#linear-gradient-36);}</style><linearGradient id="linear-gradient" x1="55.86" y1="117.84" x2="55.86" y2="148.46" gradientUnits="userSpaceOnUse"><stop offset="0" stop-color="#d4866f"/><stop offset="1" stop-color="#ffc2a7"/></linearGradient><linearGradient id="linear-gradient-2" x1="42.31" y1="77.77" x2="42.31" y2="81.93" xlink:href="#linear-gradient"/><linearGradient id="linear-gradient-3" x1="11.1" y1="77.24" x2="11.1" y2="81.4" gradientTransform="matrix(-0.72, 0, 0, 1, 85.83, 0)" xlink:href="#linear-gradient"/><linearGradient id="linear-gradient-4" x1="64.21" y1="120.78" x2="64.04" y2="132.11" xlink:href="#linear-gradient"/><radialGradient id="radial-gradient" cx="-457.82" cy="826.18" r="53.97" gradientTransform="matrix(0.22, -0.05, 0.08, 0.34, 57.38, -206)" gradientUnits="userSpaceOnUse"><stop offset="0" stop-color="#ffd9bd"/><stop offset="1" stop-color="#ffc2a7"/></radialGradient><radialGradient id="radial-gradient-2" cx="585.56" cy="832.54" r="53.97" gradientTransform="matrix(0.21, 0.08, -0.12, 0.32, 70.08, -216.71)" xlink:href="#radial-gradient"/><linearGradient id="linear-gradient-5" x1="59.26" y1="42.95" x2="59.26" y2="66.32" gradientTransform="matrix(1, 0, 0, 1, 0, 0)" xlink:href="#radial-gradient"/><linearGradient id="linear-gradient-6" x1="67.74" y1="99.19" x2="47.81" y2="84.36" xlink:href="#linear-gradient"/><linearGradient id="linear-gradient-7" x1="66.59" y1="94.85" x2="77.42" y2="85.62" xlink:href="#linear-gradient"/><linearGradient id="linear-gradient-8" x1="56.43" y1="94.29" x2="56.43" y2="131.89" xlink:href="#linear-gradient"/><linearGradient id="linear-gradient-9" x1="65.84" y1="97.77" x2="65.84" y2="74.87" gradientTransform="matrix(1, 0, 0, 1, 0, 0)" xlink:href="#radial-gradient"/><linearGradient id="linear-gradient-10" x1="50.39" y1="98.46" x2="53.8" y2="101.21" gradientTransform="matrix(1, 0, 0, 1, 0, 0)" xlink:href="#radial-gradient"/><linearGradient id="linear-gradient-11" x1="77.41" y1="98.48" x2="73.96" y2="101.15" gradientTransform="matrix(1, 0, 0, 1, 0, 0)" xlink:href="#radial-gradient"/><linearGradient id="linear-gradient-12" x1="57.27" y1="43.34" x2="57.27" y2="81.34" xlink:href="#linear-gradient"/><linearGradient id="linear-gradient-13" x1="38.7" y1="61.78" x2="38.7" y2="76.37" xlink:href="#linear-gradient"/><linearGradient id="linear-gradient-14" x1="84.8" y1="60.15" x2="84.8" y2="76.01" xlink:href="#linear-gradient"/><linearGradient id="linear-gradient-15" x1="63.89" y1="104.9" x2="63.89" y2="115.69" xlink:href="#linear-gradient"/><linearGradient id="linear-gradient-16" x1="12.13" y1="86.54" x2="3.56" y2="93.58" xlink:href="#linear-gradient"/><linearGradient id="linear-gradient-17" x1="96.43" y1="89.54" x2="101.47" y2="91.65" xlink:href="#linear-gradient"/><linearGradient id="linear-gradient-18" x1="63.71" y1="93.76" x2="63.71" y2="78.03" gradientUnits="userSpaceOnUse"><stop offset="0" stop-color="#a9563f"/><stop offset="1" stop-color="#e9a68c"/></linearGradient><radialGradient id="radial-gradient-3" cx="8.58" cy="1301.82" r="39.44" gradientTransform="translate(62.64 -198.6) scale(0.25)" gradientUnits="userSpaceOnUse"><stop offset="0" stop-color="#f3a490"/><stop offset="1" stop-color="#f38976"/></radialGradient><linearGradient id="linear-gradient-19" x1="84.71" y1="64.43" x2="84.71" y2="60.06" gradientUnits="userSpaceOnUse"><stop offset="0"/><stop offset="1" stop-color="#1b2a31"/></linearGradient><linearGradient id="linear-gradient-20" x1="-77.92" y1="64.43" x2="-77.92" y2="60.06" gradientTransform="matrix(-1.25, 0, 0, 1, -58.94, 0)" xlink:href="#linear-gradient-19"/><linearGradient id="linear-gradient-21" x1="28.93" y1="77.12" x2="40.16" y2="77.12" xlink:href="#linear-gradient"/><linearGradient id="linear-gradient-22" x1="91.16" y1="76.8" x2="82.37" y2="76.8" xlink:href="#linear-gradient"/><linearGradient id="linear-gradient-23" x1="37.76" y1="77.41" x2="37.76" y2="70.96" gradientUnits="userSpaceOnUse"><stop offset="0" stop-color="#39140a"/><stop offset="1"/></linearGradient><linearGradient id="linear-gradient-24" x1="37.76" y1="77.41" x2="37.76" y2="70.96" gradientUnits="userSpaceOnUse"><stop offset="0.01" stop-color="#652312"/><stop offset="1" stop-color="#210000"/></linearGradient><linearGradient id="linear-gradient-25" x1="37.76" y1="74.22" x2="37.76" y2="75.9" gradientUnits="userSpaceOnUse"><stop offset="0"/><stop offset="1" stop-color="#77726d"/></linearGradient><linearGradient id="linear-gradient-26" x1="82.29" y1="77.24" x2="82.29" y2="70.79" xlink:href="#linear-gradient-23"/><linearGradient id="linear-gradient-27" x1="82.29" y1="77.24" x2="82.29" y2="70.79" xlink:href="#linear-gradient-24"/><linearGradient id="linear-gradient-28" x1="82.29" y1="74.05" x2="82.29" y2="75.73" xlink:href="#linear-gradient-25"/><linearGradient id="linear-gradient-29" x1="53" y1="41.98" x2="53" y2="4.16" gradientUnits="userSpaceOnUse"><stop offset="0"/><stop offset="1" stop-color="#2d4753"/></linearGradient><linearGradient id="linear-gradient-30" x1="52.13" y1="46.38" x2="52.13" y2="-2.64" gradientUnits="userSpaceOnUse"><stop offset="0"/><stop offset="1" stop-color="#3a5b6f"/></linearGradient><linearGradient id="linear-gradient-31" x1="53.49" y1="45.1" x2="53.49" y2="9.91" xlink:href="#linear-gradient-30"/><linearGradient id="linear-gradient-32" x1="19.19" y1="49.92" x2="12.34" y2="7.12" xlink:href="#linear-gradient-30"/><linearGradient id="linear-gradient-33" x1="99.66" y1="52.75" x2="92.68" y2="9.09" xlink:href="#linear-gradient-30"/><linearGradient id="linear-gradient-34" x1="28.4" y1="50.28" x2="1.94" y2="16.27" xlink:href="#linear-gradient-30"/><linearGradient id="linear-gradient-35" x1="89.59" y1="55.36" x2="104.72" y2="18.18" xlink:href="#linear-gradient-30"/><linearGradient id="linear-gradient-36" x1="53.05" y1="41.93" x2="53.05" y2="3.97" gradientUnits="userSpaceOnUse"><stop offset="0"/><stop offset="1" stop-color="#19282f"/></linearGradient></defs><g id="Layer_2" data-name="Layer 2"><g id="_9_Face" data-name="9_Face"><path d="M62.18,172.81c-41.23,0-57.33-11.08-57.49-11.2a.5.5,0,0,1-.2-.46.48.48,0,0,1,.28-.41c.2-.08,19.18-8.09,21.34-14.15s1.59-38.19,1.58-38.51a.53.53,0,0,1,.14-.37.43.43,0,0,1,.31-.14h0l58.34,4.22a.47.47,0,0,1,.32.19.53.53,0,0,1,.09.39c0,.24-3.8,24.6-.35,33.51s20.19,15.14,20.36,15.2a.52.52,0,0,1,.07.91c-.18.1-18.58,10.82-44.82,10.82Z"/><path class="cls-1" d="M4.94,161.2s19.33-8.09,21.59-14.43,1.61-38.71,1.61-38.71l58.34,4.23s-3.87,24.63-.33,33.78,20.63,15.48,20.63,15.48-18.17,10.77-44.6,10.77C20.61,172.32,4.94,161.2,4.94,161.2Z"/><path d="M105.87,40.58c-.05-.57-.12-1.32-.24-2.06a2.38,2.38,0,0,0-.43-.94,2.56,2.56,0,0,1-.16-.25c-.11-.2-.25-.41-.4-.64a4,4,0,0,1-.77-1.58,7.45,7.45,0,0,0-1.3-4l-.17-.22-.09-.11a6.15,6.15,0,0,0-.34-2.23,9.58,9.58,0,0,0-1-2.15h.14a.71.71,0,0,0,.58-.29.66.66,0,0,0,.07-.61,6.74,6.74,0,0,0-2-2.78c.44.15.88.31,1.29.48a.69.69,0,0,0,.56-1.25,18.2,18.2,0,0,1-1.62-1c-.43-.3-.87-.6-1.33-.87a21.23,21.23,0,0,0-2.4-1.17,6.84,6.84,0,0,0,.27-2.68c0-.23,0-.46,0-.68a.72.72,0,0,0-.71-.7.64.64,0,0,0-.6.4,1.21,1.21,0,0,1-.47.49,4.23,4.23,0,0,0-.26-4.08.7.7,0,0,0-.58-.32.7.7,0,0,0-.68.83,2.63,2.63,0,0,1-1.3,2.41c-.06-2.42-1.7-4.66-3.38-6.06a.65.65,0,0,0-.45-.16.71.71,0,0,0-.63.37.66.66,0,0,0,0,.69A6.85,6.85,0,0,1,88.32,11l-.18-.27-.2-.32c-.24-.39-.48-.74-.71-1.07a1.39,1.39,0,0,0-.8-.47l-.15-.06a60.64,60.64,0,0,1-6.09-3C79.07,5.17,77.9,4.54,76.73,4,74.56,2.86,72.22,1.76,69.14.37a2.91,2.91,0,0,0-1-.19l-.22,0C67,.09,66.11,0,65,0h-1.3c-1.43,0-3,.05-4.73.16a129.5,129.5,0,0,0-22.19,3.5,63.24,63.24,0,0,0-7,2,15,15,0,0,1-5,1.16,5.2,5.2,0,0,1-2.68-.67.69.69,0,0,0-.34-.09.68.68,0,0,0-.49,1.15,8.76,8.76,0,0,0,1.58,1.3,10.16,10.16,0,0,0-1.23-.08h-.1a15.21,15.21,0,0,0-6,1.38l0,0a.64.64,0,0,0-.36.73.68.68,0,0,0,.66.54l.17,0a12.21,12.21,0,0,1,3-.44,3.44,3.44,0,0,1,2.6.82h-.38a17.12,17.12,0,0,0-12,5.2.67.67,0,0,0-.12.72.66.66,0,0,0,.6.41.64.64,0,0,0,.37-.13,9.63,9.63,0,0,1,5.57-2,3.93,3.93,0,0,1,.49,0,24,24,0,0,0-9.47,6,8.68,8.68,0,0,0-2.33,3.94.64.64,0,0,0,.13.53.69.69,0,0,0,.32.22,22.58,22.58,0,0,0-3.26,4.79A11.69,11.69,0,0,0,0,35.76a.61.61,0,0,0,.17.44.63.63,0,0,0,1-.24,12.68,12.68,0,0,1,2.53-4.23,18.08,18.08,0,0,0-2.3,10.06.61.61,0,0,0,.6.55.58.58,0,0,0,.57-.46,17.12,17.12,0,0,1,1.78-4.94c0,.11-.09.22-.13.33a30.61,30.61,0,0,0-1.62,7.08c-.57,5.07.07,10.16.69,15.08a76.88,76.88,0,0,1,.89,12.24,4.28,4.28,0,0,0-.73,2.21c0,.15,0,.3-.06.42-.31,1.69-.51,3.42-.66,4.92-.19,1.77-.31,3.25-.38,4.65a8.71,8.71,0,0,0,1.48,5.38c.33.5.66,1,1,1.45a29.59,29.59,0,0,1,1.85,3c.81,1.58,1.53,3.2,2.19,4.72.09.22.2.46.31.69a9.67,9.67,0,0,1,.72,1.88,11.49,11.49,0,0,0,2.15,4.76,5.93,5.93,0,0,0,4.16,2.18h.16a9.14,9.14,0,0,0,2.1-.2.24.24,0,0,1,0,.08,68.78,68.78,0,0,0,3.4,8.87,26.72,26.72,0,0,0,5.92,8.27,107,107,0,0,0,8.83,7.37c2.53,1.95,5.17,3.89,8.06,5.93a45.35,45.35,0,0,0,9.5,5.56,23,23,0,0,0,8.47,1.59,22.37,22.37,0,0,0,15.46-6.06,81.8,81.8,0,0,0,7-7.29l.79-.89c2.39-2.7,5.11-5.76,6.54-9.38a65.18,65.18,0,0,0,2.86-10.82c.38-1.88.72-3.79,1-5.66,0-.32.09-.64.13-1,1.9-.24,2.15-2.42,2.27-3.5a62.79,62.79,0,0,1,1.51-7.51c.15-.58.28-1.16.39-1.72l.11-.31v0a32.27,32.27,0,0,0,2.71-9q0-.27.09-.57a10.56,10.56,0,0,0,.12-4.07,5.36,5.36,0,0,0-1-1.71q-.1-.17-.21-.3a6.06,6.06,0,0,0-.65-.79c.27-.63.55-1.25.85-1.82a4,4,0,0,0,.29-1.13c0-.14,0-.28.07-.4.14-.66.28-1.33.41-2,.27-1.31.52-2.65.77-4.11.39-2.24.73-4.57,1-6.92A85.88,85.88,0,0,0,105.87,40.58Z"/><path class="cls-2" d="M100.9,74.66l1.17-14.43s-1.64-12.44-2-13.14-4.81-9.15-4.81-9.15-4.46-7.16-4.93-7.27-9.85-4.11-9.85-4.11l-30.5,4s-10.08,1.88-11.61,2.23-14,7.27-14.54,7.74S14.1,51,12.81,52.6s-4,14.2-4,14.2L4.72,72c-.82.58-1.64,9.15-1.76,12.2s1.17,4.45,2.93,6.92,4.58,9.5,4.58,9.5c.93,4.34,3.4,7.86,8.44,6.33,0,0,2.82,9.74,6.57,14.55s15.6,13.37,19.94,16.42,10,7.15,18.3,6.8,13.49-5,16.77-8.56,9-9.38,11-13.61c1.79-3.8,3.77-13.47,4.49-18.88,2.23.12,1.94-2.32,2.3-4,.58-2.75,1.22-5.48,1.89-8.21l.11-.35a30.24,30.24,0,0,0,2.82-13.26A10.31,10.31,0,0,0,100.9,74.66Z"/><path class="cls-3" d="M36.68,82s7.22-1.23,9.5-3.51l1.76.35S45.48,82,36.68,82Z"/><path class="cls-4" d="M81.9,81.52S76.71,80.28,75.07,78l-1.27.35S75.58,81.52,81.9,81.52Z"/><path class="cls-5" d="M51.87,130.37a39.46,39.46,0,0,1,4.93-3.52c1.17-.47,4.22.94,8.91.94s5.87-1.17,6.8-1.17,3.76,3.75,3.76,3.75S61.49,129.9,51.87,130.37Z"/><path class="cls-6" d="M32,115.88c7.19-1.8,10.78-12.21,8-23.25S29.19,74.09,22,75.89,11.22,88.1,14,99.14a30.05,30.05,0,0,0,3.31,8.1,8.7,8.7,0,0,0,1.61-.33s.56,1.93,1.51,4.5C23.87,115.06,28.07,116.87,32,115.88Z"/><path class="cls-7" d="M98.31,99.64c.58-2.75,1.22-5.48,1.89-8.21l.11-.35A29.17,29.17,0,0,0,103,81a9.08,9.08,0,0,0-2.41-1.36c-6.94-2.58-15.79,4-19.76,14.65s-1.56,21.41,5.38,24a9.91,9.91,0,0,0,6.83-.1,116.76,116.76,0,0,0,3-14.53C98.24,103.75,98,101.31,98.31,99.64Z"/><path class="cls-8" d="M25.36,60.7s2.25-14,15.49-16c15.71-2.34,38.94-4.92,42.92-3.05s9.62,6.1,9.39,19.24L71.81,70.55l-15,.23-17.59-7.5Z"/><path class="cls-9" d="M51.17,97.53a39,39,0,0,1,4.69-5.4c2.81-2.52,5-13.08,3.87-14.48s-10.21,2.28-11.38,6.27-3.52,11,1.88,17.83Z"/><path class="cls-10" d="M74.86,95.42s-4.4-1.94-5.28-10.91c-.46-4.68-1-6.69.18-6.69s7.45,5.87,8.85,10.32.71,10.09-1.4,12.2Z"/><path class="cls-11" d="M33.81,127.32c-2.11-2.58-5.16-17.83-8.21-21.82s-6.81-10.32-6.81-10.32L16,95a31.06,31.06,0,0,1,1.64,8.44c0,3.24-3,3.16-3.78,3.08a5.85,5.85,0,0,0,5.07.44s2.82,9.74,6.57,14.55c2.87,3.67,10.45,9.53,15.81,13.45C38.9,132.63,35.19,129,33.81,127.32ZM98.55,91,99,88.14c-.47,2.82-1.4,3.76-3.28,7.74s-4,18.77-5.63,24.4a50.83,50.83,0,0,1-5.28,11.17c2.68-3,5.43-6.28,6.69-8.94,1.79-3.8,3.77-13.47,4.49-18.88a1.79,1.79,0,0,0,1.2-.3c-1.4-.57-.53-2.52-.53-2.52Z"/><path class="cls-12" d="M66.59,106s-3.17.35-5.81-3.34,0-8.09-.17-12.84S61,76.42,61,76.42l7.74-.71a12.68,12.68,0,0,0-.53,5.45c.36,3.17,1.59,9.15,1.94,11.09S76.09,104.56,66.59,106Z"/><path class="cls-2" d="M59.2,95.06s6.86-2.81,11.79-.35V93.3a18,18,0,0,0-12.14.53Z"/><path class="cls-13" d="M49.88,102.69c-.22-2,1.39-9.31,4.72-6.72,2,1.58,0,3.92-1.32,5.08-.59.51-3.09,3.87-3.52,2.69Z"/><path class="cls-14" d="M75.21,95.53c-2.33-1.08-1,3.1-.56,3.85.95,1.49,2.34,2.92,2.67,4.68.49-1.45-.33-3-.56-4.42a9.83,9.83,0,0,0-1.2-3.87Z"/><path class="cls-15" d="M16,72.19s6.57-6.57,8.21-15.25S35.45,42.63,42,41.93s22.75-.47,28.38-3c0,0,14.78-.24,17.36,1.41s3.76,6.57,5.16,8S95.74,56,95,61.63l3,7s.24,5.63.71,6.81,3.28-5.17,3.28-5.17-.94-14.77-1.17-15.71-1.41-11.5-3.52-14.55-2.81-8.68-8.68-10.32S65,26.21,60.32,26.91,33.11,36.06,31.7,36.77a109,109,0,0,0-11.5,8.44c-1.64,1.65-6.1,8.92-6.8,11.73a46.16,46.16,0,0,0-.94,6.81Z"/><path class="cls-16" d="M27.89,75.71s-7.39-2.29-7.75-6.86c0,0,3.7-4.23,8.1-4.4S43.9,65.86,43.9,65.86l6.33,1.76,7,3.16a10.38,10.38,0,0,1-9,6l-6.15-.52Z"/><path class="cls-17" d="M74.51,76.24s-3.17-2.11-3.17-5.63l4.57-4L84,63h9l3.17,2.82,2.11,2.81a9.64,9.64,0,0,1-7.57,7C84.36,76.94,74.51,76.24,74.51,76.24Z"/><path class="cls-18" d="M50.7,105.39a10.38,10.38,0,0,1,5.74-1.88,7.28,7.28,0,0,1,5.17,2.11A7.1,7.1,0,0,0,67,107.15c3.17-.47,6-3.87,6-3.87s3.64.23,4.11,2.81a3.3,3.3,0,0,1-2.7,2.23s-3.64,4.22-8.8,4.22a20.06,20.06,0,0,1-13.37-5.63A3.12,3.12,0,0,1,50.7,105.39Z"/><path class="cls-19" d="M4.37,78.76c.58-1.64,2-2.46,3.4-1.52,2.11,1.29,2.46,5.62,3.28,7.74s2.94,5.16,2.58,7.74c-.35,2-1.4,2.23-.47,4a6.89,6.89,0,0,0,1.53,1.64s-.82,2.34-1.88,2-3.63-5-4.45-7-3.29-3.87-4-6.8S4.37,78.76,4.37,78.76Z"/><path class="cls-20" d="M99.26,86.74c.94-2.58,1.29-5.28,3-7.28,0,0-.36,6.57-1.53,8.8s-3,10.2-3,10.2L96.21,102s1.29-7.27,2.11-9.73A23.36,23.36,0,0,0,99.26,86.74Z"/><path class="cls-21" d="M13.63,92.72C14,90.14,12,87.21,11.05,85s-1.17-6.45-3.28-7.74c-1.41-.94-2.82-.12-3.4,1.52,0,0-.07.49-.15,1.24.42-.22,2.18-1.1,2.49-.07a22.72,22.72,0,0,1,.59,3s.94-1.17,1.52.71a6.36,6.36,0,0,0-.93,2.93s1.17-1.41,2.11-.47,2.81,4.1,2.81,5.28-1.3,2.59,0,4.17C12.72,94.71,13.37,94.2,13.63,92.72Z"/><path class="cls-21" d="M99.26,86.74A26.36,26.36,0,0,1,98.88,90a46.59,46.59,0,0,0,3.41-10.2c0-.23,0-.36,0-.36C100.55,81.46,100.2,84.16,99.26,86.74Z"/><path class="cls-22" d="M103.22,77.79a6.58,6.58,0,0,0-1.09-1.85,5.58,5.58,0,0,0-1.22-1.3s0,0,0,0c.77.86,2.08,2.25,2.06,3.48,0,1.46-.1,2.91-.26,4.37a27.52,27.52,0,0,1-2.39,8.56s0,0,0,0A32,32,0,0,0,103,82.24,12.61,12.61,0,0,0,103.22,77.79Zm-3,13.63c-.68,2.72-1.39,5.44-2,8.18-.16.73-.2,1.48-.34,2.22a1.7,1.7,0,0,1-1.73,1.61c.12-1,.23-2,.41-3,1-5.76,3.25-11.22,2.67-17.18a.06.06,0,0,0-.11,0c.48,5.19-1.09,10.17-2.29,15.15-.4,1.66-.67,3.36-.91,5.07h0c-.24,0-.24.32,0,.37-.23,1.69-.45,3.38-.77,5.06a87.3,87.3,0,0,1-2.74,11.27c-1.22,3.72-3.64,6.74-6.18,9.66a109.63,109.63,0,0,1-7.89,8.38A23.51,23.51,0,0,1,67.67,144a22.74,22.74,0,0,1-14.29-1.5A51.88,51.88,0,0,1,44.46,137c-6-4.22-12.05-8.57-17.2-13.77a28.36,28.36,0,0,1-5.7-9.3,69.14,69.14,0,0,1-2.52-7v0a.14.14,0,0,0-.16-.09,5.74,5.74,0,0,1-5.71-1,9.61,9.61,0,0,1-2.54-5,14.76,14.76,0,0,0-1-2.38C9,96.8,8.29,95.23,7.51,93.68a34.68,34.68,0,0,0-2.78-4.4,8.52,8.52,0,0,1-1.65-5.67,67.65,67.65,0,0,1,1.09-9.83c.1-.5.18-1.42.6-1.77.07-.06,0-.16-.1-.1-.58.48-.65,1.81-.77,2.48-.3,1.61-.48,3.25-.65,4.88S3,82.35,2.88,83.9A8.12,8.12,0,0,0,4.28,89c1,1.5,2,2.86,2.86,4.44s1.51,3.15,2.2,4.75a15,15,0,0,1,1.06,2.67,11.19,11.19,0,0,0,2,4.55,5.43,5.43,0,0,0,3.82,2c.25,0,2.63-.06,2.52-.44.06.22.13.44.2.66a68,68,0,0,0,3.36,8.81,26.39,26.39,0,0,0,5.82,8.13A106.65,106.65,0,0,0,37,131.88c2.64,2,5.33,4,8,5.92a45.67,45.67,0,0,0,9.4,5.51,22.86,22.86,0,0,0,13.34,1,23.14,23.14,0,0,0,10.08-5.38,94.59,94.59,0,0,0,7.76-8.13C88.05,128,90.66,125,92,121.55a63.86,63.86,0,0,0,2.84-10.74q.57-2.81,1-5.64.11-.66.18-1.35c1.73.05,2-1.63,2.22-3.08a82.74,82.74,0,0,1,1.94-9.31S100.18,91.39,100.17,91.42Z"/><path class="cls-23" d="M13.22,94.53a6.61,6.61,0,0,0,.42-3.35c-.36-2.67-2.22-4.87-2.91-7.43-.56-2-.8-4.38-2.13-6.08S5,76.9,4.36,78.76c0,0,0,0,0,0a2.91,2.91,0,0,1,1.5-1.71,1.57,1.57,0,0,1,1.22.06s0,0,0,0A5.74,5.74,0,0,1,7.58,82c-.41,1.41-1,2.73-1.34,4.17h0C7,83.37,9.32,80,7.4,77.27c.14.08.28.16.41.25a5.45,5.45,0,0,1,1.78,2.67c.73,1.87.95,3.88,1.83,5.71,1.18,2.48,3,5.17,1.72,7.95a3.62,3.62,0,0,0-.56,2,4.37,4.37,0,0,0,2.07,2.54c.07,0,.15-.06.09-.11C13.69,97.3,12.66,96,13.22,94.53Zm-4.15-1.7c-.2-.62-.41-1.24-.6-1.87.18.62.38,1.24.58,1.88C9.05,92.85,9.07,92.84,9.07,92.83ZM8,88.76A15.48,15.48,0,0,0,8.47,91,17.76,17.76,0,0,1,8,88.76Zm1.61-5.93c-.53-.15-1.07,1.11-1.19,1.42A8.71,8.71,0,0,0,8,88.76a8.58,8.58,0,0,1-.06-1.83,7.3,7.3,0,0,1,1-2.93,2.22,2.22,0,0,1,.72-.83c.54-.33.92.67,1,1,0,0,0,0,0,0C10.5,83.47,10.29,83,9.59,82.83Zm92.72-3.37c-1.76,2-2.45,4.77-3.11,7.26,0,.06.08.1.1,0,1.11-2.43,1.28-5.14,3-7.29Z"/><path d="M55.51,105.18a7.68,7.68,0,0,1,4.31.88S58.58,107.38,55.51,105.18Z"/><path d="M72.4,105.53a5,5,0,0,1,2.72.53s-.79.53-3.25.44Z"/><path class="cls-24" d="M50.09,102.55a14.21,14.21,0,0,1,.61-4.14,4.69,4.69,0,0,1,2-3.08s0-.08,0-.07c-1,.35-1.64,1.58-2,2.52a15.27,15.27,0,0,0-1,4.77,4.25,4.25,0,0,0,1.22,3.67c1.3,1.09,3.06,1.22,4.61,1.75a0,0,0,0,0,0,0,16.89,16.89,0,0,1-3.9-1.68A4.25,4.25,0,0,1,50.09,102.55Zm27.67.3a15.92,15.92,0,0,0-1-4.61A8.17,8.17,0,0,0,75,95.13s-.14,0-.1.08a14.35,14.35,0,0,1,2.32,6.93c.23,2.37.08,5.73-2.85,6.17,0,0,0,0,0,0C77.19,108.13,77.87,105.19,77.76,102.85Zm-24.13,2.76s0,0,0,0a8.92,8.92,0,0,1,6.41.65c.08,0,.17-.07.1-.13C58.31,104.59,55.73,104.77,53.63,105.61Zm22.19.93a4.53,4.53,0,0,0-3.18-1.17l0-.09s-.06-.08-.09,0a1.25,1.25,0,0,1-.09.12.14.14,0,0,0-.12.17,7.63,7.63,0,0,1-5.48,3.13,8.52,8.52,0,0,1-6.34-1.76s0,0,0,0c3,3.07,10.05,3.08,12-1.28a5,5,0,0,1,3.25.93S75.84,106.57,75.82,106.54ZM70.13,88.78A47.65,47.65,0,0,0,72,95.62a18.92,18.92,0,0,1,.88,7.54s0,0,0,0a15.87,15.87,0,0,0-.22-6.4c-.54-2.36-1.65-4.51-2.2-6.86-.51-2.19-.62-4.5-1-6.71a26.93,26.93,0,0,1-.4-3.34,10.92,10.92,0,0,1,.6-4,0,0,0,1,0-.09,0,9,9,0,0,0-.66,3.1,18.31,18.31,0,0,0,.24,3.22C69.44,84.35,69.81,86.57,70.13,88.78Z"/><path class="cls-25" d="M46.47,118.29a40.84,40.84,0,0,0,6.81,4.46c3,1.4,6,4,10.32,4s7.51-.24,10.09-3.17a22.82,22.82,0,0,1,6.68-4.81L75,118.52l-9.27-1.29s-6.92-.11-8.09.12S46.47,118.29,46.47,118.29Z"/><path class="cls-26" d="M67,125.56a7.63,7.63,0,0,0,5-2c1.27-1.18,3.19-3.25.32-3.55-3.56-.38-7,.82-10.58.47-1.78-.18-3.46-.49-5.25-.5-.69,0-2,.14-2.17,1-.42,1.53,3.83,3,4.82,3.41A19.48,19.48,0,0,0,67,125.56Z"/><path class="cls-25" d="M80.14,118.17c-1.17.24-2.35-.7-5.4-2.58s-4.1-1.52-5.51-1.41S66,115.94,66,115.94l-1.41-1.17a3.62,3.62,0,0,0-3.05-.94c-4.11.12-10.21,3.29-13.49,3.75a7.41,7.41,0,0,1-5.28-1c5.28,4.34,14.19,1.29,20.41,2.35h.17l.3.23a4.39,4.39,0,0,0,4.33-.12c4-.2,12.12,1.5,15-1.87A14.16,14.16,0,0,1,80.14,118.17Z"/><path class="cls-27" d="M63.15,118.82a14.91,14.91,0,0,0-4.52-.32c-1.81,0-3.61.21-5.41.31-3.61.19-7.52,0-10.5-2.28h0c2.67,2.18,6.14,2.5,9.47,2.5,1.89,0,3.79-.11,5.68-.19s3.5,0,5.26.1C63.2,118.94,63.21,118.83,63.15,118.82Zm19.78-1.73c-2,1.83-4.77,2-7.38,2-2.4,0-4.83-.36-7.23-.19a7.34,7.34,0,0,0,.71-.48.07.07,0,1,0-.07-.11c-1.74.78-3.47,1.63-5.34.73,0,0-.08,0,0,.06a4.19,4.19,0,0,0,2.62.6,5.64,5.64,0,0,0,2-.72c2.69,0,5.37.39,8.06.33,2.23-.06,5.29-.25,6.75-2.22C83,117.1,83,117.06,82.93,117.09Z"/><path class="cls-28" d="M71.16,70.78a34.28,34.28,0,0,0,6.87-3C80.84,66,90.34,65.5,93,65.5c0,0,4.4,1.59,5.28,3.7A9.08,9.08,0,0,0,97,65.5a17.15,17.15,0,0,1-1.76-4.22s-5.63-1.93-7.39-1.58S79.61,63,78,63.92,74.68,66,74.16,66.21,71.69,70.78,71.16,70.78Z"/><path class="cls-29" d="M57.44,70.78a58.25,58.25,0,0,1-9.49-3c-3.89-1.76-17-2.29-20.68-2.29,0,0-6.08,1.59-7.3,3.7a7.31,7.31,0,0,1,1.7-3.7,15.11,15.11,0,0,0,2.44-4.22s7.78-1.93,10.22-1.58S45.76,63,48,63.92,52.57,66,53.3,66.21,56.71,70.78,57.44,70.78Z"/><path class="cls-30" d="M28.18,75.36l-4.11,1.06.47.82,3.52-.94a13,13,0,0,0,7.86,2.58c4.81,0,6.57-1.53,6.57-1.53Z"/><path class="cls-31" d="M81.78,78.41s6.45.7,9.5-2.11l2.58.58.24-.82-3.52-.94-2.35.36Z"/><path d="M28.06,75.59a13.58,13.58,0,0,1,4-3.75,28.69,28.69,0,0,1,11.85-.12,8.59,8.59,0,0,1,3,3.52l-8.79.47Z"/><path class="cls-32" d="M29.47,76.59c4.4,2.46,11.61,2.46,16.89,0l.58-.17,1.06.34-1.12-1.58a20,20,0,0,0-2.81-2.81,33.26,33.26,0,0,0-11.08,0,26.34,26.34,0,0,0-4.93,3.11Z"/><path class="cls-33" d="M42.26,73.94a4.47,4.47,0,0,0-.42-1.89,34.45,34.45,0,0,0-8.26.22,4.64,4.64,0,0,0-.32,1.67,4.5,4.5,0,0,0,4.28,4.5l.71,0A4.5,4.5,0,0,0,42.26,73.94Z"/><path class="cls-34" d="M37.76,77.93a4,4,0,0,0,4-4A3.87,3.87,0,0,0,41.23,72a35.29,35.29,0,0,0-7,.18,4,4,0,0,0-.41,1.76A4,4,0,0,0,37.76,77.93Z"/><path d="M40.11,73.94a2.35,2.35,0,1,1-2.35-2.35A2.36,2.36,0,0,1,40.11,73.94Z"/><path class="cls-35" d="M39.42,73.94a1.66,1.66,0,1,1-1.66-1.66A1.66,1.66,0,0,1,39.42,73.94Z"/><path class="cls-32" d="M37.76,73a1,1,0,0,0,1-1,.28.28,0,0,0,0-.09c-.67,0-1.32,0-1.91,0v0A1,1,0,0,0,37.76,73Z"/><path class="cls-32" d="M38.22,76.24a.46.46,0,0,1-.46.47.47.47,0,0,1,0-.93A.46.46,0,0,1,38.22,76.24Z"/><path d="M27.72,75.72a30.15,30.15,0,0,1,3-2.08,8.19,8.19,0,0,1,2.39-1.22,30.07,30.07,0,0,1,4-.39c1.1,0,2.2,0,3.3,0,.55,0,1.1.08,1.65.14s.89.11,1.33.18a3.67,3.67,0,0,1,.66.13,13,13,0,0,1,2.73,2.76c.12.18.4,0,.29-.16a15,15,0,0,0-2.82-2.8,1.76,1.76,0,0,0-.79-.18c-.69-.11-1.38-.18-2.07-.23a33.37,33.37,0,0,0-4-.06A29.73,29.73,0,0,0,33,72.3a8.53,8.53,0,0,0-2.4,1.27A29.19,29.19,0,0,0,27.7,75.7s0,0,0,0Z"/><path class="cls-36" d="M29.46,76.6a16.65,16.65,0,0,0,8,1.91,19.13,19.13,0,0,0,8.93-1.89s0-.08,0-.07c-5.27,2.09-11.68,2.78-16.87,0,0,0,0,0,0,0Z"/><path d="M90.86,75.59a12.71,12.71,0,0,0-3.37-3.75,20.55,20.55,0,0,0-10-.12,8.22,8.22,0,0,0-2.57,3.52l7.42.47Z"/><path class="cls-32" d="M89.67,76.59c-3.71,2.46-9.8,2.46-14.26,0l-.49-.17-.89.34L75,75.18a18.8,18.8,0,0,1,2.37-2.81,23.81,23.81,0,0,1,9.36,0,22.43,22.43,0,0,1,4.16,3.11Z"/><path class="cls-37" d="M82.29,78.28a4.35,4.35,0,0,0,4.18-4.51,5,5,0,0,0-.24-1.5,24.64,24.64,0,0,0-7.85-.1,4.72,4.72,0,0,0-.28,1.6A4.36,4.36,0,0,0,82.29,78.28Z"/><path class="cls-38" d="M82.29,77.76a3.86,3.86,0,0,0,3.7-4,4.21,4.21,0,0,0-.31-1.59,24.81,24.81,0,0,0-6.75-.09,4.24,4.24,0,0,0-.35,1.68A3.86,3.86,0,0,0,82.29,77.76Z"/><path d="M84.47,73.77a2.19,2.19,0,1,1-2.18-2.35A2.27,2.27,0,0,1,84.47,73.77Z"/><path class="cls-39" d="M83.83,73.77a1.55,1.55,0,1,1-1.54-1.66A1.61,1.61,0,0,1,83.83,73.77Z"/><path class="cls-32" d="M82.29,72.79a.93.93,0,0,0,.88-.86q-.83,0-1.77,0A.93.93,0,0,0,82.29,72.79Z"/><path class="cls-32" d="M82.72,76.07a.43.43,0,1,1-.43-.46A.45.45,0,0,1,82.72,76.07Z"/><path d="M91.15,75.72a27,27,0,0,0-2.5-2.08,6.42,6.42,0,0,0-2-1.22A21.34,21.34,0,0,0,83.25,72a23.44,23.44,0,0,0-2.78,0c-.47,0-.93.08-1.4.14s-.75.11-1.12.18a2.83,2.83,0,0,0-.56.13,12.64,12.64,0,0,0-2.31,2.76c-.09.18-.33,0-.23-.16a13.67,13.67,0,0,1,2.38-2.8c.17-.16.46-.14.66-.18a17.09,17.09,0,0,1,1.75-.23A23.82,23.82,0,0,1,83,71.83a21.34,21.34,0,0,1,3.64.47,6.83,6.83,0,0,1,2,1.27,26,26,0,0,1,2.47,2.13s0,0,0,0Z"/><path class="cls-36" d="M89.67,76.6a12.28,12.28,0,0,1-6.73,1.91,14,14,0,0,1-7.54-1.89s0-.08,0-.07c4.45,2.09,9.86,2.78,14.24,0,0,0,0,0,0,0Z"/><path class="cls-40" d="M4.72,72.19c.7-12.9-5.4-25.33,1.88-38.71,0,0-3.35,2.12-4.58,8.27A19.13,19.13,0,0,1,7.47,27.68S2,31.37.61,35.77c0,0,.18-6.86,10.21-14.08a11.43,11.43,0,0,0-6,4s1.23-6.16,13.37-10.2c0,0-4.05-1.94-8.62,1.58,0,0,5.45-5.81,13-4.93,0,0-.71-3.52-6.86-1.76,0,0,3.87-1.76,7.21-1.23a17.92,17.92,0,0,0,4.57.35S23.84,9,21.73,6.74c0,0,3,1.76,7.56-.18S55.51-.47,68.7.93c0,0,8.27,3.7,11.09,5.46a49.37,49.37,0,0,0,6.86,3.34s2.46,3.52,2.64,5.1A7.83,7.83,0,0,0,88.06,9s4,3.34,3,6.86c0,0,3.34-1.59,2.81-3.87A3.72,3.72,0,0,1,93,16.94s2.47-.35,2.82-1.4v2.11a2.91,2.91,0,0,1-.53,1.58s1.58.71,2.64,1.23,2.64,1.76,3.34,2.11c0,0-3-1.23-4.57-.88,0,0,3.52,1.41,4.4,4a4.82,4.82,0,0,0-3.35-1.93S102,27.32,101.6,31a6.49,6.49,0,0,1,1.59,4.4L105,38.58s2.11,12.15-2.82,34.14c0,0-2.81,5.45-2.81,10.73,0,0-1.41-4.92-1.24-7.92A9.8,9.8,0,0,1,99.32,71s.17-9-1.06-13.9a31.6,31.6,0,0,0-2.64-7.39s-1.76-4.4-1.76-7.39A22.4,22.4,0,0,0,94,48.09a14.32,14.32,0,0,1-2.29-7.75,16.34,16.34,0,0,0,0,4.58S89.64,42.28,90,37.35a4.81,4.81,0,0,1-3.17,2.11,6.94,6.94,0,0,0,1.76-3.34s-4,2.82-7.91,3a26.35,26.35,0,0,1-4.76,0s5.81-.53,8.63-4.22c0,0-5.28,3.69-10.38,3.69,0,0,5.8-1.75,8.09-6,0,0-7.92,6.16-12.49,6.34,0,0,7.21-3.17,9.5-8.27,0,0-8.1,6.16-17.24,7.91s-9.51.18-15.31,2.29a8.5,8.5,0,0,1,3.52-2.46s-6,1.23-8.27,3.34c0,0,1.23-2.11,6-4.75,0,0-6,1.41-8.27,3.34a14,14,0,0,1,6-4.92s-11.78,3.34-20.4,11.79A59.24,59.24,0,0,0,15.75,69s-.18,16,3.69,27.8c0,0-1.76.36-3.69-1.76,0,0-.88-11.43-3.17-17.24,0,0-1.23-3-2.11-4.57,0,0-1.06-1.76-2.47-1.59S4.72,72.19,4.72,72.19Z"/><path class="cls-41" d="M27,21.11a18.61,18.61,0,0,0,8,1.12,10.93,10.93,0,0,1-4,1.07c2.19.86,4.76.14,6.94-.33a30.05,30.05,0,0,1-7.19,3.66C38.39,30.8,48,29.06,56,27.29c-.75,1.27-2.45,1.79-3.63,2.55A14.76,14.76,0,0,0,57,28.36a15.07,15.07,0,0,1-5.63,3.86c5.13,1.29,15.15-2.25,17.59-6.44A4.35,4.35,0,0,1,67.6,29c1.51-.87,4.4-2.87,4.73-4.91.93.93.72,2.36.31,3.5,2.82-2.26,6.33-4.18,6.51-7.89a3.46,3.46,0,0,1,2.27,1c.47-1.7-1.13-3.14-2.28-4.3-1.49,5.09-4.61,6-9.66,7.93-2.44.91-4.53,3.92-7.35,3.87-2.44,0-2.81-1.95-4.87-2.62-3-1-6.74,1.17-9.72,1.27-4.48.15-3.89-2-6.67-3.94-1.3-.91-12.76-1.83-7.49-4.35-3.48.55-7.05,1.43-10.62,1Z"/><path class="cls-42" d="M54.1,26.42c-3,.26-6.06,1.5-9,1.2-2.21-.22-3.32-1.73-4.55-3.38a4.49,4.49,0,0,0-3.46-1.93c-.82-.15-7.33-1.46-5.87-2.67a19.17,19.17,0,0,1-4.07.47l-.7.23c1.56.24,3.24.63,4.84,1,1,.22,3.14.49,3.73,1.38-.11.13-.19.33-.32.46.7-.24,3.37-.84,3.87,0,.86,1.44-4,3.3-4.94,3.56,2.19.09,4.33-.31,6.52.14.53.1,3.39,1.15,1.82,1.73a41.51,41.51,0,0,0,9-1.09c.61-.12,6.95-1.43,5.26.72C57,28,58,28.13,58,29c0,1.2-2.31,2.76-3.26,3.06,4-.33,9.35-1.75,12-5-1.35.71-3,1.75-4.54,1.84C59,29.1,57.27,26.13,54.1,26.42Zm25.33-9.21a10.3,10.3,0,0,1-4.1,5.61c-1.79,1-3.93,1.07-5.75,2l.24.24A3.49,3.49,0,0,1,70,26.17c1.27-1.19,2.85-3.08,3.26-.34a3.73,3.73,0,0,1,2.15-2.44c1-.27,1.12.22,1.87-.69,1.27-1.56.71-4.2,3.25-3.54C80.15,18.53,79.8,17.87,79.43,17.21ZM67.94,26.33l.7-.71C68.13,25.61,67.75,25.82,67.94,26.33Z"/><path class="cls-43" d="M22,35.67c-2.75-3.45-4-3.73-8.38-4-4.55-.23-2.65-1.61-2.85-5.92-2.65-.2-5.15,1.67-7.4,3.26C.69,33,.61,35.77.61,35.77c1.41-4.4,6.86-8.09,6.86-8.09A19.13,19.13,0,0,0,2,41.75C3.25,35.6,6.6,33.48,6.6,33.48-.68,46.86,5.42,59.29,4.72,72.19c0,0,1.88-.35,3.28-.53s2.47,1.59,2.47,1.59c.88,1.58,2.11,4.57,2.11,4.57,2.29,5.81,3.17,17.24,3.17,17.24,1.93,2.12,3.69,1.76,3.69,1.76C15.57,85,15.75,69,15.75,69a59.24,59.24,0,0,1,9.5-21.81,46.71,46.71,0,0,1,10.34-7.5C30.41,40.68,25.18,39.67,22,35.67Z"/><path class="cls-44" d="M91.75,40.34A14.32,14.32,0,0,0,94,48.09a22.4,22.4,0,0,1-.18-5.81c0,3,1.76,7.39,1.76,7.39a31.6,31.6,0,0,1,2.64,7.39C99.49,62,99.32,71,99.32,71a9.8,9.8,0,0,0-1.24,4.57c-.17,3,1.24,7.92,1.24,7.92,0-5.28,2.81-10.73,2.81-10.73,4.93-22,2.82-34.14,2.82-34.14l-1.76-3.16A6.49,6.49,0,0,0,101.6,31a5.53,5.53,0,0,0-.35-2.42c-.31,1.15-2.26,1.19-2.92,2.32-.89,1.54.06,4.84-1,6-1.78,1.94-3.59-.72-5.3.32-1.08.66-1.52,2.73-1.65,4.52a9,9,0,0,0,1.39,3.15A16.34,16.34,0,0,1,91.75,40.34Z"/><path class="cls-45" d="M22,35.67c-2.75-3.45-4-3.73-8.38-4-4.55-.23-2.65-1.61-2.85-5.92-2.65-.2-5.15,1.67-7.4,3.26A16.42,16.42,0,0,0,.79,34.62c.15-.13.31-.25.48-.37,2-3.7,6.2-6.57,6.2-6.57a18.34,18.34,0,0,0-3.72,5.37c4.5-1.52,11.19-1.16,14.11,1,1.9,1.38,2.95,3.7,4.27,5.57a24.39,24.39,0,0,0,5.38,5.6,49.77,49.77,0,0,1,8.08-5.46C30.41,40.68,25.18,39.67,22,35.67Z"/><path class="cls-46" d="M101.25,28.6c-.31,1.15-2.26,1.19-2.92,2.32-.89,1.54.06,4.84-1,6-1.78,1.94-3.59-.72-5.3.32-1.08.66-1.52,2.73-1.65,4.52a9,9,0,0,0,1.39,3.15,16.34,16.34,0,0,1,0-4.58A14.32,14.32,0,0,0,94,48.09a1.77,1.77,0,0,1,0-.2,18,18,0,0,1-1.08-4.84c-.21-2.68.29-3.34,2.82-3.7,3.19-.45,2-.54,3-3.3.91-2.49,2.71-2,4.44-.78A6.48,6.48,0,0,0,101.6,31,5.53,5.53,0,0,0,101.25,28.6Z"/><path class="cls-47" d="M4.76,72.19c.33-6.34-.93-12.59-1.47-18.88-.6-6.87.07-13.63,3.38-19.78a.09.09,0,0,0-.12-.13c-2.67,1.72-4,5.41-4.62,8.33l.19,0c-.43-5.08,1.93-10.44,5.43-14a.11.11,0,0,0-.13-.17c-2.88,2-5.79,4.8-6.92,8.16l.23,0A11.15,11.15,0,0,1,2.06,31.5c1.95-4,5.3-7.13,8.83-9.69a.14.14,0,0,0-.11-.25,11.37,11.37,0,0,0-6,4.08l.23.14A8.37,8.37,0,0,1,7,22.31c2.89-3.3,7.14-5.25,11.22-6.62.12,0,.17-.23,0-.29-2.88-1.35-6.4-.21-8.79,1.58a2.56,2.56,0,0,1,.2.26,16,16,0,0,1,12.91-4.87c.12,0,.18-.12.16-.22-.63-3-5-2.46-7.07-1.89,0,.11.09.22.14.33a14.13,14.13,0,0,1,6.3-1.29c1.78.07,3.59.68,5.39.44.19,0,.28-.33,0-.36a10.1,10.1,0,0,1-5.72-2.77l-.23.29c2.44,1.4,5.6.67,8-.28a53.35,53.35,0,0,1,7.13-2.07A125.67,125.67,0,0,1,60.71,1c1.8-.08,3.6-.09,5.4,0a8.11,8.11,0,0,1,3,.4C71.73,2.52,74.32,3.72,76.86,5c2.92,1.48,5.66,3.2,8.69,4.48l1,.43c-.21-.08,0,0,.06.16l.44.67a11.5,11.5,0,0,1,2,4.13c0,.2.34.19.38,0a7.83,7.83,0,0,0-1.25-6l-.32.24c1.88,1.56,3.63,4.14,3,6.67a.2.2,0,0,0,.29.22c1.54-.74,3.25-2.22,2.9-4.1l-.36.16a3.59,3.59,0,0,1-.85,4.68c-.16.15,0,.36.2.33,1-.14,2.49-.47,2.93-1.49l-.37-.1c0,1.18.22,2.58-.5,3.59a.2.2,0,0,0,.07.27c1,.42,1.9.85,2.82,1.33,1.11.58,2.06,1.43,3.16,2l.15-.36a8.94,8.94,0,0,0-4.68-.88c-.21,0-.16.32,0,.38a7.45,7.45,0,0,1,4.27,3.91l.36-.15a4.76,4.76,0,0,0-3.52-2,.2.2,0,0,0-.14.34,13.38,13.38,0,0,1,2.29,2.52A9.6,9.6,0,0,1,101.19,29a6,6,0,0,1,.24,1.52c0,.2-.1.46.06.62a5.51,5.51,0,0,1,.82,1.25,6.32,6.32,0,0,1,.5,1.4,8.66,8.66,0,0,1,.16,1c0,.2,0,.51,0,.69.52.95,1.06,1.9,1.58,2.85a6.54,6.54,0,0,1,.39,2.25c.19,2.23.23,4.46.2,6.69a115.13,115.13,0,0,1-1.88,18.53q-.51,2.91-1.14,5.81a13.75,13.75,0,0,1-.89,2.47,25.09,25.09,0,0,0-2.16,9.33l.38,0c-.91-3.21-1.67-6.72-.91-10a8.56,8.56,0,0,1,.73-2,1.25,1.25,0,0,0,.19-.46c0-1,0-2,0-3A49.15,49.15,0,0,0,98.44,57a38.14,38.14,0,0,0-1.93-5.91c-.26-.59-.62-1.25-.81-1.75a21.09,21.09,0,0,1-1.65-7.07c0-.25-.35-.24-.38,0a20.2,20.2,0,0,0,.19,5.86L94.2,48a13.65,13.65,0,0,1-2.26-7.65c0-.2-.33-.26-.37-.05a16,16,0,0,0,0,4.63l.32-.13c-1.55-2-1.85-5-1.7-7.44,0-.19-.25-.24-.35-.09a4.41,4.41,0,0,1-3,2c.05.11.09.21.14.31a7.22,7.22,0,0,0,1.8-3.42.18.18,0,0,0-.27-.21A17.8,17.8,0,0,1,82,38.78a23.18,23.18,0,0,1-4.71.22,7,7,0,0,1-1.3-.06c0,.12,0,.24,0,.36,3.22-.31,6.73-1.7,8.75-4.28.12-.15,0-.41-.21-.29a19.19,19.19,0,0,1-10.29,3.68c0,.11,0,.23,0,.35,3.22-1,6.53-3.09,8.2-6.07.11-.19-.12-.33-.28-.21a51.17,51.17,0,0,1-4.31,3c-2.38,1.48-5.19,3.17-8,3.32l.09.33c3.76-1.67,7.79-4.52,9.56-8.33.06-.14-.09-.36-.24-.24A44.69,44.69,0,0,1,64,38a48.2,48.2,0,0,1-10.49,1.45,22.4,22.4,0,0,0-6.82,1.3l.17.28a8,8,0,0,1,3.44-2.42.17.17,0,1,0-.09-.32c-2.81.58-6.15,1.44-8.34,3.39l.26.2a6.68,6.68,0,0,1,1.13-1.3A22.74,22.74,0,0,1,48,37.14a.16.16,0,0,0-.12-.3c-2.81.67-6.07,1.54-8.34,3.39l.25.19c1.26-2.2,3.72-3.78,5.92-4.87.17-.08.05-.33-.12-.28a51.61,51.61,0,0,0-15,7.31c-2.26,1.55-4.68,3.25-6.23,5.55a63.05,63.05,0,0,0-7,14c-.38,1.1-.72,2.22-1,3.34-.16.58-.3,1.17-.44,1.75A9.66,9.66,0,0,0,15.6,69c0,1.72.05,3.43.13,5.14.18,3.87.53,7.74,1.09,11.58.33,2.25.74,4.49,1.26,6.71.25,1,.53,2.1.84,3.14.06.21.26,1.14.45,1.12a2.9,2.9,0,0,1-.78,0,5.1,5.1,0,0,1-2.53-1.45c-.23-.22-.2-.23-.22-.55-.09-1-.19-1.93-.3-2.9A86.14,86.14,0,0,0,14,82,36.94,36.94,0,0,0,11,74a4.34,4.34,0,0,0-2.12-2.28,4.24,4.24,0,0,0-2.15.09l-2,.35c-.11,0-.07.18,0,.16,1.61-.3,3.62-1,4.95.19,1.08,1,1.59,2.62,2.16,3.92a39.54,39.54,0,0,1,2.56,9.14c.51,2.89.87,5.81,1.14,8.73a1.84,1.84,0,0,0,1,1.76,4,4,0,0,0,2.88.94.13.13,0,0,0,.09-.16C17,89,16.2,80.6,15.94,72.43c0-1,0-1.93,0-2.89a14.43,14.43,0,0,1,.73-3.72,57.1,57.1,0,0,1,5-12.47,55,55,0,0,1,3.46-5.69,13.14,13.14,0,0,1,2.17-2.11,45.21,45.21,0,0,1,5.33-3.9,50.56,50.56,0,0,1,13.1-6.08l-.12-.29c-2.25,1.1-4.76,2.74-6,5a.16.16,0,0,0,.25.2A15.71,15.71,0,0,1,44.9,38c1-.34,2.05-.64,3.08-.88l-.12-.3a24.5,24.5,0,0,0-4.75,3.34,7,7,0,0,0-1.29,1.47.17.17,0,0,0,.26.2c2.14-1.9,5.44-2.73,8.19-3.3l-.09-.32a8.22,8.22,0,0,0-3.59,2.5c-.1.12,0,.35.16.29a22.82,22.82,0,0,1,7-1.3,49.47,49.47,0,0,0,10.28-1.45,44.19,44.19,0,0,0,15.29-7.47l-.24-.24c-1.75,3.77-5.72,6.56-9.44,8.21-.16.07-.08.33.09.32,2.81-.14,5.52-1.73,7.87-3.14a49.69,49.69,0,0,0,4.75-3.24l-.28-.22c-1.63,2.9-4.86,4.94-8,5.9a.18.18,0,0,0,0,.35,19.56,19.56,0,0,0,10.47-3.71l-.22-.29a12.44,12.44,0,0,1-8.5,4.17c-.19,0-.26.32,0,.36a7.31,7.31,0,0,0,1.24.08,29.4,29.4,0,0,0,4.69-.19,17.11,17.11,0,0,0,6.88-2.9l-.27-.21a6.91,6.91,0,0,1-1.72,3.26c-.11.1,0,.34.13.32a4.81,4.81,0,0,0,3.33-2.2l-.34-.1c-.16,2.54.17,5.62,1.81,7.7a.19.19,0,0,0,.32-.13,15.29,15.29,0,0,1,0-4.53l-.37,0a14,14,0,0,0,2.32,7.84.19.19,0,0,0,.34-.14,19.86,19.86,0,0,1-.17-5.76h-.38a19.89,19.89,0,0,0,1.11,5.59A12.69,12.69,0,0,0,95.56,50a31,31,0,0,1,3.08,10.31,76.1,76.1,0,0,1,.49,10V71c0-.17,0,0-.11.12a7.27,7.27,0,0,0-.32.69,12.19,12.19,0,0,0-.76,5.55,31.83,31.83,0,0,0,1.19,6.18.19.19,0,0,0,.38,0,24.62,24.62,0,0,1,2.79-10.63,7.3,7.3,0,0,0,.32-1.4c.14-.67.28-1.33.41-2,.27-1.36.53-2.73.77-4.1q.58-3.44,1-6.89a87.77,87.77,0,0,0,.57-17.82c-.06-.67-.13-1.35-.23-2a3.85,3.85,0,0,0-.54-1c-.38-.68-1.22-1.67-1.23-2.45a7,7,0,0,0-1.22-3.72c-.17-.24-.36-.38-.34-.61a5.66,5.66,0,0,0-.32-2.08,11.69,11.69,0,0,0-3.63-5c0,.11-.09.22-.14.33a4.38,4.38,0,0,1,3.18,1.84c.12.17.44.08.36-.15a7.88,7.88,0,0,0-4.54-4.19v.38a8.73,8.73,0,0,1,4.47.88c.21.09.35-.25.15-.36-1-.55-2-1.31-3-1.91a29.61,29.61,0,0,0-3-1.43c0,.09,0,.18.07.27.78-1.09.55-2.53.55-3.79,0-.19-.28-.29-.36-.1-.4.91-1.81,1.18-2.7,1.31l.19.33A4,4,0,0,0,94,11.92a.2.2,0,0,0-.36.15c.31,1.68-1.37,3-2.72,3.65l.29.22c.72-2.67-1.06-5.4-3-7-.16-.14-.45,0-.32.24a7.4,7.4,0,0,1,1.22,5.65h.38a11.31,11.31,0,0,0-2-4.08c-.23-.36-.46-.72-.71-1.06s-.53-.27-.73-.35C82.75,7.91,79.73,6,76.51,4.39,74,3.14,71.49,2,68.94.83A3.31,3.31,0,0,0,67.86.65C66.9.57,65.94.53,65,.51c-2,0-4,0-6,.14a130,130,0,0,0-22.1,3.49,62.37,62.37,0,0,0-7,2C27.42,7,24.35,8,21.82,6.58a.18.18,0,0,0-.22.29,10.38,10.38,0,0,0,5.89,2.86c0-.12,0-.24,0-.36-2,.26-4-.43-5.94-.45a14.49,14.49,0,0,0-5.93,1.36c-.19.08-.06.38.13.32,1.87-.51,6.06-1.17,6.65,1.64l.17-.22A16.35,16.35,0,0,0,9.47,17c-.12.13,0,.38.2.26,2.28-1.71,5.68-2.89,8.46-1.59,0-.09,0-.19,0-.29C14.05,16.77,9.88,18.73,6.91,22A8.67,8.67,0,0,0,4.7,25.7c0,.13.14.26.24.14a11.15,11.15,0,0,1,5.92-4c0-.09-.07-.17-.11-.25a27.94,27.94,0,0,0-8.9,9.79,11.24,11.24,0,0,0-1.36,4.4.12.12,0,0,0,.24,0c1.11-3.29,4-6.1,6.8-8L7.4,27.6c-3.54,3.6-5.92,9-5.48,14.15,0,.11.17.14.2,0,.6-2.94,1.84-6.06,4.24-8,.51-.42,0,0-.17.28A29.22,29.22,0,0,0,3.12,44.41c-1.05,9.3,2,18.47,1.56,27.78A0,0,0,0,0,4.76,72.19Z"/></g></g></svg>