<svg xmlns="http://www.w3.org/2000/svg" xmlns:xlink="http://www.w3.org/1999/xlink" viewBox="0 0 104.58 187.21"><defs><style>.cls-1{fill:url(#linear-gradient);}.cls-2{fill:#d77c57;}.cls-3{fill:url(#radial-gradient);}.cls-4{fill:url(#radial-gradient-2);}.cls-5{fill:url(#radial-gradient-3);}.cls-6{fill:url(#linear-gradient-2);}.cls-7{fill:url(#linear-gradient-3);}.cls-8{fill:url(#linear-gradient-4);}.cls-9{fill:url(#linear-gradient-5);}.cls-10{fill:#c26744;}.cls-11{fill:url(#linear-gradient-6);}.cls-12{fill:url(#linear-gradient-7);}.cls-13{fill:url(#linear-gradient-8);}.cls-14{fill:url(#linear-gradient-9);}.cls-15{fill:url(#linear-gradient-10);}.cls-16{fill:url(#linear-gradient-11);}.cls-17{fill:#bd5139;}.cls-18{fill:url(#radial-gradient-4);}.cls-19{fill:#a84132;}.cls-20{fill:#602117;}.cls-21{fill:url(#linear-gradient-12);}.cls-22{fill:url(#radial-gradient-5);}.cls-23{fill:url(#linear-gradient-13);}.cls-24{fill:url(#linear-gradient-14);}.cls-25{fill:url(#linear-gradient-15);}.cls-26{fill:url(#linear-gradient-16);}.cls-27{fill:#7f361c;}.cls-28{fill:url(#linear-gradient-17);}.cls-29{fill:url(#linear-gradient-18);}.cls-30{fill:url(#linear-gradient-19);}.cls-31{fill:url(#linear-gradient-20);}.cls-32{fill:url(#linear-gradient-21);}.cls-33{fill:#fff;}.cls-34{fill:url(#linear-gradient-22);}.cls-35{fill:url(#linear-gradient-23);}.cls-36{fill:url(#linear-gradient-24);}.cls-37{fill:url(#linear-gradient-25);}.cls-38{fill:url(#linear-gradient-26);}.cls-39{fill:url(#linear-gradient-27);}.cls-40{fill:url(#linear-gradient-28);}.cls-41{fill:url(#linear-gradient-29);}.cls-42{fill:url(#linear-gradient-30);}.cls-43{fill:url(#linear-gradient-31);}.cls-44{fill:url(#linear-gradient-32);}.cls-45{fill:url(#linear-gradient-33);}.cls-46{fill:url(#linear-gradient-34);}.cls-47{fill:url(#linear-gradient-35);}.cls-48{fill:url(#linear-gradient-36);}.cls-49{fill:url(#linear-gradient-37);}.cls-50{fill:url(#linear-gradient-38);}</style><linearGradient id="linear-gradient" x1="53.87" y1="173.65" x2="53.87" y2="126.12" gradientUnits="userSpaceOnUse"><stop offset="0" stop-color="#d77c57"/><stop offset="1" stop-color="#a54929"/></linearGradient><radialGradient id="radial-gradient" cx="-322.67" cy="194.53" r="75.75" gradientTransform="matrix(0.11, 0.08, -0.15, 0.2, 160.38, 99.74)" gradientUnits="userSpaceOnUse"><stop offset="0" stop-color="#f7966f"/><stop offset="1" stop-color="#d77c57"/></radialGradient><radialGradient id="radial-gradient-2" cx="-843.26" cy="54.08" r="75.76" gradientTransform="matrix(0.12, -0.08, 0.15, 0.22, 125.13, 29.38)" xlink:href="#radial-gradient"/><radialGradient id="radial-gradient-3" cx="-238.3" cy="113.63" r="65.81" gradientTransform="translate(132.07 104.08) scale(0.27 0.19)" xlink:href="#radial-gradient"/><linearGradient id="linear-gradient-2" x1="23.95" y1="139.2" x2="46.99" y2="101.13" xlink:href="#linear-gradient"/><linearGradient id="linear-gradient-3" x1="83.59" y1="136.53" x2="117" y2="81.32" xlink:href="#linear-gradient"/><linearGradient id="linear-gradient-4" x1="78.09" y1="101.05" x2="67.73" y2="103.84" xlink:href="#linear-gradient"/><linearGradient id="linear-gradient-5" x1="54.53" y1="99.83" x2="68.95" y2="108.23" xlink:href="#linear-gradient"/><linearGradient id="linear-gradient-6" x1="40.34" y1="89.69" x2="40.34" y2="78.01" xlink:href="#linear-gradient"/><linearGradient id="linear-gradient-7" x1="83.43" y1="90.45" x2="83.43" y2="78.13" xlink:href="#linear-gradient"/><linearGradient id="linear-gradient-8" x1="68.18" y1="92.43" x2="68.18" y2="108.97" gradientUnits="userSpaceOnUse"><stop offset="0" stop-color="#d77c57"/><stop offset="1" stop-color="#f7966f"/></linearGradient><linearGradient id="linear-gradient-9" x1="57.06" y1="112.81" x2="55.36" y2="110.68" xlink:href="#linear-gradient-8"/><linearGradient id="linear-gradient-10" x1="76.54" y1="113.87" x2="78.27" y2="111.28" xlink:href="#linear-gradient-8"/><linearGradient id="linear-gradient-11" x1="66.23" y1="126.95" x2="66.23" y2="115.89" xlink:href="#linear-gradient"/><radialGradient id="radial-gradient-4" cx="-192.94" cy="157.68" r="36.19" gradientTransform="translate(123.82 115.43) scale(0.29 0.13)" gradientUnits="userSpaceOnUse"><stop offset="0" stop-color="#d46f53"/><stop offset="1" stop-color="#bd5139"/></radialGradient><linearGradient id="linear-gradient-12" x1="55.62" y1="99.36" x2="55.62" y2="50.46" xlink:href="#linear-gradient"/><radialGradient id="radial-gradient-5" cx="-229.12" cy="138" r="35.46" gradientTransform="translate(123.75 104.42) scale(0.25)" gradientUnits="userSpaceOnUse"><stop offset="0" stop-color="#a54929"/><stop offset="1" stop-color="#d77c57"/></radialGradient><linearGradient id="linear-gradient-13" x1="66.2" y1="104.86" x2="66.2" y2="85.39" gradientUnits="userSpaceOnUse"><stop offset="0" stop-color="#7f361c"/><stop offset="1" stop-color="#d77c57"/></linearGradient><linearGradient id="linear-gradient-14" x1="0.82" y1="106.5" x2="10.43" y2="99.46" xlink:href="#linear-gradient"/><linearGradient id="linear-gradient-15" x1="100.27" y1="96.1" x2="98.29" y2="95.37" gradientUnits="userSpaceOnUse"><stop offset="0" stop-color="#8b3b1b"/><stop offset="1" stop-color="#6f240a"/></linearGradient><linearGradient id="linear-gradient-16" x1="7.34" y1="103.45" x2="12.68" y2="100.56" gradientUnits="userSpaceOnUse"><stop offset="0" stop-color="#a44b29"/><stop offset="1" stop-color="#883214"/></linearGradient><linearGradient id="linear-gradient-17" x1="99.48" y1="94.39" x2="98.61" y2="94.07" xlink:href="#linear-gradient-15"/><linearGradient id="linear-gradient-18" x1="5.52" y1="104.5" x2="12.71" y2="100.61" xlink:href="#linear-gradient-15"/><linearGradient id="linear-gradient-19" x1="40.24" y1="79.13" x2="40.24" y2="75.1" gradientUnits="userSpaceOnUse"><stop offset="0"/><stop offset="1" stop-color="#162329"/></linearGradient><linearGradient id="linear-gradient-20" x1="83.42" y1="79.13" x2="83.42" y2="75.1" xlink:href="#linear-gradient-19"/><linearGradient id="linear-gradient-21" x1="85.24" y1="71.84" x2="85.24" y2="76.87" xlink:href="#linear-gradient-15"/><linearGradient id="linear-gradient-22" x1="82.73" y1="94.48" x2="82.73" y2="87.36" gradientUnits="userSpaceOnUse"><stop offset="0" stop-color="#39140a"/><stop offset="1"/></linearGradient><linearGradient id="linear-gradient-23" x1="82.73" y1="94.48" x2="82.73" y2="87.36" gradientUnits="userSpaceOnUse"><stop offset="0.01" stop-color="#652312"/><stop offset="1" stop-color="#210000"/></linearGradient><linearGradient id="linear-gradient-24" x1="82.73" y1="90.96" x2="82.73" y2="92.81" gradientUnits="userSpaceOnUse"><stop offset="0"/><stop offset="1" stop-color="#77726d"/></linearGradient><linearGradient id="linear-gradient-25" x1="-126.9" y1="71.85" x2="-126.9" y2="76.88" gradientTransform="matrix(-1.19, 0, 0, 1, -113.27, 0)" xlink:href="#linear-gradient-15"/><linearGradient id="linear-gradient-26" x1="39.97" y1="94.48" x2="39.97" y2="87.36" xlink:href="#linear-gradient-22"/><linearGradient id="linear-gradient-27" x1="39.97" y1="94.48" x2="39.97" y2="87.36" xlink:href="#linear-gradient-23"/><linearGradient id="linear-gradient-28" x1="39.97" y1="90.96" x2="39.97" y2="92.81" xlink:href="#linear-gradient-24"/><linearGradient id="linear-gradient-29" x1="53.02" y1="50.85" x2="53.02" y2="4.75" gradientUnits="userSpaceOnUse"><stop offset="0"/><stop offset="1" stop-color="#2d4753"/></linearGradient><linearGradient id="linear-gradient-30" x1="67.75" y1="50.85" x2="67.75" y2="4.75" gradientUnits="userSpaceOnUse"><stop offset="0"/><stop offset="1" stop-color="#3a5b6f"/></linearGradient><linearGradient id="linear-gradient-31" x1="46.37" y1="33.59" x2="44.26" y2="11.3" gradientUnits="userSpaceOnUse"><stop offset="0" stop-color="#080d10"/><stop offset="1" stop-color="#426f86"/></linearGradient><linearGradient id="linear-gradient-32" x1="22.54" y1="59.67" x2="14.1" y2="6.89" xlink:href="#linear-gradient-30"/><linearGradient id="linear-gradient-33" x1="96.36" y1="63" x2="88.3" y2="12.63" xlink:href="#linear-gradient-30"/><linearGradient id="linear-gradient-34" x1="42.91" y1="64.08" x2="8.43" y2="19.74" xlink:href="#linear-gradient-30"/><linearGradient id="linear-gradient-35" x1="90.07" y1="59.59" x2="102.38" y2="29.33" xlink:href="#linear-gradient-30"/><linearGradient id="linear-gradient-36" x1="13.14" y1="78.12" x2="13.14" y2="126.92" xlink:href="#linear-gradient-30"/><linearGradient id="linear-gradient-37" x1="97.36" y1="79.29" x2="97.36" y2="99.94" xlink:href="#linear-gradient-30"/><linearGradient id="linear-gradient-38" x1="67.75" y1="45.96" x2="67.75" y2="4.79" xlink:href="#linear-gradient-31"/></defs><g id="Layer_2" data-name="Layer 2"><g id="_2_Face" data-name="2_Face"><path d="M60.11,187.21c-40.69,0-56.58-11.09-56.74-11.2a.51.51,0,0,1-.2-.47.52.52,0,0,1,.28-.41c.19-.08,18.93-8.08,21.06-14.14s1.57-38.2,1.56-38.52a.55.55,0,0,1,.14-.37.4.4,0,0,1,.31-.13h0l57.57,4.22a.43.43,0,0,1,.32.19.52.52,0,0,1,.09.38c0,.25-3.75,24.6-.35,33.51s19.93,15.15,20.1,15.21a.51.51,0,0,1,.06.9c-.18.11-18.33,10.83-44.23,10.83Z"/><path class="cls-1" d="M3.61,175.59s19.09-8.09,21.32-14.42,1.59-38.71,1.59-38.71l57.57,4.22s-3.81,24.63-.32,33.78S104.13,176,104.13,176s-17.93,10.77-44,10.77C19.08,186.72,3.61,175.59,3.61,175.59Z"/><path d="M104.32,66.26v-.78l0-.12,0-.2-.06-.35v-.09l0-.18v-.15l0-.06v-.06l0-.22v-.11c0-.1,0-.2-.07-.31l0-.08c0-.13,0-.26-.08-.38l0-.05v0c0-.1,0-.2-.07-.3l0-.13c0-.08,0-.17-.07-.26l0-.12c0-.09,0-.17-.08-.25l0-.06,0-.06-.12-.34a25.23,25.23,0,0,1-.27-4.92c0-4.06-.07-9.62-1.32-12.68a.25.25,0,0,0,0-.07l-.09-.15h0l0,0-.06-.09-.19-.3-.27-.41a40.77,40.77,0,0,0-5.91-7.31l-.3-.26a5.93,5.93,0,0,0-.51-.4c-2.93-2.12-8.75-13-10.18-18.19a.54.54,0,0,0-.51-.39h-.09a.53.53,0,0,0-.44.56,57.9,57.9,0,0,0,1.06,7,27.91,27.91,0,0,1-4.06-9,24.28,24.28,0,0,0-4.59-10A9.2,9.2,0,0,0,73.42.15.51.51,0,0,0,73.05,0a.57.57,0,0,0-.28.08.53.53,0,0,0-.22.62A6.11,6.11,0,0,1,71.4,6.17a18,18,0,0,1,.73-2.8.51.51,0,0,0-.23-.66.48.48,0,0,0-.26-.07.51.51,0,0,0-.43.23s-.52.75-1.24,1.86l0,0,0,0L69.79,5l-.12.17-.08.14,0,.07-.17.27-.12.19-.15.23L69,6.17,69,6.29l-.07.1-.09.15-.11.17-.11.18,0,.06-.2.33-.15.25L68,7.9l-.13.21-.36.6c-1.12,1.91-4.46,4-6.52,5.2a14,14,0,0,0,1.87-5.26.51.51,0,0,0-.37-.53l-.15,0a.53.53,0,0,0-.46.28c0,.07-4.19,7.23-20.39,10.81-.77.08-10.63,1.17-15.18,4.5l-.87.63-.06,0-.84.6-.61.42c-1.57,1.1-3.2,2.24-4.77,3.5l-.54.43-.05,0-.06.05-.43.36-.09.08-.47.41,0,0,0,0c-.36.33-.71.65-1.05,1l-.55.56-.07.07-.38.41-.06.07,0,0-.37.42,0,0,0,0c-.3.35-.59.71-.85,1.07l0,.05-.45.64,0,0,0,0-.24.37a2.39,2.39,0,0,0-.13.21c-.08.13-.16.26-.24.41l-.05.08c-.13.23-.26.46-.37.69l0,0-.06.1,0,0,0,0,0,.06,0,.06,0,0-.18.26,0,0-.11.15,0,0,0,0-.42.58,0,.06,0,0c-.15.2-.31.42-.48.63l-.05.07-.06.07-.1.12,0,0A10.83,10.83,0,0,1,8.7,40.92l-.28.19c-2,1.39-6.79,4.65-6.1,13.47a.53.53,0,0,0,.5.49h0a.53.53,0,0,0,.52-.44,9.51,9.51,0,0,1,2.35-4.55,67.12,67.12,0,0,0-3.91,11s0,.06,0,.09A82.18,82.18,0,0,0,2,72.37c.13,1.25.32,2.55.52,3.94v.07l0,.22.1.71,0,.16,0,.17c0,.23.07.47.1.7l0,.28.12,1v.09l.09.83,0,.28c0,.23,0,.46.07.69v.25c0,.31,0,.61.06.94v0l0,.8v.25c0,.2,0,.41,0,.62v.23c0,.26,0,.52-.06.81s0,.47-.08.7c0,.06,0,.12,0,.21s-.07.33-.1.49l0,.08,0,.11a4.28,4.28,0,0,1-.14.43c-.36.4-.68.83-1,1.2l0,.06-.35.43A4.8,4.8,0,0,0,.06,91.61a34.29,34.29,0,0,0,1.57,11.75c.42,1.52.89,3,1.3,4.4.09.31.17.62.25.93A10.15,10.15,0,0,0,4,111a15.12,15.12,0,0,0,8,6.75,7.78,7.78,0,0,0,2.61.47,6.25,6.25,0,0,0,2.12-.36h.17A10.13,10.13,0,0,1,19.73,121a23,23,0,0,1,1.8,3.86c.21.62.4,1.26.57,1.9a20.33,20.33,0,0,0,3.95,7.58,28.06,28.06,0,0,0,5,4.56c2.06,1.57,4.05,3.13,5.9,4.59l2.78,2.21c2.14,1.7,4.36,3.46,6.58,5.14A31.37,31.37,0,0,0,51.63,154l.08,0h0a29.09,29.09,0,0,0,12.38,2.84,27,27,0,0,0,3.71-.25,18.36,18.36,0,0,0,10-4.51,16.51,16.51,0,0,0,2.59-3.1c.36-.56.69-1.14,1-1.7s.69-1.25,1.09-1.83c1.3-1.92,2.82-3.74,4.29-5.5.93-1.11,1.89-2.26,2.8-3.43,2.11-2.75,2.8-6.48,3.4-9.78l.08-.43c.13-.69.25-1.38.37-2.06a41.31,41.31,0,0,1,2.75-10.4c.22-.48.45-1,.68-1.43a21.3,21.3,0,0,0,1.84-4.74,18.36,18.36,0,0,0,.28-5.19.53.53,0,0,0,.08-.17,61.63,61.63,0,0,0,1.5-6.23c.17-.91.34-1.92.53-3.15.08-.52.16-1,.23-1.55,0-.14,0-.3,0-.46a2.6,2.6,0,0,1,.22-1,.73.73,0,0,0-.1-.91,8,8,0,0,0-3.72-2.13A19.33,19.33,0,0,1,98.71,82l0-.06.07-.19,0-.09,0-.13,0-.09,0,0,0-.06,0,0,.06-.17,0-.07,0,0,0-.11c.07-.19.14-.4.21-.61l0-.09,0,0,0-.13,0-.11,0-.07,0-.12,0,0,0-.15,0-.1,0-.12,0-.06.07-.21.17-.49v0l.12-.35,0,0v-.05l.49-1.4,0-.13,0-.1c1.17-3.37,2.46-7.17,2.79-8.18a.51.51,0,0,0,0-.17s0-.45,0-1.06a.52.52,0,0,0,.39.18h0a.53.53,0,0,0,.5-.53,2.76,2.76,0,0,0,0-.37Z"/><path class="cls-2" d="M101,89.56a7.58,7.58,0,0,0-3.88-2.11l-.76.49c.42-11.2-.37-26.47-.53-26.95-.23-.7-5.39-10.79-10.32-14.07s-10.79-7-16-8.21-13.84,3-20.41,6.8-26,19-27.21,20.88c-.9,1.43-4,15.2-5.39,21.61L5.14,86.57c-1.76.35-4.4,4.75-4.4,4.75A35.07,35.07,0,0,0,2,102.05c.35,1.41,1.76,6,1.76,6,.35,4.58,8.09,11.09,12.84,9.33h.53c2.81,1.76,4.4,5.63,5.45,8.79a20.23,20.23,0,0,0,7.57,11.26c6.33,4.76,14.25,11.26,17.42,13.55A28.06,28.06,0,0,0,66,156.24c9.15-.53,13.2-5.81,14.78-9s6.34-8.45,8.27-10.91,3-6.69,4-13.55A33.62,33.62,0,0,1,97,111c.84-1.83,1.8-4,1.43-8.76l.15,0A81.19,81.19,0,0,0,101,89.56Z"/><path class="cls-3" d="M97,111c.84-1.83,1.8-4,1.43-8.76l.15,0a64.66,64.66,0,0,0,1.87-8.53c-4.51,1.39-9.56,5.06-13.71,10.38-7.16,9.2-8.87,19.85-3.82,23.78,2.3,1.79,5.61,1.87,9.21.56.35-1.63.67-3.5,1-5.61A33.62,33.62,0,0,1,97,111Z"/><path class="cls-4" d="M19,94.47c-5.67,4-4.37,15.61,2.91,26s17.78,15.48,23.45,11.49S49.72,116.3,42.44,106,24.67,90.48,19,94.47Z"/><path class="cls-5" d="M84.72,125.86c0,7-8.09,12.62-18.06,12.62s-18.07-5.65-18.07-12.62,8.09-12.62,18.07-12.62S84.72,118.89,84.72,125.86Z"/><path class="cls-6" d="M31.35,119.41c-3.52-4-12-13.14-12-13.14l-2.82-1.88s1.64,6.81.47,10.8a3.13,3.13,0,0,1-2,2.45,4.91,4.91,0,0,0,1.58-.28h.53c2.81,1.76,4.4,5.63,5.45,8.79a20.23,20.23,0,0,0,7.57,11.26c5.47,4.1,12.11,9.51,15.86,12.39a29.13,29.13,0,0,1-3.13-4.35C41.44,142.63,34.87,123.4,31.35,119.41Z"/><path class="cls-7" d="M93.11,122.81A33.62,33.62,0,0,1,97,111a14.77,14.77,0,0,0,1.47-8h0c-.94,6.1-3.29,8.21-4.93,10.79S88.83,128.09,87,132.31c-1.63,3.67-4.14,10.87-4.78,12.7,2.1-3,5.37-6.71,6.89-8.65C91,133.89,92.05,129.67,93.11,122.81Z"/><path class="cls-8" d="M75,110.26l-1.88-3.52a33.36,33.36,0,0,1-.47-4.1A34.66,34.66,0,0,0,71.7,97a28.77,28.77,0,0,1-.47-6.68,32,32,0,0,0,2,4.69c.82,1.29,6,6.1,7,8.33s-.11,8-.58,9.85l-2.47-2.11Z"/><path class="cls-9" d="M59,109.56a13,13,0,0,0,2.47-4c.47-1.76-.24-10.79-.47-12.44S58,86.92,58,86.92s-1.41,4.57-2.93,6.33-5.52,7-5.64,10,1.18,6.45,3.64,10.68l1.88-1.76Z"/><path class="cls-10" d="M29.71,92S33,99.7,40.5,99.23s9.62-6.1,9.62-6.1L41,91.26Z"/><path class="cls-10" d="M75.69,93.13s3,5.63,8.44,5.63,8-6.8,8-6.8L82,92.43Z"/><path class="cls-2" d="M31.7,93.87s8.18,5,16.54.79c0,0-4.3,5.67-8.44,5.28C35.13,99.5,31.7,93.87,31.7,93.87Z"/><path class="cls-2" d="M77.64,95a12.09,12.09,0,0,0,7,1.36,14.09,14.09,0,0,0,6.17-3S89.06,98.44,85,99C81.31,99.45,77.64,95,77.64,95Z"/><path class="cls-11" d="M30.65,92s-11-3.52-5.16-12c0,0,6.1-4,13.13-2.58s18.3,7,18.3,7-.47,7.75-7,8.45Z"/><path class="cls-12" d="M75.69,93.13s-4.69-4.92-3-8.44,8-6.8,8-6.8l6.8-.71,5.16,2.35,1.88,3.75s.94,6.1-2.82,8.21l-8.21,2.35Z"/><path class="cls-13" d="M65,115.25s-3.7-3.35-3-5.28,2.46-3.52,2.46-4.75-.88-12.67-1.94-15.66l7.57-.18c-.41.08.84,6.12.93,6.59.22,1.16.5,2.32.69,3.48.35,2.18,0,4.42.41,6.59s2.6,3.4,2.37,5.69C74.28,113.49,71.29,118.41,65,115.25Z"/><path class="cls-14" d="M56.57,114c1.2-.54,3-1.38,3-2.9,0-2.45-3.59-1-4.65-.31-.68.44-1.89,1.33-1.8,2.28C53.33,114.79,55.54,114.45,56.57,114Z"/><path class="cls-15" d="M79.23,112.49c.43,1.36-.08,2-.58,3.25-.24-1.45-3.94-4-3.18-5.27C76.47,108.79,78.93,111.51,79.23,112.49Z"/><path class="cls-2" d="M63.37,106.86s3.52-2.47,9.27-.71v-1.52a12,12,0,0,0-8.8.35Z"/><path class="cls-16" d="M73.67,115.51A6.17,6.17,0,0,1,68,118.76c-2.82-.08-3.08-1.14-4.23-2.37a7,7,0,0,0-3.51-1.58c-4.31-.36-6.16,1.58-6.16,1.58.53,1.23,3.34,2.37,3.34,2.37s4.38,4.45,8.71,5a3.55,3.55,0,0,0,1.14,1.53c.5.25,1.22-1,1.6-1.75a9.2,9.2,0,0,0,5.27-4.23,7.71,7.71,0,0,0,4.31-3.08A4.7,4.7,0,0,0,73.67,115.51Z"/><path class="cls-17" d="M47.3,130.44s4.46,2.22,6,3,3.75,3.41,7.38,4.11a30.77,30.77,0,0,0,4.49.45,31.08,31.08,0,0,0,7.18-.66,8.63,8.63,0,0,0,5-3.49,14.81,14.81,0,0,1,2.55-2.4,20.74,20.74,0,0,0,2.7-2.81,6.37,6.37,0,0,1-3.75,1.76c-2.35.23-10.79-.83-10.79-.83L55.4,130.67l-5.52-.12Z"/><path class="cls-18" d="M66.89,131.73c-5.27,0-9.63,1.76-10.38,4.07a11.3,11.3,0,0,0,4.16,1.79,30.77,30.77,0,0,0,4.49.45,31.08,31.08,0,0,0,7.18-.66,7.9,7.9,0,0,0,4.3-2.65C75.1,133,71.31,131.73,66.89,131.73Z"/><path class="cls-19" d="M78.86,130.44c-2.35.23-10.79-.83-10.79-.83L55.4,130.67l-5.52-.12-2.58-.11s4.46,2.22,6,3a6.61,6.61,0,0,1,.68.45c-.46-.52-1.14-1.41-.57-1.74.82-.46,7.16-.93,10.56-.35s2.93,1.88,7.86-.35c0,0,4.57-.35,5.16.59s-1.29,3.52-1.29,3.52h.09a13,13,0,0,0,1.58-1.71,14.81,14.81,0,0,1,2.55-2.4,20.74,20.74,0,0,0,2.7-2.81A6.37,6.37,0,0,1,78.86,130.44Zm-14.08,6.92a27,27,0,0,1-8.09-1.65l-.1.14a11.32,11.32,0,0,0,4.08,1.74,30.77,30.77,0,0,0,4.49.45,31.08,31.08,0,0,0,7.18-.66A7.13,7.13,0,0,0,75.28,136l-.18.05C73.81,136.65,69,137.47,64.78,137.36Z"/><path class="cls-19" d="M65.6,131.26c-6.92-2-16.65,3.05-22.17-3.64,0,0,2.94,3.4,7,2.7A41.32,41.32,0,0,0,57,128.18a21.23,21.23,0,0,1,5.84-1.47,6.27,6.27,0,0,1,2.58.33c.29.11,2.46,1.52,2.46,1.52,1.31-.8,2.82-2,4.45-1.76a15.23,15.23,0,0,1,4.11,1.64c2.58,1.29,3.29,1.29,5,.7a7,7,0,0,0,3-2.81,9.23,9.23,0,0,1-5.75,4.57c-2,.47-5.28-.11-7.39-.11l-.47.11a8.59,8.59,0,0,1-3.28,1.29,8.66,8.66,0,0,1-1.53-.7Z"/><path class="cls-20" d="M65.61,131.22c-3.47-1.15-7.47-.33-11-.12-4.14.25-8.23-.21-11.14-3.48,0,0,0,0,0,0,2.47,3.09,6.22,3.75,10,3.66,4.1-.1,8.13-.91,12.19,0C65.64,131.31,65.66,131.23,65.61,131.22Zm5.24-.43c-1.64.65-3,1.7-4.78.7h0a2.69,2.69,0,0,0,2.16.8A7.05,7.05,0,0,0,70.94,131C71,130.93,71,130.73,70.85,130.79Zm13.61-4.48a16.56,16.56,0,0,1-2.32,2.75,9.33,9.33,0,0,1-3.42,1.78A11.09,11.09,0,0,1,75,131c-1.2-.08-2.4-.19-3.6-.19,0,0,0,0,0,0,2.48.06,5.21.82,7.65.11a8.79,8.79,0,0,0,5.52-4.55S84.48,126.27,84.46,126.31Z"/><path class="cls-21" d="M18,96s5.39-10.09,5.86-12.43,6.57-7.28,7.28-7.51,2.58-4.22,3.28-9.15c0,0,4.93-4.69,8.45-8.68s12.9-8.68,22.52-9.62S83.67,55.13,85.78,57s5.86,7,6.33,10.79a78.57,78.57,0,0,1,.24,9.85l2.34,6.8s-.7,8,1.41,9.86c0,0,.7-12,1.17-13.61S95.86,61,95.86,61,90.47,50,89.3,49.26s-10.09-4.45-10.09-4.45-12.44-3.29-15.95-3.52-19.95,3.05-21.12,3.52S24.08,59.12,22.91,60.06s-8.68,15-8.92,16a100.55,100.55,0,0,0,.24,12c.23.71,1.87,9.39,1.87,9.39l1.18,6.1Z"/><path d="M58.62,116.21h-.79c2.46,2.64,4.93,1.23,4.93,1.23A5.47,5.47,0,0,0,58.62,116.21Zm15.66,0-.79,1.23-.44.62a3.68,3.68,0,0,0,3.08-1.32A3.25,3.25,0,0,0,74.28,116.21Z"/><path class="cls-22" d="M57.22,140.58l2.63-1.93s10.91.7,15.14-.53l1.58,2.11S65.66,139.88,57.22,140.58Z"/><path class="cls-23" d="M54.51,117.05a4.37,4.37,0,0,1-1.21-3.87c.43-2.58,3.56-3.28,5.73-3.48,0,0,0,0,0,0-2.44-.15-5.6.67-6.18,3.41-.73,3.4,2.52,4.73,5,5.89,0,0,0,0,0,0A18.41,18.41,0,0,1,54.51,117.05Zm22.6-7.16s0,0,0,0c1.36,1.33,2.45,2.7,2,4.7-.39,1.85-2,3.16-3.53,4.08,0,0,0,0,0,0,1.66-.92,3.43-2.26,4-4.18S78.65,110.79,77.11,109.89Zm-4.7-8.42c.19,1.75-.09,3.53.37,5.25a4.66,4.66,0,0,0,.27.74,5.42,5.42,0,0,0,.56.77c.45.74,1,1.45,1.46,2.17,0,0,.09,0,.06,0-.41-.69-.87-1.35-1.27-2a9.73,9.73,0,0,1-.6-1.53c-.62-1.7-.42-3.55-.63-5.31-.23-1.94-.82-3.82-1-5.76-.11-.94-.13-1.9-.22-2.85a10.87,10.87,0,0,1,0-3.12s0,0,0,0a12.28,12.28,0,0,0,0,5.46A41.52,41.52,0,0,1,72.41,101.47ZM56.67,116.56c-.05,0,0,.09,0,.07a6.93,6.93,0,0,1,5.58.36c.05,0,.11,0,.06-.08A5.12,5.12,0,0,0,56.67,116.56Zm19.86.37a2.55,2.55,0,0,0-2.09-.75l0,0c0-.07,0-.14-.11-.08l-.17.19-.05,0a.05.05,0,0,0,0,.07,22.59,22.59,0,0,1-1.89,2.14,6.14,6.14,0,0,1-2.65,1.29,10.65,10.65,0,0,1-3.19.15c-1.49-.1-2.42-1.59-3.58-2.43,0,0,0,0,0,0,.45.4.88.81,1.31,1.22s1.12.88,1.3,1.41c0,.07.08.14.15.15a9.41,9.41,0,0,0,5.1-.41,7.86,7.86,0,0,0,3.68-3.48,3.85,3.85,0,0,1,1,0,2.9,2.9,0,0,1,1.22.53A0,0,0,1,0,76.53,116.93Z"/><path class="cls-24" d="M14.11,110.41s-4.14.17-5.81-1.15a7.78,7.78,0,0,1-3.34-6c-.09-2.81-2.11-4.31-3.08-9,0,0-1-2.91,1.5-2.73s4,3.08,4,3.08l2.29,4,2.82,2.81L14,104.86l.18,3.26Z"/><path class="cls-25" d="M98,98.18a21.13,21.13,0,0,1,2.12-7.92s-.06,6.51-1.7,11Z"/><path class="cls-26" d="M2.14,91.84C6,89.56,9,97.65,11.29,99.94c1.05,1.12,3,2.66,3.41,4.19s-1,2.86-.55,4.39,2.7,2.6,2.6,4.26l-3.11-2.64s-4.46-1.52-4.46-3.87a8.39,8.39,0,0,1,.59-2.81c.47-.71-1.64-3.64-3-2.47,0,0,1.52-2.23.23-4.22s-2.81-4.1-2.81-4.1Z"/><path class="cls-27" d="M6.87,113.4A10.79,10.79,0,0,1,4.06,109c-.12-.41-.14-.83-.26-1.24l-.59-1.91A53.4,53.4,0,0,1,.93,95.51a26.33,26.33,0,0,1-.09-3.87,2.52,2.52,0,0,1,.61-1.19,11.54,11.54,0,0,1,3.24-3.6,1.72,1.72,0,0,1,.47-.19.09.09,0,1,0,0-.18C3.85,86.76,2.9,88,2.17,89c-.56.72-1.52,1.68-1.59,2.63a34.73,34.73,0,0,0,1.55,11.58c.42,1.47.86,2.93,1.3,4.39a15.59,15.59,0,0,0,1,3.16,14.58,14.58,0,0,0,7.67,6.5,6.37,6.37,0,0,0,4.43.09s0,0,0,0C13.11,118.48,9.16,115.73,6.87,113.4ZM97.81,98.19c.64,3.62,1.08,7.51-.15,11.06-.79,2.26-2.09,4.32-2.92,6.58-1.6,4.39-1.87,9.12-2.93,13.65a23.62,23.62,0,0,1-1.76,5.18,20,20,0,0,1-2.74,3.74c-2.38,2.86-5,5.72-6.68,9a15.76,15.76,0,0,1-5.84,6.2c-4,2.42-8.84,2.85-13.39,2.46a27.88,27.88,0,0,1-11.54-3.7,69,69,0,0,1-7.72-5.68c-3.62-2.86-7.23-5.74-10.9-8.54a25.69,25.69,0,0,1-5.3-5.06,20.16,20.16,0,0,1-2.57-4.57,13.86,13.86,0,0,1-.75-2.34,20.36,20.36,0,0,0-1.9-4.67,10.88,10.88,0,0,0-3.6-4.24c-.05,0-.1,0-.05.09,3,1.94,4.68,5.86,5.54,9.2A19.59,19.59,0,0,0,26.47,134a26.57,26.57,0,0,0,4.94,4.47c2,1.51,3.95,3.05,5.9,4.6,3.12,2.45,6.19,4.95,9.36,7.34a28.63,28.63,0,0,0,21.1,5.74,17.77,17.77,0,0,0,9.74-4.37,15.94,15.94,0,0,0,2.5-3c.75-1.16,1.32-2.41,2.09-3.55,2.14-3.16,4.78-5.93,7.11-8.95,2.13-2.77,2.77-6.65,3.38-10,.79-4.31,1.32-8.57,3.16-12.59a29.81,29.81,0,0,0,2.48-6.06,24.56,24.56,0,0,0-.33-9.47C97.89,98.11,97.8,98.13,97.81,98.19Zm3.36-8.78a7.37,7.37,0,0,0-4-2.08c-.16,0-.22.18-.07.23a9.8,9.8,0,0,1,3.38,1.78c.65.55.27,1.58.17,2.31s-.21,1.45-.32,2.18a66.57,66.57,0,0,1-1.83,8.38c0,.06.07.08.09,0a61.73,61.73,0,0,0,1.48-6.18c.2-1,.37-2.08.53-3.13.08-.52.16-1,.23-1.55a4.34,4.34,0,0,1,.35-1.72A.21.21,0,0,0,101.17,89.41Z"/><path class="cls-28" d="M100.13,90.25A19.1,19.1,0,0,0,98,98.18c0,.09.14.09.15,0a24.66,24.66,0,0,1,2.06-7.91s0,0,0,0Z"/><path class="cls-29" d="M15.34,110a3.31,3.31,0,0,1-1.11-2.19,15,15,0,0,1,.61-2.61A4,4,0,0,0,13.46,102c-.92-1-2-1.9-2.85-3-1.36-1.87-2.39-4-3.91-5.73-1.17-1.36-2.81-2.49-4.57-1.46,0,0,0,0,0,0,2.17-1.15,4,.83,5.15,2.43s2.16,3.45,3.4,5.06A30.5,30.5,0,0,0,13,101.73a8.4,8.4,0,0,1,1.39,1.8,3.19,3.19,0,0,1-.08,2.78,3.22,3.22,0,0,0,.13,3.22c.71,1,2.11,1.87,2.16,3.25a.14.14,0,0,0,.27,0C16.94,111.59,16.09,110.78,15.34,110ZM9.4,106.65a4.54,4.54,0,0,1,1-3.61,11.27,11.27,0,0,1,1-.92c.2-.2.07-.71.07-1,0,0,0,0,0,0,0,.66-.19.55-.68.88a4.35,4.35,0,0,0-1,1.11A4.5,4.5,0,0,0,9,106.28c.37,2.52,3.22,2.75,4.93,4.08,0,0,.11,0,.07-.08C12.6,108.73,9.92,109,9.4,106.65ZM7.28,94.29s-.08,0-.06,0c1.07,2.26.36,4.31-.48,6.51-.63,1.67-1.12,3.37-.38,5.09,0,0,0,0,0,0C4.71,102,9.49,98.27,7.28,94.29Z"/><path class="cls-30" d="M23.61,84.28s1.58-3.52,6.69-4.58,8.44-1,11.78.36,6.51,3.16,9,3.51a21.14,21.14,0,0,1,3.87.88l1.93.53s.18-4.22-1.58-6.16a12.94,12.94,0,0,1,.35,2.64,13.71,13.71,0,0,0-3.34-4.22L53,79s-2.11-2.64-3.52-3.34-14.95-1.76-20.41.17S23.61,84.28,23.61,84.28Z"/><path class="cls-31" d="M94.55,84.28a7.35,7.35,0,0,0-4.48-4.58c-3.41-1-5.65-1-7.89.36s-4.35,3.16-6,3.51a10.41,10.41,0,0,0-2.59.88l-1.3.53s-.12-4.22,1.06-6.16a19.32,19.32,0,0,0-.23,2.64,14.54,14.54,0,0,1,2.23-4.22L74.88,79a14.76,14.76,0,0,1,2.36-3.34c.94-.71,10-1.76,13.66.17S94.55,84.28,94.55,84.28Z"/><path class="cls-32" d="M79,86.4c1.82-1.42,4.48-1.52,6.63-1a9.52,9.52,0,0,1,5.75,3.75s0,0,0,0A9.74,9.74,0,0,0,85.78,85,6.78,6.78,0,0,0,79,86.38s0,0,0,0Z"/><path d="M91.66,91.89s-2.33-4.75-6.73-5.37a7.82,7.82,0,0,0-7.83,3.83c-.44,1.19,7.74,4.93,7.74,4.93S89.19,95.06,91.66,91.89Z"/><path class="cls-33" d="M90.55,92c-2.56-5.17-11.43-7.19-14.24-.16h0l-.24.47c-.23.47-.23,1,.18,1.06a8.44,8.44,0,0,0,1,.06,9.43,9.43,0,0,0,5.52,2,9.71,9.71,0,0,0,7.92-3.34Z"/><path class="cls-34" d="M87.7,90.66a4.94,4.94,0,0,0-.47-2.11c-2.92-1.69-6.78-1.82-9.27.7a5.06,5.06,0,0,0-.2,1.41,5,5,0,0,0,2.75,4.44,7.83,7.83,0,0,0,2.22.35,8.8,8.8,0,0,0,1.36,0A5,5,0,0,0,87.7,90.66Z"/><path class="cls-35" d="M82.73,95.06a4.4,4.4,0,0,0,4.4-4.4,4.34,4.34,0,0,0-.85-2.58,7.64,7.64,0,0,0-7.35.36,4.4,4.4,0,0,0,3.8,6.62Z"/><path d="M85.32,90.66a2.6,2.6,0,1,1-2.59-2.6A2.59,2.59,0,0,1,85.32,90.66Z"/><path class="cls-36" d="M84.56,90.66a1.84,1.84,0,1,1-1.83-1.84A1.83,1.83,0,0,1,84.56,90.66Z"/><path class="cls-33" d="M83.79,88.5a1.07,1.07,0,1,1-1.06-1.06A1.06,1.06,0,0,1,83.79,88.5Z"/><path class="cls-33" d="M83.24,93.19a.51.51,0,0,1-.51.52.52.52,0,1,1,.51-.52Z"/><path class="cls-37" d="M45.72,86.4c-2.17-1.42-5.35-1.52-7.93-1a11.69,11.69,0,0,0-6.86,3.75s-.05,0,0,0c1.37-2,4.17-3.5,6.77-4.13a9.3,9.3,0,0,1,8.08,1.4s0,0,0,0Z"/><path d="M30.65,91.89s2.78-4.75,8-5.37,8.82,2.64,9.35,3.83-9.25,4.93-9.25,4.93S33.59,95.06,30.65,91.89Z"/><path class="cls-33" d="M32,92c3.06-5.17,13.66-7.19,17-.16h0l.28.47c.28.47.28,1-.21,1.06s-1.19.06-1.19.06a12.79,12.79,0,0,1-6.59,2,12.73,12.73,0,0,1-9.45-3.34Z"/><path class="cls-38" d="M44.94,90.66a5,5,0,0,0-1-3,11.78,11.78,0,0,0-8.59,1.21A4.87,4.87,0,0,0,35,90.66a5,5,0,0,0,3,4.56,14,14,0,0,0,3.26.23A5,5,0,0,0,44.94,90.66Z"/><path class="cls-39" d="M40,95.06a4.39,4.39,0,0,0,3-7.61,12,12,0,0,0-6.8,1,4.52,4.52,0,0,0-.6,2.22A4.4,4.4,0,0,0,40,95.06Z"/><path d="M42.57,90.66a2.6,2.6,0,1,1-2.6-2.6A2.59,2.59,0,0,1,42.57,90.66Z"/><path class="cls-40" d="M41.81,90.66A1.84,1.84,0,1,1,40,88.82,1.83,1.83,0,0,1,41.81,90.66Z"/><path class="cls-33" d="M40,87.44A1.06,1.06,0,1,0,41,88.5,1.06,1.06,0,0,0,40,87.44Z"/><path class="cls-33" d="M40.48,93.19a.51.51,0,0,1-.51.52.52.52,0,0,1,0-1A.51.51,0,0,1,40.48,93.19Z"/><path class="cls-41" d="M3.2,87.8C2.84,88.73,5,86.57,6,86.57a45.3,45.3,0,0,0,3.88,5.8,14.12,14.12,0,0,1,3.69,5.1c.7,2.12,2.11,6.51,3.52,8.45s4.4,10,4.57,11.79l1.59-.35s-2.47-9-3.7-11.79A22.48,22.48,0,0,1,18.33,94c.7-4,2.29-12.5,2.64-17.07a103.41,103.41,0,0,0,10-9.33c3.34-3.87,7.21-8.79,7.21-8.79a31.06,31.06,0,0,1-2.81,4.57,54.77,54.77,0,0,0,7-5.81c2.46-2.64,7.74-6.68,12-7.56a12.39,12.39,0,0,0,7.74-4.75,15.93,15.93,0,0,1-3.52,3.87s5.46-1.06,7.22-4.22a14.66,14.66,0,0,0,6.33,4,4.51,4.51,0,0,1-1.23-2.11s4.22,3.52,7.39,4.22a5.45,5.45,0,0,1-1.58-2.46S81,52.43,84,53.49c0,0,4.05,5.28,6.51,6.51,0,0,2.81,6.68,3,10a38.66,38.66,0,0,0,1.76,8.62,24.77,24.77,0,0,1,.35,9.15c-.53,3.34,1.06,8.27,1.06,8.27l.88,2.11A22.09,22.09,0,0,1,97,92.55c.17-2.64.17-7.92,1.23-10.74s4.22-12.14,4.75-13.72a16,16,0,0,0-.7-4.57s1.58,2.11,1.58,3.16a24.6,24.6,0,0,0-1-4.92c-.71-1.76.35-12.85-1.59-17.6,0,0-4-6.51-7.21-8.8S85,22,83.61,16.89c0,0,.52,6.33,1.93,9.85,0,0-4.75-5.8-6-11.78A23.7,23.7,0,0,0,75,5.1,9,9,0,0,0,73.05.53a6.73,6.73,0,0,1-2.46,7.21,29.1,29.1,0,0,1,1-4.57S69.71,6,68,9s-8.45,6.34-8.45,6.34,2.64-3.87,2.82-6.69c0,0-4,7.39-20.76,11.09,0,0-10.39,1.05-15,4.39s-10.91,7-13.72,12.67c0,0-2.11,3.35-3.87,4.58S2.14,45.57,2.85,54.54c0,0,.7-4.22,4.22-6.16A77,77,0,0,0,2.32,61.23,80.72,80.72,0,0,0,2.5,72.31C3,77.42,4.61,84.1,3.2,87.8Z"/><path class="cls-42" d="M79.21,19.53c0-6-3.7-12.49-3.7-12.49A19.15,19.15,0,0,1,70.59,22.7,22.47,22.47,0,0,0,73.75,5.1c-1,11.61-11.26,20.59-14.25,24.28s-4.57,12.67-4.57,12.67,5.28-7,7.74-10.73A9.24,9.24,0,0,1,69,27.27c-4,6.51-3.16,11.09-3.16,11.09-.36-3.7,4.22-10.38,5.8-11.09s2.47,3,2.47,3c-2.29,10.56,1.23,12.85,1.23,12.85-3.35-9,2.46-17.95,2.46-17.95,1.41,6.51,4.4,7.92,4.4,7.92C80.09,31,79.21,25.51,79.21,19.53ZM87.3,31c-1.23-2.29-5.45-4.23-7-10.74v2.29a31,31,0,0,0,2.82,9.85c2.29,4.4.35,10-1.06,13.38,0,0,4.58-5.11,3.17-11.62a9.68,9.68,0,0,1,1.58,5.11S88.53,33.25,87.3,31ZM48.77,34.84a11.5,11.5,0,0,0-.7,7.39c0-3.52,3-7.92,3-7.92-.88,6,1.4,9.32,1.4,9.32a83.2,83.2,0,0,1,.88-9c.71-4.22,4.4-7.92,4.4-7.92S50.53,31.32,48.77,34.84Z"/><path class="cls-43" d="M28.3,25.34c2.35-1.41,8-2.82,13.37-4s13.61-4.46,17.13-7.51a21.84,21.84,0,0,1-6.57,5.63S64.66,15.72,67.48,11A44.32,44.32,0,0,0,70.69,4.6C70,5.7,68.93,7.31,68,9c-1.76,3-8.45,6.34-8.45,6.34s2.64-3.87,2.82-6.69c0,0-4,7.39-20.76,11.09,0,0-10.39,1.05-15,4.39-2.33,1.71-5.12,3.5-7.66,5.6l.21.09S26,26.74,28.3,25.34Z"/><path class="cls-44" d="M42.43,52.08a5.52,5.52,0,0,1,2.41-2.53,26.22,26.22,0,0,0-5.71,2.69A4.66,4.66,0,0,1,40,50c-1.94.3-5.16,1.93-6.74,0-1.84-2.31.26-6.27-1.69-8.69C28,36.85,19.76,39.61,19.82,32.87c-1,.21-2.2.64-3.23.88C17,31.4,19,30,20.61,28.38c-.39.29-.77.59-1.14.89l0,0-.5.41-.1.08-.43.36-.12.1-.44.38-.08.08c-.35.31-.69.62-1,.95l-.11.1-.37.37-.14.15-.33.35-.14.16-.33.36-.12.14c-.29.34-.56.69-.83,1l-.11.16-.27.38-.13.2-.24.36-.12.2c-.08.13-.16.26-.23.39l-.11.18c-.1.19-.21.39-.3.58,0,0-2.11,3.35-3.87,4.58S2.14,45.57,2.85,54.54c0,0,.7-4.22,4.22-6.16A77,77,0,0,0,2.32,61.23,80.72,80.72,0,0,0,2.5,72.31C3,77.42,4.61,84.1,3.2,87.8,2.84,88.73,5,86.57,6,86.57a45.3,45.3,0,0,0,3.88,5.8,14.12,14.12,0,0,1,3.69,5.1c.7,2.12,2.11,6.51,3.52,8.45s4.4,10,4.57,11.79l1.59-.35s-2.47-9-3.7-11.79A22.48,22.48,0,0,1,18.33,94c.7-4,2.29-12.5,2.64-17.07a103.41,103.41,0,0,0,10-9.33c3.34-3.87,7.21-8.79,7.21-8.79a31.06,31.06,0,0,1-2.81,4.57,54.77,54.77,0,0,0,7-5.81c.13-.15.28-.3.44-.46l.33-.31.14-.15.46-.42,0,0,.53-.48C42.89,54.85,41.7,54.12,42.43,52.08Z"/><path class="cls-45" d="M90.47,60s2.81,6.68,3,10a38.66,38.66,0,0,0,1.76,8.62,24.77,24.77,0,0,1,.35,9.15c-.53,3.34,1.06,8.27,1.06,8.27l.88,2.11A22.09,22.09,0,0,1,97,92.55c.17-2.64.17-7.92,1.23-10.74s4.22-12.14,4.75-13.72a16,16,0,0,0-.7-4.57,10.3,10.3,0,0,1,1.55,2.87,23.49,23.49,0,0,0-1-4.63c-.71-1.76.35-12.85-1.59-17.6,0,0-3.65-5.87-6.73-8.42a11.35,11.35,0,0,1,1.39,4.38c.12,4.05-2.35.63-4,2.79-1.94,2.47,2.13,7.17.54,9.87-1.27,2.16-3.49,1.07-3.56,4.66a1.72,1.72,0,0,1-1.37-.2l-.09.15A13.7,13.7,0,0,0,90.47,60Z"/><path class="cls-46" d="M35.4,63.34a54.77,54.77,0,0,0,7-5.81c.13-.15.28-.3.44-.46l.33-.31.14-.15.46-.42,0,0,.53-.48c-1.49-.83-2.68-1.56-2-3.6a5.52,5.52,0,0,1,2.41-2.53,26.22,26.22,0,0,0-5.71,2.69A4.66,4.66,0,0,1,40,50c-1.94.3-5.16,1.93-6.74,0-1.84-2.31.26-6.27-1.69-8.69C28,36.85,19.76,39.61,19.82,32.87c-1,.21-2.2.64-3.23.88C17,31.4,19,30,20.61,28.38c-.39.29-.77.59-1.14.89l0,0-.5.41-.1.08-.43.36-.12.1-.44.38-.08.08c-.35.31-.69.62-1,.95l-.11.1-.37.37-.14.15-.33.35-.14.16-.33.36-.12.14c-.29.34-.56.69-.83,1l-.11.16-.27.38-.13.2-.24.36-.12.2c-.08.13-.16.26-.23.39l-.11.18c-.1.19-.21.39-.3.58a28.32,28.32,0,0,1-2.16,2.92c6.93-1.68,17.19-2,19.63,3.94,1.36,3.29.85,8.43,1.24,12A16.94,16.94,0,0,0,34.8,63c1.92-2.36,3.41-4.25,3.41-4.25A31.06,31.06,0,0,1,35.4,63.34Z"/><path class="cls-47" d="M94.47,35.74a11.35,11.35,0,0,1,1.39,4.38c.12,4.05-2.35.63-4,2.79-1.94,2.47,2.13,7.17.54,9.87l-.18.28a3.75,3.75,0,0,0,1.36-3.81c-.44-2.18-1.44-3.15.93-4.26a10.74,10.74,0,0,1,7-.25,5.71,5.71,0,0,0-.21-.58S97.55,38.29,94.47,35.74Z"/><path class="cls-48" d="M3.2,87.8C2.84,88.73,5,86.57,6,86.57a45.3,45.3,0,0,0,3.88,5.8,14.12,14.12,0,0,1,3.69,5.1c.7,2.12,2.11,6.51,3.52,8.45s4.4,10,4.57,11.79l1.59-.35s-2.47-9-3.7-11.79A22.48,22.48,0,0,1,18.33,94c.7-4,2.29-12.5,2.64-17.07l.66-.54c-8.17,0-14.79,0-18.61,0C3.62,80.53,4.26,85,3.2,87.8Z"/><path class="cls-49" d="M95.22,78.65a24.77,24.77,0,0,1,.35,9.15c-.53,3.34,1.06,8.27,1.06,8.27l.88,2.11A22.09,22.09,0,0,1,97,92.55c.17-2.64.17-7.92,1.23-10.74.42-1.11,1.17-3.26,2-5.54H94.54C94.79,77.22,95,78,95.22,78.65Z"/><path class="cls-50" d="M48.77,34.84a10.29,10.29,0,0,0-1,4.39l0,.06s0-4.45,5.87-8.91c0,0-2,6.45-1.06,11v0c.13-1.77.36-4.32.75-6.71.71-4.22,4.4-7.92,4.4-7.92S50.53,31.32,48.77,34.84ZM75.51,7A19.15,19.15,0,0,1,70.59,22.7,22.47,22.47,0,0,0,73.75,5.1c-1,11.61-11.26,20.59-14.25,24.28a21.85,21.85,0,0,0-3.15,6.86v.36s2.11-5.63,4.92-8.1S71.35,17.83,73.46,9.62c0,0,.59,8.44-4.81,15a16.45,16.45,0,0,0,8-13,49.6,49.6,0,0,1,2.7,13l.15.32a51.74,51.74,0,0,1-.27-5.42C79.21,13.55,75.51,7,75.51,7ZM87.3,31c-1.23-2.29-5.45-4.23-7-10.74v2.29a32.77,32.77,0,0,0,2.06,8.21l.17.35a33,33,0,0,1-.94-5.63A28.13,28.13,0,0,0,85,29.21a8.86,8.86,0,0,1,2.63,6.17A8.13,8.13,0,0,0,87.3,31Z"/></g></g></svg>