<svg xmlns="http://www.w3.org/2000/svg" xmlns:xlink="http://www.w3.org/1999/xlink" viewBox="0 0 122.46 167.17"><defs><style>.cls-1{fill:url(#linear-gradient);}.cls-2{fill:#783f30;}.cls-3{fill:url(#linear-gradient-2);}.cls-4{fill:#3f190f;}.cls-5{fill:url(#linear-gradient-3);}.cls-6{fill:url(#radial-gradient);}.cls-7{fill:url(#radial-gradient-2);}.cls-8{fill:url(#radial-gradient-3);}.cls-9{fill:url(#linear-gradient-4);}.cls-10{fill:url(#linear-gradient-5);}.cls-11{fill:url(#linear-gradient-6);}.cls-12{fill:url(#linear-gradient-7);}.cls-13{fill:url(#linear-gradient-8);}.cls-14{fill:url(#linear-gradient-9);}.cls-15{fill:url(#linear-gradient-10);}.cls-16{fill:url(#linear-gradient-11);}.cls-17{fill:url(#linear-gradient-12);}.cls-18{fill:url(#linear-gradient-13);}.cls-19{fill:url(#linear-gradient-14);}.cls-20{fill:url(#linear-gradient-15);}.cls-21{fill:url(#linear-gradient-16);}.cls-22{fill:url(#linear-gradient-17);}.cls-23{fill:url(#linear-gradient-18);}.cls-24{fill:url(#linear-gradient-19);}.cls-25{fill:url(#linear-gradient-20);}.cls-26{fill:url(#linear-gradient-21);}.cls-27{fill:url(#linear-gradient-22);}.cls-28{fill:url(#linear-gradient-23);}.cls-29{fill:#652d1f;}.cls-30{fill:url(#radial-gradient-4);}.cls-31{fill:#532219;}.cls-32{fill:#26120d;}.cls-33{fill:url(#linear-gradient-24);}.cls-34{fill:url(#linear-gradient-25);}.cls-35{fill:#fff;}.cls-36{fill:url(#linear-gradient-26);}.cls-37{fill:url(#linear-gradient-27);}.cls-38{fill:url(#linear-gradient-28);}.cls-39{fill:url(#linear-gradient-29);}.cls-40{fill:url(#linear-gradient-30);}.cls-41{fill:url(#linear-gradient-31);}.cls-42{fill:url(#linear-gradient-32);}.cls-43{fill:url(#linear-gradient-33);}</style><linearGradient id="linear-gradient" x1="61.23" y1="161.09" x2="61.23" y2="119.88" gradientUnits="userSpaceOnUse"><stop offset="0" stop-color="#783f30"/><stop offset="1" stop-color="#572619"/></linearGradient><linearGradient id="linear-gradient-2" x1="102.01" y1="89.2" x2="102.78" y2="87.51" xlink:href="#linear-gradient"/><linearGradient id="linear-gradient-3" x1="67.07" y1="-14.98" x2="67.07" y2="54.68" gradientUnits="userSpaceOnUse"><stop offset="0" stop-color="#91513e"/><stop offset="1" stop-color="#783f30"/></linearGradient><radialGradient id="radial-gradient" cx="-218.42" cy="633.29" r="37.37" gradientTransform="translate(151.9 -59.82) scale(0.36 0.25)" xlink:href="#linear-gradient-3"/><radialGradient id="radial-gradient-2" cx="337.37" cy="973.19" r="37.38" gradientTransform="matrix(0.21, 0.48, -0.34, 0.15, 291.33, -220.36)" xlink:href="#linear-gradient-3"/><radialGradient id="radial-gradient-3" cx="722.78" cy="639.87" r="37.37" gradientTransform="matrix(-0.16, 0.49, -0.35, -0.12, 445.94, -199.53)" xlink:href="#linear-gradient-3"/><linearGradient id="linear-gradient-4" x1="9.81" y1="84.1" x2="19.32" y2="76.08" xlink:href="#linear-gradient"/><linearGradient id="linear-gradient-5" x1="3.51" y1="105.56" x2="4.64" y2="103.08" xlink:href="#linear-gradient"/><linearGradient id="linear-gradient-6" x1="65.15" y1="127.21" x2="65.15" y2="77.41" xlink:href="#linear-gradient"/><linearGradient id="linear-gradient-7" x1="60.55" y1="-12.77" x2="60.55" y2="78.3" xlink:href="#linear-gradient"/><linearGradient id="linear-gradient-8" x1="73.76" y1="81.86" x2="73.76" y2="63.56" xlink:href="#linear-gradient-3"/><linearGradient id="linear-gradient-9" x1="57.54" y1="85.4" x2="59.54" y2="87.13" xlink:href="#linear-gradient-3"/><linearGradient id="linear-gradient-10" x1="87.21" y1="84.79" x2="85.4" y2="86.43" xlink:href="#linear-gradient-3"/><linearGradient id="linear-gradient-11" x1="60.14" y1="73.56" x2="72.06" y2="83.35" xlink:href="#linear-gradient"/><linearGradient id="linear-gradient-12" x1="84.66" y1="74.89" x2="73.76" y2="80.85" xlink:href="#linear-gradient"/><linearGradient id="linear-gradient-13" x1="47.03" y1="66.63" x2="47.03" y2="57.93" xlink:href="#linear-gradient"/><linearGradient id="linear-gradient-14" x1="91.92" y1="66.53" x2="91.92" y2="57.98" xlink:href="#linear-gradient"/><linearGradient id="linear-gradient-15" x1="58.15" y1="67.63" x2="42.35" y2="78.49" xlink:href="#linear-gradient"/><linearGradient id="linear-gradient-16" x1="1088.77" y1="67.63" x2="1072.98" y2="78.49" gradientTransform="matrix(-0.66, 0, 0, 1, 797.82, 0)" xlink:href="#linear-gradient"/><linearGradient id="linear-gradient-17" x1="71.63" y1="103.76" x2="71.63" y2="93.96" xlink:href="#linear-gradient"/><linearGradient id="linear-gradient-18" x1="71.8" y1="49.57" x2="71.8" y2="-9.21" gradientUnits="userSpaceOnUse"><stop offset="0" stop-color="#3f190f"/><stop offset="1" stop-color="#783f30"/></linearGradient><linearGradient id="linear-gradient-19" x1="1.4" y1="109.89" x2="2.69" y2="107.05" gradientUnits="userSpaceOnUse"><stop offset="0" stop-color="#5e2b1c"/><stop offset="1" stop-color="#3d150c"/></linearGradient><linearGradient id="linear-gradient-20" x1="70.7" y1="137.54" x2="70.7" y2="117.3" gradientUnits="userSpaceOnUse"><stop offset="0"/><stop offset="1" stop-color="#21343d"/></linearGradient><linearGradient id="linear-gradient-21" x1="70.32" y1="138.29" x2="70.32" y2="117.3" xlink:href="#linear-gradient-20"/><linearGradient id="linear-gradient-22" x1="70.32" y1="138.27" x2="70.32" y2="117.55" gradientUnits="userSpaceOnUse"><stop offset="0" stop-color="#0a1013"/><stop offset="1" stop-color="#2c4652"/></linearGradient><linearGradient id="linear-gradient-23" x1="70.6" y1="137.54" x2="70.6" y2="117.3" gradientUnits="userSpaceOnUse"><stop offset="0" stop-color="#152026"/><stop offset="1" stop-color="#3d6071"/></linearGradient><radialGradient id="radial-gradient-4" cx="-506.87" cy="686.87" r="58.69" gradientTransform="translate(200.77 -59.82) scale(0.25)" gradientUnits="userSpaceOnUse"><stop offset="0" stop-color="#7c4431"/><stop offset="1" stop-color="#652d1f"/></radialGradient><linearGradient id="linear-gradient-24" x1="47.24" y1="55.36" x2="47.24" y2="51.28" gradientUnits="userSpaceOnUse"><stop offset="0"/><stop offset="1" stop-color="#162329"/></linearGradient><linearGradient id="linear-gradient-25" x1="1186.88" y1="55.36" x2="1186.88" y2="51.28" gradientTransform="matrix(-0.76, 0, 0, 1, 994.41, 0)" xlink:href="#linear-gradient-24"/><linearGradient id="linear-gradient-26" x1="46.04" y1="69.16" x2="46.04" y2="62.34" gradientUnits="userSpaceOnUse"><stop offset="0" stop-color="#39140a"/><stop offset="1"/></linearGradient><linearGradient id="linear-gradient-27" x1="46.04" y1="69.16" x2="46.04" y2="62.34" gradientUnits="userSpaceOnUse"><stop offset="0.01" stop-color="#652312"/><stop offset="1" stop-color="#210000"/></linearGradient><linearGradient id="linear-gradient-28" x1="46.04" y1="65.79" x2="46.04" y2="67.56" gradientUnits="userSpaceOnUse"><stop offset="0"/><stop offset="1" stop-color="#77726d"/></linearGradient><linearGradient id="linear-gradient-29" x1="48.56" y1="68.65" x2="44.19" y2="68.05" gradientUnits="userSpaceOnUse"><stop offset="0" stop-color="#cf8b6e"/><stop offset="1"/></linearGradient><linearGradient id="linear-gradient-30" x1="91.56" y1="69.16" x2="91.56" y2="62.34" xlink:href="#linear-gradient-26"/><linearGradient id="linear-gradient-31" x1="91.56" y1="69.16" x2="91.56" y2="62.34" xlink:href="#linear-gradient-27"/><linearGradient id="linear-gradient-32" x1="91.56" y1="65.79" x2="91.56" y2="67.56" xlink:href="#linear-gradient-28"/><linearGradient id="linear-gradient-33" x1="1073.36" y1="68.65" x2="1069.11" y2="68.07" gradientTransform="matrix(-0.89, 0, 0, 1, 1047.08, 0)" xlink:href="#linear-gradient-29"/></defs><g id="Layer_2" data-name="Layer 2"><g id="_5_Face" data-name="5_Face"><path d="M68.77,167.17C19.62,167.17.43,156.08.24,156A.51.51,0,0,1,0,155.5a.52.52,0,0,1,.35-.41C.57,155,23.2,147,25.77,141s1.9-38.2,1.89-38.52a.49.49,0,0,1,.16-.37.57.57,0,0,1,.37-.14h0l69.53,4.22a.57.57,0,0,1,.38.18.44.44,0,0,1,.11.39c0,.25-4.53,24.6-.42,33.51s24.06,15.14,24.26,15.21a.5.5,0,0,1,.37.42.49.49,0,0,1-.28.48c-.22.11-22.14,10.83-53.41,10.83Z"/><path class="cls-1" d="M.54,155.55s23.05-8.09,25.73-14.42,1.92-38.71,1.92-38.71l69.53,4.22s-4.61,24.63-.38,33.78,24.58,15.48,24.58,15.48-21.66,10.77-53.15,10.77C19.22,166.67.54,155.55.54,155.55Z"/><path d="M111.86,64.55a.8.8,0,0,0-.6-.53,13.77,13.77,0,0,0-2.31-.2c-.34,0-.69,0-1,0a.72.72,0,0,0-.21,0,78.78,78.78,0,0,1,.91-8.31c.13-.9.26-1.8.38-2.71a58.06,58.06,0,0,0,.56-6.21A53.62,53.62,0,0,0,107,29.88c-1.05-3.52-2.65-8-5.72-11.73A36.18,36.18,0,0,0,96,13.26c-2-1.62-4.07-3.14-6.1-4.53a54.58,54.58,0,0,0-14-7.13A35.44,35.44,0,0,0,64.83,0c-1.13,0-2.28,0-3.52.12A47,47,0,0,0,48.9,2.56C39,6,30.8,13.16,25.5,18.25c-7.25,7-11.54,13.89-13.11,21.17a44.22,44.22,0,0,0-.87,8.79,40.87,40.87,0,0,0,2.57,13.38c.38,1.12.76,2.14,1.14,3.09h-.11a4.27,4.27,0,0,0-1.16.22l-.12,0a13.13,13.13,0,0,0-4.68,2.26c-1.24,1.08-1.35,3.2-1.43,4.75l0,.4a27.67,27.67,0,0,0,.49,7.88c.69,2.91,2.46,5.26,4.17,7.54.82,1.09,1.67,2.22,2.38,3.39a10.32,10.32,0,0,1,.64,1.38A11.37,11.37,0,0,0,16.1,94a3.67,3.67,0,0,0,1.66,1.32,13,13,0,0,0,4.2,1l.48,0,0,.14c.3,1.25.6,2.51.91,3.73.48,1.89.89,3.42,1.31,4.82l.1.37a14.51,14.51,0,0,0,1.1,2.94,7.87,7.87,0,0,0,2.67,2.49l.38.26c1.13.77,2.37,1.54,4.05,2.48a9.53,9.53,0,0,1,2.25,2l.57.63c1.2,1.28,2.51,2.64,3.93,4a45.52,45.52,0,0,0,10.65,7l.83,1a30.69,30.69,0,0,0,7,5.91.55.55,0,0,0,.27.17c1.07.68,1.79,1.07,1.82,1.08l.07,0a36.39,36.39,0,0,0,6.6,1.73.61.61,0,0,0,.3.08h.13a29,29,0,0,0,4.21.32,21.57,21.57,0,0,0,8.76-1.71.39.39,0,0,0,.15,0,.58.58,0,0,0,.48-.24.44.44,0,0,0,.08-.11c.33-.17.59-.31.78-.43a.57.57,0,0,0,.46-.27h0l.21-.15a20.86,20.86,0,0,0,5.08-3.45l.1-.09.18-.17a.61.61,0,0,0,.46-.3,1.46,1.46,0,0,0,.14-.28l.36-.36a1.59,1.59,0,0,0,.13-.13,34.82,34.82,0,0,0,4.52-6,.61.61,0,0,0,.35-.21.64.64,0,0,0,.13-.5.3.3,0,0,0,.08-.08.6.6,0,0,0,.12-.36,2,2,0,0,1,.11-.2.56.56,0,0,0,.17-.32c.54-1,.89-1.72,1.08-2.12l.08-.17c1.17-1.5,2.35-3,3.52-4.48l2.38-3c1.79-2.29,2.58-5.31,3.28-8l.14-.53c1-3.58,1.69-7.28,2.35-10.73l.15-.82a19.77,19.77,0,0,1,1.88-6.08,29.26,29.26,0,0,0,1.19-3,14.28,14.28,0,0,0,.33-6.86,34.51,34.51,0,0,0,1.38-4.08A13.75,13.75,0,0,0,111.86,64.55Z"/><path class="cls-2" d="M111.11,64.79A17.59,17.59,0,0,0,108,64.6a37.13,37.13,0,0,1-1.48,4.08l2.4,10.73C110.73,74.23,113.14,70.53,111.11,64.79Z"/><path class="cls-3" d="M108.7,71.82s.74-4.62,2.41-5.74c0,0,1.72,4.45-1.3,10Z"/><path class="cls-4" d="M111.36,64.72a.25.25,0,0,0-.18-.19,12.87,12.87,0,0,0-3.22-.15.23.23,0,0,0-.22.28,4.92,4.92,0,0,1-.58,2.12c-.23.63-.48,1.26-.75,1.88,0,.07.09.12.12,0,.45-1,.86-2.09,1.22-3.16.27-.8.78-.69,1.48-.67s1.12.08,1.67.15a12.65,12.65,0,0,1,.32,7.36c-.59,2.41-1.74,4.63-2.46,7a.13.13,0,0,0,.24.07,54,54,0,0,0,2.68-7.22A13.08,13.08,0,0,0,111.36,64.72Zm-2.51,11.55a17.9,17.9,0,0,1,.28-5.11,30.72,30.72,0,0,1,1.53-4.67c0-.13-.16-.21-.21-.09-1.26,3-2.69,6.62-1.89,9.9A.15.15,0,0,0,108.85,76.27Z"/><path class="cls-2" d="M107.4,68.49,107,66.83c-.37-4.26,1.48-15.74,1.48-15.74,1-7.44-.27-15.21-2.56-22.3-1.91-5.91-3.89-9.62-8.75-13.65C88.87,8.23,78.07,1,66.86.74c-15.55-.37-26.28,4.44-39.8,17S12.44,39.61,12.25,47.94,16.7,66.27,16.7,66.27l-.08,0-.11-.14,0,.09-1-.64c-.74-.56-4.26,1.11-5.74,2S8.18,73.3,8.55,77.93s3,7.41,4.44,9.44a21.49,21.49,0,0,1,3.52,5.93c.74,2.22,6.48,2.4,6.48,2.4s2.41,10.55,3.52,12.41,7.59,5.36,7.59,5.36c5.37,5.74,8.14,9.26,17.77,13.89l26.47,3,8-3.33,8.52-7,6.47-8.33c2.6-3.33,5-17,5.74-20.92s2.59-5.36,3.33-10S107.4,68.49,107.4,68.49Z"/><path class="cls-5" d="M35.39,52.76S30,28.69,38.73,20.18s35-19.63,56.83-.37c0,0,4.62,7.77,4.81,21.65s-1.85,11.85-1.85,11.85L82,58.5l-2,2.4H64.09s-7.78-2.4-8.52-2.59S35.39,52.76,35.39,52.76Z"/><path class="cls-6" d="M73.9,89.41c-8.39,0-15.18,4.81-15.18,10.74s6.79,10.73,15.18,10.73,15.18-4.8,15.18-10.73S82.28,89.41,73.9,89.41Z"/><path class="cls-7" d="M43,104.47c7.9-3.48,10.33-15.35,5.42-26.53S33.12,60.51,25.21,64,14.87,79.33,19.78,90.51a31.17,31.17,0,0,0,2.89,5.18H23s.05.24.15.64C28.57,103.72,36.59,107.27,43,104.47Z"/><path class="cls-8" d="M110.36,80.71c.75-4.63-3-12.22-3-12.22L107,66.83a32.42,32.42,0,0,1,.11-4.69c-7,.5-14.21,7.07-17.36,16.63C86,90.36,89.5,102,97.7,104.66a11.74,11.74,0,0,0,6.25.27c1.45-5.23,2.61-11.74,3.08-14.23C107.77,86.82,109.62,85.34,110.36,80.71Z"/><path class="cls-9" d="M9.91,72.87s.12-4.81,4.32-2.47,5.8,9.51,5.92,10.86L19.29,84a2.87,2.87,0,0,0,1,4.19s-1.86,2-3.58.38-3-3.83-4.57-6.18S9.29,77.68,9.91,72.87Z"/><path class="cls-10" d="M20.28,88.17a2.87,2.87,0,0,1-1-4.19l.86-2.72c-.12-1.35-1.73-8.51-5.92-10.86s-4.32,2.47-4.32,2.47c-.06.49-.1.95-.13,1.39A2.65,2.65,0,0,1,14,73.73c1.59,1.54.74,4.1.28,6,.2-.67,1.25-2,2.1-2s1.2,1.38,1.45,2.11A8.13,8.13,0,0,1,18.43,83c-.07,1.09-.9,1.43-1.12,2.35-.36,1.58,1.29,3,2.8,3Z"/><path class="cls-11" d="M44.09,118.66c-2.22-2.6-5-14.07-7.59-18.33A80.12,80.12,0,0,0,24.84,86.26a13.21,13.21,0,0,1-4.07-10.73c-1.11,2,0,6.47,0,6.47a61.07,61.07,0,0,1,.37,10.19,5.41,5.41,0,0,1-1.09,3.15A18.66,18.66,0,0,0,23,95.7s2.41,10.55,3.52,12.41,7.59,5.36,7.59,5.36c5.37,5.74,8.14,9.26,17.77,13.89l3.47.39-3.29-3.17S46.32,121.25,44.09,118.66Zm59.06-27.22c-3.34,4.08-4.63,10.19-6.11,17.22a65.6,65.6,0,0,1-3.71,12l-.13.6L94.82,120l6.47-8.33c2.6-3.33,5-17,5.74-20.92.71-3.72,2.43-5.24,3.23-9.42C109,84.68,106,88,103.15,91.44Z"/><path class="cls-12" d="M108.51,51.09c1-7.44-.27-15.21-2.56-22.3-1.91-5.91-3.89-9.62-8.75-13.65C88.87,8.23,78.07,1,66.86.74c-15.55-.37-26.28,4.44-39.8,17S12.44,39.61,12.25,47.94,16.7,66.27,16.7,66.27l-.08,0-.11-.14,0,.08a43.19,43.19,0,0,1,2.74,6.77l1.48,2.6.74-3.71a30.2,30.2,0,0,1,1.3-7.4c1.11-3.15,5.92-5.56,7.77-11.85s.56-10.74.56-17.58,4.62-19.26,18.69-24.07S81.49,4.81,97,19.07c0,0,3.7,5.36,4.25,18.69s1.86,15.92,3.15,19.07-.12,8.3,2.61,10.07l0-.07C106.66,62.57,108.51,51.09,108.51,51.09Z"/><path class="cls-2" d="M108.52,42.21a58.33,58.33,0,0,0-3.8-16.32,26,26,0,0,0-7.89-10.8C88.78,8.46,79.13,1.82,68.4,1A47,47,0,0,0,42.72,6.31a67.71,67.71,0,0,0-11.84,8.33A71.54,71.54,0,0,0,19.5,26.4,35.41,35.41,0,0,0,14,36.83a36,36,0,0,0-1.5,9.09,40.33,40.33,0,0,0,1.73,13.31C13.55,53.49,12.54,37.7,20.89,27,31.26,13.64,47.3,1.79,64.83,2.53s23.45,7.9,29.86,11.85c5.8,3.56,13.2,19.81,13.86,33.65A39,39,0,0,0,108.52,42.21Z"/><path class="cls-13" d="M79,79.39c.91,1.88,3.06,3.69,2.44,6-.76,2.82-3.48,3.91-6.09,4.22a9.45,9.45,0,0,1-8.1-3.12c-1.66-1.82-1.81-3.47-.42-5.57a8.76,8.76,0,0,0,1.57-6c-.1-1.47-.78-2.85-.84-4.35a19.43,19.43,0,0,1,.81-4.44c.12-.61-.07-1.62.21-2.13.83-1.51,8.85-.67,8.89-1.11-.09,1.57-.3,3.48.34,5,.82,1.91,1.58,4.1,1,6.16a7.42,7.42,0,0,0,0,4.9C78.91,79.11,79,79.25,79,79.39Z"/><path class="cls-2" d="M66.59,80.34s6.94-3.61,13.32-.37l-.83-1.85s-6.39-2.41-12.22.92Z"/><path class="cls-14" d="M56.13,87c-.4,1.61.8,2,2,1.18,1-.6,2.83-2.18,2.69-3.49-.25-2.41-4.4,1-4.72,2.22Z"/><path class="cls-15" d="M87,88.05c-.74-.14-1.54-1.84-1.86-2.42s-1-1.82,0-2.27C87.31,82.47,88.56,88.33,87,88.05Z"/><path class="cls-16" d="M61.12,83.21c2.53-2,4.75-4.15,4.75-7.59a47.67,47.67,0,0,1-.14-4.93c.17-1.78.75-3.73.56-5.52C64.9,66.28,63.6,67.75,62.24,69a20.1,20.1,0,0,0-4.61,5.62A12,12,0,0,0,56.49,81c.07.88.36,3.58,1.21,4Z"/><path class="cls-17" d="M83.25,83.48a40.07,40.07,0,0,0-2.67-3.81,5.53,5.53,0,0,1-1.41-3.78c-.07-1.5.44-2.86.38-4.34s-1.19-2.94-1.14-4.35a1.44,1.44,0,0,0-.08-.25c2,2.75,4.91,4.64,6.86,7.54a11.33,11.33,0,0,1,1.66,5.6c.15,1.45.69,3.31.45,4.75-.5-.72-.73-1.72-1.72-1.93s-1.66.6-2.15,1.22Z"/><path class="cls-18" d="M36,65.71S27.68,62,30,57.32a18.07,18.07,0,0,1,9.74-3.08c5.56,0,16.66,2,16.66,2l6.79,3.58L64.46,61s-1.73,6.42-7.16,6.79l-7-.61Z"/><path class="cls-19" d="M82.35,67.69S78,65,80.13,60.9L83,57.82S87.66,55.1,88.15,55s6.3-.62,6.3-.62l5.67.62,3.33,2.1s3,5.67-2.34,8.63c0,0-4.57,2-5.06,2s-4.69-.12-5.43-.12S82.35,67.69,82.35,67.69Z"/><path class="cls-20" d="M48.54,72.62s5.43-2.09,7-3.57l2,.61A18,18,0,0,1,48.54,72.62Z"/><path class="cls-21" d="M88.27,72.62s-3.57-2.09-4.62-3.57l-1.3.61A9.8,9.8,0,0,0,88.27,72.62Z"/><path class="cls-22" d="M56.5,90.52s3.61-2.22,7-2.13S68.9,89,70,90.06s8,3.42,11.48-2c0,0,4.81-.09,5.27,2.87,0,0-1.39,2.13-2.59,2.5a13.55,13.55,0,0,1-9.81,5.46c-6.39.37-14.72-5.09-14.72-5.09A7.48,7.48,0,0,1,56.5,90.52Z"/><path d="M62.23,90.8a6.28,6.28,0,0,1,5.84.74S65.29,93.76,62.23,90.8Z"/><path d="M80.38,91.63l1-1.2s2.23-.1,2.78.92C84.17,91.35,83.62,92.65,80.38,91.63Z"/><path class="cls-23" d="M84.31,92.38a1.56,1.56,0,0,0-.71-1.7,3.22,3.22,0,0,0-2-.38,4.37,4.37,0,0,0,.33-.69c0-.07-.08-.13-.13-.07a11.79,11.79,0,0,1-5.24,4.06,8.17,8.17,0,0,1-7.46-.89s-.08,0,0,.06a7.66,7.66,0,0,0,7.37,1.3,9.54,9.54,0,0,0,4.94-3.4,8.6,8.6,0,0,1,1.75.13,1.54,1.54,0,0,1,1.1,1.57A0,0,0,0,0,84.31,92.38ZM79,78.21c1.76,2.23,3.88,4.21,4.89,6.94,0,0,0,0,0,0A14.88,14.88,0,0,0,79.17,78,.13.13,0,0,0,79,78.21Zm6.84,4.45a.12.12,0,0,0-.17.17,6.85,6.85,0,0,1,1.8,5.68,7.23,7.23,0,0,1-3.41,4.93s0,.11,0,.08a7,7,0,0,0,3.82-5.11A6.27,6.27,0,0,0,85.83,82.66ZM79.2,73.78a8.38,8.38,0,0,0,0,3.42s0,0,0,0c-.48-2.3.59-4.56.11-6.89s-1.94-4.7-.81-7.15c0-.07-.07-.13-.11-.06-1.19,2-.12,4.38.49,6.43A9.58,9.58,0,0,1,79.2,73.78ZM60,91.6a0,0,0,0,0,0,.06,8.36,8.36,0,0,1,8.82.42c.09.06.18-.07.11-.14C66.81,89.5,62.43,89.87,60,91.6Zm1.32,2.78a9.68,9.68,0,0,1-4.9-4.15c-1.38-2.54.44-4.75,2.52-6.13a.07.07,0,0,0-.07-.12c-2.24,1.18-3.85,3.28-3,5.88s3.14,3.9,5.48,4.58C61.34,94.45,61.35,94.39,61.32,94.38Z"/><path class="cls-24" d="M18.82,86a3.9,3.9,0,0,1,.51-1.53,6.09,6.09,0,0,0,.85-3.06.15.15,0,0,0-.3,0c-.19.68-.3,1.36-.55,2s-.5,1.14-.66,1.74c-.3,1.14.57,2.24,1.34,3,0,0,.07,0,0,0A3.56,3.56,0,0,1,18.82,86Zm.93-4.78a.1.1,0,1,0,.19,0c.17-1.83-.79-3.82-1.53-5.45a19.59,19.59,0,0,0-2.91-4.93,4.45,4.45,0,0,0-1.73-1.13,3.2,3.2,0,0,0-1.84,0c-1.52.29-2,1.81-2.09,3.17,0,0,0,0,0,0C10,71.56,11,69.21,12.78,70a11.1,11.1,0,0,1,1.55.66,5.34,5.34,0,0,1,1.53,1.54c.09.12.17.26.26.39a25.13,25.13,0,0,1,.14,4.16c0,.9-1.21,1.47-1.74,2.17-1.06,1.42-.58,3.25-.06,4.76,0,0,0,0,0,0a7.08,7.08,0,0,1-.43-3.28,4,4,0,0,1,1.61-2.12c.26-.21.88-.47,1-.77s.07-1.29.08-1.73a10.24,10.24,0,0,0-.23-2.53,30.3,30.3,0,0,1,1.78,3.2A11.1,11.1,0,0,1,19.75,81.26Z"/><path class="cls-4" d="M20.76,75.52c.12-.67.27-1.33.4-2s.24-1.17.35-1.75a19.06,19.06,0,0,0,.38-3.53c0-.16,0-.33,0-.49s0,0,0,0c0,.23,0,.47,0,.7a12,12,0,0,1-.23,1.8c-.3,1.59-.82,3.16-1.16,4.74a10.2,10.2,0,0,0-.11,4.6c0,.14.07.27.11.41a.12.12,0,0,0,.23-.06,11,11,0,0,1,.06-4.39Zm88.17-3.84c-.4-1.07-.83-2.13-1.32-3.16a7.6,7.6,0,0,1-.45-2.91c0-4.31.76-8.54,1.33-12.78a57.94,57.94,0,0,0,.55-6.17A54,54,0,0,0,106.55,30c-1.24-4.15-2.83-8.19-5.63-11.54a36.12,36.12,0,0,0-5.21-4.83q-2.94-2.37-6.06-4.5A54.94,54.94,0,0,0,75.74,2.09,38.69,38.69,0,0,0,61.34.63,46.36,46.36,0,0,0,49.07,3.05c-8.89,3.08-16.5,9.12-23.21,15.57-6,5.76-11.18,12.65-13,20.91A45.23,45.23,0,0,0,12,48.22a39.81,39.81,0,0,0,2.54,13.2c.5,1.45,1,2.88,1.64,4.28-.2-.14-.4-.27-.61-.39-.44-.27-1.19,0-1.63.12A12.34,12.34,0,0,0,9.5,67.59c-1.18,1-1.19,3.38-1.27,4.78a27.1,27.1,0,0,0,.48,7.73c1,4.2,4.32,7.2,6.48,10.78.55.92.81,2,1.35,2.89A3.29,3.29,0,0,0,18,94.88a12.44,12.44,0,0,0,4,.92c.27,0,.55,0,.83.06v0c0,.16.08.32.11.49.3,1.24.6,2.48.91,3.72.41,1.61.83,3.21,1.3,4.8a16.4,16.4,0,0,0,1.16,3.21,8.74,8.74,0,0,0,2.9,2.57c1.29.89,2.64,1.69,4,2.46a13.21,13.21,0,0,1,2.95,2.74c1.26,1.35,2.54,2.68,3.9,3.92a47.05,47.05,0,0,0,11.77,7.57s0,0,0,0,0,0,0,0A48,48,0,0,1,40.54,120c-1.37-1.23-2.63-2.57-3.88-3.91a13.85,13.85,0,0,0-2.9-2.92c-1.25-.71-2.47-1.46-3.68-2.24s-2.75-1.68-3.48-3a15.46,15.46,0,0,1-1.22-3.5c-.47-1.6-.88-3.21-1.28-4.82-.33-1.33-.64-2.65-1-4a.17.17,0,0,0-.16-.13,19.92,19.92,0,0,1-2.87-.28c-1.56-.31-3.06-.94-3.54-2.3-1.31-3.77-4.5-6.5-6.36-10a16,16,0,0,1-1.6-7.08,20.89,20.89,0,0,1,.5-6.78c.49-1.69,2.43-2.32,3.93-2.93a4.52,4.52,0,0,1,2.31-.54,4.41,4.41,0,0,1,1.23.8h0c.15.27.31.53.46.79a21,21,0,0,1,1.12,2.1c.53,1.24,1,2.5,1.46,3.79a0,0,0,0,0,0,0c-.41-1.29-.75-2.61-1.22-3.89a8.41,8.41,0,0,0-1.57-2.93.17.17,0,0,0,0-.12,51.23,51.23,0,0,1-2.61-6.94,40.33,40.33,0,0,1-1.73-13.31A36,36,0,0,1,14,36.83,35.41,35.41,0,0,1,19.5,26.4,71.54,71.54,0,0,1,30.88,14.64,67.71,67.71,0,0,1,42.72,6.31,47,47,0,0,1,68.4,1c10.73.79,20.38,7.43,28.43,14.06a26,26,0,0,1,7.89,10.8,58.33,58.33,0,0,1,3.8,16.32,39,39,0,0,1,0,5.82c-.32,5-1.33,10-1.66,15.11a19.43,19.43,0,0,0,0,3.66,8.82,8.82,0,0,0,.68,2.52c1.45,3.24,2.83,7,2.69,10.56a10.64,10.64,0,0,1-.33,2.17,25.45,25.45,0,0,1-1.63,4.37,20.93,20.93,0,0,0-1.58,4.94c-.62,3.29-1.25,6.59-2,9.86s-1.48,6.8-3.15,9.72a44.4,44.4,0,0,1-3.49,4.62l-3.1,4-.24.32a.08.08,0,0,0,0,.1.07.07,0,0,0,.11,0c2.06-2.65,4.15-5.27,6.21-7.9,1.84-2.35,2.58-5.48,3.33-8.31.93-3.53,1.66-7.11,2.34-10.7a32.79,32.79,0,0,1,1-4.39c.64-1.9,1.65-3.65,2.25-5.57C111.2,79.23,110.31,75.43,108.93,71.68ZM21.79,86.88a30.24,30.24,0,0,1,1,6.42s0,0,0,0a35.72,35.72,0,0,0-2.15-11.79l0-.08c0-.05-.1,0-.1,0a17.7,17.7,0,0,0,.41,2.15C21.2,84.7,21.52,85.79,21.79,86.88Z"/><path class="cls-25" d="M95.19,118.38a37.15,37.15,0,0,1-13.46,5.34c-1.54.27-3.51-.57-3.39-2.41a6.81,6.81,0,0,1,2.5-4.13A13,13,0,0,1,75,118.47a39.47,39.47,0,0,1-7.78-.74,47.33,47.33,0,0,1,3.15,4.54c1.34,2.67-3.83,2.27-4.86,2.18-2.56-.23-5.11-.61-7.64-1.07A59.24,59.24,0,0,1,44.83,119a6,6,0,0,0,1.58,2.22c.92.65,2.5,2.87,5.83,6.94a21.91,21.91,0,0,0,8.51,5.92c14.17,5.09,21-.18,21-.18,8.15-3.8,12.13-13.05,12.59-14a12.13,12.13,0,0,1,2.22-2.4Z"/><path class="cls-26" d="M95.4,118.26a38.49,38.49,0,0,1-13.67,5.46c-1.54.27-3.51-.57-3.39-2.41a6.81,6.81,0,0,1,2.5-4.13A13,13,0,0,1,75,118.47a39.47,39.47,0,0,1-7.78-.74,47.33,47.33,0,0,1,3.15,4.54c1.34,2.67-3.83,2.27-4.86,2.18-2.56-.23-5.11-.61-7.64-1.07-6.57-1.21-14-5-14-5a8.62,8.62,0,0,0,1.85,2.84c.92.65,2.59,2.59,5.92,6.66a34,34,0,0,0,8.89,7c14.16,5.09,21.72-.74,21.72-.74,8.14-3.8,12.46-13.64,12.92-14.57a13.94,13.94,0,0,1,1.64-2.22Z"/><path class="cls-27" d="M45.7,121.25c.92.65,2.59,2.59,5.92,6.66a34,34,0,0,0,8.89,7c14.16,5.09,21.72-.74,21.72-.74,8.14-3.8,12.46-13.64,12.92-14.57a13.94,13.94,0,0,1,1.64-2.22l-1.39.84c-.6.38-1.22.75-1.85,1.11-1.71,2-4.61,5.66-6.63,8-2.72,3.21-7.41,5.8-16.17,6.29S53,126.19,51.13,124.46s-6.67-5.56-6.67-5.56l-.25-.31-.36-.18A8.62,8.62,0,0,0,45.7,121.25Z"/><path class="cls-28" d="M54.14,127.54a5.3,5.3,0,0,0,1.42,4.08s0,0,0,0a6.3,6.3,0,0,1-1.3-4.07A.07.07,0,0,0,54.14,127.54Zm-.35-.47a.08.08,0,0,0-.14-.06,3.42,3.42,0,0,0,.67,3.51,0,0,0,1,0,0,0A4,4,0,0,1,53.79,127.07Zm-.74-.72a2.14,2.14,0,0,0-.75,2.32c0,.08.14,0,.12,0a2.25,2.25,0,0,1,.75-2.14C53.25,126.42,53.15,126.28,53.05,126.35Zm-.78-.83a3.38,3.38,0,0,0-.75,1.9c0,.14.2.14.21,0a5,5,0,0,1,.72-1.8A.1.1,0,0,0,52.27,125.52Zm-1.36-1.71a5.35,5.35,0,0,0,0,3c0,.12.21.07.19,0a8.79,8.79,0,0,1,0-2.94C51.11,123.73,51,123.72,50.91,123.81Zm-.71-.65a2.34,2.34,0,0,0-.37,2.55c0,.08.16.05.13,0a2.45,2.45,0,0,1,.38-2.4C50.41,123.18,50.27,123.08,50.2,123.16Zm-.75-.63a2.53,2.53,0,0,0-.86,1.8.07.07,0,0,0,.14,0,2.9,2.9,0,0,1,.87-1.65A.11.11,0,1,0,49.45,122.53Zm-.87-.59a5.2,5.2,0,0,0-.63,1.5.1.1,0,0,0,.19.06c.15-.52.42-1,.61-1.49C48.8,121.91,48.63,121.85,48.58,121.94Zm-1.16-.57a.12.12,0,0,0-.23,0,2.64,2.64,0,0,0,.27,1.41c.06.13.24,0,.18-.11A3.36,3.36,0,0,1,47.42,121.37Zm-.93-.64a2.47,2.47,0,0,0,0,1.4.07.07,0,1,0,.14,0,3.4,3.4,0,0,1,0-1.31C46.66,120.68,46.51,120.63,46.49,120.73ZM45.37,120a.64.64,0,0,0,0,.7c0,.07.14,0,.12,0s-.14-.38,0-.53S45.45,119.85,45.37,120Zm10.25,9.17c0-.07-.09-.1-.1,0a3.51,3.51,0,0,0,.63,2.86c.07.09.22,0,.15-.12A3.63,3.63,0,0,1,55.62,129.13Zm.91,0s-.06-.06-.07,0a4,4,0,0,0,.73,3.66.07.07,0,0,0,.11-.08A4.53,4.53,0,0,1,56.53,129.12Zm1.13.36a6.72,6.72,0,0,0-.23,3.27c0,.1.19.08.18,0a9.73,9.73,0,0,1,.13-3.23C57.75,129.44,57.67,129.42,57.66,129.48Zm.93.67c0-.06-.08-.11-.11-.05a3.78,3.78,0,0,0,.06,3.69.1.1,0,0,0,.17-.09A4.24,4.24,0,0,1,58.59,130.15Zm.76,1.65c0-.1-.14-.09-.15,0a3,3,0,0,0,1.32,2.95c.09,0,.19-.07.11-.14A3.36,3.36,0,0,1,59.35,131.8ZM61,133.41a4.63,4.63,0,0,1-.31-1.52.06.06,0,1,0-.12,0,4.16,4.16,0,0,0,.94,2.83c.06.06.14,0,.11-.09C61.46,134.22,61.2,133.85,61,133.41Zm1.35-.58a3.39,3.39,0,0,1-.11,1.38,4.93,4.93,0,0,0-.22.92.1.1,0,0,0,.18.05,3.78,3.78,0,0,0,.23-2.37C62.45,132.75,62.37,132.77,62.38,132.83Zm1.45.69a3.18,3.18,0,0,0-.32,2.2c0,.15.25.08.23-.06a4,4,0,0,1,.24-2.08A.08.08,0,0,0,63.83,133.52Zm.91,0h0a3.29,3.29,0,0,0,0,1.25,2.5,2.5,0,0,0,.49,1.41.1.1,0,0,0,.17-.1c-.13-.46-.35-.88-.45-1.36S64.84,134,64.74,133.56Zm.92.49a6.06,6.06,0,0,0,.93,2.24c.06.09.22,0,.19-.07-.24-.77-.73-1.43-.93-2.22A.1.1,0,0,0,65.66,134.05Zm1.59.55a4,4,0,0,1,0,1.2c0,.27-.14.53-.16.81a.11.11,0,0,0,.21.06,3.06,3.06,0,0,0,.07-2.11A.08.08,0,0,0,67.25,134.6Zm1.37.16a9,9,0,0,1-.09,1,4.49,4.49,0,0,0-.11.82.11.11,0,0,0,.21,0,6.2,6.2,0,0,0,.18-1.88A.1.1,0,0,0,68.62,134.76Zm1.2-.18a.09.09,0,1,0-.18,0,3,3,0,0,0,.56,2.21.12.12,0,0,0,.19-.14A4.56,4.56,0,0,1,69.82,134.58Zm.93-.12a.09.09,0,1,0-.18,0,20.62,20.62,0,0,0,.71,2.14.13.13,0,0,0,.24-.07A20.69,20.69,0,0,0,70.75,134.46Zm.92-.15c-.09-.11-.27,0-.19.14a2.49,2.49,0,0,1,.48,1.22,4.49,4.49,0,0,0,.08,1,.1.1,0,0,0,.2,0,2.45,2.45,0,0,0,0-1.14A2.36,2.36,0,0,0,71.67,134.31Zm1.31.13a2.45,2.45,0,0,1-.13,2.29c-.06.14.1.3.22.17a2.16,2.16,0,0,0,.08-2.56C73.08,134.24,72.91,134.33,73,134.44Zm1.33.24A3,3,0,0,1,74.1,136c0,.08.11.14.15.06a2.4,2.4,0,0,0,.16-1.45C74.4,134.58,74.3,134.61,74.31,134.68Zm1.26-.77c0,.34-.1.68-.17,1s-.27.73-.38,1.11a.09.09,0,0,0,.14.08,4.06,4.06,0,0,0,.58-2.19C75.75,133.83,75.59,133.81,75.57,133.91Zm.88,0a6.34,6.34,0,0,1,.32,2,.09.09,0,0,0,.18,0,4,4,0,0,0-.43-2.06S76.44,133.9,76.45,133.94Zm1-.36a4.5,4.5,0,0,1,.33,1.31,5.79,5.79,0,0,1-.11,1.17c0,.08.12.1.16,0a3,3,0,0,0-.32-2.56S77.46,133.54,77.48,133.58Zm1.39-.34c0-.07-.17,0-.14.06a2.61,2.61,0,0,1-.11,2.43.1.1,0,0,0,.16.12C79.47,135.17,79.22,134,78.87,133.24Zm1-.21a2.86,2.86,0,0,1-.1,1.3c-.12.42-.4.75-.55,1.15,0,.09.09.14.15.09A2.86,2.86,0,0,0,80,133C80,132.86,79.81,132.91,79.83,133Zm1.13-.58a4,4,0,0,1-.59,2.72c-.07.11.1.24.18.14a3.5,3.5,0,0,0,.54-2.88C81.07,132.36,81,132.37,81,132.45Zm.66-.32a2.41,2.41,0,0,1,.06,2.33.09.09,0,0,0,.16.07,2.15,2.15,0,0,0-.11-2.51C81.66,132,81.56,132.06,81.62,132.13Zm.59-.77a2.29,2.29,0,0,1,.31,2.36c0,.1.1.14.15.07a2,2,0,0,0-.42-2.47S82.19,131.33,82.21,131.36Zm1.23-.53a3.39,3.39,0,0,1,0,2.33c0,.12.16.21.21.09a3.08,3.08,0,0,0,0-2.52C83.55,130.62,83.39,130.72,83.44,130.83Zm1.13-.68a3.64,3.64,0,0,1-.41,2.7c-.06.12.09.25.19.15a3.07,3.07,0,0,0,.35-2.88A.07.07,0,0,0,84.57,130.15Zm1.13-.93a4.12,4.12,0,0,1-.32,2.56c0,.09.12.16.17.07a3.64,3.64,0,0,0,.24-2.65C85.77,129.14,85.68,129.16,85.7,129.22Zm.15-.39a3.8,3.8,0,0,1,.55,1,9.09,9.09,0,0,1,.18,1,.1.1,0,0,0,.18,0c.31-.71-.31-1.64-.75-2.17C85.91,128.55,85.76,128.71,85.85,128.83Zm.4-.62c-.1,0-.18.09-.08.14a2.46,2.46,0,0,1,1,2.34c0,.11.18.14.2,0A2.29,2.29,0,0,0,86.25,128.21Zm1.06-.48a2.75,2.75,0,0,1,.36,2.56.11.11,0,0,0,.21.08,2.57,2.57,0,0,0-.37-2.83C87.39,127.4,87.21,127.6,87.31,127.73Zm1-1.06a3.81,3.81,0,0,1,0,2.78c0,.13.17.23.23.1a3.48,3.48,0,0,0,0-3C88.46,126.44,88.29,126.55,88.34,126.67Zm.75-.53a2.84,2.84,0,0,1,.62,1.68.11.11,0,1,0,.21,0,2.34,2.34,0,0,0-.67-1.84C89.15,125.88,89,126,89.09,126.14Zm.53-1c-.19-.09-.36.2-.17.3a2,2,0,0,1,1,1.55c0,.11.21.12.23,0A1.81,1.81,0,0,0,89.62,125.17Zm.51-1.21c-.07,0-.15.06-.09.12a2.3,2.3,0,0,1,.67,2c0,.14.22.17.24,0A2.11,2.11,0,0,0,90.13,124Zm1.18-.6c-.14-.12-.35.09-.21.21a1.93,1.93,0,0,1,.62,1.38.14.14,0,0,0,.27,0A1.94,1.94,0,0,0,91.31,123.36Zm.63-.53a.12.12,0,0,0-.17.17,3.2,3.2,0,0,1,.4.51,4.67,4.67,0,0,0,.27.49c0,.06.14,0,.15-.07a.88.88,0,0,0-.19-.55A3.44,3.44,0,0,0,91.94,122.83Zm.28-.59c-.14,0-.15.19,0,.24a1.86,1.86,0,0,1,.62.33,2.77,2.77,0,0,1,.43.53.11.11,0,0,0,.2-.08A1.44,1.44,0,0,0,92.22,122.24Zm.5-.47c-.14,0-.23.17-.1.23a2.62,2.62,0,0,1,.81.78c.07.09.23,0,.19-.08A1.44,1.44,0,0,0,92.72,121.77Zm.54-.76c-.05,0-.1.06-.06.09a1.47,1.47,0,0,1,.24.4,3.29,3.29,0,0,1,.23.62c0,.13.27.11.26,0a1.81,1.81,0,0,0-.27-.71A.71.71,0,0,0,93.26,121Zm.35-.48a.16.16,0,0,0,0,.32c.14,0,.2.18.28.29s.34.06.28-.12S93.91,120.52,93.61,120.53Zm.34-.45a.07.07,0,0,0,0,.13.61.61,0,0,1,.42,0,.09.09,0,0,0,.07-.16A.44.44,0,0,0,94,120.08Zm.62-.8a.12.12,0,1,0,0,.23c0,.09.17.1.18,0S94.71,119.3,94.57,119.28Zm.46-.55-.09,0c-.21,0-.21.31,0,.26l.09,0A.11.11,0,0,0,95,118.73Zm.71-.35a.19.19,0,0,0,0,.37A.19.19,0,0,0,95.74,118.38Z"/><path class="cls-29" d="M50,105.7s9,7,16.78,9.38a28,28,0,0,0,9.5,1,12.62,12.62,0,0,0,8.27-3.82s4.82-5.18,5.68-5.8-1.48-1.24-1.48-1.24l-4-.74-18.88.5Z"/><path class="cls-30" d="M80.84,114.06a11.71,11.71,0,0,0,4-3.68c1.32-1.89.59-2.74-1.73-2.71-2,0-3.89.93-5.8,1.36a23.51,23.51,0,0,1-6.17.22c-2.35-.11-4.7-.61-7-.84-1.37-.14-4.12-.8-5.32.15-2.1,1.67,2.7,3.33,3.79,3.85C67.88,115,75.27,117,80.84,114.06Z"/><path class="cls-31" d="M60.29,112.28v0a38.42,38.42,0,0,0,6.51,2.77,28,28,0,0,0,9.5,1,12.62,12.62,0,0,0,8.27-3.82l.48-.52a23.79,23.79,0,0,1-10,3.26C69,115.57,60.29,112.28,60.29,112.28Z"/><path class="cls-31" d="M90,104.59c-1.85-.19-6.66-4.07-11.1-4.07a7.15,7.15,0,0,0-1.42.4c-.75.3-1.27,1-2,1.23-1.5.5-2.76-1-4.15-1.24a8.8,8.8,0,0,0-3.11.19c-.94.22-1.87.46-2.8.71a66.38,66.38,0,0,0-6.51,2c-3.88,1.48-5.36,1.66-6.85,1.66a26.17,26.17,0,0,1-4.44-.74c7.18,3.59,14.71,2.31,22.24,2.23l1.27.18a10.7,10.7,0,0,1,3.52.93,10.94,10.94,0,0,0,3.51-1.5c3.84-.38,8.21-1.09,12-.36a5.83,5.83,0,0,0,3.33-3A5.34,5.34,0,0,1,90,104.59Z"/><path class="cls-32" d="M70.57,107c-7.72-.28-15.68,1.18-22.95-2.21a0,0,0,0,0,0,0,25.66,25.66,0,0,0,11,2.66c4,.13,8-.27,11.95-.43C70.61,107,70.61,107,70.57,107Zm22.94-3.68A5.51,5.51,0,0,1,90.37,106a4.51,4.51,0,0,1-1.79,0,19.76,19.76,0,0,0-2.31-.15,64.49,64.49,0,0,0-7.48.63,5,5,0,0,0,.91-1c0-.07-.06-.13-.11-.08a13.29,13.29,0,0,1-4.29,2.38,2.73,2.73,0,0,1-2.06-.09,7,7,0,0,0-2.12-.4s0,0,0,0a7.5,7.5,0,0,1,1.82.34c.38.12,1.29.31,1.49.7a.24.24,0,0,0,.27.11,9.13,9.13,0,0,0,3.73-1.63c2.95-.25,5.87-.61,8.84-.6a5.87,5.87,0,0,1,2.8.34c.24.16.77-.23,1-.33a5.89,5.89,0,0,0,2.51-2.82S93.51,103.27,93.51,103.28Z"/><path class="cls-33" d="M29.84,57.38S33,55.72,41.13,55.72s9.63.18,11.29.74,4.63,2.4,7.22,2.77l2,.38a17.76,17.76,0,0,1,3,1.66s-2.77-5-4.63-6.11l.56,1.67-2-1.85-5.37-.56c-3.51-.37-14.43-3.51-14.43-3.51S36.13,51.28,29.84,57.38Z"/><path class="cls-34" d="M103.52,57.38s-2.15-1.66-7.69-1.66-6.56.18-7.69.74-3.15,2.4-4.92,2.77l-1.38.38a12,12,0,0,0-2,1.66s1.89-5,3.15-6.11l-.38,1.67L84,55l3.66-.56c2.39-.37,9.83-3.51,9.83-3.51S99.23,51.28,103.52,57.38Z"/><path class="cls-32" d="M37.2,62.77c1.85-2.34,5.7-3.07,8.48-3.25,3.37-.2,7,.55,9.47,3,.07.07.15,0,.1-.09-2.16-2.79-6.27-3.4-9.57-3.3-3,.1-6.77.86-8.52,3.58,0,0,0,0,0,0Z"/><path d="M37.31,67l-1.48-1.24s2.22-3.2,8.26-4.19,10.49,2.1,12.1,4.93l-6.67,1Z"/><path class="cls-35" d="M37.06,66.21c4.44-5.43,14.93-4.69,19.13.62l1.23,1-1.6-.24c-5.06,2.71-13.21,4.44-18.51-.5Z"/><path class="cls-36" d="M50.8,65.49A4.7,4.7,0,0,0,50.1,63a14.87,14.87,0,0,0-8.13,0,4.67,4.67,0,0,0-.68,2.43,4.75,4.75,0,0,0,4.09,4.71c.49,0,1,0,1.48,0A4.75,4.75,0,0,0,50.8,65.49Z"/><path class="cls-37" d="M46,69.7a4.21,4.21,0,0,0,3.26-6.87,14.94,14.94,0,0,0-6.52,0A4.2,4.2,0,0,0,46,69.7Z"/><path d="M48.53,65.49A2.49,2.49,0,1,1,46,63,2.49,2.49,0,0,1,48.53,65.49Z"/><path class="cls-38" d="M47.8,65.49A1.76,1.76,0,1,1,46,63.74,1.76,1.76,0,0,1,47.8,65.49Z"/><path class="cls-35" d="M47.06,63.43a1,1,0,1,1-2,0,1,1,0,0,1,2,0Z"/><path class="cls-35" d="M46.53,67.92a.49.49,0,1,1-.49-.49A.49.49,0,0,1,46.53,67.92Z"/><path d="M37.09,66.23c2.42-2.61,6.17-3.64,9.63-3.54A14.43,14.43,0,0,1,52,63.87a12.91,12.91,0,0,1,4.14,3c.09.09.25,0,.18-.14-2-3-6.22-4.27-9.57-4.48a13.57,13.57,0,0,0-5.65.84,8.78,8.78,0,0,0-4,3.06s0,.08.06,0Z"/><path class="cls-39" d="M37.28,67.1c5,4.58,13,3.74,18.56.5a0,0,0,0,0,0-.07C50,70.29,42.59,71.78,37.34,67c0,0-.1,0-.06.06Z"/><path class="cls-32" d="M100,62.77c-1.61-2.34-5-3.07-7.37-3.25a9.67,9.67,0,0,0-8.22,3c-.06.07-.14,0-.09-.09,1.88-2.79,5.45-3.4,8.31-3.3,2.61.1,5.89.86,7.4,3.58,0,0,0,0,0,0Z"/><path d="M100,67l1.28-1.24s-1.93-3.2-7.18-4.19a9.67,9.67,0,0,0-10.51,4.93l5.79,1Z"/><path class="cls-35" d="M100.16,66.21c-3.86-5.43-13-4.69-16.62.62l-1.07,1,1.4-.24c4.39,2.71,11.47,4.44,16.08-.5Z"/><path class="cls-40" d="M96.11,65.49a4.88,4.88,0,0,0-.75-2.6,11.43,11.43,0,0,0-8,.72A5.08,5.08,0,0,0,87,65.49a4.75,4.75,0,0,0,3,4.49,15.37,15.37,0,0,0,2.14.22A4.69,4.69,0,0,0,96.11,65.49Z"/><path class="cls-41" d="M91.56,69.7a4.12,4.12,0,0,0,4-4.21,4.3,4.3,0,0,0-1-2.8,11.56,11.56,0,0,0-6.42.59,4.33,4.33,0,0,0-.61,2.21A4.12,4.12,0,0,0,91.56,69.7Z"/><path d="M93.94,65.49A2.38,2.38,0,1,1,91.56,63,2.44,2.44,0,0,1,93.94,65.49Z"/><path class="cls-42" d="M93.24,65.49a1.68,1.68,0,1,1-1.68-1.75A1.72,1.72,0,0,1,93.24,65.49Z"/><path class="cls-35" d="M92.53,63.43a1,1,0,1,1-1-1A1,1,0,0,1,92.53,63.43Z"/><path class="cls-35" d="M92,67.92a.47.47,0,1,1-.47-.49A.48.48,0,0,1,92,67.92Z"/><path d="M100.14,66.23a10.2,10.2,0,0,0-8.37-3.54,11.14,11.14,0,0,0-4.56,1.18,11.3,11.3,0,0,0-3.59,3c-.08.09-.23,0-.16-.14,1.7-3,5.4-4.27,8.31-4.48a10.4,10.4,0,0,1,4.91.84,7.84,7.84,0,0,1,3.51,3.06s0,.08,0,0Z"/><path class="cls-43" d="M100,67.1c-4.35,4.58-11.33,3.74-16.12.5a0,0,0,0,1,0-.07c5,2.76,11.47,4.25,16-.49a0,0,0,1,1,0,.06Z"/></g></g></svg>