<svg xmlns="http://www.w3.org/2000/svg" xmlns:xlink="http://www.w3.org/1999/xlink" viewBox="0 0 113.72 180.98"><defs><style>.cls-1{fill:url(#linear-gradient);}.cls-2{fill:#e08d6a;}.cls-3{fill:url(#linear-gradient-2);}.cls-4{fill:url(#radial-gradient);}.cls-5{fill:url(#radial-gradient-2);}.cls-6{fill:url(#radial-gradient-3);}.cls-7{fill:url(#linear-gradient-3);}.cls-8{fill:url(#linear-gradient-4);}.cls-9{fill:url(#linear-gradient-5);}.cls-10{fill:url(#linear-gradient-6);}.cls-11{fill:url(#linear-gradient-7);}.cls-12{fill:url(#linear-gradient-8);}.cls-13{fill:url(#linear-gradient-9);}.cls-14{fill:url(#radial-gradient-4);}.cls-15{fill:url(#linear-gradient-10);}.cls-16{fill:url(#linear-gradient-11);}.cls-17{fill:url(#linear-gradient-12);}.cls-18{fill:url(#linear-gradient-13);}.cls-19{fill:url(#linear-gradient-14);}.cls-20{fill:url(#linear-gradient-15);}.cls-21{fill:url(#linear-gradient-16);}.cls-22{fill:url(#linear-gradient-17);}.cls-23{fill:#884228;}.cls-24{fill:url(#linear-gradient-18);}.cls-25{fill:url(#linear-gradient-19);}.cls-26{fill:url(#linear-gradient-20);}.cls-27{fill:url(#linear-gradient-21);}.cls-28{fill:url(#linear-gradient-22);}.cls-29{fill:url(#linear-gradient-23);}.cls-30{fill:url(#linear-gradient-24);}.cls-31{fill:url(#linear-gradient-25);}.cls-32{fill:url(#linear-gradient-26);}.cls-33{fill:url(#linear-gradient-27);}.cls-34{fill:url(#linear-gradient-28);}.cls-35{fill:url(#linear-gradient-29);}.cls-36{fill:#c95b4e;}.cls-37{fill:url(#radial-gradient-5);}.cls-38{fill:#b44b44;}.cls-39{fill:#6c2923;}.cls-40{fill:url(#linear-gradient-30);}.cls-41{fill:url(#linear-gradient-31);}.cls-42{fill:#ca7c6a;}.cls-43{fill:url(#linear-gradient-32);}.cls-44{fill:#fff;}.cls-45{fill:url(#linear-gradient-33);}.cls-46{fill:url(#linear-gradient-34);}.cls-47{fill:url(#linear-gradient-35);}.cls-48{fill:url(#linear-gradient-36);}.cls-49{fill:url(#linear-gradient-37);}.cls-50{fill:url(#linear-gradient-38);}.cls-51{fill:url(#linear-gradient-39);}</style><linearGradient id="linear-gradient" x1="54.94" y1="167.43" x2="54.94" y2="119.89" gradientUnits="userSpaceOnUse"><stop offset="0" stop-color="#e08d6a"/><stop offset="1" stop-color="#ae5638"/></linearGradient><linearGradient id="linear-gradient-2" x1="67.06" y1="50.66" x2="69.72" y2="11.14" gradientTransform="translate(-3.45 3.44) rotate(2.19)" gradientUnits="userSpaceOnUse"><stop offset="0" stop-color="#e08d6a"/><stop offset="1" stop-color="#ffb080"/></linearGradient><radialGradient id="radial-gradient" cx="-721.69" cy="101.12" r="48.29" gradientTransform="matrix(0.26, 0.01, -0.01, 0.27, 259.02, 96.31)" gradientUnits="userSpaceOnUse"><stop offset="0" stop-color="#ffb080"/><stop offset="1" stop-color="#e08d6a"/></radialGradient><radialGradient id="radial-gradient-2" cx="-732.97" cy="-40.57" r="48.29" gradientTransform="matrix(0.32, -0.06, 0.08, 0.46, 263.62, 74.85)" xlink:href="#radial-gradient"/><radialGradient id="radial-gradient-3" cx="-576.45" cy="152.07" r="48.29" gradientTransform="matrix(0.27, 0.08, -0.13, 0.45, 277.79, 76.69)" xlink:href="#radial-gradient"/><linearGradient id="linear-gradient-3" x1="45.47" y1="72.15" x2="45.47" y2="58.84" gradientTransform="translate(-3.45 3.44) rotate(2.19)" xlink:href="#linear-gradient"/><linearGradient id="linear-gradient-4" x1="91.58" y1="71.89" x2="91.58" y2="58.82" gradientTransform="translate(-3.45 3.44) rotate(2.19)" xlink:href="#linear-gradient"/><linearGradient id="linear-gradient-5" x1="62.7" y1="64.15" x2="62.7" y2="22.92" gradientTransform="translate(-3.45 3.44) rotate(2.19)" xlink:href="#linear-gradient"/><linearGradient id="linear-gradient-6" x1="35.94" y1="150.79" x2="117.58" y2="15.87" gradientTransform="translate(-3.45 3.44) rotate(2.19)" xlink:href="#linear-gradient"/><linearGradient id="linear-gradient-7" x1="10.38" y1="90.25" x2="19.1" y2="83.87" gradientTransform="translate(-3.45 3.44) rotate(2.19)" xlink:href="#linear-gradient"/><linearGradient id="linear-gradient-8" x1="15.11" y1="86.33" x2="19.8" y2="82.87" gradientTransform="translate(-3.45 3.44) rotate(2.19)" gradientUnits="userSpaceOnUse"><stop offset="0" stop-color="#ad5838"/><stop offset="1" stop-color="#913d21"/></linearGradient><linearGradient id="linear-gradient-9" x1="102.31" y1="88.75" x2="115.13" y2="79.37" gradientTransform="translate(-3.45 3.44) rotate(2.19)" xlink:href="#linear-gradient"/><radialGradient id="radial-gradient-4" cx="-728.33" cy="173.24" r="35.5" gradientTransform="matrix(0.26, 0.01, -0.01, 0.23, 259.37, 97.9)" gradientUnits="userSpaceOnUse"><stop offset="0" stop-color="#ae5638"/><stop offset="1" stop-color="#e08d6a"/></radialGradient><linearGradient id="linear-gradient-10" x1="60.08" y1="83.12" x2="75.47" y2="92.08" gradientTransform="translate(-3.45 3.44) rotate(2.19)" xlink:href="#linear-gradient"/><linearGradient id="linear-gradient-11" x1="85.33" y1="84.6" x2="74.17" y2="87.61" gradientTransform="translate(-3.45 3.44) rotate(2.19)" xlink:href="#linear-gradient"/><linearGradient id="linear-gradient-12" x1="64.03" y1="96.58" x2="62.36" y2="94.5" xlink:href="#linear-gradient-2"/><linearGradient id="linear-gradient-13" x1="84.18" y1="96.53" x2="86.92" y2="94.66" xlink:href="#linear-gradient-2"/><linearGradient id="linear-gradient-14" x1="67.35" y1="82.16" x2="67.35" y2="111.37" gradientTransform="matrix(1, 0, 0, 1, 0, 0)" xlink:href="#linear-gradient-2"/><linearGradient id="linear-gradient-15" x1="73.69" y1="108.8" x2="73.69" y2="99.36" gradientTransform="translate(-3.45 3.44) rotate(2.19)" xlink:href="#linear-gradient"/><linearGradient id="linear-gradient-16" x1="73.63" y1="87.43" x2="73.63" y2="67.22" gradientTransform="translate(-3.45 3.44) rotate(2.19)" gradientUnits="userSpaceOnUse"><stop offset="0" stop-color="#884228"/><stop offset="1" stop-color="#e08d6a"/></linearGradient><linearGradient id="linear-gradient-17" x1="13.19" y1="86.87" x2="19.02" y2="83.72" gradientTransform="translate(-3.45 3.44) rotate(2.19)" gradientUnits="userSpaceOnUse"><stop offset="0" stop-color="#944627"/><stop offset="1" stop-color="#782e13"/></linearGradient><linearGradient id="linear-gradient-18" x1="62.51" y1="33.34" x2="62.51" y2="1.03" gradientTransform="translate(-3.45 3.44) rotate(2.19)" gradientUnits="userSpaceOnUse"><stop offset="0"/><stop offset="1" stop-color="#2d4753"/></linearGradient><linearGradient id="linear-gradient-19" x1="86.8" y1="38.3" x2="92.8" y2="9.43" xlink:href="#linear-gradient-18"/><linearGradient id="linear-gradient-20" x1="85.65" y1="38.32" x2="90.47" y2="19.02" xlink:href="#linear-gradient-18"/><linearGradient id="linear-gradient-21" x1="18.77" y1="64.35" x2="57.8" y2="14.99" gradientTransform="translate(-3.45 3.44) rotate(2.19)" gradientUnits="userSpaceOnUse"><stop offset="0"/><stop offset="1" stop-color="#3a5b6f"/></linearGradient><linearGradient id="linear-gradient-22" x1="107.4" y1="55.34" x2="78.41" y2="11.03" xlink:href="#linear-gradient-21"/><linearGradient id="linear-gradient-23" x1="11.88" y1="59.58" x2="6.1" y2="60.54" xlink:href="#linear-gradient-21"/><linearGradient id="linear-gradient-24" x1="113.44" y1="58.1" x2="116.72" y2="59.48" xlink:href="#linear-gradient-21"/><linearGradient id="linear-gradient-25" x1="62.51" y1="33.31" x2="62.51" y2="0.96" gradientTransform="translate(-3.45 3.44) rotate(2.19)" gradientUnits="userSpaceOnUse"><stop offset="0"/><stop offset="1" stop-color="#1d2e36"/></linearGradient><linearGradient id="linear-gradient-26" x1="48.57" y1="17.46" x2="48.57" y2="-3.13" xlink:href="#linear-gradient-18"/><linearGradient id="linear-gradient-27" x1="60.89" y1="11.2" x2="60.89" y2="0.32" gradientTransform="translate(-3.45 3.44) rotate(2.19)" gradientUnits="userSpaceOnUse"><stop offset="0" stop-color="#111820"/><stop offset="1" stop-color="#375965"/></linearGradient><linearGradient id="linear-gradient-28" x1="49.63" y1="17.03" x2="49.63" y2="-3.17" gradientTransform="translate(-3.45 3.44) rotate(2.19)" gradientUnits="userSpaceOnUse"><stop offset="0" stop-color="#111820"/><stop offset="1" stop-color="#446d7c"/></linearGradient><linearGradient id="linear-gradient-29" x1="48.69" y1="17.36" x2="48.69" y2="-3.31" gradientTransform="translate(-3.45 3.44) rotate(2.19)" gradientUnits="userSpaceOnUse"><stop offset="0"/><stop offset="1" stop-color="#20323b"/></linearGradient><radialGradient id="radial-gradient-5" cx="-827.35" cy="182.08" r="37.98" gradientTransform="matrix(0.23, 0.01, -0.01, 0.21, 257.11, 97)" gradientUnits="userSpaceOnUse"><stop offset="0" stop-color="#e07c69"/><stop offset="1" stop-color="#c95b4e"/></radialGradient><linearGradient id="linear-gradient-30" x1="45.69" y1="57.73" x2="45.69" y2="53.49" gradientTransform="translate(-3.45 3.44) rotate(2.19)" gradientUnits="userSpaceOnUse"><stop offset="0"/><stop offset="1" stop-color="#162329"/></linearGradient><linearGradient id="linear-gradient-31" x1="-181.25" y1="58.2" x2="-181.25" y2="53.96" gradientTransform="matrix(-0.77, -0.03, -0.04, 1, -50.75, 1.15)" xlink:href="#linear-gradient-30"/><linearGradient id="linear-gradient-32" x1="44.75" y1="55.42" x2="44.75" y2="59.85" gradientTransform="translate(-3.45 3.44) rotate(2.19)" gradientUnits="userSpaceOnUse"><stop offset="0" stop-color="#672a1a"/><stop offset="1" stop-color="#4b170b"/></linearGradient><linearGradient id="linear-gradient-33" x1="44.91" y1="77.65" x2="44.91" y2="70.59" gradientTransform="translate(-3.45 3.44) rotate(2.19)" gradientUnits="userSpaceOnUse"><stop offset="0" stop-color="#39140a"/><stop offset="1"/></linearGradient><linearGradient id="linear-gradient-34" x1="44.91" y1="77.65" x2="44.91" y2="70.59" gradientTransform="translate(-3.45 3.44) rotate(2.19)" gradientUnits="userSpaceOnUse"><stop offset="0.01" stop-color="#652312"/><stop offset="1" stop-color="#210000"/></linearGradient><linearGradient id="linear-gradient-35" x1="44.91" y1="74.16" x2="44.91" y2="76" gradientTransform="translate(-3.45 3.44) rotate(2.19)" gradientUnits="userSpaceOnUse"><stop offset="0"/><stop offset="1" stop-color="#77726d"/></linearGradient><linearGradient id="linear-gradient-36" x1="13.65" y1="54.63" x2="13.65" y2="59.06" gradientTransform="matrix(-0.9, -0.03, -0.04, 1, 101.64, 7.57)" xlink:href="#linear-gradient-32"/><linearGradient id="linear-gradient-37" x1="15.21" y1="76.87" x2="15.21" y2="69.8" gradientTransform="matrix(-0.9, -0.03, -0.04, 1, 101.64, 7.57)" xlink:href="#linear-gradient-33"/><linearGradient id="linear-gradient-38" x1="15.21" y1="76.87" x2="15.21" y2="69.8" gradientTransform="matrix(-0.9, -0.03, -0.04, 1, 101.64, 7.57)" xlink:href="#linear-gradient-34"/><linearGradient id="linear-gradient-39" x1="15.21" y1="73.38" x2="15.21" y2="75.21" gradientTransform="matrix(-0.9, -0.03, -0.04, 1, 101.64, 7.57)" xlink:href="#linear-gradient-35"/></defs><g id="Layer_2" data-name="Layer 2"><g id="_1_Face" data-name="1_Face"><path d="M61.7,181C17.61,181,.39,169.9.22,169.78a.49.49,0,0,1,.09-.87c.2-.08,20.51-8.09,22.82-14.15s1.69-38.19,1.69-38.52a.46.46,0,0,1,.15-.36.47.47,0,0,1,.33-.14h0L87.72,120a.47.47,0,0,1,.35.18.53.53,0,0,1,.09.39c0,.24-4.07,24.6-.37,33.51s21.58,15.14,21.77,15.2a.49.49,0,0,1,.32.43.48.48,0,0,1-.25.47c-.2.11-19.87,10.83-47.93,10.83Z"/><path class="cls-1" d="M.48,169.37s20.68-8.09,23.1-14.43,1.72-38.71,1.72-38.71l62.39,4.23s-4.14,24.63-.35,33.78,22.06,15.48,22.06,15.48S90,180.49,61.7,180.49C17.24,180.49.48,169.37.48,169.37Z"/><path d="M113.44,50.34A22.24,22.24,0,0,0,111.21,42c-1.61-2.89-3.26-5.82-4.85-8.65l-.08-.13-.17-.3-.46-.83c.61-1.55,1.17-3.18,1.67-4.84l.09-.3a8.82,8.82,0,0,0,.56-4.49,13.86,13.86,0,0,0-1.84-4.25,23.51,23.51,0,0,0-2.75-3.68l0,0A5.56,5.56,0,0,0,101,12.76a23.21,23.21,0,0,0-6.51-1.27,9.08,9.08,0,0,0-2.45.31,5.53,5.53,0,0,0-1.67.89l-.2.15a5.1,5.1,0,0,1-1.87.8,12.33,12.33,0,0,1-2.37.19H84.25l-1,0-.85,0a10.58,10.58,0,0,1-4.79-1l-.23-.13c-.34-.46-.71-.91-1.1-1.36a46.91,46.91,0,0,0-9.2-8A19.52,19.52,0,0,0,56.1,0h-.68C48,.25,41.7,4.82,37,8.79l-1.24.43C28.49,11.9,21.51,16.9,15,24.05A71.87,71.87,0,0,0,7.22,34.29,40.71,40.71,0,0,0,2.69,45.17,67.72,67.72,0,0,0,.29,61.68a1.94,1.94,0,0,0,.3,1.22l0,.07A22.29,22.29,0,0,1,1.92,66.3l.06.17c.93,2.81,1.71,5.72,2.35,8.2.1.39.2.77.29,1.15-2,1.46-3.61,4.11-2.95,6.6a59.17,59.17,0,0,0,2.75,7.71c.39.93.84,1.94,1.37,3.08.12.26.27.53.41.79a5.65,5.65,0,0,1,.68,1.56,38,38,0,0,0,.93,3.92,11,11,0,0,0,1.89,3.93,12.72,12.72,0,0,0,4,3.31,11.74,11.74,0,0,0,2.74,1s.34.08.66.12c.06.57.14,1.19.23,2A71.08,71.08,0,0,0,19.12,119a22.49,22.49,0,0,0,4.05,8.83c2.51,3,5.91,5.07,9.19,6.92,2.08,1.17,4.22,2.31,6.29,3.4l4.12,2.2a50.24,50.24,0,0,0,10.36,4.23,2.51,2.51,0,0,1,1,.45A25.87,25.87,0,0,0,57.53,147a22.18,22.18,0,0,0,5.61,1.77,16.59,16.59,0,0,0,2.83.22c1.12,0,2.21-.08,3.13-.16a22.66,22.66,0,0,0,9.74-2.89A16.06,16.06,0,0,0,83,142.26a17.13,17.13,0,0,0,1.64-2.33c.07-.12.14-.24.2-.36a2.46,2.46,0,0,1,.43-.64c5.74-5.4,9.76-10.9,12-16.34,2.56-6.39,4-13.48,5.22-19.61,0-.23.09-.45.13-.67h0a1.71,1.71,0,0,0,.49.07c2,0,2.54-3.26,2.77-4.65l0-.13a61.62,61.62,0,0,0,.64-8.7v-.48a19.4,19.4,0,0,1,.18-2.74c.17-1.05.3-2,.41-2.91,0-.13,0-.26,0-.4a6.24,6.24,0,0,0,0-2.28,1.9,1.9,0,0,0-.93-1.15c.52-2,1.19-4.08,2.1-6.55a57.2,57.2,0,0,1,2.74-6.31c.32-.63.57-1.14.77-1.59l0-.06a17.66,17.66,0,0,0,1.13-3.2A32,32,0,0,0,113.44,50.34ZM94.76,15.71l-.25-.11.11-.17a1.8,1.8,0,0,1,.95-.19h.09a7.29,7.29,0,0,1,1.12.08c.42.07.9.18,1.48.32a8.55,8.55,0,0,1,2.39,1.15,17.94,17.94,0,0,1,4.06,4.31,3.69,3.69,0,0,1,.56,1.29,12.18,12.18,0,0,1-.27,4.34c0,.24-.11.48-.16.71s-.13.59-.19.87a.64.64,0,0,0-.08.19c0,.26-.1.52-.16.78a82.46,82.46,0,0,0-3.72-7.79,17.26,17.26,0,0,0-2.07-3.1A11.45,11.45,0,0,0,94.76,15.71Z"/><path class="cls-2" d="M106.67,80.51c-.1-1.5-3-1.61-3-1.61L103.2,51c-.39-1.12-1.44-7.61-1.81-9.18S94.25,36,90.87,34.08,74.66,27.9,73.59,27.64,59.13,26.64,57,27,42.6,28.9,40.19,29.69,23.32,40.83,23.32,40.83s-5.7,7.56-5.94,8.22-3.84,15.63-3.84,15.63L5.26,76.14a6.6,6.6,0,0,0-3.14,5.55s1.11,5,5.33,13.53c0,0,.93,5.37,2.32,7.26a11.47,11.47,0,0,0,7.93,4.8s1.12,13,5,18.86S36,135.77,42,139.21a50.82,50.82,0,0,0,11.83,4.92l.31.21-.3-.21.15,0s5.83,4.39,12.49,4.14c6.5-.24,13.66-1.57,17.91-9.07l0,.09.39-.69c.61-.56,8.33-7.8,11.58-15.36,3.39-7.87,5.87-21.94,5.87-21.94s2.34,2.43,3.27-4.71a89.85,89.85,0,0,0,.54-10A43.28,43.28,0,0,0,106.67,80.51Z"/><path class="cls-3" d="M28.4,60.8s-2.18-11,4.54-16.94S54.38,32,65.7,36c0,0,6.42,1.8,9.67,1.71s13.27,3.61,17.36,9.77a28.83,28.83,0,0,1,1.76,16.29l-21,5.64L56.25,68.09l-13-4.5Z"/><path class="cls-4" d="M67.28,100.68A15.66,15.66,0,1,0,81.91,116.9,15.45,15.45,0,0,0,67.28,100.68Z"/><path class="cls-5" d="M27.4,125.48C37.68,123.61,44,110.23,41.5,95.6s-12.85-25-23.13-23.12c-6.9,1.26-12,7.7-13.87,16.21.75,1.86,1.71,4,3,6.53,0,0,.93,5.37,2.32,7.26a11.47,11.47,0,0,0,7.93,4.8s1,12,4.51,18.12A13.72,13.72,0,0,0,27.4,125.48Z"/><path class="cls-6" d="M102.14,101.34s2.34,2.43,3.27-4.71a89.85,89.85,0,0,0,.54-10,43.28,43.28,0,0,0,.72-6.14c-.1-1.5-3-1.61-3-1.61l-.11-6.84c-7.54,1-15.29,9.6-18.64,21.54-4,14.29-.22,27.94,8.48,30.5a9.89,9.89,0,0,0,2.33.4c.2-.4.39-.81.56-1.22C99.66,115.41,102.14,101.34,102.14,101.34Z"/><path class="cls-7" d="M27.37,79.15s-6.94-5.26-4.26-11.66l14.6-3.94L52,63.42l3.75,3.81.56,2.19S57.87,79.48,50.18,81L40.12,81Z"/><path class="cls-8" d="M75.3,82S72,76.19,73,70.23l2.28-4.42,6-1.27L89,67.34l9,3s1.47,8.22-2.21,11.25l-8.45.17-7.14.06Z"/><path class="cls-9" d="M15.18,79.68S20.12,65,26.17,59.6c0,0-1.77-8.9,3.65-14.86s20.71-15.21,35.79-10.8a20.43,20.43,0,0,0,11.6,2.28A32,32,0,0,1,94.3,47.54a41.85,41.85,0,0,1,1,16l2.34,6.76,3.42,3.79.52-13.64L96.72,43.63s-3.19-5.79-4.79-6.35-10.31-6.06-13.05-6.66-12.5-4-16.21-4.62-11-.76-14.94.26-14.5,5.78-18,7.65S19.64,43.69,18.26,45.8s-3.14,10.05-4.45,14.5-1.32,9.28-1.57,11.44a12.89,12.89,0,0,0,.3,5Z"/><path class="cls-10" d="M27,114.64C22.67,108.8,17.68,95,17.68,95l-.81,4.3c.33,8.35-4.12,5.84-4.12,5.84s0,.12,0,.33a10.83,10.83,0,0,0,4.94,1.86s1.12,13,5,18.86S36,135.77,42,139.21A51.9,51.9,0,0,0,53.15,144l-5.67-4.87C30,129.42,31.31,120.47,27,114.64Zm75.39-19.46c-.26,6.66-4.21,8.18-6.91,19.41a61.7,61.7,0,0,1-9.2,20l.1,2.42c2.6-2.65,7.49-8.09,9.9-13.71,3.39-7.87,5.87-21.94,5.87-21.94a1.29,1.29,0,0,0,1.17.36C102.21,99.5,102.38,95.18,102.38,95.18Z"/><path class="cls-11" d="M3.51,80.85s.87-3.08,4.33-.06c0,0,3.18,4.46,3.7,5.14S14,90.8,13.65,93c0,0-1.18,2.52,1.67,4.4l0,2.34s-2.4.35-3.68-2.81A3.93,3.93,0,0,0,12,99.62s-2.24-.86-1.53-5.28c0,0-.7-1.7-1.27-.72l.63-2.42a35.79,35.79,0,0,0-2-3.74C6.48,85.3,6.49,82.19,5.53,81.7a2.87,2.87,0,0,0-1.94-.18Z"/><path class="cls-12" d="M8,82.58c1,1.37,2.85,4.66,2.85,4.66l-.05,1.11C12.1,88.07,12.46,90,12.46,90l.18,1c.18,1-.62,2.19-.39,4.54s3,3.34,3,3.34l.07,0V97.41c-2.85-1.88-1.67-4.4-1.67-4.4.3-2.21-1.6-6.39-2.11-7.08s-3.7-5.14-3.7-5.14C5.73,79,4.58,79.38,4,80,5.75,79.45,7,81.27,8,82.58Z"/><path class="cls-13" d="M102.83,97.54a32.07,32.07,0,0,0,1.37-4.84,20.09,20.09,0,0,0,.06-4.22l.45-.54,1.4-5.5s-1.73-.07-2.7,5.45Z"/><path class="cls-14" d="M56.93,133.08l1.93-1.76s11.88.79,16.39-.38l2,2.08S65.33,132.23,56.93,133.08Z"/><path class="cls-15" d="M56,99.41s4.83-3.15,5.22-5-.3-13.34-.3-13.34l-4.24-3.66s-4.16,6.84-6.19,9.09-3.13,9.55,3.13,15.79C53.59,102.32,54.49,100,56,99.41Z"/><path class="cls-16" d="M72.77,80.22s1.41,5.55,2.64,7.27,5.67,4.55,5.57,7-1.8,8.93-1.8,8.93c.28-1.06-.64-3-1.27-3.8-2.2-2.64-2.82,1.69-3.62,3,.29-1.72-1-3.31-1.11-5,0,0-.06-5.5,0-6.66s-.51-7.86-.51-7.86Z"/><path class="cls-17" d="M58.42,101.06c.76-2.42-2-2.1-3.23-1-1,.91-1.95,4.62.43,4.2C56.89,104,58.06,102.22,58.42,101.06Z"/><path class="cls-18" d="M78.08,105.25c-1.43-.28-3-3.78-1.63-4.89C78.73,98.48,80.34,105.7,78.08,105.25Z"/><path class="cls-19" d="M72.41,98s2.16,7.08-4.17,7.17-6.13-5.07-5.73-7S62,86.64,62.45,82.82a26.7,26.7,0,0,0-.51-8l9.55.7s.12,5.17,0,7.5S72.1,93.53,72.41,98Z"/><path class="cls-2" d="M61.86,98.14s5.93-2.28,10.55-.1l.53-1.15A19.7,19.7,0,0,0,61.58,97Z"/><path class="cls-20" d="M54.78,106.37A8,8,0,0,1,60.24,105c2.8.55,4.13,2.38,7.61,2.07a12.43,12.43,0,0,0,5.92-2.22l-.36,1.1s3.91-.52,4.94.85c0,0-.74,2.31-2.7,2.79,0,0-3.52,4.2-8.49,4s-9.23-1.91-11.45-5.89c0,0-1.28-.71-1.37-1.16Z"/><path d="M59.44,106.38a5.65,5.65,0,0,1,3.92,2.09S60.37,108.75,59.44,106.38Z"/><path d="M72.35,108.15s2.05-1.26,3.54-.53A3.36,3.36,0,0,1,72.35,108.15Z"/><path class="cls-21" d="M76.81,108c-1.94-1.36-3.93-.47-5.58.91,0,0,0,0,0,0,1.61-1.21,3.66-1.93,5.52-.88C76.81,108,76.84,108,76.81,108Zm-3.7-16c-.06,1.79-.07,3.58,0,5.36a2.2,2.2,0,0,0,.13.85,15.8,15.8,0,0,1,.89,3.16,6.64,6.64,0,0,1-.68,4.38,7.85,7.85,0,0,1-.58.84,6.24,6.24,0,0,0,1.5-3.8,9.43,9.43,0,0,0-.23-2.12c-.1-.49-.25-1-.39-1.45a6.26,6.26,0,0,1-.48-1.33c-.06-1.44-.06-2.89,0-4.33,0-2.83-.07-5.63-.24-8.46-.14-2.29-.39-4.6-.41-6.89a.05.05,0,1,0-.1,0,49.15,49.15,0,0,0,.32,6.3C73,86.93,73.19,89.46,73.11,92Zm-1.35,15.7a8.79,8.79,0,0,0,1.09-1.11A10.36,10.36,0,0,1,71.76,107.65ZM54.7,106.43a7.55,7.55,0,0,1-.69-3,4.4,4.4,0,0,1,3-4.52s0-.1,0-.08a4.38,4.38,0,0,0-3.37,4.2,7.48,7.48,0,0,0,.47,3.25c.25.68.58.81,1.17,1.21a10,10,0,0,0,2,1.07s0,0,0,0A5.42,5.42,0,0,1,54.7,106.43ZM70.05,109h0c.48-.33,1-.67,1.41-1C71,108.28,70.52,108.62,70.05,109Zm7.5-9.39s0,0,0,0c1.33,1.15,1.44,3.49,1.3,5.13a6.73,6.73,0,0,1-.88,2.76,5,5,0,0,1-2.21,2.14s0,0,0,0a8.82,8.82,0,0,0,1-.51c.15-.09.65-.61.76-.58.27.06.52-.38.65-.55a6.05,6.05,0,0,0,1-2.87C79.36,103.24,79.13,100.77,77.55,99.56Zm-20.08,7.23s0,0,0,0c2.59-1.1,5.47.55,6.79,2.92,0,0,0,0,0,0C63.07,107.05,60.24,105.55,57.47,106.79Z"/><path class="cls-22" d="M15.92,97.91A15.72,15.72,0,0,1,14.08,96a5,5,0,0,1-.55-3,7.35,7.35,0,0,0-.29-3.43c-.22-.58-.47-1.15-.74-1.72a.76.76,0,0,0,0-.15.08.08,0,0,0-.11-.06,36.59,36.59,0,0,0-2-3.62c-1.24-2-5.17-7.46-6.92-3,0,0,0,0,0,0,1.72-3.92,5,.4,6.74,3.09L10,84s-.12,0-.09.06a5.88,5.88,0,0,1,.94,3.33,11.24,11.24,0,0,1-.78,3.17C9.48,92.25,8.71,94.06,9,96c0,0,.05,0,0,0-.45-3.4,3.17-7.52,1.73-10.82l.24.4c.46.8.92,1.63,1.33,2.48-.19,3.36-2.85,6.2-1.94,9.66,0,0,0,0,0,0-.77-3.41,1.75-6.14,2-9.41a16.31,16.31,0,0,1,.78,2,5.22,5.22,0,0,1,.16,2c0,.48-.09,1-.12,1.43a5.77,5.77,0,0,0-.09,1.17c.25,1.56,1.32,2.48,2.47,3.41C15.85,98.34,16.06,98.07,15.92,97.91Z"/><path class="cls-23" d="M106.69,80.22c-.3-1.12-2.11-1.35-3-1.39a.07.07,0,0,0,0,.13,4.13,4.13,0,0,1,2.63.88c.46.43.33,1.21.29,1.79s-.14,1.36-.23,2c-.14,1-.3,2-.47,3a16.93,16.93,0,0,0,0,2.47c0,1.88-.14,3.75-.31,5.63a19.33,19.33,0,0,1-1,5.45c-.37.92-1.34,2-2.27,1.1,0,0-.16,0-.17,0a144.94,144.94,0,0,1-3.64,15.58,42.29,42.29,0,0,1-4.65,10.83,56.1,56.1,0,0,1-7.19,8.91c-.47.5-1,1-1.45,1.45a9.89,9.89,0,0,0,1.14-3.34h0a16.08,16.08,0,0,1-1.67,3.88,5.37,5.37,0,0,0-.54.93,17.78,17.78,0,0,1-2,2.76,17.35,17.35,0,0,1-9.54,5.22,23.72,23.72,0,0,1-11.69-.11A21.93,21.93,0,0,1,54,144.08a.71.71,0,0,0-.28-.09c-2.22-1.67-4.59-3.21-6.88-4.77,0,0,0,0,0,0,2.11,1.52,4.18,3.22,6.38,4.62l-1.27-.38a50.39,50.39,0,0,1-5.33-2c-2.15-.95-4.17-2.12-6.23-3.24-1.69-.91-3.4-1.78-5.09-2.67a46.53,46.53,0,0,1-10.07-6.6,18.91,18.91,0,0,1-5.05-8.87,64.54,64.54,0,0,1-2.37-12.78.1.1,0,0,0-.09-.11A10.91,10.91,0,0,1,9.08,101a26.45,26.45,0,0,1-1.3-4.54c-.08-.38-.16-.77-.23-1.15a2.4,2.4,0,0,0-.31-.67c-.32-.65-.63-1.31-.93-2a71,71,0,0,1-3.7-9.52q-.23-.72-.39-1.44A5.41,5.41,0,0,1,3,78.76,6.6,6.6,0,0,1,5.3,76.22c.1-.06,0-.23-.09-.17-1.9,1.25-3.67,3.82-3,6.24A58.66,58.66,0,0,0,4.9,89.92C5.34,91,5.8,92,6.27,93A11.69,11.69,0,0,1,7.4,95.46a36.29,36.29,0,0,0,.92,3.87,10.41,10.41,0,0,0,1.79,3.75A12.23,12.23,0,0,0,14,106.25a11.24,11.24,0,0,0,2.62.94c.06,0,1,.23,1,.1,0,.06,0,.12,0,.17.07.76.16,1.52.26,2.27a69.17,69.17,0,0,0,1.75,9.16,22,22,0,0,0,3.95,8.64c2.43,2.91,5.8,5,9,6.79,3.43,1.93,6.94,3.72,10.4,5.6a49.59,49.59,0,0,0,10.25,4.18,3,3,0,0,1,1.14.52,24.21,24.21,0,0,0,3.34,1.85,21.7,21.7,0,0,0,5.48,1.73,22.24,22.24,0,0,0,5.82.05,22.32,22.32,0,0,0,9.52-2.81,16.21,16.21,0,0,0,4.06-3.51,18.85,18.85,0,0,0,1.59-2.27,4.92,4.92,0,0,1,.72-1.11c4.79-4.52,9.32-10,11.82-16.16s3.93-12.94,5.2-19.51c.08-.45.17-.9.25-1.35l0,0a1.54,1.54,0,0,0,.5.24c1.89.52,2.44-3.19,2.62-4.29a59.12,59.12,0,0,0,.64-8.62,23.83,23.83,0,0,1,.2-3.29c.15-1,.29-1.92.4-2.89A7.19,7.19,0,0,0,106.69,80.22Zm-.41,2.12s0,0,0,0c-1.6.63-2.19,2.61-2.57,4.16-.5,2-.66,4-1.13,6,0,.08.11.13.14,0a40,40,0,0,0,1-5.24c.08-.44.18-.93.31-1.43,1.24,2.53.74,5.34.53,8.05h0c.34-2.78.89-5.62-.43-8.23a.07.07,0,0,0,0,0C104.43,84.28,105,82.88,106.28,82.34Z"/><path class="cls-24" d="M110.88,42.62C108.85,39,105,32.17,105,32.17a58.28,58.28,0,0,0,2.46-7.68c.78-3.53-4.79-10.63-6.5-11.14S93.48,11.06,91,13,87.3,14.16,83,14.44a10.17,10.17,0,0,1-6.85-1.82S50.86,5.21,38.38,9,15.57,22.75,8.23,33.81.87,62.19.87,62.19c1.63,2.51,4.44,14,4.44,14,2.85-1,5.46,4.43,7.48,8.06s2.43,15.88,2.43,15.88A33.21,33.21,0,0,1,19,102.22S14.9,85.62,14.92,79.4s.47-12.21,1.38-13.51,5.24-6.68,5.24-6.68.16-10,2-13.26S37.07,32,37.07,32l17.27-4.67,14,2.09,6.57,3.8,1.9,1.19c8.67-.56,17.93,12,17.93,12C99,54.39,98,68.57,98,68.57c2.88,3.67,1.16,9.16,2.87,15.44s.94,14.93.94,14.93l1.12-1.07c1.08-5.51,0-16.44.23-17.32s2.43-1.24,2.43-1.24a70.17,70.17,0,0,1,5.53-14.46C114.6,58.54,112.9,46.25,110.88,42.62ZM104.6,31.27s-4.34-10.84-6.86-12.93a10.24,10.24,0,0,0-4-2.38c.29-1.76,2.22-1.47,5.22-.69s6.28,5.58,6.28,5.58c1.37,2,.35,5.65-.08,7.77Z"/><path class="cls-25" d="M80.09,33a14,14,0,0,1,1.51-.66c-1.51-1.71.47-3.24,1.51-4.56,1.69-2.17,1.29-2.66.57-5.08-.85-2.86,1.26-1.93,1.52-4.16.18-1.63-2.68-2.56-3.73-3a26.37,26.37,0,0,1,14.44,3.68,5.3,5.3,0,0,1-2.07-.56c-.75.71-.21,1.63-.68,2.49s-1.84,1.5-2.74,2c-2.09,1.2-3.72,1.66-4,4.34-.13,1.23.27,1.45-.31,2.71-.46,1-1.23.78-1.22,2.12s2,3.67,2.65,4.91c-1-2.53-6.18-3.7-8.52-4Z"/><path class="cls-26" d="M82.05,32.74c1.12-.56-.06-1.19.1-2s1.22-1.82,1.69-2.47C84.76,27,85.7,25.73,85.47,24c-.11-.75-.66-1.23-.58-2,.11-1.11.85-1.17,1.37-1.94.9-1.3,1-3-.37-3.52a18.79,18.79,0,0,1,5.38,2.55c-4.16-.45-4.55,3.79-5.1,6.76S82,30.6,84,33.64Z"/><path class="cls-27" d="M16.1,34.23c-.3-.95,0-2.4-.59-3.3s-2.37-.51-2.58-1.07c-.34-.95.13-2.27.89-3.52a79.77,79.77,0,0,0-5.59,7.47C.88,44.86.87,62.19.87,62.19c1.63,2.51,4.44,14,4.44,14,2.85-1,5.46,4.43,7.48,8.06s2.43,15.88,2.43,15.88A33.21,33.21,0,0,1,19,102.22S14.9,85.62,14.92,79.4s.47-12.21,1.38-13.51,5.24-6.68,5.24-6.68.16-10,2-13.26a28.26,28.26,0,0,1,3.56-4.26C22.25,41.36,17.65,39.12,16.1,34.23Z"/><path class="cls-28" d="M94.72,46.45C99,54.39,98,68.57,98,68.57c2.88,3.67,1.16,9.16,2.87,15.44s.94,14.93.94,14.93l1.12-1.07c1.08-5.51,0-16.44.23-17.32s2.43-1.24,2.43-1.24a70.17,70.17,0,0,1,5.53-14.46c3.49-6.31,1.79-18.6-.23-22.23-1.59-2.86-4.31-7.68-5.4-9.61a2.42,2.42,0,0,0-.41.27c-2.79,2.27,1.77,9.11-3.92,9.21-2.58,0-9.43-5.09-7.58,1.31a10.07,10.07,0,0,1-1.87-.91A44.38,44.38,0,0,1,94.72,46.45Z"/><path class="cls-29" d="M6.29,74.68c-.67-3.86-4-13.16-4-13.16-.84-2.48.46-12.49,1-16A72.46,72.46,0,0,0,.87,62.19c1.63,2.51,4.44,14,4.44,14,2.1-.74,4.07,2,5.77,5a.28.28,0,0,0,0-.09C10.56,77.51,6.29,74.68,6.29,74.68Z"/><path class="cls-30" d="M111.11,64.85c1.77-3.21,2.2-8,1.93-12.34a35.18,35.18,0,0,1-2.82,11.64A111,111,0,0,0,105,77.62l-1.22,2.12.06.12a6.84,6.84,0,0,1,1.74-.55A70.17,70.17,0,0,1,111.11,64.85Z"/><path class="cls-31" d="M112.91,50.4a21.47,21.47,0,0,0-2.16-8.12q-2.44-4.39-4.93-8.77l-.63-1.13c-.15-.25-.14-.17,0-.44.62-1.58,1.18-3.19,1.67-4.81a9.22,9.22,0,0,0,.64-4.54,13.61,13.61,0,0,0-1.78-4.08,23.59,23.59,0,0,0-2.69-3.6,5.35,5.35,0,0,0-2.1-1.65c-2.71-.8-5.87-1.73-8.67-.95a5.66,5.66,0,0,0-1.71,1,5.46,5.46,0,0,1-2.06.88,34.56,34.56,0,0,1-5.19.21,11.73,11.73,0,0,1-5.9-1,10.1,10.1,0,0,0-1.28-.77c-1.15-.34-2.32-.64-3.48-.93A134.33,134.33,0,0,0,55.29,8.35C48.79,7.6,42.19,7.41,36,9.71,28,12.65,21.13,18.1,15.42,24.4A71.83,71.83,0,0,0,7.67,34.57,40.35,40.35,0,0,0,3.2,45.31,68.09,68.09,0,0,0,.81,61.69a1.61,1.61,0,0,0,.29,1,25,25,0,0,1,1.38,3.58c.9,2.71,1.65,5.47,2.36,8.23.14.54.28,1.08.41,1.62a.06.06,0,0,0,.08,0c1.43-.44,2.61.64,3.5,1.66a25.4,25.4,0,0,1,2.75,4.26,21.58,21.58,0,0,1,1.7,3.4,21.35,21.35,0,0,1,.78,3.25,76.39,76.39,0,0,1,1.09,11.3.08.08,0,0,0,0,.07A32.24,32.24,0,0,1,19,102.28a.07.07,0,0,0,.1-.07q-1.66-6.7-2.93-13.49A59.5,59.5,0,0,1,15,79.9c-.07-2.34,0-4.72.2-7.06A30.11,30.11,0,0,1,15.93,67a7.61,7.61,0,0,1,1.66-2.71q1.36-1.75,2.75-3.49l1-1.2c.06-.08.3-.29.3-.41,0-.67,0-1.34.07-2A45.5,45.5,0,0,1,22.84,48c.61-2.34,2.15-4,3.74-5.68,3.31-3.56,6.86-6.9,10.43-10.19a1.59,1.59,0,0,1,.64-.23L40,31.31l7.31-2,6.18-1.67a3.42,3.42,0,0,1,.91-.24l1.62.24L68.3,29.5a5.06,5.06,0,0,1,.86.5l2.27,1.31,3.43,2c.06,0,.12-.06.06-.09l-5.26-3.07a5,5,0,0,0-1.35-.76l-1.63-.25L54.37,27.28a2.49,2.49,0,0,0-.8.21l-2.49.67-7.4,2-5.93,1.61A2.1,2.1,0,0,0,37,32L35.88,33A117.85,117.85,0,0,0,24.54,44.48a12.3,12.3,0,0,0-2.38,6.23,65.07,65.07,0,0,0-.68,8c0,.57-.16.64-.55,1.13C20.06,61,19.2,62,18.35,63.12c-.72.92-1.5,1.83-2.15,2.81a9.29,9.29,0,0,0-.87,3.76c-.29,2.36-.38,4.74-.44,7.11A41.11,41.11,0,0,0,15,81.64a93.77,93.77,0,0,0,1.47,9.28c.57,2.88,1.2,5.74,1.86,8.59.19.78.37,1.56.56,2.34l.09.38c-.08-.34-.88-.65-1.17-.83-.58-.36-1.17-.72-1.78-1-.32-.17-.73-.11-.74-.51s0-.69,0-1c-.06-1.22-.14-2.45-.24-3.67a49.88,49.88,0,0,0-1.35-8.94,17.53,17.53,0,0,0-1.7-3.71,28.13,28.13,0,0,0-3.15-4.89A3.7,3.7,0,0,0,5.61,76c-.33.05-.22.18-.32-.2L5,74.63c-.7-2.75-1.46-5.49-2.33-8.18A30.26,30.26,0,0,0,1.36,63a2.47,2.47,0,0,1-.42-1.28A68.52,68.52,0,0,1,3.44,44.9,39.3,39.3,0,0,1,8.28,33.84a78.12,78.12,0,0,1,8.3-10.51C22.63,16.9,30,11.57,38.4,9A30.89,30.89,0,0,1,47.53,8a77.51,77.51,0,0,1,10.21.83A137.28,137.28,0,0,1,74,12.12a7.51,7.51,0,0,1,2.34.78c2.94,2,6.39,1.53,9.73,1.52a8.36,8.36,0,0,0,3.7-.59c.65-.31,1.17-.82,1.8-1.15a6,6,0,0,1,2.7-.51,19.5,19.5,0,0,1,5.08.79,6,6,0,0,1,2.77,1.29,18.26,18.26,0,0,1,5.06,7.89c.53,1.8-.06,3.47-.59,5.21-.47,1.56-1,3.11-1.61,4.63-.16.41.31.88.5,1.23l2.24,4c1.49,2.65,3.28,5.26,4.11,8.23A35.91,35.91,0,0,1,113.05,56a25.8,25.8,0,0,1-.77,5.66A29.29,29.29,0,0,1,110,67a68,68,0,0,0-4,10.64c-.13.43-.25.85-.36,1.28s0,.32-.25.37c-.66.13-2.17.44-2.29,1.31a15.88,15.88,0,0,0,0,2.58c.07,1.61.14,3.21.19,4.82.05,1.85.06,3.7,0,5.55,0,.83-.08,1.66-.17,2.49s0,1.58-.54,2.07l-.63.6c-.1.09-.12.14-.12.16l.06-.86c.08-1.43.11-2.86.1-4.29a51.34,51.34,0,0,0-.36-5.81c-.28-2.23-1-4.35-1.3-6.56s-.34-4.61-.5-6.91a12.23,12.23,0,0,0-1.22-5c-.15-.26-.62-.7-.6-1s0-.5,0-.76c0-1,.05-2.06.05-3.1a61.39,61.39,0,0,0-.77-9.77,34.94,34.94,0,0,0-1.3-5.34,11.14,11.14,0,0,0-1.37-3.16A36.94,36.94,0,0,0,83.49,36.16a12.7,12.7,0,0,0-6.7-1.77s0,.07,0,.07c3.36-.18,6.51,1.44,9.2,3.36a40,40,0,0,1,6.75,6.26c.57.65,1.13,1.32,1.66,2a9.45,9.45,0,0,1,1.22,2.44,38,38,0,0,1,2.22,11,68.36,68.36,0,0,1,.16,8c0,.18-.16.91,0,1.07a10.74,10.74,0,0,1,1.81,5.85c.16,2.12.17,4.25.42,6.36s1,4.39,1.31,6.63A52.59,52.59,0,0,1,101.82,98l-.06.93s0,.06.07,0A6.39,6.39,0,0,0,103,97.9a3.61,3.61,0,0,0,.18-1.09c.08-.58.14-1.17.18-1.76a71.6,71.6,0,0,0,.08-7.47c-.06-1.92-.17-3.85-.23-5.77,0-.49-.13-1.15.22-1.56a3.79,3.79,0,0,1,2.2-.9s0,0,0,0a70.62,70.62,0,0,1,2.24-7.11,57,57,0,0,1,2.77-6.37,20.16,20.16,0,0,0,1.89-4.73A31.58,31.58,0,0,0,112.91,50.4Zm-7.22-28.64a10.12,10.12,0,0,0-2.52-3.51,14.88,14.88,0,0,0-2.33-2.09,8.29,8.29,0,0,0-3.17-1.25c-1.32-.31-3.63-.85-4,1,0,0,0,.06,0,.06a9.58,9.58,0,0,1,4.36,2.72,19.53,19.53,0,0,1,2.83,4.52c1.35,2.61,2.55,5.31,3.65,8.05a.07.07,0,0,0,.11,0c.18-.89.35-1.77.52-2.66a0,0,0,0,0,0-.05C105.62,26.39,106.33,24,105.69,21.76Zm-.56,6.81s0,0,0,0c-.08.42-.17.83-.26,1.25l-.18.89-.06.33h0c-.2-.5-.41-1-.62-1.5a82.37,82.37,0,0,0-3.73-7.82,17.49,17.49,0,0,0-2-3,11,11,0,0,0-3.69-2.55,4.2,4.2,0,0,0-.8-.28,4.53,4.53,0,0,1,.51-.85,2,2,0,0,1,1.31-.35A9.57,9.57,0,0,1,101,16.36a18.59,18.59,0,0,1,4.19,4.43C106.67,22.94,105.61,26.22,105.13,28.57Z"/><path class="cls-32" d="M18.62,41.55a1.09,1.09,0,0,0,0,.26C18.59,41.72,18.61,41.63,18.62,41.55ZM79.37,17.8c-1.15-3.87-5.53-8.21-8.52-10.66-3.77-3.14-6.29-5.07-11-6.08C49.74-.83,42,5.38,35.33,11.12l.25.15a19.56,19.56,0,0,0-8,8.55l5.64-3.28c-5.68,4.45-11.11,6.24-12.7,14,1.69-6.1,10-9.78,15.19-11.25l.15.42L32.17,21.5C25,25.18,20,33.35,18.62,41.55a4.05,4.05,0,0,1,.49-.88l1-1.63C22,33.61,27,26,33.5,24.88c-5.32,3.47-8.31,9.35-11.59,14.73-2.59,3.9-8.54,11.17-13.89,11l3.86.81c9-.82,15.75-8.73,22.6-13.8,6.85-5.24,18.39-10,26.87-6.81a15.13,15.13,0,0,1,5.09,2.7l.66,0,.14.22c1.38,1,4,1.62,4.67-.31l2.41,1.47.18.12v0l.33.2a4.28,4.28,0,0,0,2.09.41C76.65,29.53,81.26,23.71,79.37,17.8Z"/><path class="cls-33" d="M43.44,28.26c-.84.27-2.4.26-2.57-.92s2-2.51,2.57-3.24A3.26,3.26,0,0,0,44.32,21c-.16-1.71-.3-1.68,1.75-2.48,1.14-.44,4.26-.67,4.43-2,.15-1.08-1.64-2.36-1.78-3.57-.53-4.69,10.57-4.24,13.1-3.52.73-1.28-.94-2.2-.5-3.33s2.88-.71,3.92-.51C68,6.12,71,7,73,9.07c-2.64-1.35-7.21-1.24-8.16,2.15-2.53-.33-4.11-1.41-6.91-.86-1.37.27-4.64.61-5.33,2.09s.93,3,1.51,4.22c.94,2,.74,2.59-1.29,3.07a13.12,13.12,0,0,0-6,2.78c-2.6,2.33-3.15,4.37.18,5.59-1.46.46-1.57,1.53-.07,2.08-1.47.42-2.81,1.71-4.18,2,.89-1.36,1.53-2.6-.43-3.16Z"/><path class="cls-34" d="M53.34,11S48,8.77,39.1,13a32.75,32.75,0,0,0-6.32,3.87l-.28.19c-2.94,2.21-5.77,3.8-8,6,1.16-.76,3.08-2,5.36-3.16C33.61,17.89,40.41,9.81,53.34,11Zm26,6.83c-1.15-3.87-5.53-8.21-8.52-10.66-3.77-3.14-6.29-5.07-11-6.08C49.74-.83,42,5.38,35.33,11.12l.25.15a22,22,0,0,0-5.06,4.07,24.51,24.51,0,0,1,4.81-2.94c2.86-1.23,5.33-3.47,9.15-4.43s18.06.24,25.9,10.21c0,0-5.47-9.65-20.86-11.91,0,0-3.11-.67-8.08,2a55.18,55.18,0,0,1-5.61,2.8l2.52-1.25s6.44-7.09,16-7.95S74.05,9.77,77.41,15.34a14.38,14.38,0,0,1,1.74,9.89A13,13,0,0,0,79.37,17.8Zm-34.89,10C31.75,32.48,30.67,38.22,23.67,40.17l-.48.52c5.31-7.85,11.75-23.66,33.49-18a23.58,23.58,0,0,0-23.45,2.28l.27-.06c-5.32,3.47-8.31,9.35-11.59,14.73-2.25,3.39-7,9.32-11.77,10.68l0,0a21.25,21.25,0,0,0,8.75-4.79A147.78,147.78,0,0,0,34.83,34.16C42.09,28,56.41,24.09,64.54,29.51,64.54,29.51,57.21,23,44.48,27.75Zm-12.35-5C39,19.65,43,18.91,51.59,20.13c0,0-6.18-2.57-15.68-.15l-1.36.36L32.17,21.5A25.15,25.15,0,0,0,21.72,32.35C23.21,30.08,26.94,25.06,32.13,22.72Z"/><path class="cls-35" d="M43.91,32a43.76,43.76,0,0,0-10.33,6c-3.23,2.47-6.22,5.26-9.46,7.72-3.63,2.75-7.69,5.15-12.24,5.7h0C20,50.77,26,44.73,32.05,39.8c6.47-5.31,14.34-9.57,22.78-9.79a18.82,18.82,0,0,1,11.54,3.57c.12.09.27-.1.16-.19C60.17,27.92,51.11,29.1,43.91,32Zm29.67-3.41a25.93,25.93,0,0,0-.89-5.82,20.59,20.59,0,0,0-5.23-8.44A30.2,30.2,0,0,0,49.63,6.23c-.13,0-.13.19,0,.21,6.59.93,13.19,3.49,17.87,8.47a20.59,20.59,0,0,1,4.93,8.72,35.91,35.91,0,0,1,.77,6,18,18,0,0,0,1.09,5c-.76-.52-1.5-1.06-2.26-1.57a.1.1,0,0,0-.15,0c-.65,2.12-3.26,1.39-4.6.48,0,0-.11,0,0,.09a4.2,4.2,0,0,0,3.61.88,1.84,1.84,0,0,0,1.1-1c.21-.4.6.11.89.31L74.44,35c.1.07.19,0,.15-.14A21.82,21.82,0,0,1,73.58,28.57ZM75.86,11.7a46.17,46.17,0,0,0-9.09-7.95A19.06,19.06,0,0,0,55.44.54C47.59.8,40.94,6,35.25,11c-.12.1,0,.27.16.18C41.86,5.91,48.76.43,57.48.94c4.32.26,8,2.17,11.41,4.84A37.8,37.8,0,0,1,77.82,15a11,11,0,0,1,1.74,5.13,17.17,17.17,0,0,1-.91,5.9c-.52,1.83-1.14,3.63-1.57,5.48a15.27,15.27,0,0,0-.38,2.7c0,.2.13,1.27-.21,1.26a3.66,3.66,0,0,1-1.66-.37s-.07,0,0,.06a2.59,2.59,0,0,0,.75.31c.3.08,1,0,1.21.21a.2.2,0,0,0,.34-.13c0-4.55,2.29-8.62,2.87-13.06C80.52,18.25,78.51,14.76,75.86,11.7ZM27.63,19.89a26.85,26.85,0,0,1,3-4.37,21,21,0,0,1,3.89-3.34,67.31,67.31,0,0,1,9.07-4.91h0c-6.18,2.8-13.42,5.53-16.17,12.52C27.37,19.91,27.56,20,27.63,19.89Zm-7,10.7c.78-3.31,3.69-5.74,6.38-7.45a35.35,35.35,0,0,1,8.71-3.81s0-.07,0-.06c-5.35,1.41-11.64,4.2-14.47,9.37a15.3,15.3,0,0,1,4.4-6.32c2.4-2.08,5.12-3.76,7.59-5.78h0c-2.69,2-5.66,3.52-8.18,5.73a14,14,0,0,0-4.64,8.25C20.33,30.67,20.55,30.75,20.58,30.59ZM18.7,41.85l.15-.59a6.32,6.32,0,0,1,.3-.57s0-.1-.08,0l-.1.15a41.1,41.1,0,0,1,1.3-4.71,30.86,30.86,0,0,1,2.89-5.81,25.67,25.67,0,0,1,9-8.77,0,0,0,0,0,0,0A23.41,23.41,0,0,0,23,29.84a30,30,0,0,0-2.88,5.65,22,22,0,0,0-1.63,6.32h0C18.46,42,18.66,42,18.7,41.85ZM21,41.14c1.89-2.58,3.36-5.48,5.11-8.16a26.78,26.78,0,0,1,7.5-8,.16.16,0,0,0-.1-.29c-3.39.59-6.2,2.82-8.43,5.41a26.71,26.71,0,0,0-5,8.87.1.1,0,0,0,.19.06c2-5.79,6.41-12.34,12.57-13.88a27.55,27.55,0,0,0-6,6.39c-1.9,2.7-3.39,5.67-5.24,8.39a38.43,38.43,0,0,1-5.6,6.59c-2.18,2-4.88,4-7.92,4a0,0,0,0,0,0,.05c2.6.14,5-1.39,7-3A34.64,34.64,0,0,0,21,41.14Z"/><path class="cls-36" d="M49.94,121.73s4.85,2.64,6.79,4.86,5.29,4,7.81,3.79,8.25.68,10.13-1.84,2.31-5.25,5.45-6.84l-3.22-.49-13.06-.28Z"/><path class="cls-37" d="M64.09,129c-1.63-.05-8.14-1.45-5.73-4.14,1-1.13,3-.82,4.44-.65a20.76,20.76,0,0,0,5.21.36,39,39,0,0,1,5.21-.71c1.53,0,1.9,1,1.79,2.22a3.07,3.07,0,0,1-2.61,2.44A31.58,31.58,0,0,1,64.09,129Z"/><path class="cls-38" d="M76.9,121.21l-13.06-.28-13.9.8s1.46.8,3.09,1.88a53,53,0,0,1,9.35-.44c3.39.36,3.93,1.27,7,.57s4.91-1.07,6.19-.73a6.54,6.54,0,0,1,1.87.93,7.39,7.39,0,0,1,2.64-2.24Zm-5.83,8.16c-2,.14-5.13.32-7.32.31s-6.08-2.16-6.08-2.16h0c2,1.76,4.72,3,6.88,2.85,2.52-.2,8.25.68,10.13-1.84a16.12,16.12,0,0,0,.92-1.41A5.63,5.63,0,0,1,71.07,129.37Z"/><path class="cls-38" d="M80,120.21a7,7,0,0,1-6-1.93c-1.41-1.47-2.71-1.29-3.37-1s-1.93,1.64-3.06,1.44-2-1.63-4.16-1.49-9.81,3.93-13,4-6.4-2.4-6.4-2.4c5.93,5.85,14,1.75,21.07,3.47l.21.31a7.68,7.68,0,0,0,1.76.52,6.45,6.45,0,0,0,2.9-.64l.54,0c3.13-1.36,5.51.07,8.29-.57,2.13-.51,5.94-2.44,6.66-4.34C85.47,117.68,82.54,119.94,80,120.21Z"/><path class="cls-39" d="M65.19,122.32c-3.41-.93-7.06-.45-10.54-.27a19.46,19.46,0,0,1-5.44-.36,11.62,11.62,0,0,1-5.15-2.79s0,0,0,0c5.5,5.69,14.11,2.1,21.11,3.54C65.25,122.48,65.3,122.35,65.19,122.32Zm6.64-.75c-1.89.8-4.38,2.22-6.47,1.07-.08,0-.15.06-.08.11a5,5,0,0,0,1.42.43c.13,0,.23.18.38.19a5.42,5.42,0,0,0,1.14,0,8.43,8.43,0,0,0,3.66-1.69C71.93,121.61,71.88,121.55,71.83,121.57Zm13.58-3.91c-1,2.11-4,3.48-6.32,4.11a14.8,14.8,0,0,1-4.41.11,9.34,9.34,0,0,0-4.17.7s0,0,0,0a10.89,10.89,0,0,1,5.35-.29,8.72,8.72,0,0,0,3.87-.41,15.55,15.55,0,0,0,3.48-1.75,5.5,5.5,0,0,0,2.31-2.47C85.55,117.62,85.44,117.6,85.41,117.66Z"/><path class="cls-40" d="M55.62,61.84V62a20,20,0,0,0-.5,2.68,12.86,12.86,0,0,0-1.83-4.1,11,11,0,0,1,.4,2.73A20.55,20.55,0,0,0,50.54,59c-1.68-1.4-5.47,1.57-9.59,1.86s-13.41-.29-13.41-.29-3.09,1.65-4.6,7.15c0,0,3.23.35,5.39.65a26.79,26.79,0,0,0,12-2.21c3.75-1.85,9.81-1.84,12.12,0l4.19,3.5S56.82,64.33,55.62,61.84Z"/><path class="cls-41" d="M74.2,62.55v.11a25.63,25.63,0,0,1,.19,2.7,15.19,15.19,0,0,1,1.64-4,14.11,14.11,0,0,0-.48,2.69A20.15,20.15,0,0,1,78.17,60c1.34-1.29,4,1.93,7,2.49a84.25,84.25,0,0,0,10,.6s2.19,1.86,2.95,7.45c0,0-2.43.13-4.06.29a15.91,15.91,0,0,1-8.77-3c-2.66-2.1-7.17-2.49-9-.78l-3.35,3.2S73.13,65,74.2,62.55Z"/><path class="cls-42" d="M28.4,79.87s2.3,3.5,9.49,4.28a19.62,19.62,0,0,0,11-2.42Z"/><path class="cls-43" d="M30.3,75.44c2-2.2,5.08-3,7.92-3.22a13.45,13.45,0,0,1,4.29.32,9.45,9.45,0,0,1,4.34,2.77s0,0,0,0a8.75,8.75,0,0,0-3.93-2.82,12.94,12.94,0,0,0-4.7-.63,10.87,10.87,0,0,0-7.94,3.61Z"/><path d="M29.15,80.17,28,79.91s3.56-5.42,9.55-6.42,9.74,2.6,11.31,6.88l-7.37.27Z"/><path class="cls-44" d="M29,80.06c3.52-4.31,9.24-6.87,14.68-4.77,2.56,1,4,3.26,5.42,5.43l1.69,1.06L48.55,82a29.15,29.15,0,0,1-10.45,1.6A14.31,14.31,0,0,1,29,80.06Z"/><path d="M29.06,80.07A15.81,15.81,0,0,1,39.5,74.7a9,9,0,0,1,5.93,1.58C47,77.45,48,79.14,49.12,80.74c0,0,.06,0,0,0a16,16,0,0,0-3.69-4.48,10.33,10.33,0,0,0-6-1.83c-4.17-.09-8,2.35-10.48,5.66,0,0,0,0,0,0Z"/><path class="cls-45" d="M43.41,79.15A4.81,4.81,0,1,1,38.8,74,4.87,4.87,0,0,1,43.41,79.15Z"/><path class="cls-46" d="M42.85,79.12a4.25,4.25,0,1,1-4.07-4.52A4.3,4.3,0,0,1,42.85,79.12Z"/><path d="M41.11,79.06a2.51,2.51,0,1,1-2.4-2.67A2.53,2.53,0,0,1,41.11,79.06Z"/><path class="cls-47" d="M40.38,79a1.77,1.77,0,1,1-1.7-1.89A1.8,1.8,0,0,1,40.38,79Z"/><path class="cls-44" d="M39.72,76.87a1,1,0,1,1-1-1.1A1,1,0,0,1,39.72,76.87Z"/><path class="cls-44" d="M39,81.5a.5.5,0,1,1-1,0,.5.5,0,0,1,.51-.49A.51.51,0,0,1,39,81.5Z"/><path class="cls-42" d="M95.53,81.76s-2.31,3.32-8.81,3.58a16.38,16.38,0,0,1-9.65-3.21Z"/><path class="cls-48" d="M94.15,77.2a10,10,0,0,0-6.87-3.78,11.12,11.12,0,0,0-3.86,0,8.38,8.38,0,0,0-4.09,2.45s0,0,0,0A7.73,7.73,0,0,1,83,73.32,10.23,10.23,0,0,1,87.3,73a9.47,9.47,0,0,1,6.85,4.17Z"/><path d="M94.84,82l1.08-.18s-2.8-5.67-8.09-7.09-8.92,1.88-10.64,6l6.58.8Z"/><path class="cls-44" d="M94.94,81.9c-2.84-4.55-7.78-7.52-12.81-5.82-2.36.79-3.8,3-5.24,5l-1.6.94,2,.41a24.1,24.1,0,0,0,9.25,2.35A12.16,12.16,0,0,0,94.94,81.9Z"/><path d="M94.93,81.91c-2.24-3.16-5.39-5.58-9-6.12a7.56,7.56,0,0,0-5.43,1.15c-1.52,1-2.48,2.68-3.63,4.18,0,0-.05,0,0,0a15.59,15.59,0,0,1,3.64-4.2A8.59,8.59,0,0,1,86,75.49c3.75.21,7,2.92,9,6.4,0,0,0,0,0,0Z"/><path class="cls-49" d="M80.19,79.87a5,5,0,1,0,5.19-4.73A5,5,0,0,0,80.19,79.87Z"/><path class="cls-50" d="M80.77,79.9a4.42,4.42,0,1,0,4.59-4.19A4.4,4.4,0,0,0,80.77,79.9Z"/><path d="M82.58,80a2.61,2.61,0,1,0,2.71-2.48A2.6,2.6,0,0,0,82.58,80Z"/><path class="cls-51" d="M83.35,80a1.84,1.84,0,1,0,1.91-1.74A1.82,1.82,0,0,0,83.35,80Z"/><path class="cls-44" d="M84.2,77.89a1.07,1.07,0,0,0,2.14.08,1.07,1.07,0,0,0-2.14-.08Z"/><path class="cls-44" d="M84.58,82.56a.52.52,0,1,0,.53-.49A.51.51,0,0,0,84.58,82.56Z"/></g></g></svg>