<svg xmlns="http://www.w3.org/2000/svg" xmlns:xlink="http://www.w3.org/1999/xlink" viewBox="0 0 125.47 178.39"><defs><style>.cls-1{fill:url(#linear-gradient);}.cls-2{fill:#f09e81;}.cls-3{fill:url(#linear-gradient-2);}.cls-4{fill:url(#linear-gradient-3);}.cls-5{fill:url(#linear-gradient-4);}.cls-6{fill:url(#linear-gradient-5);}.cls-7{fill:url(#radial-gradient);}.cls-8{fill:url(#radial-gradient-2);}.cls-9{fill:url(#radial-gradient-3);}.cls-10{fill:url(#linear-gradient-6);}.cls-11{fill:url(#linear-gradient-7);}.cls-12{fill:url(#linear-gradient-8);}.cls-13{fill:url(#linear-gradient-9);}.cls-14{fill:url(#radial-gradient-4);}.cls-15{fill:url(#linear-gradient-10);}.cls-16{fill:url(#linear-gradient-11);}.cls-17{fill:url(#linear-gradient-12);}.cls-18{fill:url(#linear-gradient-13);}.cls-19{fill:url(#linear-gradient-14);}.cls-20{fill:url(#linear-gradient-15);}.cls-21{fill:url(#linear-gradient-16);}.cls-22{fill:url(#linear-gradient-17);}.cls-23{fill:url(#linear-gradient-18);}.cls-24{fill:url(#linear-gradient-19);}.cls-25{fill:url(#linear-gradient-20);}.cls-26{fill:url(#linear-gradient-21);}.cls-27{fill:#ee715c;}.cls-28{fill:url(#radial-gradient-5);}.cls-29{fill:#d25c50;}.cls-30{fill:#924027;}.cls-31{fill:url(#linear-gradient-22);}.cls-32{fill:url(#linear-gradient-23);}.cls-33{fill:url(#linear-gradient-24);}.cls-34{fill:#fff;}.cls-35{fill:url(#linear-gradient-25);}.cls-36{fill:url(#linear-gradient-26);}.cls-37{fill:url(#linear-gradient-27);}.cls-38{fill:#b36853;}.cls-39{fill:url(#linear-gradient-28);}.cls-40{fill:url(#linear-gradient-29);}.cls-41{fill:url(#linear-gradient-30);}.cls-42{fill:url(#linear-gradient-31);}.cls-43{fill:url(#linear-gradient-32);}.cls-44{fill:url(#linear-gradient-33);}.cls-45{fill:url(#linear-gradient-34);}.cls-46{fill:url(#linear-gradient-35);}.cls-47{fill:url(#linear-gradient-36);}.cls-48{fill:url(#linear-gradient-37);}.cls-49{fill:url(#linear-gradient-38);}.cls-50{fill:url(#linear-gradient-39);}.cls-51{fill:url(#linear-gradient-40);}.cls-52{fill:url(#linear-gradient-41);}.cls-53{fill:url(#linear-gradient-42);}.cls-54{fill:url(#linear-gradient-43);}</style><linearGradient id="linear-gradient" x1="66.66" y1="164.83" x2="66.66" y2="117.3" gradientUnits="userSpaceOnUse"><stop offset="0" stop-color="#f09e81"/><stop offset="1" stop-color="#cf6f54"/></linearGradient><linearGradient id="linear-gradient-2" x1="113.34" y1="83.97" x2="113.34" y2="87.14" gradientUnits="userSpaceOnUse"><stop offset="0" stop-color="#7e3119"/><stop offset="1" stop-color="#9e4a2f"/></linearGradient><linearGradient id="linear-gradient-3" x1="104.99" y1="13.68" x2="104.99" y2="64.04" gradientUnits="userSpaceOnUse"><stop offset="0" stop-color="#270b04"/><stop offset="1"/></linearGradient><linearGradient id="linear-gradient-4" x1="112.23" y1="10.92" x2="112.23" y2="77.89" gradientUnits="userSpaceOnUse"><stop offset="0" stop-color="#581f0f"/><stop offset="1" stop-color="#120603"/></linearGradient><linearGradient id="linear-gradient-5" x1="113.56" y1="13.44" x2="113.56" y2="64.09" xlink:href="#linear-gradient-3"/><radialGradient id="radial-gradient" cx="-2030.12" cy="1315.32" r="104.64" gradientTransform="matrix(0.16, -0.04, 0.07, 0.25, 282.99, -312.99)" gradientUnits="userSpaceOnUse"><stop offset="0" stop-color="#ffc2a6"/><stop offset="1" stop-color="#f09e81"/></radialGradient><radialGradient id="radial-gradient-2" cx="123.14" cy="1754.73" r="104.64" gradientTransform="matrix(0.16, 0.04, -0.07, 0.25, 204.1, -339.75)" xlink:href="#radial-gradient"/><radialGradient id="radial-gradient-3" cx="-554.75" cy="2022.09" r="49.23" gradientTransform="translate(208.43 -345.95) scale(0.23)" gradientUnits="userSpaceOnUse"><stop offset="0" stop-color="#ffae97"/><stop offset="1" stop-color="#f09e81"/></radialGradient><linearGradient id="linear-gradient-6" x1="73.87" y1="62.56" x2="73.87" y2="30.06" gradientUnits="userSpaceOnUse"><stop offset="0" stop-color="#f09e81"/><stop offset="1" stop-color="#ffc2a6"/></linearGradient><linearGradient id="linear-gradient-7" x1="67.34" y1="75.12" x2="67.34" y2="19.65" xlink:href="#linear-gradient"/><linearGradient id="linear-gradient-8" x1="51.97" y1="90.56" x2="67.64" y2="80.73" xlink:href="#linear-gradient"/><linearGradient id="linear-gradient-9" x1="703.37" y1="90.33" x2="719.04" y2="80.49" gradientTransform="matrix(-0.7, 0, 0, 1, 588.53, 0)" xlink:href="#linear-gradient"/><radialGradient id="radial-gradient-4" cx="-563.35" cy="2091.39" r="44.06" gradientTransform="translate(208.43 -345.95) scale(0.23)" gradientUnits="userSpaceOnUse"><stop offset="0" stop-color="#cf6f54"/><stop offset="1" stop-color="#f09e81"/></radialGradient><linearGradient id="linear-gradient-10" x1="50.66" y1="80.55" x2="50.66" y2="68.17" xlink:href="#linear-gradient"/><linearGradient id="linear-gradient-11" x1="96.52" y1="80.64" x2="96.52" y2="68.19" xlink:href="#linear-gradient"/><linearGradient id="linear-gradient-12" x1="80.06" y1="83.94" x2="80.06" y2="121.24" xlink:href="#linear-gradient-6"/><linearGradient id="linear-gradient-13" x1="64.49" y1="90.92" x2="80.27" y2="100.1" xlink:href="#linear-gradient"/><linearGradient id="linear-gradient-14" x1="91.01" y1="93.05" x2="79.9" y2="96.04" xlink:href="#linear-gradient"/><linearGradient id="linear-gradient-15" x1="71.38" y1="104.9" x2="68.91" y2="102.43" xlink:href="#linear-gradient-6"/><linearGradient id="linear-gradient-16" x1="88.94" y1="104.29" x2="90.68" y2="103.13" xlink:href="#linear-gradient-6"/><linearGradient id="linear-gradient-17" x1="79.16" y1="117.46" x2="79.16" y2="106.85" xlink:href="#linear-gradient"/><linearGradient id="linear-gradient-18" x1="46.75" y1="145.81" x2="107.61" y2="45.23" xlink:href="#linear-gradient"/><linearGradient id="linear-gradient-19" x1="47.81" y1="146.45" x2="108.67" y2="45.88" gradientUnits="userSpaceOnUse"><stop offset="0" stop-color="#e79172"/><stop offset="1" stop-color="#c66247"/></linearGradient><linearGradient id="linear-gradient-20" x1="79.11" y1="101.96" x2="79.11" y2="89.02" gradientUnits="userSpaceOnUse"><stop offset="0" stop-color="#b25d42"/><stop offset="1" stop-color="#f09e81"/></linearGradient><linearGradient id="linear-gradient-21" x1="70.38" y1="76.06" x2="70.38" y2="89.1" xlink:href="#linear-gradient-2"/><radialGradient id="radial-gradient-5" cx="-472.72" cy="6904.31" r="40.18" gradientTransform="matrix(0.24, 0, 0, 0.08, 180.05, -424.76)" gradientUnits="userSpaceOnUse"><stop offset="0" stop-color="#fd9f92"/><stop offset="1" stop-color="#ee715c"/></radialGradient><linearGradient id="linear-gradient-22" x1="51.68" y1="66.78" x2="51.19" y2="69.71" xlink:href="#linear-gradient-3"/><linearGradient id="linear-gradient-23" x1="866.55" y1="66.75" x2="866.05" y2="69.73" gradientTransform="matrix(-0.76, 0, 0, 1, 750.49, 0)" xlink:href="#linear-gradient-3"/><linearGradient id="linear-gradient-24" x1="51.08" y1="62.6" x2="51.08" y2="66.92" gradientUnits="userSpaceOnUse"><stop offset="0" stop-color="#672a1a"/><stop offset="1" stop-color="#4b170b"/></linearGradient><linearGradient id="linear-gradient-25" x1="52" y1="84.49" x2="52" y2="76.13" gradientUnits="userSpaceOnUse"><stop offset="0" stop-color="#31401c"/><stop offset="1"/></linearGradient><linearGradient id="linear-gradient-26" x1="52" y1="84.52" x2="52" y2="76.13" gradientUnits="userSpaceOnUse"><stop offset="0.01" stop-color="#475c29"/><stop offset="1" stop-color="#353511"/></linearGradient><linearGradient id="linear-gradient-27" x1="52" y1="80.69" x2="52" y2="82.73" gradientUnits="userSpaceOnUse"><stop offset="0"/><stop offset="1" stop-color="#77726d"/></linearGradient><linearGradient id="linear-gradient-28" x1="798.2" y1="62.6" x2="798.2" y2="66.92" gradientTransform="matrix(-1, 0, 0, 1, 895.34, 0)" xlink:href="#linear-gradient-24"/><linearGradient id="linear-gradient-29" x1="95.1" y1="84.51" x2="95.1" y2="76.13" xlink:href="#linear-gradient-25"/><linearGradient id="linear-gradient-30" x1="95.1" y1="84.52" x2="95.1" y2="76.13" xlink:href="#linear-gradient-26"/><linearGradient id="linear-gradient-31" x1="95.1" y1="80.69" x2="95.1" y2="82.73" xlink:href="#linear-gradient-27"/><linearGradient id="linear-gradient-32" x1="77.93" y1="35.73" x2="79.56" y2="23.85" xlink:href="#linear-gradient-3"/><linearGradient id="linear-gradient-33" x1="80.1" y1="36.03" x2="81.72" y2="24.16" gradientUnits="userSpaceOnUse"><stop offset="0" stop-color="#5b2604"/><stop offset="1" stop-color="#0e0601"/></linearGradient><linearGradient id="linear-gradient-34" x1="78.09" y1="36.79" x2="78.52" y2="33.63" xlink:href="#linear-gradient-3"/><linearGradient id="linear-gradient-35" x1="55.63" y1="-3.84" x2="55.63" y2="68.9" xlink:href="#linear-gradient-3"/><linearGradient id="linear-gradient-36" x1="56.73" y1="-5.68" x2="56.73" y2="78.19" gradientUnits="userSpaceOnUse"><stop offset="0" stop-color="#42170b"/><stop offset="1" stop-color="#120603"/></linearGradient><linearGradient id="linear-gradient-37" x1="56.28" y1="-4.84" x2="56.28" y2="73.52" gradientUnits="userSpaceOnUse"><stop offset="0" stop-color="#682b0b"/><stop offset="1" stop-color="#230d05"/></linearGradient><linearGradient id="linear-gradient-38" x1="55.63" y1="-10.67" x2="55.63" y2="118.68" xlink:href="#linear-gradient-4"/><linearGradient id="linear-gradient-39" x1="55.61" y1="-3.93" x2="55.61" y2="68.91" xlink:href="#linear-gradient-3"/><linearGradient id="linear-gradient-40" x1="19.59" y1="96.03" x2="26.1" y2="89.35" gradientUnits="userSpaceOnUse"><stop offset="0" stop-color="#e28b6e"/><stop offset="1" stop-color="#c15d41"/></linearGradient><linearGradient id="linear-gradient-41" x1="22.28" y1="92.38" x2="26.84" y2="88.31" gradientUnits="userSpaceOnUse"><stop offset="0" stop-color="#c16142"/><stop offset="1" stop-color="#a74227"/></linearGradient><linearGradient id="linear-gradient-42" x1="22.9" y1="87.22" x2="22.9" y2="90.51" xlink:href="#linear-gradient-2"/><linearGradient id="linear-gradient-43" x1="22.89" y1="30.49" x2="22.89" y2="50.54" gradientUnits="userSpaceOnUse"><stop offset="0" stop-color="#bd6143"/><stop offset="1" stop-color="#a24328"/></linearGradient></defs><g id="Layer_2" data-name="Layer 2"><g id="_11_Face" data-name="11_Face"><path d="M73.56,178.39c-45,0-62.6-11.09-62.77-11.2a.48.48,0,0,1-.22-.47.51.51,0,0,1,.31-.41c.21-.07,20.94-8.08,23.3-14.14s1.73-38.2,1.72-38.52a.51.51,0,0,1,.15-.37.55.55,0,0,1,.34-.13h0l63.69,4.22a.48.48,0,0,1,.35.19.46.46,0,0,1,.1.39c0,.24-4.15,24.59-.38,33.5s22,15.15,22.22,15.21a.5.5,0,0,1,.34.43.51.51,0,0,1-.26.47c-.2.11-20.28,10.83-48.93,10.83Z"/><path class="cls-1" d="M11.06,166.77s21.11-8.09,23.57-14.42,1.76-38.71,1.76-38.71l63.7,4.22s-4.23,24.63-.36,33.78,22.53,15.49,22.53,15.49-19.84,10.77-48.7,10.77C28.17,177.9,11.06,166.77,11.06,166.77Z"/><path d="M125.42,94.67a.62.62,0,0,0-.56-.36.59.59,0,0,0-.4.15,8.17,8.17,0,0,1-5.32,1.78,11.87,11.87,0,0,1-6.17-1.8l.06-.24a22.72,22.72,0,0,0,.59-4.7,4.9,4.9,0,0,0-.08-.76,2.49,2.49,0,0,1-.07-.51c0-.25,0-.5,0-.75a.64.64,0,0,0,.33-.32c.39-.84.75-1.71,1.1-2.55.28,0,.55,0,.83,0a8.78,8.78,0,0,0,5.56-1.82A7,7,0,0,0,124,77.75,6.08,6.08,0,0,0,122.23,73a.58.58,0,0,0-1,.56c.56,2,.5,3.54-.17,4.73a4.62,4.62,0,0,1-3.18,2,9.37,9.37,0,0,1-1.23.16c.17-.34.36-.71.6-1.14s.36-.67.29-1.09c0-.1,0-.21,0-.42a9.81,9.81,0,0,0-.34-2.24h.07a.6.6,0,0,0,.47-.23l.13,0h0a.57.57,0,0,0,.5-.87,33.84,33.84,0,0,0-2-3.05,1.94,1.94,0,0,1-.07-1c0-.13,0-.24,0-.35,0-.58.07-1.21.15-2a2.8,2.8,0,0,1,.15-.62,4,4,0,0,0,.19-.69q.09-.58.21-1.17l.09-.46c.19-1,.45-2.11.8-3.43.75-2.76,1.74-5.51,2.7-8.16.58-1.61,1.18-3.28,1.72-4.93,0-.1.07-.2.1-.3a3.47,3.47,0,0,0,.26-2c-.12-.65-.28-1.34-.49-2.18a64,64,0,0,0-2.56-8,52.64,52.64,0,0,0-6.47-11.94,42.16,42.16,0,0,0-4.86-5.47,31.89,31.89,0,0,0-3.23-7.22,22.5,22.5,0,0,0-14-10.34A40.33,40.33,0,0,0,69,2.08c-1.16.39-2.31.85-3.42,1.29s-2,.8-3,1.15c-.4.14-.78.26-1.15.35l-.19.06a5.43,5.43,0,0,1-.61.16C60,4.81,59.5,4.58,59,4.36a35.73,35.73,0,0,0-9.67-2.55,26,26,0,0,0-2.92-.17A24.69,24.69,0,0,0,43,1.88a10.66,10.66,0,0,0-3.25.84A36.36,36.36,0,0,0,25.11,15.66a43.65,43.65,0,0,0-2.41,4.59,24.76,24.76,0,0,1-4.36,7.06,14.12,14.12,0,0,1-2.95,2.23,15.33,15.33,0,0,1-1.46.74c-.41.19-.83.39-1.23.61A6.9,6.9,0,0,0,9,35.53a.61.61,0,0,0,.14.52.53.53,0,0,0,.2.16,6.21,6.21,0,0,0-.57,3.18A.66.66,0,0,0,9.2,40a9.77,9.77,0,0,0-.47,4,.64.64,0,0,0,.64.58.6.6,0,0,0,.48-.23l-.27.44a7.35,7.35,0,0,0-1.11,2.53,6.51,6.51,0,0,0,.06,2.64.62.62,0,0,0,.56.48,6.07,6.07,0,0,0,.1,2,1.82,1.82,0,0,0,.11.33s0,.12,0,.14l-.13.34L9,53.74a5.07,5.07,0,0,0-.18,2.46l0,.28A23.34,23.34,0,0,0,10,62a18.26,18.26,0,0,1,.76,5.48,13.4,13.4,0,0,1-.17,2.45,5.75,5.75,0,0,1-.33,1.1c-.09.23-.18.47-.26.73a12.75,12.75,0,0,0-.25,4.59,1.36,1.36,0,0,0,1,1.23l.3.15.32.16c2.43,1.27,3,1.82,3.19,2a8.17,8.17,0,0,1-5,3.38,5.2,5.2,0,0,1-1.17.14,6.2,6.2,0,0,1-4.7-2.5,9,9,0,0,1-1.53-8A.66.66,0,0,0,2,72.4a.63.63,0,0,0-.5-.25A.61.61,0,0,0,1,72.5a11.43,11.43,0,0,0-1,4.55A9.09,9.09,0,0,0,.78,81a8.61,8.61,0,0,0,1.25,2,8.87,8.87,0,0,0,1,1,3.32,3.32,0,0,0,.55.38,2.75,2.75,0,0,1,.51.35,11.75,11.75,0,0,0,3.34,3.28,11.05,11.05,0,0,0,6.23,1.87A12.51,12.51,0,0,0,16,89.54c0,.13.05.25.08.37a3,3,0,0,1,.07.32C9.66,92.9,5.77,99.65,7,106.11a.56.56,0,0,0,0,.12,16.84,16.84,0,0,0-.25,2,12.19,12.19,0,0,0,.83,5.49,9.18,9.18,0,0,0,1.26,2.13l0,0c.4.52,1.07,1.39,1.93,1.39a.62.62,0,0,0,.52-1,10.44,10.44,0,0,1-.08-11A15.86,15.86,0,0,1,18.65,99c.19.48.38.91.56,1.32s.36.69.54,1a7.46,7.46,0,0,1,.66,1.33,5.72,5.72,0,0,0,.57,1.23,11.82,11.82,0,0,0-3.26,3.38,7.31,7.31,0,0,0-.82,1.83,1.24,1.24,0,0,0,.33,1.36,2.3,2.3,0,0,1,.22.27,6.69,6.69,0,0,1,1.13,3.06,8.12,8.12,0,0,1-1.95,6.29A6.16,6.16,0,0,1,12,122.27a5.83,5.83,0,0,1-1-.09h-.09a.51.51,0,0,0-.48.32.52.52,0,0,0,.17.63l.86.65a.56.56,0,0,0,.26.11,12.28,12.28,0,0,0,8.79-2.32,9.64,9.64,0,0,0,2.9-3.61v0a23.68,23.68,0,0,0,.1,6.93,5.9,5.9,0,0,0,2.23,3.6,9,9,0,0,0,5.45,1.34h.13a.67.67,0,0,0,.65-.59.65.65,0,0,0-.51-.7,6,6,0,0,1-4.76-5.29,8.8,8.8,0,0,1-.05-1.71,11.68,11.68,0,0,1,3.83-3.69l.43-.31a67.29,67.29,0,0,0,1.34,7,6.68,6.68,0,0,0,1.13,2.55,18.21,18.21,0,0,0,2.49,2.6A70.25,70.25,0,0,0,42.65,135c1.45,1,2.74,1.9,4,2.68a12.76,12.76,0,0,1,1.66,1.35c.32.28.64.57,1,.83.9.74,1.86,1.48,2.84,2.22a59.21,59.21,0,0,0,6.23,4.16l1.11.61c.69.37,1.34.73,2,1.15a31.44,31.44,0,0,0,3.92,2.21,27.19,27.19,0,0,0,11.62,2.58h0a14,14,0,0,0,2.85-.36c.94-.18,1.91-.26,2.85-.35l1-.09a11.52,11.52,0,0,0,7.19-3.1A16.33,16.33,0,0,0,94,144l.24-.53A51.63,51.63,0,0,1,97,138c1-1.61,2.1-3.15,3.19-4.64s2-2.79,3-4.26a15.7,15.7,0,0,0,2-6.87c.2-1.62.37-3.27.53-4.87s.34-3.33.54-5c.17-1.33.38-2.92.73-4.5a10.69,10.69,0,0,1,.43-1.46c3.21,3.11,4.34,6.13,3.35,9a.59.59,0,0,0,.08.56.63.63,0,0,0,.52.27.64.64,0,0,0,.51-.26c2.83-3.81,1.38-8.26-1.07-11.39a10.1,10.1,0,0,1,2.65,3,10.46,10.46,0,0,1,1.18,5.59.69.69,0,0,0,.17.46.67.67,0,0,0,.46.2.66.66,0,0,0,.61-.43c2-5.75-.9-10.94-4.39-14,.06-.18.11-.36.17-.53a12.28,12.28,0,0,0,4.07.68,12.83,12.83,0,0,0,9.55-4.2A.6.6,0,0,0,125.42,94.67ZM10,44.08a7.08,7.08,0,0,1,.56-1.3l-.07.25a7.16,7.16,0,0,1-.5,1.09S10,44.09,10,44.08Z"/><path class="cls-2" d="M116.94,78.42a10.9,10.9,0,0,0-.66-3.91s-1.46-2-2.93-1.3-6.18,6-7,7.81-.81,10.42-.81,10.42,0,5.21.16,5.7,2.93,4.07,2.93,4.07l1.14,1.14c1.3-4.39,2.93-8,3.09-12.86,0-.73,0-1.44-.06-2.14l.39-.47A56.2,56.2,0,0,1,116.94,78.42Z"/><path class="cls-3" d="M117,77.82a10.44,10.44,0,0,0-.72-3.31s0,0,0,0a12.34,12.34,0,0,1,.56,3.31c0,.57-.57,1.33-.83,1.83s-.54,1.07-.79,1.61a50.4,50.4,0,0,0-2.13,5.6c0,.11.14.19.19.08,1-2.07,1.72-4.21,2.7-6.27.26-.54.54-1.08.83-1.61C117.21,78.33,117,78.62,117,77.82ZM112.87,87c-.06-.92-.12-1.84-.14-2.76a0,0,0,0,0-.06,0c0,.82,0,1.64,0,2.45a7.41,7.41,0,0,1,0,2.7,3.82,3.82,0,0,0-.07,1c0,.39-.07.78-.11,1.16-.1.81-.25,1.61-.42,2.4-.31,1.4-.73,2.77-1.16,4.14a31.52,31.52,0,0,0-1.28,4.22c0,.17.22.31.3.13.56-1.27.91-2.66,1.35-4a44.77,44.77,0,0,0,1.25-4.39,22.18,22.18,0,0,0,.58-4.59c0-.38-.14-.84-.15-1.24S112.9,87.44,112.87,87Z"/><path d="M109,91l-.87,5a12,12,0,0,0,16.72-1.08C120.3,98.83,111.4,96.22,109,91ZM108.58,98l-3.48,5.64c3.48,2.39,8,7.17,6.3,11.94,2.82-3.69,1.3-8-1.52-11.29l-.22-1.3a10.61,10.61,0,0,1,5.65,10.2C117.48,107.08,113.79,101,108.58,98Zm11.72-15.2c3.26-2.17,4.34-6.51,1.52-9.34,2.6,9.12-7.82,8.91-13.46,5.43l.65,3.48C112.48,84.06,116.83,84.93,120.3,82.76Zm-86.65,23c-.49-.08-2.28-1.63-3.5-1.63a51.45,51.45,0,0,0-5.19.3l-.4-1.27c-3,.43-6.51,3.47-7.16,6.51,4.34,4.78.43,14.33-6.52,13l.87.65c5.65.65,12.16-3,11.72-9.56l.65,1.09c0,6.51-2.6,14.55,7.17,14.33-4.3-.86-5.76-4.75-5.19-8.48l0,.66c1.74-3.69,6.73-4.56,8.25-8.46C34.33,112.94,34.14,105.85,33.65,105.77Z"/><path d="M124.8,94.86c-4.67,3.9-13.19,1.41-15.76-3.87,0,0-.07,0-.06,0,2.38,5.16,10.33,7.61,15.17,4.5a12.06,12.06,0,0,1-16,.42c-.08-.07-.19,0-.11.11,4.7,4.46,12.65,3.67,16.83-1.08A.09.09,0,0,0,124.8,94.86Zm-16.22,3.08s0,0,0,0c4.91,3,8.4,8.65,6.84,14.45a10.63,10.63,0,0,0-5.72-9.52.06.06,0,0,0-.06.1,12.47,12.47,0,0,1,4.32,4.28,10.88,10.88,0,0,1,1.25,5.87.11.11,0,0,0,.21,0C117.54,107.11,113.87,100.94,108.58,97.94Zm1.27,6.34c2.53,3.06,4,7.12,1.82,10.67,1.1-4.62-2.93-9-6.53-11.41-.08-.05-.14.07-.07.12,3.57,2.64,7.92,7,6.23,11.86,0,.11.12.16.19.07,2.77-3.73,1.23-8.16-1.58-11.36A0,0,0,1,0,109.85,104.28Zm5.94-23.12c2.1.07,4.49-.45,5.75-2.29a5.29,5.29,0,0,0,.73-3.3c0-.31-.07-.63-.12-.94a3.84,3.84,0,0,0-.2-1,5.57,5.57,0,0,1,1.37,3.05A6.42,6.42,0,0,1,121.15,82a8.6,8.6,0,0,1-6.62,1.94A16.12,16.12,0,0,1,109,82.32s0,0,0,0c3.64,1.88,8.43,2.8,11.91.08,2.85-2.22,3.54-6.37.93-9,0,0-.09,0-.08,0a6.75,6.75,0,0,1-.22,5.13A5,5,0,0,1,118,80.8c-3.23.67-6.83-.4-9.62-2a.08.08,0,0,0-.08.14A15,15,0,0,0,115.79,81.16ZM19.21,115.75a7.8,7.8,0,0,0-1.53-5.85c-.45-.56.38-1.74.69-2.25a9.22,9.22,0,0,1,1.71-2,9.85,9.85,0,0,1,4.5-2.37.09.09,0,0,0,0-.17c-2.62.22-5,2.32-6.39,4.46a6.59,6.59,0,0,0-.76,1.69c-.19.61.11.67.47,1.17a7.27,7.27,0,0,1,1.22,3.3c.6,4.76-3.13,9.84-8.22,9h0C15.25,123.51,18.72,119.91,19.21,115.75Zm4.21-2a10.39,10.39,0,0,1-.84,4.26,9,9,0,0,1-2.8,3.21,12,12,0,0,1-8,2.08s0,0,0,0a11.71,11.71,0,0,0,8.41-2.22c2.18-1.64,3.8-4.57,3.36-7.36C23.51,113.74,23.43,113.75,23.42,113.8Zm10.85-.9c-1.63,3.8-6.35,4.72-8.15,8.34a11,11,0,0,1,2.38-5.67,0,0,0,0,0-.07-.06,10,10,0,0,0-2.47,8,6.62,6.62,0,0,0,4.44,5.58,7.8,7.8,0,0,1-4.27-1.19,5.48,5.48,0,0,1-2-3.57c-.59-3.09.1-6.33.06-9.45,0,0,0,0,0,0-.06,3.28-.8,6.68-.11,9.93a5.46,5.46,0,0,0,2,3.29,8.71,8.71,0,0,0,5.27,1.23c.13,0,.17-.21,0-.24a6.46,6.46,0,0,1-5.18-5.75,8.9,8.9,0,0,1,0-1.93h0c1.9-3.65,6.76-4.55,8.29-8.46C34.42,112.88,34.3,112.83,34.27,112.9Z"/><path class="cls-4" d="M117.26,74.94c-3.26-2.38-6.08,6.3-7,8.47h0q0,6.84-.65,13.68L96,88,88,36.3l4.34-18.45,12.81-1.09c1.52,1.3,4.56,4.34,4.56,4.34C119.43,31.52,122,46.94,122,46.94c-2.61,8.47-6.3,15.41-6.3,24.53a27.93,27.93,0,0,1,2.17,3.26Z"/><path class="cls-5" d="M107.49,21.75C117.91,30,120.08,48,120.08,48c-5,10.86-4.56,23.45-4.56,23.45l.22-.08c0-9.08,3.7-16,6.3-24.45,0,0-2.61-15.42-12.38-25.84,0,0-3-3-4.56-4.34l-2.69.23A32.19,32.19,0,0,0,107.49,21.75Z"/><path class="cls-6" d="M111.42,80.27c-.32.78-.62,1.56-.92,2.35-.09.26-.19.51-.29.76A7.94,7.94,0,0,0,110,86c-.07,3.72-.32,7.42-.64,11.13,0,.33.49.33.52,0,.32-3.17.49-6.36.59-9.54,0-.74,0-1.49,0-2.23,0-.42,0-.85,0-1.27a3.51,3.51,0,0,1-.06-.77c.25-.63.48-1.27.73-1.9.72-1.84,3.05-8.38,6-6.36.09.07.18-.09.09-.15C114.43,72.83,112.2,78.43,111.42,80.27ZM116,68c0-.49.27-.87.35-1.34s.2-1.1.3-1.64c.22-1.17.51-2.33.81-3.48,1.21-4.45,3-8.73,4.43-13.11a3.72,3.72,0,0,0,.35-2c-.15-.72-.31-1.44-.49-2.15a62.88,62.88,0,0,0-2.55-8,51.59,51.59,0,0,0-6.4-11.82,45.68,45.68,0,0,0-7.51-7.84c-.23-.19-.56.12-.33.32a56.37,56.37,0,0,1,6.19,6.27,47.62,47.62,0,0,1,6.28,10.33,56.44,56.44,0,0,1,4.34,13.42c0,.13,0,0-.07.2-.2.65-.41,1.28-.62,1.92-.42,1.25-.86,2.49-1.31,3.73-.89,2.49-1.79,5-2.54,7.53-.36,1.22-.68,2.46-.94,3.71-.13.63-.25,1.27-.34,1.91,0,.21-.05.41-.07.62s.1.6.07.84a32.57,32.57,0,0,0-.24,4.07c0,.23.75,1,.93,1.28.44.65.84,1.33,1.25,2,0,0,.12,0,.08,0a29.8,29.8,0,0,0-2-3c-.33-.44-.17-1.21-.15-1.71C115.86,69.31,115.91,68.64,116,68Z"/><path class="cls-2" d="M110,92.45c-.76-4.39-2-8.36-1.37-12.89,1-6.68,2-9.45-1.63-18.08a32,32,0,0,1-1.3-7.32c-.16-3.75-3.42-14.17-7.33-16.94L92.3,30s-13.47-.21-15-.65-11.07-.65-11.93-.65-16.29,4.78-16.94,5.21L34.55,43.25,25.21,61.48,27,83.19l3.69,23.23c-.49,3.91,1.3,15.47,2.44,19S46.92,137.2,46.92,137.2c4.23,3.58,9,7.32,14,9.77a28,28,0,0,0,11.73,4.88c6.35.82,5.37,0,9.44-.32s8.47-.65,11.72-8.63,9-12.87,10.1-16.78,1.46-17.25,3.26-20.84C109.1,101.41,110.76,96.83,110,92.45Z"/><path class="cls-7" d="M43.3,127.06c9.5-2.54,14.1-16.17,10.28-30.44S39,72.83,29.48,75.37a12.34,12.34,0,0,0-3.06,1.29L27,83.19l3.69,23.23c-.49,3.91,1.3,15.47,2.44,19l0,.08A13.75,13.75,0,0,0,43.3,127.06Z"/><path class="cls-8" d="M110,92.45c-.76-4.39-2-8.36-1.37-12.89.33-2.26.66-4.07.82-5.82C102.2,76,95.4,84.07,92.56,94.83c-3.77,14.28.88,27.9,10.38,30.41.38.09.75.17,1.13.23,1-4.56,1.39-16.78,3.1-20.19C109.1,101.41,110.76,96.83,110,92.45Z"/><path class="cls-9" d="M81.22,106.42a11.29,11.29,0,1,0,11.29,11.29A11.3,11.3,0,0,0,81.22,106.42Z"/><path class="cls-10" d="M44.1,64.31s1.08-10.64,3-13a24,24,0,0,0,17.8-13.89,8.77,8.77,0,0,0,5.64,1.73c3.26-.21,9.56-.21,11.08.44s5,2.6,5,2.6L96,50l5.64.43s3.47,10.64,1.3,14.11-18,8.25-18,8.25l-16.71.66L48.66,68.87Z"/><path class="cls-11" d="M105.7,54.16c-.16-3.75-3.42-14.17-7.33-16.94L92.3,30s-13.47-.21-15-.65-11.07-.65-11.93-.65-16.29,4.78-16.94,5.21L34.55,43.25,25.21,61.48l1,13L30,78.63S30.64,68,37.37,62.79a29,29,0,0,0,9.12-12.6S58.86,48.89,64.07,37l3.26-.87s.65,1.52,3.9,1.52,10.64.65,10.64.65,7.6,3.26,6.73,4.78-2.82,8-13,7.16l4.77,1.31s15.22,2.38,20-8a12.32,12.32,0,0,1,1.14,2l-3.16,4.3a24,24,0,0,0,4.06-2c2.1,6.65,1.59,15.42,1.59,15.42l1.52,3.47,3.91,3.7,0,0A29.55,29.55,0,0,0,107,61.48,32,32,0,0,1,105.7,54.16Z"/><path class="cls-12" d="M50.68,89.07s7.49-1,10.2-3.8l2.18.44S59.58,89.51,50.68,89.07Z"/><path class="cls-13" d="M95.88,88.84s-5.26-1-7.16-3.8l-1.53.43S89.63,89.27,95.88,88.84Z"/><path class="cls-14" d="M68.41,137.25l4.34-3.69s8.26,1.09,14.55-.87l2.61,3.48A94.47,94.47,0,0,0,68.41,137.25Z"/><path class="cls-15" d="M41,80.7s-10.31-4.45-7.6-10.64c0,0,3.58-3.15,7.38-2.82S68.3,71.36,68.3,71.36,69.82,79.72,62.23,84L51.48,82.54Z"/><path class="cls-16" d="M86.54,84.06S82,78.85,85.13,73.21s9.66-4,9.66-4l7.92-2h3.7s2.6,2,2.6,3,.33,7.81-4.12,10.09l-6.73,2.28s-5.65.54-6,.65-3.91.11-3.91.11Z"/><path class="cls-17" d="M75.42,101.7s2.6,6.51,7.16,6,4.72-4.56,3.26-7.33a20.85,20.85,0,0,1-2.12-10.1c.16-3.42.16-13,.16-13l-10.42.65S74.76,89,74.6,92.58A53.29,53.29,0,0,0,75.42,101.7Z"/><path class="cls-2" d="M74.6,98.45S80.14,96,85.35,98l-.49-1.47a16,16,0,0,0-11.07,1.3Z"/><path class="cls-18" d="M67.93,103.66s2.6-3.59,4.07-5.87S71.67,84,71.18,82.16,59.67,90.19,59,92.91c-1.79,7,6.35,10.09,8.3,12.37Z"/><path class="cls-19" d="M90.23,102.19A26.08,26.08,0,0,1,85.35,98a52.73,52.73,0,0,1-1.06-9.45c.16-3.34.32-5.45.32-5.45s3.67,7.9,5.62,8.87,4.07,4.56,3.58,6.52a40.94,40.94,0,0,1-2.93,6.35Z"/><path class="cls-20" d="M67.86,106.08c.59.41,1.41-.36,1.86-.7.94-.71,3.06-1.6,3.17-2.86.15-1.8-1.67-1.77-2.77-1C69.33,102.08,66.32,105,67.86,106.08Z"/><path class="cls-21" d="M90.56,106.51c-.15-.82-3.94-4.53-2.36-5,2.08-.58,2.82,3,2.68,4.31Z"/><path class="cls-22" d="M67.76,107.89a6.41,6.41,0,0,1,4.72-2.12c2.77.17,4.89,2,7.17,2.77s6.19.49,7.81-2.28c0,0,2.94-.32,3.1,1.47,0,0-.82,2.28-2.28,2.44a7.59,7.59,0,0,1-7.17,5.7,14.23,14.23,0,0,1-12.37-6.35Z"/><path class="cls-23" d="M49.53,135.08c-1.52-2.17-3.26-7.16-5-11.5s-8.46-15.64-8.46-15.64L29.55,99h-.08l1.17,7.37c-.49,3.91,1.3,15.47,2.44,19S46.92,137.2,46.92,137.2c4.23,3.58,9,7.32,14,9.77a28.69,28.69,0,0,0,4,2.42C61,146.38,51,137.14,49.53,135.08ZM108.14,103c-1.73,1.09-6.73,12.38-7.16,15.41s-.87,8.69-2.17,11.73c-1,2.26-2.91,7.66-3.83,10.27,3.3-6.51,7.92-10.76,8.93-14.24,1.14-3.9,1.46-17.25,3.26-20.84.38-.77.76-1.57,1.1-2.39Z"/><path class="cls-24" d="M49.53,135.08c-1.52-2.17-3.26-7.16-5-11.5s-8.46-15.64-8.46-15.64l-3.75-5.12a21.68,21.68,0,0,0-2.12.86l.44,2.74a17,17,0,0,0-.07,2.48,6.45,6.45,0,0,1,4.63,1.21c3.25,2.39,10.42,20.2,12.37,24.32,1.47,3.1,7.6,8.54,10.56,11q1.38.81,2.79,1.5a28.69,28.69,0,0,0,4,2.42C61,146.38,51,137.14,49.53,135.08ZM108.14,103c-1.73,1.09-6.73,12.38-7.16,15.41s-.87,8.69-2.17,11.73c-1,2.26-2.91,7.66-3.83,10.27a41.86,41.86,0,0,1,2.32-4,92.38,92.38,0,0,0,3.46-10c.82-3.48,1.45-12.74,5.33-17.07a16,16,0,0,1,1.08-4c.38-.77.76-1.57,1.1-2.39Z"/><path d="M76.23,109.14a13.52,13.52,0,0,0-4.89-1.74A3.67,3.67,0,0,0,76.23,109.14Zm10.31-.65-.43,1.08a4.15,4.15,0,0,0,2.71-1.41A2.1,2.1,0,0,0,86.54,108.49Z"/><path class="cls-25" d="M71.68,110.63c-2-.76-3.9-2.13-4.08-4.41-.16-2,.77-3.92,1.67-5.64a0,0,0,0,0-.08,0c-1.07,1.79-2.23,4-2,6.16.27,2.39,2.4,3.45,4.47,4C71.69,110.69,71.71,110.64,71.68,110.63ZM74,107.85c-1.27-.53-3.33-1.17-3.94.5,0,.14.17.2.23.06.55-1.4,3.21-.32,4.08,0a10.58,10.58,0,0,1,3.73,2.27.08.08,0,0,0,.12-.09C77.34,109.3,75.46,108.44,74,107.85Zm15.22.7s0,0,0,0A1.87,1.87,0,0,0,87,108a8.33,8.33,0,0,0,.5-1.85c.68-4.95-3.19-9.23-2.79-14.2,0-.05-.08-.05-.09,0-.59,4.44,2.4,8.25,2.7,12.57.32,4.57-4.47,9.07-9,6.93a0,0,0,0,0-.05.08,5.5,5.5,0,0,0,5.76,0,7.08,7.08,0,0,0,2.71-3,3.1,3.1,0,0,1,1.13-.44A1.61,1.61,0,0,1,89.25,108.55Zm0-8.17s0,0,0,0a8.63,8.63,0,0,1,1.4,5.07c0,1.79-.6,4-2.52,4.65,0,0,0,.09,0,.08C92.27,109.15,91.43,102.94,89.27,100.38Z"/><path class="cls-26" d="M30.62,106.42a36.56,36.56,0,0,0,.47,8.8,79.79,79.79,0,0,0,1.64,9.22,6.39,6.39,0,0,0,1,2.37,18.6,18.6,0,0,0,2.42,2.52A71.66,71.66,0,0,0,43,134.6c1.29.91,2.6,1.81,3.93,2.66a33.2,33.2,0,0,1,2.68,2.22c.92.76,1.86,1.49,2.82,2.21a56.73,56.73,0,0,0,6.18,4.12c1,.61,2.11,1.11,3.11,1.78a31,31,0,0,0,3.86,2.17,26.65,26.65,0,0,0,11.39,2.54,14.28,14.28,0,0,0,2.75-.35c1.29-.25,2.59-.33,3.89-.46a11,11,0,0,0,6.88-3,15.69,15.69,0,0,0,3.1-4.77,57.83,57.83,0,0,1,3-6.1c1.87-3.09,4.24-5.84,6.16-8.9a15.45,15.45,0,0,0,2-6.65c.4-3.28.66-6.58,1.07-9.87.19-1.52.4-3,.73-4.55a19.4,19.4,0,0,1,1.49-3.92,25.74,25.74,0,0,0,2.11-6.7,18.77,18.77,0,0,0-.4-6.72,50.22,50.22,0,0,1-1.15-7.49,34.06,34.06,0,0,1,.65-6.44,23.69,23.69,0,0,0-.09-9c-.21-.93-.49-1.84-.79-2.75-.36-1.1-.88-2.16-1.23-3.27a30.63,30.63,0,0,1-1-4.11c-.28-1.68-.28-3.39-.58-5.07a36.33,36.33,0,0,0-1.15-4.48,38.67,38.67,0,0,0-2.58-6.24,12.51,12.51,0,0,0-3.42-4.37c-.06,0-.11,0-.05.09,2.6,1.9,4,5.47,5.13,8.37a29.59,29.59,0,0,1,2.15,8.82,29.9,29.9,0,0,0,1,6c.4,1.55,1.1,3,1.6,4.53a22.25,22.25,0,0,1,1,9.88c-.22,1.76-.56,3.51-.77,5.27a23.91,23.91,0,0,0,.42,7.06,44.8,44.8,0,0,1,1.21,7.52,20.3,20.3,0,0,1-1.6,7.35c-.6,1.54-1.48,3-1.93,4.57a30.36,30.36,0,0,0-.78,4c-.47,3.25-.74,6.53-1.09,9.79-.27,2.54-.43,5.2-1.69,7.48-1.66,3-4,5.66-5.91,8.55A39.78,39.78,0,0,0,94,142.33,20.69,20.69,0,0,1,90.71,148c-2,2.27-4.68,3.1-7.6,3.38a36.1,36.1,0,0,0-3.6.44,13.79,13.79,0,0,1-3.07.31,27,27,0,0,1-12.17-3.16,29.55,29.55,0,0,1-3-1.86,6.92,6.92,0,0,0-1-.57c-1.13-.58-2.23-1.23-3.32-1.9a68.93,68.93,0,0,1-6.27-4.5c-1.25-1-2.42-2.19-3.75-3.06a72,72,0,0,1-11.61-8.79,9.46,9.46,0,0,1-2-2.49,14.85,14.85,0,0,1-.88-3.36,94.28,94.28,0,0,1-1.56-10.31,26.3,26.3,0,0,1-.16-5.68s0,0,0,0Z"/><path class="cls-27" d="M61,124.1a74.07,74.07,0,0,1,7.21,4.62c1.38,1.26,2.93,2.95,5.5,2.95s11.69.28,13.41-1.55,4.12-5.88,6.7-7.57l-5.5,1.12L73.56,124Z"/><path class="cls-28" d="M87.65,128.51c0,1.59-3.81,2.94-8.6,3s-8.71-1.15-8.75-2.74,3.81-2.93,8.6-3S87.61,126.92,87.65,128.51Z"/><path class="cls-29" d="M88.34,123.67,73.56,124,61,124.1s3.3,1.9,5.52,3.38l.15,0s-.69-1.54.17-1.82,9.28,1,12.2,1a19.92,19.92,0,0,0,6.88-1.12,8.77,8.77,0,0,1,3.78-.14v1.51a19.2,19.2,0,0,1,4.12-4.32Zm-17.75,7a5.62,5.62,0,0,0,3.14,1c2.58,0,11.69.28,13.41-1.55.26-.28.55-.62.85-1l-.34.15C82.15,132.05,71.78,130.85,70.59,130.7Z"/><path class="cls-29" d="M90.4,122.69s-2.75-3.08-5-3.08c-1.56,0-2.23,1.4-4.3,1.4s-2.92-1.54-5.15-1.4a17.23,17.23,0,0,0-8.77,2.94,12.88,12.88,0,0,1-4.64,1.12c-2.23,0-6.53-2.1-6.53-2.1,4.64,4.49,15.13,2.39,21.31,3.51l.59.11-.24,0a25.37,25.37,0,0,0,2.75.56,11.24,11.24,0,0,0,1.76-.64l1.5-.2a28.43,28.43,0,0,1,6.19-.7c2.4-.85,5.15-2.11,6.53-4.07C96.42,120.17,93.15,122.69,90.4,122.69Z"/><path class="cls-30" d="M77.36,125a23.93,23.93,0,0,0-4.86-.41c-2,0-4,0-5.93-.13-3.75-.15-7.87-.53-10.53-2.93,0,0,0,0,0,0,2.34,2.29,6.14,2.9,9.62,3.09,2,.11,4,.06,6,.08a54.38,54.38,0,0,1,5.72.37C77.39,125.12,77.42,125.05,77.36,125Zm6-.57c-.44.2-.88.4-1.34.57s-1.17.33-1.67.56c-.27.13-.75,0-1-.07-.54-.09-1.07-.19-1.59-.33,0,0,0,0,0,0a11.08,11.08,0,0,0,1.29.33c.18,0,1.17.11,1.23.26a.25.25,0,0,0,.3.14,7.57,7.57,0,0,0,2.9-1.42S83.39,124.44,83.32,124.47Zm13.07-4.31a13,13,0,0,1-5.69,3.59,5.69,5.69,0,0,1-1.4.49l-2.12.12a16.85,16.85,0,0,0-3.48.56s0,0,0,0a21.28,21.28,0,0,1,4.38-.58c.68,0,1.34,0,2,0a4.08,4.08,0,0,0,1.26-.47,11.1,11.1,0,0,0,5.07-3.68S96.41,120.13,96.39,120.16Z"/><path d="M33.24,70.28s2.61-2.94,9.93-.66S60.6,75.32,67,73.37a7.48,7.48,0,0,0,1.63-2.28c.16-.81-1-3.91-1-3.91s.49,2.61,0,3.42c0,0-.65-2.77-1.95-3.74l.16,1.63S64,67.83,58,67.34s-11.23-2-15.3-5A11,11,0,0,0,33.24,70.28Z"/><path class="cls-31" d="M62.56,73.46c-5.5,0-12.36-2.15-17.87-3.87l-1.37-.43a17.86,17.86,0,0,0-5.23-.89,9,9,0,0,0-3.91.79,10.43,10.43,0,0,1,8.36-6.26c3.84,2.86,8.88,4.5,15.41,5,5.84.47,7.67,1.11,7.69,1.11a.51.51,0,0,0,.17,0,.49.49,0,0,0,.3-.1.47.47,0,0,0,.19-.38,10.49,10.49,0,0,1,.82,2.22.49.49,0,0,0,.4.37h.08a.49.49,0,0,0,.42-.24.52.52,0,0,0,.07-.15,1.05,1.05,0,0,1,0,.3,6.52,6.52,0,0,1-1.41,1.94,14.65,14.65,0,0,1-4.13.52Z"/><path d="M109.12,70.28s-1.86-2.94-7.11-.66-12.46,5.7-17,3.75a7.85,7.85,0,0,1-1.16-2.28,19.78,19.78,0,0,1,.7-3.91,10.86,10.86,0,0,0,0,3.42s.46-2.77,1.4-3.74l-.12,1.63s1.28-.66,5.59-1.15a16.94,16.94,0,0,0,11-5S107.61,62.79,109.12,70.28Z"/><path class="cls-32" d="M88.15,73.46c3.93,0,8.84-2.15,12.78-3.87l1-.43a9.56,9.56,0,0,1,3.75-.89,4.93,4.93,0,0,1,2.79.79c-1.58-5.3-5.24-6.14-6-6.26-2.74,2.86-6.34,4.5-11,5a20.48,20.48,0,0,0-5.5,1.11.27.27,0,0,1-.33-.07.54.54,0,0,1-.14-.38,13.1,13.1,0,0,0-.59,2.22.42.42,0,0,1-.29.37h0a.34.34,0,0,1-.3-.24,1.16,1.16,0,0,1-.06-.15,1.47,1.47,0,0,0,0,.3,7.11,7.11,0,0,0,1,1.94,7.74,7.74,0,0,0,3,.52Z"/><path class="cls-33" d="M41.36,77.34a15.3,15.3,0,0,1,19.41.12s0,0,0,0c-5-5.34-14.24-4.85-19.45-.11a0,0,0,1,0,0,0Z"/><path d="M43.74,81.46,42,80.59a12.09,12.09,0,0,1,8.25-5.65c5.53-.76,11.18,2.5,12.05,7.6Z"/><path class="cls-34" d="M62.31,82.65c-2.61-7.81-15.15-9-18.89-1.47l.32.82c4.4,4.72,11.89,4.72,17.26,2h2.12Z"/><path class="cls-35" d="M57.47,80.35a5.44,5.44,0,0,0-1.35-3.59,11.68,11.68,0,0,0-8.57.41,5.46,5.46,0,0,0,2.73,8.38,15.91,15.91,0,0,0,2.09.26A5.48,5.48,0,0,0,57.47,80.35Z"/><path class="cls-36" d="M47.15,80.35a4.85,4.85,0,1,0,7.63-3.95,11.79,11.79,0,0,0-5.9.25A4.85,4.85,0,0,0,47.15,80.35Z"/><path d="M54.85,80.35A2.86,2.86,0,1,1,52,77.5,2.86,2.86,0,0,1,54.85,80.35Z"/><path class="cls-37" d="M54,80.35a2,2,0,1,1-2-2A2,2,0,0,1,54,80.35Z"/><path class="cls-34" d="M53.17,78A1.17,1.17,0,1,1,52,76.81,1.17,1.17,0,0,1,53.17,78Z"/><path class="cls-34" d="M52.56,83.15a.56.56,0,0,1-.56.56.57.57,0,0,1-.57-.56.58.58,0,0,1,.57-.57A.57.57,0,0,1,52.56,83.15Z"/><path d="M43.44,81.2c1.89-3.5,6-5.08,9.76-4.87a10.17,10.17,0,0,1,9.06,6.33,0,0,0,1,0,.09,0c-1.16-3.93-5.11-6.17-9-6.6a9.63,9.63,0,0,0-10,5.13s0,.06,0,0Z"/><path class="cls-38" d="M43.71,82C48.19,86.77,55.5,86.87,61,84c0,0,0,0,0,0-5.46,2.65-12.81,2.64-17.22-2-.05,0-.12,0-.07.08Z"/><path class="cls-39" d="M105.52,77.34a11.84,11.84,0,0,0-16.75.12s0,0,0,0c4.33-5.34,12.29-4.85,16.78-.11,0,0,0,0,0,0Z"/><path d="M103.47,81.46l1.49-.87s-2.34-4.88-7.12-5.65a9.11,9.11,0,0,0-10.39,7.6Z"/><path class="cls-34" d="M87.45,82.65c2.25-7.81,13.06-9,16.3-1.46l-.28.81c-3.8,4.72-10.26,4.72-14.9,2H86.75Z"/><path class="cls-40" d="M95.1,85.83a5.26,5.26,0,0,0,5-5.48,5.7,5.7,0,0,0-1.42-3.81A9,9,0,0,0,90.57,78a5.87,5.87,0,0,0-.49,2.34A5.26,5.26,0,0,0,95.1,85.83Z"/><path class="cls-41" d="M95.1,85.2a4.65,4.65,0,0,0,4.43-4.85,4.94,4.94,0,0,0-2.09-4.1,9,9,0,0,0-5.78,1,5,5,0,0,0-1,3A4.66,4.66,0,0,0,95.1,85.2Z"/><path d="M97.71,80.35A2.62,2.62,0,1,1,95.1,77.5,2.74,2.74,0,0,1,97.71,80.35Z"/><path class="cls-42" d="M97,80.35a1.86,1.86,0,1,1-1.85-2A1.94,1.94,0,0,1,97,80.35Z"/><path class="cls-34" d="M96.17,78a1.08,1.08,0,1,1-1.07-1.17A1.12,1.12,0,0,1,96.17,78Z"/><path class="cls-34" d="M95.61,83.15a.52.52,0,1,1-1,0,.52.52,0,1,1,1,0Z"/><path d="M103.73,81.2a8.57,8.57,0,0,0-8.43-4.87,8.93,8.93,0,0,0-7.81,6.33c0,.06-.09,0-.08,0A9,9,0,0,1,95.15,76a8.08,8.08,0,0,1,8.62,5.13s0,.06,0,0Z"/><path class="cls-38" d="M103.5,82C99.63,86.77,93.32,86.87,88.57,84c0,0,0,0,0,0,4.7,2.65,11,2.64,14.85-2,0,0,.11,0,.07.08Z"/><path class="cls-43" d="M92.84,34.94c-5.7-2.44-10.42,2.12-10.42,2.12l-2-.49c-3.09-.81-8.46-.49-8.46-.49a12.92,12.92,0,0,1-8-2.93s.16-5.53.32-6.19,3.91-4.55,6.35-5.53A21.32,21.32,0,0,1,80.63,20c3.42.49,7.65,1.47,8.46,2.77s3.26,3.1,3.58,4.07Z"/><path class="cls-44" d="M70.29,26a.17.17,0,0,0-.17-.29,7.19,7.19,0,0,0-2.87,9.41l.44.17A6.87,6.87,0,0,1,70.29,26Zm14.89-5a.13.13,0,0,0,.11-.05c.09-.1.06-.29-.11-.28l-.67.08c-3.82.55-7,3.28-9.1,6.38a17.48,17.48,0,0,0-3.16,9h.32a17.38,17.38,0,0,1,2.89-8.47C77.61,24.24,81.07,21.25,85.18,20.94ZM69.7,30.17a14.48,14.48,0,0,1,4-8.79c.15-.14-.08-.37-.23-.23A14.85,14.85,0,0,0,69.4,30a14.52,14.52,0,0,0,.35,5.87l.35.06A14.12,14.12,0,0,1,69.7,30.17ZM95,29.43a7.12,7.12,0,0,0-2.33-.78,11.24,11.24,0,0,0-7.63,2.09,16.4,16.4,0,0,0-5.41,5.66l.33.06a16.66,16.66,0,0,1,4.89-5.2C87.12,29.68,90,28.53,92.72,29a6.68,6.68,0,0,1,2.15.73C95.06,29.81,95.22,29.53,95,29.43Zm-.49,4.07a9.09,9.09,0,0,0-1.76-.76,11.49,11.49,0,0,0-11.93,3.93l.35.09A11.12,11.12,0,0,1,92.8,33.09a7.89,7.89,0,0,1,1.58.69A.16.16,0,0,0,94.55,33.5Zm-5.1-10.29a3.71,3.71,0,0,1,2,1.1.16.16,0,0,0,.23-.23,3.87,3.87,0,0,0-2.47-1.23c-2.77-.26-5.91,2.32-7.71,4.06a30,30,0,0,0-4.76,6A16.44,16.44,0,0,0,75.15,36h.34a17.71,17.71,0,0,1,1.42-2.82,29.37,29.37,0,0,1,4.3-5.57C83,25.78,86.52,22.66,89.45,23.21ZM76.64,21.57c.17-.12,0-.4-.17-.28-4.43,3-6.94,9.53-5.3,14.73l.36,0C69.84,31,72.29,24.48,76.64,21.57Z"/><path class="cls-45" d="M64,33.17a12.79,12.79,0,0,0,8.21,3,28.67,28.67,0,0,1,8.22.52l1.06.27c.23.05.72.29,1,.22s.22-.17.29-.24a11.86,11.86,0,0,1,1-.73A9.65,9.65,0,0,1,92.81,35c.11,0,.18-.14.08-.18a9.44,9.44,0,0,0-8.24.52,11.26,11.26,0,0,0-2.12,1.43c-.25.22,0,.16-.31.09l-1.51-.37A28.28,28.28,0,0,0,72.92,36,13.44,13.44,0,0,1,64,33.14a0,0,0,0,0,0,0Z"/><path class="cls-46" d="M7.63,106l.27-.51c-1,4.09-.41,8.63,2.76,11.15h.22c-5-8,1.52-16.5,9.34-18.89l-1.09-7.82C11.75,91.66,6.11,98.39,7.63,106ZM109,24.58S107.27,5,90.34,1.56s-25.18,3.69-30,4.13c0,0-10.42-5.43-20-2.61A37.85,37.85,0,0,0,26.73,14.37c-5.43,7.6-4.34,13-13.46,16.94,0,0-3.26,1.52-3.69,4.34,0,0,1.3-2.39,3.26-2.61,0,0-3.91,2.61-3.48,6.3,0,0,.22-.87,2-2a9.33,9.33,0,0,0-2,6.51,7,7,0,0,1,2.17-3.26A8.3,8.3,0,0,1,10,45.2a5.84,5.84,0,0,0-.87,4.56,3,3,0,0,1,1.74-2.82s-2,3.47-.87,5.86l-.65,1.74a22.34,22.34,0,0,0,1.09,6.73c1.08,2.82,1.3,8.25.43,10s-.43,5.43-.43,5.43,5,2.61,4.77,3.26a8.83,8.83,0,0,1-6.73,4.12c-3.9.22-8.68-4.77-6.94-11.29,0,0-3.48,7.38,3,11.51,0,0,4.12,6.51,11.94,4.56l4.67-9c1.05,4.75,2.49,13.8,2.49,13.8l6.08,12.8c1.52,2,4.78,2.61,7.16,2.61,0,0-2.38-10.42-3.69-18.67,0,0-1.3-3-2.17-5.43s-2.82-9.77-1.95-15.2c0,0,3-8.46,9.12-12.59l2.17-1.73-1.74.21s.87-6.29,2.39-7.81l.3-.38c8.28,1.43,20.76-4.82,20.76-13.3l2.39-.65c3-10.42,15-11.07,20.4-8.47C93,29.14,95.33,42,87.73,47.16a16.12,16.12,0,0,1-10,3.22l-2-.19c5.43,2.83,14.55.44,18.89-3.47,6.37-6.15,6.3-13.55,1.63-20.37l1,.4c5.64,6.73,8.46,16.06.65,22.79v.22c6.66-5,9.78-12.2,8.67-19.07l.23.18a16.22,16.22,0,0,1,.22,13.46S113.57,40,109,24.58Z"/><path class="cls-47" d="M45.12,19.15a13.29,13.29,0,0,0-4.76-2c-1.1-.21-3.4.08-4.3-.6-2-1.5.3-3.92,0-6-.66,0-1.38-.12-2.06,0,.68-1.42,2.39-3.21,2.53-4.57l-4.13,4.34c-3.15,1.46-6.82,6.42-7.12,10,4.32-3.42,9.25.48,12,3.7,3.45,4.14,8.79,8.42,14.47,5.9-.26,1.12-.68,2.22-.86,3.37,3.12-2.79,4.48-6.42,7.21-9.39C52.9,27.1,49.26,21.77,45.12,19.15ZM68,4a25.4,25.4,0,0,0,3.2-.34A10.06,10.06,0,0,0,68,4ZM89.91,18.28a7.53,7.53,0,0,0-1.52-3.09c-.45-.56-2.19-1.71-2.36-2.33-.35-1.28.89-1.43,1.08-2.38.27-1.42-.88-1.39.4-2.67.83-.84,2.6-.57,2.36-2.13-.08-.57-2.13-1.79-2.6-2.17a2.82,2.82,0,0,1,1.92-.63c-5.73-2.73-12-.24-18,.74a10.28,10.28,0,0,1,5,1.36c1.92,1.27,1.19,3.17,2.87,4.18,1.49.9,6.65-.22,5.66,2.84-.59,1.82-4.8,2.91-6.17,4.1C80.28,18,77,18,75.84,18.44,74.33,19,73.39,20,72.1,20.89l-1.73,1.73c4.74-4.35,16.52-3.41,21.07,1,0-1.13-.71-1.64-1-2.58A21.09,21.09,0,0,1,89.91,18.28Zm11.94-1.52c-2-2.33-2.22-2.23-1.74-5.21C100.74,7.64,97,5.61,94,3.82c1.18,1.22,2.94,2.27,3.46,4,.44,1.5-.09,3.18.43,4.61.71,2,4.77,6.88.11,6.5,2.51,1.74,1.24,4.38-.28,6.26l1.31.43A12.35,12.35,0,0,1,101.81,28a10.86,10.86,0,0,1-.15-1.64c2.32.12.68-4.12.65-5.43C105.06,21.16,102.63,17.68,101.85,16.76ZM11.13,52.93l.4-.56A1.85,1.85,0,0,0,11.13,52.93Zm16,10.29c-1.57-.33-.89-.76-1.79-1.74-1.11-1.22-.88-1-2.59-1.08-2.47-.11-5.45.37-7.56-1.24S14,55.66,10.91,56a6.92,6.92,0,0,1,.22-3.09l-.68,1c-1.32,2.31,0,5.64.43,7.84.82-.93,2.39,2.27,3.21,3.06,2.26,2.23,2.31.39,3.34-1.75,1.91-.43,3.43,1.2,4.7,2.41.63.6,1.16,1.58,2,1.64s1.41-1.2,2.57-1c.19,1.36.49,2.71.73,4.07.71-1.34.75-3.33,1.42-4.76a18.88,18.88,0,0,1,2.84-4C30.59,62.34,28.78,63.56,27.16,63.22Z"/><path class="cls-48" d="M40.42,21.05a32.43,32.43,0,0,0-7-4.13c-2.23-1-3.42-3.11-1.95-5.59L30.2,12.64c-1.85.83-2.31,3.09-3.23,4.68,4.75-.87,9.67,1.61,13.27,4.43,2,1.56,3.34,3.78,5.55,5.06s4.33.52,6.74.62a9.63,9.63,0,0,1,0,1.86c.71-1.14,1.58-2.21,2.33-3.38C48.91,26.79,45.06,24.66,40.42,21.05Zm44-4c-.25-1.41,1-2.39,1.36-3.73a7.27,7.27,0,0,0-.39-5c-.5-1-2.74-3.48.09-3.46A2.52,2.52,0,0,1,83.83,2l-6.52.65C79.39,4,79.36,6,81.22,7s4.28,1,4.35,3.85c0,1.62-.63,1.77-1.74,2.66-1.47,1.18-1.32.73-1.58,2.4-.19,1.22.9,1-.42,2.28a11.38,11.38,0,0,1-3.2,1.31,55.88,55.88,0,0,1,9,1.1C86.6,19.43,84.73,18.72,84.43,17Zm14.89-3.39c-1.15-2.34,1.14-6.3-2-7.64a22.53,22.53,0,0,1,.83,4.39c.07,1.37-.08,2.32.62,3.55a13.49,13.49,0,0,1,1.74,3.15c.18.7.44,3.22-.94,2.18.14,1.47,1.31,4.68-.55,5.52l2,1.52a45.71,45.71,0,0,1-.09-5.62,1.53,1.53,0,0,1,1.07.59C102.26,18.24,100.57,16.18,99.32,13.64Zm-74.44,50c-.52-.45-.73-1.13-1.29-1.52a5.49,5.49,0,0,0-2.8-.57c-2.16-.19-4.84-.19-6.63-1.61-.87-.69-1.61-3.1-3.06-2.17L10.56,59c1.76,1.23,3.47,2.1,4.69,4.11,1.74-1.6,5.41-1.69,7.44-.45,1,.6,1.46,2.25,2.39,2.33.64.06.87-.5,1.55-.16.37.18.68.85.83,1.19a6.69,6.69,0,0,1,.34-2.13A2.53,2.53,0,0,1,24.88,63.66Z"/><path class="cls-49" d="M15.5,91.25l-.17.08-.37.2-.18.11-.36.2-.18.12-.35.22-.16.1c-.4.27-.78.56-1.15.86l-.14.11-.3.25-.17.16-.28.26-.18.17c-.09.08-.17.17-.26.26a1.54,1.54,0,0,0-.17.19,3.07,3.07,0,0,0-.25.26c-.06.06-.11.13-.17.2l-.4.48-.18.23L9.89,96l-.18.24-.17.27-.17.25L9.21,97c-.05.1-.11.19-.16.28l-.14.26a3,3,0,0,0-.16.31l-.12.24c-.08.15-.15.31-.22.48l-.09.21c-.06.14-.11.28-.16.42a1.55,1.55,0,0,0-.08.23,2.53,2.53,0,0,0-.12.36c0,.08,0,.16-.08.25s-.07.23-.1.35l-.06.25c0,.12-.06.25-.08.37a2,2,0,0,0,0,.24c0,.15,0,.3-.08.45s0,.11,0,.17,0,.41-.07.62a1,1,0,0,0,0,.17l0,.47v.64c0,.08,0,.17,0,.25s0,.28,0,.41a2.11,2.11,0,0,1,0,.25l.06.44a1.5,1.5,0,0,0,0,.22q0,.33.12.66l.26-.49c.82-10.44,8.58-13.08,8.58-13.08l-.57-1.37Zm-7.77,15h.11c0-.24,0-.48,0-.72-.06.24-.11.49-.16.73Zm37-59.36A13.37,13.37,0,0,0,53,40.07c-2,1.34-8.72,3.11-10.48,3.56-4.19.81-6.3.11-6.3.11,17.43.32,19-14.39,19-14.39-2.82,11.29-18.67,17.81-28,10,3.38,5.91,9.23,6.44,14.93,5.37,2.09-.09,8.58-2.6,8.58-2.6a12.31,12.31,0,0,1-11.89,4.15l-.25.41a18.05,18.05,0,0,0,2.61.73l.16.11.06-.08c8.21,1.42,20.54-4.72,20.75-13.08C58.33,44.5,44.72,46.91,44.72,46.91Zm62.07-14.47c0-.09,0-.18,0-.26s0-.35,0-.51,0-.16,0-.24c0-.25-.06-.49-.1-.74a19.32,19.32,0,0,0-8-12.41,25.43,25.43,0,0,1,6,9.5c2.28,6.19-.65,12.37-.65,12.37.65-8.63-6.62-13.4-6.62-13.4,5.64,6.73,8.46,16.06.65,22.79v.22l.57-.44h0l.17-.14.19-.15.19-.16h0l.2-.16h0l.34-.3.19-.17h0l.35-.33h0l.15-.14h0l.5-.48h0l0-.05.41-.43h0l.13-.14a3.33,3.33,0,0,0,.25-.28.6.6,0,0,0,.08-.08h0l.14-.17,0,0,.26-.3h0c0-.06.09-.11.13-.16h0l.26-.33.06-.07.09-.13h0l0,0c.25-.33.48-.65.71-1l0-.07h0l.08-.12h0a2.14,2.14,0,0,0,.13-.19l.15-.23.09-.16h0l.24-.39s0,0,0,0l.08-.13.27-.5,0-.06q.3-.59.57-1.17v0h0l0-.07.08-.19c0-.11.1-.22.14-.33a.36.36,0,0,0,0-.11c.07-.17.14-.34.2-.51s0,0,0-.08c.11-.28.2-.55.29-.83l.05-.19c.09-.28.17-.56.24-.85h0l.15-.6h0v0h0c0-.14,0-.29.08-.43l0-.17v0c0-.22.07-.43.1-.64v0a17.6,17.6,0,0,0,.16-1.9h0c0-.25,0-.49,0-.73V33C106.81,32.78,106.81,32.61,106.79,32.44ZM75.58,50.19l.29,0h0l-.08,0Zm35-16.28c0-.2,0-.41,0-.61s0-.26,0-.39,0-.4,0-.61,0-.29,0-.43,0-.41-.07-.63l-.06-.45-.09-.66c0-.16,0-.31-.08-.48s-.08-.46-.12-.69-.06-.33-.1-.49-.1-.5-.16-.76-.07-.32-.11-.48-.14-.58-.21-.87-.07-.28-.11-.43c-.12-.44-.24-.89-.38-1.35,0,0-1.74-19.54-18.67-23s-25.18,3.69-30,4.13c0,0-10.42-5.43-20-2.61A37.85,37.85,0,0,0,26.73,14.37c-5.43,7.6-4.34,13-13.46,16.94,0,0-3.26,1.52-3.69,4.34,0,0,1.3-2.39,3.26-2.61,0,0-3.91,2.61-3.48,6.3,0,0,.22-.87,2-2a9.33,9.33,0,0,0-2,6.51,7,7,0,0,1,2.17-3.26A8.3,8.3,0,0,1,10,45.2a5.84,5.84,0,0,0-.87,4.56,3,3,0,0,1,1.74-2.82s-2,3.47-.87,5.86l-.65,1.74a22.34,22.34,0,0,0,1.09,6.73,3,3,0,0,1,.11.32l0,.1.07.25a.49.49,0,0,1,0,.11c0,.1,0,.2.08.3s0,0,0,.06l.09.39s0,.05,0,.08.05.21.07.32a.52.52,0,0,0,0,.11l.06.33,0,.08c.05.28.09.57.13.87v.08c0,.12,0,.25,0,.38a.13.13,0,0,1,0,.06c0,.31.06.61.08.92v0l0,.44v0c0,.46,0,.92,0,1.35v0c0,.15,0,.29,0,.43.6-3.09-.16-5.7-.63-8.79A9.37,9.37,0,0,1,13,51.22a5,5,0,0,0-2,1.13c-.22-3.48,2.27-6,3.06-9.29a6.57,6.57,0,0,1-2.71,2.73c2.13-3,1-6.65,4.32-9a6.74,6.74,0,0,0-3.21,1.58c.36-2.45,3.18-3.91,5.12-4.88a6.06,6.06,0,0,0-3.18.63c1.22-2.34,4.42-3.38,6.22-5.31a23.49,23.49,0,0,0,3.9-6.22c2.44-5.13,6.19-10.68,10.74-14,3-2.17,7-4.47,10.88-4.28a50.32,50.32,0,0,1,13,2.44L52.62,8.89A37.78,37.78,0,0,0,65.81,6.77c6.84-2.44,21.33-7.49,31.42-.32S108,25.83,108,25.83s4.88,11.39-.65,18.23l-.12.16.05,0,.06,0a.12.12,0,0,1,.05-.05l.08-.07.06-.06.09-.09.07-.07.1-.11.07-.08.12-.14.07-.08.13-.17a.31.31,0,0,0,.07-.09l.15-.2.06-.08.18-.28,0-.05c.14-.23.29-.48.44-.77l0-.07.18-.36.06-.13.15-.35.06-.16c0-.12.09-.24.13-.36a1.07,1.07,0,0,0,.07-.19l.12-.37.06-.21c0-.13.08-.26.11-.39l.06-.23c0-.14.07-.28.1-.43s0-.15,0-.23.06-.32.08-.48a1.85,1.85,0,0,0,0-.23c0-.19.06-.38.08-.58a1,1,0,0,0,0-.17c.06-.52.1-1.08.12-1.66v-.23c0-.22,0-.44,0-.67S110.62,34,110.62,33.91ZM98.05,42.34a1.86,1.86,0,0,0,.1-.2h0a2.44,2.44,0,0,0,.14-.28,2.56,2.56,0,0,0,.11-.24.37.37,0,0,0,0-.11h0a2.39,2.39,0,0,0,.13-.28h0l.15-.36h0l.1-.27h0c0-.12.09-.25.13-.37h0l.09-.25h0l.09-.33a.14.14,0,0,0,0-.06,2.5,2.5,0,0,0,.07-.26c0-.13.07-.26.1-.39s0-.17,0-.25h0c0-.14,0-.28.08-.41h0c0-.08,0-.15,0-.23h0c0-.14,0-.28,0-.42h0l0-.22h0c0-.07,0-.14,0-.22s0-.14,0-.21,0-.15,0-.22,0-.3,0-.45v-.2h0V35.6h0c0-.06,0-.12,0-.19h0l0-.47h0c0-.06,0-.12,0-.18h0c0-.16,0-.32,0-.48h0a.88.88,0,0,1,0-.17c0-.16,0-.33-.08-.49l0-.15h0c0-.15-.06-.3-.1-.45s0,0,0-.06l0-.14h0l0-.12-.1-.4a.74.74,0,0,1,0-.14h0c0-.17-.1-.35-.16-.53h0s0-.08,0-.12-.12-.36-.19-.54l0-.11h0c0-.13-.09-.25-.14-.38s0-.12-.07-.17l0-.09c-.07-.16-.13-.32-.21-.48a.69.69,0,0,0,0-.1l0-.07h0c-.09-.2-.19-.39-.28-.58h0a.21.21,0,0,0,0-.06l-.12-.24-.19-.35h0l0,0h0c-.11-.2-.23-.4-.35-.6h0l0,0c-.12-.21-.25-.42-.38-.62h0c-.13-.22-.27-.43-.42-.64L96,25.88s.43,2.06,1.57,9.06-7.49,12.54-7.49,12.54c6.84-6.51,3.09-15.79,1.46-18.89s-5.37-8.14-15.79-6.35A13,13,0,0,0,64.51,33.48c3-10.42,15-11.07,20.4-8.47C93,29.14,95.33,42,87.73,47.16c-.24.18-.5.36-.76.53l0,0h0l-.45.29-.2.12h0l-.42.25h0l-.22.12h0l-.47.23h0a.2.2,0,0,0-.08,0l-.72.32-.05,0h0c-.47.19-.95.37-1.44.52h0l-.7.2h0l-.72.17h0l-.13,0a16.54,16.54,0,0,1-3.59.31h0a17.58,17.58,0,0,1-1.77-.14,5.86,5.86,0,0,0,.57.26l.07,0,.52.19.11,0,.5.16.12,0,.53.13.11,0,.58.11h.07a14.93,14.93,0,0,0,2.78.19h.09l.61,0h.15l.56,0h.17l.54-.06.18,0,.55-.08.17,0,.59-.11.12,0c.48-.1,1-.21,1.43-.34h0q.31-.07.63-.18h.06l.57-.18.08,0,.54-.2h0L89,50h0l.47-.18.08,0,.05,0,.47-.19.13-.06h0l.43-.19h0l.19-.09,0,0,.34-.17.19-.1.36-.19h0L92,48.6h0l.29-.17h0l.24-.15.07-.05.19-.11.25-.17h0l.23-.16h0l.26-.19a.27.27,0,0,0,.08-.07l.12-.08.39-.31a.1.1,0,0,0,.05,0l.42-.36.59-.59h0l.19-.2.35-.39L96,45.3h0c.1-.12.2-.23.29-.35h0l.12-.15a1.13,1.13,0,0,1,.1-.13l.25-.33,0,0L97,44l0,0a3,3,0,0,0,.2-.29h0l.21-.31h0l.19-.3h0a.56.56,0,0,0,0-.08c0-.08.09-.16.14-.24l.17-.3S98,42.39,98.05,42.34ZM15.22,79.94a8.83,8.83,0,0,1-6.73,4.12c-3.9.22-8.68-4.77-6.94-11.29v0c-.2.43-3.17,7.28,2.78,11.31l.1,0s7,3.42,12.22-3.75l-1.41-.5A.17.17,0,0,1,15.22,79.94Z"/><path class="cls-50" d="M96.05,25.84c-.06-.06-.17,0-.12.07C98,29,99.56,32.43,99.5,36.2a14.91,14.91,0,0,1-4.78,10.15C92.4,48.69,89,50,85.82,50.72s-6.66.93-9.61-.36c6.89.9,14.91-3.12,16.15-10.35,1-5.81-2-12.81-7.54-15.33a16.68,16.68,0,0,0-11.32-.49A13.76,13.76,0,0,0,68,27.34a13.05,13.05,0,0,0-3.49,6.13,0,0,0,1,0,0,0c2-6.33,8.13-9.66,14.5-9.5a13,13,0,0,1,7.39,2.25,14.33,14.33,0,0,1,5.32,8.18,12.55,12.55,0,0,1-2,10.72,14.33,14.33,0,0,1-5.85,4,17.41,17.41,0,0,1-8.31,1c-.08,0-.1.12,0,.13l.48.07a15,15,0,0,0,9.43.9,19.62,19.62,0,0,0,9.38-4.34,14.87,14.87,0,0,0,5-10.23A17.26,17.26,0,0,0,96.05,25.84Zm1.88,23.7h0a12.93,12.93,0,0,0,4.93-11.3,17.75,17.75,0,0,0-1.76-6,19.14,19.14,0,0,0-3.78-5.56c0-.05-.14,0-.1.08A52.54,52.54,0,0,1,100.58,32a19,19,0,0,1,1.87,6A13.24,13.24,0,0,1,97.93,49.54Zm11.89-22.13a31.5,31.5,0,0,1-.77-3.08c0-.42-.11-.83-.18-1.25a32.4,32.4,0,0,0-4.2-11.37A22,22,0,0,0,91,1.61a39.8,39.8,0,0,0-21.85,1C67,3.31,64.88,4.27,62.7,5a11.7,11.7,0,0,1-1.19.36c-.2.06-.91.31-1.09.22-.53-.28-1.08-.52-1.64-.75a35.24,35.24,0,0,0-9.52-2.52A24.59,24.59,0,0,0,43,2.4a10.36,10.36,0,0,0-3.09.8A35.82,35.82,0,0,0,25.55,15.94c-2.41,3.81-3.61,8.48-6.83,11.74A14.69,14.69,0,0,1,15.66,30c-.87.51-1.82.87-2.71,1.35a6.43,6.43,0,0,0-3.47,4.27c0,.11.13.19.19.08a5.15,5.15,0,0,1,2.67-2.43,7.15,7.15,0,0,0-3.08,6.07c0,.11.17.15.2,0a3.31,3.31,0,0,1,1.4-1.55,9.16,9.16,0,0,0-1.6,6.08c0,.11.17.15.2,0a7.32,7.32,0,0,1,1.48-2.62c.1-.11.21-.21.32-.31s.17-.5.17-.27,0,.32,0,.47a9.15,9.15,0,0,1-.43,2c-.5,1.51-1.68,2.57-2,4.17a6,6,0,0,0,0,2.42c0,.11.22.09.21,0a2.86,2.86,0,0,1,1.37-2.52,10,10,0,0,0-.94,2.81,5.52,5.52,0,0,0,0,2.18c.06.3.23.47.12.76s-.23.63-.35.94a5.43,5.43,0,0,0-.12,2.51,23.08,23.08,0,0,0,1.17,5.38,19.15,19.15,0,0,1,.79,5.63A15.54,15.54,0,0,1,11.15,70a17.35,17.35,0,0,1-.61,1.89,12,12,0,0,0-.23,4.39c0,.65.4.65,1,1s4.17,2.06,3.79,2.8c-1,1.92-3.41,3.29-5.4,3.76a6.41,6.41,0,0,1-6.4-2.53A9.55,9.55,0,0,1,1.64,72.8c0-.1-.13-.17-.17-.07a10.77,10.77,0,0,0-.94,4.33,8.69,8.69,0,0,0,.73,3.69,8.31,8.31,0,0,0,1.17,1.82,9,9,0,0,0,.93.92c.29.26,1,.54,1.15.84a11.32,11.32,0,0,0,3.2,3.12,10.92,10.92,0,0,0,8.83,1.44.05.05,0,0,0,0-.1A11.12,11.12,0,0,1,4.66,84.24c-.07-.12-.33-.24-.44-.32a9.09,9.09,0,0,1-1.22-1A7.55,7.55,0,0,1,1.59,81a8.35,8.35,0,0,1-.88-3.93,10.94,10.94,0,0,1,.54-3.28,9.55,9.55,0,0,0,2.68,8.48,6.6,6.6,0,0,0,8.11.83,9.49,9.49,0,0,0,3-2.57c.46-.63.33-.88-.26-1.36a22.39,22.39,0,0,0-3.12-2l-1-.56,0,0v0c0-.23,0-.46-.06-.69a12.32,12.32,0,0,1,.25-4c.13-.48.38-.92.51-1.42a9.88,9.88,0,0,0,.25-1.8,21.55,21.55,0,0,0-.22-4.47,37.14,37.14,0,0,0-1.16-4.41,22.85,22.85,0,0,1-.63-4.58,4.63,4.63,0,0,1,.46-2,.88.88,0,0,0,0-.9,5.22,5.22,0,0,1,0-2.69A9.67,9.67,0,0,1,11,47c0-.09-.05-.2-.14-.14a3.67,3.67,0,0,0-1.7,2c0-.21,0-.43,0-.64a6,6,0,0,1,1.3-3.38,7.83,7.83,0,0,0,1.23-4.19.11.11,0,0,0-.16-.09,6.57,6.57,0,0,0-2.05,2.82,9,9,0,0,1,2-5.91c.07-.09,0-.23-.13-.17a5.73,5.73,0,0,0-1.81,1.6,7.3,7.3,0,0,1,3.44-5.76.1.1,0,0,0-.08-.19,4.65,4.65,0,0,0-3,2.08c.9-2.82,4-3.66,6.31-5.07A15.8,15.8,0,0,0,22,23.35a67.52,67.52,0,0,1,5-9.14,35.24,35.24,0,0,1,8.83-8.35,31.15,31.15,0,0,1,4.65-2.68,11.73,11.73,0,0,1,3.38-.67,22.74,22.74,0,0,1,3.4-.12,30,30,0,0,1,6.18.9,33.22,33.22,0,0,1,6.82,2.44c.41.2,1.2-.11,1.61-.23a27.71,27.71,0,0,0,2.69-1A69.8,69.8,0,0,1,71.86,2,37.82,37.82,0,0,1,82.66.73,32.54,32.54,0,0,1,95,3.14a20.89,20.89,0,0,1,7.2,5.4,29.64,29.64,0,0,1,6.21,12.73,28.39,28.39,0,0,1,.57,3.19.78.78,0,0,0,0,.14c.35,1.2.66,2.41.92,3.64a31.71,31.71,0,0,1,.71,6c0,3.26-.58,7-2.87,9.47a7.27,7.27,0,0,1-.57.54l-.1.07c.29-.19.39-.76.49-1a14.5,14.5,0,0,0,.5-1.67,16.72,16.72,0,0,0-1.16-10.68,19.63,19.63,0,0,0-8.24-12.69c-.08-.06-.18.07-.1.13,4.93,3.89,8.25,9.32,8,15.74s-3.85,11.86-8.67,15.65c0,0,0,.1,0,.07,5.07-3.65,8.74-9.18,9.08-15.52a16.81,16.81,0,0,0-.15-3.26A16.53,16.53,0,0,1,107,44.31s0,.08,0,0c2.08-1.39,3-4.46,3.37-6.77A27.1,27.1,0,0,0,109.82,27.41ZM20.21,97.7c-6.69,1.94-12.78,8.72-10.74,16,.25.88-.09,1.57.34,2.37,0,0,1.18.7.78.35l-.43-.4a9.51,9.51,0,0,1-.95-1.15,9.8,9.8,0,0,1-1.59-4.83,15,15,0,0,1,2.78-9.81,12.81,12.81,0,0,1,1.17-1.37.06.06,0,0,0-.08-.09,13.08,13.08,0,0,0-3.81,7.13,13,13,0,0,1,2.46-10.09,17,17,0,0,1,9-5.85,0,0,0,1,0,0-.09c-7.36,1.41-13,8.6-11.56,16.13a.05.05,0,0,0,.09,0,17.16,17.16,0,0,0-.3,2.19,11.59,11.59,0,0,0,.8,5.25,8.73,8.73,0,0,0,1.19,2c.34.43.94,1.23,1.54,1.22a.09.09,0,0,0,.08-.14A11,11,0,0,1,10.87,105a17,17,0,0,1,9.36-7.23C20.28,97.76,20.26,97.68,20.21,97.7ZM41,47.76c-1,1.1-1.41,2.9-1.75,4.33a34.49,34.49,0,0,0-.67,3.51s0,.11.08.11l1.38-.18h.08l-.38.31c-1,.79-2,1.54-3,2.36a26.57,26.57,0,0,0-6.14,8.08c-.48.92-.92,1.85-1.31,2.81a7.55,7.55,0,0,0-.44,2.55A35.71,35.71,0,0,0,30.39,83a61.74,61.74,0,0,0,2.75,7.3,11,11,0,0,1,.41,2.36c.17,1,.34,1.91.52,2.87.34,1.85.71,3.7,1.08,5.55q.76,3.73,1.61,7.45c0,.16.07.33.11.49a18.72,18.72,0,0,0-2.35-.28,7.53,7.53,0,0,1-4.71-2.37c0-.06-.13,0-.08.09,1.68,2.06,4.68,2.6,7.2,2.62A.07.07,0,0,0,37,109q-.72-3.17-1.38-6.35T34.4,96.54c-.2-1-.39-2.08-.57-3.13l-.27-1.55a7.74,7.74,0,0,0-.25-1.54,56.62,56.62,0,0,1-3.07-8.46,43.19,43.19,0,0,1-1.08-6c-.11-1-.17-2-.18-3a9.88,9.88,0,0,1,.21-3.12,31.62,31.62,0,0,1,3.72-7,22.13,22.13,0,0,1,4.81-5.13c.93-.7,1.84-1.42,2.75-2.15.05,0,0-.15-.06-.14l-.95.12-.55.07-.14,0c.08-.58.18-1.15.29-1.73.2-1,.43-2.08.73-3.1a6.86,6.86,0,0,1,1.32-2.84C41.17,47.79,41.07,47.69,41,47.76ZM62.07,34.13c-.38,5.18-4.46,8.84-8.88,11a22.27,22.27,0,0,1-7.7,2.21,14,14,0,0,1-7-.87,0,0,0,0,0,0,.07c4.6,2.39,10.33,1.19,14.81-.94,4.32-2.06,9.2-6.2,8.92-11.47C62.16,34.07,62.08,34.07,62.07,34.13ZM33.71,44.73a18.56,18.56,0,0,0,8.95,0,45.89,45.89,0,0,0,4.63-1.27c.73-.23,1.46-.48,2.18-.74l1-.36c.45-.16-.34.52-.45.64a13,13,0,0,1-11.16,3.34h0a12.58,12.58,0,0,0,12-4.1s0-.08,0-.07a43.17,43.17,0,0,1-9.4,2.62c-3.31.55-6.87.51-9.9-1.11A11.12,11.12,0,0,1,27.6,39.9c-.28-.42-.43-.5,0-.15.26.2.54.39.82.58a14,14,0,0,0,2.22,1.21,16.86,16.86,0,0,0,9,1.13c7.14-1,13.78-6.2,15.55-13.3a.05.05,0,1,0-.1,0c-3,11.18-18.64,17.63-27.93,10,0,0-.08,0-.06,0A9.27,9.27,0,0,0,30,42.82,10.79,10.79,0,0,0,33.71,44.73Z"/><path class="cls-2" d="M28.54,96.65c-.49-3.74-.81-6-.81-6-1.61-4.4-1.61-9.28-4.83-12.86,0,0-3.7-1.79-6.11,4.07,0,0-1.45,2.28-.32,6.51,0,0,1.44,9,4.5,13.84a5.82,5.82,0,0,0,2.74,3.42c2.25,1.3,6.11.49,6.11.49S29,100.4,28.54,96.65Z"/><path class="cls-51" d="M29.17,101.7s-4.07,1.47-6.35-1.46a15.26,15.26,0,0,1-2.77-6.52,9.39,9.39,0,0,1-1.3-4.23c0-2.12-1.63-5-1.63-5s-.16-2.6,1.63-2.11S23,86.56,23,86.56l3.42,7.33,2.12,2.6Z"/><path class="cls-52" d="M29,99.91l-.65-3.74c-2.77-2.61-3.91-7.82-5.7-10.75-.81-1.3-4.88-6.51-5.21-2,0,0,1-.66,1.79.81.25.44.64,1.28,1.1,2.29a23.61,23.61,0,0,1-.77,5.69,18,18,0,0,0,1.65-3.75l.62,1.35c-.65,2.15-1.16,4.17-.32,6.79,0,0-.31-3.25,1-5.37.43.89.83,1.64,1.13,2.12A21.07,21.07,0,0,0,25,95.27a4.81,4.81,0,0,0,1,4.15,3.14,3.14,0,0,0,2.77,1.47l-.14-1.33Z"/><path class="cls-53" d="M27.74,90.63c-1.39-3.95-1.52-8.34-3.93-11.89-.48-.71-.76-1.13-1.57-1.29a3.86,3.86,0,0,0-2.39.35c-2.05,1-3.39,3.67-3.81,5.83-.44,2.33.25,4.78.73,7.06A58.59,58.59,0,0,0,18.47,97c.36,1.05.76,2.09,1.22,3.11a25.77,25.77,0,0,1,1.22,2.4,5.91,5.91,0,0,0,3.93,3.73,10.87,10.87,0,0,0,5,0s.06-.06.06-.11c-.76-5.14-1.41-10.3-2.13-15.45,0-.06-.1,0-.09,0,.44,3.14.81,6.3,1.23,9.44.23,1.68.46,3.35.68,5,0,.33.09.66.14,1,0-.1,0-.06-.21,0s-.67.1-1,.13A7.59,7.59,0,0,1,23,104.94,5.91,5.91,0,0,1,21.43,103c-.17-.34-.24-.73-.44-1a34,34,0,0,1-3.65-10,33.61,33.61,0,0,1-1.16-6.49,9.22,9.22,0,0,1,2.93-6.84A3.8,3.8,0,0,1,22,77.65c1,.09,1.37.75,1.94,1.62,2.21,3.38,2.46,7.65,3.82,11.36C27.73,90.64,27.74,90.64,27.74,90.63Z"/><path class="cls-54" d="M28.39,96.13c-3.09-3.18-3.39-8-6-11.5a9.48,9.48,0,0,0-3.15-3c-1.33-.65-1.81.71-1.85,1.8,0,.08.14.11.16,0,.08-.62.2-1.7,1-1.73.65,0,1.3.63,1.73,1a13.87,13.87,0,0,1,2.39,3.06l.11.21c-.58,1.76-1.12,3.61-1.55,5.42a9.67,9.67,0,0,0,.29,5.17s0,0,0,0a10.07,10.07,0,0,1-.39-2.94,12.35,12.35,0,0,1,.52-2.6,26,26,0,0,0,1.2-4.88c1.8,3.34,2.55,7.32,5.46,10C28.37,96.24,28.43,96.17,28.39,96.13Zm-7-11.87c0-.07-.13,0-.11,0,.53,2.82-.43,5.48-1.75,8,0,0,0,0,0,0C20.93,90,22.45,86.93,21.41,84.26Zm4.42,8.86c.05-.11-.1-.2-.15-.09-1,2.09-1.24,4.56.39,6.4,0,0,0,0,0,0C24.58,97.6,24.86,95.12,25.83,93.12Z"/></g></g></svg>