<svg xmlns="http://www.w3.org/2000/svg" xmlns:xlink="http://www.w3.org/1999/xlink" viewBox="0 0 112.18 171.38"><defs><style>.cls-1{fill:url(#linear-gradient);}.cls-2{fill:#783f30;}.cls-3{fill:url(#linear-gradient-2);}.cls-4{fill:url(#linear-gradient-3);}.cls-5{fill:url(#linear-gradient-4);}.cls-6{fill:url(#radial-gradient);}.cls-7{fill:url(#radial-gradient-2);}.cls-8{fill:url(#radial-gradient-3);}.cls-9{fill:url(#radial-gradient-4);}.cls-10{fill:url(#linear-gradient-5);}.cls-11{fill:url(#linear-gradient-6);}.cls-12{fill:url(#linear-gradient-7);}.cls-13{fill:url(#linear-gradient-8);}.cls-14{fill:url(#linear-gradient-9);}.cls-15{fill:url(#linear-gradient-10);}.cls-16{fill:url(#linear-gradient-11);}.cls-17{fill:url(#linear-gradient-12);}.cls-18{fill:url(#linear-gradient-13);}.cls-19{fill:url(#linear-gradient-14);}.cls-20{fill:url(#linear-gradient-15);}.cls-21{fill:url(#linear-gradient-16);}.cls-22{fill:#652d1f;}.cls-23{fill:url(#radial-gradient-5);}.cls-24{fill:#532219;}.cls-25{fill:#26120d;}.cls-26{fill:#3f190f;}.cls-27{fill:url(#linear-gradient-17);}.cls-28{fill:url(#linear-gradient-18);}.cls-29{fill:url(#linear-gradient-19);}.cls-30{fill:url(#linear-gradient-20);}.cls-31{fill:url(#linear-gradient-21);}.cls-32{fill:url(#linear-gradient-22);}.cls-33{fill:url(#linear-gradient-23);}.cls-34{fill:url(#linear-gradient-24);}.cls-35{fill:#fff;}.cls-36{fill:url(#linear-gradient-25);}.cls-37{fill:url(#linear-gradient-26);}.cls-38{fill:url(#linear-gradient-27);}.cls-39{fill:url(#linear-gradient-28);}.cls-40{fill:url(#linear-gradient-29);}.cls-41{fill:url(#linear-gradient-30);}.cls-42{fill:url(#linear-gradient-31);}.cls-43{fill:url(#linear-gradient-32);}</style><linearGradient id="linear-gradient" x1="56.09" y1="165.3" x2="56.09" y2="124.09" gradientUnits="userSpaceOnUse"><stop offset="0" stop-color="#783f30"/><stop offset="1" stop-color="#572619"/></linearGradient><linearGradient id="linear-gradient-2" x1="48.65" y1="77.66" x2="65.07" y2="91.15" xlink:href="#linear-gradient"/><linearGradient id="linear-gradient-3" x1="75.79" y1="79.88" x2="63.36" y2="86.68" xlink:href="#linear-gradient"/><linearGradient id="linear-gradient-4" x1="61.43" y1="5.75" x2="61.43" y2="58.3" gradientUnits="userSpaceOnUse"><stop offset="0" stop-color="#91513e"/><stop offset="1" stop-color="#783f30"/></linearGradient><radialGradient id="radial-gradient" cx="181.91" cy="661.1" r="55.03" gradientTransform="translate(1.86 -56.58) scale(0.34 0.25)" xlink:href="#linear-gradient-4"/><radialGradient id="radial-gradient-2" cx="784.16" cy="659.8" r="55.03" gradientTransform="matrix(0.22, 0.34, -0.25, 0.16, 15.25, -281.8)" xlink:href="#linear-gradient-4"/><radialGradient id="radial-gradient-3" cx="1305.89" cy="-227.55" r="55.03" gradientTransform="matrix(-0.18, 0.37, -0.27, -0.13, 266.67, -415.53)" xlink:href="#linear-gradient-4"/><radialGradient id="radial-gradient-4" cx="7.75" cy="731.77" r="46.95" gradientTransform="translate(62.26 -56.58) scale(0.25)" gradientUnits="userSpaceOnUse"><stop offset="0" stop-color="#572619"/><stop offset="1" stop-color="#783f30"/></radialGradient><linearGradient id="linear-gradient-5" x1="63.85" y1="87.39" x2="63.85" y2="69.21" xlink:href="#linear-gradient-4"/><linearGradient id="linear-gradient-6" x1="50.25" y1="90.53" x2="52.79" y2="92.73" xlink:href="#linear-gradient-4"/><linearGradient id="linear-gradient-7" x1="75.28" y1="90.9" x2="73.44" y2="92.57" xlink:href="#linear-gradient-4"/><linearGradient id="linear-gradient-8" x1="58.44" y1="97.66" x2="58.44" y2="48.57" xlink:href="#linear-gradient"/><linearGradient id="linear-gradient-9" x1="2.73" y1="88.82" x2="14.58" y2="80.03" xlink:href="#linear-gradient"/><linearGradient id="linear-gradient-10" x1="108.02" y1="90.42" x2="99.69" y2="84.56" xlink:href="#linear-gradient"/><linearGradient id="linear-gradient-11" x1="-2.26" y1="110.45" x2="-1.09" y2="107.87" xlink:href="#linear-gradient"/><linearGradient id="linear-gradient-12" x1="87.87" y1="119.08" x2="89.29" y2="115.95" xlink:href="#linear-gradient"/><linearGradient id="linear-gradient-13" x1="56.45" y1="133.14" x2="56.45" y2="78.95" xlink:href="#linear-gradient"/><linearGradient id="linear-gradient-14" x1="62.73" y1="109.8" x2="62.73" y2="99.77" xlink:href="#linear-gradient"/><linearGradient id="linear-gradient-15" x1="38.55" y1="70.56" x2="38.55" y2="60.18" xlink:href="#linear-gradient"/><linearGradient id="linear-gradient-16" x1="83.68" y1="70.66" x2="83.68" y2="61" xlink:href="#linear-gradient"/><radialGradient id="radial-gradient-5" cx="187.87" cy="1507.93" r="39.54" gradientTransform="translate(-0.92 -81.73) scale(0.34 0.14)" gradientUnits="userSpaceOnUse"><stop offset="0" stop-color="#7c4431"/><stop offset="1" stop-color="#652d1f"/></radialGradient><linearGradient id="linear-gradient-17" x1="-5.25" y1="116.66" x2="-3.86" y2="113.6" gradientUnits="userSpaceOnUse"><stop offset="0" stop-color="#5e2b1c"/><stop offset="1" stop-color="#3d150c"/></linearGradient><linearGradient id="linear-gradient-18" x1="106.31" y1="88.55" x2="103.49" y2="85.74" xlink:href="#linear-gradient-17"/><linearGradient id="linear-gradient-19" x1="62.83" y1="85.05" x2="62.83" y2="66.04" gradientUnits="userSpaceOnUse"><stop offset="0" stop-color="#3f190f"/><stop offset="1" stop-color="#783f30"/></linearGradient><linearGradient id="linear-gradient-20" x1="55.91" y1="35.13" x2="55.91" y2="3.55" gradientUnits="userSpaceOnUse"><stop offset="0"/><stop offset="1" stop-color="#2d4753"/></linearGradient><linearGradient id="linear-gradient-21" x1="55.91" y1="30.78" x2="55.91" y2="3.18" gradientUnits="userSpaceOnUse"><stop offset="0" stop-color="#0c1417"/><stop offset="1" stop-color="#436270"/></linearGradient><linearGradient id="linear-gradient-22" x1="55.91" y1="35.08" x2="55.91" y2="3.43" xlink:href="#linear-gradient-20"/><linearGradient id="linear-gradient-23" x1="38.79" y1="56.58" x2="38.79" y2="51.84" gradientUnits="userSpaceOnUse"><stop offset="0"/><stop offset="1" stop-color="#162329"/></linearGradient><linearGradient id="linear-gradient-24" x1="1678.53" y1="56.58" x2="1678.53" y2="51.83" gradientTransform="matrix(-0.79, 0, 0, 1, 1408.84, 0)" xlink:href="#linear-gradient-23"/><linearGradient id="linear-gradient-25" x1="82.21" y1="72.21" x2="82.21" y2="65.48" gradientUnits="userSpaceOnUse"><stop offset="0" stop-color="#39140a"/><stop offset="1"/></linearGradient><linearGradient id="linear-gradient-26" x1="82.21" y1="72.21" x2="82.21" y2="65.48" gradientUnits="userSpaceOnUse"><stop offset="0.01" stop-color="#652312"/><stop offset="1" stop-color="#210000"/></linearGradient><linearGradient id="linear-gradient-27" x1="82.21" y1="68.88" x2="82.21" y2="70.63" gradientUnits="userSpaceOnUse"><stop offset="0"/><stop offset="1" stop-color="#77726d"/></linearGradient><linearGradient id="linear-gradient-28" x1="1353.16" y1="72.4" x2="1349.04" y2="71.84" gradientTransform="matrix(-0.86, 0, 0, 1, 1249.67, 0)" gradientUnits="userSpaceOnUse"><stop offset="0" stop-color="#cf8b6e"/><stop offset="1"/></linearGradient><linearGradient id="linear-gradient-29" x1="37.17" y1="72.21" x2="37.17" y2="65.47" xlink:href="#linear-gradient-25"/><linearGradient id="linear-gradient-30" x1="37.17" y1="72.21" x2="37.17" y2="65.48" xlink:href="#linear-gradient-26"/><linearGradient id="linear-gradient-31" x1="37.17" y1="68.88" x2="37.17" y2="70.63" xlink:href="#linear-gradient-27"/><linearGradient id="linear-gradient-32" x1="38.26" y1="72.34" x2="34.39" y2="71.81" gradientTransform="matrix(1, 0, 0, 1, 0, 0)" xlink:href="#linear-gradient-28"/></defs><g id="Layer_2" data-name="Layer 2"><g id="_6_Face" data-name="6_Face"><path d="M63,171.38C18,171.38.4,160.29.22,160.18a.5.5,0,0,1,.1-.88c.2-.08,20.93-8.08,23.29-14.14s1.73-38.2,1.73-38.52a.48.48,0,0,1,.15-.37.51.51,0,0,1,.34-.13h0l63.69,4.22a.52.52,0,0,1,.36.19.52.52,0,0,1,.1.38c-.05.25-4.16,24.6-.39,33.51s22,15.15,22.23,15.21a.5.5,0,0,1,.33.43.47.47,0,0,1-.26.47c-.2.11-20.28,10.83-48.93,10.83Z"/><path class="cls-1" d="M.49,159.77s21.12-8.1,23.58-14.43,1.76-38.71,1.76-38.71l63.69,4.22s-4.22,24.63-.35,33.78,22.52,15.49,22.52,15.49S91.85,170.88,63,170.88C17.6,170.88.49,159.77.49,159.77Z"/><path d="M108,77.14c0-1.12-.1-2.29-.11-3.41a.74.74,0,0,0-.55-.71,9.19,9.19,0,0,1-1-.36,7.53,7.53,0,0,0-1.5-.48,5.64,5.64,0,0,0-1-.09l-.44,0c0-.52.06-1,.08-1.55.09-2.25.23-4.91.56-7.58.11-.95.24-1.9.37-2.84.18-1.3.36-2.65.5-4,.09-.82.18-1.64.26-2.46l.06-.64.16-.1a1.69,1.69,0,0,0,.63-1.86,2.07,2.07,0,0,0-.11-.37s0-.12,0-.14a1.18,1.18,0,0,1,.08-.18,5.74,5.74,0,0,0,.6-1.3,1.41,1.41,0,0,0-.19-1.09,1.2,1.2,0,0,1-.08-.15,1.49,1.49,0,0,0,.06-1.23,1.8,1.8,0,0,1,0-.19,1.21,1.21,0,0,0,.36-.89,1,1,0,0,0-.16-.49l.12-.13a1.48,1.48,0,0,0,.37-1,1.11,1.11,0,0,0-.59-1,1.73,1.73,0,0,0,.7-1.75,1.33,1.33,0,0,0-.22-.52c-.08-.13-.09-.16-.09-.2a.83.83,0,0,0-.21-.67h0a1.29,1.29,0,0,0,.2-1,2.27,2.27,0,0,0-.64-1,2,2,0,0,1-.4-.55c0-.12,0-.22.22-.5a1.87,1.87,0,0,0,.44-1,1.22,1.22,0,0,0-.41-.82l0,0,0,0a2.74,2.74,0,0,0,.13-.38,1.25,1.25,0,0,0-.5-1.3c.06-.1.1-.18.12-.22a1.4,1.4,0,0,0-.11-1.22,1.68,1.68,0,0,0-.53-.53l0-.12a1.56,1.56,0,0,0-.46-1.76,1.15,1.15,0,0,0-.56-.15l-.2,0a1.76,1.76,0,0,0-.36-.52,2.32,2.32,0,0,0,.2-.39,1.26,1.26,0,0,0-.49-1.6l0,0a1.49,1.49,0,0,0,0-.81,1.3,1.3,0,0,0-1.11-.94,1.72,1.72,0,0,0-.5-1.11,1.31,1.31,0,0,0-.64-.25,1.57,1.57,0,0,0,0-1,1.2,1.2,0,0,0-.53-.64,1.15,1.15,0,0,0-.11-.78,1.14,1.14,0,0,0-.83-.58,1.38,1.38,0,0,0-.25-.71,1.41,1.41,0,0,0-1-.58,1.41,1.41,0,0,0-.45-1,1,1,0,0,0-.69-.27,2.26,2.26,0,0,0-.54.09.94.94,0,0,1-.27.06h0l-.13-.09h0l0-.06a1.44,1.44,0,0,0,.12-1,1.36,1.36,0,0,0-.88-.91A1.42,1.42,0,0,0,95,15a1.23,1.23,0,0,0-.8-.36,3.91,3.91,0,0,0-.07-.39c0-.14,0-.26-.06-.35a.66.66,0,0,0-.64-.6.65.65,0,0,0-.2,0l-.06,0-.32.1a2,2,0,0,0-.63-.63,1.17,1.17,0,0,0-.35-.14l0-.19A.59.59,0,0,0,91.8,12a.65.65,0,0,0-.53-.27H91.1a1,1,0,0,0-.26-.82,1.32,1.32,0,0,0-.94-.37h0a1.2,1.2,0,0,0-.58-1,1,1,0,0,0-.56-.16l-.27,0c0-.06,0-.11,0-.17a1.13,1.13,0,0,0-1.1-.79,1.34,1.34,0,0,0-.82.27l-.18-.11a1.8,1.8,0,0,0-.39-.2h0V8.1a.63.63,0,0,0-.59-.63H85a1.26,1.26,0,0,0-.15-.56,1.06,1.06,0,0,0-1-.51,2.3,2.3,0,0,0-.71.13l0,0a1.16,1.16,0,0,0-.86-.61h-.17a.85.85,0,0,0-.42.11,1.53,1.53,0,0,0-1.46-1.14,1.69,1.69,0,0,0-.75.18,1.14,1.14,0,0,0-.88-.45,1,1,0,0,0-.57.17,2,2,0,0,0-1.24-.61,1.2,1.2,0,0,0-.54-.86,1,1,0,0,0-.58-.17,2.45,2.45,0,0,0-.39,0h0a1.34,1.34,0,0,0-1.11-.73h0a2,2,0,0,0-.84.19,1.45,1.45,0,0,0-1-.5,1,1,0,0,0-.65.25l-.17.17a1.91,1.91,0,0,0-.74-.15,1.14,1.14,0,0,0-.26,0A1.06,1.06,0,0,0,70,1.92a.87.87,0,0,0-.32-.06,1.86,1.86,0,0,0-.34,0,.37.37,0,0,0,0-.11c0-.07,0-.14,0-.2A.66.66,0,0,0,68.64,1a.54.54,0,0,0-.35.11,1.2,1.2,0,0,1-.35.11l-.19.05a3.2,3.2,0,0,0-.38-.42,1.57,1.57,0,0,0-.86-.28,1.16,1.16,0,0,0-.84.34A2,2,0,0,0,64.59.55h0a1.13,1.13,0,0,0-.71.28,1,1,0,0,0-.57-.16.92.92,0,0,0-.29,0h0l-.06-.1A1.06,1.06,0,0,0,62,.12a1.23,1.23,0,0,0-.84.33l0,0a1.21,1.21,0,0,0-.66-.22h-.14a1.18,1.18,0,0,0-.82.5s0,0,0,0l-.27-.1L59,.62a.58.58,0,0,0-.19,0,.57.57,0,0,0-.43.19A2.28,2.28,0,0,0,56.74,0a1.76,1.76,0,0,0-1.22.51,3.17,3.17,0,0,0-.87-.18,1,1,0,0,0-.72.27l-.11.11a4.47,4.47,0,0,0-.7-.24L52.77.36a.69.69,0,0,0-.2,0A.61.61,0,0,0,52,.76,1.86,1.86,0,0,0,51.56.7a1,1,0,0,0-.43.09l-.08,0a1.77,1.77,0,0,0-.18-.15l0,0a.94.94,0,0,0-.57-.18,1.82,1.82,0,0,0-1,.42l0,0a1,1,0,0,0-.45-.21,1.1,1.1,0,0,0-.26,0,1.23,1.23,0,0,0-1,.52A2.2,2.2,0,0,0,47,1a1,1,0,0,0-.29,0,1.26,1.26,0,0,0-1,.6.6.6,0,0,0-.09.22l-.36,0a3.06,3.06,0,0,1-.35,0h-.12a.6.6,0,0,0-.44.19.58.58,0,0,0-.16.43v0h-.18a2,2,0,0,0-.85.28L43,2.7l-.15.07a1.1,1.1,0,0,0-.59-.18,1.28,1.28,0,0,0-.72.25,1.79,1.79,0,0,0-.52.63,1.18,1.18,0,0,0-.56-.13,1.46,1.46,0,0,0-.6.14,1.24,1.24,0,0,0-.51.65,1.12,1.12,0,0,0-1.1.35A1.27,1.27,0,0,0,38,5l-.3-.07-.16,0a.6.6,0,0,0-.6.6v0h0a1.7,1.7,0,0,0-.69.13,1.87,1.87,0,0,0-.52.34.56.56,0,0,0-.39-.15.58.58,0,0,0-.45.2,2.62,2.62,0,0,1-.23.21,2.49,2.49,0,0,0-.42.39l-.06,0a1.71,1.71,0,0,0-.49-.1.64.64,0,0,0-.2,0,1,1,0,0,0-.79.77.75.75,0,0,1,0,.15h-.2l-.22,0a.57.57,0,0,0-.51.46,1.87,1.87,0,0,0,0,.75,4,4,0,0,0-.91-.1,5.52,5.52,0,0,0-.87.08.54.54,0,0,0-.39.28.61.61,0,0,0,0,.46,2.42,2.42,0,0,0-.77.31,1.47,1.47,0,0,0-.45.4l-.13-.06a1.12,1.12,0,0,0-.31,0,1.66,1.66,0,0,0-1.28.94,1.92,1.92,0,0,0-.19.62,7,7,0,0,1-.85.11.61.61,0,0,0-.49.34.59.59,0,0,0,0,.32l-.15,0a1.33,1.33,0,0,0-.87.86,1.57,1.57,0,0,0-.06.6,1.59,1.59,0,0,0-.55.24,1.76,1.76,0,0,0-.24.29l-.07.09a1.76,1.76,0,0,0-.34,0,1,1,0,0,0-.66.23,1.22,1.22,0,0,0-.46,1h0a1.86,1.86,0,0,0-.56.21,1.08,1.08,0,0,0-.47.94,1.06,1.06,0,0,0,0,.19,1.25,1.25,0,0,0-.78.62,1.1,1.1,0,0,0-.07.68l-.06,0a1.81,1.81,0,0,0-.37.26c0,.05,0,.05-.23.06a1.53,1.53,0,0,0-.62.1,1,1,0,0,0-.57.92v0h-.06l-.26,0a.57.57,0,0,0-.39.92l0,0,.05.07A.82.82,0,0,0,17,21a.94.94,0,0,0,.09,1,1.53,1.53,0,0,0-1,.59,1.85,1.85,0,0,0-.29.58c-.1.25-.1.25-.17.27a2.19,2.19,0,0,0-1.38,1.18,1.78,1.78,0,0,0-.14.71c0,.08,0,.18,0,.27a1.58,1.58,0,0,0-1,.87A1.1,1.1,0,0,0,13,27l-.15,0a1.16,1.16,0,0,0-.81.58,1.19,1.19,0,0,0,0,.92,2,2,0,0,0-.37.08l-.2.07a.53.53,0,0,0-.29.39.55.55,0,0,0,.14.47l.47.46a2.93,2.93,0,0,0-.59.62l0,0H11a1.65,1.65,0,0,0-.56.08A1.47,1.47,0,0,0,9.59,32a1.79,1.79,0,0,0,0,.47,2.07,2.07,0,0,1-.41.15.56.56,0,0,0-.38.78l.08.2a1.07,1.07,0,0,0,.07.19L8.64,34l-.08,0a.57.57,0,0,0-.29.43.58.58,0,0,0,.19.48,1.39,1.39,0,0,1,.24.28.76.76,0,0,1,.08.11l-.13.09a1.48,1.48,0,0,0-.5.88L8,36.3a1.34,1.34,0,0,0-1,1.43,1.48,1.48,0,0,0,.15.61L7,38.4a.55.55,0,0,0-.41.34.6.6,0,0,0,.08.56,2.9,2.9,0,0,1,.25.34l-.1.11c-.16.16-.47.62.09,1.37a1.57,1.57,0,0,0,.48.4l0,0v0l0,0H7.24a1.21,1.21,0,0,0-.61.15,1.45,1.45,0,0,0-.71,1.12,2.13,2.13,0,0,0,.09.69c0,.06,0,.14,0,.21a1.33,1.33,0,0,0-.78,1,1.78,1.78,0,0,0,.13.72.49.49,0,0,1,0,.11l0,0a.59.59,0,0,0-.21.47.56.56,0,0,0,.26.45l.27.21L6,47a1.89,1.89,0,0,0-.24.81c0,.1,0,.2,0,.27A1.15,1.15,0,0,0,5,49.43a1.92,1.92,0,0,0,.31.71,1.22,1.22,0,0,0-.5,1.27,2.08,2.08,0,0,0,.47.88h0c0,.05,0,.12,0,.19a1,1,0,0,0,.22.78,1.18,1.18,0,0,0,.56.37,2.21,2.21,0,0,1-.19.38,1.76,1.76,0,0,0-.61,1,1,1,0,0,0,.17.91,1.19,1.19,0,0,0-.38.79,1.7,1.7,0,0,0,.42,1.13,0,0,0,0,1,0,0,.93.93,0,0,0,.18,1.22,1.67,1.67,0,0,0,.63.31c0,.06,0,.11,0,.15a1,1,0,0,0-.64.36.79.79,0,0,0-.17.29,1.12,1.12,0,0,0,.31,1.14,1.22,1.22,0,0,0-.29.66,1.58,1.58,0,0,0,.25.9,1.12,1.12,0,0,0,.23.25,1.1,1.1,0,0,0-.14.94,1.3,1.3,0,0,0,.88.77c0,.12,0,.24,0,.36v.06a1.1,1.1,0,0,1-.17.21,1.5,1.5,0,0,0-.49.72,1.58,1.58,0,0,0,.37,1.33l.08.09a1.1,1.1,0,0,0-.09,1.15,2,2,0,0,0,.36.5,8.8,8.8,0,0,0-2.56,1.06C3,71,2.73,72.5,2.54,73.69c0,.21-.06.4-.1.58A41.4,41.4,0,0,0,2,84.72,12.44,12.44,0,0,0,2.76,88a48.71,48.71,0,0,0,2.69,6.16C6.23,95.71,7.1,97.26,8,98.77l.08.12a3.55,3.55,0,0,0,1.92,1.8,7.21,7.21,0,0,0,2.85.56,7.41,7.41,0,0,0,3.65-.92,46.75,46.75,0,0,0,3.53,12.52l.24.58a17.84,17.84,0,0,0,2,3.9c3,4,7.09,7.2,11.06,10,1.74,1.22,3.63,2.45,5.78,3.75,1,.6,2,1.21,3.31,1.92.26.15.57.29.86.43a6.17,6.17,0,0,1,1.47.84,21.56,21.56,0,0,0,4.52,3,29.67,29.67,0,0,0,13.8,3.28,34.22,34.22,0,0,0,11-1.83,22.05,22.05,0,0,0,8.92-5.38,11.32,11.32,0,0,0,2.21-3.19,3,3,0,0,0,.13-.36,1,1,0,0,1,.12-.3l.71-.82a54.55,54.55,0,0,0,9.56-15.37,47.82,47.82,0,0,0,2.07-7.15c.31-1.37.58-2.82.84-4.42a19,19,0,0,0,2.82-1.31,2.15,2.15,0,0,0,.74-1.2,2.49,2.49,0,0,1,.11-.27c.28-.62.54-1.24.78-1.83a9.52,9.52,0,0,0,.35-1.07,7.92,7.92,0,0,1,.34-1c.19-.41.39-.82.59-1.23s.27-.54.39-.81c.21-.44.42-.88.64-1.32.41-.84.84-1.71,1.21-2.6C108.29,85.25,108.12,81.13,108,77.14Z"/><path class="cls-2" d="M107.12,73.73a6.81,6.81,0,0,0-4.93-.88s-.12-10.32-.12-11,1.17-25.57,0-27.21.23-8.21-5.16-10.79c-4.63-2.22-10.46-5.63-15.57-4.34a1.54,1.54,0,0,0-.38-.36c-2.58-1.4-8.68-2.34-12.9-2.81s-30.5.7-36.37,3.52S19,35.78,19,35.78s-3.7,24.42-5.23,34c-2.53,0-4.5.08-4.5.08A7.33,7.33,0,0,0,4,71.26C1.9,76.72,2.78,85.69,2.78,85.69c1.76,6.51,6.51,13.9,6.51,13.9a7,7,0,0,0,7.39,0l.47.32-.12,0a50.25,50.25,0,0,0,5.1,16s4.23,7.75,23.05,17.78a27.23,27.23,0,0,0,19,6.15c12-.53,19.36-6.15,20.77-10.73a60.89,60.89,0,0,0,9.67-14.78s2-4,3.5-13.19h0a23.62,23.62,0,0,0,3-1.4c1.59-3.17,2.82-6.69,4.58-10C108.35,84.28,106.94,79.53,107.12,73.73Z"/><path class="cls-3" d="M52.1,88.45c1.43-1,2.63-4.15,3.32-5.72a27.2,27.2,0,0,0,2.08-7.07c.22-1.55.76-4.4,0-5.86-1.3-2.4-4.44,2.56-5.63,3.52-1.68,1.34-4,2.13-5.46,3.63s-2,4.16-2.14,6.1C44,87.21,46.12,90.66,49,93.25a9.07,9.07,0,0,1,2.49-4.33Z"/><path class="cls-4" d="M72.89,88.77a8.41,8.41,0,0,0-1.65-3.43c-.63-1-1.8-2.22-1.87-3.43a61.76,61.76,0,0,1-.52-12.32,41.46,41.46,0,0,0,1.58,4.66c.44.71,6.95,5.2,8,9.15s-1.5,9.95-1.5,9.95-1.32-3.52-3.43-4.14Z"/><path class="cls-5" d="M30.29,52s-1.88-15.72,3.05-19.24,15.95-10.32,34.48-8.44c0,0,20.88,3.28,23.69,10.79S91,45.17,92.92,55L77.2,60.18,70.87,63l-16.66-.7-15-4.22Z"/><path class="cls-6" d="M63.22,93.61c-10.25,0-18.57,6.1-18.57,13.64S53,120.88,63.22,120.88s18.56-6.1,18.56-13.63S73.47,93.61,63.22,93.61Z"/><path class="cls-7" d="M14,73.06c.86,5.22,1,10.71,1.73,15,.73,4.52,3.15,9,4.51,13.36a58.27,58.27,0,0,0,6,13.29,12.72,12.72,0,0,0,6.37-2c7.67-4.89,8.49-17.32,1.83-27.77C29.22,76.87,21,72.34,14,73.06Z"/><path class="cls-8" d="M100.71,72.89C94.37,74,87.94,79.25,84.24,87c-5.33,11.18-3,23.41,5.21,27.33a12.43,12.43,0,0,0,4.1,1.14l-.16-2.06c0-5.39.2-12.2,3.34-16.89,1.14-1.71,2.75-2.76,3.7-4.7a16.63,16.63,0,0,0,1.41-4.91C102.48,82.61,100.52,77.51,100.71,72.89Z"/><path class="cls-9" d="M52.22,126l3.34-1.93s13,.88,17.42-.53l1.94,2.11A83.35,83.35,0,0,1,52.22,126Z"/><path class="cls-10" d="M64.42,95.13a10.46,10.46,0,0,1-5.77-1.79c-3.25-2.33-3.11-6-.33-8.76,2-2,2.35-10.68,2.11-15.13a10.42,10.42,0,0,1,7.51-.24s-.7,9.74.82,13.49c0,0,1.06,2,1.64,3S72,89.27,71.1,91,68.29,95.37,64.42,95.13Z"/><path class="cls-11" d="M49,92.38c.44.7,0,1.33,1,1.74,1.36.58,2.43-.51,2.75-1.7a7.51,7.51,0,0,0-.39-4.08c-1.16.66-2.58,2-2.8,3.33a2.16,2.16,0,0,0,0,.44Z"/><path class="cls-12" d="M76.68,94.05c-.55,2.68-2.26-.58-2.91-1.32-.49-.56-1.21-.89-1.47-1.58a6.39,6.39,0,0,1-.1-2.43c2.11.65,4.3,2.3,4.3,4.71Z"/><path class="cls-13" d="M16.86,78.65S18.79,67.92,22,62.82s5.28-9.33,6.33-14.61S27.41,34.84,32.51,31s31.85-16,57.36-.35a11.1,11.1,0,0,1,3.87,8.8c-.35,5.45,0,13,.88,15.3s5.46,12.5,6.34,20.59l.7-8.8s1.58-16.18,1.06-16.71,0-14.08-.88-14.78S99.55,25.87,98,24.64s-8.26-4.58-11.78-5.1-22.35-2.47-28-2.29-24.1,3.69-24.81,3.69S22.49,27.1,20.9,29.56s-4.57,13.73-4.57,15.66S14.74,56.13,14.22,60s.35,8.1.35,10a31.93,31.93,0,0,0,.35,5.1Z"/><path class="cls-14" d="M15.62,92.2c-1.82.93-5.59-.2-6.1-2.34-.28-1.16.26-2.5-.11-3.65-.26-.82-1.44-2.16-2.24-1,0-.92,1.82-4.17-.44-3.73.34-1.08.65-2.29-.61-2.68-1.48-.45-2,.83-2.55,1.87a13.39,13.39,0,0,1,.76-5.51c1.14-2.88,3.67-.12,4.72,1.44a21.39,21.39,0,0,1,3.62,7.27c.28,1.2-.07,2.54.61,3.58S15,89,15.71,89.85a4,4,0,0,1,.85,1.41Z"/><path class="cls-15" d="M100,94.78c2.06.53,2.67-2.63,2.81-4,.1-1,.55-4.93,2.22-2.83a6.65,6.65,0,0,1-.58-1.73,7.54,7.54,0,0,1,.85-2.22,2,2,0,0,1,.89.76c.25-1.59.77-3.43.26-5-.92-2.86-2.9,1.29-3.43,2.43-.93,2-.61,3.72-1,5.78-.45,2.27-2.25,3.79-2.82,6.1Z"/><path class="cls-16" d="M14,88C13,84.46,10.52,71.26,4.89,73l-1,4.28s.82-2.46,1.41-2.58,2.35,2,2.35,2,3.63,5.86,3.63,7.39a15.06,15.06,0,0,1-.47,3.28,3.71,3.71,0,0,0,1.76,4.34c2.7,1.53,3.76-.47,3.76-.47Z"/><path class="cls-17" d="M102.36,83.76c.36-2.47,1.94-4.75,3.35-6.87h.35c.18,1.06.18,2.12.35,3.35l-.82-.94s-2.35,4-2.58,6-.47,3.29-.47,3.29.47,4.92-2.58,5.16l-.12-1.53,1.53-2.93Z"/><path class="cls-18" d="M33.22,119.65c-1.41-4.22-6.51-14.08-10.91-19.88s-5.45-21.29-5.45-21.29l-3.35-.35a7.31,7.31,0,0,1,.69,2.19l-1,1.32L10.7,76.89,14,87.5a13.5,13.5,0,0,1-.66,2.77C13,90.79,15.45,92,15.45,92a6.26,6.26,0,0,1,.7,4.92,5.28,5.28,0,0,1-3.77,3.67,6.64,6.64,0,0,0,4.3-1l.47.32-.12,0a50.25,50.25,0,0,0,5.1,16s4.23,7.75,23.05,17.78C45.18,133.73,34.63,123.87,33.22,119.65Zm69-36.95a18.62,18.62,0,0,1-4.4,11.44c-2.46,3.16-3.34,6.51-6.16,16.89a110.37,110.37,0,0,1-6.86,18.47l0,.07.15-.42a60.89,60.89,0,0,0,9.67-14.78s2-4,3.5-13.19h0l.25-.1c0-1.69-.07-3.41-.07-3.41A30.2,30.2,0,0,0,102.19,82.7Z"/><path class="cls-19" d="M70.61,93.7c-2.55,3-7.39,3.25-9.5,2.46s-3.79-2.37-6.6-2.29-4.31,3-4.31,3l2.11,1.85a18.4,18.4,0,0,0,8.4,4.09c.53.64,1.63,1.85,2.59,2s2-1.25,2.46-2c4.4-.84,6.67-3.57,7.48-3.72,1-.17,2-2.11,2-2.11C74.92,93.87,70.61,93.7,70.61,93.7Z"/><path class="cls-20" d="M26.36,69.68s-5.46-3-3.52-6.33,9.85-7.57,9.85-7.57l7.39.35,7.74,4L52,63l2.64-.17s0,8.8-7,9.15Z"/><path class="cls-21" d="M72.63,72s-3.52-4.75-1.94-9.33c0,0,4,0,4.4-.53s3.52-3.87,3.52-3.87S83,56.48,84.24,57s4.05.35,4.93.71,5.28,2.63,5.28,2.63l2.63,3s-.17,5.45-4.92,6.33S78.79,72,78.26,71.79a36.76,36.76,0,0,0-4.05-.17Z"/><path class="cls-22" d="M41.6,112.85s4.08,2.93,5.86,4.34,5.55,6,12.19,6.33,10.47-.35,13.65-3.69A51.26,51.26,0,0,1,82,112.7l-5.42-.35-8.69-1.59-12.35.18Z"/><path class="cls-23" d="M73.3,119.83c.19-.21.39-.41.59-.61-2.34-1.5-6.51-2.5-11.28-2.5-5.4,0-10,1.28-12.12,3.11a15.76,15.76,0,0,0,9.16,3.69C66.29,123.87,70.12,123.17,73.3,119.83Z"/><path class="cls-24" d="M76.57,112.35l-8.69-1.59-12.35.18L41.6,112.85s4.08,2.93,5.86,4.34c.23.18.5.42.81.7-.43-.55-1.35-1.91-.56-2.46,1-.71,10.85.47,15.58.23s11.35-1,12-.35-1.56,3.92-1.94,4.49A51.22,51.22,0,0,1,82,112.7ZM58.93,122.82a19.79,19.79,0,0,1-7.73-2.58l0,.11a15.36,15.36,0,0,0,8.47,3.17c6.05.32,9.77-.24,12.79-2.88l0-.17C68.78,123.05,62.79,123.05,58.93,122.82Z"/><path class="cls-24" d="M81,112.35c-1.19.26-2.15-.27-3.65-1.41s-3.93-3.34-6.17-4.4-4.86-.17-6.27.71a4.38,4.38,0,0,1-3.18.35,10.78,10.78,0,0,0-5-1.32c-5.15.61-11.88,6.07-13.75,6.24s-4-2.37-4-2.37c4.11,6.86,14.4,2.11,20.76,3.34l.38.18a13.57,13.57,0,0,0,3.55.88,11.81,11.81,0,0,0,2.2-1.33c5.63-.91,16.92,2.55,18.37-3.42C84.24,109.8,82.56,112,81,112.35Z"/><path class="cls-25" d="M59.77,113.4c-6.66-1.75-16.24,3.8-20.78-3.26,0,0,0,0,0,0,1.92,3.24,5.43,3.89,9.09,3.94,3.91,0,7.77-.92,11.68-.5A.1.1,0,0,0,59.77,113.4Zm24.43-3.61c-1.13,3.47-5.34,3.58-8.57,3.49-3-.08-6.2-.72-9.22-.24a5.23,5.23,0,0,0,1.08-1.44.09.09,0,0,0-.15-.11,13.89,13.89,0,0,1-1.93,1.76h-.08a.05.05,0,0,0,0,.07c-.24.16-.48.32-.74.47a2.75,2.75,0,0,1-2,.49,10.31,10.31,0,0,1-2.39-.65,0,0,0,0,0,0,.06,10.5,10.5,0,0,0,2.08.66,4,4,0,0,1,1.38.36c.14.1.37,0,.49-.1a8.71,8.71,0,0,0,2.12-1.36,31,31,0,0,1,4.52,0c2.07.12,4.13.24,6.2.23,2.89,0,6.74-.49,7.38-3.7A0,0,0,1,0,84.2,109.79Z"/><path d="M58.91,97s-3-3-5.46-1.41a3.35,3.35,0,0,0,2.38,1.94A3.79,3.79,0,0,0,58.91,97Z"/><path d="M69.11,97.66a5.92,5.92,0,0,0,2.29-.36,2.54,2.54,0,0,0,1.49-1.58,2.45,2.45,0,0,0-1.84,0Z"/><path class="cls-2" d="M58.32,84.34s4.81-2.7,11.5-.23l-.36-1.41A15.81,15.81,0,0,0,58,82.94Z"/><path class="cls-26" d="M16.67,99.58a6.9,6.9,0,0,1-6.57.38c-.93-.43-1.24-1.27-1.73-2.13A54.64,54.64,0,0,1,3.11,86.16a10.79,10.79,0,0,1-.28-2.6,50.86,50.86,0,0,1,0-5.24,26.62,26.62,0,0,1,1-6.15A1.6,1.6,0,0,1,4.85,71a7.58,7.58,0,0,1,3.07-1A5.82,5.82,0,0,1,9.24,70c.23,0,.33-.31.1-.35A7.13,7.13,0,0,0,4.4,70.76c-1.12.68-1.21,2.43-1.44,3.61a41.47,41.47,0,0,0-.44,10.32,11.56,11.56,0,0,0,.74,3.15,46.57,46.57,0,0,0,2.67,6.1q1.17,2.32,2.54,4.55a3.27,3.27,0,0,0,1.75,1.72,7.07,7.07,0,0,0,6.47-.61s0,0,0,0Z"/><path class="cls-27" d="M15.55,92.1c-.6-.55-1.26-1-1.87-1.57s-.08-1.58.26-2.16c.05-.09-.09-.17-.15-.08-.36.58-.38,1.35-.76,1.9a.15.15,0,0,0,0,.18,10.59,10.59,0,0,0,2.32,1.95A.14.14,0,0,0,15.55,92.1ZM11.39,80.24s0,0,0,0c-1.44-2.36-2.69.88-3.22,2.15a16.31,16.31,0,0,0-1.45,4.14A5.63,5.63,0,0,0,8,90.65s.11,0,.08-.06A6.59,6.59,0,0,1,6.87,87a9.82,9.82,0,0,1,.93-3.26c.37-.92.73-1.84,1.14-2.74a4.69,4.69,0,0,1,.76-1.2C10.32,79.08,11,79.7,11.39,80.24Zm.69,6.18a3.07,3.07,0,0,0,.83-2A23.62,23.62,0,0,0,14,88c.05.11.2,0,.19-.08a39.59,39.59,0,0,0-1.08-4.29A42.42,42.42,0,0,0,11.22,78C10.16,75.52,8.16,71.91,4.88,73c0,0,0,.08,0,.07a3.15,3.15,0,0,1,2.45.34c2.26,4.83-2.71,9.33-1.41,14.23H6c-1-4.69,3.92-9.53,1.72-14,1.74,1.23,2.87,3.91,3.54,5.59a46.77,46.77,0,0,1,1.53,4.6c.08,1.4-.72,2.3-1.64,3.23a4.24,4.24,0,0,0-1.36,2.71c-.2,2.31,2.5,3,3,4.94a0,0,0,1,0,.07,0,4.45,4.45,0,0,0-1.33-2.19c-1-.92-1.62-1.73-1.41-3.14C10.27,88.09,11.32,87.3,12.08,86.42Z"/><path class="cls-26" d="M17,99.94a46,46,0,0,0,3.52,12.7,20.65,20.65,0,0,0,2.2,4.38c2.92,3.94,7,7.08,11,9.87,1.87,1.32,3.79,2.55,5.75,3.73,1.08.65,2.18,1.29,3.29,1.91a13.5,13.5,0,0,1,2.42,1.34,21.21,21.21,0,0,0,4.42,3c7.46,3.93,16.52,4.1,24.42,1.42A21.78,21.78,0,0,0,82.69,133a10.88,10.88,0,0,0,2.11-3,3.14,3.14,0,0,1,.33-.8c.24-.26.48-.54.71-.81a54.44,54.44,0,0,0,9.47-15.21,47,47,0,0,0,2-7.08c.43-2,.78-4,1.07-6l.18-1.31a6.17,6.17,0,0,1,.2-1.63c.23-.42.44-.86.65-1.29a25.85,25.85,0,0,0,2.73-10.64,53.37,53.37,0,0,0-.41-7.47c0-.14-.25-.15-.24,0a52.67,52.67,0,0,1,.32,8.42A25.44,25.44,0,0,1,98.54,97a4,4,0,0,0-.14,1.1c-.09.73-.2,1.47-.3,2.2-.18,1.23-.39,2.45-.63,3.68-.34,1.82-.76,3.63-1.26,5.41a29.05,29.05,0,0,1-1.68,4.8,65.85,65.85,0,0,1-6.13,10.4c-.9,1.23-1.85,2.44-2.85,3.6q-.3.38-.63.72a3.31,3.31,0,0,0-.38.86c-1.18,2.78-3.83,4.81-6.37,6.26a31,31,0,0,1-13,3.62c-6.79.49-14.07-1.31-19.41-5.68a17.64,17.64,0,0,0-2.58-1.55c-2.22-1.22-4.39-2.52-6.53-3.89a74.3,74.3,0,0,1-9-6.7,29.26,29.26,0,0,1-5.23-5.66l-.18-.3a43.14,43.14,0,0,1-2.48-5.66,44.11,44.11,0,0,1-2.69-10.31s-.05,0,0,0Z"/><path class="cls-26" d="M102.2,72.91a7.79,7.79,0,0,1,2.41,0c.53.08,2.33.4,2.29,1.14a40,40,0,0,0,.1,4.24,31.43,31.43,0,0,1-.28,8.22c-.62,2.83-2.26,5.31-3.27,8-.31.81-.82,1.49-1.18,2.27s-.62,1.35-1,2a2.66,2.66,0,0,1-1.55,1.39c-.58.28-1.15.55-1.74.81-.23.09-.06.48.17.39a18.41,18.41,0,0,0,3.07-1.39c.3-.17.48-.92.63-1.23.27-.59.52-1.2.77-1.81s.4-1.44.7-2.12.66-1.37,1-2.06c.61-1.29,1.28-2.57,1.84-3.89,2-4.81,1.14-10.1,1.11-15.15a.22.22,0,0,0-.14-.2c-.87-.21-1.61-.67-2.51-.83a6.52,6.52,0,0,0-2.49.09c-.08,0,0,.13,0,.12Z"/><path class="cls-28" d="M106.1,76.89s0,0,0,0c-.37-.15-.4-.15-.66.17a22.83,22.83,0,0,0-1.4,2.12l-.21.36s-.07,0-.07,0,0,.08,0,.13a11,11,0,0,0-1.5,4.11c0,.17.27.21.31,0a12,12,0,0,1,1.06-3,18.05,18.05,0,0,0,.2,4.09,8.13,8.13,0,0,0,.7,2.36c.17.34.44.51.37.92a5.51,5.51,0,0,1-.4,1.74s0,.07.06,0a3.21,3.21,0,0,0,.34-1.06,6.86,6.86,0,0,0,.24-1.07c0-.19-.28-.52-.36-.7a7.54,7.54,0,0,1-.54-1.6,23.23,23.23,0,0,1-.36-5.2c.31-.6.66-1.18,1-1.76l.67-1c.24-.38.47-.94.59,0s.14,1.85.27,2.78c0,0,.07,0,.06,0C106.3,79.13,106.21,78,106.1,76.89Zm-4.17,10.43A7.57,7.57,0,0,1,101.3,95s0,0,0,0a7.39,7.39,0,0,0,.78-7.79A.09.09,0,1,0,101.93,87.32Z"/><path class="cls-29" d="M49.45,95c-.87-2.6.89-4.8,2.65-6.47a.09.09,0,0,0-.1-.14A6.44,6.44,0,0,0,49,95c.59,2.84,3.33,4.12,5.89,4.62,0,0,0,0,0,0A7.55,7.55,0,0,1,49.45,95Zm2.76,1.73s0,0,0,0c1.7-3.07,6.4-.66,7.89,1.41,0,0,.05,0,0,0C58.68,95.61,53.9,93.17,52.21,96.77Zm21.28.7a0,0,0,0,0,0,0c.76-1.65-1-2.31-2.33-2a4.3,4.3,0,0,0,.29-.78.1.1,0,0,0-.18-.08,8.94,8.94,0,0,1-9.22,4.58c-.07,0-.1.09,0,.1,3,.63,7.33-.6,9-3.46a3,3,0,0,1,1.74,0C73.55,96,73.69,96.76,73.49,97.47Zm-1-8.9c-.14,0-.2.17-.06.23,2.11.8,3.75,2.31,3.89,4.68A6.77,6.77,0,0,1,73.14,99s0,.09,0,.07c2.07-1.24,3.67-3.09,3.65-5.62S74.71,89.23,72.48,88.57Zm-2.62-4.94A33,33,0,0,1,72.62,88s0,0,0,0a25.22,25.22,0,0,0-2.17-4.07A13.74,13.74,0,0,1,69,79c-.42-3.26-.14-6.58-.22-9.86a0,0,0,0,0-.08,0,71.64,71.64,0,0,0,0,10.15C68.93,80.68,69,82.46,69.86,83.63Z"/><path class="cls-30" d="M105.47,43.29c1.18.23.94,1.29-.11,1.76.82.35.7.82,0,1.29.58.58.46,1,0,1.64,1.17.59,0,1.88-.36,2.7a1.18,1.18,0,0,1-.47,2s-.46,5.16-1,9a105.58,105.58,0,0,0-.82,11.5,66.14,66.14,0,0,1-.94,7.62s-.59-4.45-1.17-8.68-.59-10.44-2.47-14L98,57.6a3.24,3.24,0,0,1-.59-1.53c0-.7.35-15-1.53-21L95.38,35c-.11-.35-.7-.47-.35-1.06v-.11l-.11-.12a.84.84,0,0,1-.59-1.41c-1.06.35-2-.35-1.06-1.29-1,.35-1.29-.12-.47-.7a9.63,9.63,0,0,0-.58-1.17c-.82.58-1.53,0-1.41-.94-.82.82-2,.47-1.29-.71-.94.47-2.11.12-1.17-.94a6.09,6.09,0,0,1-1.18-.7c-.58.59-1.17,0-1.29-.82-.47,1.06-1.76.94-1.17-.24a3.68,3.68,0,0,1-2,.24,9.19,9.19,0,0,1,.58-1.06c-.58.71-1.4,1.06-1.76.12-.58.94-1.4.59-1.87-.35l-.24-.24a1.24,1.24,0,0,1-1.76-.58c-.47.82-1,.82-1.4-.12-.47.94-1.29.7-1.41-.23-.35.23-.82,0-1.06.11.12-.23.12-.58.35-.82-.82.24-1.64.35-2.11-.23-.35.94-1.29.7-1.87.12-.12.23-.35.46-.35.7-.24-.24-.71-.47-.83-.7-.58.82-1.4.82-1.52-.24a3.45,3.45,0,0,0-1.06.24v-.47a1.35,1.35,0,0,1-2-.12c-.12.23-.23.47-.35.7-.12-.23-.59-.23-.94-.47-.35.82-.94.82-1.53.12a1.27,1.27,0,0,1-1.4.35v-.47c-.94,0-1.88.71-2.82-.35,0,.59-.35.59-.47.94a2.45,2.45,0,0,1-.58-.35c-.59.58-1.18.58-1.65,0a1.12,1.12,0,0,1-1.76.35c.12.94-.23.82-1.05.59l-.59-.12c-.35-.12-.82.12-1.29-.24,0,.94-.35.94-1.05.36-.24.93-.71.93-1.29.23-.36.94-1.06,1.29-1.41.24-.24,0-.94.11-1.06.11-.11.82-.7,1.18-1.52.71.35,1.05-.35,1.29-1.17.58-.12.94-.71,1.41-1.41.71-.71.35-.47.47-1.17.23-.24.71-.59.82-1.3.71-.47.7-.23.7-1,.46-.12.83-.24.71-1.06.59-.35,1.06-1.52,1.29-1.52.12-.35,0-1.06.35-1.29.35.35.94-.12,1.17-1.06.82.12.82-.12,1.06-.7.59-.35.7-.94,1.05-1.41.35l-.64.59c-2.82,1.58-5.11,5.27-5.11,5.27a108.64,108.64,0,0,1-.88,14.26c-4.75,4.4-7.56,14.42-7.74,17.42S16.68,79,16.68,79a4.74,4.74,0,0,1-1.76,1.93c-1.06-1.58-5.45-10.73-5.45-10.73A2.47,2.47,0,0,0,7.53,70l-.47-.11c.24-.24.35-.47.59-.71-.94-.47-1.18-1.17-.35-1.64-.83-.47-1.18-1.53-.12-1.88a6.38,6.38,0,0,1,.23-1.41C6.24,64.4,6,63.7,6.83,63c-.94-.35-1.18-1.4,0-1.64-.94-.23-1.29-1.52-.12-1.29,0-.23.23-1.05.23-1.17-.94,0-1.4-.47-.7-1.17-.82-.59-.82-1.29.12-1.76-.82-.47-.59-1.18.11-1.65.12-.23.24-.82.36-1.17-.83,0-1.29-.35-.71-.94-1-.7-.94-1.76.35-1.87-1-.47-1.29-1.88,0-1.76a1.24,1.24,0,0,1,.59-1.76c-.82-.12-.7-.35-1.29-.71.12-.11.35-.23.47-.35-.7-.7-.47-1.41.59-1.64-.59-.82-.47-2.23.82-1.88a7.44,7.44,0,0,0,.47-.94c-.82-.23-1.53-1.17-.47-1.4-.24-.24-.35-.71-.59-.94.35,0,.59-.35.94-.35-.82-.83-.47-2,.7-1.76-.11-.71.24-1.18,1.06-1.41-.47-.24-.59-.7-.94-.94a2.2,2.2,0,0,1,.94-.35,3.45,3.45,0,0,1-.47-.94c.23,0,.59-.35.94-.35-.35-.94.35-2,1.17-1.41a2.17,2.17,0,0,1,1.17-1.29l-.93-.94a1.54,1.54,0,0,1,.7-.11l.35-.24c-.59-.94-.12-1.41.94-1.29a1,1,0,0,1,1.06-1.52,1.61,1.61,0,0,1,1.52-2.12,1.26,1.26,0,0,1,1.29-1.4l.24-.47c-.24-.59-.71-.82.35-.94-.12-.12-.24-.59-.47-.82a2.45,2.45,0,0,1,.94,0c-.24-.82,0-1.29.82-.94.47-.35.35-.59,1.17-.7-.59-.94,0-1.18.94-1.18-.71-.82-.24-1.41.82-1.29-.35-.94.23-1.41,1.06-.94.11-.7.7-.93,1.4-.82-.7-1,.12-1.64,1.06-1.52a1.23,1.23,0,0,0-.24-.59A5.16,5.16,0,0,1,27,12.2c-.23-1,.82-2.11,1.53-1.17a1.44,1.44,0,0,1,1.87-.94c-.11-.23-.23-.58-.35-.82a3.36,3.36,0,0,1,1.88.12L32.4,9a1.3,1.3,0,0,1-.12-.94,2.45,2.45,0,0,1,.94,0c-.12-1.06.47-1.17,1.29-.7.12-.47.59-.59.82-.94a1.46,1.46,0,0,1,.35.47,1.53,1.53,0,0,1,1.88-.71v-.7c.23.12.7,0,1,.12-.11-.94.36-1.18,1.18-.71,0-1,.82-1.41,1.52-.35.12-.94.94-2,1.53-.94a1.36,1.36,0,0,1,2-.35c0-.23-.12-.7-.12-.94.36.12.94,0,1.29.24,0-1.18.94-1.29,1.65-.36.23-1,1.05-1.29,1.52-.35.47-.82,1.53-1.17,1.64-.12a1.05,1.05,0,0,1,1.64-.11,1.48,1.48,0,0,0,.12-.71c.59.24.94.12,1.41.71.35-.94,1.06-.94,1.64-.24C56.44.12,58,.59,58.32,2l.35-.23a1,1,0,0,1,.12-.59c.23.12.7.12.94.35.35-.94.94-.82,1.41-.12.46-.94,1.29-.94,1.4.12.82-.35.82-.35,1.41.24.35-1.06,1.29-.47,1.88.11.35-1,1.29-.82,1.64.24.23-.24.94-.24,1.17-.47,0,.35.24.82.24,1.17.7-.47,1.17-.47,1.17.35a1.42,1.42,0,0,1,1.64.24c.35-.94,1.06-.82,1.41.11.7-.7,1.76-.7,1.76.59.82-.7,1.64-.35,1.29.7A1.5,1.5,0,0,1,78,5.75c.46-.94,1-.7,1.29.24.7-.82,1.76-.71,1.87.47l.71.47c-.12-.59.82-.71.93.47.94-.59,2-.59,1.41.7a3.12,3.12,0,0,1,1.06,0,2.22,2.22,0,0,1-.12.82,2.2,2.2,0,0,1,1.41.59c.82-.94,1.52-.24,1.29.82,1.05-.71,1.76-.12,1.17,1.05.94-.47,1.88-.23,1.17.82.36,0,.82.24,1.06.12-.12.24-.12.82-.24,1.06.71-.24,1.18.11,1.41.82.24-.12.71-.12.94-.24a6.11,6.11,0,0,1,.12,1.41c1-.35,1.52.47,1,1.29,1.18-.12,1.41.82.59,1.64a10,10,0,0,1,1.17.71c.94-.71,1.41-.12,1.18.94,1-.24,1.64.47,1,1.4,1.06-.47,1.64.24.82,1.06,1.06-.12,1.29.82.47,1.64l.24.35c1-.7,1.52.24,1.29,1.18,1.17-.36,1.52.7.82,1.52,1.29,0,1,.94.47,1.64.47.59.58.47.7,1.29,1.29-.82,1.29.71.82,1.53,1.06.23,1.18,1.17.35,1.88,1.06.23,1.06.93.47,1.64,1.53.82-.11,1.29,0,2.23.12,1.17,1.88,1.29.59,2.69.7.36.35.24.47.94.7.59.23,1.29-.47,1.76Z"/><path class="cls-31" d="M56.8,4.65v0ZM91.26,17.17a.78.78,0,0,0-.32.18A1.11,1.11,0,0,0,91.26,17.17Zm-82.69,42h0S8.61,59.2,8.57,59.16Zm96.9-15.87.12-.59c.7-.47,1.17-1.17.47-1.76-.12-.7.23-.58-.47-.94,1.29-1.4-.47-1.52-.59-2.69-.11-.94,1.53-1.41,0-2.23.59-.71.59-1.41-.47-1.64.83-.71.71-1.65-.35-1.88.47-.82.47-2.35-.82-1.53-.12-.82-.23-.7-.7-1.29.58-.7.82-1.64-.47-1.64.7-.82.35-1.88-.82-1.52.23-.94-.24-1.88-1.29-1.18l-.24-.35c.82-.82.59-1.76-.47-1.64.82-.82.24-1.53-.82-1.06.59-.93,0-1.64-1-1.4.23-1.06-.24-1.65-1.18-.94a10,10,0,0,0-1.17-.71c.82-.82.59-1.76-.59-1.64.47-.82,0-1.64-1-1.29A6.11,6.11,0,0,0,93.39,14c-.23.12-.7.12-.94.24-.23-.71-.7-1.06-1.41-.82.12-.24.12-.82.24-1.06-.24.12-.7-.12-1.06-.12.71-1-.23-1.29-1.17-.82.59-1.17-.12-1.76-1.17-1.05.23-1.06-.47-1.76-1.29-.82a2.2,2.2,0,0,0-1.41-.59,2.22,2.22,0,0,0,.12-.82,3.12,3.12,0,0,0-1.06,0c.59-1.29-.47-1.29-1.41-.7-.11-1.18-1-1.06-.93-.47l-.71-.47C81.08,5.28,80,5.17,79.32,6c-.24-.94-.83-1.18-1.29-.24a1.5,1.5,0,0,0-1.88-.94c.35-1-.47-1.4-1.29-.7,0-1.29-1.06-1.29-1.76-.59-.35-.93-1.06-1-1.41-.11a1.42,1.42,0,0,0-1.64-.24c0-.82-.47-.82-1.17-.35,0-.35-.24-.82-.24-1.17-.23.23-.94.23-1.17.47-.35-1.06-1.29-1.29-1.64-.24C65.24,1.3,64.3.71,64,1.77c-.59-.59-.59-.59-1.41-.24-.11-1.06-.94-1.06-1.4-.12-.47-.7-1.06-.82-1.41.12-.24-.23-.71-.23-.94-.35a1,1,0,0,0-.12.59L58.32,2C58,.59,56.44.12,55.62,1.41,55,.71,54.33.71,54,1.65c-.47-.59-.82-.47-1.41-.71a1.48,1.48,0,0,1-.12.71,1.05,1.05,0,0,0-1.64.11c-.11-1-1.17-.7-1.64.12-.47-.94-1.29-.7-1.52.35C46.94,1.3,46,1.41,46,2.59c-.35-.24-.93-.12-1.29-.24,0,.24.12.71.12.94a1.36,1.36,0,0,0-2,.35c-.59-1.05-1.41,0-1.53.94-.7-1.06-1.52-.7-1.52.35-.82-.47-1.29-.23-1.18.71-.35-.12-.82,0-1-.12v.7a1.53,1.53,0,0,0-1.88.71,1.46,1.46,0,0,0-.35-.47c-.23.35-.7.47-.82.94-.82-.47-1.41-.36-1.29.7a2.45,2.45,0,0,0-.94,0A1.3,1.3,0,0,0,32.4,9l-.47.35a3.36,3.36,0,0,0-1.88-.12c.12.24.24.59.35.82a1.44,1.44,0,0,0-1.87.94c-.71-.94-1.76.12-1.53,1.17a5.16,5.16,0,0,0-1.41.12,1.23,1.23,0,0,1,.24.59c-.94-.12-1.76.47-1.06,1.52-.7-.11-1.29.12-1.4.82-.83-.47-1.41,0-1.06.94-1.06-.12-1.53.47-.82,1.29-.94,0-1.53.24-.94,1.18-.82.11-.7.35-1.17.7-.82-.35-1.06.12-.82.94a2.45,2.45,0,0,0-.94,0c.23.23.35.7.47.82-1.06.12-.59.35-.35.94l-.24.47a1.26,1.26,0,0,0-1.29,1.4,1.61,1.61,0,0,0-1.52,2.12,1,1,0,0,0-1.06,1.52c-1.06-.12-1.53.35-.94,1.29l-.35.24a1.54,1.54,0,0,0-.7.11l.93.94a2.17,2.17,0,0,0-1.17,1.29c-.82-.59-1.52.47-1.17,1.41-.35,0-.71.35-.94.35a3.45,3.45,0,0,0,.47.94,2.2,2.2,0,0,0-.94.35c.35.24.47.7.94.94-.82.23-1.17.7-1.06,1.41-1.17-.24-1.52.93-.7,1.76-.35,0-.59.35-.94.35.24.23.35.7.59.94-1.06.23-.35,1.17.47,1.4a7.44,7.44,0,0,1-.47.94c-1.29-.35-1.41,1.06-.82,1.88-1.06.23-1.29.94-.59,1.64-.12.12-.35.24-.47.35.59.36.47.59,1.29.71a1.24,1.24,0,0,0-.59,1.76c-1.29-.12-1,1.29,0,1.76-1.29.11-1.4,1.17-.35,1.87-.58.59-.12.94.71.94-.12.35-.24.94-.36,1.17-.7.47-.93,1.18-.11,1.65-.94.47-.94,1.17-.12,1.76-.7.7-.24,1.17.7,1.17,0,.12-.23.94-.23,1.17-1.17-.23-.82,1.06.12,1.29-1.18.24-.94,1.29,0,1.64-.83.71-.59,1.41.58,1.29a6.38,6.38,0,0,0-.23,1.41c-1.06.35-.71,1.41.12,1.88-.74.42-.63,1,.07,1.48l0-.07c-.16-.67.18-1.25.91-1.19a.74.74,0,0,1,.13-1.3,1,1,0,0,1,.33-1.62.85.85,0,0,1,.12-1.55.87.87,0,0,1,.47-1.5c-.72.14-1.95-.59-1-1.2-.42-.49-.68-1.47.22-1.46-.15-.15-.19-.38-.31-.51.28-.09.55-.34.89-.37-.82-.27-.62-1.11,0-1.36-.74,0-1.1-.7-.5-1.2-1.19.08-.54-1.75.15-1.54-.53-.45,0-1.17.68-1.16-.57,0-1.38-.54-.71-1-.74-.18-1.17-1.14-.23-1.38a.8.8,0,0,1,.7-1.4c-.76-.4-.28-1,.35-1.19-.67.07-.85-.49-.44-.91a.67.67,0,1,1,0-1.31c-.86-.36-.68-2,.28-1.33-.33-.56-.15-1.15.56-.94-.1-.48,0-1,.44-1.16a1,1,0,0,1-.76-.65c.29-.09.42-.31.79-.29-.67-.39-.88-1.46.21-1.28-.49-.67,0-1.25.75-1a1.94,1.94,0,0,0,0-.76,4.91,4.91,0,0,0-.55,0c-.08-.49.18-.72.68-.7-.49-.54-.48-1.39.44-1.29-.68-.52-.37-1.39.31-1a.62.62,0,0,1,1-.62,6.12,6.12,0,0,1,.34-.68c-.53-.37-.65-1,.21-.94-.56-.42-.41-1.28.37-1.17-.12-.57.05-1.13.7-1a2.91,2.91,0,0,0,0,.3c.17-.56.72-1.11,1.17-1a.7.7,0,0,1-.46-.91c.15.07.39.08.58.18-.39-.64-.4-1.73.58-1.37-.28-.72.29-1.95,1.08-1.32A1.06,1.06,0,0,1,19,26c-.7-.41-.52-1.21.36-1-.4-.58-.18-1.55.6-1a1.1,1.1,0,0,1,1.27-1.23,2.36,2.36,0,0,1-.24.41,3.23,3.23,0,0,1,1.27-1c-.45-.16-.53-.36-.53-.8a4.91,4.91,0,0,0,.55,0c-.25-.53-.16-1.16.59-1A4.44,4.44,0,0,1,23,18.9c.13.09.42.12.57.22,0-.42,0-.85,0-1.27.26.08.65,0,.9.09a1.2,1.2,0,0,1,1.17-1c0,.18.06.2,0,.33a1.61,1.61,0,0,1,1.35-1.07c-.55-.78.14-1.12.85-.81-.33-.71.12-1.17.84-.85.06-.68,1.29-1.9,1.51-.82A1.15,1.15,0,0,1,31.7,13c0-.2.17-.53.13-.79l.31.09c-.11-.22,0-.55-.08-.79a1.67,1.67,0,0,1,1.26,0c.15-.72,1.68-1.73,1.22-.61.93-.56,2.66-1.29,3.49-2.32l.57.2c-.61-.89.24-1.4.84-.59-.16-.84,1-1.44,1.16-.46a1.5,1.5,0,0,1,1.61-.66c-.29-.2-.34-.48-.54-.69.32.09.58,0,.91.17,0-.18.07-.45,0-.64.33.12.6,0,.9.32.24-.9,1.06-.82,1,0a.93.93,0,0,1,1.63-.48A4.71,4.71,0,0,1,46,5.07a1.48,1.48,0,0,1,1.27.42,3.58,3.58,0,0,1-.1-1.13.93.93,0,0,1,1.13.8c.19-1.09,1.67-1.42,1.31,0A.86.86,0,0,1,51,4.81c0-.2.07-.48,0-.68a1.21,1.21,0,0,1,1,.41,2.09,2.09,0,0,1,.13-1,1.32,1.32,0,0,1,.89.66c0-.88.95-.88,1,0a2.45,2.45,0,0,1,1.36-.57,2.63,2.63,0,0,1,.13,1c.34-.61,1.19-.81,1.2-.06,0-.06,0-.12,0-.12a2.27,2.27,0,0,1,1.36.21c-.56-1.06.49-.92.85-.14,0-1.1,1.18-.72,1.54,0,.26-1,1.62-1,1.42.24.64-.35,2.06-.6,1.41.49a.78.78,0,0,1,1.41,0c-.33-.89.91-1,1.07.06.63-1.17,1.79-.68,1.87.5.74-.56,2.76-.64,1.63.54a1.22,1.22,0,0,1,1.73.13c-.36-1,.61-.88,1-.12.53-1.72,1.38.55,1.63.64.46.19,2.07-1,1.46.56.81-.45,2.08-.38,1.28.82a1,1,0,0,1,1.47.45C78,8,78.9,8.12,79,9c.85-.53,2.25-.69,1.65.79,1-.39,2.13-.62,1.27.73.85-.24,1.53-.21,1.6.8.14-1.12,1.14-.59,1,.37,1.1-.48,1.83-.85,1.41.8a1.36,1.36,0,0,1,1-.3c-.09.38,0,.57-.32.88.23-.2.5-.17.79-.29a1.28,1.28,0,0,1-.06,1.52,1,1,0,0,1,1.37.53,1.37,1.37,0,0,0,0-.29c.7-.05.63.68.58,1.23,1.36-1.1,1.41-.49,1.38.94.3-.4.49-.25.93-.3a.88.88,0,0,1-.35.73,3.76,3.76,0,0,1,.62-.14,1.43,1.43,0,0,1-.24,1.26c.35.05.7.17,1,.23.47-.84.89.16,1.11.71.71-.6,1,.29.57.91.25-.18.41-.09.68-.18-.1.39,0,.57-.3.91.66-.51,1.23-.12,1,.67.61-.22.73.42.92.86a3.31,3.31,0,0,0,0-.33c.8-.13.9.74.82,1.35a3.06,3.06,0,0,1,.55-.17,2.5,2.5,0,0,1,.27,1.5,2.64,2.64,0,0,1,.68-.28,1.49,1.49,0,0,1,0,1.42c.8-.92,1.2.33.49,1,1-.19,1.12.8.23,1.08a1.06,1.06,0,0,1,.69.76c.67-1.05,1.11.07.69.84.17,0,.4.06.56,0a1.15,1.15,0,0,1-.58,1.23c.77-.55.89.45.52,1,.12-.13.41-.25.55-.37a1.63,1.63,0,0,1,.37,1.29c.68.26.51,1.13-.13,1.38.82-.34,1.15.55.38,1,1,.15,1.13,1.14.21,1.55a1.86,1.86,0,0,1,.45,1.49,4.05,4.05,0,0,1,.37-.18,2.36,2.36,0,0,1-.14,1.82,1.44,1.44,0,0,1,.22-.07c.33.55-.07,1-.64,1.05,1,.15.6,1-.12,1.29.73.45.46,1.25-.35,1.38.83.22.69.9.34,1.42.24-.27.5-.2.78-.32a1.44,1.44,0,0,1-.09,1.25c.93.22.19,1-.45,1.07.83.07.82.78.1,1.09.74.57-.08,1-.59,1.35.64-.1.84.37.71.95,1,.24.35,1-.24,1.34.58.35.17.86-.44,1,.9.2.1.93-.14,1.38,1.57.28-.16,8.13-.37,9.52a21.43,21.43,0,0,0,.12,5.37l.21,2a82.7,82.7,0,0,1,.73-9.1c.59-3.87,1-9,1-9a1.18,1.18,0,0,0,.47-2c.36-.82,1.53-2.11.36-2.7.46-.59.58-1.06,0-1.64.7-.47.82-.94,0-1.29C106.41,44.58,106.65,43.52,105.47,43.29Z"/><path class="cls-32" d="M29.85,29.87a14.19,14.19,0,0,0-4,3.73c-.35.46-.69.92-1,1.4a1.08,1.08,0,0,0-.11.18,9.44,9.44,0,0,0,0,2.06,106.67,106.67,0,0,1-.76,11.44c0,.25-.06.49-.1.74s-.59.58-.72.72c-.29.32-.58.66-.84,1a26.76,26.76,0,0,0-3,5,38.11,38.11,0,0,0-3.07,9.54,36.82,36.82,0,0,0,.05,8.06q.12,2.13.27,4.26c0,.31.05.62.07.93.06.71-1.14,1.56-1.66,1.92-.09.06-3.32-6.26-3.6-6.83-.54-1.09-1.08-2.18-1.61-3.28l-.27-.56c-.25-.52-1.57-.27-2-.19,0,0,0,.07,0,.06.61-.13,1.67-.3,2,.38l.45.92c.54,1.13,1.09,2.26,1.65,3.38A57.3,57.3,0,0,0,14.88,81s0,0,.06,0c.63-.41,1.83-1.28,1.77-2.13-.08-1-.15-2.1-.22-3.15a63.33,63.33,0,0,1-.27-9,31.39,31.39,0,0,1,2.71-9.37,29.7,29.7,0,0,1,2.79-5.18,17,17,0,0,1,1.77-2.2c.26-.26.45-.34.5-.68.42-3.13.63-6.29.76-9.45q.08-1.95.09-3.9a2,2,0,0,1,.56-1.5A15.08,15.08,0,0,1,29.91,30C30,29.93,29.91,29.83,29.85,29.87ZM7.68,69.16c-.44-.25-1.4-.83-.35-1.54a.06.06,0,0,0,0-.1c-.64-.42-1.16-1.33-.12-1.77a.07.07,0,0,0,0-.06,5.94,5.94,0,0,1,.23-1.39.06.06,0,0,0-.06-.08A.7.7,0,0,1,6.87,63a.06.06,0,0,0,0-.1c-.77-.34-1-1.24,0-1.55,0,0,0-.06,0-.08-.62-.2-1.28-1.36-.13-1.21,0,0,0,0,0,0,0-.39.18-.77.23-1.16,0,0,0,0,0,0-.62.08-.85-.29-.67-1.1a0,0,0,0,0,0-.07A1,1,0,0,1,6.39,56a.06.06,0,0,0,0-.1c-.51-.71-.47-1.22.12-1.54a.05.05,0,0,0,0,0,12.14,12.14,0,0,0,.36-1.17.06.06,0,0,0-.06-.08c-.55.09-.77-.18-.67-.84,0,0,0-.06,0-.09-.38-.28-.75-.62-.66-1.16s.65-.56,1-.61a.05.05,0,0,0,0-.1C5.88,50,5,48.57,6.47,48.6c0,0,0,0,0,0a1.24,1.24,0,0,1,.57-1.72,0,0,0,0,0,0-.07c-.51-.1-1.46-.46-.8-1,0,0,0,0,0-.07-.56-.65-.27-1.32.57-1.56a.05.05,0,0,0,0-.08c-.47-.74-.54-2.07.75-1.8a0,0,0,0,0,.06,0,5.16,5.16,0,0,0,.47-.94.05.05,0,0,0,0-.07c-.31-.11-1.76-.93-.47-1.33,0,0,0,0,0-.06-.52-.66-.62-1.06.34-1.23a0,0,0,0,0,0-.06c-.64-.73-.48-1.85.68-1.69a0,0,0,0,0,0,0c-.08-.76.34-1.16,1-1.39,0,0,0,0,0,0-.43-.28-.32-.27-.64-.64s.25-.55.64-.6a0,0,0,0,0,0-.05c-.55-.72-.47-1.08.46-1.23a.05.05,0,0,0,0,0l-.09-.46q-.06-1,1.2-.9a0,0,0,0,0,.06,0,2.46,2.46,0,0,1,1.14-1.28s0-.05,0,0a2.87,2.87,0,0,0-1,.83c-.3.43-.49.18-.93.32s-.47.55-.53.85a1.29,1.29,0,0,0,0,.48c.08.28-.72.52-.84.55s0,0,0,0a3.88,3.88,0,0,0,.35.78c.06.07-.74.44-.8.47s0,0,0,0c.27.22.44.61.74.8s-.48.43-.56.49a1.05,1.05,0,0,0-.33.63c-.07.38-.23.32-.56.39s-.57.53-.57.9a1.43,1.43,0,0,0,.3.73c.16.22-.74.46-.77.46S7,39,7,39c.44.58.54.71.11,1.15-.19.2,0,.53.13.69s.83.37.64.78c-.12.26-.15.56-.49.55a1,1,0,0,0-.53.06.92.92,0,0,0-.45.75c0,.25.3,1.12.09,1.18s-.72.36-.74.71c0,.52.46.81-.06,1.23a0,0,0,0,0,0,.07,7.71,7.71,0,0,0,.82.59c.42.2.18.2-.07.51a1.13,1.13,0,0,0-.2.64c0,.46.11.56-.38.72a.62.62,0,0,0-.36.71,1.23,1.23,0,0,0,.28.6c.26.29.56.28.15.46s-.73.47-.62.92a1.57,1.57,0,0,0,.35.66c.26.3.14.27.1.61s.35.61.75.63-.18,1.11-.32,1.22a1.23,1.23,0,0,0-.47.71c-.15.55.63.66.09,1.1s-.24,1,.12,1.35-.42.75,0,1.08a1.43,1.43,0,0,0,.7.27c.34,0,0,.81,0,1,0,0-.65.12-.74.4s.39.83.69,1c-.18-.1-.64.45-.64.66a1,1,0,0,0,.17.59c.2.33.63.31.3.72s-.09.91.43,1c.27.07.45,0,.36.3s-.08.45-.11.68c-.06.42-.54.56-.67,1a1.11,1.11,0,0,0,.29.88c.29.39.4.22.14.61a.67.67,0,0,0-.12.69c.36.68.92.58.24,1.37,0,.06,0,.15.08.09.2-.23.39-.48.59-.71A.05.05,0,0,0,7.68,69.16ZM12.34,29.1h0a1.71,1.71,0,0,0-.71.12h0A1.66,1.66,0,0,1,12.34,29.1Zm1.29-1.51s0,0,0,0a1,1,0,0,1,1-1.47,0,0,0,0,0,0-.06,1.59,1.59,0,0,1,1.48-2,.07.07,0,0,0,.06-.07,1.25,1.25,0,0,1,1.23-1.34c.08,0,.08-.13,0-.13a1.32,1.32,0,0,0-1,.43c-.3.41-.21.93-.76,1.05a1.75,1.75,0,0,0-1,.92c-.1.18-.07,1.13-.23,1.16a1.15,1.15,0,0,0-.9.66c-.19.4.2.78-.38.86a1.27,1.27,0,0,0-.31.08A2.18,2.18,0,0,1,13.63,27.59Zm-1.13.83a1.07,1.07,0,0,0,.14.36A2.4,2.4,0,0,1,12.5,28.42Zm.2-.72a.6.6,0,0,0-.2.72A1,1,0,0,1,12.7,27.7Zm0,1.16-.06-.08,0,.08S12.7,28.86,12.7,28.86Zm0-1.16h0l.17-.08A.53.53,0,0,0,12.7,27.7ZM30.58,9.24a3.41,3.41,0,0,1,1.34.19s.06-.06,0-.08A3.82,3.82,0,0,0,30,9.24s0,0,0,0c.18.41.43.71-.1.67a1.66,1.66,0,0,0-.9.26,1.45,1.45,0,0,0-.46.55c-.08.14-.43-.12-.54-.15-.43-.14-.8.33-1,.64a1.51,1.51,0,0,0-.14.7c0,.19-1.21.29-1.32.3s-.08.05-.05.09c.43.61-.07.44-.52.59a.83.83,0,0,0-.52.48,1,1,0,0,0,.08.81s-.74.2-.86.3-.37.61-.55.55-.56-.15-.76,0a.72.72,0,0,0-.27.65c.07.49-.5.35-.84.56a.58.58,0,0,0-.22.45c0,.33.37.61,0,.67-.57.09-1,.42-.67,1,0,.07-.58.4-.67.49-.35.34-.64.12-1,.28a.49.49,0,0,0-.23.43c0,.63-.19.53-.8.59a0,0,0,0,0,0,.06c.27.35.59.72.05.85a.41.41,0,0,0-.21.12c-.13.22.22.6.3.77h0c-.2-.47-.36-.82.35-.91,0,0,0,0,0,0a3.29,3.29,0,0,1-.23-.46c-.21-.48.26-.38.66-.29a.06.06,0,0,0,.06-.07c-.11-.51.14-1.08.76-.85h.05c.45-.26.58-.59,1.16-.69a.07.07,0,0,0,0-.11c-.47-.85.16-1.05.88-1.06a.08.08,0,0,0,.06-.12c-.32-.31-.28-.69.11-1.14a2,2,0,0,1,.65,0c.05,0,.08,0,.07-.09-.23-.74.26-1.19.95-.86a.07.07,0,0,0,.1,0c.18-.7.7-.84,1.34-.77a.06.06,0,0,0,.06-.1c-.53-.92.12-1.49,1-1.43,0,0,.06,0,.06-.08s-.17-.52-.11-.53a6.22,6.22,0,0,1,1.22-.1s.06,0,.06-.06a1.47,1.47,0,0,1,0-.69c.18-.69.65-.84,1.4-.43a.07.07,0,0,0,.11,0,1.43,1.43,0,0,1,1.8-.9.06.06,0,0,0,.06-.09C30.29,9.74,29.89,9.3,30.58,9.24Zm22-7.57c0-.07.12-.6.22-.57a2.32,2.32,0,0,1,1.15.62.1.1,0,0,0,.16,0,.9.9,0,0,1,1.47-.2c.05.06.14,0,.19,0C56.57.33,57.8.82,58.18,2A.15.15,0,0,0,58.46,2c-.36-1.19-1.9-2.09-2.8-.81,0,0-1-.5-1.36-.18s-.24.48-.61.27A6.69,6.69,0,0,0,52.6.86a.08.08,0,0,0-.11.08c0,.81-.66.12-1.15.33-.26.12-.42.41-.56.08a.57.57,0,0,0-.25-.26c-.31-.22-.76.06-1,.23-.05,0-.32.45-.41.31a.81.81,0,0,0-.48-.39.71.71,0,0,0-.79.32c-.19.3-.15.57-.49.26a1.11,1.11,0,0,0-.54-.27.68.68,0,0,0-.74.35s-.14.58-.23.53a5.28,5.28,0,0,0-1.12-.14s-.09,0-.08.06.13.8,0,.73A1.76,1.76,0,0,0,44,2.91c-.3,0-1.11.53-1.2.44a.63.63,0,0,0-.91-.07,1.65,1.65,0,0,0-.42.56c-.19.37,0,.62-.41.26A.76.76,0,0,0,40.1,4c-.21.1-.38.83-.51.78-.34-.13-.67-.2-.94.1a.73.73,0,0,0-.12.35c0,.5-.58.36-1,.26a.07.07,0,0,0-.09.07c0,.89-.41.37-1,.64s-.59.75-1.08.25a.06.06,0,0,0-.08,0c-.21.25-.63.45-.75.76s-.72-.14-.92-.08a.5.5,0,0,0-.41.37c-.14.61-.32.54-.93.6,0,0,0,0,0,0a1.56,1.56,0,0,0,.13.95,0,0,0,1,0,.05,0c-.25-.79.06-1,.79-.89a0,0,0,0,0,.06,0c-.05-.84.64-1,1.21-.66a.06.06,0,0,0,.08,0,1.44,1.44,0,0,1,.52-.62c.31-.23.31-.24.55.17a.07.07,0,0,0,.11,0,1.51,1.51,0,0,1,1.8-.67.07.07,0,0,0,.09-.07c0-.73.24-.66,1-.51a.08.08,0,0,0,.1-.07c0-.67.53-.91,1.06-.64a.08.08,0,0,0,.12-.07l.06-.44c.54-.56,1-.51,1.3.14,0,0,.16.06.17,0,.07-.33.6-2,1.35-.91a.1.1,0,0,0,.16,0,1.33,1.33,0,0,1,1.87-.34.1.1,0,0,0,.15-.08c0-.2-.07-.39-.1-.59-.1-.53,1.06-.09,1.14-.05a.08.08,0,0,0,.11-.06c-.06-.59.28-.84,1-.77a2,2,0,0,1,.49.47.08.08,0,0,0,.13,0c.2-.68,1-1,1.38-.32a.09.09,0,0,0,.15,0c.32-.49,1.27-1.22,1.48-.14,0,.06.1.08.15,0a1.09,1.09,0,0,1,1.53-.11A.09.09,0,0,0,52.54,1.67Zm6.2.1c0-.67.54-.48.95-.18a.07.07,0,0,0,.09,0c.32-.69.87-.68,1.29-.11a.08.08,0,0,0,.13,0c.31-.53,1.13-.61,1.26.1,0,.05.06.08.11.07a1,1,0,0,1,1.31.22.11.11,0,0,0,.16,0c.4-.95,1.26-.29,1.71.14a.11.11,0,0,0,.18-.05c.54-1.3,1.23-.26,1.43.24a.11.11,0,0,0,.17.06,5,5,0,0,1,1-.37s.21.93.22,1,.09.15.16.1c.31-.19.95-.66,1,.25a.11.11,0,0,0,.14.11,1.48,1.48,0,0,1,1.55.23.12.12,0,0,0,.16,0A.66.66,0,0,1,73,3.58a.11.11,0,0,0,.18,0c.65-.59,1.51-.57,1.56.51,0,.08.1.15.17.1a1.57,1.57,0,0,1,.58-.32c.58.14.76.44.54.89a.12.12,0,0,0,.15.15,1.46,1.46,0,0,1,1.74.88.12.12,0,0,0,.21,0c.38-.65.87-.44,1.07.21a.12.12,0,0,0,.2.06c.66-.67,1.48-.58,1.68.41,0,.13.25.1.23,0-.15-1.17-1.15-1.39-1.94-.7-.31-.75-.85-.92-1.34-.24a1.6,1.6,0,0,0-1.72-.85.87.87,0,0,0-.31-1,.77.77,0,0,0-.58,0c-.32,0-.42.41-.51,0A.86.86,0,0,0,74.17,3a1.4,1.4,0,0,0-.67.15c-.47.2-.21.27-.57-.12-.23-.24-.61-.5-.93-.22s-.27.43-.68.27a1.4,1.4,0,0,0-.83-.1c-.5.12-.31-.35-.73-.53a.87.87,0,0,0-.55.1c-.45.23-.42-.5-.46-.85,0-.08-.09-.15-.16-.1-.32.22-.74.17-1,.38a2.78,2.78,0,0,0-.47-.64.77.77,0,0,0-1.14.14c-.2.33-.23.18-.5,0a1.55,1.55,0,0,0-.87-.32.65.65,0,0,0-.48.23c-.28.25-.2.21-.52,0a.57.57,0,0,0-.44-.07c-.5.15-.46.1-.71-.32a.61.61,0,0,0-.93-.06c-.24.23-.3.48-.59.18a.73.73,0,0,0-.52-.22.62.62,0,0,0-.46.27c-.3.45-.66.22-1.1.06a.06.06,0,0,0-.08,0,1.42,1.42,0,0,0-.12.61C58.61,1.85,58.73,1.85,58.74,1.77ZM82,6.93l.5-.21a1.39,1.39,0,0,1,.26.7.09.09,0,0,0,.14.06c.69-.39,1.71-.53,1.27.59a.09.09,0,0,0,.12.12c.75-.15,1.09-.08.81.7,0,0,0,.12.07.12a3.06,3.06,0,0,1,1.39.58s.09,0,.12,0c.65-.65,1.25-.09,1.12.72a.1.1,0,0,0,.15.11,1.64,1.64,0,0,1,.74-.29c.49.37.59.77.29,1.21a.1.1,0,0,0,.14.14,2.07,2.07,0,0,1,.77-.22c.52.24.61.54.26.9a.11.11,0,0,0,.09.16,4,4,0,0,0,.92.15,6.78,6.78,0,0,0-.2.89c0,.08.06.15.13.13a1,1,0,0,1,1.28.75s.07.1.13.07a6.33,6.33,0,0,1,.78-.17,3.94,3.94,0,0,1,.13,1.24.12.12,0,0,0,.15.11.76.76,0,0,1,.92,1.12c0,.08,0,.19.1.18.45-.07.76.17.93.73a1.53,1.53,0,0,1-.43.71.12.12,0,0,0,0,.19,11.8,11.8,0,0,1,1.18.7.11.11,0,0,0,.11,0c.29-.27.63-.25,1,.05a1.9,1.9,0,0,1,0,.75.12.12,0,0,0,.15.15c.9-.14,1.35.42.91,1.23a.13.13,0,0,0,.15.19c.45-.25.68,0,.68.83a.14.14,0,0,0,.1.24c1.07,0,.79.93.38,1.41-.11.12.07.31.18.18.68-.71.72-1.74-.29-1.86.49-.75,0-1.33-.85-1.14.29-.84-.23-1.41-1.15-1.33a1.2,1.2,0,0,0-.26-1.12c-.41-.37-1,.24-1.43-.06s-.57-.29-.29-.84a.94.94,0,0,0,.08-.62.93.93,0,0,0-1-.63,1,1,0,0,0-.17-1.16.91.91,0,0,0-.59-.21s-.36.1-.34-.08A6,6,0,0,0,93.5,14a.11.11,0,0,0-.14-.1c-.2.07-.77.3-.9.06a1.53,1.53,0,0,0-.56-.62.94.94,0,0,0-.66-.08,2.86,2.86,0,0,1,.14-.87c0-.08-.06-.14-.13-.13-.54.11-.89,0-.71-.42a.59.59,0,0,0-.07-.53,1.13,1.13,0,0,0-1.24-.07c.16-.43.23-.92-.21-1.21a.91.91,0,0,0-.74,0c-.46.14-.22-.18-.36-.6a.71.71,0,0,0-1.2-.17c-.21.21-.7-.24-.94-.31s-.48,0-.41-.34a4,4,0,0,0,0-.49.1.1,0,0,0-.1-.1c-.14,0-.91,0-.87-.12a.86.86,0,0,0,0-.72c-.25-.42-.91-.2-1.24-.06s-.31-.08-.46-.37a.66.66,0,0,0-.48-.33c-.32-.06-.46.27-.44.53C81.82,7,82,7,82,6.93Zm18.14,17.55c.87-.49,1.31.31,1.16,1.07,0,.07,0,.13.11.11,1.06-.24,1.22.73.72,1.4,0,.05,0,.13.08.13,1,.06.85.91.4,1.49a.11.11,0,0,0,0,.13,2.34,2.34,0,0,1,.68,1.25c0,.06.09.08.14.06,1.19-.68,1,.78.69,1.39a.1.1,0,0,0,.06.14c1,.29,1,1.08.31,1.72a.1.1,0,0,0,0,.16.88.88,0,0,1,.41,1.5s0,.1,0,.13c.83.5.45,1,.11,1.5a1.13,1.13,0,0,0-.13.84c.19,1.07,1.64,1.19.58,2.44a.1.1,0,0,0,0,.15c.43.22.38.45.42.85.12,1,.16,1.2-.44,1.7-.08.06,0,.2.12.14a1.43,1.43,0,0,0,.82-1.46c-.07-.32-.35-.49-.32-.86a.35.35,0,0,0-.15-.34c-.38-.31.26-.66.16-1.12-.16-.63-.83-.93-1-1.55s.62-1.08.63-1.72a.69.69,0,0,0-.26-.44c-.37-.38-.12-.49,0-.93a.85.85,0,0,0-.66-.94c-.07,0,.25-.55.3-.65a.89.89,0,0,0-.06-.73,1.28,1.28,0,0,0-.6-.5c-.23-.1,0-.38,0-.58s.15-1-.2-1.16-.75.31-1-.36A1.5,1.5,0,0,0,103,29c-.32-.33,0-.5.14-.85a.75.75,0,0,0-.27-1c-.26-.17-.57,0-.36-.36a1.11,1.11,0,0,0,.12-.76.87.87,0,0,0-1-.59c-.09,0-.15-1-.41-1.19a1,1,0,0,0-1.17.08C99.93,24.38,100,24.54,100.12,24.48Zm5.37,18.73c-.09,0-.13.13,0,.15,1.13.31.56,1.27-.14,1.62a.08.08,0,0,0,0,.14c.66.33.54.76,0,1.15a.08.08,0,0,0,0,.12c.58.67.37,1,0,1.55a.09.09,0,0,0,0,.11c1.06.65,0,1.86-.38,2.59a.08.08,0,0,0,0,.08,1.14,1.14,0,0,1-.44,1.88s0,0,0,.07c-.32,3.53-.83,7-1.26,10.55-.57,4.77-.38,9.6-1,14.36-.11.82-.24,1.63-.37,2.44l-.06.35-.63-4.72c-.33-2.41-.66-4.82-.88-7.24A60.22,60.22,0,0,0,99.41,62a19.55,19.55,0,0,0-.56-2.16c-.19-.6-.61-1.21-.73-1.81-.16-.79-.68-1.41-.67-2.25,0-1.72,0-3.44,0-5.17,0-2.77-.14-5.54-.36-8.31a31.57,31.57,0,0,0-1.19-7.23c0-.06-.13,0-.11,0a46.75,46.75,0,0,1,1.35,10.07c.16,3.08.2,6.17.18,9.26a8.71,8.71,0,0,0,0,1.91c.14.62.53,1.11.66,1.72a3.15,3.15,0,0,0,.32.76,13.28,13.28,0,0,1,.61,1.74c1.23,4.26,1.18,8.87,1.78,13.24.32,2.34.64,4.69,1,7,0,.07.12.11.14,0a74.12,74.12,0,0,0,1-10.3c.11-2.55.25-5.1.56-7.63.28-2.27.63-4.53.88-6.81.09-.82.17-1.63.25-2.45,0-.24,0-.48.07-.72s.09-.21.39-.41a1.2,1.2,0,0,0,.41-1.31c-.1-.45-.3-.56,0-1a5.32,5.32,0,0,0,.56-1.21c.16-.6-.52-.86-.22-1.37s-.36-1.1.09-1.52a.55.55,0,0,0,0-.85c-.37-.27.06-.38.29-.64a1,1,0,0,0,.23-.66C106.33,43.5,105.83,43.3,105.49,43.21ZM51.29,22.38A3.73,3.73,0,0,1,50,22.13s-.07,0-.07,0c-.06.66-.51.67-1,.3a.08.08,0,0,0-.13,0c-.19.6-.72.7-1.16.2a.08.08,0,0,0-.12,0c-.15.32-.74,1.52-1.26.25a.09.09,0,0,0-.08-.06c-.36,0-.7.09-1.06.12a.08.08,0,0,0-.08.06.89.89,0,0,1-1.41.66.07.07,0,0,0-.1.09c.21.78-.52.94-1.06.52,0,0-.1,0-.11,0-.1.5-.34,1.48-1.29.67A.07.07,0,0,0,41,25a1.24,1.24,0,0,1-1.11.22.08.08,0,0,0-.1.06,1,1,0,0,1-1.22.65s0,0-.06,0c-.29.45-.41.59-1,.43,0,0-.09,0-.09,0-.1.61-.41.62-1,.53a.09.09,0,0,0-.09.06c-.21.49-1.26,1.58-1.37.14a.09.09,0,0,0-.08-.09c-.46.06-.86.29-1.31.36a.09.09,0,0,0-.06.1c.18.34,0,.63-.37.88a2.41,2.41,0,0,1-.59-.14.06.06,0,0,0-.08.06c0,.39-.22.83-.62.55a0,0,0,0,0-.06,0c-.2.51-.65.63-1.36.36,0,0,0,0,0,0,.37.46.7.5,1.14.11s.34-.28.74-.19a.24.24,0,0,0,.24-.11c0-.1.11-.66.21-.62a1.44,1.44,0,0,0,.71.06c.42-.08.29-1,.28-1,.17,0,1-.45,1.08-.17a.82.82,0,0,0,.24.48c.4.29.81.07,1.12-.25s.19-.52.63-.45c.11,0,.32.06.43,0a.59.59,0,0,0,.23-.31c.17-.44.3-.09.61-.19a.43.43,0,0,0,.23-.19c.27-.37.38-.36.81-.39a.84.84,0,0,0,.47-.23c.31-.26.15-.38.64-.38a1,1,0,0,0,.55-.23c.27-.17.54.22.8.21a.76.76,0,0,0,.52-.21c.3-.24.18-.86.66-.58a.64.64,0,0,0,.9-.1.8.8,0,0,0,0-.59s.67.06.75,0a.83.83,0,0,0,.48-.32c.2-.33.14-.56.55-.61s.56-.07.82.33a.58.58,0,0,0,.48.25c.64.06.48-1,1.08-.57s.76.15,1-.34c.06-.13.7.29,1,.07s.13-.34.14-.48a6.52,6.52,0,0,1,1.24,0A0,0,0,0,0,51.29,22.38Zm28.12,1a1.24,1.24,0,0,1-1.65-.57.1.1,0,0,0-.17,0c-.68.43-1.08.38-1.22-.13a.12.12,0,0,0-.21,0c-.74.5-1.13.43-1.18-.21a.12.12,0,0,0-.15-.08,2.69,2.69,0,0,1-.84.08,1.9,1.9,0,0,1,.26-.61c.06-.09,0-.19-.13-.17-.69.18-1.42.37-2-.21a.12.12,0,0,0-.19,0c-.4.84-1.17.58-1.7.1a.1.1,0,0,0-.16,0c-.36.58-.43.77-1,0,0-.05-.11-.08-.15,0a1.71,1.71,0,0,1-.46.43q-.9,0-.9-.63a.11.11,0,0,0-.1-.07,3.6,3.6,0,0,0-.56.08c-.4.07-.4.24-.41-.21a.09.09,0,0,0-.13-.08,1.36,1.36,0,0,1-1.89-.11.1.1,0,0,0-.14,0c0,.07-.24.6-.34.56-.27-.13-.55-.21-.83-.35a.08.08,0,0,0-.12,0,.84.84,0,0,1-1.38.1.09.09,0,0,0-.13,0c-.34.3-1.26.73-1.26-.06a.09.09,0,0,0-.08-.08c-1,.06-1.89.53-2.76-.32a.08.08,0,0,0-.14.05c-.08.78-.45.9-.94.52,0,0-.06,0-.09,0a1,1,0,0,1-1.55,0s-.06,0-.08,0a1.15,1.15,0,0,1-1.7.35,0,0,0,0,0,0,0c.08.83-.48.72-1,.58,0,0,0,0,0,0,.3.09.73.3,1,.07.11-.09.09-.32.09-.44s.71.09.82.09a1,1,0,0,0,.6-.26c.42-.41.43,0,.85.07a1,1,0,0,0,.68-.09c.43-.27.51-.2.95,0,0,0,.09,0,.11,0,.13-.27.34-.43.45-.71,0-.09.51.27.58.29a2,2,0,0,0,.91.08c.35-.06,1.19-.4,1.19.18,0,0,0,.08.06.08a1.81,1.81,0,0,0,1.08,0c.41-.17.5-.05.89.16.81.44,1-1.07,1.86-.12a.1.1,0,0,0,.15,0c.07-.15.18-.65.45-.48a1.71,1.71,0,0,0,.75.31,1.19,1.19,0,0,0,.56-.07c.3-.07.42-.35.41.08a.1.1,0,0,0,.12.09c.47-.18.78-.31,1.06.16a.72.72,0,0,0,.53.43c.25.07.52-.12.71-.26,0,0,.25-.27.3-.22a4.72,4.72,0,0,0,.7.57.11.11,0,0,0,.18,0c.25-.86.51-.3,1.07-.14a.94.94,0,0,0,.78-.13c.41-.36.31-.29.81-.09A2.33,2.33,0,0,0,73.91,22c-.09.19-.15.39-.24.6s.08.18.17.16.92-.11.94,0a.87.87,0,0,0,.36.57A.79.79,0,0,0,76.25,23c.33.6.84.81,1.35.16.12-.14.51.39.69.45a1.45,1.45,0,0,0,1.17-.11C79.53,23.49,79.48,23.38,79.41,23.4ZM95.22,34.53a2.48,2.48,0,0,1-.08-.74c0-.07,0-.1-.09-.14-.4-.38-1.27-.12-.61-1.33a.13.13,0,0,0-.14-.18l-.44.08c-.62.06-.78-.32-.5-1.16a.13.13,0,0,0-.12-.21c-.39.11-.73-.19-.35-.49a.13.13,0,0,0,0-.13A6.08,6.08,0,0,0,92.32,29a.12.12,0,0,0-.16-.05c-.69.41-1.26,0-1.24-.83a.11.11,0,0,0-.19-.08c-.61.53-1.66.47-1.12-.58a.11.11,0,0,0-.12-.15,2,2,0,0,1-.41.15c-.44.13-1.41.06-.66-.91a.11.11,0,0,0,0-.17,8.26,8.26,0,0,1-1.18-.69.09.09,0,0,0-.1,0c-.72,0-1.1-.24-1.15-.76a.09.09,0,0,0-.16,0,1.24,1.24,0,0,1-.48.56c-.57-.13-.75-.38-.53-.72,0-.06,0-.14-.11-.11a4.34,4.34,0,0,1-1.67.27c-.29,0,.26-.88.33-1s0-.11-.09-.07c-.4.45-1.18,1.13-1.66.13a.06.06,0,0,0-.11,0c-.79,1.08-1.45.25-1.8-.33,0,0-.06,0,0,0,.18.36.52.94,1,.95s.8-.54,1.07-.18a.72.72,0,0,0,.9.11,1.36,1.36,0,0,0,.34-.23c-.1.2-.2.4-.31.59s0,.11.07.12,1.75.1,1.8-.12c-.06.23-.13.65.16.79a.84.84,0,0,0,.89-.17c.09-.07.27-.34.28-.29a1.57,1.57,0,0,0,.35.66.66.66,0,0,0,.85.1c.19-.16.85.36,1,.46s-.14.48-.17.57c-.27.79.85.7,1.42.55-.4,1,.55,1.32,1.36.77a1,1,0,0,0,.51,1,.87.87,0,0,0,.65.05c.21-.09.28-.24.39,0s.17.33.25.49c.22.43.1.3-.14.64a.52.52,0,0,0-.16.45c.09.32.47.29.79.22-.47.82.18,1.42,1.13,1.26a.91.91,0,0,0,.52,1.29c.48.2.08.21.17.57s.33.45.47.72.3,0,.23-.12A1.44,1.44,0,0,0,95.22,34.53Z"/><path class="cls-33" d="M22.78,63.46s6.57-2.81,9.5-4.34c0,0,6.33-.58,8.91,0s8.8,4.11,11.5,4.23l2.11-.59a43.54,43.54,0,0,1-3.87-2.11,14.85,14.85,0,0,1-5.28-6.57s-8.21-4-15.48-2.23a4.29,4.29,0,0,1-1.41,1.53C27.82,54,22.66,58.19,22.78,63.46Z"/><path class="cls-34" d="M97.08,63.46s-5.37-2.81-7.77-4.34c0,0-5.19-.58-7.3,0s-7.2,4.11-9.41,4.23l-1.73-.59A34.41,34.41,0,0,0,74,60.65a14.58,14.58,0,0,0,4.32-6.57s6.72-4,12.67-2.23a4.2,4.2,0,0,0,1.16,1.53C93,54,97.18,58.19,97.08,63.46Z"/><path class="cls-25" d="M90.77,66.65c-2.15-2-5.31-2.62-8.06-2.65a14.46,14.46,0,0,0-4.23.55,8.71,8.71,0,0,0-1.83.66,17.76,17.76,0,0,0-2.44,1.7c-.08.06-.18-.08-.1-.15,4.46-3.78,12.46-4.9,16.68-.14,0,0,0,0,0,0Z"/><path d="M84.37,73a17.65,17.65,0,0,0,8.08-3.43,17.24,17.24,0,0,0-7.27-4.22A9.76,9.76,0,0,0,74,69.59l-.49,1.32Z"/><path class="cls-35" d="M90.41,69.92C87.5,73.32,81,74,75.54,72.26a3.21,3.21,0,0,0-1.39-.47,10.45,10.45,0,0,0-1.4.12l.53-.94c4.2-7,12.71-5,17.13-1.41Z"/><path class="cls-36" d="M86.9,68.59a4.84,4.84,0,0,0-.16-1.21A11.87,11.87,0,0,0,77.81,67a4.69,4.69,0,0,0,3.44,6.24,17,17,0,0,0,2.39-.13A4.7,4.7,0,0,0,86.9,68.59Z"/><path class="cls-37" d="M82.21,72.75a4.15,4.15,0,0,0,4.15-4.16,4.21,4.21,0,0,0-.27-1.47,11.88,11.88,0,0,0-7.58-.41,4.08,4.08,0,0,0-.46,1.88A4.16,4.16,0,0,0,82.21,72.75Z"/><path d="M84.66,68.59a2.45,2.45,0,1,1-2.45-2.45A2.45,2.45,0,0,1,84.66,68.59Z"/><path class="cls-38" d="M83.94,68.59a1.73,1.73,0,1,1-1.73-1.73A1.73,1.73,0,0,1,83.94,68.59Z"/><path class="cls-35" d="M82.21,67.56a1,1,0,0,0,1-1c0-.06,0-.12,0-.17a10.64,10.64,0,0,0-2-.12.88.88,0,0,0,0,.29A1,1,0,0,0,82.21,67.56Z"/><path class="cls-35" d="M82.69,71a.48.48,0,0,1-.48.48.49.49,0,1,1,0-1A.48.48,0,0,1,82.69,71Z"/><path d="M90.39,69.6A16.88,16.88,0,0,0,82,66.43a9.77,9.77,0,0,0-4.78,1A10.86,10.86,0,0,0,73.31,71s-.08,0-.06,0a9.19,9.19,0,0,1,8.32-4.85,12.79,12.79,0,0,1,8.86,3.43s0,.09,0,.07Z"/><path class="cls-39" d="M75.55,72.24c4.72,1.3,11.1,1.82,14.85-2.34,0,0,0,0,0,0A10.08,10.08,0,0,1,84.07,73a17.55,17.55,0,0,1-8.53-.73,0,0,0,0,1,0,0Z"/><path class="cls-25" d="M28,66.65c2.34-2,5.79-2.62,8.78-2.65a17.07,17.07,0,0,1,4.61.55,10.19,10.19,0,0,1,2,.66,19.88,19.88,0,0,1,2.65,1.7c.08.06.19-.08.11-.15C41.3,63,32.59,61.86,28,66.62c0,0,0,0,0,0Z"/><path d="M35,73a20.28,20.28,0,0,1-8.8-3.43,19.08,19.08,0,0,1,7.92-4.22,11.08,11.08,0,0,1,12.14,4.22l.53,1.32Z"/><path class="cls-35" d="M28.41,69.92c3.17,3.4,10.2,4.1,16.19,2.34a3.72,3.72,0,0,1,1.52-.47,12.69,12.69,0,0,1,1.53.12L47.06,71c-4.58-7-13.84-5-18.65-1.41Z"/><path class="cls-40" d="M41.86,68.59a4.57,4.57,0,0,0-.38-1.85,14.19,14.19,0,0,0-8.82.54,4.68,4.68,0,0,0,3.05,5.77,19,19,0,0,0,2.4.14A4.7,4.7,0,0,0,41.86,68.59Z"/><path class="cls-41" d="M37.17,72.75a4.15,4.15,0,0,0,4.15-4.16,4.09,4.09,0,0,0-.53-2,14.32,14.32,0,0,0-7.48.49,4.15,4.15,0,0,0,3.86,5.7Z"/><path d="M39.62,68.59a2.46,2.46,0,1,1-2.45-2.45A2.45,2.45,0,0,1,39.62,68.59Z"/><path class="cls-42" d="M38.9,68.59a1.74,1.74,0,1,1-1.73-1.73A1.73,1.73,0,0,1,38.9,68.59Z"/><path class="cls-35" d="M37.17,67.56a1,1,0,0,0,1-1,1,1,0,0,0-.05-.3,14,14,0,0,0-1.94.14.78.78,0,0,0,0,.16A1,1,0,0,0,37.17,67.56Z"/><path class="cls-35" d="M37.65,71a.49.49,0,1,1-.48-.49A.49.49,0,0,1,37.65,71Z"/><path d="M28.43,69.6a19.32,19.32,0,0,1,9.18-3.17,11.49,11.49,0,0,1,5.21,1A11.54,11.54,0,0,1,47,71s.09,0,.07,0c-1.78-3.27-5.5-4.83-9.07-4.85a14.65,14.65,0,0,0-9.65,3.43s0,.09.05.07Z"/><path class="cls-43" d="M44.59,72.24c-5.14,1.3-12.09,1.82-16.17-2.34,0,0,0,0,0,0A11.38,11.38,0,0,0,35.32,73a20.7,20.7,0,0,0,9.28-.73,0,0,0,0,0,0,0Z"/></g></g></svg>