<svg xmlns="http://www.w3.org/2000/svg" xmlns:xlink="http://www.w3.org/1999/xlink" viewBox="0 0 113.73 180.28"><defs><style>.cls-1{fill:url(#linear-gradient);}.cls-2{fill:#ffc2a7;}.cls-3{fill:url(#linear-gradient-2);}.cls-4{fill:url(#radial-gradient);}.cls-5{fill:url(#radial-gradient-2);}.cls-6{fill:url(#linear-gradient-3);}.cls-7{fill:url(#linear-gradient-4);}.cls-8{fill:url(#linear-gradient-5);}.cls-9{fill:url(#linear-gradient-6);}.cls-10{fill:url(#radial-gradient-3);}.cls-11{fill:url(#linear-gradient-7);}.cls-12{fill:url(#linear-gradient-8);}.cls-13{fill:url(#linear-gradient-9);}.cls-14{fill:url(#linear-gradient-10);}.cls-15{fill:url(#linear-gradient-11);}.cls-16{fill:url(#linear-gradient-12);}.cls-17{fill:url(#linear-gradient-13);}.cls-18{fill:url(#linear-gradient-14);}.cls-19{fill:url(#linear-gradient-15);}.cls-20{fill:url(#linear-gradient-16);}.cls-21{fill:url(#linear-gradient-17);}.cls-22{fill:url(#linear-gradient-18);}.cls-23{fill:#f38976;}.cls-24{fill:url(#radial-gradient-4);}.cls-25{fill:#f3796c;}.cls-26{fill:#c23a49;}.cls-27{fill:url(#linear-gradient-19);}.cls-28{fill:url(#linear-gradient-20);}.cls-29{fill:url(#linear-gradient-21);}.cls-30{fill:url(#linear-gradient-22);}.cls-31{fill:#954e47;}.cls-32{fill:#a9563f;}.cls-33{fill:url(#linear-gradient-23);}.cls-34{fill:url(#linear-gradient-24);}.cls-35{fill:url(#linear-gradient-25);}.cls-36{fill:#fff;}.cls-37{fill:url(#linear-gradient-26);}.cls-38{fill:url(#linear-gradient-27);}.cls-39{fill:url(#linear-gradient-28);}.cls-40{fill:#eba9a9;}.cls-41{fill:url(#linear-gradient-29);}.cls-42{fill:url(#linear-gradient-30);}.cls-43{fill:url(#linear-gradient-31);}.cls-44{fill:url(#linear-gradient-32);}.cls-45{fill:url(#linear-gradient-33);}.cls-46{fill:url(#linear-gradient-34);}.cls-47{fill:url(#linear-gradient-35);}.cls-48{fill:url(#linear-gradient-36);}.cls-49{fill:url(#linear-gradient-37);}.cls-50{fill:url(#linear-gradient-38);}.cls-51{fill:url(#linear-gradient-39);}.cls-52{fill:url(#linear-gradient-40);}.cls-53{fill:url(#linear-gradient-41);}.cls-54{fill:url(#linear-gradient-42);}.cls-55{fill:url(#linear-gradient-43);}.cls-56{fill:url(#linear-gradient-44);}</style><linearGradient id="linear-gradient" x1="53.26" y1="125.31" x2="53.26" y2="155.92" gradientUnits="userSpaceOnUse"><stop offset="0" stop-color="#d4866f"/><stop offset="1" stop-color="#ffc2a7"/></linearGradient><linearGradient id="linear-gradient-2" x1="65.03" y1="130.79" x2="64.91" y2="138.53" xlink:href="#linear-gradient"/><radialGradient id="radial-gradient" cx="-416.88" cy="604.01" r="49.25" gradientTransform="matrix(0.22, -0.12, 0.19, 0.34, 7, -150.31)" gradientUnits="userSpaceOnUse"><stop offset="0" stop-color="#ffd9bd"/><stop offset="1" stop-color="#ffc2a7"/></radialGradient><radialGradient id="radial-gradient-2" cx="1350.59" cy="410.84" r="49.24" gradientTransform="matrix(0.22, 0.11, -0.17, 0.35, -132.7, -185.93)" xlink:href="#radial-gradient"/><linearGradient id="linear-gradient-3" x1="63.03" y1="45.39" x2="63.03" y2="71.19" gradientTransform="matrix(1, 0, 0, 1, 0, 0)" xlink:href="#radial-gradient"/><linearGradient id="linear-gradient-4" x1="54.64" y1="53.83" x2="54.64" y2="92.54" xlink:href="#linear-gradient"/><linearGradient id="linear-gradient-5" x1="32.71" y1="69.32" x2="32.71" y2="133.59" xlink:href="#linear-gradient"/><linearGradient id="linear-gradient-6" x1="90.2" y1="69.31" x2="90.2" y2="133.59" xlink:href="#linear-gradient"/><radialGradient id="radial-gradient-3" cx="349.36" cy="1155.92" r="42.14" gradientTransform="translate(-99.73 -186.34) scale(0.47 0.26)" xlink:href="#radial-gradient"/><linearGradient id="linear-gradient-7" x1="71.1" y1="108.27" x2="49.98" y2="92.56" xlink:href="#linear-gradient"/><linearGradient id="linear-gradient-8" x1="64.96" y1="103.71" x2="76.92" y2="93.5" xlink:href="#linear-gradient"/><linearGradient id="linear-gradient-9" x1="45.52" y1="85" x2="45.52" y2="89.34" xlink:href="#linear-gradient"/><linearGradient id="linear-gradient-10" x1="288.72" y1="69.18" x2="288.72" y2="73.64" gradientTransform="matrix(-0.67, 0.1, 0.14, 0.99, 260.86, -11.06)" xlink:href="#linear-gradient"/><linearGradient id="linear-gradient-11" x1="32.77" y1="84.92" x2="45.79" y2="84.92" xlink:href="#linear-gradient"/><linearGradient id="linear-gradient-12" x1="91.38" y1="85.19" x2="82.9" y2="85.19" xlink:href="#linear-gradient"/><linearGradient id="linear-gradient-13" x1="55.65" y1="106.24" x2="57.93" y2="108.09" gradientTransform="matrix(1, 0, 0, 1, 0, 0)" xlink:href="#radial-gradient"/><linearGradient id="linear-gradient-14" x1="75.25" y1="106.69" x2="73.31" y2="108.19" gradientTransform="matrix(1, 0, 0, 1, 0, 0)" xlink:href="#radial-gradient"/><linearGradient id="linear-gradient-15" x1="66.84" y1="102.86" x2="66.84" y2="83.68" gradientTransform="matrix(1, 0, 0, 1, 0, 0)" xlink:href="#radial-gradient"/><linearGradient id="linear-gradient-16" x1="64.77" y1="111.19" x2="64.77" y2="124.44" xlink:href="#linear-gradient"/><linearGradient id="linear-gradient-17" x1="39.6" y1="66.97" x2="39.6" y2="84.33" xlink:href="#linear-gradient"/><linearGradient id="linear-gradient-18" x1="85.33" y1="69.58" x2="85.33" y2="84.87" xlink:href="#linear-gradient"/><radialGradient id="radial-gradient-4" cx="361.02" cy="1862.32" r="24.32" gradientTransform="translate(-81.1 -214.83) scale(0.41 0.19)" gradientUnits="userSpaceOnUse"><stop offset="0" stop-color="#f3a490"/><stop offset="1" stop-color="#f38976"/></radialGradient><linearGradient id="linear-gradient-19" x1="14.31" y1="88.05" x2="4.93" y2="97.43" xlink:href="#linear-gradient"/><linearGradient id="linear-gradient-20" x1="98.91" y1="93.73" x2="101.96" y2="95.26" xlink:href="#linear-gradient"/><linearGradient id="linear-gradient-21" x1="5.14" y1="98.86" x2="2.2" y2="102.26" xlink:href="#linear-gradient"/><linearGradient id="linear-gradient-22" x1="90.67" y1="106.25" x2="85.75" y2="111.96" xlink:href="#linear-gradient"/><linearGradient id="linear-gradient-23" x1="65.05" y1="101.34" x2="65.05" y2="86.79" gradientUnits="userSpaceOnUse"><stop offset="0" stop-color="#a9563f"/><stop offset="1" stop-color="#e9a68c"/></linearGradient><linearGradient id="linear-gradient-24" x1="85.69" y1="71.77" x2="85.69" y2="68.12" gradientUnits="userSpaceOnUse"><stop offset="0"/><stop offset="1" stop-color="#162329"/></linearGradient><linearGradient id="linear-gradient-25" x1="104.49" y1="71.77" x2="104.49" y2="68.12" gradientTransform="matrix(-1.29, 0, 0, 1, 173.93, 0)" xlink:href="#linear-gradient-24"/><linearGradient id="linear-gradient-26" x1="39.8" y1="86.24" x2="39.8" y2="80.58" gradientUnits="userSpaceOnUse"><stop offset="0" stop-color="#39140a"/><stop offset="1"/></linearGradient><linearGradient id="linear-gradient-27" x1="39.8" y1="86.24" x2="39.8" y2="80.58" gradientUnits="userSpaceOnUse"><stop offset="0.01" stop-color="#652312"/><stop offset="1" stop-color="#210000"/></linearGradient><linearGradient id="linear-gradient-28" x1="39.8" y1="83.45" x2="39.8" y2="84.91" gradientUnits="userSpaceOnUse"><stop offset="0"/><stop offset="1" stop-color="#77726d"/></linearGradient><linearGradient id="linear-gradient-29" x1="82.86" y1="87.46" x2="82.86" y2="81.9" xlink:href="#linear-gradient-26"/><linearGradient id="linear-gradient-30" x1="82.86" y1="87.46" x2="82.86" y2="81.9" xlink:href="#linear-gradient-27"/><linearGradient id="linear-gradient-31" x1="82.86" y1="84.72" x2="82.86" y2="86.16" xlink:href="#linear-gradient-28"/><linearGradient id="linear-gradient-32" x1="56.88" y1="51.72" x2="56.88" y2="18.41" gradientUnits="userSpaceOnUse"><stop offset="0"/><stop offset="1" stop-color="#2d4753"/></linearGradient><linearGradient id="linear-gradient-33" x1="56.88" y1="104.84" x2="56.88" y2="-22.89" xlink:href="#linear-gradient-32"/><linearGradient id="linear-gradient-34" x1="56.88" y1="104.84" x2="56.88" y2="-22.88" gradientUnits="userSpaceOnUse"><stop offset="0"/><stop offset="1" stop-color="#20333b"/></linearGradient><linearGradient id="linear-gradient-35" x1="20.42" y1="35.76" x2="0.95" y2="123.26" gradientUnits="userSpaceOnUse"><stop offset="0"/><stop offset="1" stop-color="#3a5b6f"/></linearGradient><linearGradient id="linear-gradient-36" x1="75.06" y1="28.01" x2="122.92" y2="114.58" xlink:href="#linear-gradient-35"/><linearGradient id="linear-gradient-37" x1="14.12" y1="79.4" x2="14.12" y2="30.61" gradientUnits="userSpaceOnUse"><stop offset="0"/><stop offset="1" stop-color="#1d2d37"/></linearGradient><linearGradient id="linear-gradient-38" x1="111.79" y1="75.86" x2="82" y2="36.92" xlink:href="#linear-gradient-37"/><linearGradient id="linear-gradient-39" x1="20.94" y1="32.38" x2="4.05" y2="83.28" xlink:href="#linear-gradient-35"/><linearGradient id="linear-gradient-40" x1="72.98" y1="25.1" x2="113.57" y2="66.86" xlink:href="#linear-gradient-35"/><linearGradient id="linear-gradient-41" x1="19.12" y1="37.23" x2="12.09" y2="62.33" xlink:href="#linear-gradient-35"/><linearGradient id="linear-gradient-42" x1="77.94" y1="28.4" x2="96.24" y2="52.56" xlink:href="#linear-gradient-35"/><linearGradient id="linear-gradient-43" x1="45.58" y1="39.98" x2="38.19" y2="2.33" xlink:href="#linear-gradient-35"/><linearGradient id="linear-gradient-44" x1="56.86" y1="58.92" x2="56.86" y2="-23.42" xlink:href="#linear-gradient-35"/></defs><g id="Layer_2" data-name="Layer 2"><g id="_10_Face" data-name="10_Face"><path d="M58.75,180.28c-35.82,0-49.81-11.09-49.95-11.2a.54.54,0,0,1-.17-.47.47.47,0,0,1,.24-.4c.17-.08,16.66-8.09,18.54-14.15s1.38-38.2,1.37-38.52a.65.65,0,0,1,.12-.37.35.35,0,0,1,.28-.13h0l50.68,4.22a.38.38,0,0,1,.29.19.71.71,0,0,1,.08.38c0,.25-3.31,24.6-.31,33.51s17.54,15.15,17.69,15.21a.49.49,0,0,1,.26.43.55.55,0,0,1-.2.47,75.41,75.41,0,0,1-38.94,10.83Z"/><path class="cls-1" d="M9,168.67s16.8-8.1,18.76-14.43,1.41-38.71,1.41-38.71l50.68,4.22s-3.36,24.64-.28,33.78S97.5,169,97.5,169a74.39,74.39,0,0,1-38.75,10.77C22.63,179.79,9,168.67,9,168.67Z"/><path d="M106,35C97,21.37,84.34,11.6,70.28,7.51a11.16,11.16,0,0,0-3.16-.38c-.72,0-1.44,0-2.14.08l-.47,0A31,31,0,0,0,54,9.42c.49-.34,1-.67,1.57-1,4.1-2.38,9.24-3.59,15.28-3.59.81,0,1.63,0,2.49.07a.58.58,0,0,0,.13-1.14,26.83,26.83,0,0,0-6.16-.65,43.21,43.21,0,0,0-5.71.41A35.7,35.7,0,0,0,50.47,7,34,34,0,0,0,45.54,10a26.11,26.11,0,0,1,14.79-8.9.58.58,0,0,0,.46-.62A.57.57,0,0,0,60.22,0h-.06A30.24,30.24,0,0,0,49.68,3.35,24.46,24.46,0,0,0,42,9.52a20.79,20.79,0,0,0-2.68,4.28C37.14,10.34,32.93,8,27.67,7.28H27.6a.57.57,0,0,0-.57.52.58.58,0,0,0,.46.63,14.7,14.7,0,0,1,4.66,1.79,8,8,0,0,1,3,2.86s.08.2.14.35a34.08,34.08,0,0,0-11.42-2.19,20.34,20.34,0,0,0-7.26,1.24.58.58,0,0,0-.36.65.57.57,0,0,0,.56.47.63.63,0,0,0,.19,0A12.17,12.17,0,0,1,21,13a21.64,21.64,0,0,1,3,.23A19.6,19.6,0,0,1,29.64,15l-.44,0a42.25,42.25,0,0,0-5.59,1.15,27.69,27.69,0,0,0-3,1l-.41.15a4,4,0,0,0-1.75,1,11,11,0,0,1-2.67,2.1L15,21l-.89.62,0,0,0,0a22.91,22.91,0,0,0-7.1,7.69l-.08.16-.11.21-.12.23,0,.06,0,.06c-.09.19-.18.38-.26.57L6,31.29a22.49,22.49,0,0,0-1,2.87A61.72,61.72,0,0,0,3.21,44.38a2.43,2.43,0,0,0,0,.38,2.9,2.9,0,0,1-.16.9,32.62,32.62,0,0,0-1.47,3.8A31.1,31.1,0,0,0,.14,56.14C.08,56.7.05,57.3,0,58a1.37,1.37,0,0,1,0,.16,1.64,1.64,0,0,0,.15,1.14c.27.36.51.74.74,1.09a17.43,17.43,0,0,1,2.54,5.65c.08.37.16.79.24,1.24s.15,1.05.25,1.61l0,.27c.1.73.21,1.49.35,2.23.29,1.53.61,3.14,1,5.09,0,.14.05.28.07.43a3.73,3.73,0,0,0,.44,1.46h0a.51.51,0,0,0-.29.08l-.09.06h0a2.75,2.75,0,0,0-.38.23,14.62,14.62,0,0,0-3.2,3.15,2.69,2.69,0,0,0-.36,1.23,2.19,2.19,0,0,1,0,.3c-.09.48-.16,1-.22,1.39a27.38,27.38,0,0,0-.2,3.61,41.29,41.29,0,0,0,.46,5.86c.16,1.13.35,2.16.58,3.14A4.67,4.67,0,0,0,2.87,99c.09.13.17.25.24.37A26.81,26.81,0,0,0,5.05,102a33.6,33.6,0,0,0,3.89,4c.14.12.33.26.53.41a4.53,4.53,0,0,1,.79.66l1.42,3.41.06.17a1.81,1.81,0,0,0,.36.72,4.22,4.22,0,0,0,2.24.86,8.66,8.66,0,0,0,1.44.12,5.7,5.7,0,0,0,2.45-.49c0,.14.06.28.09.44,1.75,8.63,8.63,14.76,14.7,20.18l.83.74c3,2.68,6.3,5.46,10.13,8.5a42.33,42.33,0,0,0,9.94,6.05,29.92,29.92,0,0,0,11.69,2.36c.81,0,1.62,0,2.42-.1,4-.32,7-1.62,9.11-3.88a26.4,26.4,0,0,0,2.59-3.53c.62-.94,1.25-1.91,2-2.78,2.41-3,4.55-5.67,6.53-8.26l1-1.24a34.76,34.76,0,0,0,4.13-6.19,20.83,20.83,0,0,0,1.25-4l.06-.27c.46-1.93.85-4,1.19-6.44.2-1.37.35-2.7.45-4a4.73,4.73,0,0,0,2.53-3.29A96,96,0,0,1,102.31,97a23.37,23.37,0,0,0,1.87-9.71,17.6,17.6,0,0,0-.11-2.05c0-.13-.07-.53-.92-1.12a5.69,5.69,0,0,0-1.87-.84c0-.11,0-.23-.06-.34a8,8,0,0,1,.2-2.08c.17-.66.39-1.3.59-1.86A34.74,34.74,0,0,1,103.79,75a37.1,37.1,0,0,0,1.85-4.1,16.65,16.65,0,0,0,.54-1.85,12.46,12.46,0,0,1-.76,3.78.63.63,0,0,0,.07.52.58.58,0,0,0,.47.24.59.59,0,0,0,.37-.13c2.09-1.81,3-5,3.5-7.18a27.76,27.76,0,0,0,.58-4.37c0-.82.06-1.7,0-2.77a11.47,11.47,0,0,1,.34,4.89.59.59,0,0,0,.14.46.61.61,0,0,0,.42.19.6.6,0,0,0,.47-.23,10.68,10.68,0,0,0,1.56-4.29,25.76,25.76,0,0,0-.69-11.35C111.28,43.48,108.36,38.64,106,35Z"/><path class="cls-2" d="M103.5,85.27a4.18,4.18,0,0,0-2.82-1.59,16.52,16.52,0,0,0-1.91-1.33l.5-24.53S86.6,49,85.55,48.49s-10.91-8.44-14.25-10-14.08-5.63-17.77-6.15S38.75,30.2,36.46,30.37,27.84,35,27.84,35s-6.69,15.66-7,16.89-12,27.8-12,27.8a9.57,9.57,0,0,0-3-.71,15.6,15.6,0,0,0-3.52,3.35c-1.76,6.51.35,15.13.35,15.13,2.64,5.28,8.09,9.32,8.09,9.32L12.53,111c1.41,1.05,5.1,1.05,6.16-.18,0,0,.53,7.39,7.57,14.43a203.21,203.21,0,0,0,18.29,16.18c5.11,4.05,12.67,8.63,22.52,8.1s10.39-5.46,13.55-9.33,10.91-13.55,12.14-16.36c1.12-2.56,2.53-9.63,2.91-15.12l.08.16c1.41-.17,2.12-2.11,2.12-2.11a94,94,0,0,1,3.87-10A24.34,24.34,0,0,0,103.5,85.27Z"/><path class="cls-3" d="M59.92,135s7.63.24,10.09-.23c0,0-.82,2.58-4.58,2.69C61.29,137.59,59.92,135,59.92,135Z"/><path class="cls-4" d="M21,88c-5.88,3.23-6.5,13.35-1.41,22.6s14,14.14,19.86,10.9,6.5-13.36,1.41-22.61S26.83,84.75,21,88Z"/><path class="cls-5" d="M97.22,101.17c1.22-3,1-6.48,1.45-9.62a21.87,21.87,0,0,1,1-4C94,87,87.14,92,83.13,100c-4.71,9.46-3.67,19.55,2.33,22.54a9.46,9.46,0,0,0,7.75,0c.21-.65.43-1.42.64-2.28l.85-10.63C93.43,107,96.26,103.52,97.22,101.17Z"/><path class="cls-6" d="M32.3,69.78S32.93,50,35.58,46.32c4.69-6.56,33.78-1.17,43.17,3.76s15.24,12.2,15,18.3l-7,3.28L75,76.12l-20.64-.47s-14.78-3.29-15.48-3.29Z"/><path class="cls-7" d="M27.37,67.67S30,63,30.42,60.16,32.3,41.87,37,39.76s13.14,12,26,10.55a15.53,15.53,0,0,0,13.29,5.24C78.17,57,86.44,63.28,94.15,65a15.9,15.9,0,0,1,1.49,6c0,3.28,0,13.13.93,16,0,0,1.42-2.37,2.46-4.4l-.26-.16.5-24.53s-4.1-2.85-7.83-5.4c-2.25-1-4.64-2-6.69-2.78a6.52,6.52,0,0,0-.4-2c-3-2.18-10.27-7.89-13-9.21C68,36.88,57.22,32.83,53.53,32.31S38.75,30.2,36.46,30.37,27.84,35,27.84,35s-6.69,15.66-7,16.89C20.52,52.83,13,70.21,10,77l7.28,5.25S25.26,73.54,27.37,67.67Z"/><path class="cls-8" d="M41.91,128.2c-1.4-7-8.91-12.67-14.78-18.3a42.76,42.76,0,0,1-8.91-13.37l-1.41,6.8c1.83,5.35-.21,7.51-1.86,8.37,1.49.12,3.1-.17,3.74-.92,0,0,.53,7.39,7.57,14.43a203.21,203.21,0,0,0,18.29,16.18,44.05,44.05,0,0,0,5.91,4C44.94,140.48,43.22,134.75,41.91,128.2Z"/><path class="cls-9" d="M96.34,105.44c3.29-8.21,2.35-10.79,2.35-10.79C98,101,87.42,117.41,86.25,124.44c-.87,5.22-3.41,11.59-4.67,14.55,3.55-4.38,10.06-12.63,11.18-15.19,1-2.39,2.34-8.68,2.82-14A12.11,12.11,0,0,1,96.34,105.44Z"/><path class="cls-10" d="M84.43,119.4c0,6.15-8.87,11.14-19.82,11.14s-19.82-5-19.82-11.14,8.87-11.14,19.82-11.14S84.43,113.25,84.43,119.4Z"/><path class="cls-11" d="M56.46,105A56.63,56.63,0,0,0,59,97.23c.47-2.58-1.64-12.9-1.64-12.9s-7.75,6.57-9.15,11.73,1.17,8.21,5.63,13.14C53.88,109.2,55.05,106.15,56.46,105Z"/><path class="cls-12" d="M75.69,107.61a9,9,0,0,0-2.28-3s-1.76-3.17-2.47-4.4c0,0-1.93-11.61-1-15.48a45.13,45.13,0,0,0,1.93,6.16S77.45,93,78,95.3s1.06,9-1.93,13.72Z"/><path class="cls-13" d="M39.45,89.31s6.6-.61,9.33-3.52l2.81,1.68L49,87.38A15,15,0,0,1,39.45,89.31Z"/><path class="cls-14" d="M83.29,88.8s-5.07,0-7.59-2.59l-1.85,1.93,2-.34A9.62,9.62,0,0,0,83.29,88.8Z"/><path class="cls-15" d="M27.13,84.56,28,85l3.16-.58a13.72,13.72,0,0,0,8.68,2.69,14.08,14.08,0,0,0,8.68-2.58s-6.1-1.17-6.45-1-10.67-.24-10.67-.24l-2-.58Z"/><path class="cls-16" d="M80.91,86.79S86.48,89,91.38,85.5a3.7,3.7,0,0,0,2.92,0l-.53-1S91,82.69,90.59,82.92s-5,2.23-5,2.23Z"/><path class="cls-17" d="M54.4,109.72a18.26,18.26,0,0,1,3.17-2c1.41-.62,2.11-2.55,1.41-3.25S53.88,105.76,54.4,109.72Z"/><path class="cls-18" d="M75.87,110s-1.23-1.15-2-1.94-1.41-3.43-.62-3.52C73.23,104.53,77.1,107.17,75.87,110Z"/><path class="cls-19" d="M66.92,109.7a6.84,6.84,0,0,1-2.75-.92c-3.93-2.36-3.06-5.78-1.5-9.44.53-1.23-.88-14.6-.88-14.6l6.87-.35s-.18,10.38,1.58,15.13a23.08,23.08,0,0,0,.88,2.46c1.13,2.26,2.18,5.06-.34,6.83A5.62,5.62,0,0,1,66.92,109.7Z"/><path class="cls-2" d="M61.27,101.44s4.94-3,9.55-.22l-.33-1.9s-4.9-2-9.1.6Z"/><path class="cls-20" d="M72.41,109.2a6.58,6.58,0,0,1-3.64,2.69c-2.46.71-5.39-1.17-5.39-1.17A7.5,7.5,0,0,0,59,109.31a6.5,6.5,0,0,0-4.34,1.88S58.08,116,63,117.48c.22.82.88,3,1.92,3.09s1.52-1.81,1.76-2.8c3.41-.66,6.81-4.12,6.81-4.12l1.29-1.29C75.34,109.78,72.41,109.2,72.41,109.2Z"/><path d="M57.84,110.87a4.5,4.5,0,0,1,4.39,1A3.71,3.71,0,0,1,57.84,110.87Z"/><path d="M71,112.63,72.44,111s1.41.87.44,1.67C72.88,112.63,72.7,112.8,71,112.63Z"/><path class="cls-21" d="M49.66,84.8a8.1,8.1,0,0,0,4.69-8.68l-7.28-3.76S33.7,67.67,27.6,71.89s-.47,12.67-.47,12.67l4.37-.94L42.62,84.8Z"/><path class="cls-22" d="M75.75,85.27s-4.51-4.93-1.86-9.15l11.66-3.76h8l3.18.47a4.25,4.25,0,0,1,.79,3.76,7.11,7.11,0,0,1-.25.87A46.26,46.26,0,0,1,95.39,82c-.25.55-.55,1.09-.76,1.65a3.5,3.5,0,0,1-.57,1.26c-.36.39-.84.13-1.24,0a8.75,8.75,0,0,1-.87-.27l-.67-.38c-.85.44-2,.14-2.9.34a9.71,9.71,0,0,1-1.08.17c-1.27.13-2.54.19-3.81.25-2.45.12-4.9.2-7.35.26A1.72,1.72,0,0,1,75.75,85.27Z"/><path class="cls-23" d="M49,126.79s5.37,3.43,6.95,4.57,4.23,2.47,9.06,2.56,6.78-1.85,8-2.91,3-4,4.57-4.66l-6.07-.62-11.79-.35-6.51,1.06Z"/><path class="cls-24" d="M56,131.44c1.6,1.13,4.22,2.39,8.95,2.48s6.78-1.85,8-2.91a11.63,11.63,0,0,0,1.21-1.31c-1.75-1.27-4.85-2.12-8.38-2.12C60.83,127.58,56.72,129.26,56,131.44Z"/><path class="cls-25" d="M71.47,125.73l-11.79-.35-6.51,1.06-4.22.35s5.13,3.28,6.84,4.49h0s-3-2-1.76-2.91,8.63,0,11.09-.17,6.86-.62,7.74-.35.58,2.23.07,3.18l0,0c1.23-1,3-4,4.57-4.66ZM57.63,132.4A17.51,17.51,0,0,0,65,133.92c3.94.07,6-1.2,7.23-2.24l-.28.12C66.44,134.5,59,132.76,57.63,132.4Z"/><path class="cls-25" d="M47.72,126.35a10.91,10.91,0,0,0,7-1.41c3.78-2.11,5.28-3.43,7.12-3.69a7.59,7.59,0,0,1,2.47.88c1.23.7,4.22-.09,4.92-.71a2.76,2.76,0,0,1,2.29.27c1.15.7,2.46,2.64,3.52,3.34a6,6,0,0,0,3.34,1.06,7.79,7.79,0,0,1-4.57.79,25.3,25.3,0,0,0-6.51,0s-.71.53-3.08,0a31.27,31.27,0,0,0-6.69-.27C55.2,127,49.39,127.67,47.72,126.35Z"/><path class="cls-26" d="M65.5,127.12l-1.8-.29a9.86,9.86,0,0,1-1.32-.35,12.15,12.15,0,0,0-3.46-.12c-1.61,0-3.18.41-4.78.54-2.9.23-7.65.4-8.64-3.12,0-.08-.15,0-.13,0,.74,3.28,4.91,3.45,7.61,3.37,1.61,0,3.22-.22,4.82-.37a22.89,22.89,0,0,1,4,.12c.57,0,1.07,0,1.63,0l2.09.22S65.53,127.12,65.5,127.12Zm15.29-3.85a5.79,5.79,0,0,1-2.49,2.64,9.69,9.69,0,0,1-3.61.77c-2.33.16-4.68-.22-7,0a6.76,6.76,0,0,0,1.87-1.5,0,0,0,0,0,0,0,6,6,0,0,1-3.67,1.87.1.1,0,0,0,0,.19,4.33,4.33,0,0,0,1.71-.44.05.05,0,0,0,0,0c2.62-.32,5.26.26,7.89.09,2.2-.14,4.79-1.29,5.32-3.67C80.81,123.26,80.79,123.25,80.79,123.27Z"/><path class="cls-27" d="M11.65,101.45A10.23,10.23,0,0,1,11.18,97c.22-1.92-.4-2.92-1.88-4.2-3.13-2.73-4,3.71-3.53,5.71-1.32-1.63-1-5.07-.54-7,.31-1.24.94-2.41.79-3.75-.12-1.12-1.17-2.07-2.32-1.34a2.15,2.15,0,0,1,2.67-2.62c2.48.69,4,3.75,5,5.84A22,22,0,0,1,13.85,97c.26,1.94-.74,3.69-.32,5.63Z"/><path class="cls-28" d="M98.1,101.22A11.22,11.22,0,0,1,100,98.05c1-1,2.11-4.45,2.34-6.1s.35-4,.35-4a3.76,3.76,0,0,0-.93-.7c-.36-.12-1.41,2.23-1.41,2.23L99,94.42Z"/><path class="cls-29" d="M15.17,97.58c0-2.81-1.41-5.63-2.82-8.09-1-2.29-4.92-8.8-7.91-6.51a20.06,20.06,0,0,1-.71,3.17l1.76-1.94a22.57,22.57,0,0,1,7.74,13.2S11,98.82,11.3,100.57a3.09,3.09,0,0,0,.63,1.3,9.92,9.92,0,0,0,1.13,2.22l2.11-.17.35-2.11C14.11,100.4,15.17,99.34,15.17,97.58Z"/><path class="cls-30" d="M101.74,85.79c-1.23,2.12-2.64,4.93-2.82,7.57L98.8,95a9.25,9.25,0,0,1-.3,3.72.17.17,0,0,0-.11.15c0,.18-2.58,8.21-2.58,8.21l-.06.88a6.19,6.19,0,0,0,.67-1.38c1.12-1.43,2.11-6.16,2.74-8.76.7-2.93,2.46-9.62,2.46-9.62l1,.06A6.14,6.14,0,0,0,101.74,85.79Z"/><path class="cls-31" d="M99,93.36a14.91,14.91,0,0,1,1-3.82,9.77,9.77,0,0,1,1.95-3.6l-.32,0a7.31,7.31,0,0,1,1,2.38c0,.08.16.07.15,0a5.89,5.89,0,0,0-.78-2.57.21.21,0,0,0-.37,0,8.78,8.78,0,0,1-1,2.06c-.28.56-.53,1.13-.76,1.71a12.19,12.19,0,0,0-.93,3.85s.06,0,.06,0Z"/><path class="cls-32" d="M103.54,85.27c0-.26-.5-.61-.69-.74a5.5,5.5,0,0,0-2.16-.87,0,0,0,1,0,0,0c.92.18,2.72.69,2.8,1.83.06.83.06,1.67,0,2.51a25,25,0,0,1-2.29,9.53c-1.13,2.54-2.15,5.14-3.06,7.78-.4,1.16-.87,3.19-2.39,3.29,0-.36,0-.73.07-1.09a16.3,16.3,0,0,1,1.12-4c.52-1.6,1.14-3.16,1.51-4.81a17.21,17.21,0,0,0,.17-6.63c0-.09-.15,0-.14,0A18.48,18.48,0,0,1,98,99.87c-.48,1.75-1.16,3.45-1.71,5.19l-.57,1.84a11,11,0,0,0-.15,2.15c-.18,2.31-.5,4.61-.9,6.9-.53,3.06-1.05,6.43-2.7,9.12a93,93,0,0,1-6.17,8.47c-1.94,2.5-4.07,4.88-5.91,7.45-1.6,2.23-2.77,4.69-5.1,6.28-3.6,2.45-8.72,2.44-12.87,1.94A32.21,32.21,0,0,1,49,144.46a82,82,0,0,1-9.2-7q-5.46-4.53-10.6-9.45c-3.55-3.4-6.82-6.86-8.82-11.42a18.16,18.16,0,0,1-1.65-5.81.08.08,0,0,0-.14-.06c-1.22,1.29-3.81,1.09-5.32.56a1.24,1.24,0,0,1-.94-.92l-.81-1.94c-.21-.5-.39-1.48-.84-1.82A30.78,30.78,0,0,1,8,104.23a30.09,30.09,0,0,1-4.18-5,6.77,6.77,0,0,1-1.1-2c-.1-.4-.18-.8-.26-1.2A34.87,34.87,0,0,1,2,83.86a3.92,3.92,0,0,1,.68-2,18.07,18.07,0,0,1,1.65-1.74,11.45,11.45,0,0,1,1.28-1c.27-.2.42-.13.74-.1a7.16,7.16,0,0,1,2.46.64s0,0,0,0A6.45,6.45,0,0,0,6.72,79c-.63-.11-.81-.17-1.34.2a14.37,14.37,0,0,0-3.09,3A4,4,0,0,0,2,83.57c-.09.45-.15.91-.21,1.36a26.17,26.17,0,0,0-.2,3.54A41.31,41.31,0,0,0,2,94.25c.15,1,.33,2.08.57,3.1a6.8,6.8,0,0,0,1,1.75,25.44,25.44,0,0,0,1.9,2.6,33.68,33.68,0,0,0,3.83,3.91c.39.34,1.32.92,1.46,1.27l1.42,3.4a2.27,2.27,0,0,0,.31.73,3.79,3.79,0,0,0,1.95.71c1.23.2,3.1.2,4.1-.68a.31.31,0,0,0,.1-.15,1.41,1.41,0,0,0,0,.23c0,.36.11.73.18,1.09,1.8,8.83,9,14.9,15.38,20.63,3.27,2.93,6.66,5.74,10.1,8.47a41.84,41.84,0,0,0,9.82,6A29.5,29.5,0,0,0,68,149.52c3.28-.27,6.49-1.24,8.76-3.72,1.74-1.89,2.9-4.28,4.52-6.28,2.21-2.72,4.39-5.46,6.51-8.25a43,43,0,0,0,5-7.34,21.31,21.31,0,0,0,1.28-4.21c.5-2.11.87-4.25,1.18-6.4.2-1.42.37-2.85.48-4.29h0c1.47-.48,2-1.71,2.47-3.06a95.16,95.16,0,0,1,3.56-9.21,23.1,23.1,0,0,0,1.82-9.5A16.59,16.59,0,0,0,103.54,85.27Z"/><path class="cls-31" d="M15.05,99.47a13,13,0,0,0,.31-1.63,10.82,10.82,0,0,0-.91-4.65A33.85,33.85,0,0,0,11,86.63c-1-1.5-2.29-3.3-4-4a2.69,2.69,0,0,0-2.15-.12c-.43.18-.58.3-.64.75-.14,1-.31,1.93-.51,2.89,0,.1.13.18.18.08a16,16,0,0,0,.61-1.89c.2-.67.06-1.2.77-1.48a2.62,2.62,0,0,1,2.5.59,13.81,13.81,0,0,1,3.71,4.72A50.94,50.94,0,0,1,13.89,93c0,1-.07,2-.05,3a8,8,0,0,0,.09,1c.09.54-.11.53-.55.6a2.41,2.41,0,0,0-1.9,1.35c-.67,1.8.7,4,1.67,5.38a.1.1,0,0,0,.13,0l1-.58s0-.07,0,0c-.3.13-.92.57-1.15.23s-.38-.61-.56-.91a9.84,9.84,0,0,1-.91-2.14,2.88,2.88,0,0,1,.13-2.14,3,3,0,0,1,2.34-1.11s.06-.05,0-.09A20,20,0,0,1,14,93.25a15.71,15.71,0,0,1,.64,1.9,9.75,9.75,0,0,1,.06,4.43,2.39,2.39,0,0,0,.82,2.24s0,0,0,0A2.49,2.49,0,0,1,15.05,99.47ZM6.59,82.94s-.13,0-.09.07c3.68,5-3.34,10.21-.84,15.46,0,0,0,0,0,0C3.42,93.33,10.56,87.66,6.59,82.94Z"/><path class="cls-33" d="M54.35,109.83c-.23-1.8.93-3.41,1.85-4.84,0,0,0-.08-.06,0-1.16,1.29-2.41,3-2.3,4.88s1.78,3,3.2,4c0,0,0,0,0,0A6.54,6.54,0,0,1,54.35,109.83ZM57,111.28a0,0,0,1,0,0,0c2-1.23,4.29-.39,5.75,1.24,0,.05.11,0,.08-.06A3.86,3.86,0,0,0,57,111.28Zm16.22.47a1.26,1.26,0,0,0-.71-.85h0l.21-.46s-.06-.08-.09,0a13.57,13.57,0,0,1-3.93,4,4.57,4.57,0,0,1-5.69-.66s0,0,0,0c1.42,1.43,3.33,2.26,5.29,1.39A9.22,9.22,0,0,0,72.49,111c.19.25.45.41.57.71a1.06,1.06,0,0,1-.25,1c0,.08.08.15.13.07A1.27,1.27,0,0,0,73.25,111.75ZM74,105.1s-.11.05-.07.09a5,5,0,0,1,1.91,4.21,5.45,5.45,0,0,1-2.61,4.13c-.09,0,0,.18.08.13a5.06,5.06,0,0,0,3-4.06A4.57,4.57,0,0,0,74,105.1Zm-3.69-8.76c.24,1.11.45,2.23.65,3.35a2.92,2.92,0,0,0,.56,1.31A23.49,23.49,0,0,1,73,103.94s.09,0,.07,0c-.35-.84-.72-1.68-1.14-2.49a5,5,0,0,1-.76-1.69c-.16-1.15-.39-2.29-.52-3.45-.2-1.65-.48-3.29-.64-4.94a48.48,48.48,0,0,1-.11-6.6,0,0,0,1,0-.06,0,53.82,53.82,0,0,0-.1,6.6A31.16,31.16,0,0,0,70.27,96.34Z"/><path class="cls-34" d="M95.62,67.79a9.71,9.71,0,0,0-2.12.94,12.79,12.79,0,0,1-5.17.94c-1.19-.12-6.22-.24-7.42-.12-1,.09-2.85,1.77-4.72,4.31a9.65,9.65,0,0,1,1.71-3.67,16.73,16.73,0,0,0-4.27,6.07,12.34,12.34,0,0,0,2.82-.68,51.82,51.82,0,0,0,6.85-1.69c2.91-1.06,6-.7,8.21-.7a14.37,14.37,0,0,1,4.91.93c.53.24,1.19,2.94,1.19,2.94A13.8,13.8,0,0,0,95.62,67.79Z"/><path class="cls-35" d="M27.31,67.79a13.64,13.64,0,0,1,2.63.94,19.27,19.27,0,0,0,6.41.94c1.48-.12,7.72-.24,9.2-.12,1.18.09,3.53,1.77,5.86,4.31a9,9,0,0,0-2.13-3.67,17.56,17.56,0,0,1,5.3,6.07,18.57,18.57,0,0,1-3.5-.68,77.22,77.22,0,0,1-8.49-1.69c-3.62-1.06-7.39-.7-10.19-.7a21.61,21.61,0,0,0-6.08.93c-.65.24-1.48,2.94-1.48,2.94A11.61,11.61,0,0,1,27.31,67.79Z"/><path class="cls-36" d="M49.13,84.39s-1.76-2.47-3-3S35.58,80.34,34,81a9.1,9.1,0,0,0-3,2.6l.07.07.06,0,.45.28.19.12.41.23a1.21,1.21,0,0,1,.28.21c3.85,2.77,12.83,2.22,16.1,0l.88.35Z"/><path class="cls-37" d="M43.76,83.2A4,4,0,0,0,43,80.93c-1.95-.16-4.41-.26-6.31-.21a3.93,3.93,0,0,0-.88,2.48,4,4,0,0,0,1.45,3.06,22.41,22.41,0,0,0,4.85.12A4,4,0,0,0,43.76,83.2Z"/><path class="cls-38" d="M43.3,83.2a3.43,3.43,0,0,0-.88-2.31c-1.62-.12-3.48-.2-5.07-.18a3.49,3.49,0,0,0,1,5.66,23.46,23.46,0,0,0,2.78.07A3.5,3.5,0,0,0,43.3,83.2Z"/><path d="M41.87,83.2a2.07,2.07,0,1,1-2.07-2.06A2.07,2.07,0,0,1,41.87,83.2Z"/><path class="cls-39" d="M41.26,83.2a1.46,1.46,0,1,1-1.46-1.46A1.46,1.46,0,0,1,41.26,83.2Z"/><path class="cls-36" d="M40.65,81.49a.85.85,0,1,1-.85-.85A.85.85,0,0,1,40.65,81.49Z"/><path class="cls-36" d="M40.21,85.22a.41.41,0,1,1-.41-.41A.4.4,0,0,1,40.21,85.22Z"/><path d="M27.14,84.58c.79-.22,1.59-.37,2.39-.53.3-.06,1.33-.12,1.51-.36a9.21,9.21,0,0,1,2.55-2.39,5,5,0,0,1,2.31-.5c1-.06,2.07,0,3.1,0a47.5,47.5,0,0,1,6.19.47c1.74.27,2.9,1.82,3.88,3.18,0,.07.17,0,.11-.07-.89-1.24-2-2.86-3.62-3.17a37.4,37.4,0,0,0-6.17-.5c-1.11,0-2.22,0-3.33,0A6.3,6.3,0,0,0,34,81a7.52,7.52,0,0,0-2.71,2.3,1.67,1.67,0,0,1-1.16.58c-1,.23-2,.4-3,.67,0,0,0,0,0,0Z"/><path class="cls-40" d="M32.22,84.41c2.21,1.77,5.36,2.1,8.1,2.1s6-.31,8.31-1.9c0,0,0-.13-.06-.09-2.32,1.47-5.33,1.83-8,1.88s-6-.29-8.3-2c0,0-.06,0,0,0Z"/><path class="cls-36" d="M91.39,84.41a1.57,1.57,0,0,1-.27-.2c-1-.7-2.59-1.76-2.59-1.76-2.38-.7-9.14-.35-9.14-.35a8.76,8.76,0,0,0-3.38,3l-.2.53h1c3.77,2.46,11.32,2.11,14.5-.88h.06A1,1,0,0,1,91.39,84.41Z"/><path class="cls-41" d="M86,82.09c-2.34-.15-5.21,0-6.2,0a3.81,3.81,0,0,0-.85,2.4,3.75,3.75,0,0,0,.82,2.35,16.12,16.12,0,0,0,6,.24,3.81,3.81,0,0,0,.18-5Z"/><path class="cls-42" d="M86.35,84.48a3.38,3.38,0,0,0-1-2.42c-1.81-.08-3.8,0-5,0A3.37,3.37,0,0,0,80.49,87a15.91,15.91,0,0,0,4.53.17A3.37,3.37,0,0,0,86.35,84.48Z"/><path d="M84.92,84.48a2.06,2.06,0,1,1-2.06-2A2,2,0,0,1,84.92,84.48Z"/><path class="cls-43" d="M84.31,84.48a1.46,1.46,0,1,1-1.45-1.43A1.45,1.45,0,0,1,84.31,84.48Z"/><path class="cls-36" d="M83.7,82.79a.85.85,0,1,1-.84-.82A.84.84,0,0,1,83.7,82.79Z"/><path class="cls-36" d="M83.26,86.45a.41.41,0,1,1-.4-.4A.4.4,0,0,1,83.26,86.45Z"/><path d="M76.05,85.11a8.91,8.91,0,0,1,2.82-2.67,2.11,2.11,0,0,1,1.32-.33c1.66-.06,3.33-.07,5,0a24,24,0,0,1,2.54.23,4,4,0,0,1,1.8.86c1.32.89,2.42,1.93,4.18,1.94a0,0,0,1,0,0-.08c-2-.13-3.44-1.52-5-2.53a3.9,3.9,0,0,0-1.56-.38c-.9-.11-1.8-.14-2.71-.16-1.58,0-3.16,0-4.74.06a2.73,2.73,0,0,0-1.43.66A8.71,8.71,0,0,0,76,85.07s0,.07.07,0Z"/><path class="cls-40" d="M76.8,85.63a12.7,12.7,0,0,0,7.62,1.66c2.45-.14,5.26-.83,6.91-2.54,0,0,0,0,0,0-3.72,3-10.33,3.37-14.49.89a0,0,0,1,0,0,0Z"/><path class="cls-44" d="M112.29,49.61C110,39.52,95.17,14.89,69.36,7.85c0,0-12-1.17-19.23,4.46,0,0,5.86-8.92,23.22-8,0,0-16.89-4-30.5,8.68A26,26,0,0,1,60.21.58S44.49,2.22,39.33,15.12c0,0-2.34-6.1-11.73-7.27,0,0,7.51,1.41,8.69,6.57,0,0-11-4.69-19.48-1.41,0,0,6.81-2.35,14.78,2.35,0,0-7.51.47-12.67,3.28a9.92,9.92,0,0,1-2.58,2.11c-1.87,1.18-7.27,4.7-9.62,10.09s-3,14.78-3,14.78S.39,52.19.63,59c0,0,3,4,3.51,7.74S6.26,78,6.26,78L7.43,79.4s5.16,2.35,5.63,4.93,4,20.17,4,20.17a8.23,8.23,0,0,0,3.05,1.88s-4.23-20.17-1.65-30.5c0,0,5.17-12,9.15-16.42,0,0,.24-7.27,3.29-11.73a23.22,23.22,0,0,1-4,3.52A21.2,21.2,0,0,0,33.23,40s-.23-1.64,2.58-2.35c0,0-.23-3,2.35-3S43.09,39.05,49,43.74s8.45,6.1,13.61,6.1A19.72,19.72,0,0,0,76.87,53.6a18.12,18.12,0,0,1-11-4.93c-4.69-4.69-9.62-9.15-12.9-10.79a33.42,33.42,0,0,1,12.2,5.63C70.53,47.73,83,61.1,97.75,63.92c0,0,.94,9.85,0,15.25s-1.88,8,.23,11.26c0,0-1.17-4.93,1.41-6.81h1.41s-.71-2.11,1.41-6.56,4-7,4-13.38c0,0,1.41,5.16-.23,9.39,0,0,4.92-4.23,3.75-16.66a10.74,10.74,0,0,1,1.64,7.74S114.64,59.7,112.29,49.61ZM62,48.9c-5.86-.7-7.62-3.51-10.32-6-2.1-1.91-6.22-6-6.22-6C50.13,36.59,62,48.9,62,48.9Z"/><path class="cls-45" d="M16.34,20.75c-1.87,1.18-7.27,4.7-9.62,10.09s-3,14.78-3,14.78S.39,52.19.63,59c0,0,3,4,3.51,7.74S6.26,78,6.26,78L7.43,79.4s5.16,2.35,5.63,4.93,4,20.17,4,20.17a8.23,8.23,0,0,0,3.05,1.88s-4.23-20.17-1.65-30.5c0,0,5.17-12,9.15-16.42,0,0,.24-7.27,3.29-11.73a23.22,23.22,0,0,1-4,3.52A21.2,21.2,0,0,0,33.23,40s-.23-1.64,2.58-2.35c0,0-.23-3,2.35-3S43.09,39.05,49,43.74s8.45,6.1,13.61,6.1A19.72,19.72,0,0,0,76.87,53.6a18.12,18.12,0,0,1-11-4.93c-4.69-4.69-9.62-9.15-12.9-10.79a33.42,33.42,0,0,1,12.2,5.63C70.53,47.73,83,61.1,97.75,63.92c0,0,.94,9.85,0,15.25s-1.88,8,.23,11.26c0,0-1.17-4.93,1.41-6.81h1.41s-.71-2.11,1.41-6.56,4-7,4-13.38c0,0,1.41,5.16-.23,9.39,0,0,4.92-4.23,3.75-16.66a10.74,10.74,0,0,1,1.64,7.74s3.29-4.45.94-14.54S95.17,14.89,69.36,7.85c0,0-1.16-.11-3-.1-2.66,0-6.7,1.25-8.7,3-2.3,2.05-.21,3.39,1.88,4.17,1.76.66,8.91,1.62,6.63,4.86-1.49,2.12-5.75,2.67-8,3.29s-8.89,1.13-8.52,4.5c.25,2.22,3.57,3.7,5.34,4.42a39.09,39.09,0,0,0-10.41-3c-3.34-.33-6.67.46-10-.52a25.78,25.78,0,0,0-8.66-1.33c-2.1.1-4.77,0-6-2s-.74-5.48.55-7.3c-.51.22-1,.46-1.48.72A9.92,9.92,0,0,1,16.34,20.75ZM62,48.9c-5.86-.7-7.62-3.51-10.32-6-2.1-1.91-6.22-6-6.22-6C50.13,36.59,62,48.9,62,48.9Z"/><path class="cls-46" d="M6.72,30.84c-2.34,5.4-3,14.78-3,14.78S.39,52.19.63,59c0,0,3,4,3.51,7.74S6.26,78,6.26,78L7.43,79.4s5.16,2.35,5.63,4.93,4,20.17,4,20.17a8.23,8.23,0,0,0,3.05,1.88s-4.23-20.17-1.65-30.5c0,0,5.17-12,9.15-16.42,0,0,.24-7.27,3.29-11.73a23.22,23.22,0,0,1-4,3.52A21.2,21.2,0,0,0,33.23,40s-.23-1.64,2.58-2.35c0,0-.23-3,2.35-3S43.09,39.05,49,43.74s8.45,6.1,13.61,6.1A19.72,19.72,0,0,0,76.87,53.6a18.12,18.12,0,0,1-11-4.93c-4.69-4.69-9.62-9.15-12.9-10.79a33.42,33.42,0,0,1,12.2,5.63C70.53,47.73,83,61.1,97.75,63.92c0,0,.94,9.85,0,15.25s-1.88,8,.23,11.26c0,0-1.17-4.93,1.41-6.81h1.41s-.71-2.11,1.41-6.56,4-7,4-13.38c0,0,1.41,5.16-.23,9.39,0,0,4.92-4.23,3.75-16.66a10.74,10.74,0,0,1,1.64,7.74s3.29-4.45.94-14.54S95.17,14.89,69.36,7.85c0,0-.66-.06-1.76-.09,1.06,0,2,2.36,2.66,3,1.18,1.12,2.76,1.94,4,3.1s2.86,1.76,4.09,3c3.39,3.3-4.17,5.43-6.18,6.36-3.64,1.7-9.63,3.74-9.49,8.63.06,1.79-.4,2.32-2.1,2.78-.74.19-1.56.06-2.29.25s-1.29.89-1.62,1c-2.32.93-3.73-.51-5.6-1.42a28.86,28.86,0,0,0-10.47-2.88,17.56,17.56,0,0,1,2.71,3.73c-3-1.16-5.49-3.53-8.64-1.79-2,1.11-4.15,2.79-6.5,1.9C26,34.56,26.82,33,25.6,31.55c-1.68-2-5.26-1.37-7.32-3.1-1.23-1-5-5.94-2.22-7.48A22.18,22.18,0,0,0,6.72,30.84ZM62,48.9c-5.86-.7-7.62-3.51-10.32-6-2.1-1.91-6.22-6-6.22-6C50.13,36.59,62,48.9,62,48.9Z"/><path class="cls-47" d="M28.13,37.64c-1.63-2.09-2.32-4.48-5.4-3.7-3.29.83-4.64,2.5-6.33-1.93-1.24-3.24-1.79-3.37-5.42-3.55-.18-1.16.63-3.27,1.71-5.09a21,21,0,0,0-6,7.47c-2.34,5.4-3,14.78-3,14.78S.39,52.19.63,59c0,0,3,4,3.51,7.74S6.26,78,6.26,78L7.43,79.4s5.16,2.35,5.63,4.93,4,20.17,4,20.17a8.23,8.23,0,0,0,3.05,1.88s-4.23-20.17-1.65-30.5c0,0,5.17-12,9.15-16.42,0,0,.24-7.27,3.29-11.73a23.22,23.22,0,0,1-4,3.52A21.35,21.35,0,0,0,33.14,40.5,6.78,6.78,0,0,1,28.13,37.64Z"/><path class="cls-48" d="M77.06,12.73c0,.09-.32.9,0,1.47.23.36,1,.66,1.4.92a14.84,14.84,0,0,1,3.07,2.3c5.25,6.49-7.93,8.58-11,11.36-1,.85-1.39,1.12-1.19,2.53.11.81,1.56,1.6,1.44,2.35-.31,1.74-4.65,1.8-6.06,1.92S59,35,57.85,35.8c-.84.58,0,1.46-1.16,2.08-.57.3-2.15,0-2.81,0l.69.42a32.55,32.55,0,0,1,10.57,5.21C70.53,47.73,83,61.1,97.75,63.92c0,0,.94,9.85,0,15.25s-1.88,8,.23,11.26c0,0-1.17-4.93,1.41-6.81h1.41s-.71-2.11,1.41-6.56,4-7,4-13.38c0,0,1.41,5.16-.23,9.39,0,0,4.92-4.23,3.75-16.66a10.74,10.74,0,0,1,1.64,7.74s3.29-4.45.94-14.54C110.06,40,96.59,17.27,73.08,9,74.55,10.29,76.14,11.15,77.06,12.73Z"/><path class="cls-49" d="M17.51,59.51a6.45,6.45,0,0,0-4.45,1c-1.48.73-3.64,2.57-5.4,2.06-1.45-.43-1.7-2.34-2.88-3.23s-2.4-.59-3.39-2.17A4.16,4.16,0,0,1,.8,55.41,21.22,21.22,0,0,0,.63,59s3,4,3.51,7.74S6.26,78,6.26,78L7.43,79.4s5.16,2.35,5.63,4.93,4,20.17,4,20.17a8.23,8.23,0,0,0,3.05,1.88s-4.23-20.17-1.65-30.5c0,0,5.17-12,9.15-16.42,0,0,0-.18,0-.5-1.71,1.4-3.9,2.61-5.42,2.61C20.35,61.57,19.22,59.9,17.51,59.51Z"/><path class="cls-50" d="M97.75,79.17c-.94,5.39-1.88,8,.23,11.26,0,0-1.17-4.93,1.41-6.81h1.41s-.71-2.11,1.41-6.56,4-7,4-13.38c0,0,1.41,5.16-.23,9.39,0,0,4.92-4.23,3.75-16.66a10.74,10.74,0,0,1,1.64,7.74s3.29-4.45.94-14.54c-1-4.44-4.47-11.7-10.2-19,1.16,3,3.5,6.19,4.74,9,1.42,3.16,3.21,6.61,2.89,10.24a16.76,16.76,0,0,0-8.18-6.45c2.64,3.66,4.52,11.7-.28,14.33-6.59,3.62-15.56.63-21.88-2.34,5.33,3.83,11.6,7.33,18.37,8.62C97.75,63.92,98.69,73.77,97.75,79.17Z"/><path class="cls-51" d="M7,35.3c-1.2,2-.7,5.4-.7,7.74a14.68,14.68,0,0,1-1.62,6.73c2.12-2.5,3.07-.46,4.72,1a9.68,9.68,0,0,0,6.81,2.57c2.5,0,3.88-.59,6,1a19.28,19.28,0,0,1,3.48,3.45A15.53,15.53,0,0,1,27.35,53c-2.51,1.79-4.09-.7-5.79-2.27-2.09-1.93-4.49-2.85-6.86-4.16a13.58,13.58,0,0,1-7-14.08Z"/><path class="cls-52" d="M70.07,44.92c1.37,1.26,3,2.26,4.46,3.43-.76-3.46,12.08-1,14.31-1.73,2.66-.86,2.89-3.25,3.52-5.63.75-2.85,1.11-4.25,3.51-5.87,4.79-3.23,1.68-5.61-1.11-9.27C93.35,24,91.15,19,88.31,18.46a.79.79,0,0,0-.39-.19c1.63,2.49,4.67,5.22,4.67,8.35,0,1.88-1.4,3.3-1.65,5.16-.26,2,.71,3.71.72,5.63,0,5.29-5.81,4.18-9.4,4.22-3.87,0-7.22,1.82-11,1.64A12.91,12.91,0,0,1,67,42.33Z"/><path class="cls-53" d="M7.43,39.52c.52,2.13,2,5.19,3.92,6.47.87.57,1.68.37,2.55.78a9.1,9.1,0,0,1,2.37,2.42,8.87,8.87,0,0,0,2.42,2.16c1,.58,2.16.15,3,.47,1.64.63,1.82,3.38,4.17,2.29a2.75,2.75,0,0,0-1,1.4c-1.25-.67-1.91-2.18-3.17-2.84s-3.18,0-4.53-.7c-2.54-1.34-3.44-6.9-7.09-4.06,0-1.44-1.2-4.4-3-4.19-.07-1.45,0-2.92,0-4.37Z"/><path class="cls-54" d="M73.23,44.27c1.88.18,3.42-1,5.24-1.27a35.61,35.61,0,0,1,5.85-.14c2.54,0,6.13-.65,7.52-3,1.61-2.75-1-5.38.62-8s2-4.93.34-7.84c-.65-1.16-1.48-2.31-2.08-3.46,1.88,1.91,2.9,4.33,4.29,6.85,2.08,3.76-2.07,3.66-2.25,6.86-.18,3.36.4,5.34-2.24,7.78a13.16,13.16,0,0,1-3.92,2.74c-1.18.33-2.41-.52-3.69-.84-3-.74-7.61.32-9.37,3.15a32.56,32.56,0,0,1-2.42-2.8Z"/><path class="cls-55" d="M24,20.36a3.7,3.7,0,0,1,.47-.73c1.18-1.45,10.75-3.15,12.1-1.69L33.7,14.89a19.43,19.43,0,0,1,5.63,3.75A18.52,18.52,0,0,1,41.45,14V17.7s1.64-4,7-7c0,0-3.51,4-3.28,5.39s3.28-3,8.68-4c0,0-4,2.35-4,3.29s11.26.47,9.38,3.52-15.48,3.28-13.6,7c0,0-4.22,1.65-8-.46C35.37,24.14,21.89,24.56,24,20.36Z"/><path class="cls-56" d="M17,104.52a9.2,9.2,0,0,0,3.06,1.88s0,0,0,0A126.43,126.43,0,0,1,18,92.12a71.43,71.43,0,0,1-.27-11.33c.06-.89.15-1.78.28-2.66a9.44,9.44,0,0,1,.44-2.25q.39-.9.81-1.8a73.88,73.88,0,0,1,7.35-13.4c.36-.47,1-.9,1-1.5.05-.91.16-1.81.29-2.71a21.16,21.16,0,0,1,3-8.73s0-.05,0,0c-.44.49-.91.95-1.38,1.41-.78.76-1.82,1.48-2.55,2.13a19.72,19.72,0,0,0,2.42-2.67,20.75,20.75,0,0,0,3.38-6.43,15.37,15.37,0,0,0,.54-2.49c.19-1.18,1.55-1.72,2.54-2,0,0,0,0,0,0a2.89,2.89,0,0,1,1.24-2.78c1.46-.82,3,.44,4,1.36,1.44,1.32,2.71,2.81,4.09,4.18a58.25,58.25,0,0,0,5.79,5c2.89,2.2,5.89,4.06,9.58,4.43.43,0,.87.06,1.31.07.16,0,.59-.07.71,0l.52.4A17.26,17.26,0,0,0,66,52a21.15,21.15,0,0,0,10.85,1.68s0-.06,0-.06a17.51,17.51,0,0,1-7.53-2.3c-2.3-1.27-4-3.21-5.91-5s-3.85-3.61-5.9-5.27q-1.14-.93-2.34-1.77A7.39,7.39,0,0,0,53,37.91a25.86,25.86,0,0,1,2.61.73,31.1,31.1,0,0,1,10.58,5.73c5.5,4.63,10.69,9.52,16.8,13.38a47,47,0,0,0,11.71,5.46c.26.08,3.06.68,3.06.71,0,.25.05.49.07.74.11,1.36.19,2.73.25,4.1a50.94,50.94,0,0,1-.54,11.64c-.64,3.45-1.53,6.88.46,10,0,0,.08,0,.07,0A11.05,11.05,0,0,1,97.8,87,5,5,0,0,1,99,84c.49-.54,1.14-.38,1.82-.38a0,0,0,0,0,0,0c-.47-1.49.19-3.43.68-4.82,1-2.76,2.65-5.25,3.63-8a19.05,19.05,0,0,0,.93-4.07,24.12,24.12,0,0,0,.16-2.69c0-.61,0-.06,0,.21a15.92,15.92,0,0,1-.36,8.84s0,.06.07,0c1.89-1.64,2.8-4.58,3.32-6.9a25.74,25.74,0,0,0,.57-4.28c.06-.91.06-1.83,0-2.74,0-.5,0-1-.07-1.5a3,3,0,0,0-.16-1.23,10.69,10.69,0,0,1,1.62,7.69s0,.07.08,0a10.18,10.18,0,0,0,1.47-4.07A25.61,25.61,0,0,0,112.18,49a47.65,47.65,0,0,0-6.64-13.68C97.22,22.64,84.81,12.29,70.13,8a17.18,17.18,0,0,0-5.59-.26A30.16,30.16,0,0,0,54.09,10c-1.21.52-3.23,1.36-3.89,2.32a9.48,9.48,0,0,1,.69-.85A18.23,18.23,0,0,1,55.32,8c5.4-3.14,11.89-3.9,18-3.59.05,0,.07-.08,0-.09a32.52,32.52,0,0,0-11.68-.24,35.27,35.27,0,0,0-11,3.41A32.88,32.88,0,0,0,45.1,11a8.13,8.13,0,0,0-2.2,2l.2-.37C46.67,6.41,53.28,2.1,60.23.62a0,0,0,0,0,0-.09A29.74,29.74,0,0,0,49.92,3.82a23.92,23.92,0,0,0-7.55,6,20.09,20.09,0,0,0-2.8,4.58c-.09.18-.26.5-.19.65L39.33,15c-.1-.22-.22-.43-.34-.64-2.32-4-7-6-11.39-6.54-.05,0-.06.09,0,.1a15.5,15.5,0,0,1,4.83,1.85A8.7,8.7,0,0,1,35.6,12.8c.19.32.49,1.48.67,1.56l-.63-.25C29.81,11.91,22.77,10.7,16.8,13c-.06,0,0,.12,0,.1A15.82,15.82,0,0,1,24,12.69a20.69,20.69,0,0,1,7.22,2.54c.28.15.44.07.17.09l-.47,0c-.56.05-1.13.12-1.69.2a41.56,41.56,0,0,0-5.52,1.13,26,26,0,0,0-3,1,5.56,5.56,0,0,0-2,1,15.43,15.43,0,0,1-3.58,2.73,31.23,31.23,0,0,0-3.75,2.93,20.44,20.44,0,0,0-6,10A63.14,63.14,0,0,0,3.73,44.43a4.16,4.16,0,0,1-.24,1.45,32.6,32.6,0,0,0-1.44,3.75A31.24,31.24,0,0,0,.66,56.2c-.06.61-.09,1.23-.1,1.85,0,.19-.09.82,0,1,.27.36.52.74.77,1.12A18.14,18.14,0,0,1,4,66c.4,1.76.56,3.6.89,5.38s.66,3.38,1,5.07a4.24,4.24,0,0,0,.54,1.84l1,1.19c.14.17.58.28.77.38A14.59,14.59,0,0,1,12,82.58a5.22,5.22,0,0,1,1.22,2.92c.21,1.12.43,2.24.65,3.36q1.55,7.83,3.12,15.66c0,.06.11,0,.1,0q-1.35-6.72-2.68-13.44c-.43-2.19-.87-4.38-1.28-6.57-.46-2.46-3.43-4-5.48-5A2.11,2.11,0,0,1,7,78.79c-.22-.26-.64-.59-.71-.93-.25-1.16-.49-2.32-.73-3.48-.37-1.83-.73-3.67-1-5.52a23.07,23.07,0,0,0-1.3-5.5A21.75,21.75,0,0,0,.78,59.12c-.16-.23-.11-.46-.12-.76,0-.62,0-1.24.08-1.86a28.37,28.37,0,0,1,.64-4.08A35.47,35.47,0,0,1,3.11,47a6,6,0,0,0,.63-1.53A70.25,70.25,0,0,1,5,36.69a31,31,0,0,1,1.75-5.82,18.47,18.47,0,0,1,3.78-5.47,29,29,0,0,1,4.21-3.54,32.81,32.81,0,0,0,3.68-2.63,4.45,4.45,0,0,1,1.19-.9A23,23,0,0,1,23,17a38.45,38.45,0,0,1,5.72-1.28c.94-.14,1.89-.26,2.84-.32a.06.06,0,0,0,0-.1,20.86,20.86,0,0,0-11.1-2.92,16.1,16.1,0,0,0-3,.38c-.22.05-.44.11-.65.18.5-.16,1.54-.41,2.24-.58a26.38,26.38,0,0,1,11.59.37,33.31,33.31,0,0,1,5.58,1.72,0,0,0,0,0,.07-.05c-.62-2.55-2.69-4.23-5-5.33a16.49,16.49,0,0,0-2.72-1c-.29-.09-.57-.16-.86-.22l-.16,0c.51.11,1.09.26,1.64.37a15.47,15.47,0,0,1,8,4.1,9,9,0,0,1,2,2.87s.07,0,.09,0C42,8.61,47.79,4.3,54.31,2.05A30.59,30.59,0,0,1,59.64.71l.5-.08c-.23,0-1.3.21-1.8.35a25.93,25.93,0,0,0-5.51,2.25,24.28,24.28,0,0,0-10,9.76s0,.09.08.06A35.2,35.2,0,0,1,65.55,3.81a34.42,34.42,0,0,1,6.73.37c.35.06.7.12,1,.2a14.16,14.16,0,0,0-3.26-.16q-1.75,0-3.51.21A27.62,27.62,0,0,0,53.82,8.8a13.78,13.78,0,0,0-3.74,3.48s0,.1.07.07c5.21-4,12.5-4.92,18.89-4.48a16.14,16.14,0,0,1,4,1.19,55.4,55.4,0,0,1,6.06,2.54A61.41,61.41,0,0,1,89.46,18a71.72,71.72,0,0,1,15.25,16.19A51.23,51.23,0,0,1,112,48.47c1.33,4.53,1.88,10.08,0,14.54a8.94,8.94,0,0,1-.53,1c-.13.21,0,0,0-.19a12.88,12.88,0,0,0,0-2.56,9.71,9.71,0,0,0-1.72-4.89s-.08,0-.08,0c.47,5.14.26,11.09-2.79,15.5a8.45,8.45,0,0,1-.8,1l-.15.14c.52-.46.6-1.79.71-2.45a17.2,17.2,0,0,0-.41-6.92s-.08,0-.08,0a22,22,0,0,1-1,6.85,40.44,40.44,0,0,1-2.42,5.37,18.53,18.53,0,0,0-2,5.7,5,5,0,0,0,0,2c0-.13-1.15,0-1.37,0-.4,0-1,1-1.12,1.34a7.54,7.54,0,0,0-.53,4.15,12.15,12.15,0,0,0,.17,1.21c.07.35-.08-.18-.14-.27a8.3,8.3,0,0,1-.68-1.52,11.5,11.5,0,0,1,0-5.62c.33-1.93.76-3.83.93-5.78a52.24,52.24,0,0,0,.14-5.87q-.06-3.66-.4-7.31a.05.05,0,0,0,0,0c-8.68-1.69-16.29-6.7-23-12.2-2.6-2.12-5.08-4.37-7.61-6.57A32.48,32.48,0,0,0,58,39.45a29.82,29.82,0,0,0-5-1.6,0,0,0,0,0,0,.06,29.15,29.15,0,0,1,5.24,3.66c2.07,1.72,4,3.57,6,5.44a25.93,25.93,0,0,0,5.41,4.44,18.93,18.93,0,0,0,4.84,1.8,13.53,13.53,0,0,0,2.46.37c-.84,0-2,.08-2.93.06a20.92,20.92,0,0,1-3.62-.42A18.3,18.3,0,0,1,62.84,50a1.86,1.86,0,0,0-.27-.22,5.6,5.6,0,0,0-1.16,0c-.56,0-1.12-.08-1.68-.16a14,14,0,0,1-4.93-1.74,49.66,49.66,0,0,1-11.25-9.24,27.92,27.92,0,0,0-3.46-3.33,2.92,2.92,0,0,0-2.89-.58,2.67,2.67,0,0,0-1.41,2.4c0,.15,0,.3,0,.44s-.65.24-.78.29a3.21,3.21,0,0,0-1.56,1.2,1.65,1.65,0,0,0-.23.72,11.29,11.29,0,0,1-.37,1.82,19.35,19.35,0,0,1-2.34,5.23,19.35,19.35,0,0,1-3.62,4.39s0,.06,0,0A18.35,18.35,0,0,0,30.65,48c.11-.12.34-.5.08-.11A11.91,11.91,0,0,0,30,49.17a17.9,17.9,0,0,0-1.1,2.73A28.93,28.93,0,0,0,27.8,57c-.07.58-.13,1.15-.18,1.73,0,.26,0,.62-.14.83a41.8,41.8,0,0,0-5.38,8.6c-1.24,2.4-2.4,4.84-3.5,7.31A10.78,10.78,0,0,0,18,78.12a39.2,39.2,0,0,0-.38,5.08,84.8,84.8,0,0,0,.63,11.37c.33,3,.77,6,1.29,8.91q.21,1.22.45,2.43l.09.45-1-.45a7.63,7.63,0,0,1-1.81-1.21l-.22-.21A0,0,0,0,0,17,104.52Z"/></g></g></svg>