<svg xmlns="http://www.w3.org/2000/svg" xmlns:xlink="http://www.w3.org/1999/xlink" viewBox="0 0 112.75 172.65"><defs><style>.cls-1{fill:url(#linear-gradient);}.cls-2{fill:#f5a683;}.cls-3{fill:url(#radial-gradient);}.cls-4{fill:url(#linear-gradient-2);}.cls-5{fill:url(#radial-gradient-2);}.cls-6{fill:url(#radial-gradient-3);}.cls-7{fill:url(#radial-gradient-4);}.cls-8{fill:url(#linear-gradient-3);}.cls-9{fill:url(#linear-gradient-4);}.cls-10{fill:url(#linear-gradient-5);}.cls-11{fill:url(#linear-gradient-6);}.cls-12{fill:url(#linear-gradient-7);}.cls-13{fill:url(#linear-gradient-8);}.cls-14{fill:url(#linear-gradient-9);}.cls-15{fill:url(#linear-gradient-10);}.cls-16{fill:url(#linear-gradient-11);}.cls-17{fill:url(#linear-gradient-12);}.cls-18{fill:url(#linear-gradient-13);}.cls-19{fill:url(#linear-gradient-14);}.cls-20{fill:url(#linear-gradient-15);}.cls-21{fill:url(#linear-gradient-16);}.cls-22{fill:#c96b44;}.cls-23{fill:url(#linear-gradient-17);}.cls-24{fill:#f97559;}.cls-25{fill:url(#radial-gradient-5);}.cls-26{fill:#e96552;}.cls-27{fill:#ef614b;}.cls-28{fill:#bd532e;}.cls-29{fill:url(#linear-gradient-18);}.cls-30{fill:url(#linear-gradient-19);}.cls-31{fill:url(#linear-gradient-20);}.cls-32{fill:url(#linear-gradient-21);}.cls-33{fill:#fff;}.cls-34{fill:url(#linear-gradient-22);}.cls-35{fill:url(#linear-gradient-23);}.cls-36{fill:url(#linear-gradient-24);}.cls-37{fill:#b36853;}.cls-38{fill:url(#linear-gradient-25);}.cls-39{fill:url(#linear-gradient-26);}.cls-40{fill:url(#linear-gradient-27);}.cls-41{fill:url(#linear-gradient-28);}.cls-42{fill:url(#linear-gradient-29);}.cls-43{fill:url(#linear-gradient-30);}.cls-44{fill:url(#linear-gradient-31);}.cls-45{fill:url(#linear-gradient-32);}.cls-46{fill:url(#linear-gradient-33);}</style><linearGradient id="linear-gradient" x1="55.05" y1="159.1" x2="55.05" y2="111.56" gradientUnits="userSpaceOnUse"><stop offset="0" stop-color="#f5a683"/><stop offset="1" stop-color="#e17e59"/></linearGradient><radialGradient id="radial-gradient" cx="48.88" cy="2112.28" r="41.85" gradientTransform="translate(58.69 -343.42) scale(0.22)" gradientUnits="userSpaceOnUse"><stop offset="0" stop-color="#e17e59"/><stop offset="1" stop-color="#f5a683"/></radialGradient><linearGradient id="linear-gradient-2" x1="63.82" y1="62.45" x2="63.82" y2="36.59" gradientUnits="userSpaceOnUse"><stop offset="0" stop-color="#f5a683"/><stop offset="1" stop-color="#ffbfa6"/></linearGradient><radialGradient id="radial-gradient-2" cx="11.83" cy="2048.92" r="54.15" gradientTransform="translate(65.39 -343.42) scale(0.29 0.22)" gradientUnits="userSpaceOnUse"><stop offset="0" stop-color="#ffb295"/><stop offset="1" stop-color="#f5a683"/></radialGradient><radialGradient id="radial-gradient-3" cx="630.15" cy="489.37" r="45.71" gradientTransform="matrix(0.19, 0.48, -0.25, 0.1, 33.66, -254.39)" gradientUnits="userSpaceOnUse"><stop offset="0" stop-color="#ffbfa6"/><stop offset="1" stop-color="#f5a683"/></radialGradient><radialGradient id="radial-gradient-4" cx="651.08" cy="-869.57" r="45.71" gradientTransform="matrix(-0.15, 0.5, -0.26, -0.08, -31.06, -294.44)" xlink:href="#radial-gradient-3"/><linearGradient id="linear-gradient-3" x1="37.3" y1="140.56" x2="102.19" y2="33.31" xlink:href="#linear-gradient"/><linearGradient id="linear-gradient-4" x1="59.12" y1="80.38" x2="59.12" y2="22.03" xlink:href="#linear-gradient"/><linearGradient id="linear-gradient-5" x1="67.94" y1="116.83" x2="67.94" y2="106.99" xlink:href="#linear-gradient"/><linearGradient id="linear-gradient-6" x1="70.07" y1="86.75" x2="70.07" y2="120.53" xlink:href="#linear-gradient-2"/><linearGradient id="linear-gradient-7" x1="59.54" y1="104.53" x2="56.72" y2="101.71" xlink:href="#linear-gradient-2"/><linearGradient id="linear-gradient-8" x1="77.98" y1="104.22" x2="80.1" y2="102.82" xlink:href="#linear-gradient-2"/><linearGradient id="linear-gradient-9" x1="54.25" y1="91.49" x2="68.15" y2="99.58" xlink:href="#linear-gradient"/><linearGradient id="linear-gradient-10" x1="80.81" y1="91.79" x2="68.63" y2="95.07" xlink:href="#linear-gradient"/><linearGradient id="linear-gradient-11" x1="41.72" y1="80.1" x2="41.72" y2="67.92" xlink:href="#linear-gradient"/><linearGradient id="linear-gradient-12" x1="86.98" y1="80.13" x2="86.98" y2="67.69" gradientUnits="userSpaceOnUse"><stop offset="0" stop-color="#ee9c77"/><stop offset="1" stop-color="#cd6c49"/></linearGradient><linearGradient id="linear-gradient-13" x1="6.85" y1="95.38" x2="19.12" y2="86.41" xlink:href="#linear-gradient-12"/><linearGradient id="linear-gradient-14" x1="103.18" y1="87.62" x2="100.84" y2="86.13" xlink:href="#linear-gradient-12"/><linearGradient id="linear-gradient-15" x1="11.41" y1="90.8" x2="16.73" y2="86.97" gradientUnits="userSpaceOnUse"><stop offset="0" stop-color="#d97851"/><stop offset="1" stop-color="#cf6138"/></linearGradient><linearGradient id="linear-gradient-16" x1="11.49" y1="89.68" x2="18.2" y2="86.06" gradientUnits="userSpaceOnUse"><stop offset="0" stop-color="#d05f2e"/><stop offset="1" stop-color="#bc5026"/></linearGradient><linearGradient id="linear-gradient-17" x1="68.02" y1="98.01" x2="68.02" y2="81.52" gradientUnits="userSpaceOnUse"><stop offset="0" stop-color="#d1724d"/><stop offset="1" stop-color="#f5a683"/></linearGradient><radialGradient id="radial-gradient-5" cx="47.06" cy="2101.58" r="41.26" gradientTransform="translate(58.69 -343.42) scale(0.22)" gradientUnits="userSpaceOnUse"><stop offset="0" stop-color="#ff9171"/><stop offset="1" stop-color="#f97559"/></radialGradient><linearGradient id="linear-gradient-18" x1="42.63" y1="62.12" x2="42.63" y2="65.99" gradientUnits="userSpaceOnUse"><stop offset="0" stop-color="#463731"/><stop offset="1" stop-color="#30231e"/></linearGradient><linearGradient id="linear-gradient-19" x1="86.86" y1="62.12" x2="86.86" y2="65.99" xlink:href="#linear-gradient-18"/><linearGradient id="linear-gradient-20" x1="40.5" y1="62.05" x2="40.5" y2="66.37" gradientUnits="userSpaceOnUse"><stop offset="0" stop-color="#592213"/><stop offset="1" stop-color="#411207"/></linearGradient><linearGradient id="linear-gradient-21" x1="88.08" y1="63.28" x2="88.08" y2="67.2" xlink:href="#linear-gradient-20"/><linearGradient id="linear-gradient-22" x1="42.1" y1="84.22" x2="42.1" y2="75.65" gradientUnits="userSpaceOnUse"><stop offset="0" stop-color="#39140a"/><stop offset="1"/></linearGradient><linearGradient id="linear-gradient-23" x1="42.1" y1="84.22" x2="42.1" y2="75.65" gradientUnits="userSpaceOnUse"><stop offset="0.01" stop-color="#652312"/><stop offset="1" stop-color="#210000"/></linearGradient><linearGradient id="linear-gradient-24" x1="42.11" y1="79.99" x2="42.11" y2="82.21" gradientUnits="userSpaceOnUse"><stop offset="0"/><stop offset="1" stop-color="#77726d"/></linearGradient><linearGradient id="linear-gradient-25" x1="84.68" y1="84.22" x2="84.68" y2="75.65" xlink:href="#linear-gradient-22"/><linearGradient id="linear-gradient-26" x1="84.68" y1="84.22" x2="84.68" y2="75.65" xlink:href="#linear-gradient-23"/><linearGradient id="linear-gradient-27" x1="84.68" y1="79.99" x2="84.68" y2="82.21" xlink:href="#linear-gradient-24"/><linearGradient id="linear-gradient-28" x1="56.38" y1="-2.89" x2="56.38" y2="54.69" gradientUnits="userSpaceOnUse"><stop offset="0" stop-color="#271c19"/><stop offset="1"/></linearGradient><linearGradient id="linear-gradient-29" x1="57.74" y1="13.94" x2="53.74" y2="44.73" gradientUnits="userSpaceOnUse"><stop offset="0" stop-color="#2c221f"/><stop offset="1" stop-color="#251c1a"/></linearGradient><linearGradient id="linear-gradient-30" x1="62.3" y1="7.36" x2="53.92" y2="71.86" xlink:href="#linear-gradient-29"/><linearGradient id="linear-gradient-31" x1="62.29" y1="5.85" x2="54.95" y2="62.35" gradientUnits="userSpaceOnUse"><stop offset="0" stop-color="#463531"/><stop offset="1" stop-color="#281e1c"/></linearGradient><linearGradient id="linear-gradient-32" x1="59.15" y1="15.35" x2="55.97" y2="39.82" gradientUnits="userSpaceOnUse"><stop offset="0" stop-color="#4b3a36"/><stop offset="1" stop-color="#241c1a"/></linearGradient><linearGradient id="linear-gradient-33" x1="56.38" y1="-3" x2="56.38" y2="54.68" xlink:href="#linear-gradient-28"/></defs><g id="Layer_2" data-name="Layer 2"><g id="_12_Face" data-name="12_Face"><path d="M61.15,172.65c-39.78,0-55.32-11.08-55.47-11.2a.53.53,0,0,1-.2-.46.5.5,0,0,1,.28-.41c.19-.08,18.5-8.09,20.59-14.14s1.53-38.2,1.52-38.52a.53.53,0,0,1,.14-.37.39.39,0,0,1,.3-.14h0l56.28,4.23a.38.38,0,0,1,.31.18.53.53,0,0,1,.09.39c0,.25-3.67,24.6-.34,33.51s19.48,15.14,19.64,15.21a.48.48,0,0,1,.29.42.52.52,0,0,1-.22.48,90.54,90.54,0,0,1-43.24,10.82Z"/><path class="cls-1" d="M5.92,161S24.57,153,26.75,146.61s1.56-38.71,1.56-38.71l56.28,4.23s-3.73,24.63-.31,33.78,19.9,15.48,19.9,15.48-17.53,10.77-43,10.77C21,172.16,5.92,161,5.92,161Z"/><path d="M112.74,56.17a.64.64,0,0,0-.63-.61.67.67,0,0,0-.34.1l-.17.11a5.67,5.67,0,0,0,.06-3.39.67.67,0,0,0-.58-.45,4.31,4.31,0,0,0-.07-2.16,13,13,0,0,0-1-2.18,12,12,0,0,1-.9-2,.68.68,0,0,0-.65-.47.59.59,0,0,0-.23,0c0-1-.18-1.92-.31-2.86a17,17,0,0,1-.26-4.34.69.69,0,0,0-.45-.71,3,3,0,0,1-.93-.66l-.48-.42a6.08,6.08,0,0,0,.29-5.35,18.46,18.46,0,0,0-3.91-5.26l0-.05a.67.67,0,0,0-.47-.19.55.55,0,0,0-.18,0,7.2,7.2,0,0,0,.27-2.89c-.25-1.6-1.6-2.84-2.69-3.83l-.15-.14a.69.69,0,0,0-.42-.18l-.2-.14a8.68,8.68,0,0,0-3.17-7.37,8.22,8.22,0,0,0-3.46-1.36,2,2,0,0,1-1.29-.88c-.43-.56-.31-.69-.19-.81a1.05,1.05,0,0,1,.66-.26.67.67,0,0,0,.61-.54.63.63,0,0,0-.34-.71A17.46,17.46,0,0,0,84.4,4.65a14.89,14.89,0,0,1-3.88-.88l-1.19-.46c-.84-.33-1.71-.67-2.6-.93l-.17,0a.61.61,0,0,0-.33.1A.54.54,0,0,1,76.3,2a.72.72,0,0,0,0-.61.66.66,0,0,0-.46-.35l-1-.22A14.67,14.67,0,0,0,71.65.34a8.1,8.1,0,0,0-.87.06,3.59,3.59,0,0,0-2,.9l-.33-.18A3.6,3.6,0,0,0,68,.9L67.79.79A7.74,7.74,0,0,1,66.48.1a.68.68,0,0,0-.35-.1.63.63,0,0,0-.61.46,5.07,5.07,0,0,0-1.18.36A16,16,0,0,1,62.12,1h-.44C60.08,1,58.44.88,56.86.8l-2-.09c-1.17,0-2.49-.1-3.78-.1s-2.42.06-3.46.16h0c-1.31.13-3.28.34-4.06,1.74a1.92,1.92,0,0,0-.2.64,13.42,13.42,0,0,0-4.91-.82.65.65,0,0,0-.54.29.68.68,0,0,0,0,.62.51.51,0,0,1,0,.45c-.43.85-2.95,1.44-4.31,1.76a13.23,13.23,0,0,0-1.3.34.64.64,0,0,0-.41.57.6.6,0,0,0,.35.57c.43.19.87.37,1.3.54l.63.27c-.83-.14-1.68-.26-2.52-.36a24.39,24.39,0,0,0-2.75-.19,8.69,8.69,0,0,0-3.36.57,8.65,8.65,0,0,0-3.65,3.56c-1.1,1.6-2.13,3.11-4.14,3.37a.65.65,0,0,0-.56.62.61.61,0,0,0,.51.62l.46.09a7.09,7.09,0,0,0-2.49.53c-1.95.84-3.21,2.63-4.34,4.39a.62.62,0,0,0,0,.63.63.63,0,0,0,.55.33.6.6,0,0,0,.32-.1,2.92,2.92,0,0,1,1.53-.44,3.66,3.66,0,0,1,2.42,1l-1.36,0-.64,0h-.78a9.13,9.13,0,0,0-2.9.39,6.32,6.32,0,0,0-3.16,2.48.63.63,0,0,0-.06.65.66.66,0,0,0,.59.36h.05a21.76,21.76,0,0,0-3.7,4.53A23.51,23.51,0,0,0,.79,40.17a.58.58,0,0,0,.15.47.62.62,0,0,0,.48.22A.64.64,0,0,0,2,40.52,4.22,4.22,0,0,1,3.31,39C1,41.73-.82,44.89.39,48.71a.63.63,0,0,0,.61.44,1.45,1.45,0,0,0,.3,0h.07q-.14.48-.27,1c-.32,1.26-1.16,5.48,1.48,6.73a.72.72,0,0,0,1-.36,3.28,3.28,0,0,1,.32.85A8,8,0,0,1,4,59.46c0,.14,0,.29,0,.43-.05,1.65,0,3.5,1.56,4.66a.57.57,0,0,0,.35.12.6.6,0,0,0,.61-.6,3.28,3.28,0,0,1,.08-.83l.3-.06a14.22,14.22,0,0,1,2.89,4.64c.11.3.22.61.34.91A12.72,12.72,0,0,1,11,72.15a10.77,10.77,0,0,1-.25,2.8C7,77,7.07,83.6,7.28,86.39a17.89,17.89,0,0,0,2.4,8.27c.63,1,1.34,2,2,2.9s1.28,1.73,1.86,2.63a14.19,14.19,0,0,1,1.32,3,5.73,5.73,0,0,0,1.14,2,6.18,6.18,0,0,0,3.86,1.59l.55.07c.05.35.11.74.21,1.2a21.87,21.87,0,0,0,3.81,8.63,106.42,106.42,0,0,0,11.47,13.48,84.76,84.76,0,0,0,8.94,7.77,81.14,81.14,0,0,0,8,5.06c3.68,2.14,8.44,3.22,14.14,3.22,1.28,0,2.64,0,4-.16,2.69-.22,5.8-.66,8.36-2.34a18.3,18.3,0,0,0,4.8-5.42l0,0c2.23-3.31,3.93-6,5.36-8.61A118.1,118.1,0,0,0,95,118.25c2.92-6.88,5.57-13.67,5.8-21,0-.37,0-.77,0-1.21a17.55,17.55,0,0,0,1.27-3.61q.15-.56.3-1.08a42.23,42.23,0,0,0,1.2-5.19c.12-.74.21-1.52.28-2.37,0-.41,0-.81,0-1.16s0-.42,0-.62a3.23,3.23,0,0,1,0-.88,6.08,6.08,0,0,0-.67-4.37.39.39,0,0,0-.08-.1c0-.1-.08-.22-.14-.38.21-1.48.41-2.69.63-3.8a7.77,7.77,0,0,1,.83-2.41c.26-.45.56-.87.86-1.32a15.5,15.5,0,0,0,1.16-1.84.88.88,0,0,0,0-.15.56.56,0,0,0,.17-.09A3.89,3.89,0,0,0,108.4,64c0-.15,0-.3,0-.44a6.37,6.37,0,0,1,.46-2.06,3.21,3.21,0,0,0,1.5-1.48l.17-.11a8.16,8.16,0,0,0,1.11-.8A3.41,3.41,0,0,0,112.74,56.17Zm-110-10.4A14.63,14.63,0,0,0,2,47.31,5.4,5.4,0,0,1,2.72,45.77Z"/><path class="cls-2" d="M102.74,77.06a31.54,31.54,0,0,0-1.68-3.74c1.18-3.77,4.21-14,3.17-16.06-1.27-2.56-.63-14.69-3.61-17.88s-4.69-8.94-13-7.88c-4.22.54-10.66,3.34-16,6-1-3.81-2.19-6.54-3.54-7.51-6.82-4.9-16.82-2.77-23.42-1.06S29.09,40.23,22.92,47.25s-6.6,20-5.11,23.42a.54.54,0,0,0,.05.11,21.84,21.84,0,0,0-4.52,4.15c-6.6-.22-6.18,12.34-4.05,17.45,1,2.34,2.78,4.21,4.15,6.3a13.58,13.58,0,0,1,1.88,3.6c.89,3.27,2.67,3.56,5.68,3.94a21,21,0,0,0,3.19,8.94c2.77,4,14.27,19.58,28.74,27,0,0,5.54,3.62,15.75,3.2s11.71-2.77,15.54-8.52a105.08,105.08,0,0,0,10.86-20.65c3.48-8.42,5.07-13.38,5-20.42h.07c1.49-4.47,3.19-9.58,3-14.26A5.55,5.55,0,0,0,102.74,77.06Z"/><path class="cls-3" d="M61,131.76a27.09,27.09,0,0,0,7,1.28A31.23,31.23,0,0,0,77,131.76l2.13-1.49-.22,5.11a45.19,45.19,0,0,0-18.73.64S59.74,134.53,61,131.76Z"/><path class="cls-4" d="M76.14,70.67l8.3-1.07,10.64-5.32c.43-8.73-1.49-17-4.26-20.43s-11.28.64-22.14.64-25.33-3.62-29.37-1.28S32.5,61.94,32.5,61.94L42.93,69.6l14,1.49Z"/><path class="cls-5" d="M69,104.94c-8.76,0-15.86,5.48-15.86,12.24s7.1,12.24,15.86,12.24c7.64,0,14-4.16,15.52-9.7-1.83-2.51-3-6.13-3.39-10.42A18,18,0,0,0,69,104.94Z"/><path class="cls-6" d="M20.54,71.56a18.24,18.24,0,0,1-.6,4.64l3,16.61,2.76,13.62,7.88,14.9-.69,2.52a9.62,9.62,0,0,0,7.68.64c7.52-2.93,9-17.11,3.34-31.68C38.35,78.59,28,69.27,20.54,71.56Z"/><path class="cls-7" d="M83.11,91.85a47.43,47.43,0,0,0-2,17.45,10.69,10.69,0,0,1,3.73,7.88,9.78,9.78,0,0,1-.34,2.54,8.73,8.73,0,0,0,4.59,3.41,7.48,7.48,0,0,0,2.4.32l1-3.82,5.1-12.35,1.92-6.17s1.07-6,0-9.37-.64-15.11.43-16.18a8.2,8.2,0,0,0,1.2-2l-.12-.22c.36-1.14.88-2.87,1.41-4.78C95.26,68.92,87,78.53,83.11,91.85Z"/><path class="cls-8" d="M31,110.9c-3.62-5.32-7.67-19.37-7.67-19.37L21.85,92s.64,7.45-.21,11.07c-.51,2.17-1.49,2.81-2.18,3,.47.08,1,.15,1.54.22a21,21,0,0,0,3.19,8.94c2.64,3.86,13.21,18.15,26.73,25.93-.23-.19-.48-.39-.76-.6C40.37,133,34.62,116.22,31,110.9ZM100,93c-.43,10.43-3.83,13.84-7.24,23.84s-11.07,23.63-11.07,23.63h0c.82-1,1.62-2.22,2.55-3.63a105.08,105.08,0,0,0,10.86-20.65c3.41-8.26,5-13.19,5-20C100,94.61,100,93,100,93Z"/><path class="cls-9" d="M22.44,84.08s0-8.46.64-10.7A33,33,0,0,1,29,62.21c3.36-4,4.79-18.68,10.22-21.08s15.17.16,18.2.8,13.09,2.71,22.67.16c0,0,8.94-2.55,12,.16s5.11,12.93,4.31,22.67c0,0,2.39,2.87,2.71,4.15s.8,6.23.8,6.23l2.87-18.2s.48-11.18-.95-12.77-4.63-8.47-5.27-8.79-16.45-4-17.72-4-18,.48-24.59.64-13.09.16-17.08,1-10.38,4.63-13.58,8S17.49,56.3,17.49,58.85,15.41,74,15.41,74l5.11,4Z"/><path class="cls-10" d="M56.44,107.82s2.56-2,5-1.81a13.45,13.45,0,0,1,5.64,1.81c1.59.85,7.34,1.38,9.26-1.39,0,0,2.66-.53,3.3,1.39a9.52,9.52,0,0,1-2.34,2.34s-2.66,5.11-7.88,5.21-11.81-5.64-11.81-5.64a2.29,2.29,0,0,1-1.39-1.49Z"/><path d="M60.38,107.39c1,2.66,4.79,1.7,4.79,1.7A7.63,7.63,0,0,0,60.38,107.39Zm15.12.75-.54.74-.21.42c2.34,0,2.45-1.27,2.45-1.27C76.56,107.6,75.5,108.14,75.5,108.14Z"/><path class="cls-11" d="M75.73,104c0,.12-.1.25-.16.38-.84,1.69-3.25,2.28-5,2-3.62-.53-5.85-1.7-6.28-4.79s.53-6.49.43-12-.43-9.47-.43-9.47l9.15.11s-.21,7.34-.21,11.07.43,6.17.85,7C75,100.08,76.45,102,75.73,104Z"/><path class="cls-12" d="M56.34,105.15c-.2,1.95,2.76-.57,3.08-1,.67-.79,1.54-2.57.62-3.49-2.29-2.3-3.36,3.06-3.81,4Z"/><path class="cls-13" d="M79.75,105.79c-.9,1-2-3.11-1.81-3.93.39-1.36,1.26-.41,1.6.53a8.34,8.34,0,0,1,.32,2.87Z"/><path class="cls-14" d="M57,102.06c.83-2.23,3.19-3.33,4.36-5.33,1.51-2.61,1.54-6.6,1.83-9.56.39-4-1.07-5.21-4.75-3.61a19.89,19.89,0,0,0-5.12,3.71,12.67,12.67,0,0,0-3.55,7c-.45,2.89.62,6.66,3.1,8.41a11.45,11.45,0,0,1,3.38,2.83C55.79,104.93,56.72,102.72,57,102.06Z"/><path class="cls-15" d="M79.75,102.28c-.92-1.65-2.13-2.22-3.7-3.32s-1.64-2.25-1.81-4-.16-3.45-.34-5.19c-.24-2.34.11-5.22-.32-8-.21.73,1.34,2.77,1.77,3.35a23.45,23.45,0,0,0,3.13,3,20.81,20.81,0,0,1,4.07,4.36,8.53,8.53,0,0,1-2.16,11.15L80,104Z"/><path class="cls-2" d="M63.89,98.56a12.24,12.24,0,0,1,10.22-.75l.11-1.06a13.92,13.92,0,0,0-10.54.63Z"/><path class="cls-16" d="M32.39,80S23.34,75.35,26,69c0,0,2.45-2.88,8-1.71s16.4,3.3,16.4,3.3l7.45-.42s1.28,10.75-5.11,13.3l-7.13-1Z"/><path class="cls-17" d="M77.2,83.55s-3.73-7.67-1.38-13.41l4.47.53,9.15-2.87,5.85-1.07,2.88,1.38.74,1s0,8.94-4.36,10.86Z"/><path class="cls-18" d="M21,96.43c-.43-2.13-2.13-3.41-3-5.11-2.13-4-1.7-9.58-4.26-13.2A3.18,3.18,0,0,0,9.5,79.4s-1.06,9.36,1.5,13,5.53,7.45,6.17,8.3,3-.21,3.19-1.06S21,96.43,21,96.43Z"/><path class="cls-19" d="M99.34,90.25s.85-7.45,3.19-9.79c0,0-.85,9.37-2.13,12.13Z"/><path class="cls-20" d="M13.76,78.12A3.14,3.14,0,0,0,9.81,79v0s2.45-1,3.09.74a15.48,15.48,0,0,1,.21,9,9.63,9.63,0,0,0,1.17-2.56,2.76,2.76,0,0,1,.64,2.13s-.85,2.56-1.81,2.88c0,0,2.35-1.07,2.67-.75a15.61,15.61,0,0,1,.95,2.87s-2.34,1.49-.95,3.62,4.46,1.81,5.1-.42l.06-.21c-.49-2-2.11-3.26-2.93-4.9C15.89,87.27,16.32,81.74,13.76,78.12Z"/><path class="cls-21" d="M18,90.78a30.63,30.63,0,0,1-1.88-7,24.41,24.41,0,0,0-.89-3.25c-.26-.72-.68-2.1-1.43-2.46a3.26,3.26,0,0,0-4.31,1.33s0,0,0,0a3.38,3.38,0,0,1,2.81-1.62,1.44,1.44,0,0,1,1.51.76c.16.44.45.85.64,1.28a21.88,21.88,0,0,1,1.3,4.5c-.3,2.42-.86,5-2.68,6.75,0,0,0,.08.05,0a9.69,9.69,0,0,0,2.74-6.22c.06.31.13.62.19.92a20.12,20.12,0,0,0,1.76,5.59c.94,1.77,2.58,3,3.09,5,0,.08.15,0,.14,0C20.65,94.25,18.92,92.72,18,90.78Zm-2.5,3.69a3.41,3.41,0,0,0,1.41,4.16c.1.06.17-.08.09-.15a3.35,3.35,0,0,1-1.4-3.69,2.48,2.48,0,0,1,3.27-1.55s0,0,0,0A2.42,2.42,0,0,0,15.5,94.47Zm-2.36-5.7a10.62,10.62,0,0,0,1.76-7.69.08.08,0,0,0-.15,0,12,12,0,0,1-1.64,7.65S13.13,88.79,13.14,88.77Z"/><path class="cls-22" d="M103.4,81a5.56,5.56,0,0,0-.62-4,0,0,0,0,0-.07,0,5.63,5.63,0,0,1,.65,2.6,6.89,6.89,0,0,1-.15,1.29c-.15.72-.24.25-.24.83a26.76,26.76,0,0,1-.43,4.73,41.9,41.9,0,0,1-1.11,4.55c-.22.74-.45,1.48-.68,2.22-.14.43-.31.87-.45,1.31v-.06a9.92,9.92,0,0,0-.13-2.44,16.59,16.59,0,0,1-.44-1.85l-.09-.51a5.09,5.09,0,0,0,.32-1.44c.05-.41.09-.82.13-1.23,0-.24-.09-.4,0-.64a16.32,16.32,0,0,1,.86-3.13,15.18,15.18,0,0,1,1.64-2.84s0,0,0,0A13.06,13.06,0,0,0,100,85.6c0,.2-.06,1-.25,1.1s-.15.42-.17.57c-.06.44-.07.93-.15,1.39a30.1,30.1,0,0,1,.2-9.66c0-.14-.19-.21-.22-.06a27.91,27.91,0,0,0-.24,10.62,1,1,0,0,1-.07.15.23.23,0,0,0,.16.34c0,.2.07.41.11.61a19.45,19.45,0,0,1,.46,2.85,43.48,43.48,0,0,1-.1,6A44.35,44.35,0,0,1,96.92,111c-1.66,4.48-3.55,8.91-5.63,13.22a97.65,97.65,0,0,1-5.24,9.44A56.64,56.64,0,0,1,81,141a11.44,11.44,0,0,1-6.48,3.57,37.24,37.24,0,0,1-12.68.33A26,26,0,0,1,54,142.63,53.17,53.17,0,0,1,47.7,139a84.69,84.69,0,0,1-17.09-15.65c-4.21-4.93-8.94-10.38-9.52-17.11a.11.11,0,0,0-.09-.09c-1.54-.2-3.26-.36-4.4-1.54a5.45,5.45,0,0,1-1.15-2.35,11,11,0,0,0-1.43-3c-1.19-1.9-2.67-3.62-3.83-5.54a13.59,13.59,0,0,1-1.54-4.12,24,24,0,0,1-.35-8.74c.36-2.32,1.38-5.2,3.94-5.81a4.52,4.52,0,0,1,1.1-.11,0,0,0,0,0,0,0c-5.52-.15-5.82,7.58-5.53,11.45a17.54,17.54,0,0,0,2.32,8C11.31,96.3,12.81,98,14,99.9A14.58,14.58,0,0,1,15.4,103a5.06,5.06,0,0,0,1,1.78A5.62,5.62,0,0,0,20,106.17c.13,0,1,.16,1,0l0,.24c.06.47.14.94.23,1.4a21.56,21.56,0,0,0,3.73,8.43,105.86,105.86,0,0,0,11.42,13.42,81.6,81.6,0,0,0,8.88,7.72,81.76,81.76,0,0,0,7.94,5c5.27,3,12,3.44,17.86,3a17.16,17.16,0,0,0,8.12-2.25,18.05,18.05,0,0,0,4.68-5.31c1.87-2.8,3.69-5.63,5.33-8.57A118.88,118.88,0,0,0,94.54,118c2.84-6.68,5.53-13.46,5.76-20.79,0-.45,0-.9,0-1.35,0,0,0,0,0,0a22.91,22.91,0,0,0,1.57-4.67,40.87,40.87,0,0,0,1.19-5.12c.13-.77.21-1.55.27-2.33,0-.38,0-.75,0-1.13A7.88,7.88,0,0,1,103.4,81Z"/><path class="cls-23" d="M57.83,109.73c-.31-.21-1.34-.77-1.24-1.23a5.24,5.24,0,0,0-.24-1.29,12.57,12.57,0,0,1,.94-5.87c0-.06-.07-.09-.09,0a11.22,11.22,0,0,0-1.27,6.22c0,.27.06.89.27,1.08.37.31.77.6,1.15.9a13.74,13.74,0,0,0,3.08,1.73s0,0,0,0A23.07,23.07,0,0,1,57.83,109.73Zm4.67-2.14c-1.48-.47-3.34-.47-4.31.91,0,0,0,0,0,0,2.27-2.5,6.43.16,8.4,1.8.06.05.17,0,.12-.09A8.44,8.44,0,0,0,62.5,107.59ZM74.34,97.11A6.8,6.8,0,0,0,75,98.67a16.09,16.09,0,0,1,1.72,4.73s.06,0,.06,0a11,11,0,0,0-1.13-3.57,5.65,5.65,0,0,1-.77-2.18,16.83,16.83,0,0,0-.4-2.41,68.68,68.68,0,0,1-.58-10,0,0,0,1,0,0,0,91.61,91.61,0,0,0,.23,9.8C74.12,95.71,74.22,96.41,74.34,97.11Zm3.37,11.38a1.62,1.62,0,0,0-1.71-.67,6.7,6.7,0,0,0,.78-3.94.06.06,0,1,0-.11,0A9.24,9.24,0,0,1,75.4,108l-.16.09a.08.08,0,0,0,0,.14,6.56,6.56,0,0,1-1,1,8.54,8.54,0,0,1-7.3,1.29s0,0,0,0a7.26,7.26,0,0,0,3.84.32,7.89,7.89,0,0,0,3.57-1.22,6.43,6.43,0,0,0,1.46-1.63,1.77,1.77,0,0,1,1.8.48S77.74,108.53,77.71,108.49Zm1.62-7.2c0-.05-.14,0-.11,0a11.47,11.47,0,0,1,.5,4.28,12.38,12.38,0,0,1-.35,2.18c-.27,1-1.43,1.77-2.19,2.44,0,0,0,.06,0,.05.42-.3.84-.59,1.24-.91s1-.61,1.18-.92a5.75,5.75,0,0,0,.46-2.18C80.24,104.79,80.29,102.56,79.33,101.29Z"/><path class="cls-24" d="M52.45,121.92s6.07,7.66,12.62,9.58a24.8,24.8,0,0,0,4.72.29,22.41,22.41,0,0,0,4.32-.47c3.35-.74,4.58-2.59,5.8-5.57a20.76,20.76,0,0,1,3.52-5.27l-7.67,1.12s-7-.32-7.66-.16S52.45,121.92,52.45,121.92Z"/><path class="cls-25" d="M72.21,129.91a15.71,15.71,0,0,1-8.14-.46c-1.75-.59-4.14-1.64-4.57-3.67,2.71-.19,5.37.38,8.06.43A40,40,0,0,0,78,125.29a11,11,0,0,1-.71,2.55C76,129.42,74.05,129.63,72.21,129.91Z"/><path class="cls-26" d="M75.76,121.6s-7-.32-7.66-.16-15.65.48-15.65.48.92,1.16,2.43,2.69l.13,0s8.3-.16,12.13.16,5.91.32,8.46-.8a24.06,24.06,0,0,1,5,.3,23.09,23.09,0,0,1,2.8-3.81Z"/><path class="cls-26" d="M66,130.7a29.57,29.57,0,0,1-5.42-1.6l-.12.19a17.63,17.63,0,0,0,4.59,2.21,24.8,24.8,0,0,0,4.72.29,22.41,22.41,0,0,0,4.32-.47,6.61,6.61,0,0,0,4.53-3,20.26,20.26,0,0,1-1.92,1.13C75.44,130.06,67.78,130.86,66,130.7Z"/><path class="cls-27" d="M75.76,121.6s-7-.32-7.66-.16-15.65.48-15.65.48.92,1.16,2.43,2.69l.13,0s8.3-.16,12.13.16,5.91.32,8.46-.8a24.06,24.06,0,0,1,5,.3,23.09,23.09,0,0,1,2.8-3.81Z"/><path class="cls-27" d="M66,130.7a29.57,29.57,0,0,1-5.42-1.6l-.12.19a17.63,17.63,0,0,0,4.59,2.21,24.8,24.8,0,0,0,4.72.29,22.41,22.41,0,0,0,4.32-.47,6.61,6.61,0,0,0,4.53-3,20.26,20.26,0,0,1-1.92,1.13C75.44,130.06,67.78,130.86,66,130.7Z"/><path class="cls-26" d="M86.46,118.25a11.21,11.21,0,0,1-5.59,1.43c-3.35,0-4.15-1.27-5.91-1.43a5.76,5.76,0,0,0-3.51,1.27,9.73,9.73,0,0,0-4-.79c-2.39,0-9.58,2.23-12.45,2.55s-6.39-1.6-6.39-1.6c5.59,4.79,12.77,2.88,19.48,4.15h.14l.18.17a5.17,5.17,0,0,0,5.24-.74l.51,0A15.76,15.76,0,0,0,86.46,118.25Z"/><path class="cls-28" d="M68.12,123.77a18.34,18.34,0,0,0-4.73-.57c-1.66-.09-3.31-.14-5-.27-3.51-.28-7-1-9.8-3.25,0,0,0,0,0,0a14.8,14.8,0,0,0,8.83,3.53c1.73.17,3.46.17,5.19.23.91,0,1.83.08,2.74.14s1.81.28,2.72.31C68.17,123.9,68.18,123.79,68.12,123.77Zm6-1c-1.77,1-3.66,2-5.71,1.16,0,0,0,0,0,0a5,5,0,0,0,2.73.53,5.47,5.47,0,0,0,3.07-1.61C74.26,122.87,74.2,122.79,74.13,122.82Zm12.29-4.62a18,18,0,0,1-6,3.82,18.25,18.25,0,0,1-2.89.9,21.21,21.21,0,0,1-3.38.27s0,0,0,0a18.32,18.32,0,0,0,6.38-.79,17.9,17.9,0,0,0,6-4.13C86.56,118.23,86.47,118.15,86.42,118.2Z"/><path class="cls-29" d="M25.79,69.23s3-2.55,9.42-.8,13.41,3.36,13.41,3.36,6.07.48,9.26-1.6l.16-1s1-.8,1.44-1.27c0,0-4.15,1.75-7.35,1.27s-12.77-4-14.53-5.59c0,0-3.83-1.59-5.58-1.59,0,0,0,1.27-.48,1.43S26.75,66.84,25.79,69.23Z"/><path class="cls-30" d="M99.07,69.23s-2.2-2.55-6.83-.8-9.72,3.36-9.72,3.36-4.4.48-6.72-1.6l-.11-1s-.7-.8-1-1.27c0,0,3,1.75,5.32,1.27s9.26-4,10.54-5.59c0,0,2.77-1.59,4-1.59,0,0,0,1.27.34,1.43S98.38,66.84,99.07,69.23Z"/><path class="cls-31" d="M32,76.9c2.15-2.43,5.59-3.42,8.72-3.5a16.53,16.53,0,0,1,4.48.51,32.71,32.71,0,0,1,3.71,1.44s.08-.06,0-.09a10.67,10.67,0,0,0-3.7-1.53A19.45,19.45,0,0,0,40.54,73a12.26,12.26,0,0,0-4.79.88,8.92,8.92,0,0,0-3.74,3s0,0,0,0Z"/><path class="cls-32" d="M82,74.51a14.32,14.32,0,0,1,6.52-.84c2.24.16,4.56.91,5.56,3.09,0,.06.1,0,.09,0-.49-2.33-3-3.14-5.11-3.37A14,14,0,0,0,82,74.49s0,0,0,0Z"/><path d="M32.34,79.93s1.58-5.11,9.73-5.11A10.23,10.23,0,0,1,52,81.68Z"/><path class="cls-33" d="M33.13,81.05c3,5,11.66,5.9,17.25,2.55h2.07l-.64-1.76c-3-7.34-14.21-7.34-19.31-1.91Z"/><path class="cls-34" d="M48.08,79.62a6,6,0,0,0-.45-2.28,13.49,13.49,0,0,0-11-.22,6,6,0,0,0,4,8.3,15.06,15.06,0,0,0,1.91.15A6,6,0,0,0,48.08,79.62Z"/><path class="cls-35" d="M42.1,84.91a5.29,5.29,0,0,0,4.54-8,13.64,13.64,0,0,0-9-.13,5.29,5.29,0,0,0,4.45,8.14Z"/><path d="M45.23,79.62A3.13,3.13,0,1,1,42.1,76.5,3.13,3.13,0,0,1,45.23,79.62Z"/><path class="cls-36" d="M44.31,79.62a2.21,2.21,0,1,1-2.21-2.2A2.2,2.2,0,0,1,44.31,79.62Z"/><path class="cls-33" d="M40.83,77a1.28,1.28,0,1,0,2.55,0,1.25,1.25,0,0,0-.4-.93,12.78,12.78,0,0,0-1.75,0A1.25,1.25,0,0,0,40.83,77Z"/><path class="cls-33" d="M42.72,82.67a.62.62,0,0,1-.62.62.62.62,0,0,1,0-1.24A.62.62,0,0,1,42.72,82.67Z"/><path d="M32.51,79.94a14.25,14.25,0,0,1,10.24-3.66,11.73,11.73,0,0,1,5.33,1.49,10.25,10.25,0,0,1,3.67,4.11.07.07,0,0,0,.13,0,8,8,0,0,0-3.35-4.14,11.45,11.45,0,0,0-5.42-1.77,12.72,12.72,0,0,0-10.63,4,0,0,0,0,0,0,0Z"/><path class="cls-37" d="M33.12,81.05c1.58,2.7,4.69,4,7.66,4.44a14.12,14.12,0,0,0,9.62-1.86s0-.08,0-.06A16.35,16.35,0,0,1,41,85.41,10.76,10.76,0,0,1,33.15,81s0,0,0,0Z"/><path d="M94.44,79.93s-1.35-5.11-8.35-5.11c-6.7,0-8.48,6.86-8.48,6.86Z"/><path class="cls-33" d="M93.76,81.05c-2.6,5-10,5.9-14.78,2.55H77.2l.55-1.76c2.6-7.34,12.18-7.34,16.55-1.91Z"/><path class="cls-38" d="M90,79.62a6.53,6.53,0,0,0-.76-3.08,9.32,9.32,0,0,0-9.78,2.39c0,.23,0,.46,0,.69a5.91,5.91,0,0,0,3.89,5.76,11.49,11.49,0,0,0,1.85.19C87.84,85.32,90,82.75,90,79.62Z"/><path class="cls-39" d="M84.68,84.91c2.59,0,4.68-2.37,4.68-5.29a5.68,5.68,0,0,0-1-3.31,9.34,9.34,0,0,0-8.15,1.88A6.09,6.09,0,0,0,80,79.62C80,82.54,82.1,84.91,84.68,84.91Z"/><path d="M87.44,79.62a2.78,2.78,0,1,1-2.76-3.12A3,3,0,0,1,87.44,79.62Z"/><path class="cls-40" d="M86.63,79.62a2,2,0,1,1-1.95-2.2A2.08,2.08,0,0,1,86.63,79.62Z"/><path class="cls-33" d="M84.68,78.31A1.22,1.22,0,0,0,85.82,77a1.39,1.39,0,0,0-.37-.94,10,10,0,0,0-1.73.27,1.48,1.48,0,0,0-.17.67A1.22,1.22,0,0,0,84.68,78.31Z"/><path class="cls-33" d="M85.23,82.67a.59.59,0,0,1-.55.62.63.63,0,0,1,0-1.24A.59.59,0,0,1,85.23,82.67Z"/><path d="M94.29,79.94a11.2,11.2,0,0,0-8.77-3.66A9,9,0,0,0,81,77.77a9.85,9.85,0,0,0-3.15,4.11.06.06,0,0,1-.11,0,7.79,7.79,0,0,1,2.87-4.14,8.89,8.89,0,0,1,4.64-1.77,10.11,10.11,0,0,1,9.12,4s0,0,0,0Z"/><path class="cls-37" d="M93.77,81.05a8.68,8.68,0,0,1-6.57,4.44A10.68,10.68,0,0,1,79,83.63s0-.08,0-.06a12.3,12.3,0,0,0,8,1.84A9,9,0,0,0,93.74,81s0,0,0,0Z"/><path class="cls-41" d="M112.11,56.19a6.56,6.56,0,0,0-1.91,1.49c.63-1.49,1.48-3.4.85-5.11a8,8,0,0,1-1.49,1.28c2.34-3.83,0-4.47-1.07-8.09a5.74,5.74,0,0,1-1.28,2.56c1.07-3-.63-7-.21-10.43-.85-.22-1.49-1.28-2.13-1.49,2.77-4-.42-7.45-3.19-10.44a6.43,6.43,0,0,1-1.28.86c1.07-4.05,1.49-4.69-1.91-7.88l-.86-.64c.22-3.19-1.27-6.38-4-7.66-1.92-.85-2.77,0-4-2.13-.64-1.06.64-1.7,1.27-1.7-2.77-1.49-5.11-1.28-8.09-1.71-2.12-.42-4-1.49-6.17-2.13a3,3,0,0,1,.64.86L76.77,4c-.85-.85-1.7-1.28-1.06-2.34-2.13-.43-5.54-1.49-6.81.42C68.05,1.48,67,1.27,66.13.63,65.49,3.4,43.35-1.28,44,3.61l-.64.22A13.15,13.15,0,0,0,38.46,3c1.06,2.13-4.26,2.77-6,3.41a36,36,0,0,1,4,1.92l.85.64c-3-.43-9.15-1.92-11.92-.43-3,1.49-3.62,6.39-7.66,6.81a7.8,7.8,0,0,1,3.61,1.49c-4.89-.42-6.59-.21-9.57,4.47,1.91-1.28,4.47-.21,5.53,1.71-3.83.21-7-1.07-9.58,2.55a5.52,5.52,0,0,1,3.62-1.92l.43.64c-6,3-9.58,9.79-10.43,16C2.27,38.52,4.18,37.67,6.1,37,3.12,40-.5,43.63,1,48.53H1.2a6.21,6.21,0,0,1,3.2-5.11l.42.43C2.69,46.19-.29,54.06,2.91,56.19a1.29,1.29,0,0,1,.21-.85h.21c2.77,1.92-.21,6.6,2.56,8.73a2.74,2.74,0,0,1,.21-1.28l1.06-.21a16.84,16.84,0,0,1,3,4.47c.64,1.92,1.49,3.62,1.49,5.32a16.42,16.42,0,0,1-.42,3.41l1.06-.43,3,.43c3,2.34,6.39,16.6,6.39,16.6,1.49.43,1.7-.64,1.7-.64s-.85-5.32-1.28-9.36-1.49-10-1.49-10c.85-2.34.85-4.89,1.71-7.24,1.06-3.19,3.83-4.68,5.53-7.23l-1.91.63.63-.85c2.56-1.7,1.71-3.83,2.77-6.17a2.76,2.76,0,0,0-1.28.21c2.56-1.91,1.28-7.45,3.41-10.43,3-4,6.6-5.32,11.28-5.32l.85.21a11.2,11.2,0,0,1,1.49.64A9.53,9.53,0,0,0,44,35.33c1.77,1.74,4.68,2,6.85,2.77a16.42,16.42,0,0,1-1.91-1.92c2.13,1.71,5.75,1.92,8.51,3.41a3.44,3.44,0,0,1-.64-3.41c1.07,1.49,5.75,4.47.85,5.11,4.9-.42,16.61,3,19.16-2.34.64,1.49-1.06,2.13-2.34,2.55,1.92-.21,6.18-.21,6.18-2.55h.63c-.21.85.22,1.28-.42,1.92,1.91-.86,4-1.07,4-3.41,0,.64.21,2.13.21,2.13,2.56-1.28,5.75,0,8.52-2.13-.42.43-1.28,1.7-1.92,2.34a14,14,0,0,1,6.6,5.54l-.42,1.06c1.49,6.17,3.4,16.6,2.34,23,0,0-.85,5.32-1.28,7.66a67.16,67.16,0,0,0-.21,8.73,17.29,17.29,0,0,1,.85-4.89c.85-2.56,1.7-4.26,2.77-4.26,0,0,.64-4.47,1.06-5.75s1.92-3,2.56-4.26l.42-.42c2.35-1.7.85-3.41,2.13-5.32S112.32,59.17,112.11,56.19Z"/><path class="cls-42" d="M27.17,20.64a6.45,6.45,0,0,1,1.89-.24c-.4-1.71,1.74-2.16,2.63-3.16,1.72-1.94,1.92-2.22,4.64-1.34.84.28,2.07,1.1,3,1,1.62-.26.53-.8,1.27-2s0-.72,1.49-1.07c.86-.2,1.79.29,2.51-.25.35-.26.49-1.48.84-1.92a3.65,3.65,0,0,1,2.39-1.45c3.72-1,6.82.93,10.07,2.3,2.71,1.14,2.92-.29,5.26-.61,2.15-.3,3.57,2.27,5.33,2.57,1.48.26,1.87-.51,2.59-1.88,1,.12.81,1.18,1.62,1.46,1,.35.45,0,1.37-.16,2.47-.55,3.3-1.45,5.86.37,1.84,1.3,2.31,5.51,4.1,6,2.18.55,2.65-2.76,4.32-.85,1.5,1.71.06,1.94,2.49,2.76,2.11.72,2.31.87,2.08,3-.26,2.36-.56,2.19,2.18,2.77,2.42.51,1.92.29,1.74,2.73.48.2,2.17.56,2.37,1.05.36.88-2.1,2.21-.13,2.61a3.6,3.6,0,0,1-1.18,0c0-2.58-1.89-2.42-3.83-1.92.84-1.82-1.54-2.28-2.8-2.74-2.46-.9-1.67-.26-.9-2.76,1.83-5.94-5.51-.3-5.95-2.95-1.68-.28-2.4,1.74-3.15-.25-.56-1.46.9-2.78-.64-4-3.07-2.46-6.71,2.53-8.9.16-1.24-1.34-2.65-5.66-5.58-4.43-1.06.45-1.7,2.76-2.77,3.54-1.24.91-2.54,1.19-3.41,2.37-.34-1.18-.22-3.49-1.49-4.18-.85-.47-1.23.27-1.91.12a11.28,11.28,0,0,1-2.13-1c-1.31-.56-4-1.62-5.32-.68-1.65,1.13.76,3-.43,4.06-1.56-1.31-7.76-2.6-6.42,1.22-2-.17-4.14-1.94-6.35-1.45-2.7.59-1.88,2.46-.45,4-1.39.22-3.69,0-4.88.83-.64.46-.18,1.27-.83,1.72s-2,.34-2.72.52c-1.3.31-4.32.86-4.75,2.49-.29,1.09.93,2.64,1.26,3.59-1.53.73-3,2.71-1.53,4.06-2.29-.42-7.07.16-4.64,3.6-2.18.84-5.81,1.56-7.41,3.15,1.75-.4,7.15-4.24,3.83-5.71,1.39-.7.44-1.66-.2-2.46,1.83-.49,5.1-.84,6.31-2.58,1.45-2.08-1.31-4.5-.18-6.41.61-1,1.3-.36,2-1s.54-1.61,1.44-2c1.25-.53,4.44.83,3.19-2.33Z"/><path class="cls-43" d="M4.72,32a2.6,2.6,0,0,0-.46.36C4.42,32.21,4.57,32.08,4.72,32ZM28.87,52.81c-.22-.16-.4-.29-.36-.51-2.05,0-4.73.51-7.09.7-2.54.2-4.79-.69-7.19-1.06a14.59,14.59,0,0,0-2.18-.2c1.19-.75,2.26-1.82,3.42-2.57,3.64-2.37,8.33-2.47,12.34-3.83l-1.7.21c-1.06-.3-2.19.41-3.37.59s-2.32-.13-3.45,0c-2.65.42-4.48,2.57-6.8,3.78-1,.53-2.42,1.39-3.62,1.12-.86-.18-1.31-1.22-2.08-1.34-1.7-.24-3.13,2-3.58,3.61,1.74-2.54,3.4-1,5.66-.78h0a6.79,6.79,0,0,0-.62.42A44.66,44.66,0,0,1,4.1,56.15a3.25,3.25,0,0,1,.41,1.06c1.8-1.29,3.74-2.55,5.59-3.62,2.08-1.21,4.23-.29,6.64-.16,2.72.14,5.39-.78,7.87.62a23,23,0,0,1,2.28,2,5.91,5.91,0,0,1-3.5,2.19c-2.3.28-3.74.08-5.9,1.07-3.9,1.8-6.36,3.05-10.34.86a33.91,33.91,0,0,0-1.73,3.47,2.89,2.89,0,0,0,.47.45,2.74,2.74,0,0,1,.21-1.28l1.06-.21a18.81,18.81,0,0,1,2.82,4c-.26-1.64-.61-3.37.8-4.22,1.62-1,4-.66,5.75-1.52,2-1,3.3-1.89,5.62-1.88,1.1,0,2.87.27,3.69,1.2a16.13,16.13,0,0,0,2-2.31l-1.91.63.63-.85C28.61,56.3,28.44,54.64,28.87,52.81ZM20.15,33.46c-2.68-1-5.39-1-8.09-2C10.77,31,8.79,30,7.38,30.22c-1.17.19-1.81,1-2.66,1.74,2.26-1.49,5.89.39,8,1.2,2.3.88,4.89.41,7.24,1.15,4.13,1.3,7.55,5.6,12.06,6.26a14,14,0,0,1,1-1,25,25,0,0,1-5.48-1.63C24.85,36.74,22.88,34.43,20.15,33.46Zm81.1-.73c1.66-1,3-1.89,1.47-3.92,1.44,2.68-7.32,7.53-9.52,7.13.08-1.18,2.59-2.94,3.54-3.64,1.71-1.25,3.37-3.9,5.35-4.47a6.07,6.07,0,0,0-1.87-1c-.12,2.56-4.6,2.41-5.77,4.24-.83,1.3-.74,2.42-2,3.61-1.49,1.46-3.43,2-5.27,2.77l.21.43a20.08,20.08,0,0,1,4.68-1.28,14.77,14.77,0,0,0,5.12-1.06C98.61,34.85,99.88,33.54,101.25,32.73Zm6.15,10.93c-.13-1-.29-2-.39-3-.92,2.36-2.25,5.4-4.92,5.57a2.48,2.48,0,0,1-2.76-2.78c.3-1.68,2.4-2.42,3.46-3.56s1.48-2.32,2.59-3.15a1.55,1.55,0,0,0-.51-.31c.1-.14.18-.27.26-.4a3.36,3.36,0,0,0-.64-.21c-1.15,2.3-2.92,3.14-4.57,4.81-.83.84-1,2-2.29,2.35a3.19,3.19,0,0,1-1.18,0,10.19,10.19,0,0,1,1.82,2.35l-.42,1.06a1.36,1.36,0,0,0,0,.17,30.79,30.79,0,0,0,3.15-.12C103.87,46.2,105.27,44.81,107.4,43.66ZM34.2,28.47c-3,.37-5.32,3.65-8.09,3.89s-4.17-3.55-5.06-5.54c-1.23-2.77-2.2-3-5.08-3.59C19.09,25,20,26.81,21.37,29.8c1.28,2.83,3.27,4.3,6.22,2.93,2.72-1.25,4.69-2.82,7.67-1.82a25.13,25.13,0,0,1,7.45,4.21l-1.91-3C38.28,31,37.38,28.08,34.2,28.47ZM91,27.41c1.54-1.06,3-2,3.67-3.78S95,19,97.61,18.7c-.35-1.15-1.06-2.34-1.47-3.53,0,2.1-1.47,3.54-2.39,5.21s-.71,3.36-1.64,4.95c-1.37,2.33-4,3.82-6,5.59C84,32.9,85,33.9,84,36.4l1.07.42c.36-1,1.09-1.81,1.43-2.78s.06-1.73.32-2.71C87.33,29.42,89.58,28.41,91,27.41ZM20.6,72.29a11.73,11.73,0,0,1-1.29.25c-1.18.12-2.81-.67-3.68-.54-1.25.18-2.14,1.63-3.4,2.24-.25.12-.52.24-.79.34,0,.28-.09.52-.13.72,2-.26,3-1.36,5-2.08,1.75-.63,3.15,0,4.56.89-.18-1.06-.3-1.74-.3-1.74ZM43.3,11.92c-2.51-1.84-4.76-3.8-7.19-5.76l-.7-.58c-1.13.32-2.28.56-2.91.8a36,36,0,0,1,4,1.92l.85.64c-.82-.12-1.88-.32-3-.51l.91.93c3.28,1,6.8,3.75,9.58,5.7,3.34,2.33,6.28,6,6.82,10.21,0-2.33-.18-5.9-1.54-7.77S45.25,13.33,43.3,11.92ZM56.93,32.39a3.22,3.22,0,0,0,.26,1.48A8.51,8.51,0,0,1,56.93,32.39Zm47,28.49a9.83,9.83,0,0,0-3.62.49c0,.45.07.89.09,1.33a21,21,0,0,1,4-1.23,23.56,23.56,0,0,0,3.89-.37,2.69,2.69,0,0,0,1.73-1.65,6.72,6.72,0,0,0,.35-1.07C109.27,60.44,106.07,60.78,104,60.88ZM22.29,36.18c-2.43-.94-5.24-.64-7.84-.64-2.21,0-4.44.09-6.65,0-2.58-.1-4-.93-4.44,1.88a8.72,8.72,0,0,1,2.38-.26H6c1.66.06,3.2.49,5,.5,2.3,0,4.5-1,6.81-1.06A8.33,8.33,0,0,1,24,38.68c1.75,1.46,3.06,3.78,5.7,3.46l-2.34-1.27C25.45,39.43,24.75,37.14,22.29,36.18ZM45.75,22.72c-.68-2.44-.81-1.89-3-2.56-1.72-.51-2.05-1.38-3-2.71C37,13.84,28.57,5.2,24.86,11.24c5.93-2.33,11.67,2.61,14.51,7.27,1.43,2.36,3.64,2,5.21,3.88,1.14,1.36,1.41,3.37,1.79,5.28A11.55,11.55,0,0,0,42.29,23c-2.44-1.57-5.1-.2-8-1.17-3.72-1.22-11-3.25-13-6.91A10.26,10.26,0,0,0,21,16.5l0,.27c0,.36-.08.72-.15,1.07,2.92.76,4.75,4,8.07,4.72a57.94,57.94,0,0,0,8.94,1.11c7.1.43,6.06,5.71,10.22,9.75l-.31-1.66.31.8A97.8,97.8,0,0,0,45.75,22.72Zm5.9-15.43c-2.39-1.12-2.4-1.33-3-3.89a5.14,5.14,0,0,0-.86-2c-2.41.25-4,.87-3.82,2.23l-.64.22c-.34-.13-.67-.24-1-.33l.15.75c1.24,2.8,5.51,3.59,8.09,4.47,3.47,1.19,7,3.32,8.57,6.77,2.43,5.52-2.79,11.07-2.23,16.9a24.47,24.47,0,0,1,2-8.35c.77-1.53,2.09-2.26,2.55-3.82a10.32,10.32,0,0,0,0-5.54C60,11.17,54.83,8.76,51.65,7.29ZM69.8,8.51c-.64-1.76,0-3.6-.85-5.32a4.86,4.86,0,0,0-1.37-1.78A2.3,2.3,0,0,0,66.7,1,2.33,2.33,0,0,0,66,.93a4.26,4.26,0,0,0-1.66.5l0,0c1.32.87,3,2,3.33,3.64.41,1.87-.64,2.64.79,4.31.92,1.08,2.43,1.48,2.94,2.93a6.77,6.77,0,0,1-.74,4.73c-.88,1.56-2.26,2.52-3.25,4-1.34,2-.88,2.88-.48,4.89.71,3.49-4.42,10.38-2.08,13l-.21,1.28a7,7,0,0,0,.44-1.06c.52-1.75,1-3.53,1.47-5.33.51-2.08,2-3.27,2.73-5.32.82-2.47-1.34-2.75-1.24-5.11.07-1.93,2.3-3.5,3.15-5.11a8.76,8.76,0,0,0,.9-5.11C71.86,11.07,70.51,10.42,69.8,8.51Zm34.65,49a15.7,15.7,0,0,0,4-1.37c1-.67,1.76-1.64,2.83-2.09a3.83,3.83,0,0,0-.22-1.49,8,8,0,0,1-1.49,1.28c1.1-1.8,1.16-2.89.81-3.93-1.24,2.24-2,4.53-4.22,6-1.08.71-4.76,2.66-4.68,0,0-1.23,1.17-.88,1.66-1.53a21,21,0,0,0,1.1-2.3,16.31,16.31,0,0,1,3.39-3.78,1.3,1.3,0,0,0-.28-.22l-.07,0a4,4,0,0,0-1.08-.41,26,26,0,0,1-4,6.19,27.5,27.5,0,0,0-2,2.08,4.53,4.53,0,0,0-.36.64c.2,1.48.38,3,.5,4.43C101.76,59.58,103.22,57.91,104.45,57.52ZM86.57,23.4c1.86-.69,2.44-.16,3.88-1.47a22.92,22.92,0,0,0,3.09-3.22c1-1.43,2.87-6.41.3-7,.63,3.25,0,7-3,9.09S85,18.48,87,16c-1.41-3.41.25-6.56,4.21-5.36-.84-.42-2.18-.55-3.07-1.23,1.09-2.23-.34-3.6-2.22-3.93a5.49,5.49,0,0,0-.72-.07A5.07,5.07,0,0,0,83,5.8c2.46.65,3.35,3.83.6,4.9,2,2.23,3.09,8.49,1.74,11.49-1.26,2.77-4,5.91-5.25,9.14,0-.36.07-.72.14-1.11.42-2.64,1.65-5.09,2.29-7.66A21.34,21.34,0,0,0,83,14.21,21,21,0,0,0,81.3,8.88c-.67-1.46-2-2.67-1.79-4.39-1.38.63-2.29.42-3.78.06,1.88,1.53.53,3.58,1.41,5.29.4.77,1.8,1.35,2.39,2.07a11,11,0,0,1,2.14,4c1.08,3.95-.47,7.58-1.91,11.13S78.12,32.37,78.9,36L80,37l.15.72c0-.15.09-.31.13-.47l.3.26c0-.31-.1-.62-.14-.91a31,31,0,0,1,1.89-6.49C83.49,27.72,84,24.37,86.57,23.4Z"/><path class="cls-44" d="M105.94,66.62l.42-.42c2.35-1.7.85-3.41,2.13-5.32s3.83-1.71,3.62-4.69a6.56,6.56,0,0,0-1.91,1.49c.63-1.49,1.48-3.4.85-5.11a8,8,0,0,1-1.49,1.28c2.34-3.83,0-4.47-1.07-8.09a5.74,5.74,0,0,1-1.28,2.56c1.07-3-.63-7-.21-10.43-.85-.22-1.49-1.28-2.13-1.49,2.77-4-.42-7.45-3.19-10.44a6.43,6.43,0,0,1-1.28.86c1.07-4.05,1.49-4.69-1.91-7.88l-.86-.64c.22-3.19-1.27-6.38-4-7.66-1.92-.85-2.77,0-4-2.13-.64-1.06.64-1.7,1.27-1.7-2.77-1.49-5.11-1.28-8.09-1.71-2.12-.42-4-1.49-6.17-2.13a3,3,0,0,1,.64.86L76.77,4c-.85-.85-1.7-1.28-1.06-2.34-2.13-.43-5.54-1.49-6.81.42C68.05,1.48,67,1.27,66.13.63,65.49,3.4,43.35-1.28,44,3.61l-.64.22A13.15,13.15,0,0,0,38.46,3c1.06,2.13-4.26,2.77-6,3.41a36,36,0,0,1,4,1.92l.85.64c-3-.43-9.15-1.92-11.92-.43-3,1.49-3.62,6.39-7.66,6.81a7.8,7.8,0,0,1,3.61,1.49c-4.89-.42-6.59-.21-9.57,4.47,1.91-1.28,4.47-.21,5.53,1.71-3.83.21-7-1.07-9.58,2.55a5.52,5.52,0,0,1,3.62-1.92l.43.64c-6,3-9.58,9.79-10.43,16C2.27,38.52,4.18,37.67,6.1,37,3.12,40-.5,43.63,1,48.53H1.2a6.21,6.21,0,0,1,3.2-5.11l.42.43C2.69,46.19-.29,54.06,2.91,56.19a1.29,1.29,0,0,1,.21-.85h.21c2.66,1.84,0,6.23,2.25,8.46-.71-2,.23-4,.09-6.12-.16-2.54-1.37-4.09-.24-6.79a17.43,17.43,0,0,0-2.7,2.51c-.26-4,1.92-9.54,6.06-10.84A14.67,14.67,0,0,0,4.26,43a15.08,15.08,0,0,1,7.93-6.19c-1.86-1.21-5.78-.35-8-.46,2-4.93,5.88-10.43,11.83-10.17-1-.5-2.1-1-3-1.56a9.18,9.18,0,0,1,7.14.24C18.74,22.73,18,20.12,15.69,19c2.83-.82,6.89-.86,9.32,1-.38-1.39-2.58-3.23-2.68-4.48s2.52-3.56,3.62-4.37c4.32-3.16,10.9-1.61,15.42.56-.86-.94-1.56-2-2.33-2.95-1-1.34-2-1.66-.42-2.83,2-1.54,6,0,8.12.83-.63-.89-1.49-1.68-1.23-2.87,4.72-1.43,8.81-.25,13.6-.25,2.22,0,4.32-1.23,6.22-1.23s4,2.38,2.53,4.13c2.2-1.35,2.07-4,5.47-3.92.9,2,4.11,2.68,3.92,5.48C79,5.61,80.71,5.91,83.8,6.37c.71.11,3,.2,3.36.91.7,1.28-1,2.89-2,3.37a10.58,10.58,0,0,1,8.65,1.69c3,2.39,2,5.13.89,8.06,2.65-1.64,3.72-.33,4.23,2.37.69,3.64-2.31,2.93-3.82,5.5,2.71-.36,5.06-1.12,7.27,1.26,1.81,1.94,2.16,5,0,6.88,3.73.05,2.87,3.13,3.12,5.73.27,2.84,1,5,.25,7.85a8.61,8.61,0,0,0,3-1.85h0c-1.11,2.08-.24,5.14-2.33,7a4.18,4.18,0,0,0,2.87-.84c-.08,2.53-1.85,2.81-2.87,4.67a13.28,13.28,0,0,0,1.59-.2c-.27.73-.94,1.25-1.29,2s0,1.69-.15,2.39c-.36,1.56-1.52,2.71-2.08,4.27a27,27,0,0,0-1.34,4.19c.08-.32.15-.59.21-.79C103.81,69.6,105.3,67.9,105.94,66.62Z"/><path class="cls-45" d="M16.53,38.1c-.94-1.66-1.28-1.86.48-2.71a7.61,7.61,0,0,0,2.87-2.08,4.6,4.6,0,0,0,1-3.19,12.31,12.31,0,0,1,0-1.92c.17-1.09.35-.84.81-1.72,1-1.82,1-1.55,3-1.67,1.77-.1,2.13-1,3.46-1.92,1.76-1.18,1.5-1.07,2.39-3.11A4.54,4.54,0,0,1,35.05,17c1.74.12,3.11.64,4.91.29s2.43-1.47,3.68-2.17a14.43,14.43,0,0,0,3.27-1.75c2-1.82,2.7-2.15,5.57-1.44,2.57.64,5,2.45,7.52,2.85,1.59.24,2.6-.79,3.79-.84,2.19-.09,7.09,3.47,8.58,1.49,1.49,1.55,2.58.15,4.19-.15,2-.37,2.87,1.2,4,2.56a11.13,11.13,0,0,0,4.16,3.28,7.83,7.83,0,0,0,1.59.48c.14,0,.71-.34.79-.3.36.16.41.78.47.81.91.45,2.62.51,3.41,1.44,1.15,1.35-.12,2.93.88,4.31s2.62.7,3.68,1.47c.3.22.5,1,.83,1.37.49.53,1.15,0,1.32,1a14.11,14.11,0,0,0-6.89-3c0-1.33.44-3-.18-4.29-.81-1.63-2.61-.86-4.13-.5,0-1.48-3.07-.91-4.15-1-.14-2.75-.58-3.1-2.9-4.49-.8-.48-1.86-1.39-2.87-1.24s-2.28,1.48-3.49,1.9c-.36-1.61-4.27-3.52-5.77-4-2.31-.76-5,1.87-6.51,3.49-.5-1.39-.49-2.35-2.11-3.17-1.38-.71-2.44,0-3.83-.24s-9.43-3.63-8.76.73A2.92,2.92,0,0,1,48,17.76c-1.22-.53-9-.78-7.1,1.83-2.18-.86-4.55-1.8-6.93-1.09-2.67.79-1.72,2.69.23,3.76-3.57,0-4.7,3.14-7.77,3.71-1.2.22-3.68.07-4.48,1.27s.08,3.55.75,4.48C21.55,31.58,19.07,35,19.5,36c-.68-.32-1.31.16-2,.48.22-.06.18-.19.27-.34Z"/><path class="cls-46" d="M27.8,57.87l-1.91.65s0,0,0,0L27.55,58c.36-.12-.44.78-.3.6-.14.18-.29.35-.44.52-.64.74-1.36,1.41-2,2.12A11,11,0,0,0,22,65.94a29.88,29.88,0,0,0-.69,3.36c-.1.57-.22,1.13-.35,1.68-.08.35-.47,1.07-.41,1.41.17.92.32,1.85.47,2.77.63,3.89,1,7.8,1.57,11.7.21,1.52.43,3,.67,4.53,0,.29.08.34,0,.58s-1.37.76-1.49.28A74.48,74.48,0,0,0,17.41,79a12.34,12.34,0,0,0-1.59-2.72c-.12-.16-.37-.52-.59-.55l-1.53-.22-1.37-.19c-.29,0-.74.25-1,.37l.06-.26c.09-.43.15-.85.21-1.28a9.18,9.18,0,0,0,0-3.05,21.3,21.3,0,0,0-1-3.2A13.78,13.78,0,0,0,9.4,65.36a18.8,18.8,0,0,0-2.17-2.85c-.08-.09-.21.05-.13.14a14.85,14.85,0,0,1,3.16,5,17.15,17.15,0,0,1,1.29,4.48,12.12,12.12,0,0,1-.41,3.64.07.07,0,0,0,.09.09l1-.42a3.13,3.13,0,0,1,.94.13c.73.1,1.78,0,2.32.57C17,77.64,17.76,80,18.47,82a92,92,0,0,1,3.1,10.44.12.12,0,0,0,.05,0c.66.16,1.6.14,1.79-.69a1.79,1.79,0,0,0-.09-.6c-.11-.69-.21-1.38-.31-2.08-.58-3.93-1-7.88-1.56-11.81-.22-1.44-.46-2.87-.71-4.31a1.81,1.81,0,0,1,.08-1.12,28,28,0,0,0,.76-3.64A12.42,12.42,0,0,1,24.23,62a47.69,47.69,0,0,0,3.6-4.06S27.83,57.86,27.8,57.87Zm14.91-22a13,13,0,0,0-11,4.91,10.22,10.22,0,0,0-1.78,5.26c-.25,1.87-.33,4.29-1.94,5.57-.07.06,0,.21.1.17s1.12-.25,1.08-.15a4.32,4.32,0,0,0-.23.66,12.38,12.38,0,0,0-.38,1.81,5,5,0,0,1-2,3.53s0,0,0,0a4.66,4.66,0,0,0,1.89-2.37c.43-1.24.42-2.55.95-3.77a.1.1,0,0,0-.09-.15,3.55,3.55,0,0,0-.88.09,7,7,0,0,0,1.48-4c.3-2,.38-4.11,1.41-5.89a11.58,11.58,0,0,1,4.89-4.33A16.7,16.7,0,0,1,42.71,36,.06.06,0,1,0,42.71,35.91Zm37.76,3c-.09,2-3.17,2.24-5.12,2.35,1-.44,2-1.13,1.51-2.37a.09.09,0,0,0-.17,0c-1.43,3.08-6.09,3-8.9,2.84-3-.11-6.07-.69-9.09-.61.8-.26,1.51-.75,1-1.68-.65-1.35-2-2.15-2.91-3.32a.09.09,0,0,0-.16,0,3.54,3.54,0,0,0,.46,3.2c-2.65-1.27-5.85-1.45-8.21-3.26-.08-.07-.18.08-.11.15.53.54,1,1.11,1.58,1.62-2.14-.68-4.58-1-6.27-2.5a6.26,6.26,0,0,0-.51-.52.08.08,0,1,0-.11.11c.42.5.84,1,1.23,1.53.26.34.24.22-.23,0-.31-.13-.62-.23-.94-.33h0c.51.2,1,.45,1.46.69a.07.07,0,0,0,.1-.09,7.61,7.61,0,0,0-.54-.85c1.78,1.26,4.15,1.52,6.2,2.25.08,0,.16-.1.09-.16a11,11,0,0,1-1.34-1.3c2.37,1.45,5.37,1.65,7.83,2.94.07,0,.18-.05.12-.13a4,4,0,0,1-.83-2,3,3,0,0,1,.07-.9c0-.2,0-.4.11-.22A20.47,20.47,0,0,0,58.37,38a4.87,4.87,0,0,1,1.3,1.76c.38,1.12-1.36,1.37-2.08,1.48-.1,0-.08.18,0,.17a30.66,30.66,0,0,1,5.58.36,48,48,0,0,0,6.67.42,10.64,10.64,0,0,0,5.29-1.24,4.34,4.34,0,0,0,1.5-1.54c.16-.27.11-.38.15.13a1.32,1.32,0,0,1-.69,1.11,6.25,6.25,0,0,1-1.71.76c-.14,0-.13.28,0,.26,1.83-.19,6.21,0,6.31-2.69C80.75,38.77,80.48,38.77,80.47,39Zm17.9,6.33a13.3,13.3,0,0,0-6.49-5.52c.64-.7,1.15-1.52,1.8-2.21.1-.1,0-.29-.15-.2-1.89,1.38-4.06,1.27-6.26,1.53-.32,0-2.14.24-2.09.66a18.08,18.08,0,0,1-.2-2.08c0-.13-.21-.17-.23,0A2.92,2.92,0,0,1,84,39.21a5.66,5.66,0,0,1-1.88,1l-.77.3-.21.09-.1,0c.3-.53.13-1.11.24-1.7,0-.07-.09-.1-.11,0-.13.66.08,1.32-.43,1.87,0,0,0,.16.08.13,1.3-.53,3.39-1,4-2.35,0,.35.09.69.14,1,0,.08.1.09.16.07a12.59,12.59,0,0,1,4.48-.75A8.13,8.13,0,0,0,93,38c-.45.57-.86,1.18-1.36,1.7a.12.12,0,0,0,0,.2,14,14,0,0,1,6.56,5.48A.11.11,0,0,0,98.37,45.28Zm7.47,21.29c-.92,1.75-2.34,3.15-2.79,5.13-.35,1.55-.58,3.15-.81,4.73,0,.22,0,.08-.19.12a1.6,1.6,0,0,0-.74.46,7.24,7.24,0,0,0-1.47,2.73,19.44,19.44,0,0,0-1.08,4c0-1.69,0-3.39.08-5.08.09-1.41.39-2.8.62-4.2s.48-2.91.71-4.37c1.12-7-.19-14.26-1.68-21.09-.19-.87-.4-1.73-.61-2.6,0,0-.07,0-.06,0a117.7,117.7,0,0,1,2.12,11.66,40.51,40.51,0,0,1,.16,11.32c-.42,2.59-.86,5.17-1.3,7.76a41.83,41.83,0,0,0-.23,8.07c0,.19,0,.37,0,.56a.11.11,0,0,0,.22,0,16.4,16.4,0,0,1,.67-4.28,18.73,18.73,0,0,1,1.16-3.08c.33-.67.84-1.63,1.68-1.68a.12.12,0,0,0,.11-.08c.2-1.43.43-2.86.71-4.27a7.78,7.78,0,0,1,.89-2.57c.62-1.08,1.43-2,2-3.14C106.09,66.56,105.91,66.45,105.84,66.57Zm6.37-10.38a.1.1,0,0,0-.15-.09,11.94,11.94,0,0,0-1.53,1.07,6.57,6.57,0,0,0,.63-4.63.12.12,0,0,0-.2,0,9.06,9.06,0,0,1-1.06,1,4.47,4.47,0,0,0,.6-3.56c-.45-1.46-1.42-2.71-1.88-4.19a.14.14,0,0,0-.26,0,5.71,5.71,0,0,1-.81,1.87c.68-3.16-.76-6.51-.39-9.71a.17.17,0,0,0-.12-.15c-.78-.29-1.22-1-1.93-1.41a5.61,5.61,0,0,0,.52-5.31,18,18,0,0,0-3.86-5.15.14.14,0,0,0-.18,0,5.05,5.05,0,0,1-1,.68,10,10,0,0,0,.64-4c-.23-1.5-1.63-2.72-2.68-3.67a.12.12,0,0,0-.17.17c1,1,2.31,2.08,2.6,3.56s-.38,2.91-.72,4.19a.13.13,0,0,0,.19.15,7.69,7.69,0,0,0,1-.66c.15-.11.11-.17.24,0l.67.75a21.69,21.69,0,0,1,2.15,2.73,5.68,5.68,0,0,1,.15,6.59.16.16,0,0,0,.06.23c.74.32,1.18,1.21,2,1.44a8.06,8.06,0,0,1,0,1.65c0,.61.09,1.21.16,1.81.27,2.24.86,4.63.12,6.84,0,.16.17.22.25.11a7.29,7.29,0,0,0,1.18-2.17A32.08,32.08,0,0,0,110,49.41c.76,1.55.26,3-.57,4.38a.12.12,0,0,0,.16.16A6.59,6.59,0,0,0,111,52.79c.46,1.67-.23,3.31-.89,4.84a.11.11,0,0,0,.19.11,3.9,3.9,0,0,1,1-.93,4.43,4.43,0,0,1,.68-.38,2.71,2.71,0,0,1-.6,1.88A16,16,0,0,1,109.13,60a3.7,3.7,0,0,0-1.29,2.4c-.07.6-.07,1.21-.18,1.81a3.24,3.24,0,0,1-1.35,1.91.08.08,0,0,0,.09.12,3.43,3.43,0,0,0,1.48-2.37c.17-1.38.18-2.58,1.26-3.62.66-.63,1.52-1,2.2-1.6A2.92,2.92,0,0,0,112.21,56.19ZM6,62.78a3,3,0,0,0-.21.78.63.63,0,0,1,0,.33,3.3,3.3,0,0,1-.46-.53,3.74,3.74,0,0,1-.6-1.77c-.14-1.17,0-2.37,0-3.55a3.7,3.7,0,0,0-1-2.55c-.52-.53-.82-.24-.94.27a3.75,3.75,0,0,1-1-2.23A10.45,10.45,0,0,1,2.12,50a15.62,15.62,0,0,1,2.73-6.09c0-.05,0-.11-.06-.07a14.09,14.09,0,0,0-3.18,6.42c-.44,1.73-.86,5.15,1.2,6.13a.2.2,0,0,0,.29-.17c0-.08,0-.68.07-.68.27,0,.45.22.62.39a2.84,2.84,0,0,1,.61,1.3,10.23,10.23,0,0,1,.1,2.71c0,1.55,0,3.21,1.35,4.22,0,0,.11,0,.11-.06a3.18,3.18,0,0,1,.2-1.26C6.19,62.73,6.07,62.7,6,62.78Zm0-25.87a8.71,8.71,0,0,0-4.45,2.81A25.14,25.14,0,0,1,4.7,31.31a19.72,19.72,0,0,1,7.19-7c.09,0,0-.18-.08-.14A17.1,17.1,0,0,0,4.61,31a22.81,22.81,0,0,0-3.3,9.24c0,.1.15.14.2.05a6.68,6.68,0,0,1,4.12-3c-3,3-6.19,6.65-4.73,11.23a.1.1,0,0,0,.09.07l.23,0a.07.07,0,0,0,.06-.07,6.3,6.3,0,0,1,3.13-5.08,0,0,0,0,0,0-.06,6.32,6.32,0,0,0-2.85,3.18,13.94,13.94,0,0,0-.43,1.87c-.36,0-.33-2.45-.3-2.79.25-3.44,3.1-6.22,5.39-8.53C6.27,37,6.19,36.87,6.07,36.91ZM7.88,25.62a5.73,5.73,0,0,1,3.57-1.89c.14,0,.08-.23-.06-.21a6.62,6.62,0,0,0-2.16.71,6,6,0,0,1,3.27-1.17c1.62-.11,3.25.11,4.88,0a.11.11,0,0,0,.09-.16A4.21,4.21,0,0,0,12.13,21a9.12,9.12,0,0,1,3.95-3.85c1.66-.66,3.62-.41,5.34-.26a.1.1,0,0,0,.06-.18,7.87,7.87,0,0,0-3.14-1.4c3.42-.8,4.1-4.8,6.9-6.56,1.74-1.1,4.16-.85,6.11-.65s4,.67,6,.9c.1,0,.12-.15,0-.17-1.94-.35-3.87-.71-5.83-.94a12.06,12.06,0,0,0-5.85.35c-3.46,1.42-3.85,6.44-7.92,7-.11,0-.15.18,0,.2a8.35,8.35,0,0,1,3.29,1.26,10.75,10.75,0,0,0-5.2.37c-1.85.8-3,2.54-4.11,4.18,0,.09.05.19.13.14a3.77,3.77,0,0,1,4.62.65,4.13,4.13,0,0,1,.67.83s-.84,0-.93,0c-.72,0-1.43,0-2.14-.06a10.12,10.12,0,0,0-3.51.35,6,6,0,0,0-2.9,2.29C7.62,25.59,7.8,25.72,7.88,25.62ZM43.38,3.73a12.74,12.74,0,0,0-4.92-.86.11.11,0,0,0-.1.16c1,2.12-4.68,2.82-5.89,3.27-.06,0-.1.12,0,.16a31.85,31.85,0,0,1,4.07,1.87s.08,0,0-.07a14.36,14.36,0,0,0-2.13-1.11c-.4-.17-.81-.33-1.21-.51l-.46-.22-.08,0a.37.37,0,0,0,.15,0c1-.29,1.94-.49,2.9-.76s3.38-1,2.88-2.51a16.48,16.48,0,0,1,4.72.83C43.45,4,43.49,3.78,43.38,3.73Zm.7-.12c-.51-4.71,19.2-.45,21.86-2.53A.94.94,0,0,0,66.22.7C66.11,1,68.54,2,68.84,2.23a.13.13,0,0,0,.17,0c1.39-1.92,4.56-.82,6.5-.39-.42,1,.38,1.65,1.19,2.31A.11.11,0,0,0,76.85,4c-.58-.66-1.55-1.17-1-2.19a.14.14,0,0,0-.08-.21,15.12,15.12,0,0,0-4.9-.64A3.1,3.1,0,0,0,69,1.75c-.31.31-.84-.2-1.22-.37A11.42,11.42,0,0,1,66.18.54.11.11,0,0,0,66,.61c-.08.48-.88.61-1.26.68a14.53,14.53,0,0,1-2.64.19c-2.41,0-4.83-.14-7.24-.24a48.88,48.88,0,0,0-7.16.06c-1.18.12-3,.3-3.69,1.48a1.4,1.4,0,0,0-.14.83C43.91,3.73,44.1,3.73,44.08,3.61Zm33.05.26a.08.08,0,0,0,.14-.08,3.67,3.67,0,0,0-.43-.63c2.23.78,4.35,1.88,6.72,2.16s4.66.39,6.83,1.42a1.31,1.31,0,0,0-1.1,1.62,3.09,3.09,0,0,0,2.49,2A6.41,6.41,0,0,1,96,12.86,8.49,8.49,0,0,1,97.5,18.3c0,.18.26.18.27,0a8.2,8.2,0,0,0-2.94-7.09,7.51,7.51,0,0,0-3.25-1.27A2.6,2.6,0,0,1,90,8.85c-.35-.47-.61-1-.15-1.48a1.62,1.62,0,0,1,1-.43c.13,0,.2-.19.07-.25a17.52,17.52,0,0,0-6.54-1.52,15.25,15.25,0,0,1-4-.9c-1.25-.46-2.47-1-3.76-1.38A.09.09,0,0,0,76.5,3,3.43,3.43,0,0,1,77.13,3.87Z"/></g></g></svg>