<svg xmlns="http://www.w3.org/2000/svg" xmlns:xlink="http://www.w3.org/1999/xlink" viewBox="0 0 118.13 175.49"><defs><style>.cls-1{fill:url(#linear-gradient);}.cls-2{fill:url(#linear-gradient-2);}.cls-3{fill:url(#linear-gradient-3);}.cls-4{fill:#c07b60;}.cls-5{fill:url(#linear-gradient-4);}.cls-6{fill:url(#radial-gradient);}.cls-7{fill:url(#radial-gradient-2);}.cls-8{fill:url(#radial-gradient-3);}.cls-9{fill:url(#linear-gradient-5);}.cls-10{fill:url(#linear-gradient-6);}.cls-11{fill:url(#linear-gradient-7);}.cls-12{fill:url(#linear-gradient-8);}.cls-13{fill:url(#linear-gradient-9);}.cls-14{fill:url(#linear-gradient-10);}.cls-15{fill:url(#linear-gradient-11);}.cls-16{fill:url(#linear-gradient-12);}.cls-17{fill:url(#linear-gradient-13);}.cls-18{fill:url(#linear-gradient-14);}.cls-19{fill:url(#linear-gradient-15);}.cls-20{fill:url(#linear-gradient-16);}.cls-21{fill:url(#linear-gradient-17);}.cls-22{fill:url(#linear-gradient-18);}.cls-23{fill:url(#linear-gradient-19);}.cls-24{fill:url(#linear-gradient-20);}.cls-25{fill:url(#linear-gradient-21);}.cls-26{fill:url(#linear-gradient-22);}.cls-27{fill:url(#linear-gradient-23);}.cls-28{fill:url(#linear-gradient-24);}.cls-29{fill:url(#linear-gradient-25);}.cls-30{fill:#9d4836;}.cls-31{fill:url(#radial-gradient-4);}.cls-32{fill:#88392e;}.cls-33{fill:#401912;}.cls-34{fill:url(#linear-gradient-26);}.cls-35{fill:url(#linear-gradient-27);}.cls-36{fill:url(#linear-gradient-28);}.cls-37{fill:url(#linear-gradient-29);}.cls-38{fill:url(#linear-gradient-30);}.cls-39{fill:url(#linear-gradient-31);}.cls-40{fill:url(#linear-gradient-32);}.cls-41{fill:#fff;}.cls-42{fill:url(#linear-gradient-33);}.cls-43{fill:url(#linear-gradient-34);}.cls-44{fill:url(#linear-gradient-35);}.cls-45{fill:#ca7c6a;}.cls-46{fill:url(#linear-gradient-36);}.cls-47{fill:url(#linear-gradient-37);}.cls-48{fill:url(#linear-gradient-38);}.cls-49{fill:url(#linear-gradient-39);}</style><linearGradient id="linear-gradient" x1="62.01" y1="161.94" x2="62.01" y2="114.4" gradientUnits="userSpaceOnUse"><stop offset="0" stop-color="#c07b60"/><stop offset="1" stop-color="#8e4932"/></linearGradient><linearGradient id="linear-gradient-2" x1="16.73" y1="100.58" x2="9.86" y2="104.19" gradientUnits="userSpaceOnUse"><stop offset="0"/><stop offset="1" stop-color="#2d4753"/></linearGradient><linearGradient id="linear-gradient-3" x1="16.74" y1="100.61" x2="9.87" y2="104.21" gradientUnits="userSpaceOnUse"><stop offset="0"/><stop offset="0.98" stop-color="#1b2b32"/></linearGradient><linearGradient id="linear-gradient-4" x1="108.73" y1="92.69" x2="106.27" y2="91.71" xlink:href="#linear-gradient"/><radialGradient id="radial-gradient" cx="358.08" cy="119.39" r="39.94" gradientTransform="translate(-33.78 94.69) scale(0.31 0.23)" gradientUnits="userSpaceOnUse"><stop offset="0" stop-color="#d79077"/><stop offset="1" stop-color="#c07b60"/></radialGradient><radialGradient id="radial-gradient-2" cx="292.2" cy="191.84" r="39.95" gradientTransform="matrix(0.23, 0.46, -0.23, 0.12, 12.25, -53.27)" xlink:href="#radial-gradient"/><radialGradient id="radial-gradient-3" cx="388.99" cy="-47.28" r="39.92" gradientTransform="matrix(-0.15, 0.49, -0.25, -0.08, 147.91, -88.94)" xlink:href="#radial-gradient"/><linearGradient id="linear-gradient-5" x1="65.54" y1="151.06" x2="65.54" y2="102.6" gradientUnits="userSpaceOnUse"><stop offset="0" stop-color="#4b3935"/><stop offset="1" stop-color="#624c4a"/></linearGradient><linearGradient id="linear-gradient-6" x1="9.5" y1="98.51" x2="21.73" y2="89.57" xlink:href="#linear-gradient"/><linearGradient id="linear-gradient-7" x1="14.38" y1="93.5" x2="21.7" y2="88.1" gradientUnits="userSpaceOnUse"><stop offset="0" stop-color="#8d4b32"/><stop offset="1" stop-color="#71311d"/></linearGradient><linearGradient id="linear-gradient-8" x1="65.49" y1="74.55" x2="65.49" y2="41.6" xlink:href="#linear-gradient"/><linearGradient id="linear-gradient-9" x1="48.54" y1="83.98" x2="48.54" y2="73.42" xlink:href="#linear-gradient"/><linearGradient id="linear-gradient-10" x1="91.77" y1="84.14" x2="91.77" y2="73.61" xlink:href="#linear-gradient"/><linearGradient id="linear-gradient-11" x1="59.1" y1="95.15" x2="73.15" y2="103.33" xlink:href="#linear-gradient"/><linearGradient id="linear-gradient-12" x1="87.49" y1="96.61" x2="78.28" y2="99.09" xlink:href="#linear-gradient"/><linearGradient id="linear-gradient-13" x1="47.7" y1="92.63" x2="63.53" y2="82.69" xlink:href="#linear-gradient"/><linearGradient id="linear-gradient-14" x1="1022.71" y1="92.87" x2="1039.52" y2="82.32" gradientTransform="matrix(-0.72, 0, 0, 1, 829.31, -0.05)" xlink:href="#linear-gradient"/><linearGradient id="linear-gradient-15" x1="75.71" y1="85.21" x2="75.71" y2="103.4" gradientUnits="userSpaceOnUse"><stop offset="0" stop-color="#c07b60"/><stop offset="1" stop-color="#d79077"/></linearGradient><linearGradient id="linear-gradient-16" x1="63.96" y1="107.13" x2="62.06" y2="104.76" xlink:href="#linear-gradient-15"/><linearGradient id="linear-gradient-17" x1="85.09" y1="107.58" x2="88" y2="105.6" xlink:href="#linear-gradient-15"/><linearGradient id="linear-gradient-18" x1="43.51" y1="141.08" x2="102.32" y2="43.88" gradientUnits="userSpaceOnUse"><stop offset="0" stop-color="#895541"/><stop offset="1" stop-color="#572b1c"/></linearGradient><linearGradient id="linear-gradient-19" x1="65.54" y1="150.2" x2="65.54" y2="102.61" gradientUnits="userSpaceOnUse"><stop offset="0" stop-color="#302622"/><stop offset="1" stop-color="#473936"/></linearGradient><linearGradient id="linear-gradient-20" x1="73.98" y1="120.43" x2="73.98" y2="110.57" xlink:href="#linear-gradient"/><linearGradient id="linear-gradient-21" x1="74.26" y1="124.86" x2="74.26" y2="104.78" gradientUnits="userSpaceOnUse"><stop offset="0" stop-color="#67544d"/><stop offset="1" stop-color="#7e6865"/></linearGradient><linearGradient id="linear-gradient-22" x1="74.13" y1="99.18" x2="74.13" y2="79.07" gradientUnits="userSpaceOnUse"><stop offset="0" stop-color="#683421"/><stop offset="1" stop-color="#c07b60"/></linearGradient><linearGradient id="linear-gradient-23" x1="60.2" y1="110.89" x2="60.2" y2="115.15" gradientUnits="userSpaceOnUse"><stop offset="0" stop-color="#683421"/><stop offset="1" stop-color="#584851"/></linearGradient><linearGradient id="linear-gradient-24" x1="101.98" y1="92.13" x2="110.55" y2="87.5" gradientUnits="userSpaceOnUse"><stop offset="0" stop-color="#743923"/><stop offset="1" stop-color="#582311"/></linearGradient><linearGradient id="linear-gradient-25" x1="15.12" y1="94.52" x2="21.51" y2="91.07" xlink:href="#linear-gradient-24"/><radialGradient id="radial-gradient-4" cx="331.12" cy="174.22" r="37.17" gradientTransform="translate(-0.77 96.47) scale(0.23 0.2)" gradientUnits="userSpaceOnUse"><stop offset="0" stop-color="#b4634c"/><stop offset="1" stop-color="#9d4836"/></radialGradient><linearGradient id="linear-gradient-26" x1="59.09" y1="46.33" x2="59.09" y2="4.48" xlink:href="#linear-gradient-2"/><linearGradient id="linear-gradient-27" x1="59.09" y1="37.9" x2="59.09" y2="3.79" gradientUnits="userSpaceOnUse"><stop offset="0" stop-color="#111820"/><stop offset="1" stop-color="#446d7c"/></linearGradient><linearGradient id="linear-gradient-28" x1="58.43" y1="37.55" x2="58.43" y2="4.85" gradientUnits="userSpaceOnUse"><stop offset="0" stop-color="#1a252e"/><stop offset="1" stop-color="#5e8898"/></linearGradient><linearGradient id="linear-gradient-29" x1="59.06" y1="46.27" x2="59.06" y2="4.37" gradientUnits="userSpaceOnUse"><stop offset="0"/><stop offset="1" stop-color="#20323b"/></linearGradient><linearGradient id="linear-gradient-30" x1="49.11" y1="72.47" x2="49.11" y2="68.22" gradientUnits="userSpaceOnUse"><stop offset="0"/><stop offset="1" stop-color="#162329"/></linearGradient><linearGradient id="linear-gradient-31" x1="1238.42" y1="72.47" x2="1238.42" y2="68.22" gradientTransform="matrix(-0.69, 0, 0, 1, 950.16, 0)" xlink:href="#linear-gradient-30"/><linearGradient id="linear-gradient-32" x1="46.25" y1="71.53" x2="46.25" y2="74.81" gradientUnits="userSpaceOnUse"><stop offset="0" stop-color="#672a1a"/><stop offset="1" stop-color="#4b170b"/></linearGradient><linearGradient id="linear-gradient-33" x1="46.43" y1="87.72" x2="46.43" y2="81.53" gradientUnits="userSpaceOnUse"><stop offset="0" stop-color="#39140a"/><stop offset="1"/></linearGradient><linearGradient id="linear-gradient-34" x1="46.43" y1="87.73" x2="46.43" y2="81.53" gradientUnits="userSpaceOnUse"><stop offset="0.01" stop-color="#652312"/><stop offset="1" stop-color="#210000"/></linearGradient><linearGradient id="linear-gradient-35" x1="46.44" y1="84.67" x2="46.44" y2="86.27" gradientUnits="userSpaceOnUse"><stop offset="0"/><stop offset="1" stop-color="#77726d"/></linearGradient><linearGradient id="linear-gradient-36" x1="1055.57" y1="71.53" x2="1055.57" y2="74.81" gradientTransform="matrix(-0.85, 0, 0, 1, 989.54, 0)" xlink:href="#linear-gradient-32"/><linearGradient id="linear-gradient-37" x1="89.46" y1="87.73" x2="89.46" y2="81.53" xlink:href="#linear-gradient-33"/><linearGradient id="linear-gradient-38" x1="89.46" y1="87.73" x2="89.46" y2="81.53" xlink:href="#linear-gradient-34"/><linearGradient id="linear-gradient-39" x1="89.46" y1="84.67" x2="89.46" y2="86.27" xlink:href="#linear-gradient-35"/></defs><g id="Layer_2" data-name="Layer 2"><g id="_3_Face" data-name="3_Face"><path d="M68.77,175.49c-44.09,0-61.31-11.09-61.48-11.2a.5.5,0,0,1-.22-.46.48.48,0,0,1,.31-.41c.21-.08,20.51-8.09,22.82-14.15s1.69-38.19,1.69-38.52a.44.44,0,0,1,.15-.36.47.47,0,0,1,.33-.14h0l62.39,4.22a.47.47,0,0,1,.34.19.5.5,0,0,1,.1.39c0,.24-4.07,24.59-.37,33.51s21.58,15.14,21.77,15.2a.5.5,0,0,1,.32.43.48.48,0,0,1-.25.47c-.2.11-19.86,10.83-47.93,10.83Z"/><path class="cls-1" d="M7.55,163.88s20.68-8.1,23.1-14.43,1.72-38.71,1.72-38.71L94.76,115s-4.14,24.63-.35,33.78,22.06,15.48,22.06,15.48S97,175,68.77,175C24.31,175,7.55,163.88,7.55,163.88Z"/><path d="M118.06,55.23a6.15,6.15,0,0,0-1.82-2.69,2.88,2.88,0,0,0-.39-.27.59.59,0,0,0,0-.13l0-.19a1.65,1.65,0,0,0,0-1,3.27,3.27,0,0,0-.94-1.21,3.79,3.79,0,0,0-.86-.52,1.69,1.69,0,0,1-.79-.57c-1-1.49-.5-4-.14-5.29.09-.34.2-.68.31-1a10.56,10.56,0,0,0,.51-1.86,11.29,11.29,0,0,0,0-2.86,13,13,0,0,0-.66-3,.62.62,0,0,0-.58-.41.58.58,0,0,0-.19,0,3.5,3.5,0,0,1-1,.14,4.31,4.31,0,0,1-2-.49,1.37,1.37,0,0,1-.78-1.47,4.77,4.77,0,0,1,.32-1,5.8,5.8,0,0,0,.36-1A2.78,2.78,0,0,0,109,28a2.87,2.87,0,0,0-2.13-1l-.12-.16v0a9.91,9.91,0,0,1-.28-2.29c0-.12,0-.25,0-.37a1.21,1.21,0,0,1,.23-.63.77.77,0,0,0,0-1l-.1-.12c-1.42-1.74-3-3.7-5.48-4a11.2,11.2,0,0,0-.27-2.58.6.6,0,0,0-.31-.4l0-.1v-.06a.58.58,0,0,0-.42-.5l-.16,0a15.64,15.64,0,0,0-3.18-.7,8.45,8.45,0,0,1-.54-1.35,4.19,4.19,0,0,0-.18-.5,3.58,3.58,0,0,0-3-2.55h-.14a4.92,4.92,0,0,0-1,.14,4.84,4.84,0,0,0-.49.14l0-.06a1,1,0,0,0-.07-.17l-.2-.39A9.25,9.25,0,0,0,90.41,8a5.35,5.35,0,0,0-3-1.74l-.31-.09a.63.63,0,0,0-.19,0,.67.67,0,0,0-.5.21.46.46,0,0,0-.07.07,15.32,15.32,0,0,1-1.17-1.23,10.72,10.72,0,0,0-2.16-2c-1.78-1.14-4-1.24-6-1.24h0a.67.67,0,0,0-.62.42.65.65,0,0,0,.16.72,1.73,1.73,0,0,1,.36.59,5.75,5.75,0,0,1-1.13-1.13,9.47,9.47,0,0,0-.86-.93C73.55.47,71.84.39,70.34.32c-.39,0-.77,0-1.11-.08h-.07a.65.65,0,0,0-.59.38.71.71,0,0,0,.1.74l.06.07A4.58,4.58,0,0,1,67.39.78l-.6-.36A3.19,3.19,0,0,0,65.22,0,4.12,4.12,0,0,0,63.1.66a.67.67,0,0,0-.28.84,1.63,1.63,0,0,1,.11.31l-.23,0h-.08a2,2,0,0,1-1.08-.49.63.63,0,0,0-.39-.13.6.6,0,0,0-.33.09l-.36-.06a5.89,5.89,0,0,0-4-1.2c-.44,0-.87,0-1.23,0-.67,0-1.35.13-2,.21a22.5,22.5,0,0,1-2.69.22A8,8,0,0,1,49.32.43H49.2a.65.65,0,0,0-.66.66,1.16,1.16,0,0,0,.06.38,6.58,6.58,0,0,1-1,.07A8.67,8.67,0,0,1,44.12.78l-.21-.1A5.18,5.18,0,0,0,42.38.19L42,.17A9,9,0,0,0,39.7.56l-.17,0a.67.67,0,0,0-.46.45.5.5,0,0,0,0,.12l-.32-.07a.47.47,0,0,0-.17,0,.68.68,0,0,0-.66.54,3.48,3.48,0,0,1-1.61,2.64,1,1,0,0,1-.48.1c-.18,0-.37,0-.57,0a4.21,4.21,0,0,0-.73-.07,2,2,0,0,0-.66.1c-.92.29-1.16,1.55-1.24,2a12.54,12.54,0,0,0-.13,2.59c0,.14,0,.28,0,.43C31.5,9,30.57,8.5,29.58,8L29,7.71a.78.78,0,0,0-.3-.07.65.65,0,0,0-.54.29,4.33,4.33,0,0,1-2.38,1.44,4.82,4.82,0,0,0-3,2.11,6.46,6.46,0,0,0-.47,1.75c-.23,1.42-.42,2-1,2a1.83,1.83,0,0,1-.42-.07.52.52,0,0,0-.18,0,.65.65,0,0,0-.62.47.66.66,0,0,0,.28.74l.17.14-.62.15a10,10,0,0,0-1.13.3,3.32,3.32,0,0,0-2,1.86,2.82,2.82,0,0,1-2,1.81l-.23,0a6.18,6.18,0,0,0-2.48.81.65.65,0,0,0-.29.4l-.68.56-.11.11a3.25,3.25,0,0,0-.49,1.16,7.45,7.45,0,0,0-.18,1.09l0,.29c-.14,1.29-.28,2.09-1.07,2.44A.65.65,0,0,0,8.8,28a.64.64,0,0,0,.16.56,3.18,3.18,0,0,1,.71,3.23,3.05,3.05,0,0,1-2.15,1.94l-.17.06a2.21,2.21,0,0,0-1.38,1,1.86,1.86,0,0,0,.21,1.75c-1.76.74-2,3.39-2.12,4.9l0,.21c0,.26,0,.58-.06.93-.11,2.48-.37,4.9-2.07,4.9h0a.67.67,0,0,0-.48.2.63.63,0,0,0-.19.48,9.16,9.16,0,0,0,.89,3.73l0,0-.07.46,0,.08a.59.59,0,0,0,0,.61,2.48,2.48,0,0,1,.23.36h0a3.79,3.79,0,0,0-.82.53,2.36,2.36,0,0,0-.36.47,1.13,1.13,0,0,1-.25.3,2.28,2.28,0,0,0-.51.48c-.67.89-.09,2.45,0,2.62a6.23,6.23,0,0,0,1.22,1.83,2,2,0,0,0-.68,1.56,1.84,1.84,0,0,0,.82,1.43l-.08.17A3.35,3.35,0,0,1,.4,64.36a.67.67,0,0,0-.33.55.69.69,0,0,0,.31.58,8.2,8.2,0,0,1,1.67,1.44,6.81,6.81,0,0,1,.69,1l.07.11-.14.11a2.22,2.22,0,0,0-1.13,2.14A6.27,6.27,0,0,0,2.14,72a8.36,8.36,0,0,1,.42,1,7.51,7.51,0,0,1,.14,2.56,13.22,13.22,0,0,0,0,1.89A.7.7,0,0,0,3,77.9l.18.62a.64.64,0,0,0,.1.33c.41.56.8,1.08,1.19,1.56A13.08,13.08,0,0,0,4,82.5a1.4,1.4,0,0,0,.79,1.6l.17.12A4.69,4.69,0,0,1,6.9,87.44c.42,2.54-.47,5.29-1.42,7.89a.7.7,0,0,0,.14.69,8.75,8.75,0,0,1,1.31,2.31,16,16,0,0,0,.79,1.61,14.52,14.52,0,0,0,2.63,3.1l.38.37a11.11,11.11,0,0,1,2.39,2.79,6.26,6.26,0,0,1,.53,4.41.7.7,0,0,0,.28.74,10.51,10.51,0,0,0,3.77,1.52,8.06,8.06,0,0,1,3.83,1.72c1.46,1.44,1.9,3.79,2.28,5.87.06.32.11.63.17.94a.66.66,0,0,0,.66.53.67.67,0,0,0,.58-.35,9,9,0,0,1,.69-1l.1-.13q0,.25-.06.54a.66.66,0,0,0,.61.78l.5,0a5.84,5.84,0,0,0,1.93-.33A24.68,24.68,0,0,0,31.13,128,15.72,15.72,0,0,0,34.69,132l.7.63C37.93,134.9,40.56,137,43,139s4.94,3.81,7.37,5.63c1.79,1.32,3.63,2.7,5.41,4.08,3.4,2.63,8.3,4.07,15,4.42.63,0,1.27,0,1.88,0,7,0,12.45-2.07,16.2-6.15a25.23,25.23,0,0,0,3.69-5.87c.33-.65.67-1.32,1-2,.92-1.69,1.74-3.15,2.52-4.47.39-.67.82-1.34,1.23-2s1-1.56,1.46-2.36a33,33,0,0,0,2.72-6.23,36,36,0,0,0,1.14-5.31c.12-.68.23-1.38.36-2.06.22-1.17.48-2.35.72-3.5.29-1.37.6-2.79.85-4.21a44.74,44.74,0,0,0,.58-4.95,11.08,11.08,0,0,0,2.31-2.55,7.85,7.85,0,0,0,1-3.3,47.36,47.36,0,0,0,.1-7.9v0a.57.57,0,0,0,.13-.27,8.73,8.73,0,0,1,.31-1.17,5.69,5.69,0,0,1,.38-.83.07.07,0,0,1,0,0,.8.8,0,0,0,.3-.31,6.59,6.59,0,0,0,.52-3v-.34a14.69,14.69,0,0,0-.57-4.36,10.75,10.75,0,0,1,1.19-.68l.27-.12a3.48,3.48,0,0,0,1.26-.81,2.18,2.18,0,0,0,.38-1.59v-.34a4.81,4.81,0,0,1,.79-1.84c.16-.28.32-.54.45-.81a1.51,1.51,0,0,1,.13-.22,2,2,0,0,0,.45-1.32,6,6,0,0,0-.4-1.22,4.32,4.32,0,0,0-.59-1,2.53,2.53,0,0,0-.41-.37c-.09-.07-.23-.18-.29-.24a5.55,5.55,0,0,1-.32-1.64,3.25,3.25,0,0,1,.63-1.89,7.8,7.8,0,0,0,.39-.71,9.8,9.8,0,0,0,.77-2.29c.06-.26.12-.55.18-.9v-.07l0-.12a20.64,20.64,0,0,0,1.63-2.1,13.44,13.44,0,0,0,1.23-2.23l.07-.14A3.47,3.47,0,0,0,118.06,55.23Z"/><path class="cls-2" d="M33.32,116.84c-1.64,2.29-3.77,4.58-6.72,4.26a5.91,5.91,0,0,0-.16-2.95c-.16,1.31-1.31,2.13-1.8,3.11-.49-2.46-1-6.06-3.28-7.7-2.12-1.47-4.91-1.14-7-2.78h0a7.32,7.32,0,0,0-1.8-6.55c-2-2-3.6-3.11-4.75-5.56a19.17,19.17,0,0,0-1.63-3.12h0c1.47-3.93,3.44-10-1.48-12.44A10.51,10.51,0,0,1,5.15,80s11.79,1.31,13.1,1.64S29.06,87.2,29.06,87.2Z"/><path class="cls-3" d="M5.1,80a12,12,0,0,0-.56,2.58c-.08.77.15.82.74,1.23a5.19,5.19,0,0,1,2.14,3.56C7.87,90.08,6.9,93,6,95.51a.16.16,0,0,0,0,.16c1,1.12,1.4,2.72,2.15,4a14.23,14.23,0,0,0,2.54,3A13.46,13.46,0,0,1,13.58,106a6.8,6.8,0,0,1,.58,4.79.18.18,0,0,0,.08.19c2.3,1.69,5.59,1.26,7.66,3.28,1.81,1.79,2.13,4.72,2.6,7.09a.14.14,0,0,0,.26,0c.59-1.09,1.59-1.87,1.81-3.14h-.26a6.48,6.48,0,0,1,.16,2.87.14.14,0,0,0,.13.17c3,.26,5.25-2,6.79-4.35a.09.09,0,0,0-.14-.1c-1.67,2.14-3.66,4.44-6.65,4.18l.13.17a6.71,6.71,0,0,0-.16-3c0-.12-.24-.14-.26,0-.22,1.25-1.21,2-1.79,3.08l.25,0c-.66-3.32-1.21-7.06-4.71-8.5a22.51,22.51,0,0,0-2.91-.84,12.12,12.12,0,0,1-1.63-.57c-.23-.11-.46-.24-.68-.37s-.29-.57-.25-.94a7.57,7.57,0,0,0-1.49-5.25c-1.34-1.73-3.2-3-4.45-4.77A16.27,16.27,0,0,1,7.18,97.1a7.42,7.42,0,0,0-.74-1.39c-.22-.33.18-1,.3-1.31,1-2.82,2.06-6.12.68-9a5.38,5.38,0,0,0-1.69-2c-.42-.32-.93-.32-.91-.88A9.89,9.89,0,0,1,5.21,80c0-.08-.09-.11-.11,0Z"/><path class="cls-4" d="M108.31,78.2l-2.85,1.2,2.19-23.63c-.22-.88-2.62-9.17-3.93-10.05S91.5,40.05,86.91,39.17s-17.25-1.31-21-1.74S48.49,36.77,43,38.74,30.15,46.38,28,49.65s-7,15.94-7,15.94L10.72,83.44a96.25,96.25,0,0,0,1.47,11.62c1,4.26,4.59,10.15,4.59,10.15,1.8,2.13,6.06,3,8.84,2.46a10.89,10.89,0,0,1,2.13,4.42c.65,2.78,2.13,12.12,3.93,15.56S49.2,143.2,55.91,148c0,0,5.08,4.75,17.85,4.58s16.7-8.84,16.7-8.84,4.26-8.18,6.55-11.62a30.81,30.81,0,0,0,4.91-12.61c.6-4.36,1.88-8.6,2.41-13,.11-.86.18-1.73.23-2.6a9.5,9.5,0,0,0,2.6-3.1c1.15-3.11.65-7.2.82-10.48l.16-.32a7.33,7.33,0,0,1,1-2.62A14.73,14.73,0,0,0,108.31,78.2Z"/><path class="cls-5" d="M105,100.79a12.2,12.2,0,0,0,1.64-5.4c.16-3.11.16-5.57.16-5.57l1.64-3.93L108.31,83a23.07,23.07,0,0,0-3.12,9.66s.33,2.78-.65,3.76Z"/><path class="cls-6" d="M75.72,111.11c-8,0-14.57,4.91-14.57,11s6.52,11,14.57,11c7,0,12.78-3.68,14.23-8.59a20,20,0,0,1-2.24-8.62A16.33,16.33,0,0,0,75.72,111.11Z"/><path class="cls-7" d="M24.45,80.85c1.65,5.89,2,14.87,2,14.87l2.95,14.73-.76,5.36c5.76,7.36,12.77,11.11,17.54,8.69,6.16-3.14,6.21-15.41.11-27.42C40.3,85.32,30.64,78.19,24.45,80.85Z"/><path class="cls-8" d="M89.62,101.38a41.33,41.33,0,0,0-1.91,14.46,9.17,9.17,0,0,1,2.58,6.24,8.61,8.61,0,0,1-.34,2.38,7.93,7.93,0,0,0,4.49,3.9,7.36,7.36,0,0,0,4.56-.15l.14-2,4.58-17.35,1-6.23-.65-14.08,1.75-7C99.77,82.33,93,90.35,89.62,101.38Z"/><path class="cls-9" d="M31.68,127.65c1.8,3.43,17.52,15.55,24.23,20.3,0,0,5.08,4.75,17.85,4.58s16.7-8.84,16.7-8.84,4.26-8.18,6.55-11.62a30.81,30.81,0,0,0,4.91-12.61c.6-4.36,1.88-8.6,2.41-13,.11-.86.18-1.73.23-2.6a.46.46,0,0,0,.07-.07l-.25-.46c-.66,3.49-4.37,9-5.68,12.88s-4.15,12.22-4.15,12.22c.22-3.71.44-8.07.44-8.07l-2.18-1.53s-1.31.87-1.75.22a6.46,6.46,0,0,0-3.28-1.75c-1.52-.44-5.45-2.18-6.76-2.18s-3.71,2.4-5.24,2.84-3.06-2-5.24-2.41-4.37.44-6.77,1.1a49.27,49.27,0,0,1-6.33,1.09c-1.53.22-1.53,1.74-3.06,1.09s-2.18.22-3.49,2.18-2.84,7.86-2.84,7.86-3.93-5-5.46-7.2-12.44-15.29-12.44-15.29l-3.71-2.18a36.36,36.36,0,0,1,1.31,7.21l-.11.23c0,.14.07.28.11.42C28.4,114.87,29.88,124.21,31.68,127.65Zm21.61.32a5.2,5.2,0,0,1,3.44-3.11c2.46-.49,7.53-2.29,9-2.78s5.89,0,7.53,0a2.66,2.66,0,0,0,2.29-1.64s1.14,1.47,2.13,1.64,3.27-.17,4.42.33,7.86.49,8.67,1,1.48,2.13.66,4.09c0,0-2.78,3-3,4.1s.17,7.2-5.73,7.36c0,0-4.25,2.3-7,2.3s-8.84-1.48-8.84-1.48-5.73.82-8-2.95-.82-3.6-3.6-5.73C55.26,131.08,53.13,129.94,53.29,128Z"/><path class="cls-10" d="M23.16,102.27s-4.42.49-6.05-2a22.38,22.38,0,0,1-2.95-7.69,41.11,41.11,0,0,0-1.47-4.92H11.38s-1.31-3.43.16-4.42,5.57-1,5.57-1L19.56,88s1.31,4.26,2.13,5.08a2.92,2.92,0,0,1,.82,3C22.18,97,21.85,99.16,23.16,102.27Z"/><path class="cls-11" d="M11.05,85.73s3.44.57,3.68.9-.57,4.5.57,7a27.89,27.89,0,0,1,.25-4.91,2.51,2.51,0,0,1,2.54,2.13s-2,4.5-.74,6.87c0,0,.25-4,1.15-4.33s2.13,2.29,2.13,2.29a3.42,3.42,0,0,0,1.72,4.09s-.66-2-.33-2.46,1.06-2,.74-2.62-1.23-2.21-1.23-2.21a33.08,33.08,0,0,1-2-5c-.08-1-2.13-2.78-2.13-2.78l-6.38-1Z"/><path class="cls-12" d="M26.6,83.6s1.31-6.88,4.26-9.17,7.69-4.09,9.33-11,3.93-15.88,10.64-18S69.34,45,69.34,45s6.87,1.31,10.31.33,11.3.65,11.3.65,9,2.46,7.7,24.4l2.94,3.76s3.28,2.46,3,5.9L106,75.58l-1-8.19s-.49-16.21-1.47-16.86-5.08-5.24-7-6.22-8.19-4.75-11-4.92-14.9-.32-19-.32S52.31,39.39,49,40.54s-12,7-12,7S31.51,56.91,30.37,59s-4.59,13.1-4.91,14.25A26.7,26.7,0,0,0,25,77.22Z"/><path class="cls-13" d="M35.44,84.91s-7.2-3.93-3.6-8.84c0,0,7.37-3.77,10.81-3.44S61.8,77.54,61.8,77.54l2.62-.32,1.81-1.31s.65,8.51-6.55,11l-6.55-1-11.63.17Z"/><path class="cls-14" d="M80.31,87s-.82-7.53.82-10.81c0,0,2.12,2,4.09,1.15l7.37-3.11,4.74-1.48,3.44,1.15,2.62,2.13s.66,6.88-2.62,8.84l-4.25,1.31-5.9.33-5.73-.33-2.62.33Z"/><path class="cls-15" d="M63.22,103.58A23.9,23.9,0,0,0,67.7,92.77c.18-1.66.53-3.87-.12-5.46-.89-2.18-3.74-.09-5,.88A36.09,36.09,0,0,0,59,91.29a30,30,0,0,0-3.26,3,7.56,7.56,0,0,0-1.53,3.25,6.91,6.91,0,0,0,.28,4,14,14,0,0,0,2,2.81c1.38,1.77,3.09,3.37,4.54,5.12-.46-.55.18-2.76.49-3.3C62,105.31,62.7,104.45,63.22,103.58Z"/><path class="cls-16" d="M85.93,104.23c-.38-1.15-2.06-2-2.76-3-.85-1.25-.72-2.52-1-4-.43-2.67-1-5.13-1.54-8.48,2.26,2.74,6,4.32,7.85,7.38,1.63,2.72,1.91,8.62-1.51,10.26Z"/><path class="cls-17" d="M46.2,90.81s9.16-1.53,11.13-3.17l1.86.55A25.73,25.73,0,0,1,46.2,90.81Z"/><path class="cls-18" d="M91.39,90.81s-7.09-1.53-8.61-3.17l-1.44.55S86.07,91.46,91.39,90.81Z"/><path class="cls-19" d="M69.53,103.35a14.93,14.93,0,0,0,.34,1.72c.74,2.85,2.66,6.51,6.12,6.37,5.25-.22,6.34-3.06,6-8.41S79.82,91.79,79.49,89.5a62.43,62.43,0,0,1-.11-7.65l-9.28.55a67.56,67.56,0,0,0-.44,9.72C69.85,95.84,69,99.64,69.53,103.35Z"/><path class="cls-4" d="M69,101.18s6.87-3,13.32-.55l-.11-1.31a24,24,0,0,0-13.54.76Z"/><path class="cls-20" d="M60.93,108.49c1.18,3.36,6.65-2.75,4.26-5.13-1.23-1.22-2.21.5-2.81,1.44A11.84,11.84,0,0,0,61,108.27Z"/><path class="cls-21" d="M86.15,104.89a6.17,6.17,0,0,1,.87,3.38c0,1.06-.35,2.49-1.5,1.29a5.52,5.52,0,0,1-1-3.36c-.05-.93.62-3.17,1.64-1.53Z"/><path class="cls-22" d="M27.75,95.39l-1.64,4.26c.33,9.82-2.95,7.2-2.95,7.2s0,.34-.05.93a10.78,10.78,0,0,0,2.51-.11,10.89,10.89,0,0,1,2.13,4.42c0-.14-.07-.28-.11-.42l.11-.23a36.36,36.36,0,0,0-1.31-7.21l3.71,2.18s10.92,13.1,12.44,15.29c.42.59,1,1.38,1.64,2.23-2.16-5.43-4.5-10.6-6.33-12.82C33.32,105.54,27.75,95.39,27.75,95.39Zm76.79,5.16c-.66,3.93-6.71,13.51-6.71,13.51A72.29,72.29,0,0,1,94.58,128l0,.51s2.84-8.29,4.15-12.22,5-9.39,5.68-12.88l.25.46a12.16,12.16,0,0,0,1.65-1.64C105,102.28,104.54,100.55,104.54,100.55Z"/><path class="cls-23" d="M50.34,140.91s-2.84-8.78-6.11-17c-.64-.85-1.22-1.64-1.64-2.23-1.52-2.19-12.44-15.29-12.44-15.29l-3.71-2.18a36.36,36.36,0,0,1,1.31,7.21l-.11.23c0,.14.07.28.11.42.65,2.78,2.13,12.12,3.93,15.56S49.2,143.2,55.91,148c0,0,2.53,2.36,8.51,3.7a5.16,5.16,0,0,0-.65-.26C58.86,149.75,50.34,140.91,50.34,140.91Zm54-37.55c-.66,3.49-4.37,9-5.68,12.88s-4.15,12.22-4.15,12.22l0-.51c-1.6,5-3.42,9.56-4.61,12.63a33.42,33.42,0,0,1-5,8.88,15.16,15.16,0,0,0,5.49-5.77s4.26-8.18,6.55-11.62a30.81,30.81,0,0,0,4.91-12.61c.6-4.36,1.88-8.6,2.41-13,.11-.86.18-1.73.23-2.6a.46.46,0,0,0,.07-.07Z"/><path class="cls-24" d="M70.54,115.58c2.18.44,3.71,2.84,5.24,2.41s3.93-2.84,5.24-2.84a5.74,5.74,0,0,1,1.41.28,12.72,12.72,0,0,0,1.42-1.7c1.31-.33,2.19-2.18,2.19-2.18-1.2-1.86-4.26-1.86-4.26-1.86-2.07,3.71-5.68,3-7.75,2.62s-3.6-2.51-6.22-2.73-5.9,1.53-5.9,1.53a3,3,0,0,0,1.42,2A9.1,9.1,0,0,0,66.08,116,9.67,9.67,0,0,1,70.54,115.58Z"/><path class="cls-25" d="M82.43,115.43a5.74,5.74,0,0,0-1.41-.28c-1.31,0-3.71,2.4-5.24,2.84s-3.06-2-5.24-2.41a9.67,9.67,0,0,0-4.46.43,16.2,16.2,0,0,0,9.15,3C78.4,119,81,117,82.43,115.43Z"/><path d="M66,111.22a2.82,2.82,0,0,0,4,.76A6,6,0,0,0,66,111.22Zm14.74.54-.44.66c2.51,1.09,3.6-.55,3.6-.55A3.61,3.61,0,0,0,80.69,111.76Z"/><path class="cls-26" d="M61.29,109.55c-.64-2.22.77-4.41,2-6.12,0,0,0-.07-.06,0-1.5,1.69-2.72,3.92-2.28,6.25s2.73,3.62,4.75,4.46c0,0,.09-.06,0-.08C63.86,113.11,61.91,111.66,61.29,109.55Zm9.76,3c-1.55-1.55-5.21-2.5-6.83-.62a.05.05,0,0,0,.08.07c1.8-1.62,4.86-.31,6.62.71A.1.1,0,0,0,71.05,112.51Zm13.37-.28a3.36,3.36,0,0,0-3.34-.76,10.71,10.71,0,0,0,1.56-2.91,13.81,13.81,0,0,0,.33-5.83c-.21-2-.49-4-.81-6s-.77-4.18-1.15-6.27a57.83,57.83,0,0,1-.8-6.83.07.07,0,0,0-.14,0c-.16,3.6.8,7.27,1.44,10.79.35,1.88.55,3.77.82,5.65a30.42,30.42,0,0,1,.46,6,10.49,10.49,0,0,1-4.28,7.56A6.3,6.3,0,0,1,74.9,115a4.7,4.7,0,0,1-3.71-2c0-.08-.18,0-.12.09,2.94,4,7.13,2,9.68-1.2a.2.2,0,0,0,.13,0,3.34,3.34,0,0,1,3.51.38S84.44,112.26,84.42,112.23Zm1-10.46a0,0,0,0,0-.07,0c0,2.23,1.65,4,1.65,6.31a7.22,7.22,0,0,1-3.27,5.77s0,.09,0,.07a6.86,6.86,0,0,0,3.56-5.14C87.72,106.24,85.88,104.16,85.42,101.77Z"/><path class="cls-27" d="M107.89,90.31c-.31,2.35,0,4.75-.26,7.11a15.48,15.48,0,0,1-.27,1.81c-.1.52-.37,1-.43,1.56a3.77,3.77,0,0,1-1.07,1.71,13,13,0,0,1-1.18,1.17c0-.72.06-1.45.07-2.18,0-4.47-.74-8.93-.06-13.38l.09-.56c0-.1-.14-.15-.16,0-.7,3.37-.34,6.8-.17,10.2a57.29,57.29,0,0,1-.13,7.86,70,70,0,0,1-1.43,8c-.54,2.52-.89,5.07-1.4,7.59a30,30,0,0,1-2.37,6.94,52.87,52.87,0,0,1-2.92,5c-.88,1.42-1.7,2.86-2.5,4.31-1.15,2.06-2.26,4.13-3.35,6.22A14.1,14.1,0,0,1,88.76,146a17.19,17.19,0,0,1-5.93,4.49c-3.75,1.76-7.91,2.05-12,1.87a33.32,33.32,0,0,1-10.55-2.09A15.49,15.49,0,0,1,56.15,148c-1.65-1.36-3.48-2.54-5.19-3.82q-4.26-3.21-8.42-6.55c-2.51-2-5-4.07-7.35-6.27a13.93,13.93,0,0,1-3.87-4.8,55.5,55.5,0,0,1-2.52-9.84c-.58-2.93-.92-6-2.65-8.53a6.41,6.41,0,0,0-.45-.58c-.1-.12-.61,0-.67,0a10.79,10.79,0,0,1-1.27,0,11.37,11.37,0,0,1-5.36-1.32,4.93,4.93,0,0,1-2-2.08c-.71-1.24-1.38-2.5-2-3.79a28.82,28.82,0,0,1-2-5.06,39.42,39.42,0,0,1-.9-5.06c-.3-2.3-.53-4.62-.69-6.94,0-.1-.16-.1-.16,0,.17,2.54.42,5.09.76,7.62a34.62,34.62,0,0,0,1,5,32,32,0,0,0,2.1,5.1c.61,1.24,1.28,2.46,2,3.66a5.34,5.34,0,0,0,2.42,2A12,12,0,0,0,24,107.92c.29,0,1.5-.24,1.64-.08a10.31,10.31,0,0,1,1.05,1.66A16.45,16.45,0,0,1,28,114.06c.31,1.58.61,3.17.94,4.75.62,3,1.17,6.26,2.62,9,.93,1.72,2.72,3.14,4.15,4.43,2.45,2.23,5,4.33,7.61,6.4,4.18,3.35,8.55,6.44,12.78,9.71,4,3.13,9.75,4.05,14.7,4.31,6.46.33,13.12-1,17.66-5.93,2-2.2,3.21-5.12,4.63-7.72.83-1.5,1.66-3,2.53-4.47s1.84-2.88,2.69-4.35A32.06,32.06,0,0,0,101,124a58.82,58.82,0,0,0,1.49-7.31c.49-2.58,1.11-5.12,1.57-7.7a43.92,43.92,0,0,0,.59-5.11,11,11,0,0,0,2.37-2.58,7.14,7.14,0,0,0,.93-3.08,47.72,47.72,0,0,0,.1-7.93C108.07,90.19,107.9,90.2,107.89,90.31Zm.53-12.18c-.07-.14-.27,0-.24.1.22,1,.58,1.9.8,2.87a14.78,14.78,0,0,1,.32,3.32c0,1-.35,2-.39,3a3.7,3.7,0,0,1-.43,1.11,7,7,0,0,0-.41,1.49c0,.09.12.13.14,0a9.35,9.35,0,0,1,.33-1.26,7.17,7.17,0,0,1,.41-.89c.14-.28.25-.22.36-.39a7.45,7.45,0,0,0,.45-3A13.66,13.66,0,0,0,108.42,78.13Z"/><path class="cls-28" d="M108.25,82.92a23.65,23.65,0,0,0-2.57,6.61c-.15.58-.28,1.16-.39,1.75-.05.26-.1.52-.14.78s-.18.41-.19.62c0,1.31.44,2.48-.55,3.56a.18.18,0,0,0,.26.26,2.84,2.84,0,0,0,.8-2.54,8.28,8.28,0,0,1-.13-1.85c.08-.62.21-1.24.34-1.86A23,23,0,0,1,108.36,83c0-.07-.07-.13-.11-.06Z"/><path class="cls-29" d="M22.92,95.86c.49-1.41-.79-2.24-1.41-3.34a48.17,48.17,0,0,1-2-5,12.4,12.4,0,0,0-2.21-3.62,3,3,0,0,0-.45-1.71c-.09-.12-.27,0-.27.11a4.57,4.57,0,0,0,.16,1,.25.25,0,0,1,0,.08l-.12-.12a.07.07,0,0,0-.1.11c.09.09.17.2.26.3a8.83,8.83,0,0,1,0,1.26,5.75,5.75,0,0,1-.92,3c-.08.13-.51.43-.49.61a11.48,11.48,0,0,1-.17,2c-.1,1.4,0,2.81,0,4.2a0,0,0,1,0,0,0c0-1.4,0-2.8.07-4.2a3.09,3.09,0,0,1,.64-2.1,3.33,3.33,0,0,0,.75-1.14,7.35,7.35,0,0,0,.55-2.62c0-.13,0-.27,0-.41a22.38,22.38,0,0,1,2.86,5.85,8.81,8.81,0,0,0-1.71.45c-.43.12-.49.17-.67.59a13.21,13.21,0,0,0-.8,3.1c-.23,1.74-.21,4.13,1.38,5.25,0,0,.05,0,0,0-1.53-1.26-1.45-3.58-1.2-5.36a12.34,12.34,0,0,1,.62-2.48c.13-.37.15-.6.51-.66.63-.1,1.21-.4,1.86-.45a.28.28,0,0,0,.11,0c.28.74.57,1.48.89,2.22a13.45,13.45,0,0,0,1.13,1.69c.54.87,0,1.75-.32,2.59a3.28,3.28,0,0,0,0,2,10,10,0,0,0,1,2.85h0a13.74,13.74,0,0,1-.89-3.16C22,97.71,22.63,96.68,22.92,95.86Z"/><path class="cls-30" d="M58.86,126.66s7.37,6.39,12.28,7.86A23,23,0,0,0,81.62,134a15.75,15.75,0,0,0,2.78-3.93c1-2.13,5.24-5.24,5.24-5.24a49,49,0,0,1-5.4.82c-1.31,0-8.52-.33-9-.16s-8.35.32-8.35.32Z"/><path class="cls-31" d="M81.45,132c.92-.44,2.27-1.56,2.13-2.64-.16-1.31-1.68-1-2.82-.91a56.21,56.21,0,0,1-8.15.47c-1.43-.07-7.67-.44-5.61,2.14,1,1.19,4.07,1.89,5.61,2.06A17,17,0,0,0,81.45,132Z"/><path class="cls-32" d="M84.24,125.68c-1.31,0-8.52-.33-9-.16s-8.35.32-8.35.32l-8,.82s.77.67,2,1.62c1.9-.1,11.41-.6,15.38-.31,4.34.32,5.69-1.4,10.53-.69a34.45,34.45,0,0,1,2.9-2.42A49,49,0,0,1,84.24,125.68ZM76.38,134c-4.1.33-9.34-1.47-9.34-1.47l0,0a19.49,19.49,0,0,0,4.12,1.92A23,23,0,0,0,81.62,134a17.7,17.7,0,0,0,1.66-2l0-.11A16.13,16.13,0,0,1,76.38,134Z"/><path class="cls-32" d="M91.11,123.39s-3.27,1.8-5.56,1.64-3.57-2.19-5.08-2.3A7.17,7.17,0,0,0,76.21,124s-2.78-1.8-5.07-1.31-5.73,2.79-9.5,3.11a18.37,18.37,0,0,1-6.71-.65c5.66,3.72,13.09.25,19.11,1.59l.37.37a12,12,0,0,1,2.46.17,3.57,3.57,0,0,0,1.78-.82h0C83.58,125.35,87.18,127.32,91.11,123.39Z"/><path class="cls-33" d="M74.27,126.73a11.3,11.3,0,0,0-4.41-.4c-1.63.07-3.25.27-4.88.43-3.42.35-7,.28-10.05-1.58,0,0,0,0,0,0,2.78,1.84,6.06,2,9.29,1.74,1.71-.11,3.43-.27,5.14-.32a38.14,38.14,0,0,1,4.9.3C74.36,126.93,74.37,126.77,74.27,126.73Zm16.8-3.42a11.59,11.59,0,0,1-3,2,9.71,9.71,0,0,1-1.41.36,11.49,11.49,0,0,0-1.45.13A13.52,13.52,0,0,1,82,126a18.81,18.81,0,0,0-2.89.33,10,10,0,0,0,.9-.94.07.07,0,0,0-.09-.11c-.7.44-1.29,1-2,1.44-1.07.62-2.34.35-3.52.35a.08.08,0,0,0,0,.15,4.75,4.75,0,0,1,2.35.27c.21.14.77-.1.95-.18a4.77,4.77,0,0,0,1.23-.81,20.92,20.92,0,0,1,3.53-.36c1,0,2.17.15,3.2,0a8.52,8.52,0,0,0,5.51-2.72C91.23,123.38,91.16,123.24,91.07,123.31Z"/><path class="cls-34" d="M114,61.66s3.11-3.27,3.44-6.22c0,0-.82-2.29-2.3-2.78l.17-1.31a2.72,2.72,0,0,0-1.81-1.64c-1.47-.49-2-4.26-.65-7.53s-.16-7.37-.16-7.37a5,5,0,0,1-2.46,0c-1.47-.33-2.62-1.47-2-3s.81-2.62.32-3.44-2-.82-2-.82l-.49-.65a7.92,7.92,0,0,1,0-3.93c-1.64-1.8-3-3.93-5.73-3.93a19.08,19.08,0,0,0-.17-3.11l-.33-.66a14.14,14.14,0,0,0-3.6-.65c-1.31-2.78-1.47-5.4-5.24-3.93-1.47-2.78-1-2.95-4.25-3.93a2.09,2.09,0,0,0,.16,1c-2-1-2.62-2.94-4.42-4.09-1.47-1-3.93-1.15-5.73-1.15.49.49.65,1.48,1,2-2,.33-2.62-2.29-4.26-2.95-1.47-.65-2.94-.49-4.42-.65a4.05,4.05,0,0,1,.66,1.14c-2.62.82-3.28-2.78-6.39-.82.17.33.17.66.33,1a2.24,2.24,0,0,1-2.62-.33l-1-.17c-2.29-2.12-8.19-.16-11-.65v.16c.16.17.33.49.49.66a10.76,10.76,0,0,1-4.59,0c-2.62-1-2.29-1.48-5.4-.66.16.17.49.66.66.82-.5-.16-1.31-.16-1.81-.33a4,4,0,0,1-2,3.12c-.65.49-2.29-.17-2.62.16-1,.65-.82,3.11-.82,4.58l-.33.49a30.28,30.28,0,0,1-4.09-1.8c-1.31,2.13-3.93,1.31-5.24,3.28-1,1.47-.16,5.07-2.78,4.26.33.16.65.65,1,1-1,.49-2.29.49-3.11,1-1.47.82-1,1.47-1.8,2.29-1.64,2-2.46.66-4.42,2l-1,.82c-1.15,1.63,0,4.42-2,5.24a3.76,3.76,0,0,1-.33,5.56c-1.63,1.15-3.76.49-1.8,3.28-4.42-.17-.82,11.3-5.4,11.13a8.17,8.17,0,0,0,.82,3.44l-.16,1.15c1.14,1.47-.33,1-.82,2s-1.15.33-1,2.13c0,1,1.14,2.29,1.8,3-1.48.65-1.48,2.13,0,2.62-.49.81-.82,2.12-1.8,2.62a8,8,0,0,1,2.94,3.27c-2.62,1.64-1.14,2.29-.49,4.58.49,1.48,0,3.28.17,4.59l.32,1.15a17.62,17.62,0,0,0,5.4,5.07c2,1,4.1.66,5.9,1.48,2.45,1.3,2.13,2.45,5.24,2.94,2,.33,2.78.17,3.76,2.46l.66,2.45c1,3.44.16,8.52,2,11.63L30.53,107s-1-4.26-1.47-7-1-5.57-1.64-9-1.8-10,1.47-15.72A16.13,16.13,0,0,0,32.17,71c.82-2,.16-3.93,1.31-6.55s2.13-5.23,2.13-5.23a7,7,0,0,0,2.45-2.79l.33-2.13s.33-.82,1-2.62l1.81-1.14-1.81-1A19.27,19.27,0,0,0,43,47.74,48.9,48.9,0,0,1,48.71,45l-.82-.82A33.1,33.1,0,0,0,54,43.32c2.29-.65,5.4-2.13,7.85-1.63a61,61,0,0,1,7.37,2.45l-1.47-1.8s1.64.16,3.27.49A12.69,12.69,0,0,1,74.9,45s2.79-.65,3.93-2l1.31-.66L79,43.81s2,1,3.11-.16a8.09,8.09,0,0,1,2.62.16,9.63,9.63,0,0,0,7.37.5l-1,.81a17.38,17.38,0,0,1,4.59,1.15c1.63.82,4.25,4.58,4.75,9.5s.65,11.46.65,11.46,3.11,6.71,3.11,9.33-1,8-.82,9a23.71,23.71,0,0,1,1,7,15.82,15.82,0,0,0,1.31-4.92c0-2,.32-5.07,2.29-7s3.76-2,4.09-2.78-.16-1.31.49-2.46S114,72.47,114,72.47a4.34,4.34,0,0,0-1.64-2.62s-1-2.46.16-3.93A10.44,10.44,0,0,0,114,61.66Z"/><path class="cls-35" d="M38.08,39.56c-.18-.92-2-2.92-2.59-3.64-.9-1-1.78-.93-2.84-1.64a9.81,9.81,0,0,1-2.9-3.11c-.48-1.09-.18-2.17-.85-3.07-1-1.31-2.69-2-4.13-2.94a16.61,16.61,0,0,1,3.8,4.25c.57,1.12.6,2.12,1.51,3.23a30.78,30.78,0,0,0,2.42,2.82c.75.73,1.79,1.15,2.29,2.13a8.75,8.75,0,0,1,.48,2.66c.4,2.43,2.37,3.69,3.12,5.86l.82.49c0-1.33-.84-2.1-1.27-3.27C37.39,41.84,38.31,40.77,38.08,39.56ZM24.77,25.16c-.63-.55-1.25-1.05-1.75-1.46A6.45,6.45,0,0,0,24.77,25.16ZM82.06,41.65a4.21,4.21,0,0,0-.12.48Zm18.18-5.9c.08-1.17,1.36-2.42,1.72-3.56s.28-2.14.62-3.24c.44-1.48,2.5-3.8,2.42-5.25,0-.74-1.07-1.82-1.32-2.71-.08-.28-.15-.55-.21-.83a4.71,4.71,0,0,0-3-1.07c0-.78,0-1.66-.09-2.49-.22,1.29-.63,2.65-.24,3.64.28.71.9,1.09,1.15,1.79a18.64,18.64,0,0,1,.45,2.64c.37,2.54-.48,5.3-1.32,7.69a28.08,28.08,0,0,0-.76,3.14c-.46,1.92-2,3.08-2.63,4.88L94.88,44c1.76-.92,4.82-3.87,5.57-5.73C100.94,37,100.16,36.89,100.24,35.75Zm12.16,34.1a6.09,6.09,0,0,1-.38-2.42,2.1,2.1,0,0,0-1.06.16c-.63.36-1.09,1.28-1.63,1.76-.88.79-3.3,3.29-4.41,3.28.94.48,5.83-1.9,4.49.78-.67,1.33-3.29,2.51-5.21,2.89a2.35,2.35,0,0,1,0,.26v.36a11.88,11.88,0,0,0,3-1c1-.53,2.34-2.24,3.31-.55a3.1,3.1,0,0,0,1.21-1.46c-.2,0-.35-.14-.56-.19-.18-1.36,1.49-1.91,2.54-2.39A3.52,3.52,0,0,0,112.4,69.85ZM20.54,49.71c3.52.65,6.89.47,10.11,2.4-2.54-2.77-6.45-1.86-9.57-3.42-2.9-1.45-5.54-4.1-8.56-5.22-2.12-.78-4.63-.16-6.71.34v1c.94,1.24,3.86,1.9,5.55,2.55-1-1.21-3.08-1.4-3.9-2.69C11.83,44.12,16.27,48.92,20.54,49.71Zm84.7,29.64c2,0,3.91-.92,5.88-1.12l.71,0a.9.9,0,0,0,.24-.32c.26-.64,0-1.08.21-1.78C109.53,76.3,107.89,78.63,105.24,79.35ZM102,59.71c2.73-.88,6.44-2.34,8.18-4.59,1.12-1.46,2.26-1.79,3.72-2.83A7.81,7.81,0,0,0,115.2,51a2.81,2.81,0,0,0-1.66-1.32c-.81-.27-1.32-1.55-1.4-3.18a9.54,9.54,0,0,0-2.23.88c-2.43,1.5-2.43,4.6-3.53,6.85-.94,1.92-2,1.69-3.93,1.5-1.13-.11-1.65,0-2,.34.06.63.11,1.28.16,1.94,1.81-.57,4-.79,5.24-1.9,1-.88,1.08-2.12,1.89-3.16,1.11-1.4,2-.89,3.5-1.25C109.47,55.93,105.7,57.7,102,59.71Zm7.81-17.83c0-1.27-.87-1.78-1.18-2.94a6.13,6.13,0,0,1,.06-3.29,3.8,3.8,0,0,0,2.53-.71,7.23,7.23,0,0,1-.92-.13c-1.47-.33-2.62-1.47-2-3s.81-2.62.32-3.44a1.52,1.52,0,0,0-.77-.59,6.93,6.93,0,0,1-.17,4.49,11.13,11.13,0,0,1-1.06,2c-.46.55-1,.55-1.4,1.22s-.25,2.41-.4,3.24a31.1,31.1,0,0,1-1.15,4.71,18.61,18.61,0,0,1-2.76,4.89c1.4-1.81,2.77-2.67,3.46-4.85.39-1.23,1.89-6.91,2.78-3.11s-2,6.16-3.89,8.84A14.22,14.22,0,0,1,99.9,52.9c.08.28.15.57.21.86,2.38-2.32,4.14-4.82,6.35-7.37C107.69,45,109.86,44.12,109.78,41.88Zm5.6,10.86a5.57,5.57,0,0,0-1,1.75c-.74,2.4-1.25,4.14-3.24,6a15.21,15.21,0,0,1-4.82,3.31c-1.43.44-3,0-4.16,1.15a30.06,30.06,0,0,0,6.66-1.85,16.46,16.46,0,0,0,3.31-2c1-.83,1.52-2.48,2.59-3.1,1.84,2.28-6.32,7.14-7.81,8,1.16,0,2.25-.78,3.38-1A3.56,3.56,0,0,1,112,64.8c.31.16.47.62.62,1A10.73,10.73,0,0,0,114,61.66s3.11-3.27,3.44-6.22C117.48,55.44,116.73,53.35,115.38,52.74Zm-48-11.93a3.71,3.71,0,0,0,.24-1.92A9.07,9.07,0,0,1,67.36,40.81ZM38.87,29.93c-.26-1.48.15-3-.85-4.25s-2.9-1.76-4.05-3-1.49-3-2.91-4c-2.46-1.66-6.22-1.12-8.56-3.2l-.12-.12c-.31.47-.8.69-1.67.42a3.84,3.84,0,0,1,.84.83,17,17,0,0,1,5,4.24c1,1.37,1.52,2.76,3.15,3.48s3,.54,4.06,2.38c.88,1.63.64,3.38,1.84,4.91s2.79,2,4.41,3C42.51,36.09,43.09,38.38,44,41a9.25,9.25,0,0,0-2.83-7.27A7,7,0,0,1,38.87,29.93ZM11.34,40.52c-.48-2.38,4.19-.87,5.28-.52A18.34,18.34,0,0,1,21,42.38c1.72,1.09,3.92.62,5.74,1.76s2.55,3.24,4.23,4.48c-1.42-2-2.21-5.28-4.73-6.73-2-1.16-4.55-.63-6.71-1.39-2.48-.87-4.9-1.28-7.37-2a10.39,10.39,0,0,1-5.45-3.78c-.4.33-.37.88.54,2.18-1.28,0-1.88.88-2.21,2.22a1.47,1.47,0,0,1,.74-.43C7.5,38.39,9.82,40,11.34,40.52ZM64.88,29.93c-.73-.78-2.45-1.44-3.39-2-1.27-.82-2.87-1.38-3.13-3.07-.22-1.42.63-2.71.51-4.09-.25-2.67-.7-6.23-3.29-7.41-1.75-.8-3.37-.86-3.77-3.07-.34-1.95-.3-2.79-2-4.13C48.58,5.1,46.79,4,46,2.52c-.08-.16-.15-.32-.22-.48a5.76,5.76,0,0,1-.72-.14c-2.62-1-2.29-1.48-5.4-.66.16.17.49.66.66.82a5.34,5.34,0,0,0-.91-.16c1.64,1.62,5.56,4,6.48,4.91,1.3,1.25,3,2,4.25,3.23S51.35,12.43,53,13.4s2.81,1.3,3.29,3.36c.32,1.37.62,2.62.95,4,.38,1.56-.32,2.69-.3,4.1s1.39,2.12,2.62,2.94A17,17,0,0,1,65.69,34a14.43,14.43,0,0,1,1.91,4.94c0-1.94-.66-3.54-1.33-5.59C65.92,32.26,65.62,30.73,64.88,29.93ZM53.42,17.17c-.83-1.22-2.77-1.45-3.9-2.21-1.52-1-2.3-2.72-3.47-4.06s-2.49-1.53-3.89-2.41c-2.1-1.32-1.3-2.74-2.09-4.67a8.29,8.29,0,0,0-1.51-2.09h0a4,4,0,0,1-2,3.12,1.23,1.23,0,0,1-.67.18A11.39,11.39,0,0,1,38.4,7.67c1.2,1.87,2,1.86,3.89,2.91,1.4.78,2.1,2.2,3.35,3.14,1.87,1.41,4.55,2,6.31,3.56,1.11,1,1,2.36,1.83,3.45s2,1.54,1.8,3.28c-.13,1.27-1.14,2-1.47,3.26a8.25,8.25,0,0,0,.33,4.21,11.76,11.76,0,0,1,.37-4.2c.48-1.36,1.16-2.14,1.14-3.61s-.57-2.07-1.31-3.31C54.05,19.36,54,18.08,53.42,17.17ZM46.58,28.58a7.51,7.51,0,0,0-.86-3.92c-.93-1.81-.79-3.42-1.14-5.37-.84-4.58-5-3.43-8.16-5.32a11.83,11.83,0,0,1-3.92-4,33.14,33.14,0,0,1-3.77-1.69,3.53,3.53,0,0,1-.36.48c.34,1.07-.19,2.25-.14,3.42.08,1.93,1.51,2.45,3.12,3.18,2.24,1,4.57,1.84,6.51,3.41,1.66,1.34,1.47,2.45,2.45,4.09.81,1.35,2.59,1.66,3.61,2.94s1,2.5,1.18,4.1c.3,2.89,3.27,4.49,3.77,7.48,0-1.55.17-3.47-.53-4.87C47.53,30.9,46.66,30.61,46.58,28.58ZM34.13,40.87c-.23-1.66,0-2.6-1.47-3.77-1.24-1-2.89-1.36-4.09-2.29-1.39-1.08-1.86-2.88-3.11-4.1-2.36-2.3-6.06-2-8-4.74s-3.57-3.12-6.33-2.61c-.62,1.51,0,3.6-1.31,4.51a25.41,25.41,0,0,1,3.09.06c1.73.19,2.09,1,3.27,2.12s2.23,1.18,3.56,1.65c3,1,3.85,3.95,6.39,5.57s5.25.33,6.54,3.43c.88,2.11,2.76,3.52,4.12,5.5a9.41,9.41,0,0,0-.71-1.56C35.34,43.34,34.33,42.34,34.13,40.87Zm46.09-7.71c1.43-2.76,4.26-4.45,5.33-7.36.48-1.3,1.14-1.67,1.79-2.77.34-.58.3-1.32.69-1.94a2.51,2.51,0,0,1,.19-.24c.64,2.17-.27,4.5-.38,6.75a14.48,14.48,0,0,1-3.09,7.84,11,11,0,0,0,4.4-7.38c.26-1.89,1.1-3.14,1.6-4.88.46-1.59-.53-3.26-.94-4.94A12.6,12.6,0,0,0,89.93,14c-.17-1.25,0-2.82-.29-4.09a8.37,8.37,0,0,0-1.51-2.7c-.35-.12-.76-.26-1.27-.41a2.09,2.09,0,0,0,.16,1,5.39,5.39,0,0,1-.74-.45.65.65,0,0,1,0,.13c.69,1.76,1.52,2.17,1.52,4.43,0,1.88.16,3.93.17,5.71s-.69,1.71-1.28,3-.23,3.24-2.17,1.73c-1.09-.84-1.17-3-1.35-4.22-.49-3.29,1.41-6.33-.32-9.37A28.81,28.81,0,0,0,80.11,5c-1-1.26-.87-1.68-.45-2.29a17.57,17.57,0,0,0-2.35-.17,8.52,8.52,0,0,0,.75,1.92c.75,1.34,2.11,2.39,2.78,3.81.59,1.24,3,9.1,1.28,10-2.13,1-3.29-6.26-3.9-7.06-.42-.55-1.15-.65-1.68-1.06a12.38,12.38,0,0,1-2-2.17C73.3,6.3,74.05,5.12,73.4,3.58A10.27,10.27,0,0,0,71.09,1C70.45,1,69.81,1,69.17.92a4.05,4.05,0,0,1,.66,1.14c-2,.61-2.81-1.23-4.41-1.4.51,1,4,2.44,4.75,2.91A6.23,6.23,0,0,1,72.73,7.3c.87,2.48,1.77,4.37.36,6.88,3,2.38,2.14,8.49,2.47,12,.36,3.8-2.55,7.52-2.14,11.51,1.13-2,4.12-4.5,4.27-6.79.09-1.47-.83-3.09-.82-4.71a46.36,46.36,0,0,0-1.63-10.88c-.45-1.9.09-4.8,2.16-2.31a11.81,11.81,0,0,1,1.76,3.85c.47,1.36,1.6,2.86,1.81,4.23.22,1.53-.28,2.82,0,4.42a17.75,17.75,0,0,1-.32,6.35C80.6,32.26,80.32,32.71,80.22,33.16Zm-50.67,30c-1.83.56-5.16-1-6.82-1.69,2.2-.23,4.05-1.46,6.11-2.12-1.64-.19-3.21,1-4.86,1-1.45,0-3-.49-4.54-.5A24.1,24.1,0,0,1,8.76,57.53,36.8,36.8,0,0,0,4.7,56.26c-.49-.18-2-1-3.05-1.51-.48.79-1.07.28-.91,2a3.1,3.1,0,0,0,.62,1.56c1.28.71,3.1.52,4.41.72a8.09,8.09,0,0,1,2.6.84,38.78,38.78,0,0,1-5.91-.14c-1.39.68-1.37,2.1.08,2.59-.32.52-.56,1.24-.95,1.82,1.46-.65,2.9-1.49,4.42-2,1.9-.68,3,.1,4.92,0,2.16-.06,4.12-.84,6.35-.82a14,14,0,0,1,6.09,1.31c2.17,1.16,4.45,3,7.13,1.28,1.23-.77,1.59-1.71,3.14-2.09.41-.11.75-.17,1-.23.28-.68.51-1.28.67-1.7-.91.36-1.84.88-2.68,1.31C31.6,61.76,30.64,62.84,29.55,63.18ZM20.83,75c-1.24-1-1.25-1.26-2.9-1.67-1.35-.33-2.18-1.16-3.45-1.69-2.62-1.1-5.37-.59-7.69-2.53C5,67.58,3.43,65.58,1.06,65.15a8.11,8.11,0,0,1,2.62,3.06l-.53.36c1.43.39,2.43,2,4,2.59,2.38,1,5.64.58,7.68,2.46C13.81,76,9.38,73.56,8,73s-3.13-.4-4.6-1c-.2-.08-.38-.17-.57-.26a9.33,9.33,0,0,1,.41,1.11c.45,1.37.07,3,.14,4.29,1.08.53,2.17,1.62,3.3,1.77,2.23.31,3.09,1.08,5.06,2.17s4,.69,6.23.94,3.67,2.16,4.75,4.1l1.8,1.31c-.95-1.71-2.17-4.68-3.79-5.86-2.38-1.71-5.6.25-8.17-.86-1.07-.46-1.79-1.54-2.81-2.09-1.51-.81-2.26-1.08-3.24-2.65a11.06,11.06,0,0,0-1.39-1.79,14.48,14.48,0,0,1,2.7-.18c1.19.16,2.4.73,3.61,1a9,9,0,0,0,4.43-.12c1.1-.28,2-.76,3.1-.34a14.27,14.27,0,0,1,5.56,4.07l.5,1c-.38-.78-.62-2.36-1.35-3.08S21.73,75.71,20.83,75Zm77-45.85c.59,1.17-.38,3.45-.76,4.51,1.72-2.39,4.28-9.13,2.11-11.9-.45,1.72-2.41,5.53-3.15,2-.3-1.43.16-3.23.16-4.74A17.15,17.15,0,0,1,97,14.7l-.64,0c-1.31-2.78-1.47-5.4-5.24-3.93h0A5.61,5.61,0,0,0,91.6,12c.39.67,1.19,1.12,1.53,1.82s.42,1.39.77,2A10.26,10.26,0,0,1,95.17,18c.85,2.73-.1,5.33-.74,8-.41,1.7-.32,2.4-1.83,3.38S91.26,30.44,90.49,32s-1.79,2-3.43,2.74c-3.31,1.43-4.22,3.66-5,6.88a8.77,8.77,0,0,1,4.14-5c.91-.37,2.22,0,3.08-.67s1.26-2.24,1.71-3.09a6.44,6.44,0,0,1,3.84-3.29c-.18.48-.36,1-.61,1.54-.65,1.4-1.44,1.7-2.25,2.78s-.94,2.32-2.2,3.35-2.75,1.6-3.57,3L85.06,42.5c2.32-1.63,5.42-3.43,7-6l-.29,0c.14-2.07,1.42-1.56,2.48-2.59s2.12-3.59,2.64-5.38C97.22,28.31,97.48,28.39,97.83,29.11Zm-96,25.32c1.67.78,5.53,1.21,6.59,1.3,1.31.11,2-.44,3.11-.62a9.23,9.23,0,0,1,3.81.62,23.35,23.35,0,0,0,7,1.35c2.08,0,4.55.07,6.32,1.28-2.32-2.34-5.4-1.62-8.33-2.09a13.72,13.72,0,0,1-4.87-1.61,30.28,30.28,0,0,1-3.91-2.3c2.13-.63,4.65-.1,6.86-.56a16.23,16.23,0,0,1,6.33-.45c-4.3-1.66-7.84.54-12.23.33-2.36-.12-4.84.06-6.88-1.32-1-.68-2-1.64-3.15-2.35a2.38,2.38,0,0,1-.61.06,8.34,8.34,0,0,0,.49,2.68,16.79,16.79,0,0,0,6.54,1.94c-1.69.25-3.37,1-5.27.63l-.78-.17C3.27,54,2.32,53.8,1.84,54.43ZM72.45,24.66c.29-1.83,1-3.09.12-4.92s-2.25-.65-2.91-2.12.06-3.27-.77-4.91c-.73-1.45-1.52-2.84-2.3-4.23-.61-1.09-.89-2.2-1.39-3.3-.4-.9-.6-2.56-1.1-3.25a1.26,1.26,0,0,0-.55-.38,4.87,4.87,0,0,0,.22.68,2.24,2.24,0,0,1-2.62-.33l-1-.17a3.94,3.94,0,0,0-2-.88A12.74,12.74,0,0,1,60.7,3.66c1.16,1.75,2.84,2.38,4.06,4,1.54,2,5.06,7,3.23,9.64-1.06-.62-1.32-1.9-2.09-2.76s-1.31-.64-2.62-1a3.88,3.88,0,0,1-2.58-1.81c-.44-.93,0-1.92-.82-2.65s-2-.81-2.82-1.59c-1-1-1.85-2-2.79-3A26,26,0,0,1,51.82,1.9a5,5,0,0,1-.48-.78,13.52,13.52,0,0,1-1.54,0C50.59,2.41,52.14,4.2,52.52,5c.68,1.46.62,3.24,1.91,4.26s3.12,1,3.9,2.78.58,2.23,2.66,3.11c1.55.66,2.95.67,4.22,2,.74.75,1.12,1.8,1.87,2.47a26,26,0,0,0,2.42,1.47c2,1.37,2,3.48,2,5.73a5.67,5.67,0,0,1-.7,3.25c-.52.84-1,.32-1.11,1.49s.94,3.28,1.19,4.58A10,10,0,0,1,71,40.84a3.23,3.23,0,0,1,.44,0,8.19,8.19,0,0,0,.39-4.07c-.26-1.41-1.12-2.63-.73-4.09.33-1.23,1.93-2.43,2-3.76S72.19,26.31,72.45,24.66Z"/><path class="cls-36" d="M36.4,38.3a7.72,7.72,0,0,0-1.64-2.43c-.88-.76-2-1.07-2.93-1.79,1,.93,2.67,1.5,3.43,2.72a14.12,14.12,0,0,1,.86,2.83c.37,1.06.81,2.12,1.23,3.15l.44.65a27.79,27.79,0,0,0-.22-2.84A6.92,6.92,0,0,0,36.4,38.3ZM29,29.13a1.78,1.78,0,0,0-1.27-1.53,13.57,13.57,0,0,1,1.05,1.64Zm-15.42,31c-2-.38-3.84-1.66-5.86-2.19-2.39-.62-4.92-.75-7-1.81a4.45,4.45,0,0,0,0,.59,2.36,2.36,0,0,0,.31,1,5.06,5.06,0,0,1,.53.05c2.55.34,4.88,0,7.36.94.62.23,2.25.76,1.57,1.56-.46.54-2.45.43-3.07.44-1.45,0-2.92-.17-4.36-.12-.54,0-1.07.07-1.61.12-.16.6.2,1.24,1.07,1.53-.1.16-.19.34-.28.52a38.11,38.11,0,0,1,4-1.29c1.66-.14,3.28-.25,4.95-.33s2.93-.5,4.41-.65a28.22,28.22,0,0,1,6.93.55,18.88,18.88,0,0,0-4.5-1C16.55,60.06,15,60.42,13.53,60.16Zm16.62,3.25-3.71.22C27.84,64.48,28.86,63.92,30.15,63.41ZM52.53,17,54,19.42A2.52,2.52,0,0,0,52.53,17ZM28.69,45.41A12.54,12.54,0,0,0,27.18,43c-.78-.81-1.33-.48-2.38-.68-.85-.16-1.29-.74-2.18-1a23,23,0,0,0-2.84-.57l.22.11A7,7,0,0,0,22.42,42a14.67,14.67,0,0,1,2.49.38A8,8,0,0,1,28.69,45.41ZM47.81,6.21C46.08,5,44.91,3.35,43.47,2l-1.64.11C42,3,43.47,4.33,44.15,5a12.87,12.87,0,0,0,3.17,2,12.14,12.14,0,0,1,4,3.12,8.29,8.29,0,0,0-1.43-2.61A14.35,14.35,0,0,0,47.81,6.21ZM43,9.67a7.65,7.65,0,0,1-2.4-2.15c-.91-1.09-1-2.85-1.86-3.82L37.35,5.34a41.85,41.85,0,0,0,3.06,3.71c.81.8,1.83.86,2.81,1.31,2,.89,3.57,3,5.34,4.27-.9-1-1.81-2-2.69-3.07A7.06,7.06,0,0,0,43,9.67Zm8.41-6.95.76,1C52.38,3.16,52.09,2.59,51.44,2.72ZM46.11,28.26a5.7,5.7,0,0,0-1-2.54A5.14,5.14,0,0,1,44,23.57c-.22-1.15.25-2.36,0-3.47-.3-1.33-2-2.82-3.15-3.51.55,1.12,2.39,3.77,1.28,5-1.07-.23-1.26-2.6-1.76-3.47a7.38,7.38,0,0,0-2.81-2.62c-1.37-.81-3.28-1.16-4.47-2.21-.88-.78-.65-2.32-1.2-2.92l-2.19-.44a18.7,18.7,0,0,1,.41,2.77c.26,1,.4.87,1.31,1.18a24.83,24.83,0,0,1,6.8,3.61,5.53,5.53,0,0,1,2.42,3.71c.27,1.34,1,1.66,1.94,2.4,2,1.48,2.65,3.39,3,5.74a13.88,13.88,0,0,0,2.49,5.44c-.37-1.59-1.51-2.82-2-4.32A12.32,12.32,0,0,1,46.11,28.26Zm-8,16.81.43,1C39.3,45.57,38.81,44.6,38.12,45.07Zm1.61-12a5.72,5.72,0,0,1-1.42-2c-.51-1-1.72-1.24-2.25-2.19-.65-1.17.73-1.45.75-2.39s-1.43-1.62-2.08-2.08a22.89,22.89,0,0,1-2.72-2c-.9-.85-1.43-1.9-2.51-2.55s-2.39-1.51-3.61-2.15L23.49,17a55.53,55.53,0,0,1,4.56,3.74c.76.63,1.07,1.6,1.77,2.12.94.71,2.54.49,3.58,1.1,1.29.75,1.35,2.1,1.79,3.44a20.22,20.22,0,0,0,1.1,3.35A7.88,7.88,0,0,0,38.91,33a15,15,0,0,1,4,4.11C42.35,35.29,41.06,34.27,39.73,33.09ZM22.62,76.29l1.31,1.09C23.84,76.75,23.24,76.09,22.62,76.29ZM94.8,15.71c.33.56.18,1.43.73,1.74l.11.11c.07-.65.64-1.87.31-2.49-.21-.39-1-.56-1.26-1-.76-1.15-.34-2.73-2.2-2.6a14.4,14.4,0,0,1,1.52,3A8.82,8.82,0,0,0,94.8,15.71ZM89,27.6a15,15,0,0,1,.63-3.05c.35-.93,1.33-2.75.88-3.83-.33-.82-1.34-.72-1.42-1.94-.06-.92.42-1.94.44-2.88a32.93,32.93,0,0,0-.3-3.83,4.22,4.22,0,0,0-.35-1.71c-.27-.55-.78-.92-.88-1.53l.22,2.07a28.1,28.1,0,0,0,.55,4.15,11.84,11.84,0,0,1-.76,5c1.17,0,1.35,1.89,1.22,2.66-.19,1.14-.09,2-.24,3.16s-.88,1.79-1.07,2.82c-.24,1.26-.56,2.53-.8,3.78a10.65,10.65,0,0,0,1.43-2.26A15.27,15.27,0,0,0,89,27.6ZM66.93,9.92c.82,1.49,2.33,4.1,2.19,5.86.32-2.18-.89-4.33-2.05-6.19-.6-1-1.34-1.81-2-2.73-.86-1.16-.85-2.33-1.19-3.69-.51.14-1.75.87-2.1.34l.59,1.28A18.16,18.16,0,0,1,66.93,9.92ZM11.56,39a11.29,11.29,0,0,1-4-1.9l-.31-.25,0,.06a1.8,1.8,0,0,0-1.66.85,52.45,52.45,0,0,1,5.29,2A4.4,4.4,0,0,0,11.56,39Zm89.65-7.5L99.9,34.59C100.35,34,101.78,32.33,101.21,31.53ZM18.58,81.42l-2.29-.11c2.83.06,4.51,1.65,6.23,3.67C21.45,83.14,21.05,81.47,18.58,81.42Zm83.61-56.13c-.16,1.71-.6,3.51-.66,5.23.46-1,.41-2.12.88-3.13s1.24-1.63,1.23-2.51c0-.39-.36-.77-.36-1.2s.37-.83.34-1.2c-.11-1.18-1.49-1.24-2.19-2.08l.22.65C101.77,22.52,102.34,23.79,102.19,25.29ZM14.87,74.43,18,73.89c-.8-.5-1.84-.74-2.73-1.31a6.56,6.56,0,0,0-3.48-1.07C12,71.64,17.1,73.78,14.87,74.43ZM5,67.91a7,7,0,0,0-2.2-1.09,8.68,8.68,0,0,1,.86,1.39l0,0A10.24,10.24,0,0,1,5.51,69.3a8.32,8.32,0,0,0,4.66,1.75l-1.52-.33C7,70,6.3,68.93,5,67.91ZM6.9,44.74l.87-.54a17.48,17.48,0,0,1,7,2.16c1.23.75,2.93,2,4.37,2.16-2.22-1.52-4-3.15-6.65-4C11.66,44.29,6.77,43.14,6.9,44.74Zm-.54,7C7.21,52,10,52,10,53.25s-4.1.81-7.06.42a1.46,1.46,0,0,1-.56.36c2,.11,3.94.56,5.84.65,1.21,0,2.17-.52,3.31-.55a9.75,9.75,0,0,1,3.6,1.09l2,.66c-.76-.57-6.61-2.79-5.82-3.72-1.85-.29-3.32-.22-5.1-1C4.7,50.52,3.32,49.81,2,49.05a7.6,7.6,0,0,0,.26,1.24C3.59,50.72,4.92,51.25,6.36,51.7ZM4.3,73.91c.33-.54,2-.31,2.57-.48C5.69,73.1,4.39,73,3.16,72.7l0,.09a10.32,10.32,0,0,1,.14,3.59L4,76.7c.65.32,1.19.83,1.82,1.12s1.41.2,2.07.51,1.21.69,1.82,1A33.94,33.94,0,0,1,5.49,76.4C5.11,76,4,74.42,4.3,73.91ZM33.07,39.2c-1.18-2.06-2.63-2.08-4.67-2.64-1.17-.32-1.48-1.24-2-2.3a6.7,6.7,0,0,0-3-3.73c-1.41-.76-2.71-.67-4.18-1.08-1.17-.31-1.66-1.37-2.39-2.3a9,9,0,0,0-3.91-3,8.07,8.07,0,0,0-1.94-.4c-.28.94-.21,2-.43,2.93,2.26-.29,4.37-.22,6.15,2a3.85,3.85,0,0,0,2.85,1.7,9.4,9.4,0,0,1,4,1.76c1.11,1,1.4,2.51,2.29,3.64s1.74,1.17,3.06,1.47a7,7,0,0,1,3.19,1.33c.86.85.78,2.32,1.72,3.07l-.33-1.31A4.61,4.61,0,0,0,33.07,39.2ZM103,64.61l1.42-.11C103.94,64.11,103.24,64,103,64.61Zm4.47-24.56c.52,1.36.22,4.54-.72,5.67.63-.89,1.45-1.63,2-2.62s0-1.17-.32-2.29c-.51-1.59-2-5.23.51-5.89a6,6,0,0,1-1.36-1c-.31.82-.84,2.27-2,1.72a17.63,17.63,0,0,0,.1,2.72l-.46,1.28C105.7,38.65,107.05,39.05,107.43,40.05Zm-6.66,16.7.11.87c1.12-.65,2.53-.52,3.68-1.2C103.43,56.3,100.77,55.49,100.77,56.75Zm-4.58-14.3c.5-.93,1.63-1.54,2.29-2.41A28,28,0,0,1,100,37.56a6.9,6.9,0,0,0-.75-.46Zm2-13.89A28.58,28.58,0,0,1,99,24.23c-1.15,1.67-3.93,3.16-3.58-.31-.59,2.35-.37,4.34-2.62,5.93,1.25-.39,3.38-1.71,2.38.67-.72,1.69-2.48,2.72-3,4.29l.87-.33c.79-.78,1.34-.67,1.89-1.83.47-1,.84-2.13,1.38-3.06C95,29.36,97.41,25.44,98.16,28.56ZM89.09,38.5c-1,.68-2,.44-2.29,1.88l-.22.54c.89.13,2.12-1.52,2.85-2.15s2.09-1.51,1.82-2.64A7.6,7.6,0,0,1,89.09,38.5Zm24,20.76-3.39,3.06C111.48,62.23,112.28,60.41,113.11,59.26ZM115.29,55v-.87a16,16,0,0,0-1.4,3.49c.65-.87,1.35.53,1.31,1.19C115.62,58.3,117.07,54.31,115.29,55Zm-2.73-4.49c-.93-.67-.52-1.38-.85-2.27s-.67-.64-1.55.18a6.23,6.23,0,0,0-1.53,2.76l-.32.33a5.23,5.23,0,0,1,1.82-.22c.35,0,1.92-.19,2.08,0,.54.72-1.73,2.64-1.92,3.28.9-1,3.09-2.08,3.87-3.39A16.33,16.33,0,0,1,112.56,50.51ZM89.07,35.33a6.25,6.25,0,0,0,1.4-2.7,10.19,10.19,0,0,1-1.6,1.85c-.68.51-1.27.3-2,.54-1.08.38-1.75,1.88-2.51,2.41l1.53-1.09a2.53,2.53,0,0,1,1.55-.79C88.13,35.45,88.53,35.69,89.07,35.33Zm21.31,29.06.11.22a9,9,0,0,1,2.27-.13,10.3,10.3,0,0,0,.22-2.14C112.36,63.17,111.15,63.69,110.38,64.39Zm.43,5.68c-.23-.46.35-1.06-.41-1.07,0,0-1,.84-1,.87-.65.62-1.27,1.17-2,1.72l-1.09.88c.94,0,2.17-1.08,3.06-.63,1.25.64-.33,2,.76,2.6.79-1,1.28-2.43,2.28-3.37A2,2,0,0,1,110.81,70.07Zm-31-64.56a11.93,11.93,0,0,0-.92-1.23C79.19,4.68,79.51,5.08,79.85,5.51Zm2.48,13.73c-.8.85-1.46-.22-2-.91l.33,1c.47,1,.94,1.31,1,2.51a23.6,23.6,0,0,1,.22,3c.18-2.07,1.45-.68,1.06.82a45,45,0,0,1-1.26,4.42C82.3,29,83.21,28.51,84,27.6c1-1.14.87-2.62,1.82-3.81C83.45,25.82,82.63,20.46,82.33,19.24ZM71.55,20.4c-.91-1.29-2.6-1.19-2.87-3.13a3.49,3.49,0,0,1-.24,1.26c-1.5-.44-2.51-2.22-3.44-3.37-.76-.93-.89-.54-2-.76-.94-.19-1.18-.69-1.86-1.31s-1.6-1.07-1.94-1.88-.1-1.1-.79-1.75S57,8.27,56.32,7.61c-1-1-2.88-2.25-3.46-3.58l.21.87c.27,1.53,1.89,2.14,2,3.91,2.19.53,3.16,1.76,4.34,3.63.57.89.73,1.51,1.75,1.93a22.19,22.19,0,0,1,3,1.15c1.65,1,2.59,2.75,4.07,3.81s3.74,3,3.82,5.08C72.07,23.19,72.28,21.44,71.55,20.4Zm.52,5.89a9.73,9.73,0,0,1-.52,3.39c-.22.69-.9,1-1.13,1.5a3.12,3.12,0,0,0,0,1.55,31.46,31.46,0,0,0,1.34,6.52c-.27-1-.31-2.13-.52-3.13s-.34-1.77-.46-2.62A3.1,3.1,0,0,1,72,30.44c1-1,1-1.55.54-2.94Zm-10.81,2.3L60,27.28C59.61,27.94,60.61,28.51,61.26,28.59Zm.87.43v.11c.58.66,1.41,1.18,2.07,1.85.82.84,1.36,1.91,2.15,2.75-.68-.84-1-2.14-1.57-3.06A3.59,3.59,0,0,0,62.13,29ZM76.19,10.88c-1-.46-1.78-2-2.35-2.92a7.57,7.57,0,0,1-1-3.28c-.19-1.16-.92-1.81-1.55-2.83-.26.34-.21,1-.84,1,.7.94,1.55,1.09,1.85,2.37a9.08,9.08,0,0,0,.95,3,5.3,5.3,0,0,1,1,3.41c-.13.91-.84,2.88,0,3.36l.44-.43c-.59-.6-.15-2.64.68-3s2.19.62,2.91,1.14c-.16-.32-.29-1.13-.56-1.36C77.26,10.86,76.71,11.13,76.19,10.88ZM59,26.36c-.11-.08-.21-.15-.3-.23A1.7,1.7,0,0,0,59,26.36ZM82.52,10.91c.2,1-.24,2.35.35,3.27l.22-.77c1.21-2.9-1.39-5.62-3.24-7.9a26.87,26.87,0,0,1,1.82,3.21A8.66,8.66,0,0,1,82.52,10.91ZM75.8,25.76c-.16,1.94.2,4-.48,5.86a10.19,10.19,0,0,0-1,2.75v1.42a14.11,14.11,0,0,1,1.53-2.7,11.8,11.8,0,0,0,.43-2c.28-.9.5-.86.31-1.85A29.7,29.7,0,0,0,75.8,25.76Zm0-6,.32,5.56C77.25,23.68,76,21.41,75.78,19.75Zm-17.27.35c-.28-1.69-1.4-6.15-3.47-6.36l-1.53-.87a13.79,13.79,0,0,1,4.34,6,8.82,8.82,0,0,1,0,4.42c-.27,1.41-.17,2,.86,2.86C57.44,24.86,58.77,21.71,58.51,20.1Zm52.73,57.21c-.54.13-1.22-.09-1.73.09-.75.28-.89,1.2-1.64,1.4l3.38-.77C111.23,78.11,111.25,77.5,111.24,77.31Z"/><path class="cls-37" d="M21.22,88a9.48,9.48,0,0,1-3-.83,17.08,17.08,0,0,1-1.86-1.54c-1.9-1.49-4.18-1.26-6.38-1.9a9.84,9.84,0,0,1-3.61-2.36A25.45,25.45,0,0,1,3.7,78.51s-.06,0,0,0a18.39,18.39,0,0,0,4.85,5c2.13,1.37,4.83.86,7,2.18a22.73,22.73,0,0,1,1.81,1.43,5.6,5.6,0,0,0,2.32,1c.8.17,1.64.19,2.44.38,1,.25,1.43,1.18,1.85,2,.05.12.24,0,.2-.08A3.53,3.53,0,0,0,21.22,88Zm96.35-32.57A5.63,5.63,0,0,0,115.9,53a1.74,1.74,0,0,0-.52-.32c-.17-.06-.06-.33,0-.55a1.76,1.76,0,0,0,0-.91,2.78,2.78,0,0,0-.79-1c-.58-.49-1.32-.53-1.76-1.21-1-1.57-.66-4-.2-5.7.25-1,.65-1.83.81-2.82a11.25,11.25,0,0,0,0-2.72,12.76,12.76,0,0,0-.63-2.93.1.1,0,0,0-.12-.06,4.67,4.67,0,0,1-3.4-.38,1.91,1.91,0,0,1-1-2c.11-.69.53-1.35.68-2.05a2.1,2.1,0,0,0-2.26-2.74.08.08,0,0,0,0,.15,3.15,3.15,0,0,1,1.41.34c1.07.55.75,2.07.47,3a4.2,4.2,0,0,0-.48,2.12,2.2,2.2,0,0,0,1,1.28,4.67,4.67,0,0,0,3.64.53,0,0,0,0,0,0,0c.06.19.11.38.17.57a16.25,16.25,0,0,1,.41,2.19,11.06,11.06,0,0,1,0,2.44,15.32,15.32,0,0,1-.84,3.05,9.5,9.5,0,0,0-.17,4.85,3.22,3.22,0,0,0,.68,1.37c.42.49,1.15.58,1.65,1,.82.69.61,1.29.49,2.24,0,0,0,.07.07.09a3.8,3.8,0,0,1,1.85,1.9,6.74,6.74,0,0,1,.34.72c.13.33-.15,1-.26,1.32a13.7,13.7,0,0,1-2.75,4.49c-.1.11-.38.32-.4.48a13.67,13.67,0,0,1-.3,1.55,8.08,8.08,0,0,1-1,2.5,3.62,3.62,0,0,0-.69,2.23,6.22,6.22,0,0,0,.33,1.76c0,.06,0,.17.09.21a5.87,5.87,0,0,1,1.09,1.19,4.8,4.8,0,0,1,.43,1c0,.08.07.38.1.31-.3.66-.61,1.3-.94,1.94a6.54,6.54,0,0,0-.9,2.13,11.28,11.28,0,0,1-.07,1.16c-.09.43-.48.62-.83.8A9.79,9.79,0,0,0,107,81.74a11.06,11.06,0,0,0-1.41,5.78,12.62,12.62,0,0,1-1.11,4.62,21.86,21.86,0,0,0-.72-5.45,5.86,5.86,0,0,1-.29-1.43,14.74,14.74,0,0,1,.15-1.88c.35-3,1.09-6.09.29-9.06a46.16,46.16,0,0,0-2.7-7.07,9.11,9.11,0,0,1-.09-2.19c-.08-1.92-.17-3.84-.3-5.75-.28-4.25-.78-8.57-3.67-11.93a6.79,6.79,0,0,0-4-2,18.06,18.06,0,0,0-1.79-.3l.22-.19.61-.52c.07,0,0-.16-.08-.14a9.29,9.29,0,0,1-5.85.08,14,14,0,0,1-1.4-.54A4.8,4.8,0,0,0,83,43.53c-.19,0-.79-.09-1,.06a2.53,2.53,0,0,1-2.61.31l-.23-.08-.09,0,.32-.4.76-1a.08.08,0,0,0-.1-.13l-1,.52c-.48.25-.84.68-1.31,1a9.35,9.35,0,0,1-2,.89l-.58.17-.18,0a12.93,12.93,0,0,0-3-1.8,15,15,0,0,0-4.25-.81c-.08,0-.1.09-.06.14L68.92,44l-.63-.25A44.76,44.76,0,0,0,62,41.64c-2.73-.6-5.5.86-8,1.61a25.69,25.69,0,0,1-6,.82.07.07,0,0,0,0,.12c.22.23.44.45.67.67l.07.07-.19.08c-.94.4-1.88.82-2.81,1.27-2.09,1-4,2.45-6.22,3.2a.07.07,0,0,0,0,.12l1.25.68.45.25h0l-.4.25-1.28.82c-.14.09-.19.46-.25.61-.17.47-.35,1-.53,1.42A12.07,12.07,0,0,0,38,56.18c-.22,1.39-1.59,2.1-2.47,3a3.11,3.11,0,0,0-.38,1c-.45,1.15-.91,2.29-1.39,3.42a13.62,13.62,0,0,0-1,3c-.18,1-.17,2.05-.32,3.06-.29,2-1.68,3.55-3,4.93a4.7,4.7,0,0,0-.78.89,15.94,15.94,0,0,0-1.29,3.11,24.35,24.35,0,0,0-.25,11.23c.72,4.13,1.45,8.27,2.29,12.38.31,1.53.64,3,1,4.57.08.32.09.22-.18,0l-1.49-.92-1.53-1a1.84,1.84,0,0,1-.93-1c-.92-1.94-.95-4.25-1.07-6.35a23.09,23.09,0,0,0-.61-4.69s0,0,0,0c1,3.6.16,7.56,1.66,11,.36.84,1.17,1.13,1.93,1.6l2.3,1.45a0,0,0,0,0,0,0c-.71-3.1-1.31-6.21-1.86-9.33-.71-4-1.71-8-1.93-12a21.69,21.69,0,0,1,.6-6.52,16.25,16.25,0,0,1,1.3-3.35,6,6,0,0,1,1.14-1.37,10.24,10.24,0,0,0,2.7-4.28,16.33,16.33,0,0,0,.28-2.52,13,13,0,0,1,1.12-4c.44-1,.85-2,1.25-3.06.11-.27.34-1.19.52-1.3.93-.59,2.3-1.8,2.47-2.93a13.75,13.75,0,0,1,.62-2.79c.27-.71.38-1.62,1-2l1.41-.9a.07.07,0,0,0,0-.11L40.38,50l-.66-.36-.19-.1A16.85,16.85,0,0,0,42,48.41,67.79,67.79,0,0,1,48.73,45a.08.08,0,0,0,0-.12l-.58-.57a.8.8,0,0,0-.13-.13h0c.87,0,1.74-.12,2.6-.22A20.32,20.32,0,0,0,54,43.39c1.3-.35,2.56-.87,3.86-1.24a8.58,8.58,0,0,1,4.11-.36,26,26,0,0,1,3,.87c1.42.48,2.84,1,4.23,1.56.08,0,.12-.08.08-.13l-1.12-1.38-.22-.27,1.58.21a9.86,9.86,0,0,1,3.77,1.27c.42.25.82.52,1.21.8a1.85,1.85,0,0,0,.43.32c.32.09,1-.29,1.33-.4a7.6,7.6,0,0,0,2.42-1.32,4.07,4.07,0,0,1,.9-.58l.33-.16c-.31.39-.62.78-.92,1.18a.08.08,0,0,0,0,.13,3.18,3.18,0,0,0,2.66.2c.12-.06.43-.35.56-.36l.83,0a4.93,4.93,0,0,1,2,.35,10.77,10.77,0,0,0,4,.88,8.81,8.81,0,0,0,2.69-.4l-.17.13c-.16.14-.32.28-.49.41s0,.14.06.15a17.22,17.22,0,0,1,4,.9,6.92,6.92,0,0,1,3.24,3.32c2.24,3.88,2.23,8.52,2.45,12.88.07,1.47.13,3,.18,4.43a2.56,2.56,0,0,0,.32,1.19c1.14,2.58,2.5,5.43,2.78,8.26a18.61,18.61,0,0,1-.25,3.87c-.17,1.44-.38,2.88-.52,4.33a7.17,7.17,0,0,0,.29,2.52,19.59,19.59,0,0,1,.66,5.7c0,.08.14.13.18,0A18.06,18.06,0,0,0,105.64,89a13.66,13.66,0,0,0,.16-2.22,13.35,13.35,0,0,1,.51-3,7.84,7.84,0,0,1,4.38-4.84,3.93,3.93,0,0,0,1.35-.8c.36-.41.23-1.11.26-1.61,0-1,.87-2,1.28-2.85.12-.25.6-.91.55-1.21a5.3,5.3,0,0,0-.38-1.1,3.43,3.43,0,0,0-.51-.84c-.16-.2-.69-.52-.77-.72a6.47,6.47,0,0,1-.37-1.84c-.06-1.19.59-1.88,1.08-2.87a9.73,9.73,0,0,0,.73-2.17c.06-.29.12-.58.17-.87,0-.09.09-.38,0-.31a16.58,16.58,0,0,0,1.72-2.19A13.56,13.56,0,0,0,117,57.39C117.21,57,117.74,55.89,117.57,55.41ZM100.24,19.09a.2.2,0,0,0,.21.21,6.05,6.05,0,0,1,4.24,2.41c.25.27.48.55.72.82a1.49,1.49,0,0,1,.51,1.4,9.14,9.14,0,0,0,.19,3c0,.08.15,0,.13,0-.21-.91-.6-2.95.1-3.75a.23.23,0,0,0,0-.32c-1.52-1.86-3.12-3.89-5.69-4a12.53,12.53,0,0,0-.26-2.94c0-.12-.23-.1-.22,0C100.21,17,100.27,18,100.24,19.09ZM63.84,2.35a.14.14,0,0,0,.07-.16c-.14-.37-.41-.82,0-1A2.71,2.71,0,0,1,65.23.8,3.32,3.32,0,0,1,67,1.5a3.35,3.35,0,0,0,2.89.7A.14.14,0,0,0,70,2a5.48,5.48,0,0,0-.47-.9,22.94,22.94,0,0,1,3.2.3,4,4,0,0,1,2.23,1.39c.81.92,1.57,2,2.94,1.85.09,0,.15-.09.1-.17-.33-.57-.49-1.2-.83-1.77,1.92,0,4,.16,5.61,1.27s2.41,3,4.2,4c.12.07.33,0,.27-.21A2.16,2.16,0,0,1,87,7,5.67,5.67,0,0,1,89.56,8.2,10.19,10.19,0,0,1,91,10.82a.16.16,0,0,0,.19.08c1.32-.49,2.67-.69,3.56.61a27.13,27.13,0,0,1,1.49,3.24.17.17,0,0,0,.14.08,12.51,12.51,0,0,1,3.59.56c.08,0,.11-.1,0-.13a16.05,16.05,0,0,0-3.35-.74c-.42,0-.87-1.75-1-2.15-.5-1.15-1.18-2.16-2.53-2.23a3.53,3.53,0,0,0-1,.13,5.64,5.64,0,0,0-.7.21c-.26.09-.39-.42-.47-.58A13.29,13.29,0,0,0,90,8.28c-.69-1-2-1.3-3.08-1.64a.18.18,0,0,0-.22.17,3.83,3.83,0,0,0,0,.6c-1.57-1-2.46-2.81-4.06-3.84s-3.88-1.15-5.8-1.15a.14.14,0,0,0-.1.23,5.51,5.51,0,0,1,.89,1.76c-1.49,0-2.24-1.57-3.24-2.45C73.05.72,70.87.94,69.17.77c-.14,0-.18.16-.1.25a3.73,3.73,0,0,1,.55.94c-1.23.26-2.06-.5-3.09-1.08a3,3,0,0,0-3.16.24.15.15,0,0,0-.07.16,2.16,2.16,0,0,1,.16.49c.14.49-.3.55-.7.59a2.27,2.27,0,0,1-1.54-.59c-.15-.11-.29.14-.14.26A2.5,2.5,0,0,0,63.84,2.35ZM33.28,9.59a15.31,15.31,0,0,1,.19-3.45c.13-.59.41-1.12,1.07-1.08a9.77,9.77,0,0,0,1.62.08,2.93,2.93,0,0,0,1.9-1.54,5.23,5.23,0,0,0,.55-1.44c.09-.36.23-.21.57-.17a11.34,11.34,0,0,1,1.14.2A.14.14,0,0,0,40.45,2c-.18-.21-.35-.43-.52-.65A6,6,0,0,1,42.55,1a12.68,12.68,0,0,1,2,.82A8.36,8.36,0,0,0,49.72,2a.13.13,0,0,0,.06-.21,3.23,3.23,0,0,1-.41-.58A22.59,22.59,0,0,0,54.43,1c1.79-.16,4.22-.44,5.72.78,0,0,.06,0,0,0C58.88.5,57,.52,55.3.62c-2,.11-4.09.65-6.07.33a.13.13,0,0,0-.16.13,1.18,1.18,0,0,0,.38.75,8.69,8.69,0,0,1-5.55-.57A5.22,5.22,0,0,0,42.33.72a7.63,7.63,0,0,0-2.67.4.13.13,0,0,0,0,.22c.14.16.28.34.41.52-.47-.09-1-.12-1.43-.25a.13.13,0,0,0-.16.09,3.91,3.91,0,0,1-1.91,3c-.83.4-1.69-.16-2.51.1-.59.19-.79,1.12-.88,1.62A16.47,16.47,0,0,0,33,9.59.13.13,0,1,0,33.28,9.59ZM12.42,22.15a5.63,5.63,0,0,1,2.46-.74,3.25,3.25,0,0,0,2-1.24c.61-.7.72-1.57,1.52-2.12,1-.69,2.29-.65,3.36-1.14a.13.13,0,0,0,0-.2c-.21-.22-.4-.46-.61-.67,2.11.18,1.61-3.07,2.43-4.42s3-1.4,4.3-2.29a3.31,3.31,0,0,0,.65-.59c.37-.42.74-.05,1.18.15a28.33,28.33,0,0,0,3.09,1.22s0,0,0,0a37.94,37.94,0,0,1-4-1.88.12.12,0,0,0-.16.05c-1.31,1.94-4.26,1.37-5.38,3.49-.7,1.32-.16,4.62-2.51,4a.13.13,0,0,0-.1.24,3,3,0,0,1,.63.59c.33.38-.28.41-.59.5-.57.15-1.16.24-1.72.44A2.8,2.8,0,0,0,17.25,19a3.35,3.35,0,0,1-2.44,2.12,6.38,6.38,0,0,0-2.52.77C12.15,22,12.28,22.24,12.42,22.15ZM2.82,51.44a8.68,8.68,0,0,1-.66-2c0-.12-.11-1.18-.16-1.18a2.31,2.31,0,0,0,.37,0,2.09,2.09,0,0,0,1.24-.71,6.4,6.4,0,0,0,1-3.36c.17-1.52.19-3,.48-4.55.23-1.2.74-2.49,2.15-2.49a.14.14,0,0,0,.12-.21C7,36.28,6.13,35.22,7,34.7c.51-.28,1.12-.41,1.65-.66a3.8,3.8,0,0,0,1.9-3.57A3.73,3.73,0,0,0,9.8,28.4c-.26-.36-.14-.27.15-.52a2.26,2.26,0,0,0,.5-.68c.68-1.35.14-3,.94-4.34,0,0,0,0,0,0-1.06,1.5-.08,4.33-2,5.17,0,0,0,.1,0,.14a3.72,3.72,0,0,1,.83,3.74A3.61,3.61,0,0,1,7.7,34.19c-.46.16-1,.3-1.26.76s.24,1.35.59,1.86C4.88,37,4.71,40,4.57,41.62c-.17,1.83.07,6.34-2.69,6.31a.13.13,0,0,0-.14.14,8.39,8.39,0,0,0,.84,3.51C2.65,51.75,2.9,51.6,2.82,51.44ZM3.05,72a16.33,16.33,0,0,1-.68-1.62c-.28-1,.7-1.59,1.38-2a.15.15,0,0,0,0-.19A8.64,8.64,0,0,0,1,64.94a6.88,6.88,0,0,0,1.68-2.56.13.13,0,0,0-.08-.19c-1.37-.53-1.15-1.79,0-2.38a.13.13,0,0,0,0-.21A5.12,5.12,0,0,1,.87,56.75c0-.41-.11-1,.21-1.27s.4-.29.56-.49.32-.57.63-.78a4.9,4.9,0,0,0,.62-.38c.37-.38-.05-.88-.3-1.21,0-.06-.16,0-.11.07.28.39.6.86,0,1.15a2.53,2.53,0,0,0-.69.44c-.26.24-.35.59-.66.81a1.72,1.72,0,0,0-.4.36,2.57,2.57,0,0,0,.05,2.12,6.65,6.65,0,0,0,1.52,2.09c-1.23.72-1.31,2.1,0,2.72-.47.88-.77,1.91-1.68,2.44a.13.13,0,0,0,0,.23,8.62,8.62,0,0,1,1.77,1.53,8.09,8.09,0,0,1,.75,1c.33.51.25.59-.21.93a1.85,1.85,0,0,0-.92,1.64,19.85,19.85,0,0,0,1,2.66c.45,1.5,0,3,.16,4.55,0,.17.29.17.27,0a21.39,21.39,0,0,1,.06-2.77A6.66,6.66,0,0,0,3.05,72Z"/><path class="cls-38" d="M66.72,74.92a7.24,7.24,0,0,1-2.85,1.92,6.55,6.55,0,0,0,1.7-3.39,12.1,12.1,0,0,1-4.58,0c-2.46-.49-13.43-6.22-18.83-5.57a14.06,14.06,0,0,1,1.47.66s-8,.65-12.12,7.69a15.39,15.39,0,0,1,10-1.63c5.24,1.14,12.12,3.27,16.38,3.93a8.26,8.26,0,0,0,2.86,0C62.21,78.38,65.47,77.8,66.72,74.92Z"/><path class="cls-39" d="M80.47,74.92a5.45,5.45,0,0,0,1.85,1.92,8.22,8.22,0,0,1-1.1-3.39,5.19,5.19,0,0,0,3,0C85.8,73,93,67.23,96.46,67.88a8,8,0,0,0-1,.66s5.23.65,7.89,7.69c0,0-3.09-2.78-6.5-1.63S89,77.87,86.23,78.53a3.57,3.57,0,0,1-1.87,0A4.55,4.55,0,0,1,80.47,74.92Z"/><path d="M38.72,86.55a8.63,8.63,0,0,1-3.44-1.64l1.47-.16a19.68,19.68,0,0,1,8.68-3.44,13.69,13.69,0,0,1,12,4.42s-8.51,1-9.16,1Z"/><path class="cls-40" d="M37.25,82.8a20.15,20.15,0,0,1,9.8-2.58,14.75,14.75,0,0,1,8.2,2.41s0,0,0,0a15.88,15.88,0,0,0-8-2.71,16.61,16.61,0,0,0-10.06,2.87s0,0,0,0Z"/><path class="cls-41" d="M57.71,85.89C52.4,81.72,43,81.36,37.9,86.06l1,.49c4.91,3.27,12.94,2.45,18,.49l.82-.33,1.64.33Z"/><path class="cls-42" d="M46.43,88.72a4.32,4.32,0,0,0,4-5.85,17.12,17.12,0,0,0-8.27.67,4.82,4.82,0,0,0-.08.86A4.32,4.32,0,0,0,46.43,88.72Z"/><path class="cls-43" d="M46.43,88.22a3.81,3.81,0,0,0,3.47-5.43,17.15,17.15,0,0,0-7.14.57,4,4,0,0,0-.15,1A3.82,3.82,0,0,0,46.43,88.22Z"/><circle cx="46.43" cy="84.4" r="2.25"/><path class="cls-44" d="M48,84.4a1.6,1.6,0,1,1-1.6-1.59A1.6,1.6,0,0,1,48,84.4Z"/><path class="cls-41" d="M46.43,83.45a.94.94,0,0,0,.92-.8,17.74,17.74,0,0,0-1.8.12A.91.91,0,0,0,46.43,83.45Z"/><path class="cls-41" d="M46.88,86.6a.45.45,0,1,1-.45-.44A.45.45,0,0,1,46.88,86.6Z"/><path d="M37.93,86.09a15.77,15.77,0,0,1,9.92-3.24,16.69,16.69,0,0,1,9.85,3.07s.06,0,0,0a16.38,16.38,0,0,0-9.88-3.42,13.49,13.49,0,0,0-10,3.58s0,.09.06.06Z"/><path class="cls-45" d="M38.85,86.6a16,16,0,0,0,8.73,2.22,24.39,24.39,0,0,0,9.32-1.76s0,0,0,0c-5.56,1.94-12.78,2.86-18-.52-.06,0-.12.06-.06.1Z"/><path d="M98.13,86.55a6.5,6.5,0,0,0,2.81-1.64l-1.21-.16a14.71,14.71,0,0,0-7.08-3.44c-4.14-.66-7.49,1.47-9.76,4.42,0,0,7,1,7.49,1Z"/><path class="cls-46" d="M99.33,82.8a14.19,14.19,0,0,0-8-2.58,10.46,10.46,0,0,0-6.69,2.41s0,0,0,0a11.52,11.52,0,0,1,6.51-2.71c3-.26,5.73,1,8.21,2.87,0,0,0,0,0,0Z"/><path class="cls-41" d="M82.62,85.89c4.34-4.17,12-4.53,16.18.17l-.8.49C94,89.82,87.44,89,83.29,87l-.67-.33L81.29,87Z"/><path class="cls-47" d="M93.41,84.4a4.82,4.82,0,0,0-.26-1.53,12.14,12.14,0,0,0-7.61,1,4.38,4.38,0,0,0,0,.52,4.28,4.28,0,0,0,3,4.18c.39,0,.78.1,1.18.13A4.17,4.17,0,0,0,93.41,84.4Z"/><path class="cls-48" d="M89.46,88.22A3.66,3.66,0,0,0,93,84.4a4.11,4.11,0,0,0-.33-1.62,12.23,12.23,0,0,0-6.59.87,3.85,3.85,0,0,0,3.43,4.57Z"/><path d="M91.52,84.4a2.07,2.07,0,1,1-2.06-2.26A2.17,2.17,0,0,1,91.52,84.4Z"/><path class="cls-49" d="M90.91,84.4a1.46,1.46,0,1,1-1.45-1.59A1.52,1.52,0,0,1,90.91,84.4Z"/><path class="cls-41" d="M89.46,83.45a.87.87,0,0,0,.83-.79,12.36,12.36,0,0,0-1.62.19A.84.84,0,0,0,89.46,83.45Z"/><path class="cls-41" d="M89.86,86.6a.41.41,0,1,1-.4-.44A.43.43,0,0,1,89.86,86.6Z"/><path d="M98.78,86.09a11.43,11.43,0,0,0-8.1-3.24,12,12,0,0,0-8,3.07s0,0,0,0a11.92,11.92,0,0,1,8.07-3.42A9.89,9.89,0,0,1,98.82,86s0,.09,0,.06Z"/><path class="cls-45" d="M98,86.6a11.21,11.21,0,0,1-7.12,2.22,16.71,16.71,0,0,1-7.61-1.76s0,0,0,0C87.83,89,93.73,89.88,98,86.5c.06,0,.1.06,0,.1Z"/></g></g></svg>