<svg xmlns="http://www.w3.org/2000/svg" xmlns:xlink="http://www.w3.org/1999/xlink" viewBox="0 0 122.47 169.15"><defs><style>.cls-1{fill:url(#linear-gradient);}.cls-2{fill:#c9815e;}.cls-3{fill:url(#radial-gradient);}.cls-4{fill:url(#radial-gradient-2);}.cls-5{fill:url(#radial-gradient-3);}.cls-6{fill:url(#linear-gradient-2);}.cls-7{fill:url(#linear-gradient-3);}.cls-8{fill:url(#linear-gradient-4);}.cls-9{fill:url(#radial-gradient-4);}.cls-10{fill:url(#linear-gradient-5);}.cls-11{fill:url(#linear-gradient-6);}.cls-12{fill:url(#linear-gradient-7);}.cls-13{fill:url(#linear-gradient-8);}.cls-14{fill:url(#linear-gradient-9);}.cls-15{fill:url(#linear-gradient-10);}.cls-16{fill:url(#linear-gradient-11);}.cls-17{fill:url(#linear-gradient-12);}.cls-18{fill:url(#linear-gradient-13);}.cls-19{fill:url(#linear-gradient-14);}.cls-20{fill:url(#linear-gradient-15);}.cls-21{fill:url(#linear-gradient-16);}.cls-22{fill:url(#linear-gradient-17);}.cls-23{fill:url(#linear-gradient-18);}.cls-24{fill:url(#linear-gradient-19);}.cls-25{fill:url(#linear-gradient-20);}.cls-26{fill:#713920;}.cls-27{fill:url(#linear-gradient-21);}.cls-28{fill:#b65145;}.cls-29{fill:#a1423c;}.cls-30{fill:url(#radial-gradient-5);}.cls-31{fill:#59211c;}.cls-32{fill:url(#linear-gradient-22);}.cls-33{fill:url(#linear-gradient-23);}.cls-34{fill:url(#linear-gradient-24);}.cls-35{fill:url(#linear-gradient-25);}.cls-36{fill:url(#linear-gradient-26);}.cls-37{fill:url(#linear-gradient-27);}.cls-38{fill:url(#linear-gradient-28);}.cls-39{fill:url(#linear-gradient-29);}.cls-40{fill:url(#linear-gradient-30);}.cls-41{fill:url(#linear-gradient-31);}.cls-42{fill:#fff;}.cls-43{fill:url(#linear-gradient-32);}.cls-44{fill:url(#linear-gradient-33);}.cls-45{fill:url(#linear-gradient-34);}.cls-46{fill:#ca7c6a;}.cls-47{fill:url(#linear-gradient-35);}.cls-48{fill:url(#linear-gradient-36);}.cls-49{fill:url(#linear-gradient-37);}.cls-50{fill:url(#linear-gradient-38);}.cls-51{fill:url(#linear-gradient-39);}</style><linearGradient id="linear-gradient" x1="61.24" y1="155.6" x2="61.24" y2="108.06" gradientUnits="userSpaceOnUse"><stop offset="0" stop-color="#c9815e"/><stop offset="1" stop-color="#974e2f"/></linearGradient><radialGradient id="radial-gradient" cx="551.83" cy="35.28" r="54.17" gradientTransform="translate(-158.02 101.88) scale(0.41 0.21)" gradientUnits="userSpaceOnUse"><stop offset="0" stop-color="#f0a380"/><stop offset="1" stop-color="#c9815e"/></radialGradient><radialGradient id="radial-gradient-2" cx="-93.88" cy="-258.81" r="54.17" gradientTransform="matrix(0.2, 0.42, -0.28, 0.13, -31.74, 164.97)" xlink:href="#radial-gradient"/><radialGradient id="radial-gradient-3" cx="-387.38" cy="-295.18" r="54.16" gradientTransform="matrix(-0.14, 0.44, -0.3, -0.09, -33.87, 234.32)" xlink:href="#radial-gradient"/><linearGradient id="linear-gradient-2" x1="33.39" y1="151.32" x2="111.71" y2="21.88" xlink:href="#linear-gradient"/><linearGradient id="linear-gradient-3" x1="61.3" y1="144.98" x2="73.57" y2="124.69" xlink:href="#linear-gradient"/><linearGradient id="linear-gradient-4" x1="72.51" y1="141.75" x2="72.51" y2="137.5" xlink:href="#linear-gradient"/><radialGradient id="radial-gradient-4" cx="1039.75" cy="97.25" r="60.28" gradientTransform="translate(-154.86 101.88) scale(0.21)" gradientUnits="userSpaceOnUse"><stop offset="0" stop-color="#974e2f"/><stop offset="1" stop-color="#c9815e"/></radialGradient><linearGradient id="linear-gradient-5" x1="66.91" y1="64.01" x2="66.91" y2="27.66" gradientUnits="userSpaceOnUse"><stop offset="0" stop-color="#c9815e"/><stop offset="1" stop-color="#f0a380"/></linearGradient><linearGradient id="linear-gradient-6" x1="61.07" y1="67.43" x2="61.07" y2="23.28" xlink:href="#linear-gradient"/><linearGradient id="linear-gradient-7" x1="40.19" y1="74.02" x2="40.19" y2="63.05" xlink:href="#linear-gradient"/><linearGradient id="linear-gradient-8" x1="90.2" y1="74.07" x2="90.2" y2="62.88" xlink:href="#linear-gradient"/><linearGradient id="linear-gradient-9" x1="70.43" y1="83.39" x2="70.43" y2="114.53" xlink:href="#linear-gradient-5"/><linearGradient id="linear-gradient-10" x1="54.5" y1="98.33" x2="50.82" y2="95.5" xlink:href="#linear-gradient-5"/><linearGradient id="linear-gradient-11" x1="83.03" y1="97.84" x2="85.23" y2="96.16" xlink:href="#linear-gradient-5"/><linearGradient id="linear-gradient-12" x1="53.67" y1="85.97" x2="68.17" y2="94.42" xlink:href="#linear-gradient"/><linearGradient id="linear-gradient-13" x1="85.55" y1="87.35" x2="71.67" y2="91.09" xlink:href="#linear-gradient"/><linearGradient id="linear-gradient-14" x1="37.02" y1="85.17" x2="55.62" y2="74.98" xlink:href="#linear-gradient"/><linearGradient id="linear-gradient-15" x1="64.69" y1="85.53" x2="84.66" y2="74.59" gradientTransform="matrix(-0.75, 0, 0, 1, 142.05, 0)" xlink:href="#linear-gradient"/><linearGradient id="linear-gradient-16" x1="68.81" y1="111.8" x2="68.81" y2="101.32" xlink:href="#linear-gradient"/><linearGradient id="linear-gradient-17" x1="101.58" y1="93.97" x2="113.43" y2="85.3" xlink:href="#linear-gradient"/><linearGradient id="linear-gradient-18" x1="4.98" y1="94.43" x2="16.51" y2="85.98" xlink:href="#linear-gradient"/><linearGradient id="linear-gradient-19" x1="9.17" y1="89.56" x2="24.27" y2="78.42" gradientUnits="userSpaceOnUse"><stop offset="0" stop-color="#964b28"/><stop offset="1" stop-color="#7a361a"/></linearGradient><linearGradient id="linear-gradient-20" x1="68.24" y1="96.36" x2="68.24" y2="82.73" gradientUnits="userSpaceOnUse"><stop offset="0" stop-color="#713920"/><stop offset="1" stop-color="#c9815e"/></linearGradient><linearGradient id="linear-gradient-21" x1="8.57" y1="89.21" x2="15.44" y2="85.49" gradientUnits="userSpaceOnUse"><stop offset="0" stop-color="#7d3e21"/><stop offset="1" stop-color="#61280f"/></linearGradient><radialGradient id="radial-gradient-5" cx="1041.91" cy="81.18" r="57.11" gradientTransform="translate(-154.86 101.88) scale(0.21)" gradientUnits="userSpaceOnUse"><stop offset="0" stop-color="#cd705f"/><stop offset="1" stop-color="#b65145"/></radialGradient><linearGradient id="linear-gradient-22" x1="55.24" y1="113.91" x2="55.24" y2="107.5" gradientUnits="userSpaceOnUse"><stop offset="0"/><stop offset="1" stop-color="#2d4753"/></linearGradient><linearGradient id="linear-gradient-23" x1="55.24" y1="113.91" x2="55.24" y2="107.51" xlink:href="#linear-gradient-22"/><linearGradient id="linear-gradient-24" x1="65.09" y1="113.91" x2="65.09" y2="107.5" gradientTransform="matrix(-1, 0, 0, 1, 146.85, 0)" xlink:href="#linear-gradient-22"/><linearGradient id="linear-gradient-25" x1="65.09" y1="113.91" x2="65.09" y2="107.51" gradientTransform="matrix(-1, 0, 0, 1, 146.85, 0)" xlink:href="#linear-gradient-22"/><linearGradient id="linear-gradient-26" x1="60.05" y1="55.71" x2="60.05" y2="-3.86" xlink:href="#linear-gradient-22"/><linearGradient id="linear-gradient-27" x1="67.02" y1="42.79" x2="67.02" y2="-25.5" gradientUnits="userSpaceOnUse"><stop offset="0" stop-color="#111820"/><stop offset="1" stop-color="#446d7c"/></linearGradient><linearGradient id="linear-gradient-28" x1="67.85" y1="36.91" x2="67.85" y2="5.6" xlink:href="#linear-gradient-27"/><linearGradient id="linear-gradient-29" x1="60.05" y1="44.05" x2="60.05" y2="94.48" xlink:href="#linear-gradient-22"/><linearGradient id="linear-gradient-30" x1="60.05" y1="55.71" x2="60.05" y2="-3.86" xlink:href="#linear-gradient-27"/><linearGradient id="linear-gradient-31" x1="60.06" y1="55.7" x2="60.06" y2="-3.97" xlink:href="#linear-gradient-22"/><linearGradient id="linear-gradient-32" x1="41.49" y1="78.12" x2="41.49" y2="71.32" gradientUnits="userSpaceOnUse"><stop offset="0" stop-color="#39140a"/><stop offset="1"/></linearGradient><linearGradient id="linear-gradient-33" x1="41.49" y1="78.12" x2="41.49" y2="71.32" gradientUnits="userSpaceOnUse"><stop offset="0.01" stop-color="#652312"/><stop offset="1" stop-color="#210000"/></linearGradient><linearGradient id="linear-gradient-34" x1="41.49" y1="74.76" x2="41.49" y2="76.52" gradientUnits="userSpaceOnUse"><stop offset="0"/><stop offset="1" stop-color="#77726d"/></linearGradient><linearGradient id="linear-gradient-35" x1="88.34" y1="78.12" x2="88.34" y2="71.32" xlink:href="#linear-gradient-32"/><linearGradient id="linear-gradient-36" x1="88.34" y1="78.12" x2="88.34" y2="71.32" xlink:href="#linear-gradient-33"/><linearGradient id="linear-gradient-37" x1="88.34" y1="74.76" x2="88.34" y2="76.52" xlink:href="#linear-gradient-34"/><linearGradient id="linear-gradient-38" x1="40.18" y1="63.82" x2="40.18" y2="61.21" gradientUnits="userSpaceOnUse"><stop offset="0"/><stop offset="1" stop-color="#162329"/></linearGradient><linearGradient id="linear-gradient-39" x1="292.01" y1="63.82" x2="292.01" y2="61.21" gradientTransform="matrix(-0.68, 0, 0, 1, 288.7, 0)" xlink:href="#linear-gradient-38"/></defs><g id="Layer_2" data-name="Layer 2"><g id="_4_Face" data-name="4_Face"><path d="M68.77,169.15C19.63,169.15.43,158.06.24,158a.48.48,0,0,1-.24-.47.51.51,0,0,1,.34-.4C.57,157,23.2,149,25.78,142.93s1.89-38.2,1.88-38.52a.5.5,0,0,1,.17-.37.54.54,0,0,1,.37-.13h0l69.54,4.22a.54.54,0,0,1,.38.19.44.44,0,0,1,.11.39c0,.24-4.53,24.59-.42,33.5s24.06,15.15,24.27,15.21a.5.5,0,0,1,.36.43.47.47,0,0,1-.28.47c-.22.11-22.14,10.83-53.42,10.83Z"/><path class="cls-1" d="M.54,157.54s23.05-8.1,25.74-14.43S28.2,104.4,28.2,104.4l69.53,4.22s-4.61,24.64-.38,33.78,24.58,15.49,24.58,15.49-21.66,10.77-53.16,10.77C19.22,168.66.54,157.54.54,157.54Z"/><path d="M114.82,43.44a71.16,71.16,0,0,0-1.41-7.59c-.77-3.43-1.66-6.89-2.66-10.27a78.26,78.26,0,0,0-3.17-9.08l-.11-.26a3.61,3.61,0,0,0-1.14-1.68c-.81-.6-1.69-1.2-2.77-1.89A46.86,46.86,0,0,0,98.71,10c-.81-.39-1.68-.77-2.65-1.16-.44-.18-.93-.36-1.53-.57L93.74,8l-.34-.08a3.38,3.38,0,0,1-.48-.11l0,0a40,40,0,0,0-4.81-5.19,6.36,6.36,0,0,0-2.93-1.14l-.35-.07A57.9,57.9,0,0,0,78,.39C75.19.13,72.31,0,69.41,0A104.52,104.52,0,0,0,55.33,1,98.86,98.86,0,0,0,41,4c-1.83.54-3.37,1-4.89,1.63a70.3,70.3,0,0,0-29,21.51l-.38.45A3.63,3.63,0,0,0,5.65,29.7c-.05.77-.09,1.54-.14,2.31-.16,3.05-.27,6.13-.34,9.16-.09,4.39,0,8,.13,11.34.2,3.69.62,7.44,1,11.05l.18,1.63c.26,2.29.5,4.34.75,6.27a10.52,10.52,0,0,1,0,2.38c-.26.32-.5.67-.72,1l-.28.41-.09.13v0L6,75.58a.35.35,0,0,0-.06.14.56.56,0,0,0,0,.12v0A8.41,8.41,0,0,0,5.44,78c0,.13,0,.26-.05.38A49.72,49.72,0,0,0,5.08,87v0c0,.78,0,1.52.11,2.22h0c.07.93.15,1.67.27,2.36a8,8,0,0,0,1.81,3.46c.33.44.68.87,1,1.3a22.23,22.23,0,0,1,2.57,3.6c.16.29.32.61.5,1,.24.57.5,1.13.74,1.66s.64,1.41,1,2.13a6.12,6.12,0,0,0,3.21,2.35,10.58,10.58,0,0,0,2.54.66c.43,2.28,1,4.56,1.64,6.77A22.82,22.82,0,0,0,24,122.25a15.17,15.17,0,0,0,4.37,3.31l.63.38c4.81,2.85,9.91,5.39,14.83,7.84l2.76,1.37,4.1,2.07,1,.46a18.4,18.4,0,0,1,2.11,1.12A21.16,21.16,0,0,0,62,142.17a.51.51,0,0,0,.48.42c.21,0,.44,0,.68,0h.37a.52.52,0,0,0,.45-.28h.69c1.43,0,2.86-.13,4.25-.25s2.69-.24,4-.25h2.66a22,22,0,0,0,6.2-.67,6.24,6.24,0,0,0,3.07-2.5,27.27,27.27,0,0,0,2.22-3.49,5,5,0,0,1,.59-.39c.14-.09.27-.16.36-.23.94-.66,1.88-1.36,2.88-2.16a37.43,37.43,0,0,0,7.2-7.27,29.62,29.62,0,0,0,3.5-7.47c.13-.34.25-.67.37-1,2.08-5.68,3.93-11.27,5.49-16.62l.27-.49c2.45-4.4,5-9,5.48-14a9.46,9.46,0,0,0-.31-3l-.12-.57c0-.18-.07-.37-.1-.57a8.88,8.88,0,0,0-1-3.27,71.53,71.53,0,0,1,.41-7.23c.19-1.68.52-3.37.84-5,.25-1.28.51-2.61.7-3.93.46-3.24.83-6.66,1.07-10.2A45,45,0,0,0,114.82,43.44Z"/><path class="cls-2" d="M112.67,84.87s-.79-5.68-1.73-6.62a14.48,14.48,0,0,0-2.85-3.79c.59-3.58,1.26-7.58,1.37-7.93.21-.63-1.68-19.75-1.68-19.75S100.64,31.65,100.22,31s-8.4-8-11.77-8.19S58.2,26.19,56.52,26.4s-30.68,4.2-32.36,4.41-9.67,38.24-9.67,38.24l2.68,3.28c-3.62.25-8.19.72-8.19.72-.79.31-2.52,2.83-2.52,2.83-1.26,3.94-1,14-.32,16.23s4.26,5.2,5.52,8.2a40.92,40.92,0,0,0,2.2,4.57,9.14,9.14,0,0,0,5.52,2.36s2.05,11.66,5.51,15.13,21.75,12,29.16,15.92c0,0,4.25,2.83,8.19,3.31a39.71,39.71,0,0,0,9.14-.32c2.21-.16,9.61.32,11.51-1.26a21.32,21.32,0,0,0,3.78-5.2s9.77-6.3,12.6-12.76c2.46-5.6,6.1-16.86,7.64-22C109.68,94.8,112.52,89.31,112.67,84.87Z"/><ellipse class="cls-3" cx="68.07" cy="109.29" rx="26.47" ry="13.87"/><path class="cls-4" d="M18.26,95.75c.66,3.44,3.66,11,7,12.28L24,111.18c.5,1.33,0,2.58,0,4.07a13.85,13.85,0,0,0,.53,3.37A15.32,15.32,0,0,0,35.38,118c10-4.71,12.47-20.62,5.46-35.53-5.71-12.17-16-19.91-25-19.79-.39,1.8-.72,3.31-.95,4.42.36,1.19.68,2.4.95,3.61l1.31,1.61-1,.07a87.45,87.45,0,0,1,1.21,9.17C17.79,86.19,17.38,91.21,18.26,95.75Z"/><path class="cls-5" d="M108.34,64.22c.2-.46.4-.91.61-1.35C100.85,65.16,93,73.64,89.3,85.22c-5,15.7-.52,31.16,10,34.53l.14,0,.11-3.88c.89-6.59,6.26-12,7.9-18.26,1.39-5.37-.45-8.2-2-12.93C103.41,78.38,105.77,70,108.34,64.22Z"/><path class="cls-6" d="M50.21,135.15c-2.67-2.24-5.16-4.7-7.68-7.11a38,38,0,0,1-5.11-5.27c-1.91-2.74-3-6-4.78-8.74-2.09-3.2-4.42-6.59-7.43-9s-5.36-11.19-5.36-11.19l-.79,3.46s-.63,3.63-.94,6.31a3.25,3.25,0,0,1-1.74,2.88,9.77,9.77,0,0,0,3,.74s2.05,11.66,5.51,15.13,21.75,12,29.16,15.92a26.59,26.59,0,0,0,4.78,2.42c-.93-.85-3.48-1.76-4.3-2.3A50.37,50.37,0,0,1,50.21,135.15Zm50.64-29.48c-1.73,4.25-3.78,12.6-5.2,17-1,3.18-3.91,6.38-6.44,8.5-1.13.95-2.25,1.51-3.07,2.81s-1.15,2.54-1.92,3.72c-.63,1-1.51,1.79-2.17,2.76a3,3,0,0,0,.84-.46,21.32,21.32,0,0,0,3.78-5.2s9.77-6.3,12.6-12.76c2.46-5.6,6.1-16.86,7.64-22l.38-.72.81-5.93C106.52,100.62,101.63,103.76,100.85,105.67Z"/><path class="cls-7" d="M63.55,142.08h-1C62.87,142.09,63.2,142.09,63.55,142.08Z"/><path class="cls-8" d="M73,138.88c-2.16-.23-2.58,1-4.26,1.93a9.6,9.6,0,0,1-2.57.94c2.1-.08,3.84-.37,5.25-.47s4.7,0,7.5-.2a9.67,9.67,0,0,1-2.14-.43C75.25,140.14,74.58,139.06,73,138.88Z"/><path class="cls-9" d="M54.52,126.62s4.89-2.2,5.83-4.09c0,0,12.14.79,17.18-.79l4.88,5.2s-9.77-2.52-26.79,0Z"/><path class="cls-10" d="M32.14,61.7S31.93,48,42.44,41.32A37.77,37.77,0,0,0,67,44.26c13.45-3.15,18.07-9.66,18.07-9.66s5,14.49,14.08,16.17a26.81,26.81,0,0,1,2.31,14.08L78.79,69.47l-27.74-.21Z"/><path class="cls-11" d="M22.06,79.56S20,68.63,23.32,64.85,29.83,59,31.09,53.51s9.67-13.66,12.4-13.66,12.82,6.3,25.84,2.52,16.6-11.14,16.6-11.14S90.34,47,100.22,49.72c0,0,3.36,6.52,2.31,16.39,0,0,1.47,7.15,2.94,7.78S109,68.21,108.84,67s.83-18.28.83-18.28-2.31-10.29-4.83-11.55-7.35-9.46-11.55-12.4a25.85,25.85,0,0,0-14.92-4.83c-5.67,0-18.91,3.36-27.53,5.46a123.85,123.85,0,0,0-22.48,8.4C26.26,35,21,39.43,19.54,43S13,56.24,12.6,60a14.53,14.53,0,0,0,1.26,8.4,32.75,32.75,0,0,1,1.69,6.73Z"/><path class="cls-12" d="M30.88,76.2s-10-2.21-6.3-9.77a11.25,11.25,0,0,1,9.56-4.2c6.41.31,17.12,2.52,17.12,2.52l4.52,2.83s3,6.31-2.52,9.46l-10-.63Z"/><path class="cls-13" d="M81,77.14s-5.35-4.51-2.73-9.66l4.1-3.15,5.78-2.1L92,62l3.78.21,2.41.63,2.32,1.36,2.1,2.31s1.47,7.88-3,9.67Z"/><path class="cls-14" d="M62.92,93.53a8.27,8.27,0,0,0-.31,3c.55,4.64,5.62,7.25,9.92,6.91,2.32-.19,4.56-1.13,5.49-3.37A9.53,9.53,0,0,0,77.11,92s-1.68-5.36-1.58-15l.53-3.57-13.76.11S64.08,81.14,63.87,85a54.8,54.8,0,0,1-.36,6C63.36,91.88,63.12,92.7,62.92,93.53Z"/><path class="cls-2" d="M62.82,92.8a20.11,20.11,0,0,1,14.71-1l-.11-1.15S69.54,88.49,62.51,92Z"/><path class="cls-15" d="M56.1,95.85c-.3-1.18-2.41-.86-3.26-.41-1.55.83-2.77,5.27-.07,4.92C54.51,100.14,56.55,97.6,56.1,95.85Z"/><path class="cls-16" d="M85,96.89c.18.71.15,3-.6,3.3-1,.43-2.28-2-2.64-2.64-.82-1.41-.12-2.91,1.62-2.35A2.51,2.51,0,0,1,85,96.89Z"/><path class="cls-17" d="M53.37,94.9c1.46-.87,3.3-.21,4.93-.63,1.91-.49,2.81-2.82,3.15-4.52a44.25,44.25,0,0,0,.87-6.62c.08-1.64.37-4.38-.68-5.78-1.3-1.71-4.73,1-5.94,1.9a21.62,21.62,0,0,0-6.33,7.13c-1.94,4-1.47,8.29,1.66,11.45a2.94,2.94,0,0,1,2-2.72Z"/><path class="cls-18" d="M82.47,94.69c-1,0-2.41-.25-3.24.3a34.82,34.82,0,0,1-1.49-4.3,34.12,34.12,0,0,1-.61-5,27.52,27.52,0,0,1,.19-5.22c.1-.64.15-1.92,1.05-1.9.57,0,1.7,1.41,2.1,1.79C83.29,83.09,87.09,85,88.14,89c.77,3,0,7.51-2.92,9.15-.31-1-.61-3.67-2.23-3.66Z"/><path class="cls-19" d="M53.37,78.3,51,78.61a27.37,27.37,0,0,1-11.14,2.63S48.53,82.71,53.37,78.3Z"/><path class="cls-20" d="M80.15,78.3l2,.31a19.14,19.14,0,0,0,9.07,2.63S84.09,82.71,80.15,78.3Z"/><path class="cls-21" d="M52.94,103a10.65,10.65,0,0,1,7.36-1.37c4.62.63,5.67,4.2,11.34,3.57a9.36,9.36,0,0,0,7.57-4.93l.1,1.57s3.47-1.26,5.36.21a2.39,2.39,0,0,1-1.78,2.21s-5.57,6.2-13.35,6-15.12-5.36-15.12-5.36A3.79,3.79,0,0,1,52.94,103Z"/><path d="M63.45,104.56c-1.79-1-5.46-1-5.46-1A4.32,4.32,0,0,0,63.45,104.56Zm14.6-.63-.63.74a5,5,0,0,0,4.63-1.47A6,6,0,0,0,78.05,103.93Z"/><path class="cls-22" d="M107.78,89.28c1-2.68,2.21-5.2,3.16-7.72.31,0,.47.31.78.47,0,0,.48,5.51-.78,7.41a42.73,42.73,0,0,0-2.74,5.25Z"/><path class="cls-23" d="M16.7,94.32a28.52,28.52,0,0,1-2-2.36c.16-3.47-.79-7.09-1.57-10.4-.95-4.73-6-7.1-6.15-.63,0,0,.21,5.77,1.05,8.09s2.73,3.78,3.78,5.67,2.52,5,3.79,5.46a2.38,2.38,0,0,0,2.1-.21L17,95.53Z"/><path class="cls-24" d="M16.7,94.32a28.52,28.52,0,0,1-2-2.36c.16-3.47-.79-7.09-1.57-10.4-.85-4.24-5-6.58-5.95-2.36,2.9-2.08,3.73,5.89,3.83,7.27.89-.7,1.88-.3,1.82.83-.71.29-.77.61-1,1.26,3.68,1,.61,7.25,4.59,8a3.73,3.73,0,0,0,.8.06L17,95.53Z"/><path class="cls-25" d="M54.47,104.49a6.65,6.65,0,0,1-1.2-1.17,8.82,8.82,0,0,1-1.77-3.16,5.22,5.22,0,0,1,0-3.27,3.61,3.61,0,0,1,2.94-2.17s0-.06,0-.06a3.8,3.8,0,0,0-3,1.78,5,5,0,0,0-.24,3.49,9.27,9.27,0,0,0,1.77,3.7,6.76,6.76,0,0,0,1.41,1.31,3.46,3.46,0,0,0,2.46.27,0,0,0,1,0,0,0A4.33,4.33,0,0,1,54.47,104.49Zm9.66.2a13,13,0,0,0-4.57-1.37,5.54,5.54,0,0,0-4.34.9s0,.1.06.07c1.27-.91,3.2-.75,4.66-.53a23.32,23.32,0,0,1,4.11,1.11A.1.1,0,0,0,64.13,104.69Zm19-1.34a5.67,5.67,0,0,0-4.77.41,5.59,5.59,0,0,0,.72-1.28c0-.07-.08-.1-.12,0a11.33,11.33,0,0,1-2.76,2.85,10.79,10.79,0,0,1-3.74,1.51,9.77,9.77,0,0,1-7.72-1.51s0,0,0,0a9.72,9.72,0,0,0,7.83,1.8,9.83,9.83,0,0,0,5.57-3,6.89,6.89,0,0,1,5-.59C83.16,103.49,83.18,103.38,83.11,103.35Zm2.37-4.59c-.08-1.8-.91-4.58-3.24-4.11,0,0,0,.08,0,.08,2.31-.19,2.84,2.38,2.89,4.19a9.21,9.21,0,0,1-.42,3,4.7,4.7,0,0,1-.54,1.13,3.55,3.55,0,0,1-1.52,1.3s0,0,0,0a3.28,3.28,0,0,0,2.31-2A8.72,8.72,0,0,0,85.48,98.76Zm-7.81-7.39c0,.1.41.64.35.51a9.33,9.33,0,0,1,.5,1.12,17.13,17.13,0,0,1,.68,7.26h0a16.68,16.68,0,0,0-.32-6.82A11,11,0,0,0,78.32,92a8.08,8.08,0,0,1-.61-2.09c-.24-1.36-.28-2.75-.49-4.11,0,0,0,0,0,0,.21,1.37.2,2.75.28,4.14A10.35,10.35,0,0,0,77.67,91.37Z"/><path class="cls-26" d="M77.23,81.45a0,0,0,1,0,0,0c0,1.16-.09,2.31-.1,3.47h0C77.12,83.76,77.24,82.61,77.23,81.45ZM5.61,87c0,.74,0,1.48.11,2.21,0-.4,0-.79-.07-1.19S5.62,87.36,5.61,87Zm0-3.7A41.63,41.63,0,0,1,6,78.45a18,18,0,0,1,.37-2A3,3,0,0,1,7,75.22a6.7,6.7,0,0,1,2-2.17H9A7.26,7.26,0,0,0,6.7,75.53a6.32,6.32,0,0,0-.78,2.91A49.2,49.2,0,0,0,5.61,87C5.58,85.77,5.6,84.53,5.63,83.32Zm106.71-1.2c-.23-1.22-.42-3-1.3-4-.13-.13-.33.07-.21.21a4.39,4.39,0,0,1,.74,1.7c.22.76.38,1.54.53,2.31a11.19,11.19,0,0,1,.36,3.4,25.41,25.41,0,0,1-2.22,7.32c-.93,2.19-2,4.31-3.09,6.42.08-.26.15-.52.23-.78a22.09,22.09,0,0,0,.81-6,19.39,19.39,0,0,0-.27-3.45c.46-1.27,1-2.52,1.51-3.77a21.5,21.5,0,0,0,.17,2.78,15.1,15.1,0,0,1-.09,3.36s0,0,0,0a19.45,19.45,0,0,0,0-6.46s0,0,0,0l.18-.41c.26-.62.53-1.24.79-1.87q.21-.51.39-1c.13-.38.65.13.78.21s.05,0,0,0a3,3,0,0,0-.77-.53s-.08,0-.09,0c-1.09,2.4-2.14,4.84-3.05,7.31a8.1,8.1,0,0,0-.93-2.41.06.06,0,0,0-.1.06,8.15,8.15,0,0,1,.94,2.61l-.07.16a.12.12,0,0,0,.12.16,17.91,17.91,0,0,1,.23,2.18,22.14,22.14,0,0,1-.43,5.74c-.2.92-.44,1.83-.71,2.74l-.21.4s0,0,0,0l.09-.17c-.41,1.33-.86,2.65-1.27,4q-1.59,5-3.34,10a57,57,0,0,1-3.58,9,29.75,29.75,0,0,1-7,7.84,51.91,51.91,0,0,1-4.91,3.68c-.11.07-.16.25-.22.36-.33.6-.69,1.2-1.06,1.78-.85,1.32-1.89,3-3.44,3.56a14.78,14.78,0,0,1-4.39.66c-1.51.07-3,.06-4.54.07-1.33,0-2.63.14-4,.28a30.72,30.72,0,0,1-6.5.11,17.8,17.8,0,0,1-6.13-2c-.88-.45-1.7-1-2.57-1.47-5.59-2.95-11.32-5.66-16.93-8.58-2.74-1.42-5.48-2.87-8.13-4.46a14.16,14.16,0,0,1-4.88-4,29.67,29.67,0,0,1-3.26-8.39q-.72-2.67-1.22-5.39v0s0,0,0,0a10.27,10.27,0,0,1-3.26-.85,5.09,5.09,0,0,1-2.26-1.56,38.64,38.64,0,0,1-1.93-3.93A21,21,0,0,0,8.77,96c-1-1.24-2.32-2.57-2.67-4.19a19.49,19.49,0,0,1-.38-2.56c.06.77.13,1.54.26,2.3a7.53,7.53,0,0,0,1.7,3.23,35.53,35.53,0,0,1,3.66,5c.83,1.55,1.42,3.23,2.26,4.78a5.61,5.61,0,0,0,3,2.11,10.12,10.12,0,0,0,2.6.65c.27,0,.2.11.26.4A67.78,67.78,0,0,0,21,114.39a22.27,22.27,0,0,0,3.38,7.53c1.22,1.54,3.19,2.57,4.85,3.56,5.68,3.37,11.65,6.25,17.55,9.2l4.11,2.07A32.66,32.66,0,0,1,54,138.36a20,20,0,0,0,8.51,3.34c3.52.4,6.94-.37,10.45-.39,2.86,0,5.93.18,8.71-.64a5.69,5.69,0,0,0,2.8-2.31,25.67,25.67,0,0,0,2.19-3.44c.12-.23.81-.58,1.1-.78,1-.68,1.92-1.4,2.85-2.14a37.61,37.61,0,0,0,7.1-7.16c1.79-2.49,2.76-5.51,3.8-8.36,2-5.48,3.87-11,5.5-16.65,2.46-4.43,5.21-9.19,5.72-14.29A12,12,0,0,0,112.34,82.12Z"/><path class="cls-27" d="M15.09,92.33c-.49-.63-.25-1.91-.31-2.7A29,29,0,0,0,14,84.91c-.52-2.16-.81-4.65-2.25-6.44C11,77.56,9.87,76.61,8.61,77c-1.53.45-1.7,2.66-1.71,4a0,0,0,1,0,.06,0c.09-1.4.4-3.88,2.27-3.88a3.35,3.35,0,0,1,2.53,1.65,0,0,0,0,0,0,0c.11,1.12.4,2.22.51,3.34a6.89,6.89,0,0,1-.59,3.69C10.88,87.51,9.74,89,9.6,91c0,0,0,0,0,0,.2-2.2,1.62-3.87,2.44-5.85s.4-4.25-.11-6.18a5.93,5.93,0,0,1,.45.8,14.08,14.08,0,0,1,.82,2.92c.3,1.27.55,2.54.78,3.82-3,.57-2.73,4.3-3.3,6.54h0c.33-1.19.44-2.42.74-3.62a3.69,3.69,0,0,1,.81-1.6A5.7,5.7,0,0,1,14,86.69c0,.12.05.23.06.35a25.63,25.63,0,0,1,.41,4.63c0,.48.29.63.6,1a22.62,22.62,0,0,0,1.6,1.65h0C16.13,93.69,15.6,93,15.09,92.33Zm.17,1c-2,.77-2.21,3.53-1.09,5.12,0,0,0,0,0,0-1-1.55-.83-4.24,1.11-5C15.39,93.41,15.35,93.27,15.26,93.3Z"/><path class="cls-28" d="M46,115.28a110.82,110.82,0,0,0,15.13,6.14s10.08,1,16.07-.63c0,0,4.1-2.36,5.68-3.3S89,114.65,89,114.65s-8.82.16-10.4.31-11.34.48-11.34.48l-11,.31-7.09-.16Z"/><path class="cls-29" d="M78.63,115c-1.58.16-11.34.48-11.34.48l-11,.31-7.09-.16L46,115.28s1.62.81,4,1.89H66.18c3.15,0,5.83.32,8.2-.32,2-.53,8.21-.61,10.81-.53,1.82-.83,3.84-1.67,3.84-1.67S80.21,114.81,78.63,115Z"/><path class="cls-29" d="M58.62,120.48l-.11.1c.88.3,1.77.59,2.63.84,0,0,10.08,1,16.07-.63l1.92-1.1h0C70.91,121.42,58.62,120.48,58.62,120.48Z"/><path class="cls-30" d="M65.76,118.12c-1.87-.08-3.73-.22-5.59-.4-1-.1-3.47-.8-4.08.45-.79,1.6,4.63,1.79,5.65,1.86,2.39.15,4.79,0,7.18,0a70.82,70.82,0,0,0,7.45-.32c.69-.08,4.79-1.33,4.24-2.34s-5.27,0-6,.13A44.13,44.13,0,0,1,65.76,118.12Z"/><path class="cls-29" d="M88.72,114c-1.11.16-5,.16-7.88.31s-5.68-.47-6.94-.31a13.33,13.33,0,0,0-3.44,1.4h0a11,11,0,0,0-3.29-1.09c-3.47,0-11.82,1.42-16.39,1a30.89,30.89,0,0,1-8.67-2.37,15.13,15.13,0,0,0,2.84,1.9c6,2,16.17,1.42,22.64,1.41l.68.32c.63.31,1.42.31,2.21.63a18.87,18.87,0,0,0,2.32-1c5.58-1.19,11-.74,16.43-1.36a7.53,7.53,0,0,0,2.36-2A10,10,0,0,1,88.72,114Z"/><path class="cls-31" d="M67.6,116.2c-2-.1-3.94,0-5.9,0-2.29,0-4.57,0-6.86-.13a52.23,52.23,0,0,1-6.49-.63,24.86,24.86,0,0,1-2.84-.65,5.93,5.93,0,0,1-1.53-.54,14.75,14.75,0,0,1-1.89-1.35,0,0,0,0,0,0,0c.45.38.93.74,1.41,1.07.24.16.47.31.71.45s.4.39.63.53a9.74,9.74,0,0,0,2.79.74,43,43,0,0,0,6.51.68c2.36.1,4.75.13,7.11,0,2.12-.1,4.26-.06,6.38-.17A0,0,0,0,0,67.6,116.2Zm23.89-3.5a13.17,13.17,0,0,1-1.73,1.52,4.36,4.36,0,0,1-2.34.66c-1.68.14-3.36.21-5,.27a56.81,56.81,0,0,0-9.12.89,6.41,6.41,0,0,0,.86-.7c.08-.07,0-.2-.1-.14a14.67,14.67,0,0,1-3.12,1.62,3.81,3.81,0,0,1-2.66-.3s0,0,0,0a7.08,7.08,0,0,0,1.42.44c.53.13.82.33,1.34.15a10.27,10.27,0,0,0,2.12-1,66.7,66.7,0,0,1,10.17-.88c1.78-.05,3.56-.12,5.33-.29a1.69,1.69,0,0,0,.69,0,4.77,4.77,0,0,0,.93-.6,7.86,7.86,0,0,0,1.41-1.58C91.68,112.72,91.56,112.63,91.49,112.7Z"/><path class="cls-32" d="M41.3,112.65a11.21,11.21,0,0,0,6.14.84l-1.08.63s3.45,1,5.6.32l1.72-.63-1.08.73s5.28.53,8.29-.63l1.83-.63-1,.84s4.3.42,5.81-.52l1.83-.53s.54-1,.65-1.36-1.94-2.31-1.94-2.31-4.52-.42-6-.32-9.57,1.37-12.26,1-4.74-.63-4.74-.63a23.83,23.83,0,0,0-1.51,2.31s-.32.63-3.12.11Z"/><path class="cls-33" d="M41.29,112.67a10,10,0,0,0,4.1.93,7.41,7.41,0,0,0,2-.08l-1,.58a0,0,0,0,0,0,.05,11.41,11.41,0,0,0,5,.48,11.64,11.64,0,0,0,2-.67c.31-.11.37-.23.06,0l-.83.57a0,0,0,0,0,0,.07,26,26,0,0,0,6.11-.1,16.63,16.63,0,0,0,3.18-.87l.63-.22c.15,0,.2-.16.11-.08l-.91.79s0,.06,0,.06a22.66,22.66,0,0,0,3.19.07,15,15,0,0,0,3.39-.81c.26-.08.9-.13,1.09-.32a4.53,4.53,0,0,0,.62-1.29c.25-.58-1.22-1.75-1.57-2.11-.5-.5-1-.4-1.7-.46-1.44-.12-2.89-.24-4.34-.22-1,0-2,.21-3,.33-1.6.21-3.21.4-4.83.56a26.51,26.51,0,0,1-4.54.2c-1.65-.12-3.31-.4-5-.65a.06.06,0,0,0,0,0c-.55.75-1,1.55-1.51,2.32s-2.54.17-3.07.08c-.05,0-.07.07,0,.07.8.15,2.37.56,3.1,0a4,4,0,0,0,.55-.89,13.25,13.25,0,0,1,1-1.49c1.47.23,3,.42,4.43.6a20.71,20.71,0,0,0,4.09,0c2.79-.23,5.56-.7,8.35-1a25.22,25.22,0,0,1,4,.13c.75,0,1.89-.09,2.4.42s.84.86,1.23,1.32c.16.18.51.52.41.79s-.3.66-.46,1c-.32.64-1.55.6-2.2.92a9.69,9.69,0,0,1-4.48.46c-.35,0-.71,0-1.06-.06.23,0,.75-.58,1-.78,0,0,0-.08,0-.06-.67.23-1.35.45-2,.69a14,14,0,0,1-4.37.67,32.64,32.64,0,0,1-3.28-.06l-.35,0c-.13,0-.08,0,0,0l1-.69s0-.08,0-.06l-1.59.58a6.73,6.73,0,0,1-2.89.26,13.61,13.61,0,0,1-2.61-.47c-.29-.07-.17,0,.08-.17l.79-.46s0-.06,0-.06a11.22,11.22,0,0,1-6.12-.82s0,0,0,0Z"/><path class="cls-34" d="M92.49,112.65a6.84,6.84,0,0,1-4.72.84l.82.63s-2.65,1-4.3.32L83,113.81l.83.73s-4.06.53-6.38-.63L76,113.28l.75.84s-3.31.42-4.47-.52l-1.41-.53s-.42-1-.5-1.36,1.49-2.31,1.49-2.31a38.81,38.81,0,0,1,4.64-.32c1.16.11,7.37,1.37,9.44,1s3.65-.63,3.65-.63a25.32,25.32,0,0,1,1.16,2.31s.25.63,2.4.11Z"/><path class="cls-35" d="M92.5,112.67a6.27,6.27,0,0,1-3.16.93,4.41,4.41,0,0,1-1.5-.08l.77.58a0,0,0,0,1,0,.05,6.86,6.86,0,0,1-3.86.48A7.73,7.73,0,0,1,83.2,114c-.23-.11-.28-.23,0,0l.64.57a0,0,0,0,1,0,.07,15.43,15.43,0,0,1-4.7-.1,10.7,10.7,0,0,1-2.45-.87l-.48-.22c-.12,0-.16-.16-.09-.08.24.26.47.52.7.79a0,0,0,0,1,0,.06,13.49,13.49,0,0,1-2.46.07,9.4,9.4,0,0,1-2.61-.81c-.2-.08-.69-.13-.84-.32a5.2,5.2,0,0,1-.47-1.29c-.19-.58.94-1.75,1.21-2.11s.74-.4,1.31-.46a26.64,26.64,0,0,1,3.34-.22,18.25,18.25,0,0,1,2.32.33c1.24.21,2.48.4,3.72.56a15.83,15.83,0,0,0,3.5.2,38.38,38.38,0,0,0,3.81-.65s0,0,0,0c.42.75.77,1.55,1.16,2.32s2,.17,2.36.08c0,0,.06.07,0,.07-.61.15-1.82.56-2.38,0a4.06,4.06,0,0,1-.42-.89,15.39,15.39,0,0,0-.77-1.49c-1.13.23-2.27.42-3.41.6a12.31,12.31,0,0,1-3.15,0c-2.15-.23-4.28-.7-6.43-1a14.91,14.91,0,0,0-3.06.13c-.58,0-1.46-.09-1.85.42s-.65.86-1,1.32c-.12.18-.39.52-.31.79s.23.66.36,1c.24.64,1.19.6,1.69.92a5.82,5.82,0,0,0,3.44.46c.28,0,.55,0,.82-.06-.18,0-.58-.58-.76-.78,0,0,0-.08,0-.06.52.23,1,.45,1.55.69a8.54,8.54,0,0,0,3.36.67,19.28,19.28,0,0,0,2.52-.06l.28,0c.09,0,.06,0,0,0l-.77-.69s0-.08,0-.06l1.23.58a4,4,0,0,0,2.22.26,8.38,8.38,0,0,0,2-.47c.22-.07.12,0-.06-.17l-.62-.46s0-.06,0-.06a6.87,6.87,0,0,0,4.71-.82s0,0,0,0Z"/><path class="cls-36" d="M19.38,104.41c.63.31,1.1.47,1.73.78l.95.48s-2.84-8.51-2.84-22.22A40.62,40.62,0,0,0,21.9,80s-3.15-13.55-1.58-16.86,5.68-5.83,7.25-9.46l-1.26.63s1.42,0,1.26-6.3c0,0-1.1-3.31.95-5.2S43.8,34.91,43.8,34.91a17.87,17.87,0,0,0,15.61-.31S53.73,39.8,41.91,37a36.76,36.76,0,0,0,31.36-.47,32.36,32.36,0,0,1-20,4.88S65.08,44.05,73.75,39A42.23,42.23,0,0,0,86.67,27.66S89,44.52,103.84,49.41c0,0,2.21,8.67,1.42,14.81s-.31,7.25-.31,7.25a63.54,63.54,0,0,1,.16,8.35c-.32,2.21,1.73,7.09,1.73,7.09a11.8,11.8,0,0,1,.31-4.41c.63-1.73,1.89-4.25,3.16-4.41l.78.31a62.16,62.16,0,0,1,1.11-11.66c1.1-4.57,2.52-17.8,2-22.85s-4.42-21.59-7.88-28.52A45.17,45.17,0,0,0,92.5,8.28s-3.63-4.41-5.2-5.52-24.43-5.51-49.64,3c0,0-19.23,6.62-31.36,23.64,0,0-1.1,15.91-.16,26S8,72.42,8,72.42l-.15,1.73a5.35,5.35,0,0,1,2.52-.63c1.89-.16,3.46.79,4.25,3.15a49.77,49.77,0,0,1,2.68,10.87c.32,3.94.32,12.14,1.89,16.71Z"/><path class="cls-37" d="M71.18,20.79c-3,.63-6.64,1.23-9.42-.27a23.11,23.11,0,0,0-7.15-2.79C50.55,17,37,19.2,35.71,13.58c-.83-3.57,4.14-6.84,6.1-8.82L31.3,9c-.54,1.47-3.5,2.7-4.6,4.17A7.52,7.52,0,0,1,29.38,13c-.21,1.91-2.68,3.49-1.45,5.59,1.37,2.33,5.75,1.83,7.94,1.74,3.84-.16,5.41-.53,8,2.3s5.74,3.74,9.65,3.38a39.17,39.17,0,0,0,8.85-2.34c1.11-.37,3.24-1.33,4.4-1.26.84.05,1.34.73,2.11.85,1.23.18,1.9-.36,3.15-.79,2.88-1,4.61-1.43,7.14-.32,2.27,1,2.9.16,5.25-.62a8.15,8.15,0,0,0,1.26-.81c.29.49.77.72.84,1.43a18,18,0,0,1,1.24-3.48,9.29,9.29,0,0,1-2.67,1C83.34,16.27,73.82,20.22,71.18,20.79Zm34.26-5.49a13,13,0,0,1-2.67-.94,3.93,3.93,0,0,1,.78,3.18c-3.34-.41-3.61,2.14-6.06,3.67-2.16,1.34-4.39-.18-6.09-1.74l-.85.21A7.35,7.35,0,0,1,90,22.34c.21-.38.54-.51.8-.79,1.87,1.53,3,4.72,5.9,3,1.37-.82,1.45-2,3.3-2.32,1.56-.29,3,.37,4.43.39.12-2.46-.34-4.81,2.94-3.78A10.1,10.1,0,0,1,105.44,15.3Z"/><path class="cls-38" d="M62.51,21.62c1.21,0,2.43.05,3.65.05A9,9,0,0,0,62.51,21.62ZM47.7,18.89C44,17.8,40.17,17.67,36.57,16.73c-5.14-1.34-4.22-5.88-1.06-9.24L29.2,10.64c5.49.4-.57,5.81,2.52,7.58,1.16.66,4.56.2,5.94.2a18.62,18.62,0,0,1,5.83.63C48,20.51,49.55,24.22,55,23.51c2.61-.35,5-1.47,7.51-1.89-1.16,0-2.31-.05-3.47-.05C54.78,21.57,51.73,20.07,47.7,18.89Zm29.83,1c-2.68.25-5.13,1.51-7.78,1.68-1.2.07-2.4.1-3.59.1.2,0,.4.1.6.16,3.89,1.23,5.19-1,8.88-1.31s6.07,2.75,9-.6C82.57,20.87,79.91,19.67,77.53,19.89Zm26.73-4.18c0,1.73-.1,2.72-1.52,3.34-1.7.73-2.52.35-4.16,1.72-2.36,2-4.79,3.05-7.18,0l.84,1.68c2.35,1.31,2.8,2.23,5.1.26,1.54-1.32,3.85-2.48,5.77-.92.6-1.57,1.47-4,3.4-4.22A9.46,9.46,0,0,0,104.26,15.71Z"/><path class="cls-39" d="M66.18,40.9a22.82,22.82,0,0,0,12-9.67c-12,10.51-26.69,7.57-26.69,7.57C63.24,37.12,72.7,24.09,72.7,24.09,53.16,42.37,42,32.28,42,32.28c-2.07-.57-3.76-2.2-5.88-2.52-3.32-.51-6.39,1.22-9.62,1.49-4.15.34-5.53-.78-8-3.6-2.25-2.52-4.28,0-7.12.19.1-1.63,1.43-3.09,2.07-4.59l-.09-2a59.65,59.65,0,0,0-7,8.17s-1.1,15.91-.16,26S8,72.42,8,72.42l-.15,1.73a5.35,5.35,0,0,1,2.52-.63c1.89-.16,3.46.79,4.25,3.15a49.77,49.77,0,0,1,2.68,10.87c.32,3.94.32,12.14,1.89,16.71l.16.16c.63.31,1.1.47,1.73.78l.95.48s-2.84-8.51-2.84-22.22A40.62,40.62,0,0,0,21.9,80s-3.15-13.55-1.58-16.86,5.68-5.83,7.25-9.46l-1,.51a.47.47,0,0,1-.26.12l.26-.12c.4-.34,1.12-1.59,1-6.18,0,0-1.1-3.31.95-5.2S43.8,34.91,43.8,34.91a17.87,17.87,0,0,0,15.61-.31S53.73,39.8,41.91,37a36.76,36.76,0,0,0,31.36-.47,32.36,32.36,0,0,1-20,4.88S65.08,44.05,73.75,39A43.89,43.89,0,0,0,86.13,28.39l-1,.74C79,36.7,66.18,40.9,66.18,40.9Zm48.07,3a98.93,98.93,0,0,0-2.45-12.08c-.56.9-1.45,2.27-2.34,3.42-1.46,1.89-.83,8.82-3.15,9s-2.1,3.78-2.1,3.78C93.92,45.73,87.4,30.6,87.4,30.6l-.34-1c1.13,4.56,5,16,16.78,19.82,0,0,2.21,8.67,1.42,14.81s-.31,7.25-.31,7.25a63.54,63.54,0,0,1,.16,8.35c-.32,2.21,1.73,7.09,1.73,7.09a11.8,11.8,0,0,1,.31-4.41c.63-1.73,1.89-4.25,3.16-4.41l.78.31a62.16,62.16,0,0,1,1.11-11.66C113.3,62.17,114.72,48.94,114.25,43.89Z"/><path class="cls-40" d="M114.25,43.89c-.48-5-4.42-21.59-7.88-28.52A45.17,45.17,0,0,0,92.5,8.28s-3.63-4.41-5.2-5.52-24.43-5.51-49.64,3c0,0-19.23,6.62-31.36,23.64,0,0-1.1,15.91-.16,26,.32,3.39.64,6.42.92,9l.29-.14s-1.89-27.1.21-33.83c0,0,11.56-18.28,34.25-24.58s45-2.31,45-2.31l4.63,5a109.77,109.77,0,0,1-3.79,15.13s3.79-9,4.84-14.5a44.67,44.67,0,0,1,12.81,6.73S112,30.81,113,43.63s-1.47,26.47-1.47,26.47h0a31.37,31.37,0,0,1,.59-3.37C113.3,62.17,114.72,48.94,114.25,43.89Z"/><path class="cls-41" d="M19.34,104.48c.88.43,1.79.82,2.67,1.26.07,0,.16,0,.13-.1a60.36,60.36,0,0,1-2.4-13.06c-.22-2.24-.34-4.49-.4-6.73,0-.6,0-1.2,0-1.79,0-.33-.08-.49.13-.73.47-.55.92-1.12,1.36-1.69s.67-.9,1-1.36c0-.06.21-.21.18-.33s-.07-.32-.1-.48c-.19-.84-.37-1.69-.54-2.54A50.18,50.18,0,0,1,20,65.36a6.5,6.5,0,0,1,.35-2.06A11.32,11.32,0,0,1,22.67,60c1.79-2,3.86-3.81,5-6.3a.09.09,0,0,0-.12-.12l-1.26.63a.09.09,0,0,0,0,.16c.87,0,1.11-2,1.19-2.47a21.48,21.48,0,0,0,.17-2.26,6.78,6.78,0,0,0-.08-1.91,5.39,5.39,0,0,1,.46-4.27,6.47,6.47,0,0,1,2.34-1.83c1.07-.63,2.18-1.21,3.29-1.78,2.42-1.25,4.88-2.42,7.34-3.57l2.67-1.23c.23-.1,0-.1.26,0,.46.21.93.39,1.41.56a17.86,17.86,0,0,0,14.09-1,1.71,1.71,0,0,1-.11-.14,11.91,11.91,0,0,1-4.2,2.2,24.16,24.16,0,0,1-13.2.14c-.1,0-.17.12-.07.17a31.57,31.57,0,0,0,9.69,2.87,36.65,36.65,0,0,0,21.76-3.35l-.09-.15a26,26,0,0,1-5.68,2.84,31.79,31.79,0,0,1-14.29,2c-.1,0-.12.16,0,.18a33.38,33.38,0,0,0,15-.16A29,29,0,0,0,79,35.59a42.1,42.1,0,0,0,6.69-6.45c.38-.46.76-.93,1.1-1.43l-.17,0a29.51,29.51,0,0,0,2.52,8,25.9,25.9,0,0,0,11.4,12.43,20.79,20.79,0,0,0,2.1,1c.39.15,1.11.18,1.21.59.24,1,.44,2,.62,3a39.87,39.87,0,0,1,.79,11.16c-.18,1.85-.45,3.69-.5,5.55a9.45,9.45,0,0,0,.09,2,34,34,0,0,1,.3,5.28c0,1.92-.28,3.8.13,5.69a26.47,26.47,0,0,0,1.51,4.64c0,.09.2.09.18,0a10.07,10.07,0,0,1,.47-4.78A11.07,11.07,0,0,1,109.13,79c.2-.23.83-.94,1.18-.8l.76.31a.1.1,0,0,0,.12-.1,69.86,69.86,0,0,1,.42-7.51c.33-3,1.11-6,1.54-9,.48-3.36.83-6.74,1.07-10.13a46,46,0,0,0,.08-8.3A69,69,0,0,0,112.9,36q-1.16-5.16-2.65-10.23a78.89,78.89,0,0,0-3.15-9A3.78,3.78,0,0,0,106,15c-.89-.66-1.81-1.27-2.74-1.86a50.86,50.86,0,0,0-4.8-2.65q-1.29-.62-2.61-1.14c-.5-.2-1-.39-1.52-.56l-.77-.26c-.2-.07-.9-.16-1-.31A40.36,40.36,0,0,0,87.74,3a6.68,6.68,0,0,0-3-1.1,59,59,0,0,0-6.75-1A99.38,99.38,0,0,0,55.4,1.5a98.17,98.17,0,0,0-14.21,3c-1.64.48-3.27,1-4.85,1.61A69.93,69.93,0,0,0,7.59,27.49c-.51.66-1.36,1.37-1.41,2.24S6.08,31.27,6,32c-.16,3-.28,6.09-.34,9.14-.08,3.77-.07,7.54.13,11.3.22,4.22.74,8.45,1.22,12.65q.35,3.14.75,6.26a11.6,11.6,0,0,1,0,2.76.11.11,0,0,0,.16.09,5.47,5.47,0,0,1,3.23-.62c1.83.11,2.91,1.63,3.44,3.23a50.29,50.29,0,0,1,2.55,9.93c.71,5.8.07,11.87,2,17.5,0,.12.24.07.2-.06-1.19-3.53-1.37-7.4-1.58-11.09-.09-1.65-.15-3.31-.26-5a32.65,32.65,0,0,0-1-5.81c-.46-1.82-1.05-3.62-1.64-5.4a4.86,4.86,0,0,0-2.61-3.3,5.81,5.81,0,0,0-4.14.25,1.91,1.91,0,0,0-.28.15c.17-.12.14.21.16,0l0-.36a6,6,0,0,0,.11-1.26c-.81-6-1.5-12-2-18a164.44,164.44,0,0,1,0-21.06c.05-1,.1-2,.16-3,0-.24,0-.49,0-.73,0-.4.37-.67.6-1a61.3,61.3,0,0,1,8.33-9.09,74.13,74.13,0,0,1,16-10.89,58.69,58.69,0,0,1,9.88-3.91,100.28,100.28,0,0,1,27-4A73.81,73.81,0,0,1,85,2.15a17.39,17.39,0,0,1,1.75.48A4.93,4.93,0,0,1,88.49,4c1.05,1,2,2.14,3,3.25.29.33.57.67.85,1s1,.43,1.48.58a43.06,43.06,0,0,1,10.39,5.16c.7.46,1.39.94,2.06,1.45.27.21.42.81.56,1.12q.48,1.08.9,2.19a125.49,125.49,0,0,1,5.53,19.7,41.05,41.05,0,0,1,1,7,80.75,80.75,0,0,1-.46,9.58c-.31,3.28-.69,6.56-1.27,9.8-.24,1.37-.59,2.71-.81,4.07a53.47,53.47,0,0,0-.55,5.36c-.08,1.29-.12,2.58-.14,3.87v.3c0,.11,0-.1.09-.06l-.43-.17a1,1,0,0,0-1.12.2,9.26,9.26,0,0,0-2.6,4.55,10.52,10.52,0,0,0-.2,4l.19,0c-.36-.86-.67-1.75-1-2.63a10.93,10.93,0,0,1-.77-4.44,43.23,43.23,0,0,0-.13-8,26,26,0,0,1-.13-3.31c.1-2,.44-3.91.55-5.87a35,35,0,0,0-.23-5.79,58.47,58.47,0,0,0-1.3-7.42c-.07-.28-.47-.28-.71-.36A24.05,24.05,0,0,1,100.59,48a22.79,22.79,0,0,1-4.18-2.77,28.75,28.75,0,0,1-8.58-13.25,25.39,25.39,0,0,1-1.07-4.29c0-.09-.13-.08-.17,0a28.34,28.34,0,0,1-3.14,3.69A45.18,45.18,0,0,1,74,38.78c-5.81,3.46-13.17,3.79-19.71,2.69l-1-.19a1.1,1.1,0,0,1,0,.18,32.17,32.17,0,0,0,14.34-2,25.54,25.54,0,0,0,5.72-2.87.09.09,0,0,0-.09-.15,36.75,36.75,0,0,1-22,3.27A30.92,30.92,0,0,1,42,36.88c0,.06-.05.11-.07.17A24.9,24.9,0,0,0,55.05,37a12.12,12.12,0,0,0,4.42-2.29c.08-.07,0-.19-.11-.14a17.68,17.68,0,0,1-12.49,1.39,16.36,16.36,0,0,1-2.83-1c-.28-.12-.33-.06-.61.06-4.32,2-8.66,4-12.79,6.31A7.87,7.87,0,0,0,28,43.22a5.48,5.48,0,0,0-.61,4.49,9.39,9.39,0,0,1,.06,2.65A11.55,11.55,0,0,1,27.08,53c-.09.3-.37,1.16-.77,1.17,0,0,0,.11.05.16l1.26-.63-.12-.12c-1.58,3.51-5,5.62-7,8.9-1.12,1.91-.78,4.46-.58,6.55a80.87,80.87,0,0,0,1.24,8c.17.82.34,1.65.52,2.47l.09.41c0,.15-.72,1-.84,1.14-.36.49-.74,1-1.12,1.44l-.68.81c-.08.09,0,.3,0,.37,0,.5,0,1,0,1.51,0,1.94.13,3.88.28,5.81a86.84,86.84,0,0,0,1.16,8.82c.31,1.66.67,3.31,1.13,4.93.08.28.16.57.25.85,0,0,.17-.06.05-.12l-.58-.29c-.66-.33-1.35-.61-2-.93a.09.09,0,0,0-.08.15Z"/><path d="M30.78,76.2a18.43,18.43,0,0,1,3.78-2.63c1.68-.73,7.35-1.57,15.34-.73,0,0,2.73,1.57,3.36,4Z"/><path class="cls-42" d="M49.63,73.52c-4.72-.32-10.55-.63-15.12.79a21.25,21.25,0,0,0-3.79,1.89l2.21.47c5,1.73,11.51,1.73,19.86.63l.47-.31a7.4,7.4,0,0,0-3.15-3.47Z"/><path class="cls-43" d="M46.23,74.47a4.83,4.83,0,0,0-.15-1.15,42.75,42.75,0,0,0-9.28.43,4.28,4.28,0,0,0-.06.72,4.74,4.74,0,0,0,1.38,3.34,43.69,43.69,0,0,0,6.49.22A4.73,4.73,0,0,0,46.23,74.47Z"/><path class="cls-44" d="M45.68,74.47a4.09,4.09,0,0,0-.17-1.17,43.19,43.19,0,0,0-8.14.35,4.47,4.47,0,0,0-.08.82,4.19,4.19,0,0,0,1.8,3.44,42.12,42.12,0,0,0,4.57.14A4.19,4.19,0,0,0,45.68,74.47Z"/><path d="M39.34,73.23A2.44,2.44,0,0,0,39,74.47a2.48,2.48,0,0,0,5,0A2.5,2.5,0,0,0,43.5,73C42.11,73.14,40.71,73.24,39.34,73.23Z"/><path class="cls-45" d="M43.24,74.47a1.75,1.75,0,1,1-1.76-1.75A1.75,1.75,0,0,1,43.24,74.47Z"/><path class="cls-42" d="M41.48,74.37a1,1,0,0,0,1-1s0-.06,0-.09c-.68,0-1.35,0-2,.07v0A1,1,0,0,0,41.48,74.37Z"/><path class="cls-42" d="M42,76.89a.49.49,0,1,1-.49-.49A.48.48,0,0,1,42,76.89Z"/><path d="M30.74,76.21c.74-.43,1.5-.83,2.29-1.21.4-.19.82-.36,1.24-.53a1.85,1.85,0,0,1,.47,0,2.61,2.61,0,0,0,.55-.14,26.36,26.36,0,0,1,4.83-.74,77.36,77.36,0,0,1,9.51.09c.21,0,.2-.3,0-.32a63.52,63.52,0,0,0-10-.22,25.48,25.48,0,0,0-4.67.8,12.86,12.86,0,0,0-1.71.84,18.45,18.45,0,0,0-2.49,1.4s0,0,0,0Z"/><path d="M50.05,73.61A8.32,8.32,0,0,1,53.19,77c0,.08.17,0,.14,0a7.61,7.61,0,0,0-3.17-3.54c-.11-.08-.22.1-.11.18Z"/><path class="cls-46" d="M32.92,76.72a29.87,29.87,0,0,0,8.7,1.4A53.88,53.88,0,0,0,47,78a38.71,38.71,0,0,0,5.79-.64.05.05,0,0,0,0-.1c-1.93.08-3.86.42-5.78.56-1.71.13-3.43.19-5.15.18A28.93,28.93,0,0,1,33,76.62a.05.05,0,1,0,0,.1Z"/><path d="M99.69,76.2a15.93,15.93,0,0,0-3.16-2.63c-1.41-.73-6.15-1.57-12.82-.73a7.48,7.48,0,0,0-2.81,4Z"/><path class="cls-42" d="M83.93,73.52c3.95-.32,8.82-.63,12.64.79a16.19,16.19,0,0,1,3.16,1.89l-1.84.47c-4.22,1.73-9.61,1.73-16.59.63L80.9,77a7.11,7.11,0,0,1,2.64-3.47Z"/><path class="cls-47" d="M92.66,74.47a5.22,5.22,0,0,0-.11-1.06,45.53,45.53,0,0,0-8.44.1,5,5,0,0,0-.09,1,4.93,4.93,0,0,0,1.27,3.35,38.84,38.84,0,0,0,5.9.2A4.93,4.93,0,0,0,92.66,74.47Z"/><path class="cls-48" d="M92.16,74.47A4.44,4.44,0,0,0,92,73.36a45.32,45.32,0,0,0-7.39.11,4.64,4.64,0,0,0-.12,1,4.31,4.31,0,0,0,1.64,3.43,37.47,37.47,0,0,0,4.16.15A4.26,4.26,0,0,0,92.16,74.47Z"/><path d="M86.52,73a2.6,2.6,0,0,0-.44,1.47,2.26,2.26,0,1,0,4.51,0,2.6,2.6,0,0,0-.39-1.4A19.65,19.65,0,0,1,86.52,73Z"/><path class="cls-49" d="M89.93,74.47a1.6,1.6,0,1,1-1.59-1.75A1.67,1.67,0,0,1,89.93,74.47Z"/><path class="cls-42" d="M88.34,74.37a1,1,0,0,0,.92-1,.38.38,0,0,0,0-.1c-.61,0-1.23,0-1.83,0,0,0,0,0,0,.06A1,1,0,0,0,88.34,74.37Z"/><path class="cls-42" d="M88.78,76.89a.45.45,0,1,1-.44-.49A.47.47,0,0,1,88.78,76.89Z"/><path d="M99.72,76.21c-.62-.43-1.26-.83-1.91-1.21-.34-.19-.69-.36-1-.53a1.34,1.34,0,0,0-.4,0,1.81,1.81,0,0,1-.45-.14,18.66,18.66,0,0,0-4-.74,54.09,54.09,0,0,0-7.95.09c-.17,0-.16-.3,0-.32a44.5,44.5,0,0,1,8.4-.22,18.27,18.27,0,0,1,3.9.8,10,10,0,0,1,1.42.84,14.94,14.94,0,0,1,2.09,1.4s0,0,0,0Z"/><path d="M83.58,73.61A8,8,0,0,0,81,77c0,.08-.14,0-.12,0a7.35,7.35,0,0,1,2.65-3.54c.1-.08.18.1.09.18Z"/><path class="cls-46" d="M97.9,76.72a21.23,21.23,0,0,1-7.27,1.4,37.58,37.58,0,0,1-4.5-.13,27.2,27.2,0,0,1-4.84-.64c-.05,0,0-.1,0-.1,1.61.08,3.22.42,4.83.56,1.43.13,2.86.19,4.3.18a20.6,20.6,0,0,0,7.45-1.37c.05,0,.07.08,0,.1Z"/><path class="cls-50" d="M24.47,66.53S27.84,63.28,32,63A47.11,47.11,0,0,1,43.7,64c.74.32,6.83,3.89,12.19,3.57a7.61,7.61,0,0,0-2.1-5.25,65.82,65.82,0,0,0-17.44-1.26C26.16,61.6,24.47,66.53,24.47,66.53Z"/><path class="cls-51" d="M102.74,66.53s-2.63-3.25-5.92-3.57A29.09,29.09,0,0,0,87.7,64c-.58.32-5.35,3.89-9.54,3.57a9,9,0,0,1,1.64-5.25,40.79,40.79,0,0,1,13.65-1.26C101.43,61.6,102.74,66.53,102.74,66.53Z"/></g></g></svg>