<svg xmlns="http://www.w3.org/2000/svg" xmlns:xlink="http://www.w3.org/1999/xlink" viewBox="0 0 158.97 196.01"><defs><style>.cls-1{fill:url(#linear-gradient);}.cls-2{fill:url(#linear-gradient-2);}.cls-3{fill:url(#linear-gradient-3);}.cls-4{fill:#924c2f;}.cls-5{fill:url(#radial-gradient);}.cls-6{fill:url(#radial-gradient-2);}.cls-7{fill:url(#radial-gradient-3);}.cls-8{fill:url(#linear-gradient-4);}.cls-9{fill:url(#linear-gradient-5);}.cls-10{fill:url(#linear-gradient-6);}.cls-11{fill:url(#linear-gradient-7);}.cls-12{fill:url(#linear-gradient-8);}.cls-13{fill:url(#linear-gradient-9);}.cls-14{fill:url(#linear-gradient-10);}.cls-15{fill:url(#linear-gradient-11);}.cls-16{fill:url(#linear-gradient-12);}.cls-17{fill:url(#linear-gradient-13);}.cls-18{fill:url(#radial-gradient-4);}.cls-19{fill:url(#linear-gradient-14);}.cls-20{fill:url(#linear-gradient-15);}.cls-21{fill:url(#linear-gradient-16);}.cls-22{fill:#642910;}.cls-23{fill:url(#linear-gradient-17);}.cls-24{fill:url(#linear-gradient-18);}.cls-25{fill:#93322d;}.cls-26{fill:#842928;}.cls-27{fill:url(#radial-gradient-5);}.cls-28{fill:#60201d;}.cls-29{fill:url(#linear-gradient-19);}.cls-30{fill:url(#linear-gradient-20);}.cls-31{fill:#221009;}.cls-32{fill:#fff;}.cls-33{fill:url(#linear-gradient-21);}.cls-34{fill:url(#linear-gradient-22);}.cls-35{fill:url(#linear-gradient-23);}.cls-36{fill:url(#linear-gradient-24);}.cls-37{fill:url(#linear-gradient-25);}.cls-38{fill:url(#linear-gradient-26);}.cls-39{fill:url(#linear-gradient-27);}.cls-40{fill:url(#linear-gradient-28);}</style><linearGradient id="linear-gradient" x1="79.63" y1="189.93" x2="79.63" y2="148.73" gradientUnits="userSpaceOnUse"><stop offset="0" stop-color="#924c2f"/><stop offset="1" stop-color="#773519"/></linearGradient><linearGradient id="linear-gradient-2" x1="87.3" y1="12.81" x2="70.96" y2="138.5" gradientUnits="userSpaceOnUse"><stop offset="0" stop-color="#270b04"/><stop offset="1"/></linearGradient><linearGradient id="linear-gradient-3" x1="87.63" y1="12.79" x2="71.43" y2="137.38" gradientUnits="userSpaceOnUse"><stop offset="0" stop-color="#4f1d10"/><stop offset="1" stop-color="#280f08"/></linearGradient><radialGradient id="radial-gradient" cx="590.54" cy="701.88" r="46.67" gradientTransform="translate(-103.21 -37.02) scale(0.33 0.25)" gradientUnits="userSpaceOnUse"><stop offset="0" stop-color="#b86947"/><stop offset="1" stop-color="#924c2f"/></radialGradient><radialGradient id="radial-gradient-2" cx="626.23" cy="271.29" r="46.62" gradientTransform="matrix(0.14, 0.38, -0.29, 0.1, 45.02, -145.84)" xlink:href="#radial-gradient"/><radialGradient id="radial-gradient-3" cx="611.95" cy="-149.85" r="46.63" gradientTransform="matrix(-0.14, 0.38, -0.29, -0.11, 166.45, -129.19)" xlink:href="#radial-gradient"/><linearGradient id="linear-gradient-4" x1="88.58" y1="42.22" x2="88.58" y2="87.58" gradientTransform="matrix(1, 0, 0, 1, 0, 0)" xlink:href="#radial-gradient"/><linearGradient id="linear-gradient-5" x1="84.71" y1="95.74" x2="84.71" y2="63.89" xlink:href="#linear-gradient"/><linearGradient id="linear-gradient-6" x1="84.89" y1="160.6" x2="84.89" y2="108.18" xlink:href="#linear-gradient"/><linearGradient id="linear-gradient-7" x1="93.22" y1="144.74" x2="93.22" y2="104.63" gradientTransform="matrix(1, 0, 0, 1, 0, 0)" xlink:href="#radial-gradient"/><linearGradient id="linear-gradient-8" x1="80.14" y1="119.79" x2="83.19" y2="122.44" gradientTransform="matrix(1, 0, 0, 1, 0, 0)" xlink:href="#radial-gradient"/><linearGradient id="linear-gradient-9" x1="103.58" y1="120.4" x2="101.49" y2="122.29" gradientTransform="matrix(1, 0, 0, 1, 0, 0)" xlink:href="#radial-gradient"/><linearGradient id="linear-gradient-10" x1="78.58" y1="108.43" x2="93.9" y2="121.01" xlink:href="#linear-gradient"/><linearGradient id="linear-gradient-11" x1="102.94" y1="109.31" x2="89.74" y2="116.54" xlink:href="#linear-gradient"/><linearGradient id="linear-gradient-12" x1="65.34" y1="101.11" x2="65.34" y2="90.91" xlink:href="#linear-gradient"/><linearGradient id="linear-gradient-13" x1="111.14" y1="101.22" x2="111.14" y2="91.04" xlink:href="#linear-gradient"/><radialGradient id="radial-gradient-4" cx="621.25" cy="770.9" r="56.92" gradientTransform="translate(-62.49 -37.02) scale(0.25)" gradientUnits="userSpaceOnUse"><stop offset="0" stop-color="#773519"/><stop offset="1" stop-color="#924c2f"/></radialGradient><linearGradient id="linear-gradient-14" x1="41.93" y1="120.65" x2="40.4" y2="115.49" xlink:href="#linear-gradient"/><linearGradient id="linear-gradient-15" x1="128.76" y1="115.9" x2="125.06" y2="115.02" xlink:href="#linear-gradient"/><linearGradient id="linear-gradient-16" x1="42.84" y1="119.88" x2="41.61" y2="116.71" gradientUnits="userSpaceOnUse"><stop offset="0" stop-color="#7d3a1c"/><stop offset="1" stop-color="#62230c"/></linearGradient><linearGradient id="linear-gradient-17" x1="92.01" y1="139.11" x2="92.01" y2="130.01" xlink:href="#linear-gradient"/><linearGradient id="linear-gradient-18" x1="91.75" y1="82.1" x2="91.75" y2="18.18" gradientUnits="userSpaceOnUse"><stop offset="0" stop-color="#642910"/><stop offset="1" stop-color="#924c2f"/></linearGradient><radialGradient id="radial-gradient-5" cx="633.12" cy="756.92" r="46.92" gradientTransform="translate(-60.89 -37.02) scale(0.24 0.25)" gradientUnits="userSpaceOnUse"><stop offset="0" stop-color="#a54c42"/><stop offset="1" stop-color="#93322d"/></radialGradient><linearGradient id="linear-gradient-19" x1="62.5" y1="80.42" x2="65.42" y2="89.83" gradientUnits="userSpaceOnUse"><stop offset="0" stop-color="#511903"/><stop offset="1"/></linearGradient><linearGradient id="linear-gradient-20" x1="1348.96" y1="80.42" x2="1351.88" y2="89.82" gradientTransform="matrix(-0.66, 0, 0, 1, 1008.04, 0)" xlink:href="#linear-gradient-19"/><linearGradient id="linear-gradient-21" x1="64.85" y1="103.07" x2="64.85" y2="95.94" gradientUnits="userSpaceOnUse"><stop offset="0" stop-color="#290c00"/><stop offset="1"/></linearGradient><linearGradient id="linear-gradient-22" x1="64.85" y1="103.07" x2="64.85" y2="95.94" gradientUnits="userSpaceOnUse"><stop offset="0.01" stop-color="#381406"/><stop offset="1" stop-color="#390501"/></linearGradient><linearGradient id="linear-gradient-23" x1="64.85" y1="99.55" x2="64.85" y2="101.4" gradientUnits="userSpaceOnUse"><stop offset="0"/><stop offset="1" stop-color="#45413a"/></linearGradient><linearGradient id="linear-gradient-24" x1="67.28" y1="103" x2="62.77" y2="102.39" gradientUnits="userSpaceOnUse"><stop offset="0" stop-color="#8c5d40"/><stop offset="1"/></linearGradient><linearGradient id="linear-gradient-25" x1="136.09" y1="103.07" x2="136.09" y2="95.94" gradientTransform="translate(-25.94)" xlink:href="#linear-gradient-21"/><linearGradient id="linear-gradient-26" x1="136.09" y1="103.07" x2="136.09" y2="95.94" gradientTransform="translate(-25.94)" xlink:href="#linear-gradient-22"/><linearGradient id="linear-gradient-27" x1="136.09" y1="99.55" x2="136.09" y2="101.4" gradientTransform="translate(-25.94)" xlink:href="#linear-gradient-23"/><linearGradient id="linear-gradient-28" x1="978.88" y1="103.03" x2="975.13" y2="102.52" gradientTransform="matrix(-1, 0, 0, 1, 1087.91, 0)" xlink:href="#linear-gradient-24"/></defs><g id="Layer_2" data-name="Layer 2"><g id="_7_Face" data-name="7_Face"><path d="M86.13,196c-42.36,0-58.91-11.08-59.07-11.2a.5.5,0,0,1,.09-.87c.19-.08,19.7-8.09,21.92-14.15s1.63-38.19,1.62-38.51a.53.53,0,0,1,.14-.37.47.47,0,0,1,.32-.14h0L111.12,135a.48.48,0,0,1,.34.18.53.53,0,0,1,.09.39c0,.25-3.91,24.6-.36,33.51s20.74,15.14,20.91,15.21a.46.46,0,0,1,.31.42.49.49,0,0,1-.24.48c-.18.1-19.08,10.82-46,10.82Z"/><path class="cls-1" d="M27.31,184.4S47.18,176.31,49.5,170s1.65-38.71,1.65-38.71l59.94,4.23s-4,24.63-.33,33.78S132,184.75,132,184.75s-18.67,10.77-45.82,10.77C43.41,195.52,27.31,184.4,27.31,184.4Z"/><path d="M158.68,67.3c-1.5-2.81-8.55-3.43-8.85-3.45-.48,0-.91-.06-1.32-.06a9.79,9.79,0,0,0-1.59.12l-.29.06-.1-.09-.21-.17a4.36,4.36,0,0,0-1.85-.59,6.54,6.54,0,0,0-.89-.06,10.71,10.71,0,0,0-3.6.71,7.91,7.91,0,0,0-1.65.81l-.11.07,0,0-.07,0-.65-.23a7.64,7.64,0,0,1-.81-.29.69.69,0,0,0-.24,0,.63.63,0,0,0-.19,0,8.8,8.8,0,0,1,1.09-1.24c1-1,2-2.07,1.59-3.7a2.78,2.78,0,0,0,1.44-1.7c.41-1.16,1.61-1.38,2.89-1.62l.12,0,1.05-.19c.94-.17,1.91-.35,2.88-.58a15.18,15.18,0,0,1,3.63-.56,6.43,6.43,0,0,1,1.74.22l.17,0a.64.64,0,0,0,.64-.52A3,3,0,0,0,151,50.47a4.82,4.82,0,0,0-.89-.08l-.5,0-.52.1c-.15,0-.38.09-.53.11a4.8,4.8,0,0,0-1.74-.64,11.44,11.44,0,0,0-2-.18c-2.89,0-4.9.93-5.53,2.53a4.46,4.46,0,0,0-1.35-.2,5,5,0,0,0-1,.1,2.53,2.53,0,0,0-.45.17,6.42,6.42,0,0,1-.63.24,4.35,4.35,0,0,0-.68-.53,2.07,2.07,0,0,0-1.17-.29h-.64a2.58,2.58,0,0,1-.89-.24l-.27-.11-.38-.14a7.73,7.73,0,0,1-1.2-.51,33.83,33.83,0,0,1,2.36-3.2,20.56,20.56,0,0,0,3.64-5.79,18,18,0,0,0-.3-11.64.62.62,0,0,0-.58-.42h-.05a6.18,6.18,0,0,0-2.2.8l-.39.2a.63.63,0,0,0-.33.6,24.55,24.55,0,0,1,0,3.32c0,.77-.1,1.56-.09,2.35A6.93,6.93,0,0,0,133,39.5a1.55,1.55,0,0,0,.12.28h0a.64.64,0,0,1-.06.11,3.44,3.44,0,0,0-.31.86c0,.17-.09.33-.14.48a.53.53,0,0,0,0,.37l-.1.53a.64.64,0,0,0-.13.15,4.83,4.83,0,0,1-.78.88l-.46.47a.37.37,0,0,1-.33.12l-.3,0-.4,0h-.15a4.79,4.79,0,0,0-1.54.39,4.92,4.92,0,0,0-.58.35,6.66,6.66,0,0,1-.85.49,3,3,0,0,0-.83-.13,4.15,4.15,0,0,0-1.77.48l-.69.37-.8.41a4.45,4.45,0,0,1-.78.26l.06-.58.06-.45c0-.16,0-.33,0-.5l.23-.16.18-.13a5.92,5.92,0,0,0,1.92-3.29,5.73,5.73,0,0,0,.12-1.66c0-.05,0-.13,0-.22l0-.11A1.65,1.65,0,0,0,125,39a1.69,1.69,0,0,0,.36-1.83,2.48,2.48,0,0,1-.08-.49.09.09,0,0,1,0-.05v0a.63.63,0,0,0,.33-.47A4.51,4.51,0,0,1,126.85,34a7.79,7.79,0,0,0,1.24-1.72,3.86,3.86,0,0,0,.2-.56l.6-.11.29-.06A3,3,0,0,0,131,30.15a1.18,1.18,0,0,0,.11-.35s0,0,0-.05a8.16,8.16,0,0,0,1.09-.37,14.32,14.32,0,0,0,2.15-1.2,9.18,9.18,0,0,1,4.9-1.87.6.6,0,0,0,.49-.28.56.56,0,0,0,.06-.53,4.31,4.31,0,0,1-.23-.84,5.32,5.32,0,0,0-.29-1.05.56.56,0,0,0-.5-.33h0l-.84-.42a.35.35,0,0,0,0-.08.63.63,0,0,0-.52-.28l-.15,0-.79.19a29.66,29.66,0,0,0-6.52,2.15,8.29,8.29,0,0,0-1.44.92,3,3,0,0,0-.31.31,4.54,4.54,0,0,1-.38.38,3.62,3.62,0,0,0-1.68.61l-.1.06a31.28,31.28,0,0,0-5,3.75,22.36,22.36,0,0,0-4,5.2l-.12.19-.58.07a18.09,18.09,0,0,0,.81-2.74l0,0a15.74,15.74,0,0,0,.49-5.06,5.13,5.13,0,0,0-.38-1.53c.11-.16.28-.37.38-.49l.24-.3a5.3,5.3,0,0,0,.65-1.35,3.55,3.55,0,0,0-.13-2.69,1.32,1.32,0,0,1-.24-1.09l.06-.45a6.6,6.6,0,0,1,.19-1.08l.35-.47h0a3.79,3.79,0,0,0,2.17-1.69,3,3,0,0,0,.38-1.31,1.92,1.92,0,0,0-.08-.62,1.55,1.55,0,0,1-.07-.35,24,24,0,0,1,6.17-5,.65.65,0,0,0,.3-.73,7.84,7.84,0,0,0-2-3.08.6.6,0,0,0-.44-.19.61.61,0,0,0-.3.08,61.41,61.41,0,0,0-11.77,7.54,13.21,13.21,0,0,0-4,5.22,5.75,5.75,0,0,0-.29,1.34,2,2,0,0,0,0,.42c0,.1,0,.29,0,.42-.25.11-.49.24-.72.36a5,5,0,0,1-.94.44,5.52,5.52,0,0,0-1.48.74h-.32a8.85,8.85,0,0,1-.79-2.29c0-.21-.1-.41-.16-.6a5.66,5.66,0,0,1-.15-3.66c.18-.47.41-.92.65-1.4a7,7,0,0,0,1-3.3,2.58,2.58,0,0,0,0-.29s0,0,0-.06a1.79,1.79,0,0,0,.63-.58,1.92,1.92,0,0,0,.19-1.28,2.63,2.63,0,0,1,0-.49.54.54,0,0,0,0-.18l0-.17a.58.58,0,0,0,.17-.21A21.33,21.33,0,0,1,110.53,3l.07-.08a.68.68,0,0,0,.14-.58.56.56,0,0,0-.35-.41,5.58,5.58,0,0,0-2.24-.52,4,4,0,0,0-2.57.94,10.63,10.63,0,0,0-2.32,3.24c-.24.43-.46.84-.69,1.23a15.6,15.6,0,0,1-2,2.46,17,17,0,0,0-2.06,2.46,4.85,4.85,0,0,0-.79,3,.74.74,0,0,1-.22.77A2.87,2.87,0,0,0,97,16.59c0,.1-.05.19-.08.29s0,.06,0,.09l-.13.2a.59.59,0,0,0-.25.17,5.69,5.69,0,0,1-.87.82c-.24.2-.48.4-.7.62-.32-.49-.64-1-1-1.42a10.85,10.85,0,0,0-1-1.12c-.18-.17-.17-.27-.09-.71a1.65,1.65,0,0,0,.06-.32,24.58,24.58,0,0,0,.23-3,7.14,7.14,0,0,0,0-.78c0-.62-.09-1.47.2-1.74A7.13,7.13,0,0,0,95,6.26L95,6c.11-.41.22-.84.32-1.27a16.88,16.88,0,0,1,1-3.16.6.6,0,0,0,0-.49.65.65,0,0,0-.31-.34,10.06,10.06,0,0,0-1.9-.63l-.14,0A2.91,2.91,0,0,0,93.47,0a1.07,1.07,0,0,0-.91.53A27.88,27.88,0,0,0,89.9,6.16C89.43,7.44,89,8.76,88.6,10l-.34,1a10.32,10.32,0,0,0-.71,4.24l-.14.23L87,15a16.4,16.4,0,0,0-1.83-2.36,10.32,10.32,0,0,0-1.36-.94,2.63,2.63,0,0,0-.19-.91A6.74,6.74,0,0,0,81.42,8a3.76,3.76,0,0,0-2.15-1,1.36,1.36,0,0,0-.29,0l-.39-.3a.08.08,0,0,1,0,0,6.32,6.32,0,0,0-2.36-2.56,14.22,14.22,0,0,0-4.19-2A7.4,7.4,0,0,0,70,1.84a2.86,2.86,0,0,0-2.27.84,2.42,2.42,0,0,0-.41,2.05.66.66,0,0,0,.64.51h.31A5.61,5.61,0,0,1,72,6.4a9.18,9.18,0,0,1,1.83,2.45c.1.16.2.32.29.48a11.84,11.84,0,0,0,2.43,3c.07.06.08.09.07.41V13a6,6,0,0,0,.19,1.41c.12.53.28,1.05.43,1.55s.3,1,.42,1.48a.19.19,0,0,0,0,.07l0,.12a9.14,9.14,0,0,0-1.88-1.53,4.58,4.58,0,0,0-1.63-.59h-.31c0-.13,0-.26-.08-.39-.45-2.07-2.21-3.28-3.69-4.1-.41-.23-.83-.45-1.24-.66s-.87-.44-1.29-.68a14.59,14.59,0,0,1-2.79-2.18L63.38,6.08A31.46,31.46,0,0,0,58.62,2a.56.56,0,0,0-.33-.1.63.63,0,0,0-.4.14A2.25,2.25,0,0,0,57,3.56a3.79,3.79,0,0,0,1.13,2.71A16,16,0,0,0,60,8.08a11.07,11.07,0,0,1,2.28,2.43.54.54,0,0,0,.23.22l.32.42v0a11.11,11.11,0,0,0,1.34,4.43,10,10,0,0,1,1.27,4.2c0,.59,0,1.17,0,1.75a18.2,18.2,0,0,0,.65,6.59l-.62-.44a13.16,13.16,0,0,0-2.59-1.55l-.33-.11L62.22,26A4,4,0,0,0,62,25a9,9,0,0,0-1.1-2.13l0,0c-.18-.28-.36-.56-.55-.83s-.57-.86-.82-1.29a11.8,11.8,0,0,1-1-2.83l-.11-.36c-.08-.27-.15-.55-.22-.84a8.63,8.63,0,0,0-1.41-3.38c-.9-1.14-5-5.15-7.69-5.15a2.17,2.17,0,0,0-2.17,1.65.64.64,0,0,0,.23.72c2.77,2.13,5.48,4.59,6.5,8.22.92,3.28.56,6.88.22,10.36-.11,1.09-.22,2.22-.29,3.32l-.23.38a5.83,5.83,0,0,0-2.81-1.33c-.27-.05-.28-.06-.46-.38l-.12-.21a2.34,2.34,0,0,0-.72-.75,3.65,3.65,0,0,0-.93-.38l-.14,0c-.42-.12-.5-.74-.55-1.47v-.06c0-.26,0-.52,0-.77a6.31,6.31,0,0,0-.43-2.5,1.77,1.77,0,0,0-.34-.47,1.81,1.81,0,0,1-.18-.23,3.74,3.74,0,0,0,.27-1.07A7,7,0,0,0,46.32,20,29.75,29.75,0,0,0,44,15.25l-.48-.85a.57.57,0,0,0-.67-.24,6.34,6.34,0,0,0-2.19,1.21h-.29a.13.13,0,0,0-.06,0,.54.54,0,0,0-.33-.1.63.63,0,0,0-.59.46.61.61,0,0,0,.27.7c1.2.75,1.77,2.57,2.23,4l.09.28a16.26,16.26,0,0,1,.88,4.54c0,.69,0,1.4,0,2.08,0,.91-.06,1.86,0,2.8a4.73,4.73,0,0,0,.7,2.62,2.91,2.91,0,0,0-.87,1.9,2.09,2.09,0,0,0,.81,1.67,1.35,1.35,0,0,0,.35.22,3.75,3.75,0,0,0-.3,1.24,4.14,4.14,0,0,0,.85,2.56,19.49,19.49,0,0,0-3.16-1.27,1.79,1.79,0,0,1,0-.23,2.25,2.25,0,0,0,0-.58A2,2,0,0,0,40.38,37a4.74,4.74,0,0,0-1.21-.44A4.79,4.79,0,0,0,39,36a8,8,0,0,0-1.87-2.35,21.52,21.52,0,0,0-5.88-3.87A11.82,11.82,0,0,0,30,29.3l-.3-.09c0-.08,0-.17-.05-.23a1.38,1.38,0,0,0-.11-.37,1.57,1.57,0,0,0-1.59-.9h-.7l-.08,0a3.36,3.36,0,0,0-2.71-2.24h-.24a3.21,3.21,0,0,0-1.46.42,5,5,0,0,1-.49-.4,4.6,4.6,0,0,0-.44-.35A10.94,10.94,0,0,0,16.59,24a18.15,18.15,0,0,1-2.75-.28h-.13a.62.62,0,0,0-.53.3,4.45,4.45,0,0,0-.54,3.29.61.61,0,0,0,.54.46,13.44,13.44,0,0,1,7,2.53c1,.76,1.88,1.62,2.76,2.45a35.55,35.55,0,0,0,3.18,2.78l.25.19a21.57,21.57,0,0,1,3.26,2.79,5.86,5.86,0,0,1,1.18,2.46,12,12,0,0,0,.47,1.39,3.28,3.28,0,0,0,.8,1.14,2.4,2.4,0,0,0,.64.38c.11,0,.3.13.33.2a2.23,2.23,0,0,0,.71,1.65,8.45,8.45,0,0,0-1.9-.21,9.47,9.47,0,0,0-1,.06l-.31,0a24,24,0,0,1-2.4.16h-.24a10.69,10.69,0,0,1-2.13-.37l-.87-.2A8.53,8.53,0,0,0,23.07,45a5.46,5.46,0,0,0-.82.06,2.91,2.91,0,0,0-1.05.4,2.52,2.52,0,0,1-.43-.24L20.44,45a2.87,2.87,0,0,0-1.16-.26A2,2,0,0,0,17.34,46l-.1,0a.58.58,0,0,0-.32-.21,5.84,5.84,0,0,1-3.05-2.55c-.66-.9-1.41-1.84-2.35-3l-1.59-1.9-.78-1,0,0c-.44-.64-.59-.8-.73-.88a.78.78,0,0,0-.41-.1,2.5,2.5,0,0,0-1,.28A5.89,5.89,0,0,0,5.32,37.7a.61.61,0,0,0-.17.61c1.46,5,5,11.34,10.7,14.3l.08.54-.4-.08A13.07,13.07,0,0,0,13,52.74h-.17a3.86,3.86,0,0,0-1.76.5l0,0a1.76,1.76,0,0,0-.39-.35,3,3,0,0,0-1.76-.53A8.36,8.36,0,0,0,6.19,53a9.93,9.93,0,0,1-1.72.49A.57.57,0,0,0,4,54a5.9,5.9,0,0,0,.52,3.68A.59.59,0,0,0,5,58a.6.6,0,0,0,.44-.19,3.94,3.94,0,0,1,2.68-1,8.24,8.24,0,0,0,2-.38A2.86,2.86,0,0,0,10.9,56h0l.1.06.23.15a3.7,3.7,0,0,0,1.44.34,4.93,4.93,0,0,1,.86.15l.09,0,0,.06a.6.6,0,0,0,.51.27l.65,0a7.91,7.91,0,0,0,.85.06,3.32,3.32,0,0,0,.72-.07,3,3,0,0,0,.53-.2c.1.19.21.35.3.49a2.61,2.61,0,0,0,2.22,1.18,2.84,2.84,0,0,0,.7-.08,5.71,5.71,0,0,0,.8,1.85,20.93,20.93,0,0,0,3,3.6,48.62,48.62,0,0,0,5.44,4.83,3.36,3.36,0,0,0-2.09,2.56,2.15,2.15,0,0,0-.55-.08,1.39,1.39,0,0,0-.3,0,3.11,3.11,0,0,0-1.77,1.38l-.09.12-.06.1a16.93,16.93,0,0,0-2.75-.24l-.63,0c-.81,0-1.61,0-2.37,0-1.35,0-2.65,0-3.88.15-2.2.18-5.21.6-5.93,2.1a1.83,1.83,0,0,0,.28,1.9.62.62,0,0,0,.5.27h.08a44.41,44.41,0,0,1,5.89-.45,19.34,19.34,0,0,1,8.72,1.81l-.06.32-.57.19a20.23,20.23,0,0,1-5.52,1.34H18a12.09,12.09,0,0,1-3-.54,14.41,14.41,0,0,0-3-.58h-.15a5.5,5.5,0,0,0-1,.1h-.12c-.19,0-.33-.11-.59-.35l-.17-.14a3.42,3.42,0,0,0-.59-.38c-.34-.18-.45-.26-.5-.47a4.4,4.4,0,0,0-2-2.54,7.72,7.72,0,0,1-1.13-.94.5.5,0,0,0-.28-.16l-.72-.43,0-.07a.62.62,0,0,0-.53-.3H4A3,3,0,0,0,1.37,76a.62.62,0,0,0,.45.72,4.32,4.32,0,0,1,2,1.5c.38.44.76.91,1.12,1.36s.7.88,1.07,1.3c1.7,2,3.37,2.89,5.12,2.89a5.25,5.25,0,0,0,.79-.06l.11,0c0,.14.07.26.1.38a4,4,0,0,0,.73,1.36,8.56,8.56,0,0,0,2.94,2.23,25.34,25.34,0,0,0,5.8,1.93,10.16,10.16,0,0,0-2.75.85,5.61,5.61,0,0,0-1.12.75,2.65,2.65,0,0,0-.37.4c-.19.24-.22.26-.32.26h-.08a3.6,3.6,0,0,0-2.32.89,2.83,2.83,0,0,0-.76,1.1,2.15,2.15,0,0,0-.1.42c0,.11-.06.31-.1.45-.37,0-.76,0-1.18,0-.7,0-1.4,0-2.08.08s-1.36.06-2,.06a11.86,11.86,0,0,1-2.53-.23,6.85,6.85,0,0,1-2.5-1A4.31,4.31,0,0,0,.8,92.44a.6.6,0,0,0-.55.39,2.8,2.8,0,0,0,0,2.35c.09.21.18.4.27.58a2.65,2.65,0,0,1,.39,2,.55.55,0,0,0,.09.5.59.59,0,0,0,.45.26,30.1,30.1,0,0,1,4.43.84,30.88,30.88,0,0,0,4.64.86l1.56.12c1.41.1,2.86.2,4.27.42.38.06.76.13,1.11.21v0a.75.75,0,0,0,0,.2,2.07,2.07,0,0,0,.37,1.39,5.09,5.09,0,0,0,1.95,1.31c.28.13.54.25.77.38A28,28,0,0,0,24,106,20.34,20.34,0,0,0,31.79,108h.12c-1.66.48-4.14,1.44-4.66,3.55l-.69.07c-.53.06-1.08.12-1.67.21a20,20,0,0,0-4.15.93,6.63,6.63,0,0,0-1.44.7,1.62,1.62,0,0,0-.35.31l-.25.24a2.67,2.67,0,0,0-.64-.07,6.22,6.22,0,0,0-2.93,1,14.18,14.18,0,0,0-1.69,1.18l-.27.2A4.09,4.09,0,0,0,12,117.38a1.65,1.65,0,0,0,.07,1.26c0,.06,0,.11,0,.15a10,10,0,0,0,.55,1.73.61.61,0,0,0,.55.35.58.58,0,0,0,.19,0,10.56,10.56,0,0,0,2.42-1.15,9.39,9.39,0,0,0,.93-.71.38.38,0,0,1,.27-.1l.32,0,.4,0h.11a2.8,2.8,0,0,0,1.72-.63l.25-.24c.12-.13.25-.26.34-.27a3.45,3.45,0,0,0,1.28-.42c.13-.06.25-.14.37-.21a3.19,3.19,0,0,1,.54-.29,4.05,4.05,0,0,1,.94-.17,5.16,5.16,0,0,0,.58-.06c1.08-.18,2.3-.38,3.5-.56a60.93,60.93,0,0,1,7.44-.71l.2.08c.37,1,.7,1.8,1.05,2.56a17.45,17.45,0,0,0,.85,1.66,3.12,3.12,0,0,1,.24,1.08c0,.15,0,.3,0,.43a25.26,25.26,0,0,0,.85,3.93l-.38.28c-.68.48-1.37,1-2,1.55a6.84,6.84,0,0,0-1.56,1.88,3.32,3.32,0,0,0-.33,1h0l-.46.14a3.46,3.46,0,0,1-.86.21h-.07a6.55,6.55,0,0,0-1.28-.56l-.12-.05a38.65,38.65,0,0,0-4.37-1.24,19.51,19.51,0,0,0-3.78-.61h-.06a1.42,1.42,0,0,0-1.53,1.42c-.1,1.15,1.12,1.88,1.71,2.24a20,20,0,0,0,3.73,1.57l1.06.34c.43.13.87.27,1.3.42l-.84.53-1.41.92c-.64.41-1.27.83-1.92,1.23a.63.63,0,0,0,0,1.06,2.34,2.34,0,0,1,.6.58l.2.24a.62.62,0,0,0,.46.21l.16,0q.75-.19,1.5-.36a15.23,15.23,0,0,0,5.32-2,9,9,0,0,0,1.41-1.22,2.28,2.28,0,0,0,.23-.27,2.24,2.24,0,0,1,.35-.38l.41,0c.29,0,.59,0,.85,0,.44,0,.87-.08,1.29-.13a17.18,17.18,0,0,1,1.86-.14,5.87,5.87,0,0,1,1.5.18h.25l.54.11c.25,1.35-.4,2.41-1.15,3.63a14.57,14.57,0,0,0-.8,1.4,5.18,5.18,0,0,0-.44,1.31l0,.06,0,.14-.17,0h0a2.46,2.46,0,0,0-1.77,1.55l0,.15c-.12.32-.12.32-.44.43a4.25,4.25,0,0,0-2.27,2.07s0,0,0,0h0l-.22,0L34,145a5,5,0,0,0-2.63,1.06l-.39.26a8,8,0,0,1-2.41,1.25.58.58,0,0,0-.4.35.62.62,0,0,0,.06.53,6.15,6.15,0,0,1,.38.67,4.52,4.52,0,0,0,1.18,1.57.67.67,0,0,0,.17.08l0,0a.27.27,0,0,0,0,.12.62.62,0,0,0,.58.4.8.8,0,0,0,.26-.05c1.08-.5,2.17-1,3.22-1.56s2.38-1.17,3.59-1.71a11.88,11.88,0,0,0,2.49-1.6l.26-.21a5.24,5.24,0,0,1,.9-.63,5.33,5.33,0,0,1,.64-.25l.49-.18a2.15,2.15,0,0,0,1.27-1.29.88.88,0,0,1,.09-.22l.23,0,.18,0a2.36,2.36,0,0,0,.87-.22,2.92,2.92,0,0,0,.77-.54,3.2,3.2,0,0,0,.26-.28c.18-.19.19-.19.28-.19a.72.72,0,0,1,.19,0,3.07,3.07,0,0,0,.53,0A4.82,4.82,0,0,0,49,142a78.3,78.3,0,0,0,7.52,6.64c.85.66,1.75,1.31,2.66,1.94.18.12.37.23.56.34a3.6,3.6,0,0,1,.88.62c.52.61,1.06,1.2,1.52,1.69A87.43,87.43,0,0,0,70,160.63c1.79,1.49,3.7,3,5.69,4.33L77.21,166c.1.06.22.15.34.24a3.39,3.39,0,0,0,1.22.71l.46.09a55.2,55.2,0,0,0,9.88.91,47,47,0,0,0,12.22-1.56l.58-.15a4.43,4.43,0,0,0,2.75-1.41c.64-.86,1.33-1.81,2.09-2.9a95.3,95.3,0,0,0,6.38-10.15c.51-.94,1-1.9,1.45-2.84.58-1.16,1.18-2.36,1.82-3.51a37.55,37.55,0,0,1,11.23,4.67.66.66,0,0,0,.33.09.63.63,0,0,0,.47-.2,7,7,0,0,0,1-1.55.65.65,0,0,0-.16-.8,43.8,43.8,0,0,0-4.43-3.11v0a1.07,1.07,0,0,0,0-.25,1.91,1.91,0,0,0-.3-.83,4,4,0,0,0-1.48-1.33,5.55,5.55,0,0,0-.81-.4l-.07,0s0-.08,0-.11,0-.18,0-.29a2.72,2.72,0,0,0-.78-1.4,3.45,3.45,0,0,0-.88-.62,1,1,0,0,0,.08-.14c.15-.24.3-.48.44-.73l.06,0,.57.15.5.13c1.62.41,3.29.84,5,1.17l.25,0a18.92,18.92,0,0,0,3.39.42c2.59,0,3.3-1.16,3.45-2.13a.72.72,0,0,0-.12-.5.57.57,0,0,0-.39-.23,15.06,15.06,0,0,1-5.62-2.47l-.52-.32a13.73,13.73,0,0,0-4.78-1.53c.36-2,.66-4.18.9-6.35a3.46,3.46,0,0,0,2-2.62c.05-.35.08-.7.1-1,1.31.4,2.53.71,3.71,1a18.44,18.44,0,0,0,3.58.4,10.71,10.71,0,0,0,2.79-.35,19,19,0,0,0,4.83-2c2.09-1.26,2.19-2.5,1.89-3.33a.59.59,0,0,0-.57-.41.66.66,0,0,0-.27.06,11,11,0,0,1-4.47.89,9.56,9.56,0,0,1-4-.8,3.91,3.91,0,0,1-.71-.46l0,0a.78.78,0,0,0-.6-.35h-1.17a5.17,5.17,0,0,1-1.17-.11,6.37,6.37,0,0,1-2.72-1.26c.32-.78.69-1.55,1-2.27.07-.14.17-.3.27-.48a4,4,0,0,0,.58-1.25,29.51,29.51,0,0,0,.64-6,9.77,9.77,0,0,1,.87-1,15,15,0,0,1,1.29-1c.42-.32.85-.64,1.25-1a1.87,1.87,0,0,0,.31-.36,2.86,2.86,0,0,1,.3-.36,16.09,16.09,0,0,0,2,.13h.34a14.67,14.67,0,0,0,3.87-.69c2.06-.62,4.36-1.48,5.85-3.22a3.79,3.79,0,0,0,.65-1.1,3.4,3.4,0,0,0,.19-.7l.28,0,.24,0c1.08-.18,2.2-.26,3.28-.34.65,0,1.32-.1,2-.17a.63.63,0,0,0,.56-.47,5,5,0,0,0,.06-1.76c0-.18,0-.36-.05-.53a.62.62,0,0,0-.57-.61,16.68,16.68,0,0,0-1.8-.1c-.9,0-1.81.06-2.69.12-.54,0-1.08.07-1.63.09h-.61a11.18,11.18,0,0,1-2.54-.27c-.38-.09-1-.24-1.14-.59a3.23,3.23,0,0,0-.5-.93,4,4,0,0,0-3.39-1.4h-.26a1.79,1.79,0,0,0-.32-.75,2.83,2.83,0,0,0-1-.76l-.32-.17a.51.51,0,0,0-.17-.07l-.25-.15c4.65-3.51,9.32-6.7,14.84-7.86a.63.63,0,0,0,.49-.65,4.46,4.46,0,0,0-1-2.6.77.77,0,0,0-.61-.34l-.24,0H149c-.47.08-.95.14-1.42.19l-.2,0-.7.08a16.79,16.79,0,0,0-5,1.1,6.61,6.61,0,0,0-1.15.64,1.38,1.38,0,0,1-.31.17,1.27,1.27,0,0,1-.36-.12c-.32-.14-.63-.3-.95-.47l-.11-.06-.33-.17s0-.1,0-.14a1,1,0,0,0,0-.24,3,3,0,0,0-1-2.25,2.71,2.71,0,0,0-1.11-.56.88.88,0,0,1-.17-.19l-.3-.54,0,0c-.17-.35-.31-.7-.35-.81a.57.57,0,0,0-.12-.18l-.15-.37c.48-.15,1-.27,1.62-.4,1.83-.39,4.07-.87,4.71-2.75A3.49,3.49,0,0,0,143,70a3.06,3.06,0,0,0,.94-.14,2.73,2.73,0,0,0,1.28-.9,1.84,1.84,0,0,0,.17-.25v0c.51.12,1,.22,1.49.3a42.88,42.88,0,0,0,4.74.45,30.93,30.93,0,0,1,6.2.77.47.47,0,0,0,.17,0,.64.64,0,0,0,.56-.32A2.59,2.59,0,0,0,158.68,67.3ZM112.46,24.37a4.35,4.35,0,0,0-.36.38,13.52,13.52,0,0,0-1.23,1.65,21.27,21.27,0,0,0-1.44,2.54,16.63,16.63,0,0,1,3.84-7.09A5.81,5.81,0,0,0,113,23.5C113,23.83,112.81,24,112.46,24.37Z"/><path class="cls-2" d="M46.79,122.37c-1.18-.83-6.34,1.64-6.34,1.64-1.87,1.87-6.1,3.75-6.1,6.33-.23,0-1.87.47-2.11.47-1.17-.94-9.61-3-10.08-2.35-2.12,2.59,7.5,4.46,8.21,5.17-1.65.93-3.29,2.11-5.16,3.28a3.42,3.42,0,0,1,.93.94c3.52-.94,6.1-.94,8.68-4.22,2.35.23,4-.71,6.34,0l1.17.23c.94,3-2.34,4.69-2.34,7.51a2.11,2.11,0,0,0-2.12,2.11,3.62,3.62,0,0,0-2.81,2.35c-2.35-.94-4,1.87-6.34,2.34.47.7.71,1.64,1.41,2.11l.47.47c2.35-1.17,4.69-2.34,6.81-3.28a14.32,14.32,0,0,0,3-2.11c1.41-.94,2.58-.47,2.82-2.35,1.64,0,1.88-.23,2.82-1.41,1.17.47,2.34,0,3.51-.47l1.53-15.95C50.78,124.59,48,123.19,46.79,122.37Zm74.84,19.7c.23-2.11-1.88-2.58-3.76-3l-4.93,5.4c5.4,0,10.56,2.58,15,5.16a5,5,0,0,0,.94-1.41,34.15,34.15,0,0,0-4.69-3.28C124.67,143.71,123,142.54,121.63,142.07Zm-1.41-8.91-2.35,4c2.82,0,15.25,4.93,15.72.94-3.05-.47-4.22-1.64-6.57-3.05C124.91,133.86,122.8,133.86,120.22,133.16ZM132,118.38c-2.35.47-6.34-1.18-6.34-3.29l-3.52,6.1c3.76,1.41,8.68,3,12.67,2.58,2.11-.47,8.21-2.34,7.27-4.69C139.69,120.25,133.82,120.49,132,118.38Zm9.15-49.74c1.4,1.18,3.28.94,4-.7,4.23,1.17,8.68.47,12.91,1.64,2.34-4-8.92-5.86-11.5-4.92-1.64-1.88-6.57-.71-8.21.7-.47-.24-1.41-.47-1.88-.7h-1.17c.47-1.88,4.22-3.29,2.82-5.87,2.11-.47,1.17-1.88,2.58-2.81,1.17-.71,3.75-.94,4.92-1.18,2.12-.47,4.93-1.41,7.28-.7.7-2.82-2.11-3.52-4.46-2.82-1.64-1.4-8.45-1.17-8.68,1.88a4,4,0,0,0-4,.23c-1.17-1.17-1.17-.93-2.81-.93-.71-.47-1.88-.71-2.58-1.18l-.47-.47c1.87-3.28,4.45-5.16,5.86-8.44a17.43,17.43,0,0,0,0-12,10,10,0,0,0-2.35.94c.24,2.35-.7,7,.47,8.45-.47.47-.47,1.17-.7,1.64l-.23,1.17c-.24.47-1.18,1.18-1.65,1.88A4.76,4.76,0,0,0,127,45.65c-1.88-.94-3.28,1.41-5.63,1.41,0-.47.24-2.11.24-2.58A5.39,5.39,0,0,0,124,38.85c1.41-.47.7-.94.7-2.11l.24-.71c.23-2.11,2.58-2.81,2.81-4.92,1.41,0,2.82-.71,2.82-1.88,3.52-.7,4.69-3.52,8.68-3.52-.23-.47-.23-1.41-.47-1.87l-1.41-.71c-2.81.71-7.5,1.64-9.38,4-1.17-.47-7,4.46-8.21,5.86-.94,1.18-1.64,2.35-2.58,3.76l-1.88.23c.94-1.64,2.58-8,1.17-10.09,1.41-1.4,2.35-3.51.94-5.16.24-.7.24-1.64.47-2.34l.7-.94a2.57,2.57,0,0,0,1.88-3.52A24.43,24.43,0,0,1,127,9.53a7.29,7.29,0,0,0-1.88-2.82c-4.45,2.35-16.89,8.91-15.71,14.78-.71.23-1.65.94-2.12.94a7.88,7.88,0,0,0-1.4.7H105c-.47-.47-1.64-4.69-1.64-5.63,0-2.34,2.58-4.46,1.87-6.8,1.41-.47.71-1.17.94-2.11l.24-.71a20.24,20.24,0,0,1,3.75-5.39c-4.69-2.11-5.63,3.05-7.74,5.63-1.64,2.11-4.93,4.22-4,7.27-.7.47-.7.94-.94,1.64l-.47.71c-.7.93-1.64,1.17-2.11,2.11a13.17,13.17,0,0,0-2.81-3.52,32.71,32.71,0,0,0,.46-6.8c1.88-1.18,2.12-5.87,3.29-8.22a8.48,8.48,0,0,0-2.58-.7,36.44,36.44,0,0,0-4,9.38c-.47,1.18-1.41,4-1.17,5.4l-.71,1.17c-1.4-1.64-2.11-3.75-4.22-4.45.7-1.41-2.81-4.93-4.22-4.46L78,6.94C76.82,3.89,67-.09,67.9,4.6c6.34-.24,5.63,4.69,9.39,7.51-.24,1.87.47,3,.93,5.16L78,18.91c-1.17-1.41-2.82-3.05-4.69-2.82-.24-4-4.46-4.69-7-6.57s-4.69-4.92-8-7c-2.81,2.11,3.29,5.63,4.46,7.74l.7.94c0,3.05,2.82,5.39,2.59,8.91-.24,2.58-.24,6.57.93,8.92v.47c-1.87-.94-3.28-2.59-5.39-3,.23-1.65-1.64-3.76-2.58-5.4-1.18-2.35-1.41-4.69-2.35-6.8-.94-1.65-8-8-9.15-4.23,4.93,3.76,7.27,6.81,7.27,13.14,0,3.29-.46,6.34-.7,9.39l-.7,1.17a5,5,0,0,0-3.52-1.64c-.71-1.41-.71-1.41-2.35-1.88-1.17-1.88.24-4.46-1.64-5.87C47.49,22,44.21,16.8,43,14.69a4.73,4.73,0,0,0-2.11,1.17H40c1.64.94,2.81,5.16,3.28,7.27.7,2.58-.7,8.68,1.17,9.62-1.41.94-1.87,2.81.24,3.52-.94,1.17-.71,2.81.47,4.22l-.94.47a34.32,34.32,0,0,0-3.76-1.41c.47-1.4-.23-2.34-1.87-2.34.23-2.58-6.81-7-9.39-7.51-.23-1.64-.7-1.41-1.87-1.41l-.71-.23c-.7-1.88-2.34-2.58-4-1.41C21,24.3,16.29,24.77,13.71,24.3a4.08,4.08,0,0,0-.47,2.82c5.87.7,7,2.35,10.79,5.86,2.11,2.12,5.16,3.52,6.81,6.1.93,1.88.47,4,2.81,4.46-.23,1.64.47,1.64,1.41,2.58l.47.94c-3.05-1.64-4.22-.7-7.51-.7-2.11,0-5.16-1.65-6.8-.24C19.81,45,17.93,45,17.7,46.59l-.94-.23c-2.11-.47-3.28-2.82-4.46-4.23S9.49,38.85,8.08,37a4.5,4.5,0,0,0-2.35,1.18c1.41,4.92,5.4,11.49,10.56,14.07l.24,1.64c-1.88-.23-4-1.17-5.63.24-1.41-2.35-4.23-.24-6.34,0A5.41,5.41,0,0,0,5,57.38c1.64-1.87,4.22-.47,5.87-2.11.93.94,1.64.47,2.81.94l.47.23c1.17,0,1.88.47,3.05-.47.47,1.65,1.88,2.59,3.52,1.65-.71,2.81,7.74,9.85,10.09,11.49a2.84,2.84,0,0,0-3.05,3c-1.41-.7-1.88-.23-2.82.94l-.23.47c-1.88-.47-17.83-1.17-15,2.81,5.4-.7,10.56-.93,15.25,1.65l-.23,1.17c-2.82.94-4.46,1.64-7,1.64-2.35-.23-5.16-1.64-7.27-.94C9.25,79,9.49,79,8.32,78.5c0-2.12-1.65-2.12-3.06-3.76L4.09,74A2.27,2.27,0,0,0,2,76.15C5,76.85,7.14,84.6,12.54,83c0,4,7.27,5.63,9.85,6.34l-.47.94c-1.64.23-3.75.93-4.46,2.34a2.74,2.74,0,0,0-3.28,2.82c-2.11-.24-4.46.23-6.57,0a9.08,9.08,0,0,1-4-.94C2.92,94.21,2.22,93,.81,93c-.94,2.11,1.41,2.58.7,4.93,3.05.23,6.57,1.41,8.45,1.64a50.68,50.68,0,0,1,8.21.94c-.47,2.11.7,2.11,2.34,3A25.87,25.87,0,0,0,25,105.71a14.4,14.4,0,0,0,7.74,1.64l.24.94c-1.88.47-5.16,1.64-5.16,3.75-2.35.24-7.75.71-8.92,2.58-1.87-.7-4.92,1.65-6.33,3a10.65,10.65,0,0,0,.7,2.58,8.71,8.71,0,0,0,3.52-2.11,2.47,2.47,0,0,0,3-.94c1.17,0,1.64-.7,2.35-.93a74.11,74.11,0,0,1,12.66-1.41s3.52,1.41,3.87,1.41a59.42,59.42,0,0,0,8.45-2.58c2.35-1.06,6.22-6.34,7.27-8.22A51.07,51.07,0,0,0,57,98.55l70.27,9.74a20.49,20.49,0,0,1,2.81-3.52c.7-.94,2.35-1.41,3.05-2.81a14.27,14.27,0,0,0,7.74-.94c1.88-.71,4.93-2.11,4.93-4.46a56.72,56.72,0,0,1,6.33-.7,6.18,6.18,0,0,0,0-2.11c-3.75-.47-7.5.93-10.79-.71-.47-2.11-2.34-2.58-4.22-2.34,0-1.41-.71-1.41-1.41-1.88l-1.17-.71c4.92-3.75,9.85-7.27,15.72-8.44a4.19,4.19,0,0,0-.94-2.35c-2.58.47-7,.47-8.92,2.35a12.8,12.8,0,0,1-2.58-1.17c.24-1.65-.47-2.82-1.87-3-.24-.71-.71-1.18-.94-1.88l-.47-1.17C136.64,71.46,141.1,71.69,141.1,68.64ZM113.65,24.07c-2.58,2.11-4.69,7-5.63,10.32,0-4.92,2.34-11.49,6.33-14.31h.47A5,5,0,0,0,113.65,24.07Z"/><path class="cls-3" d="M120.22,133.16l-.3.5.53.79c.81.28,3.74,1.09,3.86,1.52,1-.46,1.87.1,1.58,1.23,1.19-1.32,2.34.12,3,.38a24.1,24.1,0,0,0,4.5,1,1.74,1.74,0,0,0,.17-.53c-3.05-.47-4.22-1.64-6.57-3.05C124.91,133.86,122.8,133.86,120.22,133.16Zm1.41,8.91c.23-2.11-1.88-2.58-3.76-3L117,140c.85.42,1.89,1,2.16,1.87.59-.18,1,.34.46,1.08a5.44,5.44,0,0,1,2.41.81.33.33,0,0,1,0-.26c.78.39.28,1,.7,1.34a20.47,20.47,0,0,0,2,1.09c.89.56,2.45,2,3.85,2.77.09-.16.17-.32.25-.48a34.15,34.15,0,0,0-4.69-3.28C124.67,143.71,123,142.54,121.63,142.07ZM132,118.38c-2.35.47-6.34-1.18-6.34-3.29l-1.86,3.23a3.69,3.69,0,0,1,2.16,1.65,1.72,1.72,0,0,1,2.86-.14c1-.47,2.37-.1,2.27,1.22.81,0,1.64.2,2.4.17,0,0,.42-.54.73-.51s.71.48.93.5a33.51,33.51,0,0,0,5.89.06c.87-.65,1.36-1.39,1-2.19C139.69,120.25,133.82,120.49,132,118.38Zm3.75-65c-1.17-1.17-1.17-.93-2.81-.93-.71-.47-1.88-.71-2.58-1.18l-.47-.47c.07-.13.15-.26.23-.39-1.2.34-2.47,1.62-3.64,2.08-1.56.62-4,.07-5.21,1,1.19,0,4.34-.33,4.51,1.07.28-.62,2.35-1.18,3-1.22.84-.06,3.23.14,2,1.56a3.65,3.65,0,0,1,2.89.86,1,1,0,0,1,2-.54,1.72,1.72,0,0,1,2,0c.5-1,1.43-.24,2.15-.67s.68-1.46,1.62-1.91,4.43-1.18,4.35.08c1.36-1.34,4.35-.46,6-.16.3,0,.72.19,1.14.3-.28-1.8-2.57-2.2-4.54-1.61-1.64-1.4-8.45-1.17-8.68,1.88A4,4,0,0,0,135.7,53.39Zm-17.25,83.8-.52-.14-.06.09A4.54,4.54,0,0,1,118.45,137.19Zm-88.19-3.5c-1.61.93-3.22,2.07-5.05,3.22a1.82,1.82,0,0,1,.23.15,22.64,22.64,0,0,0,3-1.07c1-.56,2.23-1.76,3-2.07A11.9,11.9,0,0,0,30.26,133.69Zm10.66-1.88a3.63,3.63,0,0,0-1.7,1.55,6.52,6.52,0,0,1,1.94.27l1.17.23c.94,3-2.34,4.69-2.34,7.51a2.11,2.11,0,0,0-2.12,2.11,3.62,3.62,0,0,0-2.81,2.35c-2.35-.94-4,1.87-6.34,2.34a12.22,12.22,0,0,1,.59,1.07,5,5,0,0,1,2.44-.92c.12-1.31,2.14-2.49,3.14-1.4a10,10,0,0,1,3-2.13c-.11-.81.67-1,1.45-.87.27-1,1.14-.95,1.67-1.68s.16-1.72,1.15-2.19a2,2,0,0,1,0-2.57,8,8,0,0,1,2.26-1.83,4.78,4.78,0,0,1,.89-3.28C44.14,132.14,42.09,131.48,40.92,131.81Zm-8.44.28c.94-.52,3.48,0,2.84-1.83.48-.08.86-.41,1.36-.41-.22-1.06.58-1.56,1.44-.92.24-1.76,4.48-2.72,2.51-5l-.18.08c-1.87,1.87-6.1,3.75-6.1,6.33-.23,0-1.87.47-2.11.47-1.17-.94-9.61-3-10.08-2.35a1.24,1.24,0,0,0-.29.62c1.88.41,3.75.8,5.5,1.32C28.93,130.86,31.24,130.9,32.48,132.09ZM8,55.07c0-.17,0-.31.05-.48,1.82-.26,3.68.37,5.56.19a10,10,0,0,1,4.84.78c.72-1.65,2-.31,2.9.07a31.14,31.14,0,0,1,4.42,1.9c-2.28-2.14-5.49-4.93-8.42-5.43a4.76,4.76,0,0,0-1.25,0l.19.1.24,1.64c-1.88-.23-4-1.17-5.63.24-1.41-2.35-4.23-.24-6.34,0a3.89,3.89,0,0,0-.07,1.25A15.94,15.94,0,0,1,8,55.07ZM25.1,113.5c.44,0,1.07.07,1.78,0a27.78,27.78,0,0,0,2.93-.69c-.48-2.31,5.21-2.17,6.32-3.51.35-.42.5-1.09.74-1.39a6.67,6.67,0,0,1,1.59-1.24c.79-.6,1.85-2,2.94-2.29a28.58,28.58,0,0,0-5.89.86c-.59.09-.68-.13-1.41.24-.38.2-1,1-1.45,1.33a5.16,5.16,0,0,1-1.22.61,11.15,11.15,0,0,0,1.28,0l.24.94c-1.88.47-5.16,1.64-5.16,3.75-2.35.24-7.75.71-8.92,2.58-1.87-.7-4.92,1.65-6.33,3a6.15,6.15,0,0,0,.23,1.18,6.76,6.76,0,0,1,2.09-.62c-.18-1.08.87-1.32,1.76-1.4a1.43,1.43,0,0,1,2.62-.92,3.52,3.52,0,0,1,2.48-1c-.08-.21,0-.57-.12-.82C22.45,113.43,24.05,113.61,25.1,113.5ZM15.77,96.77c.53-.11,1.24-.89,1.91-1.07-.17-.15-.34-.5-.54-.66.44-.72,3.91-1.38,4.46-.56.76-.53,4.24-5.47,5.29-2.1.43-.27,1.4-.27,1.72-.51.85-.64.34-.59.74-1.73C30,88.29,31.08,88,33,87.29a12.65,12.65,0,0,0,5.25-4,19.76,19.76,0,0,1-4,2.55c-.42-2.07-3.08-.32-4.43.23A27.12,27.12,0,0,1,24.56,88,25.9,25.9,0,0,0,21.72,89l-.18,0,.85.23-.47.94c-1.64.23-3.75.93-4.46,2.34a2.74,2.74,0,0,0-3.28,2.82c-2.11-.24-4.46.23-6.57,0a9.08,9.08,0,0,1-4-.94C2.92,94.21,2.22,93,.81,93c-.6,1.35.14,2,.57,2.95.49.22.94.7,1.31.82,1,.32,2.3-.09,3,1a8.33,8.33,0,0,1,4,0c0-1.43,2.27-1.15,3.36-1.21A25.07,25.07,0,0,0,15.77,96.77Zm-10-19.54c.16.1.56-.23.88.07.6.55.57,1.57,1.19,2.12s2.33.86,3.26,1.06A18.27,18.27,0,0,1,15.24,82c1.94.86,3.8,1.82,6,.88,2-.86,2.56-2.18,4.88-2,2,.19,2.93.72,4.8-.47a15.31,15.31,0,0,1,4-2c1.76-.57,2.84-1.65,4.34-2.79a16.79,16.79,0,0,1-4,2c-.69.2-1.36-.1-1.8,0-.75.13-1,.77-1.89.63-.7-.1-.83-.86-1.28-1-.6-.17-1,.12-1.71.14a38.92,38.92,0,0,0-3.87.47L25,78l-.23,1.17c-2.82.94-4.46,1.64-7,1.64-2.35-.23-5.16-1.64-7.27-.94C9.25,79,9.49,79,8.32,78.5c0-2.12-1.65-2.12-3.06-3.76L4.09,74a2.28,2.28,0,0,0-1.82,1.18c.9.48,1.85,1.09,2.46,1.34A7.22,7.22,0,0,1,5.73,77.23ZM141.33,93c-.47-2.11-2.34-2.58-4.22-2.34,0-1.41-.71-1.41-1.41-1.88l-.86-.52c-1.61.48-3.12,1-5,.24,0,2-1.93,1.26-3.16,1.42a1.16,1.16,0,0,1-.86,1.16c1.18.28,2,1,1.56,2.31,2.16.63,4.62-2.42,6.44-.17,1-1.45,2.24-.24,3.39,0s2.76-.39,2.66,1.37a2,2,0,0,1,1.43,1.25c1.27-1.28,4.71-.7,6.33-.69a30.33,30.33,0,0,0,4.63-.11c0-.52-.1-1-.1-1.35C148.37,93.28,144.62,94.68,141.33,93ZM33.41,71.1c1,.14,1.13.72,2.09.85s2.06-.39,3.08-.32c-1.07-.2-2.8-.67-2.61-2.08a15.33,15.33,0,0,1-4.37-1,11.29,11.29,0,0,0-2.1-.4c.54.43,1,.78,1.34,1a2.84,2.84,0,0,0-3.05,3c-1.41-.7-1.88-.23-2.82.94l-.23.47c-1.73-.43-15.41-1.06-15.35,2,.84-.24,1.73-.37,2.32-.52a26.45,26.45,0,0,1,4-.92c1.61-.15,6.76-.19,7.65,1a3.64,3.64,0,0,1,2.25-.34c.2-1.48,3.41-1.1,4.54-1C30,71.81,31.61,70.84,33.41,71.1Zm113.08-6.44c-1.64-1.88-6.57-.71-8.21.7-.47-.24-1.41-.47-1.88-.7h-1.17a2.12,2.12,0,0,1,.25-.58,10.59,10.59,0,0,1-2.18,1.22,61.85,61.85,0,0,0-6,2.38c1.31-.53,2.67,0,3.85,0,1.36-.06,2.79-1.07,3.89.41-.44-1.21,1-1.16,1.92-1.17a4,4,0,0,0,2.28-.4c1.33-.48,4.6-2.37,5.49-.51.93.35,1.63-.22,2.61-.33a14.52,14.52,0,0,1,2.95.58,49.44,49.44,0,0,1,7.94,1.91C157.54,65.15,148.74,63.84,146.49,64.66ZM114.27,27.09a7.22,7.22,0,0,1,1-3.19c-.58-1.08-.48-2.31-.76-3.46a4.93,4.93,0,0,0-.91,3.63c-2.34,1.91-4.29,6.13-5.33,9.35,0,.11,0,.22,0,.32,1-1.46,1.49-3.32,3.68-3.66A2.6,2.6,0,0,1,114.27,27.09ZM8,38.76a6.89,6.89,0,0,1,.87,2.48c.2.56.89.74.74,1.69,1.23.09,2.55,1.94,3.49,2.7a20.48,20.48,0,0,0,1.93,1.74c.74.45,1.49.1,2.16,1a2,2,0,0,1,2.3.49c.32-1.33,1.76-1,2.77-.77.72.18,1.63,1.3,2,1.42s.89-.2,1.41-.05c.23.06,1.38.49,1.5.49,1,0,1.58-1,2.43.14a1.88,1.88,0,0,1,2.15-1c1.68.48.6,1.51,1.18,2.48.44.72,1.28.72,1.77,1.62a20.14,20.14,0,0,1,.37,2.22c1,0,2.74,1.26,3.5,1.83A8.14,8.14,0,0,1,41,60.53a8.07,8.07,0,0,0,1-.05c.23-.38.38-.74.67-1.17-1.87-.18,0-2.52.44-2.81-1.57.19-1.55-.33-2.44-1.28-.43-.47-.83-.21-1.11-1s.37-1.43,0-2.12c-.28-.53-1.29-.54-1.47-1-.33-.91.62-.72.54-1.55-.13-1.5-1.28-1.14-2.25-2-.52-.45-.8-.79-1.14-1.11l.32.64c-3.05-1.64-4.22-.7-7.51-.7-2.11,0-5.16-1.65-6.8-.24C19.81,45,17.93,45,17.7,46.59l-.94-.23c-2.11-.47-3.28-2.82-4.46-4.23S9.49,38.85,8.08,37a3.38,3.38,0,0,0-1.49.55A12.3,12.3,0,0,1,8,38.76ZM125.08,81.67c1.16-.28,3.15-.48,3.68.85,1.11-.65,4-2,5.11-1.06a2.76,2.76,0,0,1,3.87.18c1-.54,2-.22,3.12-.47a11.48,11.48,0,0,0,2.28-1.27,14.8,14.8,0,0,1,6.78-1.57,3.29,3.29,0,0,0-.61-1c-2.58.47-7,.47-8.92,2.35a12.8,12.8,0,0,1-2.58-1.17c.24-1.65-.47-2.82-1.87-3-.24-.71-.71-1.18-.94-1.88l-.09-.22-.53-.12a10.69,10.69,0,0,1-1,2.46c-.26.7,0,1.71-1.13,2.46s-1.48.16-2.51.33c-.63.1-1,.71-1.73.75C128.4,81.23,126.25,81,125.08,81.67ZM93.33,4.92a9.7,9.7,0,0,1,1-4.13A5,5,0,0,0,93.24.61a36.44,36.44,0,0,0-4,9.38c-.47,1.18-1.41,4-1.17,5.4l-.71,1.17c-1.4-1.64-2.11-3.75-4.22-4.45.7-1.41-2.81-4.93-4.22-4.46L78,6.94c-.88-2.28-6.65-5.1-9.08-4.38a50.85,50.85,0,0,1,4.92,2c1.6.8,2.07,1.71,3.12,3.16,1.49,2.07,5.21,3,5,6.13,1.76.16,1,1.19,1.54,2.15s2.05,1.56.78,2.95c1.08.69.56,1.41,1,2.32s1,1,1.4,1.76a5.44,5.44,0,0,1-.14,5.41c1.28.86.12,1.88.52,2.82.56,1.28,2.38,1.44,2.58,3.26.17,1.49-.71,2.94-1,4.35a13.52,13.52,0,0,0-.12,2.28c.33-2.15,2.08-2.57,3-4.39.58-1.24.47-2,1.41-3.18a7.54,7.54,0,0,0,1.38-2.42c-2.65-.37,1.18-4.76-3-4.64.09-1.35-.82-3-2.29-3.16-.07-1.36.42-3.75-1.42-4A2.83,2.83,0,0,0,88.25,17c.32-.6.91-.57,1.25-1.16a8.32,8.32,0,0,0,.56-2.22c.15-1.41-.57-4.74,1.51-5.34C91.53,7.07,91.93,5.08,93.33,4.92ZM53.57,49.15a4.72,4.72,0,0,1-2.22-1.44c-.83-.73-1-1.28-2.31-1.09a2.17,2.17,0,0,0-2.46-2.28c.1-1.81-.69-2-1.66-3.14l-.35-.42-.36.18a34.32,34.32,0,0,0-3.76-1.41c.47-1.4-.23-2.34-1.87-2.34.23-2.58-6.81-7-9.39-7.51-.23-1.64-.7-1.41-1.87-1.41l-.71-.23c-.7-1.88-2.34-2.58-4-1.41C21,24.3,16.29,24.77,13.71,24.3a3.86,3.86,0,0,0-.5,1.47c2.08.1,4.24-.25,6.25.78,1,.5,1.79,1.56,2.81,1.94,1.17.44,2.65-.18,2.63,1.73A1.75,1.75,0,0,1,27.58,32a4.62,4.62,0,0,1,2.08,1c.78-1.05,1.85.06,1.79,1.09,1.77-.16,2.62,1.1,1.75,2.62a1.76,1.76,0,0,1,1.42,1.4c1.28-1.32,2.86.55,1.92,1.78,2.42-.23.9,2.15,2.62,2.69,1,.31,1.47-1,2.44.34a4.39,4.39,0,0,1,.23,2.26c.93-.08,1.72.4,1.58,1.4,1.44.25,4.63-1.45,4.23,1.76,2.75.29,6.23,2.8,8.39,4.48C55.32,52.21,53,50.32,53.57,49.15Zm46.64-33.82c0-1.07.52-1.37.76-2.25.37-1.37.08-2.82,1.35-3.91,1.11-.95,2.45-1.53,3.36-2.84S107,3.28,108,2c-2.88.14-3.83,4-5.56,6.12s-4.93,4.22-4,7.27c-.7.47-.7.94-.94,1.64l-.47.71c-.7.93-1.64,1.17-2.11,2.11l-.25-.41c.19,2.11.86,4,.83,6.22a11.12,11.12,0,0,1,2.33-4.48c.3-.3,1-.18,1.21-.52s0-.72.16-.93c.53-.66.53-1.27,1.74-1.26C100.81,17.44,100.2,16.41,100.21,15.33Zm15,25.9c.53-.31,1.33-.16,1.81-.37,1.25-.55,1.56-1.39,3.26-.92.15-1,.33-2.5,1.59-2.47.09-1.53-.11-4.39,2.29-3.52a1.43,1.43,0,0,1,.52-1.58,2.34,2.34,0,0,1,2.29-2.64c.59-1.28,1.36-1.3,2.5-1.73a26.92,26.92,0,0,0,2.85-1.59c1.26-.66,2.25-.79,3.47-1.57a21.22,21.22,0,0,1,2.79-1.11l-1.2-.6c-2.81.71-7.5,1.64-9.38,4-1.17-.47-7,4.46-8.21,5.86-.94,1.18-1.64,2.35-2.58,3.76l-1.54.19A11.32,11.32,0,0,1,111,40.7c.29,1.52-.94.85-1.48,1.37a11.08,11.08,0,0,0-.88,1.24,35.25,35.25,0,0,0-2.61,3.27,3.09,3.09,0,0,1,2.06-.84c.09-1.21,1.62-2.44,2.66-2.92s2.42.32,3.31-.07C114.44,42.6,114.66,41.54,115.17,41.23Zm8.59,9.26c.14-1.86,1.63-1.5,3-1.58,0-2.47,1.76-1.62,3.2-2.25,1.11-.49,1.28-2.06,2.95-2a9.57,9.57,0,0,0,1.83-6.51c-.23-2.21-1-4.71-.94-7l-.45.22c.24,2.35-.7,7,.47,8.45-.47.47-.47,1.17-.7,1.64l-.23,1.17c-.24.47-1.18,1.18-1.65,1.88A4.76,4.76,0,0,0,127,45.65c-1.88-.94-3.28,1.41-5.63,1.41a8.59,8.59,0,0,1,.08-.91c-.22.23-.43.47-.63.71-.64.78-1.08,2.17-2.29,2.11-.78,1.56-3.4,1.92-4,3.24,1.23-.86,2.8-1,4.06-1.47A9,9,0,0,1,123.76,50.49ZM107.93,26c-.14-2.24,1.95-3.94,3.69-4.93-.11-1.23.64-2.17,1.23-3.18.89-1.53,2-1.65,3.16-2.64,2.09-1.7,2.68-4.07,5.46-5.21a13.9,13.9,0,0,0,4.45-2.5,8.64,8.64,0,0,0-.78-.87c-4.45,2.35-16.89,8.91-15.71,14.78-.71.23-1.65.94-2.12.94a7.88,7.88,0,0,0-1.4.7H105a4.31,4.31,0,0,1-.58-1.29c-.22,1.51-.24,6.19-2.74,6.36a36.55,36.55,0,0,1-1.09,5.72c1.16-1.75,3.14-2.56,3.49-4.51.31-1.67-.36-1.3,1.27-2.29C106,26.72,106.92,25.89,107.93,26Zm-28.1,5.54c0,.15,0,.29,0,.41A3,3,0,0,0,79.83,31.58Zm-7.06,2.89c-1.35-1.23-1.77-4.6-4-3.15-.2-1-1.42-1.87-2-2.82.07.17.15.34.22.5v.47c-1.87-.94-3.28-2.59-5.39-3,.23-1.65-1.64-3.76-2.58-5.4-1.18-2.35-1.41-4.69-2.35-6.8C55.84,12.81,50.55,8,48.32,9a30.92,30.92,0,0,1,5.44,3.54c1.68,1.24,2.1,3.17,2.87,4.92a10.79,10.79,0,0,1,.62,2.44c.13.63.61,1.48.75,2.31s.06,1.53.21,2.3a9.45,9.45,0,0,1,.51,2.26c1.45,0,1.89,1.51,1.27,2.64,1.06.31,1,1.36.27,2,1.29,1.36,2.91-.17,4.1.48,1.39.74,1,3.44-.16,4,1.28.41.76,1.48.11,2.24a5.22,5.22,0,0,1,1.25,3.64,20.84,20.84,0,0,0,.35-2.76c.15-1.06-.18-1.18,1.38-1.44.28-2.91,1.77-3.1,3.67-1.55a5.74,5.74,0,0,0,2,1.19,5.42,5.42,0,0,1,2.58,2C74.7,37.21,74.17,35.75,72.77,34.47Zm-12.7,5.35c-.44,0-.84-.33-1.35-.24.14-1.41-1.11-1.83-2.29-1.75.8-2.41-.83-1.64-2-2.61a5.12,5.12,0,0,1-1-1.66l-.07.13a5,5,0,0,0-3.52-1.64c-.71-1.41-.71-1.41-2.35-1.88-1.17-1.88.24-4.46-1.64-5.87C47.49,22,44.21,16.8,43,14.69a6.73,6.73,0,0,0-1.2.49c1.66,2.32,3.64,4.46,3.27,7.59a9.26,9.26,0,0,0,0,3.47,34.1,34.1,0,0,1,.55,4.37c1.51.37.76,1.61,1.42,2.45s2.13.77,2.6,2.33c.34,1.1-.27,2,.39,3a11,11,0,0,0,2.78,2.34c.71.27,2.15-.23,3-.19,1.69.09,1.55.42,2.12,1.59.66,1.36.41,4.16,1.94,5.21-.62-1.18.63-1.51,1.54-1.55a2.24,2.24,0,0,1,1.37-2.25,5.91,5.91,0,0,1-.31-1.57C60.89,42.49,59.93,41.5,60.07,39.82ZM81.2,19.94a4,4,0,0,1-3.15-1.43l-.06.4c-1.17-1.41-2.82-3.05-4.69-2.82-.24-4-4.46-4.69-7-6.57s-4.69-4.92-8-7a1.85,1.85,0,0,0-.64.79,22.58,22.58,0,0,0,3.7,3,33.92,33.92,0,0,1,3.9,3.4c1.24,1.12,7.62,5.28,4.77,7a1.65,1.65,0,0,1,.85,1.95c1.2.19,1.79,1.08,2.79,1.43s2.32-.17,2.14,1.73c3-.46,1.46,2.73.86,3.91,1.42.84,1,2.06,1.61,3.3.48,1,1.53,1.34,1.57,2.56.12-1.66.92-4.76,2.25-5.39-1.39-1.08.17-2.06.88-2.9C81.34,22.79,80.23,21.66,81.2,19.94Z"/><path d="M49.59,141.09a5.19,5.19,0,0,1-3.46.36.19.19,0,0,0-.16,0,5.16,5.16,0,0,1-1,1,3,3,0,0,1-1.72.31.16.16,0,0,0-.15.12c-.2,1.26-.94,1.4-2,1.85a23.24,23.24,0,0,0-2.77,1.92,32.09,32.09,0,0,1-3.62,1.8c-1.41.68-2.84,1.35-4.22,2.11-.14.07,0,.27.12.21,2.3-1.05,4.51-2.25,6.81-3.27a12.06,12.06,0,0,0,2.4-1.53,6.5,6.5,0,0,1,1.25-.9c.37-.18.77-.29,1.15-.45a1.62,1.62,0,0,0,1-1c.2-.59.32-.53.92-.6a2,2,0,0,0,.71-.18,2.39,2.39,0,0,0,.64-.45c.43-.41.48-.7,1.16-.58a5.15,5.15,0,0,0,2.94-.74S49.64,141.07,49.59,141.09Zm-20.67,7.24s1.56-.81,1.7-.89c1.09-.68,3-2.45,4.33-1.43a.22.22,0,0,0,.29-.08,3.72,3.72,0,0,1,2.7-2.21.24.24,0,0,0,.17-.17,2.21,2.21,0,0,1,1.92-2,.15.15,0,0,0,.11-.15c0-2.8,3.15-4.58,2.29-7.54a.1.1,0,0,0-.19.06c.58,2.24-1,3.76-1.94,5.61a5.13,5.13,0,0,0-.4,1.2c-.11.52-.08.5-.63.63a2,2,0,0,0-1.42,1.24c-.21.57-.18.66-.78.88a3.63,3.63,0,0,0-1.13.68,4,4,0,0,0-.88,1.15c-.24.44-.6.25-1.05.25a4.47,4.47,0,0,0-2.35,1,10.18,10.18,0,0,1-3,1.58.09.09,0,0,0-.05.13,7.75,7.75,0,0,0,1.45,2.12c.06,0,.14-.06.08-.1A5,5,0,0,1,28.92,148.33Zm5.26-13.76c.24-.25.55-.83,1-.8a7.86,7.86,0,0,0,1.19,0c1.66-.11,3.16-.5,4.82-.08a0,0,0,0,0,0-.09,13.12,13.12,0,0,0-4.84-.05c-.61,0-1.37-.27-1.78.24a9.75,9.75,0,0,1-1.84,1.73,10.77,10.77,0,0,1-3.79,1.55l-2.07.49c-.34.08-.62.24-.86-.08a2.91,2.91,0,0,0-.56-.55c1.67-1.06,3.29-2.19,5-3.18a.12.12,0,0,0,0-.19,4.52,4.52,0,0,0-1.5-.63c-1.05-.35-2.11-.68-3.16-1.06a12.64,12.64,0,0,1-3-1.48,1.91,1.91,0,0,1-.78-1,.8.8,0,0,1,.46-.94,7.76,7.76,0,0,1,2.74.3c1.29.25,2.56.57,3.82.93a16,16,0,0,1,2.93,1.06c.74.4,1.61-.21,2.41-.29a.13.13,0,0,0,.13-.12c.06-1.63,1.56-2.77,2.74-3.67a33.37,33.37,0,0,0,3.32-2.57.12.12,0,0,0-.17-.18c-1.33,1.28-3,2.2-4.37,3.41a6.34,6.34,0,0,0-1.44,1.74,3.16,3.16,0,0,0-.3.88c-.06.36.05.26-.37.36s-1.35.53-1.76.28a6.89,6.89,0,0,0-1.31-.56,37.82,37.82,0,0,0-4.31-1.23,18.45,18.45,0,0,0-3.68-.59.93.93,0,0,0-1.09,1c-.07.82.88,1.42,1.47,1.77a18.72,18.72,0,0,0,3.64,1.53c1,.35,2.11.63,3.11,1.06l.19.09c.19.1,0,0-.1,0-.53.31-1.05.64-1.57,1-1.12.72-2.21,1.46-3.34,2.16a.13.13,0,0,0,0,.22,4.23,4.23,0,0,1,.92.92.12.12,0,0,0,.12,0c2.28-.59,4.67-.89,6.67-2.25A9.62,9.62,0,0,0,34.18,134.57Zm-10.36-18.4c1.17-.19,2.34-.38,3.51-.55a60.66,60.66,0,0,1,7.49-.72c.06,0,.06-.08,0-.09a60.53,60.53,0,0,0-10.14.86c-.86.13-1.71.29-2.57.43a4.82,4.82,0,0,0-1.21.68,4,4,0,0,1-1.12.3c-.14,0-.27.28-.36.38a2.4,2.4,0,0,1-2.63.56.13.13,0,0,0-.12,0c-.24.24-3.18,2.52-3.42,1.93s-.89-2-.37-2.5c1.38-1.33,3.88-3.43,6-2.77a.07.07,0,0,0,.1,0c.85-1.24,2.71-1.59,4.07-1.88a42.39,42.39,0,0,1,4.77-.65.11.11,0,0,0,.1-.1c.1-2.27,3.29-3.19,5.08-3.65a.1.1,0,0,0,0-.2c-1.85.47-4.7,1.33-5.2,3.46,0,.21,0,.3-.24.32l-.86.09-1.66.2a20.92,20.92,0,0,0-4.06.91,6.63,6.63,0,0,0-1.34.65c-.19.12-.63.72-.84.66-1.11-.36-2.41.32-3.35.86a13.93,13.93,0,0,0-1.63,1.13,5.43,5.43,0,0,0-1.28,1.15c-.13.22.11.85.16,1.06a9.37,9.37,0,0,0,.52,1.63.12.12,0,0,0,.13.06,10.53,10.53,0,0,0,2.32-1.11,9.16,9.16,0,0,0,.87-.67c.43-.35.83-.16,1.33-.13a2.34,2.34,0,0,0,1.5-.52c.26-.22.47-.57.84-.62a3.08,3.08,0,0,0,1.11-.36,9,9,0,0,1,1-.53A7.94,7.94,0,0,1,23.82,116.17Zm-6-15.58c.31.07.16.48.14.68a1.64,1.64,0,0,0,.27,1.06,8.41,8.41,0,0,0,2.57,1.57,29.16,29.16,0,0,0,3.37,1.65c2.82,1.15,5.47,2.1,8.56,1.87.1,0,.1-.15,0-.14-3.19.19-6-.87-8.85-2.11a36.12,36.12,0,0,1-3.5-1.8c-.46-.26-1-.46-1.43-.73-.79-.47-.8-1.24-.64-2.06a.13.13,0,0,0-.09-.15c-3.34-.8-6.8-.54-10.14-1.31-1.59-.37-3.16-.77-4.77-1l-.91-.14c-.43,0-.71.06-.65-.43A2.93,2.93,0,0,0,1.52,96C1.33,95.58-.15,93,1.28,93.2a4.37,4.37,0,0,1,1.75,1,5.59,5.59,0,0,0,1.37.66c3.13,1.24,6.53.3,9.78.62a.12.12,0,0,0,.11-.11,2.7,2.7,0,0,1,3.17-2.64.15.15,0,0,0,.16-.09c.85-1.49,2.76-2,4.35-2.26.23,0,.13-.38-.1-.35a9.72,9.72,0,0,0-2.84.86,4.65,4.65,0,0,0-1,.68c-.38.31-.49.78-1,.77a3,3,0,0,0-2.06.78,2.3,2.3,0,0,0-.63.89c-.08.21-.19,1.24-.42,1.22-2.72-.26-5.46.42-8.16-.17A7,7,0,0,1,3,93.94a3.82,3.82,0,0,0-2.21-1A.13.13,0,0,0,.7,93a2.38,2.38,0,0,0,0,2c.46,1,1,1.74.68,3a.12.12,0,0,0,.11.14c3.08.27,6,1.45,9.07,1.7,2,.16,3.92.24,5.87.54C16.9,100.39,17.35,100.49,17.8,100.59ZM2,76.27a4.76,4.76,0,0,1,2.19,1.65c.77.87,1.45,1.8,2.21,2.67,1.37,1.58,3.22,3,5.45,2.66.24,0,.6-.27.63,0a3.85,3.85,0,0,0,.13.66,3.64,3.64,0,0,0,.65,1.19A8,8,0,0,0,16,87.24a26.84,26.84,0,0,0,6.4,2.05s0,0,0,0A53.9,53.9,0,0,1,17,87.45c-1.9-.81-4.3-2.16-4.36-4.5a.12.12,0,0,0-.15-.12c-3.12.89-5.23-1.45-7-3.66a15.78,15.78,0,0,0-2.34-2.56,3.25,3.25,0,0,0-1-.55c-.2-.07.55-1.21.65-1.31a2.67,2.67,0,0,1,1.34-.59c.16,0,.09-.27-.06-.24a2.51,2.51,0,0,0-2.2,2.2A.11.11,0,0,0,2,76.27ZM24.7,79.08a24.71,24.71,0,0,1-6.42,1.62c-2.15.12-4.2-1-6.35-1.1a5.25,5.25,0,0,0-1,.08c-.59.1-.86-.24-1.28-.59S8.49,78.65,8.35,78C8,76.4,6.28,75.82,5.29,74.72c0,0-.07,0,0,0,1.12,1.26,2.95,1.82,3,3.74a.08.08,0,0,0,0,.07,5,5,0,0,1,1.45.88c.57.5.52.57,1.19.43,1.66-.35,3.52.4,5.11.79,3.05.75,5.87-.39,8.73-1.35C24.93,79.27,24.86,79,24.7,79.08ZM25,78c-4-2.24-8.58-2.4-13.07-2-.53,0-1,.12-1.57.18s-.61.12-.78-.31a.94.94,0,0,1,.16-.94,4.11,4.11,0,0,1,2.24-1,31.17,31.17,0,0,1,7.41-.57,26.35,26.35,0,0,1,5.32.35c.14,0,.21-.19.06-.22a18.13,18.13,0,0,0-3.68-.34,51.16,51.16,0,0,0-6.19.11c-1.37.11-7.08.57-5.29,3.22,0,0,.07.07.11.06,5.17-.67,10.47-.9,15.22,1.57C25,78.12,25.07,78,25,78Zm2.74-5.73a.09.09,0,0,0,.13-.08,2.85,2.85,0,0,1,3-2.92A.13.13,0,0,0,30.9,69,48.88,48.88,0,0,1,25,64a27.12,27.12,0,0,1-3-3.36c-.59-.8-1.41-1.95-1.18-3a.14.14,0,0,0-.2-.15c-1.53.79-2.82,0-3.32-1.56a.13.13,0,0,0-.2-.08c-1,.73-1.85.48-3,.44a.14.14,0,0,0,0,.28,9.31,9.31,0,0,0,2.11.05,9.47,9.47,0,0,0,.89-.38,3.42,3.42,0,0,0,.45.87,2.29,2.29,0,0,0,3,.72,4.07,4.07,0,0,0,.77,2.26,20.67,20.67,0,0,0,2.9,3.5A46.48,46.48,0,0,0,30.49,69a2.94,2.94,0,0,0-2.74,2.43c-.08.38,0,.61-.43.43a1.71,1.71,0,0,0-.81-.1,3,3,0,0,0-1.57,1.31s0,.07,0,0C25.81,72.16,26.47,71.62,27.74,72.24ZM5.11,57.46C6.43,56.07,8.32,56.59,10,56a2.42,2.42,0,0,0,.63-.35c.37-.29.54,0,.89.15.65.36,1.52.23,2.22.46.06,0,.08-.06,0-.08-1-.36-2-.22-2.76-1a.09.09,0,0,0-.12,0c-1,.93-2.31.81-3.58,1a4.76,4.76,0,0,0-1.53.46,3.76,3.76,0,0,0-.6.45c-.11.1-.4-.93-.41-1a5.62,5.62,0,0,1-.13-1.3c0-.5.18-.62.61-.71a17.33,17.33,0,0,0,1.73-.54c1.39-.46,2.92-.84,3.87.6a.12.12,0,0,0,.18,0c1.67-1.31,3.67-.44,5.55-.21.12,0,.15-.19,0-.21a21.37,21.37,0,0,0-3.72-.53,3.6,3.6,0,0,0-1.54.44c-.57.3-.45,0-.94-.35-1.74-1.21-4,.42-5.83.67,0,0-.07,0-.08.08a5.46,5.46,0,0,0,.48,3.37A.11.11,0,0,0,5.11,57.46Zm11.15-5.19c.06,0,.12-.06.06-.09-4.92-2.57-8.36-7.9-10.15-13-.09-.27-.18-.56-.27-.84s.54-.59.76-.72a4.54,4.54,0,0,1,1.06-.46c.39-.12.68.44.87.68,1,1.3,2.07,2.54,3.13,3.79,1.46,1.73,2.65,4.25,5,4.87a.12.12,0,0,0,.06-.24,6.42,6.42,0,0,1-3.32-2.74c-.74-1-1.52-2-2.32-2.92-.54-.63-1.07-1.27-1.6-1.91-.27-.34-.54-.67-.8-1a5.85,5.85,0,0,0-.61-.79c-.21-.12-.75.13-.93.21a5.25,5.25,0,0,0-1.55,1,.11.11,0,0,0,0,.11C7.25,43.74,11,49.6,16.26,52.27Zm19.2-5.09c.16.08.3-.16.14-.24a8,8,0,0,0-4.78-.9,25.21,25.21,0,0,1-3,.19,16.34,16.34,0,0,1-3.09-.58,6.87,6.87,0,0,0-2.39-.14,2.4,2.4,0,0,0-1,.41c-.21.14-.88-.38-1.09-.47-1.11-.49-2.37-.15-2.56,1.14,0,0,0,0,0,0,.44-1.81,2.37-1.28,3.45-.41,0,0,.07,0,.1,0,1.95-1.44,4.88.3,7.06.29,1.12,0,2.22-.19,3.34-.25A7.35,7.35,0,0,1,35.46,47.18ZM13.24,27.25a14.16,14.16,0,0,1,7.19,2.63c2.08,1.64,3.81,3.64,5.94,5.23a23.12,23.12,0,0,1,3.58,3c1.08,1.2,1.15,2.58,1.73,4a2.75,2.75,0,0,0,.68,1c.4.37,1.13.35,1.13,1,0,1.07.8,1.46,1.51,2.12a.08.08,0,1,0,.12-.12c-.31-.31-.66-.57-1-.87a1.75,1.75,0,0,1-.36-1.65.14.14,0,0,0-.09-.13c-2-.49-1.93-2.35-2.53-3.94S29,36.76,27.79,35.81a52.25,52.25,0,0,1-4.38-3.62,35.06,35.06,0,0,0-3.24-2.86,11.18,11.18,0,0,0-3.41-1.68,18.21,18.21,0,0,0-2.62-.55c-.48-.07-.81,0-.86-.56a4.25,4.25,0,0,1,.27-1.62c.24-.74,1.07-.37,1.71-.32.82.07,1.64.11,2.46.19,1.69.16,3.72.46,4.81,1.92,0,0,.1.07.15,0,1.6-1,3.12-.34,3.81,1.35.06.15.31.09.25-.07A3,3,0,0,0,24.37,26a2.64,2.64,0,0,0-1.57.45c-.22.12-1-.7-1.26-.86-2.3-1.38-5.27-.84-7.8-1.36a.11.11,0,0,0-.13,0,4,4,0,0,0-.5,2.92A.13.13,0,0,0,13.24,27.25Zm14.08,1.11a7.34,7.34,0,0,1,1.05,0c.6.09.67.87.74,1.34,0,0,0,.06.06.06a15.37,15.37,0,0,1,5.38,2.72c1.39,1,4,2.74,3.87,4.71a.16.16,0,0,0,.16.15c1.34,0,2.11.78,1.71,2.15a.17.17,0,0,0,.12.21c1.31.3,2.46,1.1,3.76,1.37.15,0,.25-.17.11-.24a19.87,19.87,0,0,0-3.36-1.36c-.38-.11-.13-.77-.2-1.16a1.53,1.53,0,0,0-.64-.91c-.13-.09-1.33-.52-1.34-.32a2.09,2.09,0,0,0-.23-.88A7.34,7.34,0,0,0,36.75,34,21.25,21.25,0,0,0,31,30.23a12,12,0,0,0-1.18-.46l-.49-.13c-.12,0-.21-.7-.26-.82-.35-.74-1-.61-1.75-.6A.07.07,0,0,0,27.32,28.36ZM39.92,16c1.44.91,2,3.06,2.52,4.58a16,16,0,0,1,.91,4.68c0,1.62-.13,3.24-.05,4.87.05.88.15,2.08.93,2.65-1,.81-1.62,2.2-.46,3.19.32.27.8.21.54.68A2.6,2.6,0,0,0,44,37.81a4.16,4.16,0,0,0,1.11,2.72s.11,0,.07-.08c-1-1.23-1.38-2.77-.39-4.12a.12.12,0,0,0-.08-.18c-1.75-.66-1.57-2.31-.2-3.29a.13.13,0,0,0,0-.22c-1.17-.67-1-2.85-1-4a38.3,38.3,0,0,0,0-4.91,20.94,20.94,0,0,0-1.21-4.4c-.46-1.27-1.06-2.85-2.27-3.61C39.91,15.65,39.77,15.88,39.92,16Zm10.51,16c-.59-.09-.64-.35-.92-.82a2,2,0,0,0-.57-.59,4,4,0,0,0-.94-.36c-.81-.23-.86-1.25-.91-2a8.78,8.78,0,0,0-.42-3.1c-.14-.31-.73-.71-.56-1a2.91,2.91,0,0,0,.27-1,6.52,6.52,0,0,0-.52-2.95,36,36,0,0,0-2.77-5.47.06.06,0,0,0-.07,0,5.84,5.84,0,0,0-2.13,1.2,0,0,0,1,0,.07.07,5,5,0,0,1,1.86-1.07c.32-.1.59.66.71.88.49.86,1,1.72,1.39,2.61.8,1.64,2,4.2.84,5.94a.1.1,0,0,0,0,.13c1.57,1.3.78,3.47,1.3,5.2.23.76.52.74,1.23,1s1.07.86,1.42,1.57a.14.14,0,0,0,.12.07,5.07,5.07,0,0,1,3.41,1.6.15.15,0,1,0,.21-.21A5.7,5.7,0,0,0,50.43,31.94ZM67,29.34c-1.53-.8-2.79-2.07-4.39-2.72-.35-.15-.92-.17-.92-.61a3.27,3.27,0,0,0-.17-.88,8.7,8.7,0,0,0-1.07-2.05c-.45-.71-1-1.4-1.38-2.13a14.41,14.41,0,0,1-1.2-3.31,11.26,11.26,0,0,0-1.54-4c-1.21-1.51-7.65-7.63-9-3.64a.15.15,0,0,0,.07.16c2.94,2.26,5.64,4.8,6.67,8.48,1.26,4.46.22,9.39-.05,13.92,0,0,0,0,0,0,.47-4.68,1.52-9.57.22-14.2-1-3.54-3.67-6.09-6.49-8.27-.48-.37.59-1,.9-1.06a3.36,3.36,0,0,1,2,.42A15.11,15.11,0,0,1,54.41,12a7.83,7.83,0,0,1,2.43,3.08c.85,2.3,1.18,4.73,2.53,6.82.85,1.31,2.2,2.84,2.05,4.51a.16.16,0,0,0,.11.14c2,.51,3.53,2.08,5.36,3C67.06,29.68,67.21,29.43,67,29.34ZM63.58,11.17c0-.18-.28-.18-.27,0,.08,3.11,2.61,5.49,2.61,8.64s-.42,6.29,1,9.2a0,0,0,1,0,0,0c-1.36-3-.85-6.28-.83-9.43S63.65,14.18,63.58,11.17Zm12,5.3A4.26,4.26,0,0,0,74.09,16c-.07,0-.66,0-.67-.09a5.38,5.38,0,0,0-.12-.7c-.39-1.8-1.94-2.93-3.45-3.77-.84-.47-1.7-.87-2.54-1.34a15,15,0,0,1-2.88-2.26,44.55,44.55,0,0,0-6.08-5.41.12.12,0,0,0-.15,0c-1.34,1.07-.6,2.47.3,3.56,1.26,1.52,3.17,2.59,4.19,4.3a.06.06,0,1,0,.1-.06c-1-1.72-2.84-2.92-4.12-4.41-.61-.71-1.33-1.75-.8-2.69.13-.23.33-.52.6-.34.48.32.94.67,1.39,1,.66.54,1.28,1.12,1.89,1.72,2,1.94,3.83,3.93,6.33,5.24,2.28,1.2,4.9,2.41,5.07,5.34,0,.08.07.16.15.15,2-.12,3.4,1.39,4.58,2.78.13.16.36-.07.22-.23A10.42,10.42,0,0,0,75.55,16.47ZM77.35,13c0-.17.15-.83,0-.93a11.66,11.66,0,0,1-2.66-3.23,13.17,13.17,0,0,0-2-2.86A5.69,5.69,0,0,0,69.4,4.5a10,10,0,0,0-1.23-.06C67.89,4.44,68,4,68,3.8a1.21,1.21,0,0,1,.81-1A5,5,0,0,1,72,3a14.16,14.16,0,0,1,3.55,1.65A5.79,5.79,0,0,1,77.87,7c.06.14.3.08.24-.07a5.73,5.73,0,0,0-2.19-2.34,13.58,13.58,0,0,0-4-1.94c-1.79-.53-4.59-.62-4.12,2a.15.15,0,0,0,.14.11A6.38,6.38,0,0,1,72.34,6a11.94,11.94,0,0,1,2.22,3.05,11.13,11.13,0,0,0,2.32,2.87c.33.28.25.6.25,1a5.66,5.66,0,0,0,.18,1.3c.24,1,.61,2,.85,3a.07.07,0,0,0,.13,0c-.21-.94-.52-1.86-.74-2.8A7.62,7.62,0,0,1,77.35,13Zm7.51.05c-.13-.13-1.49-1.13-1.56-1A1.56,1.56,0,0,0,83.2,11,6.35,6.35,0,0,0,81.12,8.4a2.71,2.71,0,0,0-2.21-.81c-.08,0,0,.14,0,.12,1-.23,2.11.83,2.74,1.46s1.77,1.91,1.36,2.88a.11.11,0,0,0,.07.16c2.07.86,2.74,2.9,4.16,4.45.1.11.3,0,.21-.17A31.87,31.87,0,0,0,84.86,13Zm12.06,4.66c-.61.74-1.49,1.18-2,2a18.44,18.44,0,0,0-1.31-1.95,10.05,10.05,0,0,0-1-1.08c-.46-.44-.25-.87-.17-1.45a24.26,24.26,0,0,0,.23-3c0-.82-.3-2.29.32-2.86a7.25,7.25,0,0,0,1.58-3.44,27.27,27.27,0,0,1,1.37-4.51.12.12,0,0,0-.05-.17,8.74,8.74,0,0,0-1.81-.6C93.56.49,93.27.36,93,.8a26.92,26.92,0,0,0-2.62,5.53c-.59,1.61-1.1,3.26-1.63,4.89a9.51,9.51,0,0,0-.67,4.18s0,0,0,0a9.35,9.35,0,0,1,.63-3.69c.41-1.31.88-2.6,1.32-3.9A38.68,38.68,0,0,1,92,3,22.88,22.88,0,0,1,93.17.92c.3-.48,1.74.17,2.16.32s.34.08.21.37-.19.49-.28.75c-.19.55-.34,1.12-.48,1.68a26.33,26.33,0,0,1-1.13,3.8,4.13,4.13,0,0,1-.84,1.31c-.11.11-.3.18-.38.31s0,.81,0,1.07a29.28,29.28,0,0,1-.47,5.76.17.17,0,0,0,0,.15,14.35,14.35,0,0,1,2.82,3.47.13.13,0,0,0,.21,0c.49-.88,1.45-1.32,2.08-2.1C97.16,17.7,97,17.55,96.92,17.66ZM104.4,5.1c.9-1.54,2.06-3.1,4-3a3.93,3.93,0,0,1,.76.15c.37.1.78.16.44.55-.46.55-.92,1.1-1.37,1.67a12,12,0,0,0-2,3.35c0,.1.12.16.17.07a22.13,22.13,0,0,1,3.77-5.35.13.13,0,0,0,0-.21,3.89,3.89,0,0,0-4.3.35c-1.34,1.11-2,2.9-2.91,4.35-1.13,1.83-2.93,3.12-4.09,4.93a4.19,4.19,0,0,0-.71,2.7,1.18,1.18,0,0,1-.34,1.13A3.71,3.71,0,0,0,97.4,17c0,.07.1.1.12,0a2.68,2.68,0,0,1,.91-1.61.06.06,0,0,0,0-.07c-.67-2.54,1.4-4.38,3-6A21.83,21.83,0,0,0,104.4,5.1Zm1.69,5.09c.27-.41,0-1.13.11-1.59,0-.07-.1-.11-.12,0-.18.9.23,1.63-.9,2a.11.11,0,0,0-.08.13c.67,2.66-2.25,4.66-1.84,7.33a22.52,22.52,0,0,0,.76,3,5,5,0,0,0,.88,2.1.1.1,0,0,0,.16-.12,10.62,10.62,0,0,1-1.13-3.2,6.11,6.11,0,0,1-.14-4c.56-1.52,1.66-2.84,1.64-4.52,0-.22-.17-.58.08-.71A1.41,1.41,0,0,0,106.09,10.19Zm3.43,11.27c-.42-2.38,1.26-4.51,2.83-6.1a36.26,36.26,0,0,1,6.91-5.2c1.09-.67,2.2-1.31,3.32-1.93C122.92,8,125,6.71,125.22,7a7.3,7.3,0,0,1,1.6,2.37c.07.19-2.13,1.5-2.38,1.68a27.26,27.26,0,0,0-4.08,3.81.12.12,0,0,0,0,.16,2.5,2.5,0,0,1-1.8,3.32c-.17.05-.1.32.07.26a3.3,3.3,0,0,0,1.9-1.47,2.49,2.49,0,0,0,.31-1.1c0-.32-.3-.95-.08-1.2a24.85,24.85,0,0,1,6.35-5.16.12.12,0,0,0,.06-.15,7.14,7.14,0,0,0-1.91-2.87.14.14,0,0,0-.16,0,61,61,0,0,0-11.67,7.48,12.72,12.72,0,0,0-3.88,5,5,5,0,0,0-.26,1.22c0,.22.13,1.08-.09,1.17-.65.25-1.21.67-1.88.89a5,5,0,0,0-1.42.73s0,.1.05.07a4.63,4.63,0,0,1,1.56-.68c.69-.21,1.29-.65,2-.91A.1.1,0,0,0,109.52,21.46ZM118,24.67a3.05,3.05,0,0,0-.11-2.3,1.79,1.79,0,0,1-.29-1.39,13.87,13.87,0,0,1,.26-1.59c0-.05-.05-.06-.06,0-.18.6-.25,1.22-.38,1.84s-.17.44.19,1c1,1.55-.21,3.44-1.29,4.56a.15.15,0,0,0,0,.17c.92,1.49.52,3.71.24,5.33a17.92,17.92,0,0,1-1.39,4.63.11.11,0,0,0,.2.11,12.25,12.25,0,0,0,1.25-3.59,15.21,15.21,0,0,0,.47-4.89,4.18,4.18,0,0,0-.45-1.62,11.45,11.45,0,0,1,.79-1A5,5,0,0,0,118,24.67Zm-4.31-.52c.08-.07,0-1.53,0-1.73a5.46,5.46,0,0,1,1.07-2.33s0-.05,0,0a5.54,5.54,0,0,0-1.32,3.44c0,.72-.57,1-1,1.56a14.11,14.11,0,0,0-1.19,1.6,27.36,27.36,0,0,0-3.09,6.7c.27-4.85,2.29-10.26,6.23-13.18.12-.09,0-.31-.13-.22-4.34,3.07-6.36,9.31-6.41,14.42a.14.14,0,0,0,.27,0A30.29,30.29,0,0,1,111.36,27,12.34,12.34,0,0,1,113.73,24.15Zm7.61,7.11a23.56,23.56,0,0,0-4.18,5.47s0,0,0,0a33.13,33.13,0,0,1,3-4.05,31.58,31.58,0,0,1,2.36-2.12,34.14,34.14,0,0,1,3.11-2.34c.52-.35,1.6-1.2,2.28-1a.12.12,0,0,0,.13,0c2.18-2.6,6.22-3.17,9.33-3.94.17-.05.1-.32-.07-.27a32.82,32.82,0,0,0-7.2,2.29,8,8,0,0,0-1.35.87c-.21.17-.71.81-.92.8a3.29,3.29,0,0,0-1.63.61A29.57,29.57,0,0,0,121.34,31.26Zm17.6-5.65a7,7,0,0,0-.79.06,7.64,7.64,0,0,0-2.42.79c-1.77.9-3.21,2.26-5.23,2.63a.15.15,0,0,0-.1.14c-.11,1.3-1.59,1.69-2.68,1.71-.06,0-.14,0-.15.12-.34,2-2.54,2.9-2.83,4.93,0,.22.3.31.34.09.26-1.7,1.86-2.55,2.56-4a2.25,2.25,0,0,0,.22-.71,6.38,6.38,0,0,1,1.18-.28,2.46,2.46,0,0,0,1.49-1.15c.09-.15.06-.55.29-.6a7.5,7.5,0,0,0,1.16-.38,14.55,14.55,0,0,0,2.08-1.16,9.55,9.55,0,0,1,5.16-1.95.11.11,0,0,0,.1-.14c-.25-.6-.26-1.27-.52-1.87,0-.07-.13,0-.11,0a6.47,6.47,0,0,1,.28,1.29C139,25.26,139.16,25.61,138.94,25.61Zm-17.18,18.6c-.4.29-.29.54-.35,1s-.15,1.21-.17,1.81a.15.15,0,0,0,.15.15,5.59,5.59,0,0,0,2.42-.73c1-.52,2-1.21,3.14-.7a.14.14,0,0,0,.14,0,4.72,4.72,0,0,1,4.12-1.17.13.13,0,0,0,.15-.06c.49-.67,1.21-1.17,1.64-1.88a.13.13,0,0,0-.23-.13,10.23,10.23,0,0,1-1.3,1.42c-.41.46-.92.21-1.51.25a3.8,3.8,0,0,0-1.37.35c-.35.15-1.4,1-1.72.87a2.85,2.85,0,0,0-2.29.31c-.51.24-1,.54-1.51.78a5.28,5.28,0,0,1-1,.33c-.48.11-.52.19-.49-.19s.1-.94.16-1.41c0-.22,0-.44,0-.66s.49-.39.57-.46a5.6,5.6,0,0,0,1.87-4.54c0-.16-.17-.64,0-.72a1.5,1.5,0,0,0,.39-.22c.57-.49.13-1.27.1-1.91a.06.06,0,1,0-.11,0,4,4,0,0,0,.08.77c.12.69-.09,1-.76,1.23a.12.12,0,0,0-.08.14A5.4,5.4,0,0,1,121.76,44.21ZM130,50.9c1.88-3.2,4.87-5.65,6.14-9.22a17.53,17.53,0,0,0-.3-11.31.11.11,0,0,0-.12-.09,7.36,7.36,0,0,0-2.41.95.11.11,0,0,0-.06.11c.16,1.9-.14,3.82-.13,5.72a6.49,6.49,0,0,0,.35,2.27c.16.42.28.37,0,.81a10.53,10.53,0,0,0-.43,1.27c0,.07.1.13.13.05a5.12,5.12,0,0,1,.71-1.6.11.11,0,0,0,0-.12,4.83,4.83,0,0,1-.57-2.9c0-1.24.11-2.48.16-3.72,0-.48,0-.95,0-1.43s.69-.62,1.08-.8a7.28,7.28,0,0,1,.89-.32c.25-.07.42.89.46,1a19.42,19.42,0,0,1,.53,2.65,15.07,15.07,0,0,1-1.41,9.09c-1.45,2.69-3.84,4.74-5.37,7.39A.17.17,0,0,0,130,50.9Zm7,1.81c-.2,0-1.22.58-1.39.41a5.17,5.17,0,0,0-.73-.6,2.65,2.65,0,0,0-1.5-.19A3.61,3.61,0,0,1,132,52a10.07,10.07,0,0,1-1.66-.7,0,0,0,1,0,0,.07,10.19,10.19,0,0,0,1.42.66c.48.19.91.59,1.43.59a7.06,7.06,0,0,1,1.3,0,2.68,2.68,0,0,1,1.17.89.15.15,0,0,0,.16,0,4.05,4.05,0,0,1,3.85-.23.14.14,0,0,0,.21-.12c.28-2.48,4.17-2.67,6-2.52a7.07,7.07,0,0,1,1.51.29c.28.08.75.5,1,.5a9.81,9.81,0,0,0,1-.22,6,6,0,0,1,1,0,2.63,2.63,0,0,1,2,1,1.92,1.92,0,0,1,.28,1c0,.75-.14.68-.75.57a9.06,9.06,0,0,0-2.65,0c-1.63.21-3.19.74-4.82,1-1.36.21-3.06.31-4.21,1.16a2.52,2.52,0,0,0-.76,1.11,2.05,2.05,0,0,1-1.6,1.55.18.18,0,0,0-.1.26c1.25,2.5-2.22,3.66-2.84,5.73a.18.18,0,0,0,.34.09c.64-2.17,4-3.19,2.88-5.8a2.28,2.28,0,0,0,1.59-1.59c.53-1.46,2-1.7,3.39-2s2.6-.44,3.9-.76a11.34,11.34,0,0,1,5.63-.34.16.16,0,0,0,.19-.11A2.46,2.46,0,0,0,150.89,51a4.83,4.83,0,0,0-1.26-.06,8.6,8.6,0,0,1-1.24.22,3.77,3.77,0,0,0-1.68-.65c-2.1-.42-6.62-.26-7.13,2.5A4.29,4.29,0,0,0,137,52.71Zm12.79,11.63a11.32,11.32,0,0,0-2.79.06,2.37,2.37,0,0,0-.46.11,5.87,5.87,0,0,1-.5-.39,3.75,3.75,0,0,0-1.64-.51,9.28,9.28,0,0,0-4.26.62,7.88,7.88,0,0,0-1.54.76c-.28.19-.31.26-.67.13s-1-.32-1.49-.53c-.09,0-.17.09-.08.13.61.28,1.28.42,1.87.72a.11.11,0,0,0,.12,0,8.16,8.16,0,0,1,3.74-1.49c1.4-.26,3.26-.32,4.31.8a.15.15,0,0,0,.12,0,10.48,10.48,0,0,1,4.76,0,14.59,14.59,0,0,1,5.39,1.74,3.08,3.08,0,0,1,1.43,1.57,1.64,1.64,0,0,1,0,1c-.13.42-.28.29-.67.2s-1.06-.22-1.6-.3c-3.55-.55-7.18-.24-10.67-1.18a.14.14,0,0,0-.16.07c-.76,1.57-2.46,1.67-3.76.67a.15.15,0,0,0-.26.1c-.09,3-4.47,2.77-6.49,3.62-.19.08,0,.35.16.27,2.11-.89,6.28-.66,6.62-3.61a2.9,2.9,0,0,0,2.55.47,2.37,2.37,0,0,0,1.06-.75c.14-.16.23-.56.52-.48.53.14,1.07.24,1.6.33,3.65.62,7.39.28,11,1.24a.17.17,0,0,0,.17-.07C160.29,65.77,152,64.52,149.79,64.34Zm-.74,15.45a21.89,21.89,0,0,0-2.26.7,29.15,29.15,0,0,0-4.06,1.86A64.53,64.53,0,0,0,134.45,88c-.16.12,0,.39.16.27,4.75-3.61,9.73-7.19,15.67-8.44a.15.15,0,0,0,.11-.14,4,4,0,0,0-.86-2.3c-.18-.21-.18-.19-.45-.15-.54.1-1.1.16-1.65.23a19.25,19.25,0,0,0-5.58,1.14,6.28,6.28,0,0,0-1.08.59.88.88,0,0,1-1.15.1c-.37-.16-.73-.35-1.09-.54l-.45-.24c-.23-.12-.11-.51-.12-.74a2.58,2.58,0,0,0-.84-1.89,2.3,2.3,0,0,0-.94-.46c-.45-.13-1-1.47-1.14-1.85,0,0-.1,0-.08,0,.24.66.68,1.22.89,1.89a.09.09,0,0,0,.06.06c1.48.32,2,1.58,1.79,3,0,0,0,.08.05.1a14.29,14.29,0,0,0,2.4,1.15c.36.12.45-.12.75-.34a5.72,5.72,0,0,1,1.66-.82,18.92,18.92,0,0,1,3.94-.76l1.81-.22.65-.09c.41-.06.55.3.72.61a4.32,4.32,0,0,1,.38,1.15C150.15,79.7,149.28,79.73,149.05,79.79Zm3.07,13.82a39.18,39.18,0,0,0-6,.11,12.52,12.52,0,0,1-3.29-.27c-.56-.13-1.3-.32-1.49-.92a3.13,3.13,0,0,0-.44-.8,3.66,3.66,0,0,0-3.09-1.19c-.43,0-.58.08-.65-.39a1.14,1.14,0,0,0-.22-.55,3.75,3.75,0,0,0-1.19-.81,0,0,0,0,0,0,.06c.8.51,1.33.76,1.35,1.85a.08.08,0,0,0,.08.08,5.73,5.73,0,0,1,2.33.2,2.86,2.86,0,0,1,1.12.73c.4.41.4.94.67,1.39.07.13.5.26.63.32a7.59,7.59,0,0,0,1.76.45,14.51,14.51,0,0,0,3.09.09c1,0,2.11-.15,3.16-.17.54,0,1.07,0,1.61,0,.31,0,.5,0,.53.3s.05.48.07.72a4.51,4.51,0,0,1,0,.52c0,.51-.64.42-.95.45l-2,.15a25.51,25.51,0,0,0-3.37.46.14.14,0,0,0-.11.14c-.09,2.33-2.78,3.52-4.64,4.24a15.25,15.25,0,0,1-7.84,1c-.07,0-.14,0-.17.07-.68,1.22-2,1.67-2.91,2.64a43.07,43.07,0,0,0-2.93,3.66c-.13.16.09.38.22.22a26.23,26.23,0,0,1,2.6-3.34c.8-.75,1.73-1.32,2.54-2,.24-.22.58-.9.93-.85a18.88,18.88,0,0,0,2.38.13,14.49,14.49,0,0,0,3.74-.67c2-.6,4.22-1.45,5.61-3.07a3.08,3.08,0,0,0,.57-1,3.35,3.35,0,0,0,.17-.62c.05-.45.55-.4.92-.47,1.75-.29,3.53-.32,5.29-.51a.13.13,0,0,0,.14-.11,6.68,6.68,0,0,0,0-2.14A.13.13,0,0,0,152.12,93.61ZM142,119a11.52,11.52,0,0,1-8.89.08,4.08,4.08,0,0,1-.83-.54c-.08-.07-.18-.26-.3-.26a10.51,10.51,0,0,1-2.44-.1c-1.5-.32-3.74-1.3-3.88-3.07,0,0,0,0,0,0,0,1.34,1.28,2.2,2.37,2.73a7.81,7.81,0,0,0,2.36.69,6.23,6.23,0,0,0,1.06,0,1.06,1.06,0,0,1,1,.33,7.44,7.44,0,0,0,4,1.18,13.2,13.2,0,0,0,5-.57,3.06,3.06,0,0,0,.63-.26,1.21,1.21,0,0,1-.14,1,4.16,4.16,0,0,1-1.66,1.42,19.06,19.06,0,0,1-4.64,1.79,14,14,0,0,1-6.4-.23,52.21,52.21,0,0,1-7-2.15c-.18-.07-.26.22-.08.29a45.5,45.5,0,0,0,7.57,2.28,13.41,13.41,0,0,0,6.14.06,18.59,18.59,0,0,0,4.7-1.89c.93-.56,2.12-1.52,1.69-2.74A.12.12,0,0,0,142,119Zm-8.35,19c-2.42-.36-4.27-1.6-6.31-2.85s-4.75-1.37-7.08-2c0,0-.06.05,0,.06,1.83.49,3.74.67,5.52,1.33s3,1.84,4.55,2.65a10.17,10.17,0,0,0,2.11.8c.21.06,1.06.15,1,.28a1.32,1.32,0,0,1-.25.52,3.05,3.05,0,0,1-2.43.73,29.35,29.35,0,0,1-7.31-1.28c-1.1-.28-2.19-.57-3.29-.83a8,8,0,0,0-2.27-.36.12.12,0,0,0,0,.23,23.63,23.63,0,0,1,3.91.82c1.81.46,3.61.94,5.43,1.29,1.61.31,6.13,1.35,6.51-1.25C133.73,138.05,133.7,138,133.62,138Zm-9.07,7c-.25-.14-.14-.4-.15-.63a1.74,1.74,0,0,0-.24-.62,3.55,3.55,0,0,0-1.31-1.15,5,5,0,0,0-.73-.36c-.45-.18-.35-.39-.44-.79a2.22,2.22,0,0,0-.63-1.15,6.79,6.79,0,0,0-3.16-1.26.05.05,0,0,0,0,.1c1.62.41,3.86.87,3.69,3a.07.07,0,0,0,0,.08c1,.38,2.91,1.32,2.48,2.7a.13.13,0,0,0,.06.15q1.24.74,2.43,1.56c.54.38,2.33,1.3,2,2-.26.5-.45.9-1,.58l-1.35-.75c-.83-.45-1.67-.88-2.51-1.29a24.37,24.37,0,0,0-10.71-2.82.14.14,0,0,0,0,.27c5.46.19,10.29,2.47,14.94,5.16a.15.15,0,0,0,.18,0,5.82,5.82,0,0,0,1-1.43.15.15,0,0,0,0-.19A41.86,41.86,0,0,0,124.55,144.93Z"/><path class="cls-4" d="M128.43,103.13c-1.06-3.17-2.82-2.58-2.82-2.58a34.78,34.78,0,0,1-1.28,7.73c-.16-.8-.33-1.59-.54-2.34-1.05-3.87,0-10,.36-12.14S120.8,85.71,120.28,81s1.4-11.09-5.11-19.36-14.78-6.68-17.42-5.1a13.27,13.27,0,0,1-5.63,2.11L92,57.38a4.25,4.25,0,0,1-2.82,2.11s.18-.88.35-1.93a3.09,3.09,0,0,1-1.75,1.23c-1.24.35-4.58-1.41-4.58-1.41s-2.29-1.93-3.87-1.93L80.51,57s-5.45-2.11-8.09-1.41S60.63,59.49,56.93,66.53a34.85,34.85,0,0,0-4,12.67S46.91,86.06,46,92s1,12-2.82,17.77l-.35.71a9.2,9.2,0,0,1-5.26,4.1l0-.05v.06a8,8,0,0,1-1.58.29l-.53.17a26.71,26.71,0,0,0,2.11,4.58c.35,2.64.88,5.63,2.11,7.74,2.11-.18,5.1-.35,6.51-2.11,0,0,.88,10.38,3,16A73.44,73.44,0,0,0,61,151a83.68,83.68,0,0,0,18,15.3s13.37,2.82,24.81-1.4c0,0,7.21-9.51,10.2-16.37a49.07,49.07,0,0,1,3.87-6.51,48.4,48.4,0,0,0,3.7-5.8A100.21,100.21,0,0,0,123.44,122l.11-.39-.28,4.78a6.27,6.27,0,0,0,1.52-1.17c.47-.59.47-3.05.59-5.51s2.81-7.27,2.81-7.27S129.48,106.3,128.43,103.13Z"/><path class="cls-5" d="M75.17,136.91c0,7.26,7.88,13.14,17.6,13.14,9.2,0,16.75-5.28,17.52-12a18.5,18.5,0,0,1-3.77-9.33,20.23,20.23,0,0,0-13.75-5C83.05,123.77,75.17,129.66,75.17,136.91Z"/><path class="cls-6" d="M51.83,133.74l2.79,10.35a12.9,12.9,0,0,0,7.31-.39c8.42-3.06,11.92-14.66,7.83-25.93S55.54,99.86,47.13,102.91a11.79,11.79,0,0,0-1.62.73,14.59,14.59,0,0,1-2.11,5.88c1.61,5,3.15,10.5,3.15,10.5Z"/><path class="cls-7" d="M126.43,113.33s-3.11-5.61-2.89-8.62a20.62,20.62,0,0,1-.19-3.81c-6.28,1.44-12.34,7.12-15.29,15.19a26.83,26.83,0,0,0-1.54,12.63,11.23,11.23,0,0,1,3.84,8.19,8.72,8.72,0,0,1-.07,1.14,12.79,12.79,0,0,0,5.51,4,12.19,12.19,0,0,0,1.64.47l.37-.49a47.31,47.31,0,0,0,3.66-5.74l-.31-5.69,2-4.51c.15-1.34.26-2.73.33-4.11l.11-.39-.24,4.05,1.36-3.14Z"/><path class="cls-8" d="M59.46,83S59.69,65.12,66,61.37s12.9-1.41,18.76-.23,13.84-1.88,16.66-2.82,10.56-.94,14.31,9.62.94,15.72.94,15.72l-15.72,8-24.4-1.87L60.39,86.24Z"/><path class="cls-9" d="M115.17,61.6c-6.51-8.26-14.78-6.68-17.42-5.1a13.27,13.27,0,0,1-5.63,2.11L92,57.38a4.25,4.25,0,0,1-2.82,2.11s.18-.88.35-1.93a3.09,3.09,0,0,1-1.75,1.23c-1.24.35-4.58-1.41-4.58-1.41s-2.29-1.93-3.87-1.93L80.51,57s-5.45-2.11-8.09-1.41S60.63,59.49,56.93,66.53a34.85,34.85,0,0,0-4,12.67S46.91,86.06,46,92c-.06.38-.1.76-.14,1.14L46,93.1a110.12,110.12,0,0,1,9.85-12.32c4.4-4.4,1.58-17.41,11.61-22.17S79.1,60.2,88.43,60,99.69,54.74,106,56.5s10.74,7.39,12.14,12-.52,12,.18,13.55a62.7,62.7,0,0,0,5.19,8.87c-1-2.78-2.89-6.65-3.25-9.93C119.75,76.21,121.68,69.87,115.17,61.6Z"/><path class="cls-10" d="M61.69,150.11s-2.64-13.73-4.4-17.77-7.39-11.62-9.86-15.49-2.28-10.55-2.28-10.55l-.21-.1a13.85,13.85,0,0,1-1.73,3.61l-.19.38,1.25,1.38s1.58,6,1.23,9.68c-.29,3.09-2.92,5.31-3.78,6,1.71-.22,3.49-.67,4.48-1.91,0,0,.88,10.38,3,16A73.44,73.44,0,0,0,61,151a82.26,82.26,0,0,0,10.73,10.18C68.22,157.86,61.69,150.11,61.69,150.11ZM125.2,114c-.53,2.46-2.11,5.8-4.22,9.85s-2.82,9.15-3.34,13.37-3,7.92-4.4,10.74c-1,2.08-4.7,9.2-6.52,12.74a81.51,81.51,0,0,0,7.22-12.22,49.07,49.07,0,0,1,3.87-6.51,48.4,48.4,0,0,0,3.7-5.8A100.21,100.21,0,0,0,123.44,122l.11-.39-.28,4.78a6.27,6.27,0,0,0,1.52-1.17c.47-.59.47-3.05.59-5.51.1-2.14,2.14-6,2.68-7A1.86,1.86,0,0,0,125.2,114Z"/><path class="cls-11" d="M93.88,127.58s-5.1-.52-6-3.51.71-3.87.88-8.1,0-18.47,0-18.47h9.15s-1.76,11.79-1.06,18.65a10.69,10.69,0,0,0,.88,3.52C98.46,120.9,101.1,126.71,93.88,127.58Z"/><path class="cls-4" d="M88.08,118.38a11,11,0,0,1,9.5-.47l-.12-1.29a12.37,12.37,0,0,0-9.73.82Z"/><path class="cls-12" d="M80.69,124.83c1-.1,1.42-1.38,1.85-2.11.61-1,3.25-4.24,1.11-5-1.16-.41-3.46,1.16-4,2.15C79,121.15,78.15,125.1,80.69,124.83Z"/><path class="cls-13" d="M104.36,121.08c.18.58.42,3.53-.56,3.64-.66.08-1.86-2.92-2.33-3.44s-1.24-1.27-1.28-1.85C100,117,104,119.9,104.36,121.08Z"/><path class="cls-14" d="M81.74,117.67s3.05-2,3.76-5,.82-11.5.35-12.43-4.34,1.64-6,3.4-5.87,12.55-4.93,15,4.11,4.22,4.11,4.22S79.75,119.08,81.74,117.67Z"/><path class="cls-15" d="M102.62,118.73s-4.92-1.88-5-4.58.11-12.66.82-14.89c0,0,.35,3.28,1.29,4.57s6.57,8,6.57,11.5a9.46,9.46,0,0,1-1.9,5.75A23.4,23.4,0,0,0,102.62,118.73Z"/><path class="cls-16" d="M54.82,100.31s-9-3-6.51-7.74,9.15-6,9.15-6l9,.53,11.43,2.81L82.8,93.1s-.18,9-6.33,9.32a79.93,79.93,0,0,1-14.08-.88Z"/><path class="cls-17" d="M101.1,102.6s-4.4-3.17-.18-10.56,9.85-4.92,9.85-4.92l7,.17,4.4,4.23.53,1s2.29,5.81-3.52,7.74A44.26,44.26,0,0,1,108,102.25C107.26,102.42,101.1,102.6,101.1,102.6Z"/><path class="cls-18" d="M78.58,154.68A17.87,17.87,0,0,0,84,152.75s9.68,3,16.89-.36l3.52,3.52S86,154.33,77,156.44Z"/><path class="cls-19" d="M38.93,123.77s.94-2.23,1.76-3.87S44.44,117,44.44,117a5.6,5.6,0,0,0-.58-3.17,11.29,11.29,0,0,1-1.07-3.17,9.24,9.24,0,0,1-5.19,4l0-.05v.06a7.11,7.11,0,0,1-1.42.27c.74,1.4,2,3.85,2.18,4.18A41.28,41.28,0,0,1,38.93,123.77Z"/><path class="cls-20" d="M124.94,113.69v1.14c.14,2-1,5.7-1.41,7l-.26,4.47a6.27,6.27,0,0,0,1.52-1.17c.47-.59.47-3.05.59-5.51s2.81-7.27,2.81-7.27,1.06-5,.48-8.27C126.66,105.43,124.94,113.69,124.94,113.69Z"/><path class="cls-21" d="M43.06,111.74s-.06,0-.05,0a5.36,5.36,0,0,0,.71,2.23,3.62,3.62,0,0,1,.47,3c0,.09.1.14.15.06C45.52,114.94,43.39,113.72,43.06,111.74Zm.61,2.45C43,116.3,41.48,118,40.75,120h0c.83-2,2.81-3.64,3.06-5.81C43.83,114.12,43.69,114.12,43.67,114.19Zm-6.18.38a4.55,4.55,0,0,0,1.14,3s0,0,0,0a5.74,5.74,0,0,1-1-3A.09.09,0,1,0,37.49,114.57Z"/><path class="cls-22" d="M42.92,110.55a.07.07,0,0,0-.12-.06A9.44,9.44,0,0,1,36,114.9a0,0,0,1,0,0,0A8.7,8.7,0,0,0,42.92,110.55Zm85.89-6.06c-.17-1.36-1.2-4.65-3.22-4a.09.09,0,0,0,0,.08,37.06,37.06,0,0,1-1.19,7.41,36.32,36.32,0,0,1-.79-4.11,30.06,30.06,0,0,1,.17-6.36c.1-.88.23-1.76.37-2.64a7.07,7.07,0,0,0,.18-1.65,16.58,16.58,0,0,0-1.53-4.63,40.67,40.67,0,0,1-2.11-6.19c-.73-3.19-.17-6.54-.55-9.78A22.45,22.45,0,0,0,114.86,61,15.71,15.71,0,0,0,105,55.25a12.32,12.32,0,0,0-6.71.82c-.82.37-1.55.91-2.36,1.3a13.54,13.54,0,0,1-3,1c-.18,0-.74.29-.77.11l-.06-.42c0-.23-.06-.47-.1-.7s-.17-.11-.21,0a4,4,0,0,1-2.57,2c.12-.58.22-1.17.32-1.75a.12.12,0,0,0-.22-.09c-1.41,2.24-4,.72-5.71-.12-1.37-.67-2.62-2.1-4.39-2.18a.25.25,0,0,0-.18.42l.68.87a15.11,15.11,0,0,0-7.1-1.18,15.68,15.68,0,0,0-3.07,1,34,34,0,0,0-4.2,1.94,21.77,21.77,0,0,0-8.22,7.34,34,34,0,0,0-4.31,11.79c-.1.58-.19,1.16-.24,1.74l-.07.08-.6.74a38.84,38.84,0,0,0-4.55,7.13,18.08,18.08,0,0,0-1.55,4.47,29,29,0,0,0-.35,5.81c0,4.35,0,8.61-2.46,12.4-.12.19.18.35.3.17a15.59,15.59,0,0,0,2.44-6.72A61.49,61.49,0,0,0,46,95.87a19.78,19.78,0,0,1,1.07-6.79A28.25,28.25,0,0,1,50,83.5a43.93,43.93,0,0,1,2.62-3.59,1.67,1.67,0,0,0,.55-1,33.5,33.5,0,0,1,2.94-10.13,20,20,0,0,1,5.71-7.59A29.27,29.27,0,0,1,69,57.08a12.33,12.33,0,0,1,5.53-1.32,21.74,21.74,0,0,1,6,1.51c.26.1.37-.24.24-.42l-.84-1.07a7.87,7.87,0,0,1,3,1.65,6.81,6.81,0,0,0,1.59.81C86,58.91,88,59.4,89.28,58c-.08.48-.17,1-.26,1.44a.12.12,0,0,0,.14.15,4.08,4.08,0,0,0,2.72-1.89c0,.31.09.62.13.93,0,0,.07.09.11.08a13.35,13.35,0,0,0,5.23-1.83,10.16,10.16,0,0,1,2.37-1.08,13.4,13.4,0,0,1,9.47.94c4.43,2.13,7.73,6.59,9.48,11.09,1.34,3.42,1.38,7,1.38,10.6a18.45,18.45,0,0,0,.54,4.74,49.89,49.89,0,0,0,2.2,6.14c.54,1.33,1.47,3.08,1.22,4.56s-.5,3.2-.65,4.82a25.23,25.23,0,0,0,.07,6.14c.15,1,.47,2,.68,3a37.8,37.8,0,0,1,.56,3.82,15.68,15.68,0,0,1,0,5.07c-.36,1.56-.78,3.09-1.2,4.63a8.23,8.23,0,0,0-.21,1.58c-.09,1.43-.24,2.85-.41,4.27-.27,2.28-.63,4.55-1,6.8a8.76,8.76,0,0,1-.52,2.28c-.79,1.42-1.63,2.83-2.55,4.18s-2.12,2.87-3,4.43c-.66,1.14-1.29,2.29-1.89,3.47a101.08,101.08,0,0,1-5.87,10.19q-2.07,3.13-4.33,6.15c-.09.11-.6.18-.76.24-.57.2-1.15.37-1.73.53a38.3,38.3,0,0,1-3.79.84,47.39,47.39,0,0,1-7.23.65,57,57,0,0,1-9.93-.69l-.93-.16a4.9,4.9,0,0,1-1.51-.88c-2.18-1.42-4.26-3-6.29-4.58a86.3,86.3,0,0,1-8.27-7.61c-.62-.64-1.22-1.29-1.8-2l-.22-.25a6.35,6.35,0,0,0-1.26-.82c-.58-.38-1.13-.77-1.69-1.18a72.9,72.9,0,0,1-8.54-7.35,1.69,1.69,0,0,1-.48-.82c-.31-.9-.56-1.82-.8-2.75-.48-1.91-.83-3.85-1.15-5.79-.36-2.27-.66-4.56-.86-6.85,0-.1-.14-.18-.22-.09A6.28,6.28,0,0,1,42.22,127c-.77.13-1.54.19-2.31.25-.54,0-1.06-2-1.2-2.44a30.14,30.14,0,0,1-1-4.91,8.83,8.83,0,0,0-1.06-2.16c-.42-.87-.77-1.78-1.12-2.69,0,0-.1,0-.08,0,.34.92.7,1.83,1.1,2.73q.39.83.84,1.62a4.79,4.79,0,0,1,.34,1.68,18.4,18.4,0,0,0,1.89,6.33.13.13,0,0,0,.09.06c2.17-.18,4.8-.28,6.41-1.93.19,2.14.46,4.28.79,6.41.29,1.95.64,3.88,1.1,5.8.2.87.44,1.73.71,2.58a2.93,2.93,0,0,0,.49,1.16,75.63,75.63,0,0,0,7.59,6.72c.86.67,1.74,1.31,2.64,1.93a7.78,7.78,0,0,1,1.53,1c.49.57,1,1.13,1.51,1.68a87.26,87.26,0,0,0,7.8,7.34c1.82,1.52,3.71,2.95,5.66,4.31q.77.54,1.56,1.05a5.42,5.42,0,0,0,1.39.88l.45.09a50,50,0,0,0,21.88-.64c1.1-.3,2.36-.44,3.06-1.38s1.41-1.91,2.09-2.88a98.9,98.9,0,0,0,6.35-10.1c1.47-2.74,2.67-5.57,4.36-8.2,1-1.54,2.16-2.95,3.11-4.52.4-.65.79-1.32,1.17-2a2.67,2.67,0,0,0,.35-.67,96.67,96.67,0,0,0,1.54-9.76.07.07,0,0,0,.09,0,3,3,0,0,0,1.9-2.33c.26-1.92,0-3.93.51-5.81a22.52,22.52,0,0,1,1.77-4.36,7.87,7.87,0,0,0,.8-1.62A24.57,24.57,0,0,0,128.81,104.49Zm-.06,2.45a30.07,30.07,0,0,1-.5,4.63,4,4,0,0,1-.5,1.45,34.93,34.93,0,0,0-1.76,3.84,14.15,14.15,0,0,0-.8,4.78,16,16,0,0,1-.29,3c-.18.74-1,1.23-1.65,1.59,0-.21,0-.42.07-.63.07-.66.12-1.33.17-2a9.25,9.25,0,0,1,.11-1.67c.15-.54.29-1.08.43-1.61a31.27,31.27,0,0,0,1-4.35,14,14,0,0,0,.06-2.34c.53-1.45.74-3,1.13-4.52l.09-.3a16.84,16.84,0,0,1,0,6.13s0,0,0,0a13.25,13.25,0,0,0,.12-6.5,19.11,19.11,0,0,1,1.76-4s0,0,0,0a20.39,20.39,0,0,0-3.11,8.38c-.07-.83-.17-1.66-.28-2.46s-.23-1.4-.38-2.09a30.75,30.75,0,0,0,1.16-6.45c.06-.52-.2-1.21.43-1.21a2.23,2.23,0,0,1,1.68,1.14C128.72,103.21,128.79,105.2,128.75,106.94Z"/><path class="cls-23" d="M80.22,127.29s1.17-2.81,3.87-2.46,4,2,5.16,2.7,6.57,2.23,8.68-.24,2.35-3.87,5.87-1.76l-.71,2.58-1.76,1.29s-2.11,5.28-7.74,5.16S84,130.22,84,130.22L81,128.93Z"/><path d="M82.45,126.44s1-1.32,4.48,1.14C86.93,127.58,85.17,129.17,82.45,126.44Z"/><path d="M99.07,127.94s.62-1.85,1.59-1.76c0,0,1.23-.18,1.32.79A3.67,3.67,0,0,1,99.07,127.94Z"/><path class="cls-24" d="M82,129.29c-.37-.14-.68-.15-.76-.44a2.51,2.51,0,0,0-.45-.63,9.41,9.41,0,0,1-1.36-3.51c-.51-2.67.17-5.53,2.62-7,.07,0,0-.17-.06-.14-2.61.93-3.27,4.13-3.1,6.58a9.42,9.42,0,0,0,1.1,3.88c.14.25.6,1.19,1,1.15a6.61,6.61,0,0,1,1.91.6,16.21,16.21,0,0,0,1.83.43s0,0,0,0A18.36,18.36,0,0,1,82,129.29Zm20.2-10.74c-.07,0-.1.08,0,.12a4.52,4.52,0,0,1,2,2.44,6.41,6.41,0,0,1,0,2.89,16.13,16.13,0,0,1-.78,2.65c-.16.44-.34.87-.5,1.3-.28.72-1.09,1.06-1.71,1.45,0,0,0,0,0,0l1.18-.69a3.11,3.11,0,0,0,.78-.41,4.11,4.11,0,0,0,.62-1.34,13,13,0,0,0,.94-3.32C104.86,121.65,104.25,119.32,102.17,118.55Zm-20.08,8.74h0c.5-3,5.35.67,6.54,1.46,0,0,.11,0,.06-.09C87.76,127.59,82.27,124.17,82.09,127.29Zm17.32-.14c-2.09,3.21-7.47,4.7-10.46,1.85-.06-.05-.16,0-.11.09,2.56,3.43,9.06,1.71,10.66-1.89A.05.05,0,0,0,99.41,127.15Zm2.72.26a0,0,0,0,0,.05,0,1.38,1.38,0,0,0-.87-1.37,1.33,1.33,0,0,0-1.59.62.1.1,0,0,0,.16.11c.39-.36.71-.68,1.29-.57A1.29,1.29,0,0,1,102.13,127.41Zm-3.07-6.72a9.57,9.57,0,0,1,.74,3.2s0,0,0,0c.14-1.93-.84-3.56-1.36-5.35a25.08,25.08,0,0,1-.86-6.74,75.57,75.57,0,0,1,1.08-14.17s-.06-.07-.07,0a43.24,43.24,0,0,0-.85,6.42c-.2,2.47-.37,5-.39,7.43a20.66,20.66,0,0,0,.46,6.38C98.13,118.82,98.68,119.74,99.06,120.69Zm-.31-23.91a0,0,0,1,0,0,0A0,0,0,0,0,98.75,96.78Z"/><path class="cls-25" d="M73.53,141.25s4.69,3.52,7.51,6.22,5.86,5,8.68,5.51,9.85-.23,12.2-3.75,3.87-5.87,5.39-7.28,4-4.22,4-4.22l-4.1,2s-7.86,1.4-8.8,1.52-13.14.82-14.08.82S73.53,141.25,73.53,141.25Z"/><path class="cls-26" d="M84.13,150.15A13.28,13.28,0,0,0,89.72,153c2.81.47,9.85-.23,12.2-3.75a.36.36,0,0,1,.07-.1,19.8,19.8,0,0,1-8,3.15A14.27,14.27,0,0,1,84.13,150.15Z"/><path class="cls-26" d="M107.31,142c1.53-1.4,4-4.22,4-4.22l-4.1,2s-7.86,1.4-8.8,1.52-13.14.82-14.08.82-10.79-.82-10.79-.82,3.53,2.64,6.3,5.11c-.2-.31-1.15-1.86-.2-2.18s5.28,0,8.8.35a39,39,0,0,0,12.43-1.4A31.54,31.54,0,0,1,106,142l-.93,2.62A18.69,18.69,0,0,1,107.31,142Z"/><path class="cls-27" d="M86,150.25c-1.26-.8-6.45-3.94-3.13-5.38,1.69-.73,4-.14,5.74,0a31.87,31.87,0,0,0,7.93-.11c1.19-.19,4.93-.94,5.82.49,1,1.59-2,4.72-3.14,5.38a14.51,14.51,0,0,1-7.93,1.75A11.26,11.26,0,0,1,86,150.25Z"/><path class="cls-26" d="M112.18,136.73a12.89,12.89,0,0,1-4.63,1.94c-2.35.35-6.57-2.23-7.62-2.46s-4.81,1.76-5.52,2.34c0,0-1.88-.94-3.64-1.64S84,138,82,139.26s-5.28,2.22-7.16,1.87a16.35,16.35,0,0,1-3.11-.88c6.34,3.7,10.91,3.35,18.13,2.82h.52c2.89.76,5,.86,7.33-.72C102.55,142.14,108,140.87,112.18,136.73Z"/><path class="cls-28" d="M89.84,143c-3-.05-6.1.37-9.15.15a22.66,22.66,0,0,1-9-2.87s0,0,0,0c5.43,3.4,11.94,3.92,18.15,2.91C90,143.15,90,143,89.84,143Zm22.29-6.29a22.42,22.42,0,0,1-7.4,4.21c-.59.19-1.2.35-1.8.49s-1,.41-1.5.51a28.76,28.76,0,0,1-3.33.38,10.44,10.44,0,0,0,.76-.73.08.08,0,0,0-.09-.12,11.08,11.08,0,0,1-3.83,1.82,8.64,8.64,0,0,1-2,.26,14.89,14.89,0,0,1-2.57-.46,0,0,0,0,0,0,.05,15.76,15.76,0,0,0,2.34.51,7.5,7.5,0,0,0,2.16.19,6.62,6.62,0,0,0,3.08-1.39c1.1-.06,2.19-.16,3.28-.32.65-.1,1.22,0,1.86-.16s1.37-.36,2-.59a16.06,16.06,0,0,0,7.11-4.54A.08.08,0,0,0,112.13,136.68Z"/><path d="M48,92.75a21.31,21.31,0,0,1,8.45-3.17c4.57-.53,12.84,1.23,16.89,1.06a21.25,21.25,0,0,1,4,.88c1.23.52,3.69,2.11,4.92,1.93s1.41-2.64-.17-5.45a10.67,10.67,0,0,1,0,2.46s-1.24-3.52-2.47-4.4a28.38,28.38,0,0,1,.88,3.17s-2.29-2.46-2.64-3-5.63-.88-10.38-1.41a43.31,43.31,0,0,1-10.38-3S55,83.42,53.24,85A22.32,22.32,0,0,0,48,92.75Z"/><path class="cls-29" d="M82.07,93a9.85,9.85,0,0,1-3.28-1.29c-.46-.24-.9-.47-1.25-.62a21.48,21.48,0,0,0-4.18-.91h-.08l-.59,0a63.07,63.07,0,0,1-6.42-.54l-.38,0A67.59,67.59,0,0,0,58.38,89a17.54,17.54,0,0,0-2,.1A20.84,20.84,0,0,0,49,91.56a23.31,23.31,0,0,1,4.57-6.19c1.39-1.25,3-2.51,3.61-3a42.81,42.81,0,0,0,10.26,2.91c1.22.14,2.47.26,3.67.38a44.23,44.23,0,0,1,6.39.86c.45.63,2.42,2.76,2.65,3a.48.48,0,0,0,.36.16.54.54,0,0,0,.22,0,.5.5,0,0,0,.27-.52L81,89c.29.65.53,1.27.66,1.63a.49.49,0,0,0,.46.33h0a.5.5,0,0,0,.44-.41s0,0,0,0a3.49,3.49,0,0,1,0,2.14c-.15.29-.32.32-.38.32Z"/><path d="M122.91,92.75a12,12,0,0,0-5.6-3.17c-3-.53-8.52,1.23-11.2,1.06a10.11,10.11,0,0,0-2.69.88c-.81.52-2.45,2.11-3.26,1.93s-.94-2.64.11-5.45a16.45,16.45,0,0,0,0,2.46s.82-3.52,1.64-4.4c0,0-.47,2.11-.59,3.17,0,0,1.52-2.46,1.75-3s3.74-.88,6.89-1.41a22.32,22.32,0,0,0,6.89-3s1.4,1.58,2.56,3.17A24.77,24.77,0,0,1,122.91,92.75Z"/><path class="cls-30" d="M100.29,93a5.42,5.42,0,0,0,2.17-1.29c.31-.24.6-.47.84-.62a10.14,10.14,0,0,1,2.77-.91h.05l.39,0a28.09,28.09,0,0,0,4.26-.54l.25,0a30.16,30.16,0,0,1,5-.59,7.75,7.75,0,0,1,1.35.1,11.18,11.18,0,0,1,4.88,2.47,25.31,25.31,0,0,0-3-6.19c-.93-1.25-2-2.51-2.4-3a21.8,21.8,0,0,1-6.8,2.91c-.81.14-1.64.26-2.44.38a20.28,20.28,0,0,0-4.24.86c-.3.63-1.6,2.76-1.76,3a.27.27,0,0,1-.24.16.27.27,0,0,1-.14,0,.59.59,0,0,1-.18-.52c0-.05,0-.1,0-.16-.2.65-.35,1.27-.44,1.63,0,.2-.17.33-.31.33h0c-.14,0-.26-.19-.29-.41v0a5.13,5.13,0,0,0,0,2.14c.1.29.22.32.25.32Z"/><path d="M55.7,100.58l-1-.62a13.36,13.36,0,0,1,7.82-4.4c5.11-.88,9.24,1.85,12.15,5.28L68.9,101.9Z"/><path class="cls-31" d="M56.42,97.25a13.74,13.74,0,0,1,7.25-2.62A16.25,16.25,0,0,1,71,96.12a0,0,0,0,0,0-.06,13.22,13.22,0,0,0-7.61-1.52,11.66,11.66,0,0,0-7,2.68,0,0,0,0,0,0,0Z"/><path class="cls-32" d="M55.7,100.67c4.4,4.75,13.2,3.87,19,1.75l1.76.09-1.06-.79c-4.75-5.63-13.72-7.56-19.88-1.41Z"/><path class="cls-33" d="M69.82,99.24a4.91,4.91,0,0,0-.32-1.76,13,13,0,0,0-9.19-.24,4.95,4.95,0,0,0,3.32,6.82,19.34,19.34,0,0,0,2.16.06A5,5,0,0,0,69.82,99.24Z"/><path class="cls-34" d="M64.85,103.64a4.4,4.4,0,0,0,4.4-4.4,4.36,4.36,0,0,0-.5-2A13,13,0,0,0,61.08,97a4.39,4.39,0,0,0,3.77,6.65Z"/><path d="M67.45,99.24a2.6,2.6,0,1,1-2.6-2.59A2.59,2.59,0,0,1,67.45,99.24Z"/><path class="cls-35" d="M66.69,99.24a1.84,1.84,0,1,1-1.84-1.83A1.84,1.84,0,0,1,66.69,99.24Z"/><path class="cls-32" d="M64.85,98.15a1.07,1.07,0,0,0,1.07-1.06,1,1,0,0,0-.14-.51A12.26,12.26,0,0,0,64,96.52a1,1,0,0,0-.17.57A1.07,1.07,0,0,0,64.85,98.15Z"/><path class="cls-32" d="M65.37,101.78a.52.52,0,1,1-.52-.51A.51.51,0,0,1,65.37,101.78Z"/><path d="M55.55,100.33a14,14,0,0,1,10.33-3.48,14.67,14.67,0,0,1,9.52,4.88s0,0,0,0a14.83,14.83,0,0,0-9.31-5.37,11.86,11.86,0,0,0-10.6,4s0,0,0,0Z"/><path class="cls-36" d="M55.7,100.67c2.23,2.48,5.51,3.36,8.73,3.52a25.83,25.83,0,0,0,10.29-1.71.06.06,0,0,0,0-.11c-5.91,2-14.09,3.16-19-1.71,0,0,0,0,0,0Z"/><path d="M118.59,100.58l.81-.62a11,11,0,0,0-6.5-4.4c-4.23-.88-7.66,1.85-10.06,5.28l4.81,1.06Z"/><path class="cls-31" d="M118,97.25a10.26,10.26,0,0,0-6-2.62,11.53,11.53,0,0,0-6.08,1.49s0,0,0-.06a9.4,9.4,0,0,1,6.31-1.52A8.76,8.76,0,0,1,118,97.22s0,0,0,0Z"/><path class="cls-32" d="M118.59,100.67c-3.64,4.75-10.94,3.87-15.75,1.75l-1.46.09.87-.79c3.94-5.63,11.38-7.56,16.49-1.41Z"/><path class="cls-37" d="M114.82,99.24a5.12,5.12,0,0,0-.48-2.18,9.49,9.49,0,0,0-8.8,1.36,5.55,5.55,0,0,0-.06.82,4.93,4.93,0,0,0,3.49,4.81,15.91,15.91,0,0,0,2.07.07A4.9,4.9,0,0,0,114.82,99.24Z"/><path class="cls-38" d="M110.15,103.64a4.27,4.27,0,0,0,4.13-4.4,4.61,4.61,0,0,0-.68-2.42A9.47,9.47,0,0,0,106.18,98a4.64,4.64,0,0,0-.17,1.24A4.27,4.27,0,0,0,110.15,103.64Z"/><path d="M112.59,99.24a2.44,2.44,0,1,1-2.44-2.59A2.53,2.53,0,0,1,112.59,99.24Z"/><path class="cls-39" d="M111.87,99.24a1.73,1.73,0,1,1-1.72-1.83A1.78,1.78,0,0,1,111.87,99.24Z"/><path class="cls-32" d="M110.15,98.15a1,1,0,0,0,1-1.06,1.08,1.08,0,0,0-.16-.57,9.06,9.06,0,0,0-1.79.24,1.2,1.2,0,0,0,0,.33A1,1,0,0,0,110.15,98.15Z"/><path class="cls-32" d="M110.63,101.78a.5.5,0,0,1-.48.51.51.51,0,0,1,0-1A.5.5,0,0,1,110.63,101.78Z"/><path d="M118.73,100.33c-2.46-2.44-5.37-3.83-8.57-3.48a11.62,11.62,0,0,0-7.9,4.88s0,0,0,0A12.07,12.07,0,0,1,110,96.34a9,9,0,0,1,8.79,4s0,0,0,0Z"/><path class="cls-40" d="M118.6,100.67a9.29,9.29,0,0,1-7.25,3.52,18.18,18.18,0,0,1-8.53-1.71s0-.13,0-.11c4.9,2,11.68,3.16,15.74-1.71a0,0,0,0,1,0,0Z"/></g></g></svg>