<svg xmlns="http://www.w3.org/2000/svg" xmlns:xlink="http://www.w3.org/1999/xlink" viewBox="0 0 134.96 180.56"><defs><style>.cls-1{fill:url(#linear-gradient);}.cls-2{fill:url(#linear-gradient-2);}.cls-3{fill:url(#linear-gradient-3);}.cls-4{fill:url(#linear-gradient-4);}.cls-5{fill:url(#linear-gradient-5);}.cls-6{fill:url(#linear-gradient-6);}.cls-7{fill:url(#linear-gradient-7);}.cls-8{fill:url(#linear-gradient-8);}.cls-9{fill:#ffc2a7;}.cls-10{fill:url(#radial-gradient);}.cls-11{fill:url(#radial-gradient-2);}.cls-12{fill:url(#linear-gradient-9);}.cls-13{fill:url(#linear-gradient-10);}.cls-14{fill:url(#linear-gradient-11);}.cls-15{fill:url(#linear-gradient-12);}.cls-16{fill:url(#linear-gradient-13);}.cls-17{fill:url(#linear-gradient-14);}.cls-18{fill:url(#linear-gradient-15);}.cls-19{fill:#a9563f;}.cls-20{fill:url(#linear-gradient-16);}.cls-21{fill:url(#linear-gradient-17);}.cls-22{fill:url(#linear-gradient-18);}.cls-23{fill:url(#linear-gradient-19);}.cls-24{fill:#f3796c;}.cls-25{fill:url(#radial-gradient-3);}.cls-26{fill:#c23a49;}.cls-27{fill:url(#linear-gradient-20);}.cls-28{fill:url(#linear-gradient-21);}.cls-29{fill:#fff;}.cls-30{fill:url(#linear-gradient-22);}.cls-31{fill:url(#linear-gradient-23);}.cls-32{fill:url(#linear-gradient-24);}.cls-33{fill:#eba9a9;}.cls-34{fill:url(#linear-gradient-25);}.cls-35{fill:url(#linear-gradient-26);}.cls-36{fill:url(#linear-gradient-27);}.cls-37{fill:url(#linear-gradient-28);}.cls-38{fill:url(#linear-gradient-29);}.cls-39{fill:url(#linear-gradient-30);}.cls-40{fill:url(#linear-gradient-31);}.cls-41{fill:url(#linear-gradient-32);}.cls-42{fill:url(#linear-gradient-33);}.cls-43{fill:url(#linear-gradient-34);}.cls-44{fill:url(#linear-gradient-35);}</style><linearGradient id="linear-gradient" x1="68.78" y1="125.59" x2="68.78" y2="156.21" gradientUnits="userSpaceOnUse"><stop offset="0" stop-color="#d4866f"/><stop offset="1" stop-color="#ffc2a7"/></linearGradient><linearGradient id="linear-gradient-2" x1="121.18" y1="103.26" x2="112.58" y2="93.17" gradientUnits="userSpaceOnUse"><stop offset="0" stop-color="#270b04"/><stop offset="1"/></linearGradient><linearGradient id="linear-gradient-3" x1="48.39" y1="17.97" x2="34.19" y2="73.29" xlink:href="#linear-gradient-2"/><linearGradient id="linear-gradient-4" x1="22.96" y1="90.84" x2="32.5" y2="63.93" gradientUnits="userSpaceOnUse"><stop offset="0" stop-color="#561e1e"/><stop offset="1" stop-color="#100606"/></linearGradient><linearGradient id="linear-gradient-5" x1="8.5" y1="122.4" x2="27.19" y2="94.37" gradientUnits="userSpaceOnUse"><stop offset="0" stop-color="#441d09"/><stop offset="1" stop-color="#1d0b03"/></linearGradient><linearGradient id="linear-gradient-6" x1="123.87" y1="111.81" x2="109.29" y2="94.99" xlink:href="#linear-gradient-5"/><linearGradient id="linear-gradient-7" x1="115.36" y1="97.11" x2="115.36" y2="87.01" xlink:href="#linear-gradient-2"/><linearGradient id="linear-gradient-8" x1="20.79" y1="97.1" x2="20.79" y2="87.01" xlink:href="#linear-gradient-2"/><radialGradient id="radial-gradient" cx="-1006.83" cy="490.06" r="43.71" gradientTransform="matrix(0.28, -0.17, 0.25, 0.4, 202.01, -260.8)" gradientUnits="userSpaceOnUse"><stop offset="0" stop-color="#ffd9bd"/><stop offset="1" stop-color="#ffc2a7"/></radialGradient><radialGradient id="radial-gradient-2" cx="65.31" cy="691.83" r="43.7" gradientTransform="matrix(0.24, 0.12, -0.21, 0.42, 235.15, -193.6)" xlink:href="#radial-gradient"/><linearGradient id="linear-gradient-9" x1="77.67" y1="101.64" x2="77.67" y2="80.25" gradientTransform="matrix(1, 0, 0, 1, 0, 0)" xlink:href="#radial-gradient"/><linearGradient id="linear-gradient-10" x1="54.39" y1="67.4" x2="54.39" y2="85.77" xlink:href="#linear-gradient"/><linearGradient id="linear-gradient-11" x1="95.76" y1="69.12" x2="95.76" y2="85.27" xlink:href="#linear-gradient"/><linearGradient id="linear-gradient-12" x1="81.51" y1="106.55" x2="62.93" y2="92.72" xlink:href="#linear-gradient"/><linearGradient id="linear-gradient-13" x1="76.49" y1="104.29" x2="88.46" y2="94.08" xlink:href="#linear-gradient"/><linearGradient id="linear-gradient-14" x1="67.78" y1="90.13" x2="67.78" y2="141.46" xlink:href="#linear-gradient"/><linearGradient id="linear-gradient-15" x1="66.42" y1="127.57" x2="66.42" y2="132.61" xlink:href="#linear-gradient"/><linearGradient id="linear-gradient-16" x1="75.96" y1="109.8" x2="75.96" y2="121.43" xlink:href="#linear-gradient"/><linearGradient id="linear-gradient-17" x1="66.54" y1="105.08" x2="68.63" y2="106.77" gradientTransform="matrix(1, 0, 0, 1, 0, 0)" xlink:href="#radial-gradient"/><linearGradient id="linear-gradient-18" x1="85.83" y1="105.28" x2="83.88" y2="106.79" gradientTransform="matrix(1, 0, 0, 1, 0, 0)" xlink:href="#radial-gradient"/><linearGradient id="linear-gradient-19" x1="75.96" y1="97.82" x2="75.96" y2="82.32" gradientUnits="userSpaceOnUse"><stop offset="0" stop-color="#a9563f"/><stop offset="1" stop-color="#e9a68c"/></linearGradient><radialGradient id="radial-gradient-3" cx="-485.7" cy="1296.47" r="36.03" gradientTransform="translate(207.94 -190.75) rotate(1.67) scale(0.25)" gradientUnits="userSpaceOnUse"><stop offset="0" stop-color="#f3a490"/><stop offset="1" stop-color="#f38976"/></radialGradient><linearGradient id="linear-gradient-20" x1="96.54" y1="67.51" x2="95.3" y2="77.04" xlink:href="#linear-gradient-2"/><linearGradient id="linear-gradient-21" x1="-599.39" y1="67.12" x2="-600.74" y2="77.5" gradientTransform="matrix(-1, 0, 0, 1, -547.63, 0)" xlink:href="#linear-gradient-2"/><linearGradient id="linear-gradient-22" x1="93.88" y1="85.86" x2="93.88" y2="79.32" gradientUnits="userSpaceOnUse"><stop offset="0" stop-color="#39140a"/><stop offset="1"/></linearGradient><linearGradient id="linear-gradient-23" x1="93.88" y1="85.86" x2="93.88" y2="79.32" gradientUnits="userSpaceOnUse"><stop offset="0.01" stop-color="#652312"/><stop offset="1" stop-color="#210000"/></linearGradient><linearGradient id="linear-gradient-24" x1="93.88" y1="82.63" x2="93.88" y2="84.33" gradientUnits="userSpaceOnUse"><stop offset="0"/><stop offset="1" stop-color="#77726d"/></linearGradient><linearGradient id="linear-gradient-25" x1="51.89" y1="85.86" x2="51.89" y2="79.32" xlink:href="#linear-gradient-22"/><linearGradient id="linear-gradient-26" x1="51.89" y1="85.86" x2="51.89" y2="79.32" xlink:href="#linear-gradient-23"/><linearGradient id="linear-gradient-27" x1="51.89" y1="82.63" x2="51.89" y2="84.33" xlink:href="#linear-gradient-24"/><linearGradient id="linear-gradient-28" x1="22.76" y1="104.57" x2="35.65" y2="77.85" xlink:href="#linear-gradient-2"/><linearGradient id="linear-gradient-29" x1="41.59" y1="59.07" x2="22.65" y2="96.69" xlink:href="#linear-gradient-5"/><linearGradient id="linear-gradient-30" x1="38.54" y1="66.62" x2="33.05" y2="108.8" xlink:href="#linear-gradient-2"/><linearGradient id="linear-gradient-31" x1="77.74" y1="8.05" x2="68.03" y2="82.8" xlink:href="#linear-gradient-2"/><linearGradient id="linear-gradient-32" x1="75.22" y1="9.93" x2="67.67" y2="67.97" gradientUnits="userSpaceOnUse"><stop offset="0" stop-color="#351404"/><stop offset="1" stop-color="#150701"/></linearGradient><linearGradient id="linear-gradient-33" x1="75.94" y1="11.24" x2="68.79" y2="66.28" xlink:href="#linear-gradient-5"/><linearGradient id="linear-gradient-34" x1="81.58" y1="8.55" x2="71.86" y2="83.3" xlink:href="#linear-gradient-4"/><linearGradient id="linear-gradient-35" x1="77.73" y1="7.94" x2="67.98" y2="82.94" xlink:href="#linear-gradient-2"/></defs><g id="Layer_2" data-name="Layer 2"><g id="_8_Face" data-name="8_Face"><path d="M74.15,180.56c-35,0-48.69-11.09-48.83-11.2a.53.53,0,0,1-.17-.46.47.47,0,0,1,.24-.41c.17-.08,16.29-8.09,18.12-14.15s1.35-38.2,1.35-38.52a.49.49,0,0,1,.12-.36.33.33,0,0,1,.26-.14h0l49.54,4.22a.38.38,0,0,1,.28.19.64.64,0,0,1,.08.39c0,.24-3.24,24.59-.3,33.5s17.14,15.15,17.29,15.21a.5.5,0,0,1,.25.43.52.52,0,0,1-.19.47,72.6,72.6,0,0,1-38.07,10.83Z"/><path class="cls-1" d="M25.53,169s16.42-8.1,18.34-14.43,1.37-38.71,1.37-38.71L94.79,120s-3.29,24.64-.28,33.79S112,169.3,112,169.3a71.57,71.57,0,0,1-37.88,10.77C38.84,180.07,25.53,169,25.53,169Z"/><path d="M134.08,69.21a17.75,17.75,0,0,0-2.56-3.09c-.4-.4-.81-.82-1.18-1.25a9.12,9.12,0,0,1-2.29-6.34,37.25,37.25,0,0,1,.45-5.47c.1-.73.2-1.49.28-2.24a24.71,24.71,0,0,0-.31-7.56,21.56,21.56,0,0,0-.93-3.21.64.64,0,0,0,0-.49,21.4,21.4,0,0,1-1.17-6.46c-.29-3.69-.59-7.5-3.85-10.23a8.57,8.57,0,0,0-1.09-.79,15.5,15.5,0,0,0-8.49-8.56A31.37,31.37,0,0,0,108.51,12c-2.6-.76-5.06-1.48-7-3.25a18.27,18.27,0,0,1-3.35-4.55c0-.06-.12-.24-.2-.41-.51-1.12-.8-1.66-1.26-1.76l-.51-.1C93.67,1.41,91,1,87.73.64A107.1,107.1,0,0,0,76.19,0c-1.37,0-2.75,0-4.11.08a80.22,80.22,0,0,0-8.71.85,3.36,3.36,0,0,0-1.8,1.24,5.88,5.88,0,0,1-.51.5,18.09,18.09,0,0,1-8,3.94c-1,.2-2.15.45-3.31.72A66.14,66.14,0,0,0,25.67,18.08a48.19,48.19,0,0,0-12,12.62A48.59,48.59,0,0,0,6.61,50.18a62,62,0,0,0-.53,12.06.7.7,0,0,0,.15.43l-.11,1A37.81,37.81,0,0,0,.72,76c-.3,1.2-.53,2.31-.7,3.4a2.4,2.4,0,0,0,.21,1.25l.09.26A80.11,80.11,0,0,1,3.08,91.25a44.47,44.47,0,0,1,.1,10.88l0,.6c-.11,1.5-.22,2.82-.35,4a.62.62,0,0,0,.15.47.66.66,0,0,0,.47.24,10.53,10.53,0,0,1,5.5,2c1.6,1.31,2.46,3.6,3.22,5.61l.15.41c.23.61.45,1.24.66,1.85a25.81,25.81,0,0,0,2.17,5.06,5.5,5.5,0,0,0,2.08,2.2.6.6,0,0,0,.27.06.66.66,0,0,0,.59-.36.62.62,0,0,0,.07-.23,2.22,2.22,0,0,0,.76.49c1,.46,2.05,1,2.93,1.48a33.66,33.66,0,0,1,6.38,4.13c.35.32.67.66,1,1a12.34,12.34,0,0,0,1.57,1.48,13.68,13.68,0,0,0,2.32,1.44.58.58,0,0,0,.26.06.61.61,0,0,0,.44-1,8.19,8.19,0,0,1-1.86-3.37l.37.36.36.34c2.28,2.16,4.85,4.6,8.3,5H41a.55.55,0,0,0,.52-.36.57.57,0,0,0-.13-.63A7.85,7.85,0,0,1,39,128.63a49.07,49.07,0,0,0,9.09,8.14c.57.4,1.17.76,1.75,1.1a19.31,19.31,0,0,1,2.24,1.48c1,.84,2.13,1.69,3.4,2.6,2.87,2.05,6.71,4.56,11,5.65a39,39,0,0,0,9.69,1.12H77a25.36,25.36,0,0,0,10.77-2.15c3.3-1.61,5-4.79,6.47-7.6a109.38,109.38,0,0,0,4.59-10.09c.35-.86.67-1.65,1-2.43l0,0,.14-.15,0,0a11,11,0,0,0,5.24,2.5h.1a.57.57,0,0,0,.53-.34.59.59,0,0,0-.1-.62,4.79,4.79,0,0,1-1.48-3.33c0-.84.93-1.56,1.71-2.2l.45-.37.52-.45a32.26,32.26,0,0,0,2.46-2.25c2.29-2.43,2.89-6,3.43-9.09l.1-.6c0-.06,0-.14,0-.21s0-.17,0-.24c.34-.34.69-.67,1-1a28,28,0,0,1,5.9-4,23.22,23.22,0,0,0,5.27-3.67,6.73,6.73,0,0,0,1.46-1.8,9.48,9.48,0,0,0,1.5-5.62,12.92,12.92,0,0,0-.49-2.06,8.2,8.2,0,0,1-.49-2.71c.09-2.48,1.7-4.92,3-6.88.08-.12.16-.23.23-.35a.65.65,0,0,0,.28-.24c.42-.66.89-1.31,1.35-1.94a20.4,20.4,0,0,0,2.35-3.8A6,6,0,0,0,134.08,69.21ZM116.86,20l-.88-.33a13.62,13.62,0,0,1-5.25-3.21c2.33.61,5.2,1.75,7,3.86Z"/><path class="cls-2" d="M131.66,76c-.94,4.48-1.87,3.92-4.11,8.59s-.19,6.36,0,8.79-1.87,5.6-1.87,5.6a22,22,0,0,1-6.36,4.68,27,27,0,0,0-6.91,5s-.94,6.17-2.25,8.41-3.73,3.74-5.79,5.8.94,5.23.94,5.23A10.66,10.66,0,0,1,99,124.39l2.24-34.57,13.09-20.56,11.58-4.86,3.55,1.31,2.81,4.3Z"/><path class="cls-3" d="M38.59,126.82a8.5,8.5,0,0,0,2.43,8,10.09,10.09,0,0,1-3.74-1.31c-1.87-1.12-6.36-5.61-6.36-5.61s.38,3.55,2.43,5.61a13,13,0,0,1-4.11-3.18c-1.68-2.06-8.22-5.61-10.46-6.54,0,0-2.06-1.68-3-6.54A8.14,8.14,0,0,0,17.47,124s-1.68-.75-3.18-4.86-3-9.16-5.61-10.65a13.68,13.68,0,0,0-5.23-1.69s.94-9,.56-13.64S.65,79.72.65,79.72A39.56,39.56,0,0,1,6.82,63.84l2-4.67s5.42-23,8.6-26.73,17-16.26,22.42-18.87,24.3-8.23,24.3-8.23,9.72-4.11,10.09-3.55,7.66,10.47,7.66,10.47L43.63,113Z"/><path class="cls-4" d="M50.55,22C41,26.46,34.85,35.25,30.18,44S23.82,60.29,22.7,63.65c-.83,2.48-3.58,9.52-5,13.06A28.56,28.56,0,0,0,14.48,104S15,98.79,16,96.73c0,0-1.49,12,3.18,18.13,0,0,1.87-9.35,4.11-12.71s.38-9.16.38-9.16l-2.81-8.41L19.7,78l12.53-3.36S50.92,43.09,51.67,41.79,60.08,17.49,50.55,22Z"/><path class="cls-5" d="M29.06,119.16s.18,7.1,1.3,10.46a43,43,0,0,0-6.54-4.86c-2.8-1.49-6.73-2.43-8-11.58l-.94,2.8s-2.43-7.85-5.6-9.34l-3.18-1.5s.75-14.76-4.3-25.42A78.42,78.42,0,0,1,4.92,66.9,41.11,41.11,0,0,0,.65,79.72s3,8.79,3.36,13.46-.56,13.64-.56,13.64a13.68,13.68,0,0,1,5.23,1.69c2.62,1.49,4.12,6.54,5.61,10.65S17.47,124,17.47,124a8.14,8.14,0,0,1-1.68-6.73c.93,4.86,3,6.54,3,6.54,2.24.93,8.78,4.48,10.46,6.54a13,13,0,0,0,4.11,3.18c-2.05-2.06-2.43-5.61-2.43-5.61s4.49,4.49,6.36,5.61a10.44,10.44,0,0,0,3.52,1.28l-.16-.16S30.92,127.75,29.06,119.16Z"/><path class="cls-6" d="M104.37,122.9c2.06-2.06,4.49-3.55,5.79-5.8s2.25-8.41,2.25-8.41a27,27,0,0,1,6.91-5A22,22,0,0,0,125.68,99s2-3.17,1.87-5.6-2.25-4.12,0-8.79a30.49,30.49,0,0,1,2.39-4.12c-1.27,1.18-4.14,4.05-5,6.37-1.12,3,.93,4.86,1.31,7.66s-3,5.05-6.92,7.1a49.81,49.81,0,0,0-8.41,6.17,46.79,46.79,0,0,1-1.68,7.66c-1.31,4.3-4.86,4.49-6.17,7.48-1,2.22.74,4.23,1.68,5.12l.57.11S102.32,125,104.37,122.9Z"/><path class="cls-7" d="M98.94,124.4a10.65,10.65,0,0,0,6.35,3.77s.08,0,0-.07a5.42,5.42,0,0,1-1.62-3.71c.07-1.28,1.47-2.2,2.35-3a39,39,0,0,0,2.93-2.67c2.33-2.46,2.84-6.2,3.4-9.42a2.93,2.93,0,0,1,.12-.63c.37-.38.76-.74,1.15-1.09a28.68,28.68,0,0,1,6-4,22.66,22.66,0,0,0,5.15-3.59,6.24,6.24,0,0,0,1.36-1.67A8.94,8.94,0,0,0,127.63,93c-.22-1.68-1.06-3.12-1-4.86.1-2.57,1.7-5.06,3.08-7.15a13.71,13.71,0,0,0,2.05-5c0-.15-.2-.22-.23-.07a14.21,14.21,0,0,1-2,4.94,19.61,19.61,0,0,0-2.93,6,8.35,8.35,0,0,0,.44,4.66,7.46,7.46,0,0,1-.57,5.75c-1.27,2.74-4,4.49-6.57,5.91a35.58,35.58,0,0,0-5.88,3.84c-.49.42-1,.85-1.42,1.3-.13.13-.25.21-.28.4a47.33,47.33,0,0,1-1.29,6,9.63,9.63,0,0,1-1.91,3.67,38.78,38.78,0,0,1-3.83,3.53c-.91.8-1.7,1.53-1.67,2.81a5.18,5.18,0,0,0,1.07,2.61,8.27,8.27,0,0,0,.51.66c.16.17.12,0-.14,0a10,10,0,0,1-1.45-.4A10.66,10.66,0,0,1,99,124.38s0,0,0,0Z"/><path class="cls-8" d="M38.56,126.81a9.39,9.39,0,0,0,.81,6,7.45,7.45,0,0,0,.8,1.21,7.56,7.56,0,0,0,.6.67c.23.23.29.14,0,.1a10,10,0,0,1-3.46-1.28,23,23,0,0,1-3.94-3.3c-.81-.75-1.61-1.53-2.39-2.31-.05,0-.14,0-.13,0a12.07,12.07,0,0,0,.62,2.59,10.12,10.12,0,0,0,1,2,6.71,6.71,0,0,0,.65.84c.12.14.37.12,0-.06a12.49,12.49,0,0,1-3.84-3A13.63,13.63,0,0,0,26.52,128,46,46,0,0,0,19,123.79c-.52-.22-.9-1-1.18-1.39a15,15,0,0,1-1.87-5.14.11.11,0,0,0-.22,0c-.66,2.32.36,4.95,1.69,6.82l.16-.17a5.46,5.46,0,0,1-2-2.32c-1.28-2.21-1.9-4.81-2.82-7.18a15.5,15.5,0,0,0-2.95-5.24c-1.37-1.42-3.67-2-5.55-2.38-.21,0-.42-.07-.64-.09s0,.21,0,0c.05-.4.08-.8.12-1.21.16-1.69.28-3.39.38-5.09a40.74,40.74,0,0,0-.58-11.19c-.55-2.52-1.27-5-2-7.46a5.83,5.83,0,0,1-.59-2.65A38,38,0,0,1,6.94,63.91c.1-.15-.14-.29-.25-.14A37.11,37.11,0,0,0,1.23,76.1C1,77.2.71,78.32.54,79.45a2.69,2.69,0,0,0,.28,1.26A80.87,80.87,0,0,1,3.6,91.16c.68,3.8.34,7.78.06,11.61-.09,1.35-.2,2.7-.34,4a.13.13,0,0,0,.13.14,11,11,0,0,1,5.8,2.1c1.82,1.49,2.72,4.13,3.52,6.24a39.37,39.37,0,0,0,2.79,6.82,5.09,5.09,0,0,0,1.85,2c.09,0,.24-.06.16-.16-1.29-1.82-2.32-4.37-1.67-6.64h-.22a13.59,13.59,0,0,0,2.61,6.16,1.83,1.83,0,0,0,.8.6c1,.45,2,1,3,1.49a34.12,34.12,0,0,1,6.48,4.21c.89.78,1.58,1.74,2.54,2.46a13.14,13.14,0,0,0,2.23,1.38.08.08,0,0,0,.1-.13A9.91,9.91,0,0,1,31,128.24c-.05-.3-.09-.17-.15-.23l.29.28c.49.49,1,1,1.48,1.43,2.39,2.26,4.91,4.81,8.36,5.18a0,0,0,0,0,0-.07,8.68,8.68,0,0,1-2.44-8s0,0,0,0Z"/><path class="cls-9" d="M114.65,85.7,113,58.23c-.25-1.74-3.74-8.47-7.23-11a51,51,0,0,0-15.2-6.48c-4-.75-7.72,1.74-7.72,1.74L73.6,50S60.39,59.48,58.15,60.72,41.7,70.44,38.46,72.44c-1.73,1.06-3.11,3.7-4,5.93a13.24,13.24,0,0,0-4.46,1c-1.25.5-6.23,7.48-6.73,9s-2.43,10-2.43,10c.94,5.61,1.68,13.83,9.35,12.15a5.89,5.89,0,0,1,1.68,1.31l.41-.09.15.65c1.68,5.42,2.24,9.9,6,14.39A47.85,47.85,0,0,0,52,138.41s7.48,6.35,13.65,8.22,20.55,2.62,25-3.36c3.87-5.16,8.41-17.2,8.41-17.2a29.68,29.68,0,0,0,4.3-6.72c2-4.3,5.6-18.13,5.6-18.13A4.4,4.4,0,0,0,112.78,99c1.12-2.24.38-7.28,1.31-9.72S114.65,85.7,114.65,85.7Z"/><path class="cls-10" d="M52.92,127.89c7.51-4.6,8.25-17.08,1.64-27.89S36.5,84.15,29,88.75c-5.69,3.47-7.49,11.47-5.16,19.85,1.3,1.71,3.26,2.64,6.35,2a5.89,5.89,0,0,1,1.68,1.31l.41-.09.15.65c1.68,5.42,2.24,9.9,6,14.39l.75.92C44,130.06,49,130.29,52.92,127.89Z"/><path class="cls-11" d="M103.44,119.35c2-4.3,5.6-18.13,5.6-18.13A4.4,4.4,0,0,0,112.78,99c1.12-2.24.38-7.28,1.31-9.72s.56-3.55.56-3.55l0-.53-.49-.28C107.64,81.61,97.74,88.11,92,99.41s-5.09,23.14,1.4,26.42a8.63,8.63,0,0,0,5.55.67l.17-.43A29.68,29.68,0,0,0,103.44,119.35Z"/><path class="cls-12" d="M78.33,109.31s-5.35-.12-5.73-3.11.87-4.61,1-8-.38-8-.13-11.34a40.1,40.1,0,0,0,.13-5.11L81.32,81v6.73c0,2,.38,6.35.13,8.47a20.24,20.24,0,0,0,.37,5.86c.25,1.12,1.5,2.86.75,4.86A5.13,5.13,0,0,1,78.33,109.31Z"/><path class="cls-9" d="M72.23,102.46s3.86-2.36,9.59-.37l.25-1s-5.11-1.62-9.47.25Z"/><path class="cls-13" d="M38.59,82a9.43,9.43,0,0,0,5.79,1.68,69.41,69.41,0,0,1,9.34.56l9.72,2.06s7.29-3.56,6.73-9.35c0,0-4.67-3-5.23-3s-5-2.05-5.8-2.05-4.29-1.69-9.15-.94-8.79,1.68-9.72,2.24S38.59,82,38.59,82Z"/><path class="cls-14" d="M86.8,85.7s-3.55-3.36-3.17-7.28A21.32,21.32,0,0,0,87,74.87c.94-1.5,9.16-2.43,9.16-2.43s5.6-.38,6.17-.38h3.55l2,4.3-.56,3.93s-2.43,3.92-6,3.92S86.8,85.7,86.8,85.7Z"/><path class="cls-15" d="M65.5,106.45a59.67,59.67,0,0,0,3.55-4.86c1.38-1.87,1.51-3.21,2.25-5.42,1-3.08,1.43-8,.15-11-2.17-.13-4.25,2.47-5.62,3.84a12.91,12.91,0,0,0-3.93,7c-.68,3.94,0,10,3.6,12.54Z"/><path class="cls-16" d="M87,105.89c-1.29-1.66-4.35-3.35-4.48-5.61a40.2,40.2,0,0,1-.57-7.85c.19-3.74.19-6.16.19-6.16s1.62,2,2.56,3.36,5.35,4.3,5.73,8.22-.88,7.23-3.62,10.84a2.73,2.73,0,0,0,0-1.87Z"/><path class="cls-17" d="M53.41,137.72c-2.24-2.74-6.72-10-11.21-20.68,0,0-4.73-6.23-6.73-8.22s-5-6.48-5.23-7.48l-.25-1s-3.49,0-3.49-3.48c0,0,.25-2.49-1.24-3-1-.35-2.9,1.45-4,2.84l-.39,1.7c.94,5.61,1.68,13.83,9.35,12.15a5.89,5.89,0,0,1,1.68,1.31l.41-.09.15.65c1.68,5.42,2.24,9.9,6,14.39A47.85,47.85,0,0,0,52,138.41a56.86,56.86,0,0,0,11,7.17l.14-.13S55.66,140.46,53.41,137.72Zm61.24-52-.16-2.64c-1.16-.54-2.18-.91-2.77-1.15-1.74-.75-3.49,1.24-3.49,1.24s.25,3.24.75,10.22-3.49,12-5.23,14.2-4.49,10.72-6,17.69c-1.43,6.66-6.47,16.93-6.94,17.87,3.84-5.23,8.31-17.06,8.31-17.06a29.68,29.68,0,0,0,4.3-6.72c2-4.3,5.6-18.13,5.6-18.13A4.4,4.4,0,0,0,112.78,99c1.12-2.24.38-7.28,1.31-9.72S114.65,85.7,114.65,85.7Z"/><path class="cls-18" d="M104.75,53.56c-.57-.19-4.86,2.24-5.24,3l-9,12.54a13.83,13.83,0,0,0-2-1.89l-3,3.55-8.41,6.92a12,12,0,0,0,7.66-2.43c1.28-1,2.36-1.86,3.24-2.64l-4.18,5.82s5-.19,9.72-5,8.22-4.49,9.91-10.84S105.31,53.75,104.75,53.56Zm-28,7.1A75.32,75.32,0,0,1,85.12,50.2c.56-.56,2.43-7.29.94-8a6.42,6.42,0,0,0-2.17-.22,9.94,9.94,0,0,0-1.07.59L73.6,50S60.39,59.48,58.15,60.72,41.7,70.44,38.46,72.44c-1.73,1.06-3.11,3.7-4,5.93a13.24,13.24,0,0,0-4.46,1c-1.25.5-6.23,7.48-6.73,9s-2.43,10-2.43,10a57.11,57.11,0,0,0,1.24,6.37h.07A58.77,58.77,0,0,1,43.63,83.65l4.11-3.74s8.6-2.8,12-6.35S72,67.39,76.71,60.66Zm35.14,17.2c-.38-.94-.75-3.37-1.69-4.49a6.94,6.94,0,0,0-2.89-1.53,1.64,1.64,0,0,0-.28-.53,2.21,2.21,0,0,0-3.18.57l.37,9.9a22,22,0,0,1,.74-2.43,45.88,45.88,0,0,0,2.63,9.9c1.31,3,1.87,9,1.87,9l2.43-10.84S112.22,78.79,111.85,77.86ZM88.11,58.79c5-12.52.56-8.22,0-7.85s-6.17,8.79-7.85,11S72,71.13,71.11,71.31a49.33,49.33,0,0,0-5.61,2.25l2.24,1.31S83.07,71.31,88.11,58.79Z"/><path class="cls-19" d="M31.44,111.45a2.32,2.32,0,0,0-.59-.41Zm-1.07-.94a.21.21,0,0,0-.25-.14,7,7,0,0,1-4.56-.55,6.6,6.6,0,0,1-2.48-3c-1.26-2.62-1.59-5.62-2.17-8.44,0-.09-.17-.07-.16,0,.41,3.21.7,6.65,2.31,9.52a6.16,6.16,0,0,0,3.08,2.77,6.27,6.27,0,0,0,2.39.34,7,7,0,0,0,1.21-.16,1.66,1.66,0,0,1,1.11.16A1.47,1.47,0,0,1,30.37,110.51Zm1.07.94a5.66,5.66,0,0,1,.4.44s.07,0,0,0A1.93,1.93,0,0,0,31.44,111.45ZM26.4,96c.47.77,0,1.79.32,2.68a4.36,4.36,0,0,0,1.19,1.6,7.26,7.26,0,0,1,1.85,2.66,0,0,0,0,0,.09,0c-.54-1.69-2.16-2.69-2.67-4.36a3.52,3.52,0,0,1,0-1.55c.11-.7.16-.65-.25-1.29a32.28,32.28,0,0,0-2.23-3.53c-.1-.12-.28,0-.2.16C25.12,93.52,25.68,94.79,26.4,96Zm-1.29,6.41a0,0,0,1,0,0-.08c-1.17-.74-1-3-1-4.22s0-2.65,0-4a.11.11,0,0,0-.22,0,33.71,33.71,0,0,0,0,4.82C24,99.92,24.09,101.83,25.11,102.38ZM114.7,85.69a.05.05,0,1,0-.1,0c.38,1.25-.34,2.73-.71,3.88a18.77,18.77,0,0,0-.5,4.85c-.07,1.77-.06,3.84-1.26,5.26a4.25,4.25,0,0,1-3.09,1.37.13.13,0,0,0-.13.1c-1.4,5.37-2.84,10.79-4.76,16A27.48,27.48,0,0,1,99,125.93a5,5,0,0,0-.58,1.41c-.57,1.43-1.16,2.86-1.77,4.27A70.21,70.21,0,0,1,91.34,142a9.94,9.94,0,0,1-3.53,3.41,17.5,17.5,0,0,1-5.13,1.75,38.24,38.24,0,0,1-11.65.26,27.33,27.33,0,0,1-10.74-3.52,58.39,58.39,0,0,1-7.46-5.13,14.35,14.35,0,0,0-2-1.28,44.81,44.81,0,0,1-5.6-4A37.89,37.89,0,0,1,36.55,124c-2.09-3.54-2.87-7.67-4.1-11.54,0,0-.07,0-.06,0,1.37,4.64,2.24,9.41,5.1,13.43a45.85,45.85,0,0,0,10.88,10.47c1.31.92,2.79,1.6,4,2.61s2.23,1.74,3.37,2.57a33.54,33.54,0,0,0,10.8,5.57A39.54,39.54,0,0,0,77,148.19a25.1,25.1,0,0,0,10.55-2.11c3.09-1.5,4.69-4.44,6.23-7.36,1.72-3.26,3.19-6.64,4.58-10.05.33-.82.65-1.64,1-2.47a1.57,1.57,0,0,1,.25-.3c.42-.51.82-1,1.2-1.58a35,35,0,0,0,4.68-9.83c1.08-3.32,2-6.68,2.93-10,.26-1,.51-1.92.76-2.89a1.17,1.17,0,0,0,.05-.2,5.14,5.14,0,0,0,1.55-.35c3-1.13,2.84-4.69,2.93-7.34a17.15,17.15,0,0,1,.76-5A5.25,5.25,0,0,0,114.7,85.69Z"/><path class="cls-20" d="M85.06,109.56a2.22,2.22,0,0,0-2.24-1.49,7.24,7.24,0,0,1-8.85,2,6.38,6.38,0,0,0-4.11-1.37,8.68,8.68,0,0,0-4.36,1.12c.25,1.62,2.86,3,2.86,3a17.39,17.39,0,0,0,6.89,3.11c.39.6,1.44,2.13,1.84,2.13s.4-1.42.79-2.08a9.16,9.16,0,0,0,5.81-3.78c1.37-.37,2.74-3.36,2.74-3.36Z"/><path d="M68.58,110a3.1,3.1,0,0,0,4.3.75l-.56-.28A6.84,6.84,0,0,0,68.58,110ZM83,109.16l-1,1.31-.28.47a3.67,3.67,0,0,0,2.53-.57C84.19,109.34,83,109.16,83,109.16Z"/><path class="cls-21" d="M67.38,108A8,8,0,0,0,69,104.1c.19-1.9-.69-1.52-1.53-.37s-2.19,2-2.28,3.47S66.42,109.06,67.38,108Z"/><path class="cls-22" d="M85.32,107.62a4.3,4.3,0,0,1-1.55-2.79c-.46-2.15,1.19-.74,1.89.09a4.27,4.27,0,0,1,1.16,1.88C86.92,107.93,86.22,108.24,85.32,107.62Z"/><path class="cls-23" d="M65.26,108c0-2.07,2-3.75,3-5.41,0,0,0-.09-.07,0-1.41,1.8-3.49,3.46-3.4,6,.07,2.32,2.55,4.16,4.68,4.41,0,0,0,0,0,0C67.47,112.15,65.23,110.34,65.26,108Zm18-6.59a.07.07,0,0,0-.12.07c1,1.76,2.79,2.93,3.42,4.88.74,2.29-1.37,4.63-3,5.91,0,0,0,.06,0,0,1.83-1.24,3.57-2.81,3.53-5.19S84.4,103.16,83.25,101.43Zm-16.16,9a.05.05,0,0,0,0,.1,7.25,7.25,0,0,1,6.32.74s.11,0,.06-.08A5.51,5.51,0,0,0,67.09,110.39Zm16.83-.56a1.64,1.64,0,0,1,.2,1.21.07.07,0,0,0,.14,0,1.66,1.66,0,0,0-.13-1.38,1.44,1.44,0,0,0-.78-.62,4.1,4.1,0,0,0,.21-.48c0-.11-.13-.22-.21-.12a9.65,9.65,0,0,1-4.11,3.37,6.21,6.21,0,0,1-5.51-.31s0,0,0,0a5.73,5.73,0,0,0,5.66.73,7.7,7.7,0,0,0,3.82-2.93l.2.06A1.15,1.15,0,0,1,83.92,109.83ZM82,91a44,44,0,0,0,.52,9.31h0a50,50,0,0,1-.4-9.31c.15-3.65-.36-7.24.45-10.86,0-.06-.09-.09-.11,0C81.66,83.74,82.15,87.38,82,91Z"/><path class="cls-24" d="M60.31,124.45s4.27,3.24,5.6,4.52,4.87,4,7.11,4.32S81.5,133,83,132s4.17-6.24,6.19-7.42l-3.83-.86-10-.79-9,1Z"/><path class="cls-25" d="M80.65,132.27c-4.07.9-7.62.93-11.14-1.53-.79-.56-3.25-2.29-2.06-3.47,1.73-1.7,7.12.55,9.34.3,1.62-.18,7.1-2.82,8-.65C85.79,129.49,82.68,131.82,80.65,132.27Z"/><path class="cls-24" d="M58,123.4l-.38-.28A3,3,0,0,0,58,123.4Zm33-.56c-1.26.47-2.3,1.81-4.73-.38-1.91-1.72-3.77-3.23-5.38-3.4a5.54,5.54,0,0,0-3.27,1,6.72,6.72,0,0,0-5.59-.66c-1.77.57-6.35,3.8-9.49,4.58A5.77,5.77,0,0,1,58,123.4c5.25,3.76,10.81,1.54,16.89,1.84h.4l.34.28a8.42,8.42,0,0,0,1.73.43,5.73,5.73,0,0,0,1.82-.81h.2c5.76-1,10,1.79,14.33-4.32A8.74,8.74,0,0,1,91,122.84Z"/><path class="cls-26" d="M74.87,125.17c-2.81-.45-5.84.18-8.66.26a13.4,13.4,0,0,1-8.59-2.33s-.06,0,0,.05a13.05,13.05,0,0,0,8,2.66c1.46,0,2.92-.12,4.38-.24,1.62-.14,3.25-.13,4.87-.26C75,125.31,75,125.19,74.87,125.17Zm18.78-4.41a12.79,12.79,0,0,1-3.29,3,10.63,10.63,0,0,1-3.53,1c-2.39.4-4.84,0-7.25.31a4.22,4.22,0,0,0,.49-.45.1.1,0,0,0-.12-.16c-1.4.81-2.65,1.78-4.33,1.06,0,0,0,0,0,0a4.91,4.91,0,0,0,1.26.35c.62.11.2.29.8.18a4.56,4.56,0,0,0,1.77-.89,23.79,23.79,0,0,1,4.22-.21,35.07,35.07,0,0,0,3.83.11,8.23,8.23,0,0,0,6.27-4.23C93.78,120.78,93.7,120.7,93.65,120.76Z"/><path class="cls-27" d="M105.91,67.7a10.57,10.57,0,0,0-2.25,1,13.45,13.45,0,0,1-5.49,1c-1.26-.13-6.61-.25-7.88-.13-1,.1-3,1.89-5,4.58a10.33,10.33,0,0,1,1.82-3.9,17.65,17.65,0,0,0-4.54,6.45,14,14,0,0,0,3-.72,55.07,55.07,0,0,0,7.27-1.8c3.1-1.12,6.34-.75,8.73-.75a15.1,15.1,0,0,1,5.21,1c.56.25,1.26,3.11,1.26,3.11A14.64,14.64,0,0,0,105.91,67.7Z"/><path class="cls-28" d="M38.66,67.7a17.67,17.67,0,0,1,3.06,1,24.09,24.09,0,0,0,7.44,1c1.72-.13,9-.25,10.7-.13,1.38.1,4.11,1.89,6.81,4.58a9.49,9.49,0,0,0-2.47-3.9S68.5,73,70.36,76.7A24.84,24.84,0,0,1,66.28,76a98.09,98.09,0,0,1-9.86-1.8c-4.2-1.12-8.59-.75-11.84-.75a26.75,26.75,0,0,0-7.06,1c-.77.25-1.72,3.11-1.72,3.11S34.46,72.68,38.66,67.7Z"/><path d="M87.37,85s1.21-3.37,3-4.77,6.83-2.33,10.19-.93c0,0,1.87,1.12,1.87,4.39l-4.21,1C97.83,84.77,87.37,85,87.37,85Z"/><path class="cls-29" d="M101.56,83.89a6.16,6.16,0,0,0-1.11-3.42l-.56-.37a12.68,12.68,0,0,0-8.79.56c-1.68,1.12-3,3.36-4.3,5l-.31.44,1.37.06,1,.25c4.64.56,8.74.93,12.64-2.19A1.19,1.19,0,0,1,101.56,83.89Z"/><path class="cls-30" d="M98.2,82.35a4.73,4.73,0,0,0-.88-2.76,13,13,0,0,0-6.22,1.07A7.82,7.82,0,0,0,89.58,82a3,3,0,0,0,0,.31A4.52,4.52,0,0,0,93,86.82a16.93,16.93,0,0,0,1.89,0A4.51,4.51,0,0,0,98.2,82.35Z"/><path class="cls-31" d="M93.88,86.39a3.94,3.94,0,0,0,3.83-4,4.15,4.15,0,0,0-1.06-2.79,12.91,12.91,0,0,0-5.55,1.1,7.38,7.38,0,0,0-.94.77,4.55,4.55,0,0,0-.1.92A3.94,3.94,0,0,0,93.88,86.39Z"/><path d="M96.14,82.35A2.26,2.26,0,1,1,93.88,80,2.32,2.32,0,0,1,96.14,82.35Z"/><path class="cls-32" d="M95.48,82.35a1.6,1.6,0,1,1-1.6-1.69A1.64,1.64,0,0,1,95.48,82.35Z"/><path class="cls-29" d="M93.88,81.34a1,1,0,0,0,.93-1,1,1,0,0,0-.27-.69c-.56.08-1.06.19-1.51.3a1.23,1.23,0,0,0-.07.39A.94.94,0,0,0,93.88,81.34Z"/><path class="cls-29" d="M94.33,84.68a.45.45,0,1,1-.45-.47A.46.46,0,0,1,94.33,84.68Z"/><path d="M86.9,85.8c1.36-1.73,2.66-4.34,4.82-5.17a13.64,13.64,0,0,1,8.12-.37.17.17,0,0,0,.09-.33,12,12,0,0,0-8.33.28c-2.26.88-3.54,3.59-4.91,5.43-.09.12.12.27.21.16Z"/><path d="M100.35,80.53a7.42,7.42,0,0,1,.74,1.46c.14.37.55,1.5.28,1.84a.28.28,0,0,0,.27.46,3.68,3.68,0,0,0,2.09-.91c.12-.12,0-.34-.18-.24a3,3,0,0,1-1.21.44l-.54.09c-.17.09-.21,0-.12-.13s0-.31-.05-.47a6.53,6.53,0,0,0-1.09-2.66c-.08-.11-.27,0-.19.12Z"/><path class="cls-33" d="M88.86,86.46c4.47.65,9.09.9,12.75-2.2.06-.05,0-.15-.07-.11a12.64,12.64,0,0,1-6.32,2.52,33,33,0,0,1-6.36-.23s0,0,0,0Z"/><path d="M43,83.84a12.56,12.56,0,0,1,2.24-4.49,29.5,29.5,0,0,1,8.22-.65c3.84.37,6.45,2.52,8.88,6.16l-9.53-.09Z"/><path class="cls-29" d="M62.85,85.7c-1.66-1.68-3.31-3.92-5.44-5A19.88,19.88,0,0,0,46.3,80.1l-.7.37A5.29,5.29,0,0,0,44.18,84l-.1,0a1.09,1.09,0,0,1,0,.18l.09,0c5,3.18,10.16,2.8,16.07,2.24l2.2-.12.81.12Z"/><path class="cls-34" d="M56.45,82.35a4.56,4.56,0,0,0-.53-2.15,20.54,20.54,0,0,0-7.78-.46A4.55,4.55,0,0,0,50,86.47a21.89,21.89,0,0,0,2.93.33A4.56,4.56,0,0,0,56.45,82.35Z"/><path class="cls-35" d="M51.89,86.39a4,4,0,0,0,4-4A4,4,0,0,0,55.19,80a20.38,20.38,0,0,0-6.3-.38,4,4,0,0,0-1,2.7A4,4,0,0,0,51.89,86.39Z"/><path d="M54.27,82.35A2.38,2.38,0,1,1,51.89,80,2.38,2.38,0,0,1,54.27,82.35Z"/><path class="cls-36" d="M53.57,82.35a1.69,1.69,0,0,1-3.37,0,1.69,1.69,0,1,1,3.37,0Z"/><path class="cls-29" d="M50.91,80.37a1,1,0,0,0,2,0,1,1,0,0,0-.34-.74c-.38,0-.77-.06-1.18-.07A1,1,0,0,0,50.91,80.37Z"/><path class="cls-29" d="M52.36,84.68a.47.47,0,1,1-.47-.47A.47.47,0,0,1,52.36,84.68Z"/><path d="M63,85.6c-1.91-2-3.63-4.64-6.41-5.48a18.21,18.21,0,0,0-10.29-.21.2.2,0,0,0,.11.38,22.3,22.3,0,0,1,10,.29c2.69.75,4.44,3.34,6.33,5.23A.15.15,0,0,0,63,85.6Z"/><path d="M45.51,80.38A5.57,5.57,0,0,0,44,84a1.09,1.09,0,0,0,.17-.13l-.08.06a.3.3,0,0,0-.23-.3,7.34,7.34,0,0,1-2.23-.53c-.17-.08-.37.14-.21.28a4.14,4.14,0,0,0,2.28.85.32.32,0,0,0,.35-.14l0,0a.13.13,0,0,0,.17-.13,5.89,5.89,0,0,1,1.37-3.46c.1-.12-.07-.3-.17-.18Z"/><path class="cls-33" d="M60.25,86.44a56.17,56.17,0,0,1-8.1.21,18.32,18.32,0,0,1-7.94-2.5.07.07,0,1,0-.07.12c4.78,3.23,10.65,2.83,16.11,2.19,0,0,0,0,0,0Z"/><path class="cls-37" d="M60.64,65C55.91,71.19,45.19,78.17,38.46,82.4a44.8,44.8,0,0,0-10.21,9.22c-5,5.24-9,14.46-10,20.93,0,0-4-11.15,1.43-25.72a30,30,0,0,0-5.42,14.57S10.74,90.75,18.4,75.61c0,0,4.3-11,8.79-18.12s9.15-9.16,9.15-9.16,7.85,3.55,9,4.3Z"/><path class="cls-38" d="M44.07,74.93l-1.63.74a20.56,20.56,0,0,0,3-4.36c.87-1.86-1.37-6.6-2-6.72a.59.59,0,0,0-.26,0,2.16,2.16,0,0,0-.12-1.38c-.37-.5-.75-5.86-1.62-6.73s-2.24-3.62-4-4c-.68-.14-1.33-.27-1.92-.37,1.35-2.27-.58-2.87-.58-2.87l-.15,0a27.69,27.69,0,0,0-7.63,8.27,88,88,0,0,0-4.91,9.18,40.2,40.2,0,0,0,1.11,8.88s1.37-4.44,3.36-9.33c-1.5,5.56-2.68,14,.12,22.66,0,0,1.38-8.84,6.73-13.45,2-1.73,3.59-3,4.82-4-1.61,4.08-6.69,9-6.69,9a30.29,30.29,0,0,0,9.64,0c2.35-1.51,4.94-3.23,7.49-5.07A38,38,0,0,0,44.07,74.93Z"/><path class="cls-39" d="M60.62,65A27.27,27.27,0,0,1,56,69.71c-1.88,1.68-3.87,3.23-5.89,4.72-3.73,2.75-7.62,5.27-11.54,7.73a51.82,51.82,0,0,0-11.17,10.1,40.32,40.32,0,0,0-6.93,11.85,38.46,38.46,0,0,0-2.4,8.39h.38a28.17,28.17,0,0,1-1.3-7.23,43.84,43.84,0,0,1,2.74-18.39c.08-.24-.25-.32-.37-.16a28.31,28.31,0,0,0-5.45,14.68l.4-.05a21.89,21.89,0,0,1-.81-7.07,43.79,43.79,0,0,1,4.86-18.59c.08-.18-.18-.33-.27-.16a42.61,42.61,0,0,0-5,18.55,22.7,22.7,0,0,0,.82,7.38.21.21,0,0,0,.41-.06,28,28,0,0,1,5.39-14.47l-.37-.16a44.67,44.67,0,0,0-2.76,18.28,28.18,28.18,0,0,0,1.33,7.56c.06.16.35.21.38,0A43.17,43.17,0,0,1,23,99.48a48.68,48.68,0,0,1,9-11.75c3.46-3.47,7.62-5.89,11.67-8.58a110.9,110.9,0,0,0,11.53-8.59A55.59,55.59,0,0,0,60.65,65s0,0,0,0Z"/><path class="cls-40" d="M134.15,71.44c-.75-3.49-5.48-5.73-6.48-9.47-1.25-4.73.75-10.22.5-14.95a21.7,21.7,0,0,0-1.95-8.18l.7.95c-2-4.48-.5-10.46-3.24-14.45a8.89,8.89,0,0,0-2.84-2.67l.1-.07c-2.24-6.48-8.22-9-14.2-10.47C101,10.64,99.26,7.65,96.52,2.66c0,0-16.69-3.73-33.39-1a19.54,19.54,0,0,1-9.22,5.48C48.43,8.4,5.07,15.62,6.82,62.22l-.25,2.24c3-4,5.48-7.47,10-10.21l6.23-7.48a23.51,23.51,0,0,0,2.74-7c-1.74,5-7.47,7.73-9.71,12.71C15.54,30.57,35,16.12,54.41,10.89c0,0,8.6-2.37,12-3.74A13.28,13.28,0,0,1,71.6,5.9C57.15,20.36,37.47,25.59,30.49,46.52l.06.89c-9.17,14.82-7,26.27-7,26.27C24.76,66.21,29.24,56,35.22,51l.44-.07.23.07c-7.44,10.91-12,24-9.14,36.38a21.8,21.8,0,0,1,5-11.22c2.75-3.49,7.73-6.47,9.47-10.46-.25,5.48-3.49,10.21-7.47,13.7l-.5.75c19.65-2.7,44.87-15.09,50.83-35.49L82.82,51c-5,9-12,19.93-22.18,22.92,11.39.68,21.15-7.68,26.84-17.66,0,.74.07,1.22.07,1.22C87.8,65,82.82,73.18,76.84,77.42A29.82,29.82,0,0,0,90,67.19l.1.17-.76.84a23.66,23.66,0,0,1-6,10.22,48.56,48.56,0,0,0,5.44-4l-.21.74c8.1-2.57,13.06-11.72,14.65-20.37,0,.08,0,.16.08.24l0-.06c1.5,9.22-4,17.2,1,26.67-.25-4.74,1-9.22,2.49-13.71l-.5,3c-1,5.88,0,10.55,2.37,15.92l.12.78c1,3.48,1.75,7.22.75,11,2.74-8,8-13.95,9-22.68l.75,1a29.9,29.9,0,0,1-.25,8.22c2.47-6.92,7.39-10.41,8.2-18.25l.52.31c3,5.24,4,7.23,2.49,13.21C131.66,77.92,134.65,74.68,134.15,71.44Zm-25-55.82c8.22,1.12,10.46,6.23,10.46,6.23C112.22,20,109.11,15.62,109.11,15.62Z"/><path class="cls-41" d="M80,60c-.81.13-1.51-.8-2.43.93L76,61.84h0c-.57.77-1.17,1.53-1.79,2.27h0a48.64,48.64,0,0,0,9.18-1.84h0a1.13,1.13,0,0,0,.1-.13c.23-.28.46-.57.68-.86l.07-.09c.24-.31.47-.63.7-.95l.07-.09c.33-.46.65-.94,1-1.41.16-.24.32-.48.47-.73a16.6,16.6,0,0,0-2.56,1A14.92,14.92,0,0,1,80,60ZM44.63,33.82c.52,1.08,1.65.54,1.82,2,.12,1.12-1.35,2.51-1.74,3.35,2.36-1.05,6.08-1.91,8.47-.37,2,1.29,1.4,4.34,3,5.62.94.73,3,.6,4.17,1.25,1.89,1,3.41,2.49,5.42,3.3,8.5,3.43,11.2-6.73,17.82-9.23s5.3,8.42,7.92,10.95C93.89,49.33,99.7,40,102.22,45c.13-2.39-.61-6.35,1.78-7.94s4.47.86,6.54.47c4.5-.85-2.36-10.41,5.37-8.45a44.12,44.12,0,0,0-8.71-5.85c.94.56,2.6,2.68,2,3.89-.82,1.61-4.21-.7-5.64-.26-4.79,1.46,1,12.27-6,11.67-2-.17-3.62-2.56-5.54-2-1.32.38-2.21,3.55-3.16,3.58-1.58,0-1.69-3.06-3-3.52s-1.89.91-3.2,1c-2.81-7.59-16.06,4.11-19.69,5.61-8,3.29-4.39-6.91-10.47-7.61-.16-1.38.78-3.18,1.44-4.36a6,6,0,0,1-4.18,1.13c.07-1.54,2.89-4.91.25-5.23-.22-1.29.59-2.39,1.21-3.45l-5.73,3.23C46.35,29,43.44,31.38,44.63,33.82ZM67.86,19.44c3.15,1.78,7.79-4.26,10.75-5a17.69,17.69,0,0,1,9.7.63c1.45.47,6.49,3.31,8,2.34s.44-4,.25-5.28c1.77-.82,5.14.44,6.93,1.15a91,91,0,0,1-6.67-6.79c.61,2.15-.92,5.25-2.59,6.66-2.64,2.25-5.47.67-8.42,0-3.74-.87-6.57.06-10.26.69a8,8,0,0,1-5.94-1c-.91-.58-1.9-1.83-2.48-1.94l-2,1.49a10.21,10.21,0,0,0-1.21,3C66.93,13.51,66,18.38,67.86,19.44ZM21.46,24.8A5.42,5.42,0,0,1,21,23.15a45.79,45.79,0,0,0-8,10.4,3,3,0,0,0,1.28.21c3.43-.09,7.31-5.85,8.27-2.36.84-1.16,1.74-2.29,2.69-3.37A6.17,6.17,0,0,1,21.46,24.8ZM58.93,65.46c-3.55.93-9.16,2.45-12.77.76-2.15-1-1.84-2.7-2.95-4.41-1.34.77-2.73,1.37-4,.38-3.12-2.45.29-8.25-1.54-10.71-.39-.53-1.79-.42-2-.71-.48-.79-.32-1.38-.49-2.5-.32-2.15,0-2.4-2.46-2.32a9.55,9.55,0,0,1,1-5.41l-.45-.48c-.26.47-.5.95-.74,1.44l-.06.13c-.23.47-.45.95-.67,1.44a1.54,1.54,0,0,1-.08.19c-.21.49-.41,1-.6,1.48a1.34,1.34,0,0,0-.07.18c-.2.52-.39,1.06-.57,1.6l.06.89c-.19.31-.36.61-.55.91.59,0,1,.42,1.24,1.87s-.22,3.44-.27,5a6.47,6.47,0,0,1,.7-.4,3.23,3.23,0,0,1,2-.33c4.38.94,4,14.05,3,16.67a20.38,20.38,0,0,0,4.32-5.25,12.3,12.3,0,0,1-.57,3.54c-.24,1-.43,2-.74,3,.16-.5,1-1.06,1.42-1.39a12.5,12.5,0,0,1,1.89-1.35,13.63,13.63,0,0,1,4.25-1.54,17.69,17.69,0,0,1,9.09.74c7.21,2.53,14.73-7.75,18.72-12.81A39.38,39.38,0,0,1,58.93,65.46ZM128.17,47c0-.31,0-.61-.06-.91l0-.38c0-.12,0-.24-.05-.36q0-.46-.12-.93a.09.09,0,0,1,0,0h0a11.26,11.26,0,0,1-.78,2.84c-.49,1-1.49,1.82-2,2.76-1.48,2.69-1.51,7.92-4.6,9.5-5.62,2.89-7.06-12.93-13.34-3.27-1.44-1.29-1.8-3.89-4-2.8-.87.44-1.61,3-2.23,3.83-1.21,1.55-3.15,3.59-5.19,3.73-2.53.18-4.34-2.48-6.68-3a5.09,5.09,0,0,0-1.53-.13h0a18.11,18.11,0,0,1-.33,3.57c4.15-.58,7.48.49,7.29,5.72.83-2.14,4-5.82,6.68-5.4a36.81,36.81,0,0,0,2-6.92l0,.18a28.36,28.36,0,0,1-.11,8.39c.26.31.66.46,1.62.15,1.38-.44,3.1-3.21,4.16-4.24,6.86-6.6,10.35,6.59,10.26,11.81,1.51-2.94,3.59-6.74,6.51-8.59a4.19,4.19,0,0,1,1.94-.73h0c-1-4.06.32-8.65.53-12.84,0,0,0-.08,0-.12,0-.24,0-.48,0-.72v-.19C128.19,47.61,128.18,47.31,128.17,47Z"/><path class="cls-42" d="M100.83,42.47c-.27-1.94,1.46-7.16,3.2-8.11s4.91.42,6.09-1.33c.86-1.27-.29-5.23,2.42-4.91-.75-.7-1.88-.81-2.59-1.6.94,2.25-.58,3-2.58,3.12-4.16.26-3.81,3.24-5,6.69-1,2.76-2.59,4.59-5.62,3.92-1.81-.4-3-1.36-4.64-.2-.94.66-1.11,2.37-2.65,1.17l1.68,4.86C92.13,43.41,97.77,40.26,100.83,42.47ZM70.31,16.93c1.17,1,.7,1.1,2.52.19a23,23,0,0,0,3.83-2.6c-3.3,1.12-7.74,1.42-9.71-2.06a2.49,2.49,0,0,0-1.26,1.67l-.19.37C67.87,14.35,68.74,15.62,70.31,16.93Zm-36,34.57c-.66-.78-.41-1.1-.55-2.19-.35-2.64-1.28-1.62-2.75-3.26a2.21,2.21,0,0,1-.22-.29c-.09.25-.19.5-.27.76l0,.34a7,7,0,0,1,1.21,1.27c1.08,1.49.55,3.36.54,5,2.47-.12,4.18,2.17,4.46,4.46A8.94,8.94,0,0,0,36,52.81C35.51,52,34.77,52.08,34.28,51.5ZM96.7,10.75a1.69,1.69,0,0,0-.42,1c.26-.4.51-.82.75-1.24A1.09,1.09,0,0,0,96.7,10.75Zm-.37,3.8c.07-.71-.17-1.88,0-2.79-1.37,2.08-3.13,3.72-5.74,3.33C93,16.1,96,18.17,96.33,14.55Zm4.54-3.78H101A15.29,15.29,0,0,0,99.13,9l-.89-.8c-.38.74-.78,1.54-1.21,2.32C98.07,10,99.84,10.63,100.87,10.77ZM18.62,25.63a46.83,46.83,0,0,0-3.26,4.14,10.72,10.72,0,0,0,1.39-.32A10.83,10.83,0,0,1,22.1,29a7,7,0,0,1,1.72.68l.17.1a1,1,0,0,1,.12-.25,3.88,3.88,0,0,1,.3-.48l0,0h0c.06-.07.11-.15.17-.23s0,0,0,0h0A16.49,16.49,0,0,1,18.62,25.63ZM74.73,63.45c1.09-.29,2.16-.69,3.28-1.06,2.21-.75,5.22.2,5.4-2.61-2.27.8-5.49,2.85-8.28,3.18C75,63.12,74.86,63.28,74.73,63.45Zm20.63-1.66c-2.76.05-5.06-2.61-7.85-2.59q0,.7-.15,1.41c2.89-.1,6.17.45,7.84,2.65a19.09,19.09,0,0,1,4.09-2c1-.34.57.6,1.39-.53.42-.56.41-2.06.53-2.77C99.73,59.47,97.66,61.74,95.36,61.79Zm32-5.42c-1.86,3.38-5.06,6.15-8.58,3.92A42.49,42.49,0,0,1,114,56.37c-.84-.72-1.83-1.63-3.08-1.5-1.89.18-2.38,2.51-3.9,3.1-1.11.42-1.29-.59-2.22-.5a2.23,2.23,0,0,0-1.23.84c0,1-.06,2.08-.16,3.1a6.21,6.21,0,0,0,2.14-.73c.85-.55,1.59-1.93,2.37-2.63,2.07-1.87,3.52-2,5.81-.7A14,14,0,0,1,120.44,66c1.18-2.51,4.23-4.19,7.14-4.5A17.38,17.38,0,0,1,127.35,56.37ZM60.64,68.88a6.87,6.87,0,0,0,1.49-.35A9.29,9.29,0,0,0,64.4,67.3c2.37-1.69,4.32-4.34,6.09-6.21-3.18,3.25-9.65,6-14.15,6.11Zm27-29.32c-1.84-1.47-1.92-2.23-4.23-1.84-2.14.36-2.82-.78-4.85-1-3.08-.32-7.26,3-9.58,4.69a11.21,11.21,0,0,1-5.94,2.42c-3.39.3-5.52,0-7-3.18-.7-1.53-1.17-2.93-2.56-4-1-.75-3.79-1.45-2.12-3.11-1.54,0-3-.05-3.68-1.71-.43-1.09.13-3.32.32-4.38.15-.8.32-1.61.5-2.43L47,25.94a15.24,15.24,0,0,1,0,1.66c-.07,1.17-.88,3.19-.58,4.28s1.28.7,1.65,1.53-.52,2.64-.88,3.46c2.48-2.66,6.87,1.2,8.07,3.46C56.12,42,56,43.49,57.85,44c1.48.43,2.76-.12,4.32.57,2,.88,4,3.08,6.36,2.48,3-.76,5.6-4.84,8.18-6.56A11.71,11.71,0,0,1,87.67,39.56Zm-45,25.82c-1-1.19-.86-1.07-2-1.36s-1.74.71-2.4-1.3L37.84,68c0-.6,2.19-.91,1.74.29a17.73,17.73,0,0,0,1.55-2.59,8,8,0,0,1-.29,2.18c-.09.49-.5,2.13-.16,2.46.83-.59,1.41-1.59,2.32-2.18A5.88,5.88,0,0,1,46,67,4.61,4.61,0,0,1,42.66,65.38Z"/><path class="cls-43" d="M104.37,70.75c-1.68,9-.56,9.91-.56,9.91l0,.17c.12.27.26.55.41.83-.25-4.74,1-9.22,2.49-13.71l-.28,1.66c.2-.91.34-1.47.34-1.47,3.74-13.27.93-20.19.93-20.19C109,56.18,106.05,61.78,104.37,70.75Zm29.78.69c-.75-3.49-5.48-5.73-6.48-9.47-1.25-4.73.75-10.22.5-14.95a21.7,21.7,0,0,0-1.95-8.18l.7.95c-2-4.48-.5-10.46-3.24-14.45a8.89,8.89,0,0,0-2.84-2.67l.1-.07c-2.24-6.48-8.22-9-14.2-10.47C101,10.64,99.26,7.65,96.52,2.66c0,0-16.69-3.73-33.39-1a19.54,19.54,0,0,1-9.22,5.48c-3.53.8-22.74,4.08-35.53,18.74,3.37-2.85,13-10.37,24.51-13.82,14.39-4.3,17.94-5.42,17.94-5.42l2.8-3.55S83.44.3,93.91,4l4.67,5.6s7.29,8.78,12.89,10.84,11,3.74,12,7.66a18.09,18.09,0,0,1,.43,6.43l-.61-1c-5.24-6.16-9.16-6.73-9.16-6.73,6.17,3.18,11.4,11.59,12.33,17.57s-2.42,11.4-2,14.77,1.12,7.28-.37,12.52a74.71,74.71,0,0,1-4.3,10.84l-.47.62c-.07.66-.16,1.32-.28,2,2.47-6.92,7.39-10.41,8.2-18.25l.52.31c3,5.24,4,7.23,2.49,13.21C131.66,77.92,134.65,74.68,134.15,71.44Zm-25-55.82c8.22,1.12,10.46,6.23,10.46,6.23C112.22,20,109.11,15.62,109.11,15.62ZM47.93,26.46C56.56,20.53,64.5,13.39,67.08,10,55.57,19.67,42.13,25.54,34.36,38.19l-.07,1A59.22,59.22,0,0,1,47.93,26.46ZM90,67.19l.06.09.33-.45c3.93-6,1.87-13.46,1.87-13.46-.48,13.59-10.11,21-12.89,22.89A28.71,28.71,0,0,0,90,67.19Zm27.87,3c.18,7.48-2.25,8.41-3.93,15A64.57,64.57,0,0,1,110.16,96l-.43,1.49c-.07.37-.15.75-.25,1.13,2.74-8,8-13.95,9-22.68l0,0c1.76-11.52-4.39-26.52-4.39-26.52S117.64,62.72,117.83,70.19ZM84.06,44.67l-.21,1.07a37.84,37.84,0,0,0,1.27-16.85c-.37,39.06-51,51-51,51V80C53.62,77.09,78.19,64.77,84.06,44.67Zm3.42,11.6c0,.22,0,.42,0,.59a76.33,76.33,0,0,0,4.7-13,17.7,17.7,0,0,0-.74-8.78C89.61,65.9,65.69,73.37,65.69,73.37v.27C74.89,72,82.65,64.74,87.48,56.27ZM35.22,51l.44-.07.23.07c-.31.45-.62.91-.92,1.38l.81-1.07C42.32,40.1,59,28.52,59,28.52,51.86,32.07,44.38,38.8,44.38,38.8s-9.53,7.84-15.51,16.44a29.36,29.36,0,0,0-5.23,17.57l-.22.2c0,.44.09.67.09.67C24.76,66.21,29.24,56,35.22,51Zm60.93-3.62A33.81,33.81,0,0,1,86,76.59c1-.7,1.87-1.41,2.74-2.15l0,.06c5.8-4,8.53-14,8.53-14C98.77,54.12,96.15,47.39,96.15,47.39ZM89.47,68l-.17.19a.19.19,0,0,0,0,.07Zm12.47-28.09c3.79,20.9-10.5,33.63-11.52,34.52,7-3.28,11.32-11.67,12.78-19.63,0,.08,0,.16.08.24l0-.06.09.62c.06-1.82.1-3.36.1-3.36A21.61,21.61,0,0,0,101.94,39.92ZM41.2,65.71c0,.28,0,.56-.06.84l.06-.1A34.39,34.39,0,0,0,45.5,50.2C42.89,66.08,34.1,69.07,29.8,75.43a18.88,18.88,0,0,0-3.44,10q.16,1,.39,2a21.8,21.8,0,0,1,5-11.22C34.48,72.68,39.46,69.7,41.2,65.71Z"/><path class="cls-44" d="M76.62,58.58a35.91,35.91,0,0,0,7.73-14.79s-.06-.07-.07,0C79.44,60.39,63.21,71,47.69,76.35A88.07,88.07,0,0,1,33.17,80c-.22,0-.17.43.06.41a73.65,73.65,0,0,0,23.22-7A60.38,60.38,0,0,0,76.62,58.58ZM38.34,69.83A15.93,15.93,0,0,0,41,66.44l.09-.19,0,0A16.76,16.76,0,0,1,40.82,68a15.94,15.94,0,0,1-.72,2.51,22.77,22.77,0,0,1-6.39,8.85,0,0,0,1,0,0,0C37.81,75.91,41,71.2,41.3,65.71a.1.1,0,0,0-.18,0c-1.83,4-5.92,6.46-8.8,9.63a23.15,23.15,0,0,0-5.58,11.27c-1.73-9.65.55-19.32,4.94-28a75.06,75.06,0,0,1,18.37-23c.88-.75,1.79-1.48,2.7-2.2.12-.08,0-.28-.15-.19a74.32,74.32,0,0,0-19,20.92c-5,8.12-8.38,17.66-7.89,27.29a31.19,31.19,0,0,0,.91,6c0,.18.27.12.29,0a21.16,21.16,0,0,1,4.16-10.14C33.11,74.41,35.9,72.31,38.34,69.83ZM35.24,51a0,0,0,0,0,0,0,31.76,31.76,0,0,0-7.69,10.38,44.92,44.92,0,0,0-4,11.71,26.43,26.43,0,0,1,.18-6.94,47.39,47.39,0,0,1,7-18.78A75.27,75.27,0,0,1,46,30.16c.12-.1-.05-.26-.17-.17-11.58,9.58-21.79,23.3-22.62,38.83a21.63,21.63,0,0,0,.18,4.89.11.11,0,0,0,.2,0,45.75,45.75,0,0,1,4.05-12.26A31.85,31.85,0,0,1,35.24,51ZM34,38.59a39.68,39.68,0,0,0-3.52,7.91.06.06,0,1,0,.12,0A41.84,41.84,0,0,1,37,34.6,53.93,53.93,0,0,1,45.74,26c6.52-5.3,13.77-9.61,20.3-14.9A63.09,63.09,0,0,0,71.66,6c.07-.07,0-.19-.12-.12-6.26,6-13.44,10.67-20.48,15.67C44.44,26.22,38.14,31.52,34,38.59ZM81.78,64.53A41.76,41.76,0,0,0,92.5,43.16c.06-.37.09-.75.13-1.12,0-.12-.17-.14-.19,0A43.78,43.78,0,0,1,82.08,63.4c-5.22,5.94-12.39,10.31-20.43,10.32.91-.37,1.84-.68,2.71-1.13a26.61,26.61,0,0,0,3.35-2.12,36.2,36.2,0,0,0,5.94-5.6A79.12,79.12,0,0,0,82.83,51h0a85.33,85.33,0,0,1-8.9,13.34A36.92,36.92,0,0,1,68,70a24.88,24.88,0,0,1-3.35,2.12,12.49,12.49,0,0,1-4,1.59.23.23,0,0,0,0,.46C68.86,74.68,76.3,70.36,81.78,64.53Zm15.66-5.05c0-.2-.31-.24-.34,0A22.46,22.46,0,0,1,92.49,70.3,38.59,38.59,0,0,1,84,77.77c.41-.48.87-.93,1.24-1.42A24.89,24.89,0,0,0,87,73.71a21.59,21.59,0,0,0,2.14-4.93,17.42,17.42,0,0,0,3.78-8.55.15.15,0,0,0-.29,0C91.05,68,84.72,73.4,77.82,76.76c.41-.33.85-.64,1.23-1a25.85,25.85,0,0,0,2.19-2.25,28.68,28.68,0,0,0,3.36-4.82,21.86,21.86,0,0,0,3-11.22c0-.05-.06-.05-.06,0a22.31,22.31,0,0,1-3.06,11.13,27.94,27.94,0,0,1-3.37,4.77,24,24,0,0,1-2,2,9,9,0,0,1-2.35,1.84c-.19.08,0,.39.13.32a29.42,29.42,0,0,0,12.18-8.7,23.61,23.61,0,0,1-2,4.48,24.23,24.23,0,0,1-1.58,2.4,10.25,10.25,0,0,1-2.25,2.52c-.15.1,0,.35.15.25C90.46,74.39,96.54,67.93,97.44,59.48ZM105,74.39A62.55,62.55,0,0,1,106.75,68s0,0,0,0a57.84,57.84,0,0,0-2,6.74c-.22,1-.38,2.07-.5,3.11s-.05,2.11-.12,3.15a20.8,20.8,0,0,1-1.72-6.46,30.79,30.79,0,0,1,.34-6.78c.56-4.13,1.45-8.43.64-12.59a27.87,27.87,0,0,0,.44-6.85.1.1,0,1,0-.19,0A37.15,37.15,0,0,1,100,63.9C97.6,68.78,93.77,73.24,88.5,75a.19.19,0,0,0,.1.36c5.28-1.68,9.08-6,11.56-10.78a34,34,0,0,0,3-8.51,29.67,29.67,0,0,1-.1,5.65c-.25,2.28-.66,4.53-1,6.81-.56,4.46-.43,9.25,1.94,13.22a.18.18,0,0,0,.33-.14,11.47,11.47,0,0,1,0-3.46A29.66,29.66,0,0,1,105,74.39Zm3.94,12.75a27.65,27.65,0,0,1,.6-9.29,56.17,56.17,0,0,0,1.54-8.9c0-.13-.17-.12-.19,0-.75,5.7-3,11.33-2.47,17.12A26,26,0,0,1,106.27,71s0-.06-.06,0a26.63,26.63,0,0,0-.18,8,40.84,40.84,0,0,0,2.51,8.24C108.61,87.38,109,87.37,108.93,87.14Zm9.44-11.24a40.55,40.55,0,0,1-4.08,11.79,94.76,94.76,0,0,0-4.42,9.2A17.81,17.81,0,0,0,110,93a29.56,29.56,0,0,0-1.17-5.4c0-.06-.11,0-.1,0,.91,3.36,1.91,7.51.62,10.9-.08.22.27.31.36.1,1.53-3.88,3.46-7.51,5.29-11.25a32.56,32.56,0,0,0,3.58-11.48C118.54,75.83,118.39,75.81,118.37,75.9ZM127,66.66a25.72,25.72,0,0,1-1.32,5.25,29.76,29.76,0,0,1-2.31,4.49,49.38,49.38,0,0,0-4.25,7.87c.08-1,.26-2,.29-3a37.49,37.49,0,0,0-.19-4.37s-.07,0-.07,0c.1,1.35.16,2.69.13,4a13.72,13.72,0,0,1-.47,4.14c-.06.16.19.22.26.07,2.51-6.25,8-11.44,8.26-18.48C127.35,66.52,127,66.47,127,66.66Zm6.62,2.82A31.69,31.69,0,0,0,130,65.22a9.63,9.63,0,0,1-2.42-6.68,59.55,59.55,0,0,1,.73-7.77,23.93,23.93,0,0,0-.31-7.41,20.62,20.62,0,0,0-1-3.44c.09,0,.17-.08.13-.16-2.22-5.4.14-12.3-4.87-16.49a11,11,0,0,0-1.18-.84A15.07,15.07,0,0,0,112.72,14c-3.83-1.76-8.35-1.95-11.59-4.87a18.7,18.7,0,0,1-3.46-4.67c-.19-.33-.77-1.84-1.12-1.92l-.49-.11c-2.77-.56-5.58-1-8.39-1.26A102.45,102.45,0,0,0,72.1.61a78.63,78.63,0,0,0-8.65.84c-.8.13-1.44,1.11-2.05,1.62a18.63,18.63,0,0,1-8.26,4.05c-1.1.23-2.19.47-3.29.73A65.74,65.74,0,0,0,26,18.51,47.91,47.91,0,0,0,14.16,31a48.37,48.37,0,0,0-7,19.27,61.32,61.32,0,0,0-.53,12c0,.27.44.28.43,0A59.47,59.47,0,0,1,10.73,39,45.23,45.23,0,0,1,21.1,23.45c7-6.88,16-11.46,25.31-14.24,2.42-.73,4.88-1.28,7.34-1.83a19.06,19.06,0,0,0,8.83-4.91c.22-.22.44-.44.65-.67s1.45-.21,1.76-.25c.94-.14,1.89-.24,2.85-.34A84.88,84.88,0,0,1,76.57.8a104.37,104.37,0,0,1,14.35,1c1.38.19,2.77.41,4.14.66l1.06.21c.42.09.32.08.55.5,1.82,3.29,3.75,6.42,7.26,8.08a52.93,52.93,0,0,0,6,1.91,22.28,22.28,0,0,1,5.94,2.9,13.56,13.56,0,0,1,4.76,6.13c-.39-.23-.8-.43-1.21-.62-1.41-3.3-5.44-5.05-8.72-5.78,0,0-.07.07,0,.08,3.24.83,6.8,2.45,8.41,5.55-1.1-.48-2.24-.88-3.33-1.29a12.61,12.61,0,0,1-6.46-4.61.13.13,0,0,0-.22.13c2.32,4.61,8.09,4.91,12,7.51,5.18,3.44,3.61,10.1,5.21,15.35a29.67,29.67,0,0,0-5.06-7.31c-.1-.11-.25.05-.16.16,3.26,3.86,5.82,8.2,6.61,13.25.84,5.41-1.3,10.71-.59,16.1a9.29,9.29,0,0,0,2.56,5.08c1.35,1.52,3,2.86,3.87,4.72,1.16,2.39-.5,5.06-1.77,7a9.67,9.67,0,0,0-1.49,2.51,23.27,23.27,0,0,0,.58-3.42c.28-3.54-1.47-6.53-3.19-9.49,0,0-.06,0,0,0a27,27,0,0,1,2.84,6.12,14.22,14.22,0,0,1-.39,7.06.07.07,0,0,0,.12,0c1.21-1.91,2.75-3.55,3.66-5.67A5.52,5.52,0,0,0,133.63,69.48ZM25.5,40.07l.06-.26c0-.07-.08-.12-.11-.05a21.17,21.17,0,0,1-4.78,6.41A24.58,24.58,0,0,0,15.91,52a40.08,40.08,0,0,1,2.48-12.62,38.27,38.27,0,0,1,6.84-11C31,21.71,38.71,16.87,46.84,13.59a78.22,78.22,0,0,1,7.6-2.6.1.1,0,0,0-.06-.2C38.44,14.82,22.07,25.53,17.05,42A30.65,30.65,0,0,0,15.68,52.5c0,.09.15.15.2,0C17.47,49.11,20.55,46.79,23,44a18.59,18.59,0,0,0,1.44-1.87c.23-.36.44-.73.64-1.11.06-.12.12-.25.17-.38a25.06,25.06,0,0,1-2.49,6.12s0,0,0,0a26.08,26.08,0,0,0,2.71-6.61C25.51,40.12,25.51,40.08,25.5,40.07Zm-19,24.35c-.07.09.08.18.15.09,3-3.82,5.77-7.62,9.9-10.25,0,0,0,0,0,0C12.32,56.77,9.34,60.5,6.49,64.42Z"/></g></g></svg>